<svg version="1.1" xmlns="http://www.w3.org/2000/svg" xmlns:xlink="http://www.w3.org/1999/xlink" width="224.21922" height="223.4952" viewBox="0,0,224.21922,223.4952"><defs><linearGradient x1="272.45495" y1="182.25976" x2="207.89039" y2="182.25976" gradientUnits="userSpaceOnUse" id="color-1"><stop offset="0" stop-color="#362932"/><stop offset="1" stop-color="#44333e"/></linearGradient><linearGradient x1="320.84553" y1="227.05508" x2="319.64996" y2="291.60858" gradientUnits="userSpaceOnUse" id="color-2"><stop offset="0" stop-color="#362932"/><stop offset="1" stop-color="#44333e"/></linearGradient><linearGradient x1="322.84252" y1="68.39142" x2="321.64696" y2="132.94491" gradientUnits="userSpaceOnUse" id="color-3"><stop offset="0" stop-color="#362932"/><stop offset="1" stop-color="#44333e"/></linearGradient><linearGradient x1="432.10961" y1="179.75225" x2="367.54504" y2="179.75225" gradientUnits="userSpaceOnUse" id="color-4"><stop offset="0" stop-color="#362932"/><stop offset="1" stop-color="#44333e"/></linearGradient><linearGradient x1="283.0524" y1="212.51854" x2="237.32297" y2="258.09707" gradientUnits="userSpaceOnUse" id="color-5"><stop offset="0" stop-color="#362932"/><stop offset="1" stop-color="#44333e"/></linearGradient><linearGradient x1="400.66501" y1="98.89992" x2="354.93559" y2="144.47845" gradientUnits="userSpaceOnUse" id="color-6"><stop offset="0" stop-color="#362932"/><stop offset="1" stop-color="#44333e"/></linearGradient><linearGradient x1="392.96209" y1="269.77987" x2="354.6205" y2="217.83273" gradientUnits="userSpaceOnUse" id="color-7"><stop offset="0" stop-color="#362932"/><stop offset="1" stop-color="#44333e"/></linearGradient><linearGradient x1="236.91781" y1="106.79772" x2="282.43655" y2="152.58666" gradientUnits="userSpaceOnUse" id="color-8"><stop offset="0" stop-color="#362932"/><stop offset="1" stop-color="#44333e"/></linearGradient><radialGradient cx="321.25375" cy="180.0075" r="52.55255" gradientUnits="userSpaceOnUse" id="color-9"><stop offset="0" stop-color="#533f4c"/><stop offset="1" stop-color="#44333e"/></radialGradient></defs><g transform="translate(-207.89039,-68.2524)"><g stroke="none" stroke-width="0" stroke-miterlimit="10"><g><path d="M207.89039,189.76727v-15.01502h64.56456v15.01502z" fill="url(#color-1)"/><path d="M327.15618,291.7476l-15.01244,-0.27804l1.19556,-64.55349l15.01244,0.27804z" fill="url(#color-2)"/><path d="M329.15318,133.08393l-15.01245,-0.27804l1.19557,-64.55349l15.01244,0.27804z" fill="url(#color-3)"/><path d="M367.54504,187.25976v-15.01502h64.56457v15.01502z" fill="url(#color-4)"/><path d="M242.6228,263.41445l-10.59966,-10.63475l45.72942,-45.57853l10.59966,10.63475z" fill="url(#color-5)"/><path d="M360.23542,149.79583l-10.59966,-10.63475l45.72942,-45.57853l10.59966,10.63475z" fill="url(#color-6)"/><path d="M348.58013,222.29106l12.08073,-8.91665l38.34159,51.94714l-12.08073,8.91665z" fill="url(#color-7)"/><path d="M287.76084,147.29378l-10.64859,10.58576l-45.51874,-45.78894l10.64859,-10.58576z" fill="url(#color-8)"/><path d="M268.7012,180.0075c0,-29.02397 23.52858,-52.55255 52.55255,-52.55255c29.02397,0 52.55255,23.52858 52.55255,52.55255c0,29.02397 -23.52858,52.55255 -52.55255,52.55255c-29.02397,0 -52.55255,-23.52858 -52.55255,-52.55255z" fill="url(#color-9)"/></g></g></g></svg>