<svg version="1.1" xmlns="http://www.w3.org/2000/svg" xmlns:xlink="http://www.w3.org/1999/xlink" width="164.80727" height="115.13267" viewBox="0,0,164.80727,115.13267"><g transform="translate(-161.08543,-121.67142)"><g stroke-width="0" stroke-miterlimit="10"><g fill="#0ac00a"><path d="M258.52384,177.84016c10.96592,13.14013 33.10337,-16.4539 43.51931,-2.87369c-4.42352,0.54133 15.98228,12.8694 10.31075,13.77507c-2.01512,-2.89727 -9.49551,9.15275 -21.15028,11.56722c-12.63536,2.61761 -29.47208,-4.24198 -30.57839,-3.9682c-2.36846,0.58612 -5.42955,-22.48843 -2.1014,-18.5004z" stroke="#000000"/><path d="M314.28421,183.7009c-8.4731,4.33234 -17.88073,2.87899 -21.01255,-3.24615c-3.13181,-6.12513 1.19816,-14.60258 9.67126,-18.93492c8.4731,-4.33234 17.88073,-2.87899 21.01255,3.24615c3.13181,6.12514 -1.19816,14.60258 -9.67126,18.93492z" stroke="#33943a"/><path d="M317.2027,191.73579c-4.92746,0.16423 -14.32702,-5.64865 -14.45687,-9.54479c-0.12985,-3.89613 9.05916,-4.40013 13.98662,-4.56436c4.92747,-0.16423 9.02724,2.86108 9.15709,6.75721c0.12986,3.89614 -3.75937,7.18771 -8.68684,7.35195z" stroke="none"/></g><g fill="#0ac00a"><path d="M200.43536,200.39484c-2.31871,-0.33668 -21.51962,-7.65308 -28.11889,-18.6582c-12.52446,-20.88614 11.72286,-22.3262 5.9563,-23.30504c3.41259,-5.63388 5.18652,18.71932 12.74002,13.28479c13.8176,-9.94139 25.44404,5.56345 22.36022,-0.28812c-1.77812,-3.374 4.95816,6.94158 2.48822,14.34505c-2.87662,8.62246 -14.88409,14.83016 -15.42587,14.62152z" stroke="#000000"/><path d="M185.99756,161.02716c0.24152,9.51336 -5.1377,17.36702 -12.01484,17.54161c-6.87714,0.1746 -12.64795,-7.39599 -12.88947,-16.90935c-0.24152,-9.51336 5.1377,-17.36701 12.01484,-17.54161c6.87714,-0.1746 12.64795,7.39599 12.88947,16.90935z" stroke="#33943a"/><path d="M190.81632,157.58376c-1.15496,4.79301 -9.26273,12.30335 -13.05256,11.39013c-3.78982,-0.91322 -1.82657,-9.9042 -0.6716,-14.69721c1.15496,-4.79302 5.16351,-7.93819 8.95333,-7.02497c3.78982,0.91322 5.9258,5.53904 4.77083,10.33205z" stroke="none"/></g><g stroke="#000000"><path d="M261.38891,179.1139c7.31544,15.47251 -1.47136,18.44815 -2.61097,18.43539c-2.43975,-0.02732 -5.65559,11.19039 -7.41982,18.17018c-0.08976,-0.00241 -2.82163,21.08462 -2.82163,21.08462l-71.49397,-1.19186c0,0 4.38742,-8.84209 9.9601,-16.44753c6.76661,-9.23488 14.91582,-17.55876 14.42209,-17.65966c-2.34247,0.05106 11.98203,-25.44449 7.97375,-30.7061c-5.00286,-6.56719 49.77022,3.61906 51.99045,8.31496z" fill="#09b309"/><g><path d="M275.16375,140.75865c2.04962,5.00081 5.57111,10.15574 -4.02012,21.96551c-3.69576,4.55063 -13.33375,10.88564 -10.81578,15.42885c8.29645,14.96941 -48.0792,0.04229 -52.41793,-4.95034c-5.66266,-6.51609 -8.1162,-14.09072 -8.58487,-21.35479c-1.16675,-18.08401 6.98865,-28.3342 29.36008,-29.77756c22.37143,-1.44336 38.91259,0.22806 46.47863,18.6883z" fill="#09b309"/><path d="M227.42142,141.98435c-1.1672,4.26984 -5.28654,7.06396 -9.20082,6.24083c-3.91428,-0.82312 -6.14122,-4.9518 -4.97404,-9.22162c1.1672,-4.26984 5.28654,-7.06395 9.20082,-6.24083c3.91428,0.82312 6.14122,4.9518 4.97404,9.22162z" fill="#ffffff"/><path d="M226.34634,141.99152c-0.96161,3.51775 -4.35539,5.81971 -7.58021,5.14157c-3.22482,-0.67815 -5.05953,-4.07958 -4.0979,-7.59734c0.96161,-3.51775 4.35538,-5.81972 7.58022,-5.14159c3.22482,0.67815 5.05951,4.07958 4.0979,7.59735z" fill="#000000"/><path d="M258.05613,141.56691c-1.1672,4.26984 -5.28654,7.06395 -9.20082,6.24083c-3.91428,-0.82312 -6.14122,-4.9518 -4.97403,-9.22162c1.1672,-4.26984 5.28653,-7.06396 9.20081,-6.24083c3.91428,0.82312 6.14122,4.9518 4.97404,9.22162z" fill="#ffffff"/><path d="M257.34281,141.57346c-1.02201,3.73873 -4.62897,6.18529 -8.05636,5.46455c-3.4274,-0.72074 -5.37735,-4.33585 -4.35533,-8.07458c1.02201,-3.73873 4.62898,-6.18531 8.05636,-5.46456c3.4274,0.72074 5.37735,4.33585 4.35532,8.0746z" fill="#000000"/><g><g><path d="M209.76585,156.83615c0,0 15.31943,-1.52054 23.5734,-1.64202c9.0629,-0.13339 28.60447,0.87405 28.60447,0.87405c0,0 4.55232,7.94706 -1.82006,10.63926c-3.48687,1.47312 -16.07209,4.28952 -26.84875,4.61698c0,0 -19.55582,1.06665 -24.84422,-7.03545c-1.69138,-2.59127 1.33516,-7.4528 1.33516,-7.4528z" fill="#000000"/><path d="M245.0282,155.99762c0,0 -0.47011,3.81137 -2.50134,3.47223c-2.29678,-0.38346 -2.3416,-3.85038 -2.3416,-3.85038c0,0 1.18577,0.08451 2.48751,0.09005c1.30175,0.00554 2.35545,0.28809 2.35545,0.28809z" fill="#ffffff"/><path d="M250.60989,156.25609c0,0 -0.65681,3.78443 -2.66886,3.34783c-2.27507,-0.49369 -2.14947,-3.95886 -2.14947,-3.95886c0,0 1.18015,0.14152 2.47997,0.20977c1.29985,0.06825 2.33834,0.40126 2.33834,0.40126z" fill="#ffffff"/><path d="M256.10057,156.531c0,0 -0.7597,3.76564 -2.75904,3.27541c-2.2607,-0.55433 -2.04072,-4.015 -2.04072,-4.015c0,0 1.17582,0.17301 2.47327,0.27597c1.29747,0.10296 2.32649,0.4636 2.32649,0.4636z" fill="#ffffff"/><path d="M261.09577,156.77527c0,0 -0.20221,3.83412 -2.25249,3.63526c-2.3183,-0.22486 -2.60571,-3.68006 -2.60571,-3.68006c0,0 1.18892,0.00291 2.48804,-0.08091c1.29912,-0.08382 2.37015,0.12571 2.37015,0.12571z" fill="#ffffff"/><path d="M239.45313,156.12752c0,0 -0.2022,3.83412 -2.25248,3.63526c-2.3183,-0.22487 -2.60572,-3.68006 -2.60572,-3.68006c0,0 1.18894,0.00291 2.48806,-0.08091c1.29912,-0.08382 2.37016,0.12573 2.37016,0.12573z" fill="#ffffff"/><path d="M233.68432,156.12851c0,0 -0.20222,3.83413 -2.25249,3.63525c-2.3183,-0.22487 -2.60571,-3.68006 -2.60571,-3.68006c0,0 1.18893,0.00291 2.48805,-0.08091c1.29912,-0.08382 2.37015,0.12572 2.37015,0.12572z" fill="#ffffff"/><path d="M228.46123,156.52984c0,0 -0.2022,3.83411 -2.25248,3.63525c-2.3183,-0.22486 -2.60572,-3.68006 -2.60572,-3.68006c0,0 1.18893,0.00291 2.48805,-0.08091c1.29912,-0.08382 2.37014,0.12571 2.37014,0.12571z" fill="#ffffff"/><path d="M223.25797,156.50651c0,0 -0.01945,3.83907 -2.07704,3.73612c-2.32656,-0.11641 -2.77818,-3.5541 -2.77818,-3.5541c0,0 1.18782,-0.05261 2.48158,-0.19696c1.29377,-0.14436 2.37364,0.01495 2.37364,0.01495z" fill="#ffffff"/><path d="M218.04017,156.99017c0,0 -0.02199,4.33986 -2.34798,4.22349c-2.63007,-0.13159 -3.1406,-4.01773 -3.1406,-4.01773c0,0 1.34277,-0.05946 2.8053,-0.22265c1.46252,-0.16319 2.68329,0.0169 2.68329,0.0169z" fill="#ffffff"/><path d="M210.46492,157.7878l-0.48052,-0.93908c0,0 15.63128,-1.33521 23.96313,-1.45695c8.97549,-0.13113 27.92152,0.83163 27.92152,0.83163l-0.07676,0.74736c0,0 -18.77272,-1.45572 -27.66612,-0.79687c-8.31525,0.61601 -23.66126,1.61391 -23.66126,1.61391z" fill="#000000"/></g><path d="M234.99061,170.59041c-1.47136,0.02611 -2.81065,0.13968 -2.81065,0.13968c0,0 0.00693,-3.91953 2.59827,-4.38799c2.29175,-0.4143 2.87124,3.88675 2.87124,3.88675c0,0 -1.1875,0.33546 -2.65887,0.36156z" fill="#ffffff"/><path d="M240.59858,169.9396c-1.36714,0.18205 -2.60172,0.43135 -2.60172,0.43135c0,0 -0.42215,-3.64912 1.93942,-4.36299c2.08854,-0.63134 3.09842,3.31004 3.09842,3.31004c0,0 -1.06899,0.43956 -2.43612,0.6216z" fill="#ffffff"/><path d="M226.58498,170.17417c0,0 0.49503,-4.03847 2.64739,-3.68076c2.43373,0.40448 2.48399,4.0776 2.48399,4.0776c0,0 -1.25637,-0.08859 -2.63558,-0.09345c-1.37919,-0.00486 -2.49581,-0.3034 -2.49581,-0.3034z" fill="#ffffff"/><path d="M220.94983,168.88141c0,0 1.52963,-3.77694 3.51538,-2.88178c2.24534,1.01219 1.33754,4.57519 1.33754,4.57519c0,0 -1.19043,-0.40634 -2.52127,-0.76308c-1.33086,-0.35674 -2.33163,-0.93034 -2.33163,-0.93034z" fill="#ffffff"/><path d="M245.91822,168.80638c-1.34887,0.28653 -2.56032,0.62992 -2.56032,0.62992c0,0 -0.70694,-3.60531 1.59179,-4.49844c2.03297,-0.78986 3.34882,3.06164 3.34882,3.06164c0,0 -1.03143,0.52035 -2.3803,0.80687z" fill="#ffffff"/><path d="M215.94576,166.75679c0,0 1.75568,-3.09795 3.37167,-2.10038c1.82725,1.12799 0.63413,4.11049 0.63413,4.11049c0,0 -0.98366,-0.48525 -2.09453,-0.9433c-1.11087,-0.45806 -1.91127,-1.06682 -1.91127,-1.06682z" fill="#ffffff"/><path d="M210.40235,164.67171c0,0 1.75568,-3.09795 3.37167,-2.10038c1.82725,1.12799 0.63413,4.11049 0.63413,4.11049c0,0 -0.98366,-0.48524 -2.09453,-0.94329c-1.11087,-0.45806 -1.91127,-1.06682 -1.91127,-1.06682z" fill="#ffffff"/><path d="M250.8177,167.23216c-1.15773,0.32837 -2.19235,0.69823 -2.19235,0.69823c0,0 -0.8307,-3.0982 1.11814,-4.01032c1.72352,-0.80665 3.09925,2.47033 3.09925,2.47033c0,0 -0.8673,0.5134 -2.02503,0.84177z" fill="#ffffff"/><path d="M255.45166,166.26351c-1.15773,0.32837 -2.19236,0.69821 -2.19236,0.69821c0,0 -0.8307,-3.0982 1.11814,-4.01032c1.72352,-0.80665 3.09923,2.47032 3.09923,2.47032c0,0 -0.8673,0.51342 -2.02502,0.84179z" fill="#ffffff"/><path d="M259.577,165.29943c-1.15773,0.32837 -2.19236,0.69822 -2.19236,0.69822c0,0 -0.8307,-3.0982 1.11814,-4.01032c1.72352,-0.80665 3.09924,2.47032 3.09924,2.47032c0,0 -0.8673,0.51342 -2.02502,0.84179z" fill="#ffffff"/><path d="M209.26292,163.63114l2.3829,1.18624c0,0 1.2813,1.81184 3.59386,2.76509c3.70479,1.52714 9.88947,2.50137 16.43704,2.71559c8.61441,0.28184 30.50473,-6.02135 30.50473,-6.02135l-1.97063,1.44362c0,0 -6.76419,1.6914 -13.58028,3.4284c-5.12389,1.30576 -11.36678,2.17759 -15.2696,2.17275c-6.9348,-0.00862 -14.60135,-2.07981 -18.59252,-3.99939c-1.77031,-0.85145 -2.73198,-2.51949 -2.73198,-2.51949z" fill="#000000"/></g></g></g></g></g></svg>