<svg version="1.1" xmlns="http://www.w3.org/2000/svg" xmlns:xlink="http://www.w3.org/1999/xlink" width="691.04258" height="764.13058" viewBox="0,0,691.04258,764.13058"><g transform="translate(106.66114,117.18323)"><g data-paper-data="{&quot;isPaintingLayer&quot;:true}" fill-rule="nonzero" stroke-linecap="butt" stroke-linejoin="miter" stroke-miterlimit="10" stroke-dasharray="" stroke-dashoffset="0" style="mix-blend-mode: normal"><g data-paper-data="{&quot;index&quot;:null}" stroke="#000000" stroke-width="0"><path d="M-106.48645,19.86179v-114.54354h689.36638v114.54354z" fill="#afae9f"/><path d="M-104.98494,-82.18323v-35h689.36638v35z" fill="#cccbba"/></g><path d="M96.14708,42.63098v-137.8884l44.0991,0.21762v137.67078z" data-paper-data="{&quot;index&quot;:null}" fill="#a4a395" stroke="#000000" stroke-width="0"/><path d="M96.52637,-41.0973v-54.16012l45.29958,0.08548v54.07465z" data-paper-data="{&quot;index&quot;:null}" fill="#cccbba" stroke="#000000" stroke-width="0"/><g data-paper-data="{&quot;index&quot;:null}" stroke="#000000" stroke-width="0"><path d="M97.71776,646.94735v-78.5075h389.06608v78.5075z" fill="#afae9f"/><path d="M97.71776,582.43986v-35h389.06608v35z" fill="#cccbba"/></g><g stroke-width="0"><path d="M241.52742,-64.24363l1.53353,-5.97536l2.22966,5.96044z" fill="#000000" stroke="#33943a"/><path d="M234.91782,-64.49279l1.53353,-5.97536l2.22966,5.96044z" fill="#000000" stroke="#33943a"/><g stroke="#000000"><g><path d="M198.83967,-60.3403c0.71095,2.08576 1.76844,5.62646 -2.42601,10.19654c-1.61624,1.76098 -4.94006,2.23568 -4.02723,4.14674c0.20587,0.43102 6.74624,5.83829 9.65079,8.73228c2.9887,2.97785 4.17365,5.14454 4.78033,6.83003c-0.54148,-0.06483 -11.8973,-0.31554 -13.47716,-0.453c-0.85205,-2.69459 -2.13926,-6.30892 -2.91522,-6.31453c-0.90036,-0.00651 -1.68409,3.41297 -2.14653,5.98805c-0.6819,-0.02318 -1.36007,-0.0355 -2.03314,-0.03426c-5.85189,0.01077 -11.70371,0.04542 -17.55555,0.07564c-0.24289,-1.97633 -0.59435,-4.16766 -0.96503,-4.24189c-0.82915,0.02136 -1.63433,2.30583 -2.1717,4.2575c-3.28296,0.01555 -6.56593,0.02811 -9.84893,0.03268c1.04489,-2.7323 3.30281,-6.38791 5.85754,-8.98504c4.86711,-4.94788 10.41088,-6.62808 8.76809,-8.7669c-2.14406,-2.79146 -2.70026,-5.51226 -2.71202,-8.48017c-0.02928,-7.38867 3.62574,-11.69847 12.76612,-11.73469c9.14039,-0.03622 15.83122,1.05158 18.45564,8.75103z" fill="#000000"/><path d="M198.15457,-59.87193c0.68335,2.00479 1.93883,4.10472 -2.09281,8.49741c-1.5535,1.69262 -5.47378,3.94254 -4.59638,5.77942c0.19788,0.41428 6.56544,5.52994 9.35723,8.31159c3.25771,3.24589 4.83707,5.59651 5.37943,6.86352c-0.37931,-0.04884 -10.54002,-0.25683 -11.92779,-0.38415c-1.00974,-2.6999 -2.94487,-7.55588 -3.80348,-7.56209c-0.95618,-0.00691 -2.19905,4.3943 -2.87961,7.13241c-0.07881,-0.0018 -13.69861,0.03393 -18.38487,0.05831c-0.30205,-2.30129 -0.79144,-5.46836 -1.2061,-5.55139c-0.91793,0.02365 -2.15705,3.32306 -2.89575,5.57179c-2.84276,0.01322 -5.68553,0.02403 -8.52831,0.02918c0.9447,-2.40233 3.19383,-5.8054 5.7512,-8.40521c4.67818,-4.75582 10.32911,-7.18606 8.7501,-9.24186c-2.06084,-2.68311 -2.84125,-5.70431 -2.85255,-8.55701c-0.02815,-7.10185 3.40489,-10.91845 12.19048,-10.95327c8.78558,-0.03481 15.21668,1.01076 17.73924,8.41134z" fill="#afae9f"/></g><g><path d="M180.04476,-60.35979c-0.67902,1.99996 -2.72153,3.21195 -4.56207,2.70706c-1.84054,-0.50489 -2.78213,-2.53549 -2.10311,-4.53545c0.67902,-1.99996 2.72153,-3.21195 4.56207,-2.70706c1.84054,0.50489 2.78213,2.53549 2.10311,4.53545z" fill="#000000"/><path d="M179.44937,-60.52311c-0.55772,1.64266 -2.23532,2.63813 -3.74703,2.22343c-1.51172,-0.41469 -2.28509,-2.08251 -1.72739,-3.72517c0.55772,-1.64266 2.23532,-2.63813 3.74703,-2.22343c1.51172,0.41469 2.28509,2.08251 1.72739,3.72517z" fill="#ffffff"/><path d="M179.49875,-59.93827c-0.41618,1.22581 -1.66807,1.96866 -2.79616,1.6592c-1.1281,-0.30946 -1.70522,-1.55404 -1.28903,-2.77985c0.41618,-1.22581 1.66807,-1.96866 2.79617,-1.6592c1.1281,0.30946 1.70521,1.55404 1.28903,2.77985z" fill="#000000"/></g><g><path d="M192.03853,-59.79758c-0.67902,1.99996 -2.72153,3.21195 -4.56207,2.70706c-1.84054,-0.50489 -2.78213,-2.53549 -2.10311,-4.53545c0.67902,-1.99996 2.72153,-3.21195 4.56207,-2.70706c1.84054,0.50489 2.78213,2.53549 2.10311,4.53545z" fill="#000000"/><path d="M191.44315,-59.96091c-0.55772,1.64266 -2.23532,2.63813 -3.74703,2.22343c-1.51172,-0.41469 -2.28509,-2.08251 -1.72739,-3.72517c0.55772,-1.64266 2.23532,-2.63813 3.74703,-2.22343c1.51172,0.41469 2.28509,2.08251 1.72739,3.72517z" fill="#ffffff"/><path d="M191.49252,-59.37606c-0.41618,1.22581 -1.66807,1.96866 -2.79616,1.6592c-1.1281,-0.30946 -1.70521,-1.55404 -1.28903,-2.77985c0.41618,-1.22581 1.66807,-1.96866 2.79616,-1.6592c1.1281,0.30946 1.70521,1.55404 1.28903,2.77985z" fill="#000000"/></g><g><g><path d="M172.19102,-55.13141c0,0 6.02876,-0.23202 9.26049,-0.08406c3.54844,0.16245 11.16899,1.01934 11.16899,1.01934c0,0 0.56716,2.74299 -1.98939,3.64523c-1.3989,0.49369 -5.36333,1.77098 -9.58677,1.64386c0,0 -3.5744,0.00787 -6.37267,-2.25432c-1.75353,-1.41759 -2.48065,-3.97004 -2.48065,-3.97004z" fill="#000000"/><path d="M186.00505,-54.62433c0,0 -0.27417,1.47982 -1.06073,1.29905c-0.88939,-0.2044 -0.82482,-1.56167 -0.82482,-1.56167c0,0 0.46186,0.06114 0.97095,0.09414c0.5091,0.03299 0.9146,0.16848 0.9146,0.16848z" fill="#ffffff"/><path d="M188.18241,-54.39104c0,0 -0.34656,1.46486 -1.12331,1.24642c-0.87828,-0.247 -0.74709,-1.59956 -0.74709,-1.59956c0,0 0.4583,0.08331 0.96517,0.14079c0.50686,0.05748 0.90523,0.21234 0.90523,0.21234z" fill="#ffffff"/><path d="M190.32378,-54.15346c0,0 -0.38636,1.45508 -1.15687,1.21596c-0.87123,-0.27038 -0.70322,-1.61894 -0.70322,-1.61894c0,0 0.45587,0.09553 0.96098,0.16653c0.50511,0.071 0.89911,0.23645 0.89911,0.23645z" fill="#ffffff"/><path d="M192.27205,-53.93961c0,0 -0.1699,1.49507 -0.96723,1.36872c-0.90156,-0.14287 -0.93217,-1.5013 -0.93217,-1.5013c0,0 0.46502,0.02929 0.97521,0.02727c0.51018,-0.00202 0.92419,0.10531 0.92419,0.10531z" fill="#ffffff"/><path d="M183.82108,-54.70555c0,0 -0.1699,1.49507 -0.96723,1.36872c-0.90156,-0.14287 -0.93217,-1.5013 -0.93217,-1.5013c0,0 0.46502,0.02929 0.97521,0.02727c0.51018,-0.00202 0.9242,0.10532 0.9242,0.10532z" fill="#ffffff"/><path d="M181.56437,-54.84179c0,0 -0.1699,1.49507 -0.96723,1.36872c-0.90156,-0.14287 -0.93217,-1.5013 -0.93217,-1.5013c0,0 0.46502,0.02929 0.97521,0.02727c0.51018,-0.00202 0.92419,0.10531 0.92419,0.10531z" fill="#ffffff"/><path d="M179.51166,-54.80848c0,0 -0.1699,1.49507 -0.96723,1.36872c-0.90156,-0.14287 -0.93217,-1.5013 -0.93217,-1.5013c0,0 0.46502,0.02929 0.97521,0.02727c0.51018,-0.00202 0.92419,0.10531 0.92419,0.10531z" fill="#ffffff"/><path d="M177.47678,-54.94083c0,0 -0.09853,1.50133 -0.90099,1.41233c-0.90737,-0.10063 -1.00262,-1.45611 -1.00262,-1.45611c0,0 0.46591,0.00756 0.97542,-0.01828c0.50952,-0.02583 0.92819,0.06206 0.92819,0.06206z" fill="#ffffff"/><path d="M175.42418,-54.8752c0,0 -0.11138,1.69717 -1.01852,1.59657c-1.02573,-0.11376 -1.13341,-1.64606 -1.13341,-1.64606c0,0 0.52668,0.00854 1.10267,-0.02066c0.57598,-0.0292 1.04927,0.07015 1.04927,0.07015z" fill="#ffffff"/><path d="M172.44195,-54.74258l-0.16573,-0.37874c0,0 6.14636,-0.15213 9.40856,-0.00244c3.5142,0.16126 10.90283,0.98657 10.90283,0.98657l-0.04772,0.29054c0,0 -7.30916,-1.01404 -10.80375,-0.96692c-3.26741,0.04405 -9.29419,0.07099 -9.29419,0.07099z" fill="#000000"/></g><path d="M181.73289,-49.15355c-0.57619,-0.02464 -1.1028,-0.01192 -1.1028,-0.01192c0,0 0.09553,-1.53311 1.12033,-1.655c0.90631,-0.10779 1.03114,1.58844 1.03114,1.58844c0,0 -0.47247,0.10311 -1.04867,0.07847z" data-paper-data="{&quot;index&quot;:null}" fill="#ffffff"/><path d="M183.94206,-49.27533c-0.53912,0.03884 -1.02797,0.10712 -1.02797,0.10712c0,0 -0.07872,-1.43749 0.862,-1.66081c0.83196,-0.1975 1.13367,1.36822 1.13367,1.36822c0,0 -0.42859,0.14663 -0.9677,0.18547z" data-paper-data="{&quot;index&quot;:null}" fill="#ffffff"/><path d="M178.45457,-49.51544c0,0 0.28929,-1.56808 1.1228,-1.37717c0.94247,0.21586 0.87514,1.65393 0.87514,1.65393c0,0 -0.48938,-0.06441 -1.02879,-0.09898c-0.53941,-0.03456 -0.96914,-0.17779 -0.96914,-0.17779z" data-paper-data="{&quot;index&quot;:null}" fill="#ffffff"/><path d="M176.48469,-50.36012c0,0 0.68781,-1.44127 1.44342,-1.04406c0.85438,0.44913 0.41488,1.82142 0.41488,1.82142c0,0 -0.45606,-0.18715 -0.96821,-0.35821c-0.51216,-0.17107 -0.89007,-0.41916 -0.89007,-0.41916z" data-paper-data="{&quot;index&quot;:null}" fill="#ffffff"/><path d="M186.04986,-49.59264c-0.53445,0.08015 -1.01648,0.18578 -1.01648,0.18578c0,0 -0.19116,-1.42709 0.72923,-1.72203c0.81397,-0.26083 1.23751,1.27698 1.23751,1.27698c0,0 -0.4158,0.17912 -0.95025,0.25926z" data-paper-data="{&quot;index&quot;:null}" fill="#ffffff"/><path d="M174.71314,-51.51501c0,0 0.76016,-1.1703 1.3687,-0.74179c0.68808,0.48453 0.15072,1.62299 0.15072,1.62299c0,0 -0.3733,-0.21312 -0.79701,-0.41861c-0.42371,-0.2055 -0.7224,-0.46259 -0.7224,-0.46259z" data-paper-data="{&quot;index&quot;:null}" fill="#ffffff"/><path d="M188.00376,-50.09243c-0.46067,0.10103 -0.87415,0.22122 -0.87415,0.22122c0,0 -0.25159,-1.23165 0.53237,-1.5423c0.69333,-0.27474 1.15388,1.03975 1.15388,1.03975c0,0 -0.35144,0.1803 -0.8121,0.28133z" data-paper-data="{&quot;index&quot;:null}" fill="#ffffff"/><path d="M189.83836,-50.63455c-0.46067,0.10103 -0.87416,0.22121 -0.87416,0.22121c0,0 -0.25159,-1.23165 0.53237,-1.5423c0.69333,-0.27474 1.15388,1.03975 1.15388,1.03975c0,0 -0.35144,0.1803 -0.8121,0.28134z" data-paper-data="{&quot;index&quot;:null}" fill="#ffffff"/><path d="M173.47077,-52.55994l0.14994,-0.36363c0,0 2.60262,3.1895 6.75449,3.57745c3.36317,0.31426 10.84603,-1.96937 10.84603,-1.96937l-0.12244,0.58359c0,0 -2.13914,0.77224 -4.84664,1.29032c-2.03533,0.38945 -4.49811,0.58265 -6.02472,0.48834c-3.91579,-0.24194 -6.75666,-3.60669 -6.75666,-3.60669z" fill="#000000"/></g></g><g><path d="M220.54003,-50.00312c0.00164,0.41451 3.86408,1.33065 5.71357,4.21637c2.32146,3.62213 2.52187,9.3484 2.46959,9.73435c-0.02489,0.18373 0.95371,2.35846 1.29003,4.17329c0.06666,0.3597 0.09735,0.6962 0.10315,1.01691c-0.35812,-0.00725 -0.71376,-0.01175 -1.06566,-0.01036c-1.02616,0.00406 -2.05232,0.00813 -3.07848,0.0122c-0.1405,-0.93012 -0.24693,-1.65698 -0.37372,-1.80295c-1.17971,-1.35824 -2.28352,-8.45668 -3.72263,-9.56258c-1.31457,-1.01019 0.00979,5.71131 0.22326,11.85564c-1.78086,0.00705 -11.58951,-0.14681 -14.66843,-0.02103c0.41741,-5.4747 0.75533,-12.18047 -1.54564,-11.11942c-1.27714,0.58893 -1.4297,6.64701 -2.0218,10.87059c-0.03711,-0.0011 -0.07422,-0.00226 -0.11135,-0.00348c-1.2424,-0.04044 -2.60225,-0.11839 -3.88884,-0.11329c0,0 -0.19784,0.00078 -0.3559,0.11999c-0.01468,-0.2019 -0.03327,-0.32383 -0.05789,-0.34234c-0.2864,-0.21526 0.17805,-2.71731 0.53763,-5.16434c0.20965,-1.42678 -0.16952,-2.67046 0.10948,-4.12039c0.35532,-1.8465 1.2123,-3.29814 2.05522,-4.25798c2.31247,-2.63322 4.99739,-4.07627 4.99266,-5.27095c-0.00967,-2.44105 0.79376,-5.82715 1.11919,-8.83912c0.46423,-4.29661 0.71766,-7.09609 2.72661,-7.10404c0.84976,-0.00337 1.65594,2.97168 2.9629,3.16203c1.69115,0.2463 2.35297,-4.45132 3.36619,-3.91297c1.58331,0.84125 2.19097,4.63211 2.60634,8.81847c0.31904,3.21538 0.60889,6.24593 0.61452,7.6654z" fill="#000000" stroke="#33943a"/><path d="M220.19139,-49.63856c0.00154,0.38865 3.62297,1.24762 5.35705,3.95327c2.17661,3.39612 2.56311,8.76428 2.51408,9.12616c-0.02609,0.19253 1.29516,2.34412 1.37814,4.21096c0.02223,0.50018 -0.01853,0.98857 -0.08024,1.47582c-0.10353,-0.00052 -2.73414,0.0094 -3.94637,0.0142c-0.20265,-1.24314 -0.32506,-2.3444 -0.47983,-2.52259c-1.1061,-1.27348 -2.14103,-7.92899 -3.49034,-8.96588c-1.29202,-0.99287 0.13184,5.96568 0.23733,11.97802c-0.62364,0.00247 -12.0215,-0.12293 -13.84652,-0.04013c0.414,-5.25522 0.8932,-12.31734 -1.38381,-11.26734c-1.28951,0.59463 -1.38103,7.16086 -2.00899,11.04914c-0.22984,-0.00368 -3.16417,-0.09309 -4.35234,-0.12714c-0.00899,-0.55386 -0.0274,-0.91507 -0.06964,-0.94682c-0.26852,-0.20183 0.36711,-2.15135 0.70425,-4.44569c0.19658,-1.33774 -0.35872,-2.80093 -0.09713,-4.16039c0.33315,-1.73128 1.53306,-3.29251 2.32338,-4.19245c2.16818,-2.46891 4.68556,-3.82191 4.68112,-4.94205c-0.00907,-2.28873 0.74422,-5.46354 1.04935,-8.28757c0.43526,-4.0285 0.66973,-7.44768 2.55332,-7.45514c0.79674,-0.00316 1.55576,3.58062 2.78117,3.7591c1.58563,0.23094 2.20379,-4.76934 3.15378,-4.26459c1.48451,0.78875 2.05662,4.93885 2.44607,8.86399c0.29912,3.01475 0.5709,5.85619 0.57617,7.18709z" fill="#afae9f" stroke="#33943a"/><g stroke="#000000"><path d="M213.89014,-58.14902c0.17305,1.2194 -0.66268,2.37651 -1.86666,2.58449c-1.20397,0.20798 -2.32027,-0.61194 -2.49332,-1.83133c-0.17305,-1.2194 0.66269,-2.37651 1.86666,-2.58449c1.20397,-0.20798 2.32027,0.61194 2.49332,1.83133z" fill="#000000"/><path d="M213.50069,-58.08175c0.14213,1.00155 -0.5443,1.95194 -1.53317,2.12277c-0.98888,0.17082 -1.90574,-0.50261 -2.04788,-1.50415c-0.14213,-1.00155 0.5443,-1.95194 1.53317,-2.12277c0.98888,-0.17082 1.90574,0.50261 2.04788,1.50415z" fill="#ffffff"/><path d="M213.69428,-57.78873c0.10607,0.74738 -0.40617,1.45661 -1.14411,1.58408c-0.73794,0.12747 -1.42213,-0.37507 -1.52819,-1.12245c-0.10607,-0.74738 0.40617,-1.45661 1.14411,-1.58408c0.73794,-0.12747 1.42213,0.37507 1.52819,1.12246z" fill="#000000"/></g><g stroke="#000000"><path d="M219.04084,-58.09257c0.17305,1.2194 -0.66269,2.37652 -1.86666,2.58449c-1.20397,0.20798 -2.32027,-0.61194 -2.49332,-1.83133c-0.17305,-1.2194 0.66269,-2.37652 1.86666,-2.58449c1.20397,-0.20798 2.32027,0.61194 2.49332,1.83133z" fill="#000000"/><path d="M218.65137,-58.02529c0.14213,1.00155 -0.5443,1.95194 -1.53317,2.12277c-0.98888,0.17082 -1.90574,-0.50261 -2.04788,-1.50415c-0.14213,-1.00155 0.5443,-1.95194 1.53317,-2.12277c0.98888,-0.17082 1.90574,0.50261 2.04788,1.50415z" fill="#ffffff"/><path d="M218.84496,-57.73227c0.10607,0.74738 -0.40617,1.4566 -1.14411,1.58408c-0.73794,0.12747 -1.42213,-0.37507 -1.52819,-1.12245c-0.10607,-0.74738 0.40617,-1.4566 1.14411,-1.58408c0.73794,-0.12747 1.42213,0.37507 1.52819,1.12245z" fill="#000000"/></g><g fill="#afae9f" stroke="#33943a"><path d="M214.00832,-61.97181c0.36302,-0.73137 0.86652,-1.74576 1.09177,-2.19958c0.21976,-0.44275 0.89847,-0.62844 1.18596,-0.30031c0.53743,0.61342 2.31315,2.64022 2.31315,2.64022c0,0 2.78509,0.21835 3.60992,0.28302c0.43011,0.03372 0.87677,0.28811 0.71956,0.60486c-0.37578,0.75709 -1.051,2.11743 -1.31013,2.6395c-0.1985,0.39991 -0.8543,0.53037 -1.15242,0.23399c-0.54038,-0.53724 -2.27988,-2.26661 -2.27988,-2.26661c0,0 -2.95103,-0.51354 -3.75427,-0.65332c-0.37961,-0.06606 -0.66116,-0.50327 -0.42366,-0.98176z"/><path d="M217.52669,-60.55444l0.82974,-1.67168l1.01181,0.50221l-0.82974,1.67168z"/></g><path d="M209.80254,-53.09246c-0.00164,-0.41464 0.65338,-1.20188 1.51031,-1.00868c0.97802,0.22049 2.21403,0.45582 3.02297,0.45261c0.86299,-0.00342 2.23535,-0.29664 3.22904,-0.54038c0.70963,-0.17406 1.22998,0.64618 1.23163,1.06082c0.00134,0.33854 -0.2997,1.05525 -0.76236,1.23675c-0.99536,0.39048 -2.72811,1.00638 -3.76421,1.01048c-1.02068,0.00404 -2.75792,-0.61122 -3.73697,-0.9931c-0.43991,-0.17158 -0.72905,-0.87996 -0.7304,-1.2185z" fill="#000000" stroke="#33943a"/><path d="M210.18644,-52.95676c-0.00125,-0.31486 0.59842,-0.91306 1.38218,-0.76689c0.89451,0.16683 2.02501,0.34477 2.76499,0.34184c0.78942,-0.00313 2.04497,-0.22664 2.95411,-0.41234c0.64924,-0.13261 1.12474,0.48992 1.12598,0.80478c0.00102,0.25708 -0.2748,0.8015 -0.69813,0.93961c-0.91075,0.29713 -2.49616,0.76588 -3.44394,0.76964c-0.93367,0.0037 -2.52244,-0.46244 -3.41779,-0.75181c-0.4023,-0.13002 -0.66636,-0.66775 -0.66738,-0.92483z" fill="#ffffff" stroke="#33943a"/></g><path d="M234.12189,-57.97511c0.23433,-2.56869 0.4496,-5.1725 1.01606,-6.85775c0.35743,-1.06339 0.91037,-1.6508 1.52031,-1.9811c0.44942,-0.24337 1.11272,0.55164 1.55407,1.48649c0.54944,1.1638 0.90632,2.54369 1.84303,2.39968c0.91728,-0.14103 1.39319,-1.56247 1.99887,-2.45146c0.25629,-0.37617 0.68622,-0.73295 0.93888,-0.73395c0.83863,-0.00332 1.65056,0.48113 2.02736,1.36025c0.52584,1.22682 0.46518,3.22119 0.75546,5.72196c0.34929,3.0093 1.17954,6.38892 1.18921,8.82997c0.00474,1.19468 2.70101,2.6164 5.03428,5.23122c0.8505,0.95312 1.71896,2.39793 2.0889,4.24156c0.29049,1.44767 -0.07883,2.69432 0.14213,4.11939c0.37896,2.44411 0.86323,4.9424 0.57855,5.15992c-0.02448,0.0187 -0.0421,0.14078 -0.05518,0.34279c-0.15899,-0.11795 -0.35683,-0.11717 -0.35683,-0.11717c-1.28658,0.0051 -2.64577,0.09382 -3.88781,0.1441c-0.03711,0.0015 -0.07421,0.00295 -0.11131,0.00436c-0.62555,-4.21875 -0.82612,-10.27543 -2.10789,-10.85422c-2.3093,-1.04277 -1.91825,5.66011 -1.45746,11.13132c-3.07983,-0.10137 -12.88695,0.13023 -14.66781,0.13729c0.16477,-6.14583 1.43581,-12.87761 0.12929,-11.85703c-1.4303,1.11727 -2.47781,8.22424 -3.64672,9.59178c-0.12563,0.14698 -0.22631,0.87465 -0.35942,1.80586c-1.02616,0.00406 -2.05232,0.00813 -3.07848,0.0122c-0.3519,0.00139 -0.70749,0.00872 -1.06554,0.01881c0.00326,-0.32073 0.03128,-0.65748 0.09509,-1.01769c0.32193,-1.81744 1.28326,-3.99985 1.25691,-4.18338c-0.05535,-0.38553 0.09968,-6.1132 2.39236,-9.75362c1.82656,-2.90029 5.68161,-3.84701 5.67997,-4.26152c-0.00563,-1.41948 0.2602,-4.45222 0.55374,-7.67003z" fill="#000000" stroke="#33943a"/><path d="M234.43886,-57.13473c0.35833,-3.92811 0.89753,-8.08261 2.37575,-8.8831c0.94596,-0.51226 1.60374,4.48296 3.18748,4.23946c1.22396,-0.18818 1.95455,-3.77787 2.75129,-3.78103c1.88359,-0.00747 2.14514,3.40975 2.61232,7.43467c0.3275,2.82152 1.10593,5.99026 1.115,8.27899c0.00444,1.12014 2.53247,2.45315 4.72015,4.90479c0.79743,0.89365 2.00967,2.44532 2.35653,4.1739c0.27236,1.35734 -0.27132,2.82488 -0.06415,4.16103c0.35531,2.2916 1.00638,4.23602 0.73947,4.43997c-0.04198,0.03208 -0.05753,0.39342 -0.06214,0.94734c-1.18787,0.04346 -4.12139,0.15612 -4.3512,0.16162c-0.65876,-3.88318 -0.80231,-10.44848 -2.09649,-11.03287c-2.28526,-1.03192 -1.75011,6.02618 -1.29446,11.27796c-1.82562,-0.06834 -13.22213,0.1474 -13.84576,0.14987c0.05783,-6.01298 1.42649,-12.9826 0.14239,-11.97953c-1.34105,1.04755 -2.3232,7.71106 -3.41917,8.99327c-0.15335,0.1794 -0.26704,1.2816 -0.45983,2.52631c-1.21223,0.0048 -3.84283,0.01573 -3.94635,0.01707c-0.06557,-0.48675 -0.11021,-0.9748 -0.09194,-1.47513c0.06819,-1.86745 1.37234,-4.02943 1.34472,-4.22175c-0.05189,-0.36148 0.29205,-5.73253 2.44168,-9.1458c1.71258,-2.71932 5.32708,-3.60696 5.32555,-3.99561c-0.00527,-1.3309 0.24396,-4.17441 0.51919,-7.19143z" fill="#afae9f" stroke="#33943a"/><g stroke="#000000"><path d="M242.63199,-60.35447c1.20559,0.19843 2.05047,1.34889 1.88709,2.56961c-0.16338,1.22073 -1.27315,2.04946 -2.47873,1.85104c-1.20559,-0.19843 -2.05047,-1.34889 -1.88708,-2.56961c0.16338,-1.22073 1.27314,-2.04946 2.47873,-1.85104z" fill="#000000"/><path d="M242.57914,-59.95958c0.9902,0.16298 1.68414,1.1079 1.54995,2.11055c-0.13419,1.00264 -1.04569,1.68332 -2.03589,1.52034c-0.9902,-0.16298 -1.68414,-1.1079 -1.54995,-2.11055c0.13419,-1.00264 1.04569,-1.68332 2.03589,-1.52034z" fill="#ffffff"/><path d="M240.35196,-58.14469c0.10014,-0.74821 0.78033,-1.25615 1.51925,-1.13453c0.73893,0.12162 1.25677,0.82676 1.15663,1.57496c-0.10013,0.74821 -0.78033,1.25615 -1.51925,1.13453c-0.73892,-0.12162 -1.25676,-0.82676 -1.15662,-1.57496z" fill="#000000"/></g><g stroke="#000000"><path d="M237.48191,-60.25719c1.20559,0.19843 2.05047,1.34889 1.88709,2.56962c-0.16338,1.22073 -1.27314,2.04946 -2.47873,1.85104c-1.20559,-0.19843 -2.05047,-1.34889 -1.88709,-2.56962c0.16338,-1.22073 1.27314,-2.04946 2.47873,-1.85104z" fill="#000000"/><path d="M237.42907,-59.8623c0.9902,0.16298 1.68414,1.1079 1.54995,2.11055c-0.13419,1.00264 -1.04569,1.68332 -2.03589,1.52034c-0.9902,-0.16298 -1.68414,-1.1079 -1.54995,-2.11055c0.13419,-1.00264 1.04569,-1.68332 2.03589,-1.52034z" fill="#ffffff"/><path d="M235.20191,-58.04742c0.10014,-0.74821 0.78033,-1.25615 1.51925,-1.13453c0.73893,0.12162 1.25676,0.82676 1.15662,1.57496c-0.10013,0.74821 -0.78033,1.25615 -1.51925,1.13453c-0.73892,-0.12162 -1.25676,-0.82676 -1.15662,-1.57496z" fill="#000000"/></g><path d="M243.56008,-52.25517c-0.976,0.38963 -2.70831,1.01864 -3.72898,1.02268c-1.0361,0.00411 -2.77368,-0.59805 -3.7721,-0.98062c-0.46409,-0.17783 -0.7708,-0.89212 -0.77214,-1.23067c-0.00164,-0.41464 0.51219,-1.23896 1.22318,-1.07054c0.9956,0.23585 2.37023,0.51819 3.23322,0.51477c0.80894,-0.0032 2.04304,-0.24832 3.01928,-0.47656c0.85537,-0.19998 1.51661,0.58205 1.51825,0.99668c0.00134,0.33854 -0.28219,1.04919 -0.72071,1.22425z" fill="#000000" stroke="#33943a"/><path d="M243.23798,-52.41059c-0.89304,0.29646 -2.47805,0.77518 -3.41172,0.77888c-0.94778,0.00376 -2.53686,-0.45242 -3.44994,-0.74232c-0.42442,-0.13475 -0.70454,-0.67697 -0.70556,-0.93405c-0.00125,-0.31486 0.4693,-0.94113 1.11956,-0.81368c0.91058,0.17848 2.16785,0.39204 2.95728,0.38891c0.73998,-0.00293 1.86903,-0.18983 2.76219,-0.36374c0.78257,-0.15238 1.38696,0.44105 1.38821,0.75591c0.00102,0.25708 -0.25878,0.79688 -0.66003,0.93009z" fill="#ffffff" stroke="#33943a"/><path d="M238.99858,-51.86004c0,0 -0.82144,1.30138 -1.64698,1.30465c-0.04052,0.00016 -1.02619,0.8883 -1.45595,0.47316c-0.42976,-0.41514 -0.43338,-0.7634 -0.43641,-1.52777c-0.00318,-0.80382 0.90011,-1.30169 1.72566,-1.30496c0.82555,-0.00327 1.81368,1.05491 1.81368,1.05491z" fill="#afae9f" stroke="#33943a"/><path d="M241.98398,-64.84363l1.08469,-4.22648l1.57708,4.21593z" fill="#afae9f" stroke="#33943a"/><path d="M235.37474,-65.00101l1.08469,-4.22648l1.57708,4.21593z" fill="#afae9f" stroke="#33943a"/><g><path d="M308.36148,-31.32695c-0.64598,-0.09204 -3.15498,0.22575 -3.77033,0.19708c-0.24997,-1.20695 -0.33184,-2.4193 -0.6853,-2.93189c-1.21892,-1.76779 -0.97727,-5.44241 -2.05369,-6.05659c-1.45692,-0.8313 -1.69222,3.36526 -1.62407,4.05008c0.14158,1.42266 -0.14774,3.27235 -0.27189,4.89395c-1.04481,0.00722 -2.08679,0.01183 -3.11914,-0.01511c-0.81674,0.00319 -1.63349,0.0064 -2.45024,0.0096c-0.05886,-0.07727 -0.1164,-0.14982 -0.17242,-0.21694c-1.23813,-1.48342 -1.50574,-1.27186 -1.85002,-1.2705c-0.26732,0.00106 -0.7617,0.44303 -1.08956,1.4997c-1.96415,0.00776 -3.92831,0.01556 -5.89246,0.02337c0.13509,-4.70145 0.26013,-10.18629 -0.04518,-10.38191c-1.45767,-0.93395 -0.84765,2.8846 -1.15032,5.31071c-0.26893,2.15563 -0.72438,3.82079 -1.23571,5.08087c-1.30387,0.00519 -2.60775,0.01037 -3.91163,0.01555c0.03748,-0.40444 0.05456,-0.72448 -0.01824,-0.86519c-0.52605,-1.01676 1.43132,-8.81976 1.15298,-9.8083c-0.25731,-0.91385 -0.02666,-2.01741 -0.02984,-2.81903c-0.02238,-5.64868 8.70891,-5.67496 12.80006,-5.69116c1.24204,-0.00492 9.77867,1.02311 12.05952,2.86059c1.42158,1.14524 0.22157,4.37997 0.77671,5.9219c0.73744,2.04828 1.98653,4.01182 2.45283,5.67094c0.47462,1.68867 0.15367,4.20709 0.12793,4.5223z" fill="#000000" stroke="#33943a"/><path d="M307.91953,-31.17871c0.0002,0.05006 -2.47768,0.09468 -2.97396,0.06696c-0.32787,-1.30628 -0.26573,-2.67268 -0.6601,-3.24463c-1.17905,-1.70995 -1.33682,-5.71748 -2.37801,-6.31157c-1.40925,-0.8041 -1.95904,3.90597 -1.89312,4.56839c0.1426,1.43285 -0.1667,3.31353 -0.277,4.92668c-0.97145,0.00625 -1.94003,0.00848 -2.90029,-0.01658c-0.62804,0.00245 -1.25608,0.00491 -1.88413,0.00738c-0.14668,-0.22439 -0.29103,-0.42659 -0.43156,-0.59496c-1.19763,-1.43488 -2.17147,-1.35732 -2.50448,-1.356c-0.28907,0.00115 -0.97725,0.66091 -1.28802,1.96761c-1.69698,0.00671 -3.39395,0.01346 -5.09093,0.0202c0.10503,-4.78651 0.15089,-10.83721 -0.16035,-11.01252c-2.06053,-1.16063 -1.38885,3.39998 -1.82483,5.72437c-0.35294,1.88166 -0.85214,3.78523 -1.35415,5.30143c-0.93268,0.00371 -1.86537,0.00742 -2.79806,0.01112c0.04726,-0.48033 0.08233,-0.8706 0.00077,-1.02825c-0.50884,-0.9835 1.38449,-8.53122 1.11526,-9.48742c-0.24889,-0.88396 -0.02579,-1.95141 -0.02886,-2.72681c-0.02166,-5.46388 8.424,-5.4893 12.3813,-5.50498c1.20141,-0.00476 9.45876,0.98964 11.66499,2.76701c1.37507,1.10777 0.21432,4.23667 0.7513,5.72816c0.71331,1.98127 1.92153,3.88058 2.37259,5.48541c0.45909,1.63343 0.15611,3.31115 0.16165,4.70899z" fill="#afae9f" stroke="#33943a"/><g data-paper-data="{&quot;index&quot;:null}" stroke="#000000"><path d="M291.15792,-46.07399c0.19343,1.36301 -0.74074,2.65642 -2.08652,2.88889c-1.34578,0.23247 -2.59354,-0.684 -2.78698,-2.04702c-0.19343,-1.36301 0.74074,-2.65642 2.08651,-2.8889c1.34578,-0.23247 2.59355,0.68401 2.78698,2.04702z" fill="#000000"/><path d="M290.72258,-45.99878c0.15888,1.11951 -0.6084,2.18184 -1.71375,2.37278c-1.10534,0.19094 -2.1302,-0.56181 -2.28908,-1.68131c-0.15888,-1.11951 0.6084,-2.18184 1.71374,-2.37278c1.10534,-0.19094 2.13021,0.56181 2.28908,1.68131z" fill="#ffffff"/><path d="M290.93897,-45.67124c0.11855,0.83541 -0.45401,1.62816 -1.27886,1.77065c-0.82485,0.14248 -1.58963,-0.41924 -1.70818,-1.25466c-0.11855,-0.83541 0.45401,-1.62816 1.27886,-1.77065c0.82485,-0.14248 1.58963,0.41924 1.70818,1.25466z" fill="#000000"/></g><g data-paper-data="{&quot;index&quot;:null}" stroke="#000000"><path d="M298.2186,-45.93258c0.18219,1.28381 -0.69769,2.50206 -1.96527,2.72103c-1.26757,0.21897 -2.44284,-0.64426 -2.62503,-1.92808c-0.18219,-1.28381 0.69769,-2.50205 1.96527,-2.72102c1.26757,-0.21897 2.44284,0.64426 2.62503,1.92807z" fill="#000000"/><path d="M297.80856,-45.86174c0.14964,1.05446 -0.57305,2.05505 -1.61416,2.2349c-1.04112,0.17985 -2.00642,-0.52916 -2.15606,-1.58362c-0.14964,-1.05446 0.57305,-2.05505 1.61416,-2.2349c1.04112,-0.17985 2.00642,0.52916 2.15606,1.58362z" fill="#ffffff"/><path d="M298.01238,-45.55324c0.11167,0.78687 -0.42763,1.53355 -1.20454,1.66776c-0.77692,0.1342 -1.49726,-0.39488 -1.60892,-1.18175c-0.11167,-0.78687 0.42763,-1.53355 1.20455,-1.66776c0.77692,-0.1342 1.49725,0.39488 1.60892,1.18175z" fill="#000000"/></g><path d="M288.83797,-40.4599c0,0 0.78689,-1.05423 1.29656,-1.44949c0.40304,-0.31259 1.51732,-0.73283 1.51732,-0.73283l-0.42175,3.14987z" fill="#000000" stroke="#33943a"/><path d="M293.69917,-39.44395l-0.4467,-3.14643c0,0 1.11758,0.4114 1.52308,0.72078c0.51278,0.39122 1.308,1.43917 1.308,1.43917z" data-paper-data="{&quot;index&quot;:null}" fill="#000000" stroke="#33943a"/><path d="M289.47666,-40.834c0,0 0.52731,-0.70644 0.86883,-0.97131c0.27008,-0.20947 1.01676,-0.49107 1.01676,-0.49107l-0.28262,2.11074z" fill="#ffffff" stroke="#33943a"/><path d="M293.84415,-40.1384l-0.29934,-2.10844c0,0 0.74889,0.27568 1.02062,0.483c0.34361,0.26215 0.8765,0.9644 0.8765,0.9644z" data-paper-data="{&quot;index&quot;:null}" fill="#ffffff" stroke="#33943a"/><path d="M288.60429,-40.68505c-0.00117,-0.2968 0.5005,-0.64689 1.18791,-0.38939c0.9134,0.34216 2.1507,0.73989 2.95996,0.73667c0.81592,-0.00324 2.1453,-0.43213 3.1076,-0.78732c0.68186,-0.25167 1.18245,0.29785 1.18374,0.62483c0.00106,0.26698 -0.24577,0.83841 -0.63239,0.99431c-0.90982,0.36687 -2.58366,0.98257 -3.579,0.98651c-0.90292,0.00358 -2.40823,-0.50925 -3.35683,-0.87104c-0.51598,-0.19679 -0.86977,-0.98565 -0.87099,-1.29457z" fill="#000000" stroke="#33943a"/></g><g><path d="M277.33714,-34.40979c-0.49403,1.22474 -1.14839,2.29831 -1.92773,3.23211c-3.24965,0.06739 -19.62526,0.14472 -24.46316,0.98616c0,0 -0.19809,0.03491 -0.33375,0.18225c-0.60741,-0.75559 -0.94467,-1.58928 -0.93621,-2.47669c0.05456,-5.72463 7.27247,-13.09992 13.8452,-13.16091c1.2606,-0.0117 2.85472,1.4796 4.15781,1.79908c1.39033,0.34086 -4.72879,-11.15221 4.74627,-12.27515c3.67234,-0.43523 6.22408,4.00807 6.55581,8.87158c0.18654,2.73493 -1.17338,4.85437 -1.65251,7.24003c-0.4419,2.20025 0.33043,4.80291 0.00828,5.60157z" fill="#000000" stroke="#33943a"/><path d="M276.75806,-35.79616c0.0158,1.70228 -0.75675,3.28029 -2.01184,4.63244c-3.02821,0.06469 -18.77548,0.1675 -23.52912,0.92701c-0.58694,-0.77139 -0.92763,-1.68999 -0.93773,-2.77853c-0.04783,-5.15469 7.33571,-12.16796 13.25406,-12.22287c1.13509,-0.01053 3.48565,1.62794 4.65901,1.9156c1.2519,0.30692 -4.38867,-11.01391 4.14305,-12.02506c3.30672,-0.3919 5.60441,3.60903 5.90311,7.98833c0.16797,2.46264 -1.05655,4.37107 -1.48799,6.51921c-0.3979,1.9812 0.00025,4.26846 0.00745,5.04387z" fill="#afae9f" stroke="#33943a"/><g stroke="#000000"><path d="M276.65482,-53.94371c0.85842,0.1366 1.46382,0.95186 1.35221,1.82091c-0.11161,0.86905 -0.89798,1.46283 -1.75639,1.32622c-0.85842,-0.1366 -1.46382,-0.95186 -1.35221,-1.82091c0.11161,-0.86905 0.89798,-1.46283 1.75639,-1.32622z" fill="#000000"/><path d="M276.61873,-53.66258c0.70506,0.1122 1.2023,0.7818 1.11063,1.4956c-0.09167,0.71379 -0.73755,1.20149 -1.44261,1.08929c-0.70506,-0.1122 -1.2023,-0.7818 -1.11063,-1.4956c0.09167,-0.71379 0.73755,-1.20149 1.44261,-1.08929z" fill="#ffffff"/><path d="M275.04116,-52.36303c0.06841,-0.53266 0.55038,-0.89659 1.07652,-0.81287c0.52614,0.08373 0.8972,0.58341 0.82879,1.11607c-0.0684,0.53266 -0.55038,0.89659 -1.07652,0.81287c-0.52613,-0.08373 -0.8972,-0.58341 -0.82879,-1.11607z" fill="#000000"/></g><g stroke="#000000"><path d="M272.65716,-52.92709c0.85842,0.1366 1.46382,0.95186 1.35221,1.82091c-0.11161,0.86905 -0.89798,1.46282 -1.75639,1.32622c-0.85842,-0.1366 -1.46382,-0.95186 -1.35221,-1.82091c0.11161,-0.86905 0.89798,-1.46282 1.75639,-1.32622z" fill="#000000"/><path d="M272.62106,-52.64597c0.70506,0.1122 1.2023,0.7818 1.11063,1.4956c-0.09167,0.71379 -0.73755,1.20149 -1.44261,1.08929c-0.70506,-0.1122 -1.2023,-0.7818 -1.11063,-1.4956c0.09167,-0.71379 0.73755,-1.20149 1.44261,-1.08929z" fill="#ffffff"/><path d="M271.04351,-51.34642c0.06841,-0.53266 0.55038,-0.89659 1.07652,-0.81287c0.52614,0.08373 0.8972,0.58341 0.82879,1.11607c-0.0684,0.53266 -0.55038,0.89658 -1.07652,0.81286c-0.52613,-0.08373 -0.8972,-0.58341 -0.82879,-1.11607z" fill="#000000"/></g><path d="M272.19431,-55.17303c0,0 0.13942,-0.79951 0.05727,-1.21936c-0.11447,-0.58503 -0.67988,-1.96269 -0.67988,-1.96269l0.26517,-0.05188c0,0 0.60048,0.95361 0.7129,1.52819c0.09016,0.46079 -0.09028,1.65386 -0.09028,1.65386z" fill="#000000" stroke="#33943a"/><path d="M271.60776,-55.21363c0,0 -0.01305,-1.04283 -0.21614,-1.55371c-0.283,-0.71186 -1.32311,-2.31822 -1.32311,-2.31822l0.32266,-0.12827c0,0 0.98407,1.06243 1.262,1.76158c0.22289,0.56068 0.27724,2.11035 0.27724,2.11035z" fill="#000000" stroke="#33943a"/><path d="M271.06566,-55.11657c0,0 -0.22554,-0.7796 -0.48359,-1.12083c-0.35957,-0.47546 -1.47217,-1.46531 -1.47217,-1.46531l0.21551,-0.16298c0,0 0.95802,0.5934 1.31117,1.06038c0.28321,0.37449 0.6446,1.52575 0.6446,1.52575z" fill="#000000" stroke="#33943a"/><path d="M282.2427,-43.87934c-0.36119,1.07713 -2.49922,1.33157 -4.77543,0.56831c-2.27621,-0.76326 -3.82864,-2.25521 -3.46745,-3.33234c0.36119,-1.07713 2.49922,-1.33157 4.77543,-0.56831c2.27621,0.76326 3.82864,2.25521 3.46745,3.33234z" fill="#000000" stroke="#33943a"/><path d="M281.70779,-44.05871c-0.31431,0.93733 -2.17485,1.15875 -4.15563,0.49455c-1.98078,-0.6642 -3.33172,-1.9625 -3.01742,-2.89984c0.31431,-0.93733 2.17485,-1.15875 4.15563,-0.49455c1.98078,0.6642 3.33172,1.96251 3.01742,2.89984z" fill="#afae9f" stroke="#33943a"/><path d="M283.87804,-43.06037c-0.69169,-0.22857 -2.78865,-1.39057 -5.43156,-1.96478c-2.26986,-0.49316 -4.57353,-0.09269 -4.57353,-0.09269c0,0 -0.34963,-0.61554 -0.36966,-2.773c-0.02002,-2.15745 3.50437,-4.28381 6.0179,-2.85691c3.83273,2.1758 4.19387,4.55656 5.27881,7.01535c0.29983,0.67951 -0.92196,0.67203 -0.92196,0.67203z" fill="#000000" stroke="#33943a"/><path d="M283.79468,-43.33782c-0.6339,-0.20946 -2.86858,-1.64291 -5.29065,-2.16915c-2.08019,-0.45196 -4.4384,-0.02074 -4.4384,-0.02074c0,0 -0.07051,-0.3188 -0.08886,-2.29597c-0.01835,-1.97717 3.21154,-3.92584 5.51503,-2.61818c3.51246,1.99399 3.84343,4.17581 4.83771,6.42914c0.27478,0.62273 -0.53482,0.67491 -0.53482,0.67491z" fill="#afae9f" stroke="#33943a"/><g stroke="#33943a"><path d="M270.0706,-34.78627c0.0093,1.00269 -2.15322,0.35867 -3.48402,0.82239c-1.66084,0.57871 -2.73922,2.11295 -4.92595,1.82769c-1.55882,-0.20335 -2.40234,-1.91676 -3.79984,-1.90379c-4.92882,0.04574 -5.75033,1.06615 -5.75033,1.06615c0,0 3.53949,-8.26174 8.4683,-8.30748c4.92882,-0.04574 9.46265,3.34898 9.49185,6.49503z" fill="#000000"/><path d="M269.26236,-34.95696c0.00847,0.9127 -1.95997,0.32648 -3.17135,0.74858c-1.51179,0.52678 -2.49339,1.92333 -4.48388,1.66367c-1.41893,-0.1851 -2.18674,-1.74474 -3.45883,-1.73293c-4.48649,0.04163 -5.23428,0.97047 -5.23428,0.97047c0,0 3.22184,-7.5203 7.70832,-7.56193c4.48649,-0.04163 8.61345,3.04843 8.64002,5.91215z" fill="#afae9f"/></g></g><g><g fill="#000000"><path d="M311.4032,-32.96241c-0.23134,-5.55919 -3.76122,-13.0073 -3.68061,-15.57347c0.07154,-2.27754 0.42722,-4.7847 0.42722,-4.7847l1.14643,-0.072c0,0 -0.05527,3.07443 -0.04526,5.59887c0.01185,2.99067 3.81791,8.94848 3.9562,14.7517c0.01607,0.67444 -0.0683,1.37059 -0.22023,2.06272c-0.56124,0.00222 -1.12249,0.00445 -1.68374,0.00667c0.0897,-0.62845 0.12898,-1.29303 0.09998,-1.98981z" stroke="#33943a"/><path d="M315.38293,-32.97819c-0.23134,-5.55919 -3.76122,-13.0073 -3.68061,-15.57347c0.07154,-2.27754 0.42722,-4.7847 0.42722,-4.7847l1.14643,-0.072c0,0 -0.05527,3.07443 -0.04526,5.59887c0.01185,2.99067 3.81791,8.94848 3.9562,14.7517c0.01607,0.67444 -0.0683,1.37059 -0.22023,2.06272c-0.56124,0.00222 -1.12249,0.00445 -1.68374,0.00667c0.0897,-0.62845 0.12898,-1.29303 0.09998,-1.98981z" stroke="#33943a"/><path d="M316.28036,-33.66127c0.0923,-5.80414 3.85102,-11.79192 3.83916,-14.78259c-0.01,-2.52444 -0.08964,-5.59834 -0.08964,-5.59834l1.14697,0.06291c0,0 0.37555,2.50425 0.46513,4.78116c0.10094,2.56545 -3.3698,10.0413 -3.55707,15.60215c-0.03119,0.92594 0.05767,1.79412 0.22466,2.59561c-0.54581,0.00217 -1.09162,0.00432 -1.63743,0.00649c-0.2512,-0.88736 -0.40566,-1.79487 -0.39178,-2.66738z" data-paper-data="{&quot;index&quot;:null}" stroke="#33943a"/><path d="M319.85618,-33.47308c0.0923,-5.80414 3.85102,-11.79192 3.83917,-14.78259c-0.01,-2.52444 -0.08964,-5.59834 -0.08964,-5.59834l1.14697,0.06291c0,0 0.37555,2.50425 0.46513,4.78116c0.10094,2.56545 -3.36979,10.0413 -3.55707,15.60215c-0.02858,0.84861 0.04367,1.6487 0.18447,2.39341c-0.5509,0.00218 -1.10179,0.00437 -1.65269,0.00655c-0.21822,-0.82262 -0.34918,-1.65888 -0.33635,-2.46525z" data-paper-data="{&quot;index&quot;:null}" stroke="#33943a"/><path d="M337.97803,-67.66842c0.41548,0.3326 0.52799,0.73316 0.39479,1.24843c-1.50635,5.82736 -2.62806,9.07675 -5.20371,14.51672c-0.2515,0.53118 -2.68153,1.14263 -3.00674,1.33123c-1.34735,0.78134 -7.46171,-3.77178 -7.46171,-3.77178l1.84294,-0.76965c0,0 3.04178,3.62763 6.5252,2.24124c2.0885,-0.83122 5.90273,-13.45165 6.05132,-14.40215c0,0 0.62324,-0.58189 0.8579,-0.39404z" data-paper-data="{&quot;index&quot;:null}" stroke="#33943a"/><path d="M296.63503,-67.11394c0.15613,0.94929 4.07025,13.5391 6.16528,14.35374c3.49429,1.35874 6.50723,-2.29289 6.50723,-2.29289l1.84899,0.75501c0,0 -6.07808,4.60144 -7.43157,3.83081c-0.3267,-0.18601 -2.7615,-0.77818 -3.0172,-1.30735c-2.61868,-5.41939 -3.76611,-8.65978 -5.3186,-14.47502c-0.13728,-0.5142 -0.02795,-0.91565 0.38488,-1.25153c0.23316,-0.1897 0.861,0.38723 0.861,0.38723z" data-paper-data="{&quot;index&quot;:null}" stroke="#33943a"/><path d="M306.64434,-53.06728c0,0 -0.11509,-11.51872 10.29611,-11.82279c11.38067,-0.33238 9.75708,11.02381 9.75708,11.02381c0,0 -0.6564,0.58429 -1.23724,0.44127c-0.65909,-0.16228 -1.29763,-1.04734 -2.15977,-0.91407c-0.73458,0.11355 -1.16774,0.90842 -1.86281,1.21832c-0.90194,0.40213 -1.44241,-0.74771 -2.48239,-0.66214c-0.83677,0.06885 -0.82503,0.93008 -1.69734,0.96226c-0.60936,0.02248 -1.2907,-0.89504 -1.89192,-0.86372c-0.55541,0.02893 -1.70048,0.8649 -2.21845,0.88291c-0.93204,0.0324 -1.98847,-0.74022 -2.70351,-0.7003c-0.71818,0.04009 -1.42875,0.74477 -1.81109,0.76001c-0.99479,0.03963 -1.98868,-0.32555 -1.98868,-0.32555z" stroke="#33943a"/><g stroke="#000000"><path d="M317.77105,-62.79123c1.55205,0.25545 2.63974,1.73653 2.42941,3.30808c-0.21033,1.57154 -1.63903,2.63844 -3.19107,2.38299c-1.55205,-0.25545 -2.63973,-1.73653 -2.4294,-3.30808c0.21033,-1.57154 1.63902,-2.63844 3.19107,-2.38299z"/><path d="M317.703,-62.28286c1.27477,0.20982 2.16813,1.42629 1.99537,2.71707c-0.17275,1.29078 -1.34621,2.16707 -2.62098,1.95726c-1.27477,-0.20982 -2.16813,-1.42629 -1.99537,-2.71707c0.17275,-1.29078 1.3462,-2.16707 2.62098,-1.95726z"/><path d="M314.83579,-59.94641c0.12892,-0.96323 1.00458,-1.61715 1.95586,-1.46057c0.95128,0.15657 1.61794,1.06435 1.48902,2.02758c-0.12891,0.96323 -1.00458,1.61715 -1.95586,1.46057c-0.95127,-0.15657 -1.61793,-1.06435 -1.48902,-2.02758z"/></g></g><g><path d="M311.5847,-34.24418c-0.21886,-5.259 -3.55811,-12.30491 -3.48186,-14.7325c0.06768,-2.15455 0.40416,-4.52633 0.40416,-4.52633l1.08452,-0.06811c0,0 -0.05229,2.90841 -0.04282,5.29654c0.01121,2.82917 3.61174,8.46526 3.74257,13.95511c0.02608,1.09432 -0.22737,2.24909 -0.60342,3.34138c-0.49763,0.00197 -0.99525,0.00395 -1.49288,0.00592c0.27586,-0.97494 0.43963,-2.0731 0.38974,-3.272z" fill="#afae9f" stroke="#33943a"/><path d="M315.34954,-34.25909c-0.21886,-5.259 -3.55811,-12.30491 -3.48186,-14.7325c0.06768,-2.15455 0.40416,-4.52633 0.40416,-4.52633l1.08452,-0.06811c0,0 -0.05229,2.90841 -0.04282,5.29654c0.01121,2.82917 3.61174,8.46526 3.74258,13.95511c0.02608,1.09432 -0.22737,2.24909 -0.60342,3.34138c-0.49763,0.00197 -0.99525,0.00395 -1.49288,0.00592c0.27586,-0.97494 0.43963,-2.0731 0.38974,-3.272z" fill="#afae9f" stroke="#33943a"/><path d="M316.19851,-34.90529c0.08731,-5.49072 3.64306,-11.15518 3.63186,-13.98434c-0.00946,-2.38812 -0.0848,-5.29603 -0.0848,-5.29603l1.08503,0.05952c0,0 0.35527,2.36903 0.44002,4.52298c0.09549,2.42692 -3.18782,9.49907 -3.36499,14.75964c-0.04854,1.44128 0.21037,2.73461 0.60009,3.84239c-0.48725,0.00193 -0.9745,0.00386 -1.46176,0.00579c-0.49819,-1.25159 -0.86593,-2.62114 -0.84544,-3.90994z" data-paper-data="{&quot;index&quot;:null}" fill="#afae9f" stroke="#33943a"/><path d="M319.58123,-34.72726c0.08731,-5.49072 3.64307,-11.15518 3.63186,-13.98434c-0.00946,-2.38812 -0.0848,-5.29603 -0.0848,-5.29603l1.08503,0.05952c0,0 0.35527,2.36903 0.44002,4.52298c0.09549,2.42692 -3.18782,9.49907 -3.36499,14.75964c-0.04578,1.35914 0.18185,2.58674 0.53477,3.65121c-0.49037,0.00194 -0.98076,0.00389 -1.47113,0.00583c-0.45976,-1.19904 -0.79021,-2.4953 -0.77075,-3.7188z" data-paper-data="{&quot;index&quot;:null}" fill="#afae9f" stroke="#33943a"/><path d="M336.7245,-67.07607c0.39304,0.31464 0.49948,0.69357 0.37348,1.18102c-1.42501,5.51269 -2.48615,8.58661 -4.92272,13.73282c-0.23792,0.5025 -2.53673,1.08093 -2.84438,1.25934c-1.27459,0.73914 -7.05878,-3.56811 -7.05878,-3.56811l1.74343,-0.72808c0,0 2.87752,3.43174 6.17284,2.12022c1.97572,-0.78633 5.58398,-12.72526 5.72455,-13.62444c0,0 0.58958,-0.55046 0.81157,-0.37276z" data-paper-data="{&quot;index&quot;:null}" fill="#afae9f" stroke="#33943a"/><path d="M297.61402,-66.55153c0.1477,0.89803 3.85046,12.80799 5.83236,13.57864c3.3056,1.28537 6.15585,-2.16907 6.15585,-2.16907l1.74914,0.71425c0,0 -5.74986,4.35296 -7.03028,3.62394c-0.30906,-0.17597 -2.61238,-0.73616 -2.85427,-1.23676c-2.47728,-5.12674 -3.56274,-8.19215 -5.0314,-13.69337c-0.12987,-0.48643 -0.02644,-0.86621 0.3641,-1.18394c0.22058,-0.17945 0.8145,0.36632 0.8145,0.36632z" data-paper-data="{&quot;index&quot;:null}" fill="#afae9f" stroke="#33943a"/><path d="M307.08283,-53.26338c0,0 -0.10888,-10.89672 9.74013,-11.18437c10.76611,-0.31443 9.2302,10.42852 9.2302,10.42852c0,0 -0.62096,0.55273 -1.17043,0.41744c-0.6235,-0.15352 -1.22756,-0.99078 -2.04314,-0.86471c-0.69491,0.10742 -1.10468,0.85937 -1.76222,1.15253c-0.85323,0.38041 -1.36452,-0.70733 -2.34834,-0.62638c-0.79158,0.06514 -0.78047,0.87986 -1.60569,0.91029c-0.57646,0.02127 -1.22101,-0.84671 -1.78976,-0.81708c-0.52541,0.02736 -1.60865,0.8182 -2.09866,0.83523c-0.88171,0.03066 -1.88109,-0.70024 -2.55751,-0.66248c-0.6794,0.03792 -1.3516,0.70456 -1.71328,0.71897c-0.94108,0.0375 -1.88129,-0.30797 -1.88129,-0.30797z" fill="#afae9f" stroke="#33943a"/><g stroke="#000000"><path d="M317.6087,-62.46225c1.46824,0.24167 2.49719,1.64276 2.29821,3.12944c-0.19897,1.48668 -1.55051,2.49597 -3.01876,2.25431c-1.46824,-0.24167 -2.49719,-1.64276 -2.29821,-3.12944c0.19897,-1.48668 1.55051,-2.49597 3.01876,-2.25431z" fill="#000000"/><path d="M317.54433,-61.98133c1.20594,0.19849 2.05105,1.34927 1.88763,2.57035c-0.16343,1.22108 -1.27351,2.05006 -2.47944,1.85156c-1.20594,-0.19849 -2.05105,-1.34927 -1.88763,-2.57035c0.16343,-1.22108 1.2735,-2.05006 2.47944,-1.85156z" fill="#ffffff"/><path d="M314.83196,-59.77105c0.12195,-0.91121 0.95033,-1.52982 1.85025,-1.3817c0.89991,0.14812 1.53057,1.00688 1.40862,1.91809c-0.12195,0.91121 -0.95033,1.52982 -1.85025,1.3817c-0.89991,-0.14812 -1.53056,-1.00688 -1.40861,-1.91809z" fill="#000000"/></g></g></g></g><text transform="translate(157.33183,9.00282) scale(0.4107,0.4107)" font-size="40" xml:space="preserve" fill="#000000" fill-rule="nonzero" stroke="#000000" stroke-width="1" stroke-linecap="butt" stroke-linejoin="miter" stroke-miterlimit="10" stroke-dasharray="" stroke-dashoffset="0" font-family="Sans Serif" font-weight="normal" text-anchor="start" style="mix-blend-mode: normal"><tspan x="0" dy="0">What was my colour?</tspan></text><g data-paper-data="{&quot;index&quot;:null}" stroke-width="0"><path d="M-58.26237,63.99067l0.14959,-21.38921l91.45494,-0.72227l-0.46264,22.11154l-45.57094,45.57094z" fill="#aa7d24" stroke="none"/><path d="M-57.37712,41.85917l45.57094,-45.57094l45.57094,45.57094l-45.57094,45.57094z" fill="#c5922a" stroke="none"/><path d="M6.60667,69.37867l-45.92646,-45.92646l9.07663,-9.07666l45.75747,45.75748l-0.15485,21.13972l-8.90764,9.24563z" fill="#ab8974" stroke="#9e7c36"/><path d="M6.60667,69.7167l8.90764,-9.24565l-0.15485,21.13973l-8.90764,9.24563z" fill="#a1816d" stroke="#9e7c36"/></g><g data-paper-data="{&quot;index&quot;:null}" stroke-width="0"><path d="M-66.8517,110.71128l0.10994,-15.72001l67.21483,-0.53083l-0.34001,16.25088l-33.49237,33.49237z" fill="#aa7d24" stroke="none"/><path d="M-66.20109,94.44573l33.49237,-33.49237l33.49237,33.49237l-33.49237,33.49237z" fill="#c5922a" stroke="none"/><path d="M-19.17619,114.6712l-33.75366,-33.75366l6.67087,-6.67089l33.62946,33.62947l-0.11381,15.53664l-6.54667,6.79508z" fill="#ab8974" stroke="#9e7c36"/><path d="M-19.17619,114.91963l6.54667,-6.79509l-0.11381,15.53665l-6.54667,6.79508z" fill="#a1816d" stroke="#9e7c36"/></g><g data-paper-data="{&quot;index&quot;:null}" stroke-width="0"><path d="M-2.18658,147.66278l0.10994,-15.72001l67.21483,-0.53083l-0.34001,16.25088l-33.49237,33.49237z" fill="#aa7d24" stroke="none"/><path d="M-1.53596,131.39723l33.49237,-33.49237l33.49237,33.49237l-33.49237,33.49237z" fill="#c5922a" stroke="none"/><path d="M45.48894,151.6227l-33.75366,-33.75366l6.67087,-6.67089l33.62946,33.62947l-0.11381,15.53664l-6.54667,6.79508z" fill="#ab8974" stroke="#9e7c36"/><path d="M45.48894,151.87113l6.54667,-6.79509l-0.11381,15.53665l-6.54667,6.79508z" fill="#a1816d" stroke="#9e7c36"/></g><path d="M-106.66114,191.83251v-290.78582l44.0991,0.45893v290.32689z" data-paper-data="{&quot;index&quot;:null}" fill="#cccbba" stroke="#000000" stroke-width="0"/><g data-paper-data="{&quot;index&quot;:null}" stroke="#000000" stroke-width="0"><path d="M-106.48645,252.77138v-74.12784h224.00842v74.12784z" fill="#afae9f"/><path d="M-106.48645,192.64356v-35h224.00842v35z" fill="#cccbba"/></g><path d="M97.72686,552.10965v-394.3655l44.0991,0.6224v393.74309z" data-paper-data="{&quot;index&quot;:null}" fill="#cccbba" stroke="#000000" stroke-width="0"/><g stroke-width="0"><path d="M337.36963,414.50477v-22.96387h4.89896v22.96387c0,0 -0.18691,0.15101 -0.46999,0.35818c-0.61822,0.45245 -1.69515,1.17274 -2.28568,1.17274c-0.75926,0 -2.14329,-1.53092 -2.14329,-1.53092z" fill="#333333" stroke="#000000"/><path d="M332.90936,389.70379c0,-32.346 0,-289.8188 0,-289.8188h13.85681c0,0 0,259.23509 0,290.43117c0,4.08473 -2.55615,6.98117 -6.64087,6.98117c-2.35538,0 -7.21594,-2.19182 -7.21594,-7.59354z" fill="#515151" stroke="none"/><path d="M332.90936,380.51824c0,-32.34599 0,-283.00062 0,-283.00062c0,0 2.21666,-4.65518 6.42034,-5c4.9911,-0.40941 7.43646,5 7.43646,5c0,0 0,252.41691 0,283.61299c0,4.08473 -2.55615,6.98117 -6.64087,6.98117c-2.35538,0 -7.21594,-2.19182 -7.21594,-7.59354z" fill="#717171" stroke="none"/></g><path d="M357.87993,-18.75v-10.625h59.375v10.625z" fill="#818075" stroke="#ffffff" stroke-width="0"/><path d="M342.75,418.79019v-323.54019h25v323.54019z" fill-opacity="0.00806" fill="#4692cb" stroke="#000000" stroke-width="0"/></g></g></svg>