<svg version="1.1" xmlns="http://www.w3.org/2000/svg" xmlns:xlink="http://www.w3.org/1999/xlink" width="70.16667" height="70.16667" viewBox="0,0,70.16667,70.16667"><g transform="translate(-204.91669,-144.91669)"><g data-paper-data="{&quot;isPaintingLayer&quot;:true}" fill-rule="nonzero" stroke-linecap="butt" stroke-linejoin="miter" stroke-miterlimit="10" stroke-dasharray="" stroke-dashoffset="0" style="mix-blend-mode: normal"><path d="M241.35354,186.80571c-4.68645,1.90339 -7.74396,-0.34438 -9.24472,-4.03945c-1.50076,-3.69508 -1.49856,-7.56575 3.18789,-9.46916c4.68645,-1.90339 12.28247,-1.11874 13.78322,2.57633c1.50076,3.69508 -3.03995,9.02887 -7.7264,10.93226z" fill="#48c1f0" stroke="#ffffff" stroke-width="2"/><path d="M204.91669,215.08337v-70.16667h70.16667v70.16667z" fill="none" stroke="none" stroke-width="0"/><path d="M241.35354,186.80571c-4.68645,1.90339 -7.74396,-0.34438 -9.24472,-4.03945c-1.50076,-3.69508 -1.49856,-7.56575 3.18789,-9.46916c4.68645,-1.90339 12.28247,-1.11874 13.78322,2.57633c1.50076,3.69508 -3.03995,9.02887 -7.7264,10.93226z" fill="#48c1f0" stroke="#ff0000" stroke-width="0"/><path d="M235.2264,175.08795c0.70644,-0.28692 1.51172,0.05317 1.79863,0.75961c0.28692,0.70644 -0.05316,1.51171 -0.75961,1.79863c-0.70644,0.28692 -1.51171,-0.05316 -1.79863,-0.75961c-0.28692,-0.70644 0.05317,-1.51172 0.75961,-1.79864z" fill="#4888f0" stroke="none" stroke-width="0"/><path d="M231.38032,177.6166l0.36741,-1.27689c0,0 3.74061,1.47969 5.76156,3.69539c0.92777,1.01717 0.20728,3.09313 0.88391,3.64443c1.31867,1.07441 5.03178,2.17434 5.03178,2.17434c0,0 -1.47475,0.72497 -2.16915,0.99238c-0.54712,0.2107 -1.66172,0.48296 -1.66172,0.48296c0,0 -2.47257,-1.75146 -3.54739,-3.02241c-0.59523,-0.70383 -0.0906,-2.5217 -0.90256,-3.70226c-1.24977,-1.81712 -3.76382,-2.98796 -3.76382,-2.98796z" fill="#4888f0" stroke="none" stroke-width="0"/><path d="M247.23938,174.71951c0.24821,-0.10082 0.53114,0.01868 0.63195,0.26689c0.10082,0.24821 -0.01868,0.53114 -0.26689,0.63195c-0.24821,0.10082 -0.53114,-0.01868 -0.63195,-0.26689c-0.10082,-0.24821 0.01868,-0.53114 0.26689,-0.63195z" fill="#4888f0" stroke="none" stroke-width="0"/><path d="M247.62818,176.17256c0.42005,-0.1706 0.89886,0.0316 1.06947,0.45166c0.1706,0.42005 -0.0316,0.89886 -0.45166,1.06947c-0.42005,0.1706 -0.89886,-0.0316 -1.06947,-0.45166c-0.1706,-0.42005 0.0316,-0.89886 0.45166,-1.06947z" fill="#4888f0" stroke="none" stroke-width="0"/><path d="M234.27933,183.36622c0.34367,-0.13958 0.73542,0.02587 0.87501,0.36954c0.13958,0.34367 -0.02587,0.73542 -0.36954,0.87501c-0.34367,0.13958 -0.73542,-0.02587 -0.87501,-0.36954c-0.13958,-0.34367 0.02587,-0.73542 0.36954,-0.87501z" fill="#4888f0" stroke="none" stroke-width="0"/><g stroke="none" stroke-width="1"><g><g><path d="M239.75048,181.27787c0.83148,0.46028 1.80151,0.64001 2.70493,0.82112c-0.38765,0.58562 -1.40695,0.7068 -2.04948,0.78682c-1.05237,0.13298 -2.26942,-0.17489 -3.01786,-0.91456c-0.22666,-0.21742 -0.65894,-0.70822 -0.43319,-1.06834c0.16144,-0.24771 0.66242,-0.1915 0.87081,-0.31801z" fill="#86d0fd"/><path d="M237.82569,180.58489l1.55542,0.55628c0,0 0.71723,0.30716 0.81807,0.34949c0,0 0.16815,0.07425 0.25766,0.1057l0.0111,-0.00023c0.36937,0.1367 0.74915,0.23986 1.12846,0.32082v0c0.29027,0.0717 0.58007,0.1212 0.87011,0.18181c-0.02151,0.03377 -0.1626,0.1922 -0.1626,0.1922c-0.26622,0.01665 -0.55463,0.03376 -0.83241,0.02844c-0.06522,0.068 -0.33653,0.37353 -0.4124,0.46396c-0.07748,0.01272 -0.16607,0.02567 -0.24355,0.03839c0.16329,-0.15889 0.32589,-0.35109 0.45588,-0.50929c-0.08905,-0.00925 -0.18896,-0.00717 -0.27801,-0.01643c-0.1892,-0.01827 -0.41147,-0.02475 -0.64507,-0.0421c-0.01087,0.01133 -0.47901,0.46535 -0.73089,0.63719c-0.08905,-0.00925 -0.17809,-0.01851 -0.25604,-0.02799c0.19752,-0.11518 0.37169,-0.28541 0.53544,-0.4221c0.08743,-0.06846 0.16376,-0.13669 0.24008,-0.20492c-0.24494,-0.02822 -0.47923,-0.07888 -0.65894,-0.1751c-0.0111,0.00023 -0.0111,0.00023 -0.0111,0.00023c-0.01087,0.01133 -0.54608,0.44453 -0.85324,0.62864c-0.07818,-0.02059 -0.14525,-0.0414 -0.21255,-0.07332c0.13161,-0.08049 0.25188,-0.17185 0.37238,-0.2521c0.17509,-0.12582 0.35018,-0.25164 0.52527,-0.37746c-0.23591,-0.12837 -0.44916,-0.235 -0.66241,-0.34163c-0.09853,0.06869 -0.19729,0.12628 -0.30693,0.1952c-0.20839,0.12651 -0.42766,0.26436 -0.65895,0.35803c-0.0451,-0.03238 -0.0902,-0.06476 -0.13553,-0.10825c0.33098,-0.10685 0.64854,-0.32449 0.92239,-0.5079c0.0111,-0.00023 0.01087,-0.01133 0.02197,-0.01156c-0.20215,-0.10686 -0.40429,-0.21372 -0.6291,-0.34232c-0.02197,0.01156 -0.55001,0.2558 -0.80397,0.32773c-0.03423,-0.04371 -0.05759,-0.09876 -0.08072,-0.14271c0.24309,-0.06059 0.48525,-0.1656 0.71608,-0.28147c-0.02267,-0.02174 -0.34994,-0.27038 -0.4857,-0.38973c0.02197,-0.01156 0.05528,-0.01226 0.07725,-0.02382c0,0 0.53058,-0.12211 0.55255,-0.13368z" fill="#194ec2" opacity="0.2"/></g><g><path d="M236.87002,178.96099c-0.67398,0.16953 0.0132,-0.96656 0.09831,-1.14604c0.22343,-0.47114 0.43276,-1.08636 0.8366,-1.42797c0.45842,-0.38717 1.16617,-0.53519 1.7296,-0.6802c0.77298,-0.21601 1.68033,-0.37929 2.49285,-0.29625c0.48964,0.04534 1.01444,0.1788 1.47355,0.35806c0.17925,0.07402 1.07896,0.61062 1.04033,0.88909c-0.03817,0.30068 -0.97674,0.03144 -1.14304,0.04601c-0.8648,0.07354 -1.77492,0.10359 -2.59,0.43155c-0.68277,0.28078 -1.20596,0.75815 -1.80824,1.17053c-0.41633,0.27523 -0.81253,0.45008 -1.26378,0.64829l-0.86595,0.01803z" fill="#d8d213"/><g fill="#194ec2" opacity="0.2"><path d="M244.54011,176.60217c0.00046,0.0222 0.00069,0.03331 0.02382,0.07725c-0.03817,0.30068 -0.97674,0.03144 -1.14304,0.04601c-0.8648,0.07354 -1.77492,0.10359 -2.59,0.43155c-0.68277,0.28078 -1.20573,0.76925 -1.80824,1.17053c-0.4161,0.28633 -0.81253,0.45008 -1.26378,0.64829l-0.87705,0.01826c-0.0222,0.00046 -0.04418,0.01203 -0.06638,0.01249v0c-0.0222,0.00046 -0.04441,0.00092 -0.05551,0.00116c0.13161,-0.08049 0.26298,-0.17208 0.36128,-0.25187c0.19683,-0.14849 0.35943,-0.34069 0.5218,-0.54399c-0.23545,-0.10617 -0.49241,-0.17856 -0.73781,-0.22899c0.03192,-0.06731 0.06407,-0.12351 0.07471,-0.14594c0.25673,0.0613 0.51369,0.13369 0.76025,0.23963c0.08627,-0.12397 0.17278,-0.23684 0.27038,-0.34994c0.06499,-0.0791 0.12999,-0.1582 0.20631,-0.22643c-0.21417,-0.15104 -0.41678,-0.2801 -0.64159,-0.4087c-0.06731,-0.03192 -0.14594,-0.07471 -0.21325,-0.10663c0.02128,-0.04487 0.05366,-0.08997 0.07494,-0.13484c0.07841,0.03169 0.14571,0.06361 0.21325,0.10663c0.23591,0.12837 0.45009,0.27941 0.67536,0.43021c0.12004,-0.10246 0.25118,-0.20515 0.38256,-0.29674c-0.13692,-0.17486 -0.27361,-0.33861 -0.4214,-0.50214c-0.09113,-0.10917 -0.19336,-0.21811 -0.29558,-0.32705c0.04371,-0.03423 0.08766,-0.05736 0.13161,-0.08049c0.06823,0.07633 0.12536,0.15288 0.19336,0.21811c0.18179,0.19614 0.35248,0.3925 0.5123,0.60021c0.07679,-0.04603 0.16468,-0.09228 0.24147,-0.13831c0.13207,-0.05828 0.2639,-0.12767 0.39574,-0.19705c-0.16121,-0.27431 -0.33351,-0.54839 -0.53843,-0.78848v0c0.05505,-0.02336 0.11033,-0.03562 0.1656,-0.04787c0.0118,0.03307 0.03446,0.05482 0.05713,0.07656c0.17115,0.21857 0.32033,0.44871 0.45864,0.69018c0.2417,-0.12721 0.50607,-0.23267 0.74892,-0.30437c0.03307,-0.0118 0.05528,-0.01226 0.08835,-0.02405c-0.13785,-0.21927 -0.28679,-0.4383 -0.45771,-0.64577c-0.00023,-0.0111 -0.01133,-0.01087 -0.01156,-0.02197c0.05528,-0.01226 0.11056,-0.02452 0.16584,-0.03677c0.02267,0.02174 0.04533,0.04348 0.06823,0.07633c0.14825,0.18573 0.28564,0.38279 0.40082,0.58031c0.32034,-0.08442 0.63004,-0.1464 0.95153,-0.1753c-0.14895,-0.21903 -0.29766,-0.42697 -0.46835,-0.62333l-0.01133,-0.01087c0.06661,-0.00139 0.12189,-0.01364 0.1885,-0.01503c0.17069,0.19637 0.31964,0.4154 0.46859,0.63444c0.1996,-0.01526 0.38834,-0.01919 0.5884,-0.01225c-0.09367,-0.23129 -0.17531,-0.41841 -0.30159,-0.6157c0.06661,-0.00139 0.13345,0.00833 0.2003,0.01804c0.10385,0.18665 0.17439,0.374 0.26806,0.60529c0.2114,0.01781 0.43413,0.0465 0.65709,0.08628c0.12258,0.01966 0.2565,0.05019 0.37932,0.08096c-0.08164,-0.18712 -0.14062,-0.35249 -0.21024,-0.49543c0.05597,0.02105 0.11194,0.0421 0.16792,0.06314c0,0 0.01133,0.01087 0.02244,0.01064c0.05828,0.13207 0.11703,0.28634 0.19844,0.46235c0.26806,0.07217 0.52503,0.14456 0.77158,0.2505c0.02267,0.02174 0.03446,0.05482 0.04603,0.07679c0.00023,0.0111 0.00023,0.0111 0.00023,0.0111c0.01133,0.01087 0.01156,0.02197 0.0118,0.03307c0.00023,0.0111 0.00023,0.0111 0,0z"/></g></g><g fill="#86d0fd"><path d="M244.77155,181.31772c0.0037,0.17763 -0.49382,0.82107 -0.65619,1.02438c-0.12999,0.1582 -1.08037,0.92214 -1.122,0.52316c-0.07238,-0.80929 0.90644,-1.27393 0.83452,-1.52789z"/></g></g><path d="M233.20848,178.07093c0.15288,-0.12536 0.52017,-0.08858 0.69827,-0.07007c0.46767,0.0569 0.93071,0.42489 1.32436,0.66105c0.30368,0.18249 0.77574,0.45033 1.15298,0.43137c0.24401,-0.01619 0.5396,-0.22226 0.72533,-0.37052c0.34971,-0.27384 0.61894,-0.67929 0.90066,-1.01836c0.29259,-0.3504 0.67515,-0.64714 1.08176,-0.85553c0.39551,-0.20816 0.85694,-0.451 1.2765,-0.57081c0.92771,-0.25256 1.83622,-0.36032 2.78428,-0.16903c0.7473,0.15104 1.43978,0.33655 2.07096,0.77878c0.60875,0.4316 0.76417,0.96148 1.03315,1.61118c0.08164,0.18712 0.16305,0.36313 0.28864,0.52711c0.09136,0.12027 0.20353,0.17347 0.3053,0.26021c0.07933,0.0761 0.17092,0.20747 0.03932,0.28796c-0.10963,0.06892 -0.27917,-0.07194 -0.3777,-0.00324c-0.18619,0.12605 0.27292,0.30531 0.27292,0.30531c-0.00625,0.23337 -0.38302,0.27454 -0.43761,0.3201c-0.30554,0.26182 -0.7672,1.02669 -1.68127,1.40113c-0.91383,0.38555 -1.64194,0.62284 -2.07445,0.65406c-0.51,0.04394 -1.10904,0.07862 -1.62088,0.03375c-0.445,-0.03516 -1.13332,-0.02083 -1.51541,-0.23501c-0.69641,-0.37424 -1.17795,-0.56413 -1.84221,-0.99457c-0.39388,-0.24725 -0.6927,-0.72973 -1.17055,-0.742c-0.57776,-0.01018 -0.96773,0.46442 -1.326,0.86061c-0.20631,0.22643 -0.48664,0.63211 -0.80675,0.72763c-0.2979,0.09506 -0.23684,-0.17278 -0.19682,-0.38464c0.07055,-0.34578 0.14202,-0.64715 0.09045,-0.99038c-0.0259,-0.17717 -0.06314,-0.36521 -0.08904,-0.54238c-0.07701,-0.4982 -0.19103,-1.17334 -0.56479,-1.52097z" fill="#194ec2"/><g><path d="M246.78542,179.88745c-0.01735,0.2336 -0.39412,0.27477 -0.43761,0.3201c-0.16376,0.13669 -0.36915,0.40753 -0.65202,0.69109c-0.41262,-0.08026 -0.84929,-0.24888 -1.2182,-0.36337c-0.69317,-0.21881 -1.15991,-0.76443 -0.99777,-1.51196c0.17278,-0.76996 0.12841,-2.90154 1.46433,-2.21852l1.93517,2.79193c-0.09853,0.06869 -0.26806,-0.07217 -0.3666,-0.00347c-0.18619,0.12605 0.27269,0.29421 0.27269,0.29421z" fill="#86d0fd"/><path d="M244.22367,179.00782c-0.06453,0.1013 -0.11773,0.21348 -0.18226,0.31478c-0.06407,0.12351 -0.08327,0.2683 -0.14757,0.3807c-0.12906,0.20261 -0.45241,0.1427 -0.66219,0.2026c-0.29813,0.08395 -0.50861,0.11055 -0.71353,-0.12953c-0.27315,-0.31641 -0.56989,-0.69897 -0.76648,-1.0725c-0.23128,-0.43945 -0.11748,-0.84167 0.439,-0.78661c0.38949,0.03632 0.79332,0.22783 1.13077,0.43184c0.26991,0.16098 0.65131,0.34186 0.8782,0.57037c0.01133,0.01087 0.02267,0.02174 0.0229,0.03284c0.01133,0.01087 0.0118,0.03307 0.00116,0.05551zM244.01366,179.05661c-0.6749,-0.40801 -1.46522,-0.49151 -2.23518,-0.6643c0.03677,0.16584 0.16305,0.36313 0.27708,0.50514c0.33352,0.01527 0.65617,0.04187 0.97882,0.06848c0.32242,0.0155 0.65594,0.03077 0.97928,0.09068zM241.82867,178.13581c-0.02174,0.02267 -0.03215,0.0562 -0.04256,0.08974c0.58054,0.14341 1.17079,0.21997 1.73028,0.41935c-0.0111,0.00023 -0.01133,-0.01087 -0.02244,-0.01064c-0.27038,-0.18319 -0.55116,-0.33283 -0.86456,-0.44848c-0.19035,-0.07378 -0.64923,-0.24194 -0.80073,-0.04997zM242.18091,179.05034c0.10292,0.14225 0.2181,0.33977 0.35479,0.50352c0.43251,-0.03122 0.87567,-0.08487 1.30726,-0.1605c0.01041,-0.03354 0.03215,-0.0562 0.05343,-0.10107c0.01041,-0.03354 0.03215,-0.0562 0.04256,-0.08974c-0.33421,-0.04858 -0.66773,-0.06385 -1.00149,-0.09022c-0.25604,-0.02799 -0.50074,-0.04511 -0.75655,-0.062c0.00023,0.0111 0.00023,0.0111 0,0zM243.75761,179.56174c-0.36521,0.06314 -0.74198,0.1043 -1.10788,0.13413c0.02244,0.01064 0.03377,0.02151 0.0451,0.03238c0.22597,0.18411 0.61084,-0.00161 0.86526,-0.05133c0.13276,-0.02498 0.16584,-0.03677 0.19752,-0.11518z" fill="#86d0fd"/><path d="M246.85088,179.29742c0.07933,0.0761 0.17092,0.20747 0.03932,0.28796c-0.10963,0.06892 -0.27917,-0.07194 -0.3777,-0.00324c-0.18619,0.12605 0.27292,0.30531 0.27292,0.30531c-0.00694,0.20007 -0.28333,0.26135 -0.39366,0.29697c-0.55348,0.08927 -1.24504,-0.05183 -1.71455,-0.19755c-0.60367,-0.18735 -1.0135,-0.66752 -0.87148,-1.31467c0.13161,-0.61361 0.1092,-2.22362 1.01308,-2.02031c0.13484,0.07494 0.26968,0.14988 0.40499,0.24702c0.61962,0.42026 0.76394,0.95038 1.03315,1.61118c0.08164,0.18712 0.16305,0.36313 0.28864,0.52711c0.09136,0.12027 0.20353,0.17347 0.3053,0.26021z" fill="#06134a"/><g><path d="M244.94694,177.47113c0.69919,-0.02566 0.74891,0.76188 0.1612,0.80744c-0.58771,0.04556 -0.7496,-0.79519 -0.1612,-0.80744z" fill="#ffffff"/><path d="M245.08153,178.0681c-0.09969,0.01318 -0.16722,-0.02984 -0.21302,-0.09553c0.15473,-0.03654 0.15127,-0.20307 -0.00578,-0.27755c0.02151,-0.03377 0.06569,-0.04579 0.13253,-0.03608c0.34555,0.05945 0.37468,0.39204 0.08627,0.40915z" fill="#06134a"/></g></g><g><path d="M233.90651,177.98975c0.06684,0.00972 0.12258,0.01966 0.18966,0.04048c0.38208,0.7473 0.70009,1.61812 0.77248,2.4274c0.01572,0.22181 0.11078,0.51971 0.16166,0.82964c-0.19521,0.2262 -0.44409,0.54237 -0.72002,0.62586c-0.30901,0.09529 -0.24794,-0.17255 -0.19682,-0.38464c0.08188,-0.33491 0.14225,-0.63605 0.09045,-0.99038c-0.0259,-0.17717 -0.06314,-0.36521 -0.08904,-0.54238c-0.07701,-0.4982 -0.19103,-1.17334 -0.56479,-1.52097l-0.34161,-0.40384c0.15312,-0.11426 0.5204,-0.07747 0.69804,-0.08117z" fill="#06134a"/><path d="M236.15555,180.38642c-0.41956,0.1198 -0.73389,0.49287 -1.02694,0.82107c-0.07586,0.09043 -0.17347,0.20353 -0.27108,0.31663c-0.00046,-0.0222 -0.00092,-0.04441 -0.00139,-0.06661c-0.02706,-0.23268 -0.30414,-0.2047 -0.3201,-0.43761c-0.01596,-0.23291 0.30115,-0.47275 0.18504,-0.71468c-0.05805,-0.12097 -0.14664,-0.10801 -0.1501,-0.27454c-0.00162,-0.07771 0.14178,-0.12513 0.14063,-0.18064c-0.00393,-0.18873 -0.25025,-0.28357 -0.29836,-0.46027c-0.037,-0.17694 0.12721,-0.29142 0.01134,-0.52225c-0.07008,-0.16514 -0.26043,-0.23893 -0.2972,-0.40476c0.03307,-0.0118 0.06592,-0.03469 0.11009,-0.04672c-0.08002,-0.1094 -0.30553,-0.27131 -0.37515,-0.41425c0.02244,0.01064 0.03354,0.01041 0.05574,0.00995c0.46767,0.0569 0.93071,0.42489 1.32436,0.66105c0.21371,0.12883 0.50606,0.30045 0.79656,0.38326c0.09875,0.47553 0.12141,1.0304 0.11655,1.33038z" fill="#194ec2"/><path d="M236.28784,180.33923l0.00023,0.0111c-0.18827,0.02613 -0.34231,0.09598 -0.49566,0.19913c-0.55024,0.2447 -1.08846,0.53357 -1.63893,0.76717c0.00995,-0.05574 0.01966,-0.12258 0.02961,-0.17832c0.60552,-0.25696 1.18745,-0.58006 1.79297,-0.83701c-0.00162,-0.07771 -0.00347,-0.16653 -0.00508,-0.24424c-0.62171,0.01294 -1.25498,0.00391 -1.8679,-0.09439c-0.01226,-0.05528 -0.01341,-0.11079 -0.02567,-0.16607c0.62425,0.10918 1.25752,0.11821 1.89033,0.10503c-0.00185,-0.08882 -0.0037,-0.17763 -0.01665,-0.26622c-0.66866,-0.10825 -1.34796,-0.19407 -1.98516,-0.39183c-0.02359,-0.06615 -0.03608,-0.13253 -0.05944,-0.18758c0.64877,0.21974 1.3394,0.31642 2.03003,0.41311c-0.0118,-0.03307 -0.01272,-0.07748 -0.01341,-0.11079c-0.49149,-0.13416 -0.95106,-0.33562 -1.42197,-0.54795c-0.30276,-0.13808 -0.61546,-0.22043 -0.92863,-0.32498c-0.0111,0.00023 -0.01133,-0.01087 -0.02267,-0.02174l-0.17069,-0.19637c0.35827,0.13693 0.73781,0.22899 1.09631,0.37702c0.49311,0.21187 0.94158,0.41356 1.4333,0.55882c-0.00139,-0.06661 -0.01388,-0.13299 -0.01526,-0.1996c0.10084,0.04233 0.21232,0.06222 0.3127,0.08234c0,0 0.24076,0.89463 0.08163,1.25336z" fill="#86d0fd"/></g></g></g></g></svg>