<svg version="1.1" xmlns="http://www.w3.org/2000/svg" xmlns:xlink="http://www.w3.org/1999/xlink" width="345" height="200" viewBox="0,0,345,200"><defs><linearGradient x1="245.61615" y1="156.65883" x2="246.16189" y2="154.64416" gradientUnits="userSpaceOnUse" id="color-1"><stop offset="0" stop-color="#edafbc"/><stop offset="1" stop-color="#d29ca8"/></linearGradient><linearGradient x1="246.67123" y1="191.45338" x2="246.27161" y2="193.50202" gradientUnits="userSpaceOnUse" id="color-2"><stop offset="0" stop-color="#edafbc"/><stop offset="1" stop-color="#d29ca8"/></linearGradient><linearGradient x1="203.818" y1="178.20828" x2="234.26939" y2="178.20828" gradientUnits="userSpaceOnUse" id="color-3"><stop offset="0" stop-color="#edafbc"/><stop offset="1" stop-color="#ca96a1"/></linearGradient></defs><g transform="translate(-67.5,-80)"><g data-paper-data="{&quot;isPaintingLayer&quot;:true}" fill-rule="nonzero" stroke-linecap="butt" stroke-linejoin="miter" stroke-miterlimit="10" stroke-dasharray="" stroke-dashoffset="0" style="mix-blend-mode: normal"><g data-paper-data="{&quot;index&quot;:null}" stroke-width="0"><g fill="#ffd726"><path d="M249.62925,147.12187l-2.45585,9.06607l-1.97666,-0.53544l2.45585,-9.06607z" stroke="#ff0000"/><path d="M257.96098,147.69453c-0.11998,0.44294 -2.58342,1.50845 -5.0828,0.83142c-2.49937,-0.67703 -4.42824,-1.58496 -4.30826,-2.02789c0.11999,-0.44294 2.18671,-0.04394 4.68609,0.63309c2.49935,0.67704 4.82495,0.12044 4.70497,0.56337z" stroke="#ff0000"/><path d="M250.2061,147.05355c-0.12519,0.46219 -2.1131,0.32586 -4.4401,-0.30448c-2.327,-0.63034 -3.70564,-2.60367 -3.58043,-3.06585c0.12519,-0.4622 1.50832,1.08228 3.83533,1.71263c2.32699,0.63036 4.31041,1.19553 4.18521,1.65771z" stroke="none"/><path d="M248.00524,145.27095c1.67456,1.317 3.68608,1.74567 3.21113,2.03599c-0.47494,0.29032 -2.66131,0.08633 -4.33587,-1.23066c-1.67458,-1.31701 -2.20321,-3.24834 -1.72827,-3.53866c0.47495,-0.29032 1.17845,1.41632 2.85301,2.73331z" stroke="none"/></g><path d="M245.13154,154.36508l0.54584,0.76638l1.03237,-0.33536l0.57759,0.77697l0.8402,-0.01145l5.59969,3.89907c0,0 -7.73587,-2.70023 -8.47263,-2.8998c-0.61718,-0.1672 -6.18066,-1.56529 -6.18066,-1.56529l4.92798,-0.55156z" fill="url(#color-1)" stroke="#ff0000"/></g><g stroke-width="0"><g fill="#ffd726"><path d="M244.05231,201.39026l1.79839,-9.21904l2.01001,0.3921l-1.79839,9.21904z" stroke="#ff0000"/><path d="M253.79113,204.94635c-0.08785,0.45041 -1.92891,-1.07562 -4.47046,-1.5714c-2.54154,-0.49579 -4.57214,-1.05008 -4.48428,-1.50049c0.08785,-0.45041 2.21943,-0.41361 4.76096,0.08218c2.54154,0.49579 4.28164,2.53929 4.19377,2.98971z" stroke="#ff0000"/><path d="M246.54977,202.09828c-0.09168,0.46999 -2.12087,0.10158 -4.48713,-0.36001c-2.36627,-0.46159 -4.28911,0.31371 -4.19743,-0.15627c0.09168,-0.46999 2.19979,-1.63208 4.56607,-1.17049c2.36627,0.46159 4.21019,1.21679 4.11849,1.68677z" stroke="none"/><path d="M243.78803,202.72629c-2.08395,0.44254 -3.46854,1.66335 -3.76656,1.19319c-0.29801,-0.47016 1.02887,-1.96977 3.11282,-2.41233c2.08395,-0.44254 4.13581,0.33954 4.43383,0.80971c0.29801,0.47016 -1.69614,-0.03314 -3.78008,0.40942z" stroke="none"/></g><path d="M244.24514,192.72814l-4.1784,-2.67025c0,0 5.60925,1.20136 6.23685,1.32378c0.74919,0.14615 8.88253,1.13807 8.88253,1.13807l-6.74574,1.02677l-0.74887,-0.38115l-0.86125,0.4422l-0.77831,-0.75663l-0.82809,0.44672z" fill="url(#color-2)" stroke="#ff0000"/></g><g stroke-width="0"><g><path d="M284.46327,171.10413c-0.10896,1.04738 2.33433,7.32778 1.34045,8.87098c-2.15355,3.34385 -8.73023,2.15116 -9.81585,2.06547c-1.58663,-0.12524 -2.59311,-2.9156 -2.24805,-6.23245c0.34506,-3.31685 1.91101,-5.90417 3.49764,-5.77893c1.58663,0.12524 7.57087,-2.24192 7.22581,1.07493z" fill="#906bc7" stroke="#ffffff"/><path d="M279.11893,175.43051c0,9.57869 -13.43146,17.34375 -30,17.34375c-16.56854,0 -30,-7.76506 -30,-17.34375c0,-9.57869 13.43146,-17.34375 30,-17.34375c16.56854,0 30,7.76506 30,17.34375z" fill="#ca96a1" stroke="none"/><path d="M249.03255,165.33814c-11.88667,0.25754 -21.83705,-1.21776 -21.90234,-4.23086c-0.02917,-1.34599 3.88765,-1.68452 7.1122,-2.8725c3.99384,-1.4714 0.18472,-4.24959 6.76146,-4.39209c11.88667,-0.25754 32.21032,5.51325 32.21032,5.51325c0,0 -12.29497,5.72466 -24.18165,5.9822z" data-paper-data="{&quot;index&quot;:null}" fill="#906bc7" stroke="#000000"/></g><path d="M274.04752,190.12308c0,0 -20.32364,5.7708 -32.21031,5.51326c-6.57674,-0.14249 -2.76762,-2.92069 -6.76146,-4.39209c-3.22456,-1.18798 -7.14137,-1.52651 -7.11221,-2.8725c0.06528,-3.0131 10.01567,-4.4884 21.90234,-4.23086c11.88667,0.25754 24.18164,5.98219 24.18164,5.98219z" fill="#906bc7" stroke="#000000"/></g><g><g stroke="#000000" stroke-width="0"><path d="M209.13382,181.58655c0.0712,2.31232 -2.91715,4.28062 -6.67466,4.39633c-3.75752,0.11571 -7.76343,-3.7422 -7.76343,-3.7422c0,0 3.74806,-4.51575 7.50558,-4.63145c3.75752,-0.11571 6.86131,1.665 6.93251,3.97732z" fill="#ffd726"/><path d="M209.12737,181.37721c0.06052,1.96547 -2.47957,3.63853 -5.67346,3.73688c-3.19389,0.09835 -6.59892,-3.18086 -6.59892,-3.18086c0,0 3.18585,-3.83839 6.37974,-3.93674c3.19389,-0.09835 5.83211,1.41525 5.89264,3.38072z" fill="#debb21"/><path d="M210.34336,178.18174c0.04593,1.49149 0.72478,4.39712 -2.77853,5.86682c-1.51968,0.92665 -3.18515,-0.76397 -5.42486,-0.69501c-4.39705,0.1354 -9.10791,-5.03228 -9.10791,-5.03228c0,0 4.37187,-5.8409 8.76892,-5.9763c1.70614,-0.05254 4.98743,-0.99115 6.37853,-0.29289c2.19402,1.1013 2.10656,4.26928 2.16385,6.12966z" fill="#ffd726"/></g><path d="M234.26939,177.9305c0,2.98156 -2.9111,3.77178 -4.98283,5.9052c-2.66522,2.74459 -6.42186,6.71633 -10.93731,6.71633c-8.02539,0 -14.53125,-5.52649 -14.53125,-12.34375c0,-6.81726 6.50586,-12.34375 14.53125,-12.34375c2.39409,0 5.76407,2.15848 7.75535,3.02965c4.68378,2.04915 8.16479,4.25275 8.16479,9.03632z" fill="url(#color-3)" stroke="#000000" stroke-width="0"/><path d="M214.99602,169.04749c0.0714,1.80654 -1.79402,3.41619 -4.16656,3.59524c-2.37255,0.17904 -4.35376,-1.1403 -4.42514,-2.94684c-0.07142,-1.80654 1.79403,-3.41615 4.16657,-3.5952c2.37252,-0.17904 4.35373,1.1403 4.42515,2.94684z" data-paper-data="{&quot;index&quot;:null}" fill="#000000" stroke="#ffffff" stroke-width="0.25"/><path d="M214.31422,187.42316c-0.07142,1.80654 -2.05263,3.12588 -4.42515,2.94684c-2.37254,-0.17905 -4.23799,-1.78867 -4.16657,-3.5952c0.07138,-1.80654 2.0526,-3.12588 4.42514,-2.94684c2.37254,0.17905 4.23796,1.7887 4.16656,3.59524z" data-paper-data="{&quot;index&quot;:null}" fill="#000000" stroke="#ffffff" stroke-width="0.25"/><path d="M208.77381,176.66747v-0.60976h2.29227v0.60976z" fill="#000000" stroke="#ffffff" stroke-width="0"/><path d="M208.82845,177.90572l0.23088,-0.56436l2.1216,0.86794l-0.23088,0.56436z" fill="#000000" stroke="#ffffff" stroke-width="0"/><path d="M210.78056,173.86678l0.23088,0.56435l-2.1216,0.86794l-0.23087,-0.56436z" data-paper-data="{&quot;index&quot;:null}" fill="#000000" stroke="#ffffff" stroke-width="0"/></g><path d="M67.5,280v-200h345v200z" fill="none" stroke="#ffffff" stroke-width="0"/></g></g></svg>