<svg version="1.1" xmlns="http://www.w3.org/2000/svg" xmlns:xlink="http://www.w3.org/1999/xlink" width="19.42327" height="35.07917" viewBox="0,0,19.42327,35.07917"><g transform="translate(-229.80684,-161.74273)"><g data-paper-data="{&quot;isPaintingLayer&quot;:true}" fill-rule="nonzero" stroke-linejoin="miter" stroke-miterlimit="10" stroke-dasharray="" stroke-dashoffset="0" style="mix-blend-mode: normal"><path d="M237.43049,196.8219l-4.27833,-5.83904l0.07283,-15.24594l12.76216,0.09375l2.70602,3.03623v17.95499zM243.7592,185.0736c1.23345,0 2.23336,-0.99991 2.23336,-2.23336c0,-1.23345 -0.99991,-2.23336 -2.23336,-2.23336c-1.23345,0 -2.23336,0.99991 -2.23336,2.23336c0,1.23345 0.99991,2.23336 2.23336,2.23336z" fill="#ffffff" stroke="#000000" stroke-width="0" stroke-linecap="butt"/><path d="M238.65281,178.28589v-7.45257h1.93215v7.45257z" fill="#ffffff" stroke="#000000" stroke-width="0" stroke-linecap="butt"/><path d="M236.58265,169.86724c0,-1.67687 1.35937,-3.03623 3.03623,-3.03623c1.67687,0 3.03623,1.35937 3.03623,3.03623c0,1.67687 -1.35937,3.03623 -3.03623,3.03623c-1.67687,0 -3.03623,-1.35937 -3.03623,-3.03623z" fill="#ffffff" stroke="#000000" stroke-width="0" stroke-linecap="butt"/><path d="M236.99668,163.24273c0,0 -2.14601,-0.52747 -3.8105,1.4314c-2.27248,2.67438 -1.84794,4.50306 -1.84794,4.50306" fill="none" stroke="#ffffff" stroke-width="3" stroke-linecap="round"/><path d="M242.07167,163.24273c0,0 2.14601,-0.52747 3.8105,1.4314c2.27248,2.67438 1.84794,4.50306 1.84794,4.50306" data-paper-data="{&quot;index&quot;:null}" fill="none" stroke="#ffffff" stroke-width="3" stroke-linecap="round"/></g></g></svg>