<svg version="1.1" xmlns="http://www.w3.org/2000/svg" xmlns:xlink="http://www.w3.org/1999/xlink" width="52.35644" height="55.91996" viewBox="0,0,52.35644,55.91996"><defs><radialGradient cx="43.42883" cy="44.68087" r="27.95998" gradientUnits="userSpaceOnUse" id="color-1"><stop offset="0" stop-color="#ffffff"/><stop offset="1" stop-color="#ffffff" stop-opacity="0"/></radialGradient></defs><g transform="translate(-17.25061,-16.72088)"><g stroke="none" stroke-width="0" stroke-miterlimit="10"><path d="M69.60705,44.68087c0,15.44187 -11.72039,27.95998 -26.17822,27.95998c-14.45783,0 -26.17822,-12.51811 -26.17822,-27.95998c0,-15.44187 11.72039,-27.95998 26.17822,-27.95998c14.45783,0 26.17822,12.51811 26.17822,27.95998z" fill="url(#color-1)"/><path d="M35.58409,25.69108c0,0 -11.51293,-2.41492 -11.51293,1.4707c0,4.10981 0,12.68509 0,12.68509h-4.92183c0,0 0.55353,-11.81611 3.01311,-15.06281c2.27783,-3.00679 13.15982,-3.75298 13.15982,-3.75298z" fill="#ffa700"/><path d="M51.54878,21.09696c0,0 10.882,0.74619 13.15982,3.75298c2.45958,3.2467 3.01311,15.06281 3.01311,15.06281h-4.92182c0,0 0,-8.57529 0,-12.6851c0,-3.88562 -11.51293,-1.4707 -11.51293,-1.4707z" fill="#ffa700"/><path d="M51.07873,64.6492c0,0 11.51293,2.41492 11.51293,-1.4707c0,-4.10981 0,-12.68509 0,-12.68509h4.92182c0,0 -0.55353,11.8161 -3.0131,15.06281c-2.27783,3.00679 -13.15983,3.75298 -13.15983,3.75298z" fill="#ffa700"/><path d="M36.06815,69.10098c0,0 -10.882,-0.74619 -13.15982,-3.75298c-2.45958,-3.2467 -3.0131,-15.06281 -3.0131,-15.06281h4.92182c0,0 0,8.57529 0,12.6851c0,3.88562 11.51293,1.4707 11.51293,1.4707z" fill="#ffa700"/></g></g></svg>