<svg version="1.1" xmlns="http://www.w3.org/2000/svg" xmlns:xlink="http://www.w3.org/1999/xlink" width="104.41398" height="62.80795" viewBox="0,0,104.41398,62.80795"><g transform="translate(-207.4073,-148.08249)"><g data-paper-data="{&quot;isPaintingLayer&quot;:true}" fill-rule="nonzero" stroke-linecap="butt" stroke-linejoin="miter" stroke-miterlimit="10" stroke-dasharray="" stroke-dashoffset="0" style="mix-blend-mode: normal"><g><path d="M281.36038,148.08249c0,0 2.51985,5.75974 4.11574,8.01138c1.72938,2.43997 5.89228,6.10887 5.89228,6.10887l-25.18266,17.84874c0.18826,-0.27902 0.33691,-0.58288 0.42725,-0.91856c0.69272,-2.57394 -1.05209,-5.11686 -2.56199,-6.9897c-2.00872,-2.49158 -4.44512,-4.72192 -7.00633,-6.82646z" fill="#966726" stroke="#ffffff" stroke-width="0"/><path d="M236.15764,182.38802c-0.30794,-0.53795 -0.60885,-1.08009 -0.91057,-1.62175l19.6195,-13.90573c1.9856,1.64212 3.90512,3.34844 5.64718,5.1826c1.3377,1.40842 4.30741,4.06461 3.70652,6.36532c-0.17524,0.67098 -2.00242,1.82948 -2.10131,1.90579c-3.09554,2.38888 -6.32805,4.54055 -9.44501,6.90133c-0.16518,0.21667 -0.35275,0.42182 -0.54498,0.62456c-4.17242,0.00982 -8.32841,0.04527 -12.48523,0.17003c-1.19991,-1.89155 -2.42307,-3.7651 -3.48609,-5.62216z" fill="#966726" stroke="#ffffff" stroke-width="0"/><path d="M243.89441,195.85093c-0.08315,-0.29534 -0.18124,-0.57983 -0.30174,-0.84777c-0.68499,-1.52317 -1.52233,-3.0341 -2.42296,-4.53349c3.15534,-0.07949 6.31134,-0.11148 9.47585,-0.12448c-0.03695,0.25066 -0.05289,0.50298 -0.05009,0.75622z" fill="#966726" stroke="#ffffff" stroke-width="0"/><path d="M222.67528,210.89044c0,0 -2.36013,-6.63666 -4.02936,-8.99175c-0.69264,-0.97724 -5.97867,-5.1285 -5.97867,-5.1285l6.69087,-4.74229c2.75132,-0.53719 5.76583,-0.62758 8.26001,-0.84283c3.56152,-0.30737 7.1097,-0.50332 10.65568,-0.62829c1.11514,1.80331 2.1747,3.62119 3.03296,5.45864c0.1873,0.40099 0.32547,0.86534 0.43957,1.35801z" fill="#966726" stroke="#ffffff" stroke-width="0"/><path d="M233.11771,182.27549c0.35571,0.52848 0.6647,0.99542 0.87025,1.3545c0.85153,1.48759 1.79637,2.98087 2.74858,4.4828c-3.10608,0.12689 -6.21487,0.31189 -9.33357,0.58155c-1.19801,0.10359 -2.47215,0.18986 -3.77035,0.30392z" fill="#966726" stroke="#ffffff" stroke-width="0"/><path d="M234.27428,192.21488c-1.81577,0.33475 -3.4855,0.07686 -5.28844,0.76826c-3.09856,1.18826 -5.42375,4.70746 -8.04584,6.57799c0,0 -1.01982,0.72282 -1.74264,-0.297c-0.72282,-1.01982 0.297,-1.74264 0.297,-1.74264c2.5004,-1.75932 4.59059,-4.7065 7.33606,-6.27316c0.26754,-0.02018 0.53039,-0.04106 0.78771,-0.06326c3.56152,-0.30737 7.1097,-0.50332 10.65568,-0.62829c0.04098,0.06627 0.08189,0.13256 0.12271,0.19888c-1.31428,0.67962 -2.69348,1.19583 -4.12224,1.45923z" fill="#8b5f23" stroke="none" stroke-width="0.5"/><path d="M245.65409,182.91709c0.97517,0.78201 0.19317,1.75718 0.19317,1.75718l-1.10551,1.37393c-0.6744,0.63887 -1.38823,1.2763 -2.1372,1.88736c-0.98705,0.02041 -1.97391,0.04499 -2.96082,0.07461c-0.13636,-0.21496 -0.27301,-0.42968 -0.4097,-0.64417c1.33967,-0.91511 2.57905,-1.97843 3.6685,-3.0111l0.99439,-1.24466c0,0 0.78201,-0.97517 1.75718,-0.19317z" fill="#8b5f23" stroke="none" stroke-width="0.5"/><path d="M262.82166,178.91863c-2.1326,1.50236 -5.43832,3.09288 -8.07988,1.72668c-2.69974,-1.39629 -2.92107,-7.35781 -1.62308,-9.59233c0.97236,-1.67394 2.07807,-2.38601 3.44984,-2.75135c0.78932,0.68605 1.56235,1.3858 2.31155,2.10355c-1.12917,0.18817 -2.20645,0.41545 -2.44949,0.60938c-1.3545,1.08079 -2.6772,6.46396 -0.43985,7.46509c1.7148,0.76731 4.05842,-0.65358 5.38528,-1.60066c0.66328,-0.47011 1.40141,-0.93355 2.08433,-1.4589c0.5152,0.80106 0.86626,1.64074 0.83753,2.4526c-0.48538,0.35395 -0.98325,0.69653 -1.47623,1.04594z" fill="#8b5f23" stroke="none" stroke-width="0.5"/><path d="M277.44174,158.14471c1.10259,0.5889 0.51369,1.69149 0.51369,1.69149l-0.86547,1.3403c-2.89749,2.0431 -6.82635,4.51006 -8.2874,7.90868c-0.65303,1.51904 -0.32387,3.44793 -0.99895,4.92819c-0.3566,0.78191 -0.82981,1.4449 -1.37628,2.03434c-0.29299,-0.84292 -0.74668,-1.65117 -1.25125,-2.39849c0.11508,-0.18067 0.21841,-0.36966 0.30785,-0.56809c0.65847,-1.46082 0.36937,-3.46284 1.02043,-4.97995c1.66973,-3.89087 5.82064,-6.60101 9.13997,-8.96433l0.10594,-0.47846c0,0 0.5889,-1.10259 1.69149,-0.51369z" fill="#8b5f23" stroke="none" stroke-width="0.5"/><path d="M257.63284,175.51444c0,0 -1.11787,0.55934 -1.67721,-0.55853c-0.55934,-1.11787 0.55853,-1.67721 0.55853,-1.67721c1.14981,-0.5739 2.26467,-1.21859 3.35495,-1.90057c0.21738,0.21985 0.43232,0.44148 0.64463,0.66502c0.34515,0.3634 0.79895,0.80987 1.27204,1.31187c-1.50206,0.98536 -3.27514,1.71919 -4.15294,2.15943z" fill="#8b5f23" stroke="none" stroke-width="0.5"/><path d="M264.19629,169.21695c0.3197,0.90617 0.06221,1.73658 -0.51041,2.48178c-1.14721,-1.3712 -2.42159,-2.66381 -3.77073,-3.90125c1.58286,-0.28111 3.49758,-0.80145 4.28114,1.41947z" fill="#8b5f23" stroke="none" stroke-width="0.5"/><path d="M251.90121,174.10667c0.72282,1.01982 -0.297,1.74264 -0.297,1.74264l-0.91351,0.60648c-1.53331,2.72154 1.89003,5.32848 0.73967,8.09487c-0.24929,0.5995 -1.09798,0.72605 -1.51628,1.22261c-0.55622,0.66028 -1.02909,1.3952 -1.55103,2.08446c-1.04842,0.00781 -2.09613,0.01847 -3.1434,0.03298c0.10144,-0.40656 0.4011,-0.6807 0.4011,-0.6807c1.16365,-1.04747 2.77956,-2.61008 3.57261,-3.77551c0.43752,-0.64296 -0.64032,-1.42248 -0.86302,-2.16761c-0.74051,-2.47765 -0.67783,-4.23829 0.48478,-6.46403l1.34345,-0.99318c0,0 1.01982,-0.72282 1.74264,0.297z" fill="#8b5f23" stroke="none" stroke-width="0.5"/><path d="M281.7279,152.43193c0.88064,0.88711 -0.00647,1.76776 -0.00647,1.76776l-0.76645,0.67684c-0.27614,2.00999 1.15891,2.31713 2.37939,3.42467c1.91139,1.73451 3.3061,4.86783 2.0324,7.34712c-0.91052,1.77235 -3.07621,1.82807 -4.59353,2.08297c-1.91027,0.32091 -3.87106,2.33774 -5.38128,3.40814c0,0 -1.01982,0.72282 -1.74264,-0.297c-0.72282,-1.01982 0.297,-1.74264 0.297,-1.74264c1.95519,-1.38579 4.01332,-3.34836 6.4367,-3.83786c0.88061,-0.17787 2.23207,0.14517 2.86761,-0.94477c1.23495,-2.11791 -2.05205,-4.10858 -3.12096,-5.10638c-1.69974,-1.58664 -1.77139,-3.39309 -1.39341,-5.48633l1.22389,-1.29898c0,0 0.88711,-0.88064 1.76776,0.00647z" fill="#8b5f23" stroke="none" stroke-width="0.5"/><path d="M240.11093,195.7437c0.72282,1.01982 -0.297,1.74264 -0.297,1.74264l-0.18808,0.13331c-0.71625,0.43138 -1.3149,1.23247 -2.14874,1.29414c-1.48253,0.10965 -2.6118,-2.37517 -3.76009,-2.02632c-2.95383,0.89738 -1.55791,3.87724 -3.0385,5.89221c-1.30732,1.77916 -6.21123,5.02535 -7.80224,1.54189c-0.39458,-0.86392 0.95049,-1.64471 1.41304,-2.47424c0.7064,-1.26684 1.16988,-2.61845 1.75154,-3.94389c0,0 0.5026,-1.14451 1.64711,-0.6419c1.14451,0.5026 0.6419,1.64711 0.6419,1.64711c-0.47117,1.07215 -0.77829,2.52449 -1.46411,3.56016c0.64645,-0.41724 1.40195,-0.70385 1.89204,-1.28938c1.37464,-1.64231 -0.18752,-2.93169 1.5479,-4.80196c1.4471,-1.55954 3.21456,-2.40701 5.31676,-1.54428c0.71624,0.29394 0.94677,1.77589 1.69722,1.58557c0.38826,-0.09847 0.57369,-0.55916 0.86053,-0.83874l0.18808,-0.13331c0,0 1.01982,-0.72282 1.74264,0.297z" fill="#8b5f23" stroke="none" stroke-width="0.5"/></g><g><path d="M235.13136,172.84701c-0.31645,-0.51902 -0.62445,-1.03674 -0.92007,-1.55317c-0.82798,-1.44645 -1.60518,-2.92318 -2.48395,-4.33935c-0.33423,-0.53864 -1.06487,-0.93361 -1.07695,-1.5674c-0.02025,-1.06239 1.1446,-1.79117 1.68283,-2.70735c0.85066,-1.44802 1.57085,-2.90589 2.2181,-4.40359l19.34667,-1.69073c1.63695,1.3901 3.21503,2.83227 4.66941,4.36355c1.3377,1.40842 4.30741,4.06461 3.70652,6.36532c-0.17524,0.67098 -2.00242,1.82948 -2.10131,1.90579c-0.71744,0.55366 -1.44223,1.09457 -2.17124,1.6283z" fill="#a37029" stroke="#ffffff" stroke-width="0"/><path d="M278.00009,154.47909c0,0 -0.61772,5.2549 -0.4155,7.56881c0.21913,2.50744 1.68361,6.94193 1.68361,6.94193l-16.54602,1.44598c0.83713,-0.63309 1.6666,-1.36462 1.94446,-2.39707c0.69272,-2.57394 -1.05209,-5.11686 -2.56199,-6.9897c-1.37042,-1.69984 -2.93989,-3.27808 -4.61226,-4.77775z" fill="#a37029" stroke="#ffffff" stroke-width="0"/><path d="M208.67541,175.15902c0,0 1.10646,-5.824 0.89495,-8.24423c-0.08776,-1.00426 -2.16306,-6.26651 -2.16306,-6.26651l24.2921,-2.12292c-0.45843,0.97348 -0.95896,1.93259 -1.52102,2.88681c-0.55181,0.93682 -2.03567,3.3843 -2.02771,4.01232c0.02271,1.79169 2.97776,5.51602 3.89094,7.11131c0.1055,0.18431 0.21244,0.36871 0.32064,0.55319z" fill="#a37029" stroke="#ffffff" stroke-width="0"/><path d="M225.03878,166.52322c-1.46125,-0.52861 -2.56452,-1.42565 -4.16805,-1.68975c-2.75585,-0.45387 -5.94066,1.11417 -8.64039,1.35842c0,0 -1.04802,0.09159 -1.13961,-0.95643c-0.09159,-1.04802 0.95643,-1.13961 0.95643,-1.13961c2.90184,-0.24354 6.06871,-1.81557 9.04008,-1.35524c1.84334,0.28558 3.05474,1.21162 4.7079,1.81922c0.76588,0.28149 1.58329,0.44929 2.42405,0.53075c-0.0449,0.13764 -0.06957,0.25146 -0.06852,0.33392c0.00613,0.48372 0.226,1.1083 0.56171,1.79383c-1.26391,-0.06129 -2.50562,-0.27259 -3.6736,-0.6951z" fill="#8b5f23" stroke="none" stroke-width="0.5"/><path d="M237.25698,164.6062c0.37598,0.98254 -0.60656,1.35852 -0.60656,1.35852l-1.38701,0.52814c-1.1033,0.25709 -2.26544,0.47678 -3.44475,0.60958c-0.03032,-0.04939 -0.06076,-0.09871 -0.09132,-0.14796c-0.33423,-0.53864 -1.06487,-0.93361 -1.07695,-1.5674c-0.0018,-0.09447 0.00577,-0.18629 0.02143,-0.27585c1.37246,-0.09375 2.73577,-0.34089 3.97531,-0.63011l1.25135,-0.48146c0,0 0.98254,-0.37598 1.35852,0.60656z" fill="#8b5f23" stroke="none" stroke-width="0.5"/><path d="M259.9511,164.3978c-1.12001,0.82586 -1.70077,2.36691 -2.82032,3.15523c-1.71343,1.20649 -3.71367,1.27172 -5.70381,1.44564c-2.18768,0.18487 -5.26499,-0.06485 -6.60312,-2.18003c-1.36761,-2.16177 1.00552,-6.58627 2.89813,-7.65772c2.23556,-1.26559 3.6955,-0.65318 5.78269,0.30673c1.28145,0.58935 3.47522,0.83104 3.04443,3.06801c-0.52989,2.75162 -5.70698,1.89704 -7.44436,1.78474c0,0 -1.04976,-0.06884 -0.98093,-1.1186c0.06884,-1.04976 1.1186,-0.98093 1.1186,-0.98093c1.34964,0.08985 2.70662,0.07602 4.05786,0.01475c0.39712,-0.01801 1.03623,0.25 1.18673,-0.11794c0.01999,-0.04887 -3.75571,-1.66217 -4.34293,-1.57699c-1.44328,0.20936 -4.69216,3.55749 -3.49248,5.23567c0.91949,1.28623 3.22583,1.25024 4.5922,1.12625c1.51764,-0.13263 3.29081,-0.0835 4.59821,-1.01272c1.09922,-0.78126 1.74016,-2.3584 2.85792,-3.1837c0.30972,-0.22868 0.63462,-0.43504 0.97212,-0.62162c0.47156,0.49294 0.97356,1.04577 1.41414,1.63018c-0.40172,0.19693 -0.78224,0.42288 -1.13507,0.68305z" fill="#8b5f23" stroke="none" stroke-width="0.5"/><path d="M270.87673,160.12268c0.55061,0.89642 -0.34581,1.44703 -0.34581,1.44703l-1.19836,0.60573c-1.79184,0.15221 -3.92125,0.25702 -5.87904,0.72076c-0.41266,-0.64855 -0.87375,-1.25616 -1.31638,-1.80681c2.28188,-0.65697 4.80409,-0.81227 7.01224,-1.01l0.28032,-0.30252c0,0 0.89642,-0.55061 1.44703,0.34581z" fill="#8b5f23" stroke="none" stroke-width="0.5"/><path d="M245.53966,160.86162c0.09159,1.04802 -0.95643,1.13961 -0.95643,1.13961l-0.92135,0.05227c-2.27056,1.3252 -0.89191,4.67394 -2.90336,6.19448c-0.4359,0.32951 -1.10617,0.06072 -1.62108,0.24362c-1.1077,0.39347 -2.13994,1.02157 -3.2876,1.27594c0,0 -1.02857,0.22087 -1.24944,-0.8077c-0.22087,-1.02857 0.8077,-1.24944 0.8077,-1.24944c1.29049,-0.26628 3.12846,-0.71453 4.19988,-1.22402c0.5911,-0.28108 0.13949,-1.30545 0.29443,-1.94137c0.5152,-2.11451 1.30908,-3.36679 3.09963,-4.4894l1.39802,-0.15042c0,0 1.04802,-0.09159 1.13961,0.95643z" fill="#8b5f23" stroke="none" stroke-width="0.5"/><path d="M276.41835,157.79472c0.26264,1.01871 -0.75607,1.28134 -0.75607,1.28134l-0.84444,0.16588c-1.05492,1.34268 -0.14305,2.17574 0.27275,3.49901c0.65119,2.07237 0.33251,4.94121 -1.6465,6.20078c-1.41472,0.90042 -3.01156,0.02039 -4.22207,-0.43937c-1.34559,-0.51107 -3.28172,-0.07854 -4.78484,0.12311c0.09576,-0.18455 0.17372,-0.37959 0.22947,-0.58673c0.14149,-0.52573 0.18129,-1.05017 0.14217,-1.56786c1.71961,-0.21194 3.57005,-0.47951 5.17933,0.07191c0.71527,0.24509 1.55967,1.05417 2.48459,0.53257c1.79727,-1.01354 0.25572,-3.85667 -0.09664,-5.0358c-0.5603,-1.87499 0.15547,-3.21765 1.31975,-4.57751l1.44115,-0.42337c0,0 1.01871,-0.26264 1.28134,0.75607z" fill="#8b5f23" stroke="none" stroke-width="0.5"/><path d="M227.77861,171.56734c0.09159,1.04802 -0.95643,1.13961 -0.95643,1.13961l-0.19328,0.01689c-0.70363,0.00892 -1.47899,0.33638 -2.1109,0.02676c-1.12351,-0.55049 -0.88766,-2.83544 -1.87005,-3.07011c-2.52708,-0.60365 -2.77965,2.15424 -4.7116,2.9886c-1.70586,0.73671 -6.6478,1.01038 -6.32289,-2.19625c0.08058,-0.79527 1.38951,-0.79072 2.07808,-1.19668c1.05158,-0.61998 1.96275,-1.40478 2.94863,-2.12036c0,0 0.85155,-0.61774 1.46929,0.23381c0.61774,0.85155 -0.23381,1.46929 -0.23381,1.46929c-0.79797,0.57854 -1.63836,1.50298 -2.57674,1.96378c0.64692,-0.02831 1.31754,0.08461 1.92242,-0.13241c1.69658,-0.60869 1.10988,-2.20928 3.16542,-2.83021c1.71404,-0.51777 3.35813,-0.38213 4.51846,1.13808c0.39534,0.51795 -0.06709,1.69242 0.55892,1.87314c0.32389,0.0935 0.65439,-0.16233 0.98159,-0.2435l0.19328,-0.01689c0,0 1.04802,-0.09159 1.13961,0.95643z" fill="#8b5f23" stroke="none" stroke-width="0.5"/></g><g><path d="M307.76594,173.97208c0,0 0.41205,5.27502 1.05872,7.5059c0.25443,0.87773 0.71913,1.97287 1.20788,3.01185l-0.52325,0.1458c-3.28121,0.64229 -6.5891,0.88365 -9.86466,1.46893c-2.44318,0.43655 -4.50204,1.26678 -7.01813,1.34311c-8.39642,0.25472 -16.89887,-1.3669 -25.32748,-1.74538z" fill="#a37029" stroke="#ffffff" stroke-width="0"/><path d="M311.82128,187.96221l-40.74385,11.81049c-1.72876,-1.29531 -3.45085,-2.68274 -4.71788,-4.37586c-1.67625,-2.23997 -3.93551,-4.70733 -3.02065,-7.20011c1.24982,-0.00155 2.50134,-0.00152 3.75504,-0.00167c8.51703,0.36936 17.12257,2.04063 25.61056,1.7514c2.64864,-0.09025 4.82105,-0.92408 7.38485,-1.38177c3.28606,-0.58663 6.60779,-0.83118 9.90018,-1.47562l1.10815,-0.30082c0,0 0.02767,-0.0076 0.07348,-0.0247c0.38151,0.72285 0.65012,1.19866 0.65012,1.19866z" fill="#a37029" stroke="#ffffff" stroke-width="0"/><path d="M260.47884,202.84492c-2.26092,-1.27386 -4.28949,-2.7918 -6.01568,-5.17798c-0.4909,-1.50123 -0.50034,-3.38517 -1.13875,-4.80477c-0.4085,-0.90836 -0.87118,-1.81236 -1.36916,-2.71216l6.68074,-1.93656c0.58018,-0.00384 1.1606,-0.00686 1.74131,-0.00925c-0.45702,3.10049 2.30005,6.45412 3.98225,8.69263c1.05476,1.40358 2.36841,2.61362 3.75722,3.73407z" fill="#a37029" stroke="#ffffff" stroke-width="0"/><path d="M243.76116,207.69091c0,0 -0.04283,-5.92802 -0.71921,-8.26141c-0.28066,-0.96823 -3.33613,-5.72872 -3.33613,-5.72872l9.76429,-2.83039c0.56727,0.99602 1.09806,1.99709 1.5684,3.00404c0.63924,1.36856 0.70626,3.47513 1.19687,4.92697c0.91433,1.2941 1.60203,2.80007 2.78988,3.84874c0.52503,0.46351 1.10173,0.88647 1.7142,1.27873z" fill="#a37029" stroke="#ffffff" stroke-width="0"/><path d="M258.14143,196.04855c-1.46672,-0.22488 -2.67829,-0.84259 -4.19892,-0.85293c-0.12555,-0.72808 -0.26671,-1.44719 -0.51524,-2.08731c0.03486,-0.00198 0.06974,-0.0037 0.10465,-0.00514c1.86375,-0.07696 3.2316,0.59685 4.97115,0.87266c1.18094,0.18724 2.42312,0.11355 3.65627,-0.11949c0.42031,0.65198 0.87069,1.27452 1.30238,1.85203c-1.76271,0.42737 -3.5733,0.60803 -5.32029,0.34018z" fill="#8b5f23" stroke="none" stroke-width="0.5"/><path d="M269.75675,191.80074c0.55921,0.89108 -0.33187,1.45029 -0.33187,1.45029l-1.25842,0.78685c-0.69486,0.31357 -1.41914,0.61568 -2.16331,0.88908c-0.43768,-0.57143 -0.89575,-1.15637 -1.31434,-1.75161c0.86781,-0.29629 1.70473,-0.6401 2.48329,-0.99171l1.13436,-0.71477c0,0 0.89108,-0.55921 1.45029,0.33187z" fill="#8b5f23" stroke="none" stroke-width="0.5"/><path d="M245.51147,198.20496c0,0 -1.01042,0.29289 -1.30332,-0.71753c-0.29289,-1.01042 0.71753,-1.30332 0.71753,-1.30332c1.97789,-0.56597 3.95709,-1.80804 6.00788,-2.53219c0.03531,0.07414 0.07029,0.14831 0.10495,0.22251c0.23581,0.50485 0.39375,1.11014 0.52382,1.74593c-2.07007,0.68623 -4.12086,2.01874 -6.05086,2.5846z" fill="#8b5f23" stroke="none" stroke-width="0.5"/><path d="M289.82491,190.84145c-1.44723,1.51559 -3.39693,1.96709 -5.31567,2.52328c-2.11042,0.6052 -5.1778,0.9564 -6.90036,-0.85946c-0.75232,-0.79306 -0.91453,-2.12385 -0.7249,-3.4986c0.64749,0.06721 1.29503,0.13473 1.94253,0.20116c-0.17339,0.76621 -0.10496,1.47038 0.37356,1.92083c1.15126,1.08373 3.40692,0.60159 4.72339,0.21523c1.25028,-0.36242 2.70932,-0.6308 3.79538,-1.42802c0.9079,0.0375 1.81492,0.06 2.72082,0.06355c-0.17584,0.31502 -0.37332,0.6092 -0.61476,0.86204z" fill="#8b5f23" stroke="none" stroke-width="0.5"/><path d="M301.87091,180.88879c0.71385,0.77276 -0.05892,1.48661 -0.05892,1.48661l-1.0583,0.82642c-2.86788,0.82377 -6.67276,1.69957 -8.77317,3.99778c-0.07804,0.08539 -0.15146,0.1749 -0.22104,0.26783c-0.78165,0.01203 -1.56416,0.00875 -2.34739,-0.00732c0.28716,-0.60884 0.58656,-1.21019 1.01325,-1.67766c2.40229,-2.63189 6.45088,-3.63968 9.74258,-4.60147l0.2164,-0.3511c0,0 0.77276,-0.71385 1.48661,0.05892z" fill="#8b5f23" stroke="none" stroke-width="0.5"/><path d="M278.96853,184.43117c1.94801,-1.67473 3.49894,-1.35675 5.73255,-0.8194c1.37135,0.32992 3.57038,0.14202 3.58114,2.42007c0.00262,0.55494 -0.20097,1.00643 -0.5426,1.37545c-1.91925,-0.08078 -3.84219,-0.2275 -5.76669,-0.40337c1.02952,-0.16771 2.05111,-0.38886 3.06389,-0.63701c0.38611,-0.0946 1.06503,0.0445 1.1414,-0.34562c0.01014,-0.05181 -4.00657,-0.90307 -4.56617,-0.70573c-0.47751,0.16839 -1.09525,0.75012 -1.63542,1.49705c-0.80403,-0.08002 -1.6082,-0.1629 -2.41237,-0.24597c0.38789,-0.91427 0.88733,-1.69106 1.40428,-2.13548z" fill="#8b5f23" stroke="none" stroke-width="0.5"/><path d="M273.89749,194.69515c-0.3638,0.40772 -1.07345,0.27387 -1.54317,0.55306c-1.01048,0.60061 -1.90149,1.4168 -2.97811,1.88869c0,0 -0.96629,0.41596 -1.38225,-0.55033c-0.41596,-0.96629 0.55033,-1.38225 0.55033,-1.38225c1.21445,-0.51125 2.93076,-1.30709 3.88317,-2.0145c0.52544,-0.39027 -0.11607,-1.30774 -0.08726,-1.96163c0.04494,-1.02013 0.18684,-1.86594 0.48379,-2.62602c0.70972,0.0655 1.41973,0.13494 2.12991,0.20645c-0.91334,1.76651 0.39999,4.2543 -1.05641,5.88652z" fill="#8b5f23" stroke="none" stroke-width="0.5"/><path d="M277.15705,186.52244c0.00021,0.00074 0.00043,0.00148 0.00064,0.00221c-0.89261,-0.09219 -1.78518,-0.18404 -2.67749,-0.2719c0.01033,-0.00981 0.02072,-0.01961 0.03114,-0.02942l1.34239,-0.41842c0,0 1.01042,-0.29289 1.30332,0.71753z" fill="#8b5f23" stroke="none" stroke-width="0.5"/><path d="M306.85653,177.53133c0.45502,0.94852 -0.4935,1.40354 -0.4935,1.40354l-0.7963,0.32633c-0.77481,1.52161 0.28118,2.16223 0.94547,3.37987c0.38128,0.69888 0.65548,1.52794 0.76632,2.3776c-0.68533,0.10393 -1.37123,0.19779 -2.05718,0.28829c-0.33257,-1.08238 -1.17337,-2.19352 -1.50808,-2.82813c-0.91294,-1.73092 -0.47085,-3.1868 0.40791,-4.74647l1.33182,-0.69456c0,0 0.94852,-0.45502 1.40354,0.4935z" fill="#8b5f23" stroke="none" stroke-width="0.5"/><path d="M306.09822,189.04335c-1.21347,1.15744 -2.95055,0.60345 -4.2272,0.38692c-1.60728,-0.27261 -3.72324,0.78904 -5.21954,1.22278c0,0 -1.01042,0.29289 -1.30332,-0.71753c-0.03121,-0.10766 -0.04762,-0.20717 -0.05203,-0.29905c1.59285,-0.30788 3.10854,-0.77104 4.79322,-1.07179c2.30814,-0.41205 4.63388,-0.65533 6.9547,-0.98696c-0.19924,0.54671 -0.50797,1.04799 -0.94582,1.46562z" fill="#8b5f23" stroke="none" stroke-width="0.5"/><path d="M252.36425,203.45399c-1.53081,1.05324 -6.3261,2.27915 -6.62859,-0.92967c-0.07502,-0.79581 1.20999,-1.04493 1.80687,-1.57661c0.91155,-0.81197 1.6534,-1.75842 2.48197,-2.65144c0,0 0.71574,-0.77101 1.48675,-0.05527c0.77101,0.71574 0.05527,1.48675 0.05527,1.48675c-0.67077,0.72218 -1.31614,1.79191 -2.14746,2.42578c0.62918,-0.15311 1.30897,-0.17225 1.86034,-0.50234c1.01261,-0.60622 0.98248,-1.43998 1.37331,-2.22621c0.41251,0.64399 0.79924,1.31246 1.2401,1.93183c-0.39666,0.75098 -0.76844,1.57419 -1.52857,2.09718z" fill="#8b5f23" stroke="none" stroke-width="0.5"/><path d="M261.80659,200.4663c0.29289,1.01042 -0.71753,1.30332 -0.71753,1.30332l-0.18635,0.05402c-0.46786,0.09857 -0.93971,0.34783 -1.40742,0.44061c-0.64915,-0.40274 -1.277,-0.83497 -1.88172,-1.31293c-0.35659,-0.66062 -0.66786,-1.32085 -1.20599,-1.34211c-0.10378,-0.0041 -0.20296,-0.00364 -0.29784,0.00111c-0.51293,-0.51714 -1.00542,-1.08367 -1.4761,-1.71182c1.32675,-0.49859 2.66304,-0.45076 3.85623,0.60399c0.48819,0.43154 0.26206,1.67335 0.91123,1.72937c0.33586,0.02898 0.61054,-0.28604 0.91582,-0.42905l0.18635,-0.05402c0,0 1.01042,-0.29289 1.30332,0.71753z" fill="#8b5f23" stroke="none" stroke-width="0.5"/></g></g></g></svg>