<svg version="1.1" xmlns="http://www.w3.org/2000/svg" xmlns:xlink="http://www.w3.org/1999/xlink" width="345" height="200" viewBox="0,0,345,200"><defs><linearGradient x1="248.93314" y1="194.34343" x2="248.62294" y2="196.40754" gradientUnits="userSpaceOnUse" id="color-1"><stop offset="0" stop-color="#edafbc"/><stop offset="1" stop-color="#d29ca8"/></linearGradient><linearGradient x1="247.08607" y1="162.73502" x2="247.2758" y2="160.65642" gradientUnits="userSpaceOnUse" id="color-2"><stop offset="0" stop-color="#edafbc"/><stop offset="1" stop-color="#d29ca8"/></linearGradient><linearGradient x1="203.63281" y1="175.24532" x2="234.0842" y2="175.24532" gradientUnits="userSpaceOnUse" id="color-3"><stop offset="0" stop-color="#edafbc"/><stop offset="1" stop-color="#ca96a1"/></linearGradient></defs><g transform="translate(-67.5,-80)"><g data-paper-data="{&quot;isPaintingLayer&quot;:true}" fill-rule="nonzero" stroke-linecap="butt" stroke-linejoin="miter" stroke-miterlimit="10" stroke-dasharray="" stroke-dashoffset="0" style="mix-blend-mode: normal"><g stroke-width="0"><g fill="#ffd726"><path d="M246.74868,204.38478l1.39588,-9.28851l2.02515,0.30435l-1.39588,9.28851z" stroke="#ff0000"/><path d="M256.63289,207.51413c-0.06821,0.4538 -1.97386,-0.99073 -4.53454,-1.37555c-2.56069,-0.38483 -4.61347,-0.85031 -4.54527,-1.30412c0.06821,-0.4538 2.19934,-0.50972 4.76003,-0.12489c2.56069,0.38483 4.38799,2.35075 4.31979,2.80456z" stroke="#ff0000"/><path d="M249.27456,204.98356c-0.07116,0.47352 -2.11445,0.19369 -4.49855,-0.16458c-2.38409,-0.35829 -4.27142,0.49989 -4.20025,0.02635c0.07116,-0.47352 2.12676,-1.72616 4.51086,-1.36789c2.38409,0.35829 4.2591,1.03259 4.18794,1.50612z" stroke="none"/><path d="M246.54276,205.73106c-2.06272,0.53272 -3.39295,1.81257 -3.71113,1.35581c-0.31817,-0.45675 0.94226,-2.01264 3.00501,-2.54537c2.06272,-0.53272 4.14665,0.15942 4.46482,0.61617c0.31817,0.45675 -1.69597,0.04064 -3.7587,0.57336z" stroke="none"/></g><path d="M246.56475,195.72246l-4.29052,-2.48607c0,0 5.65618,0.95637 6.2885,1.05138c0.75483,0.11344 8.9236,0.75081 8.9236,0.75081l-6.69472,1.31908l-0.76473,-0.34824l-0.8412,0.47923l-0.81047,-0.72208l-0.80788,0.4823z" fill="url(#color-1)" stroke="#ff0000"/></g><g data-paper-data="{&quot;index&quot;:null}" stroke-width="0"><g fill="#ffd726"><path d="M249.39241,152.64842l-0.85374,9.35393l-2.03943,-0.18613l0.85374,-9.35393z" stroke="#ff0000"/><path d="M257.69788,151.77404c-0.0417,0.45702 -2.2842,1.93182 -4.86293,1.69646c-2.57873,-0.23537 -4.63541,-0.79663 -4.59369,-1.25363c0.0417,-0.457 2.14628,-0.42081 4.72502,-0.18545c2.57872,0.23538 4.77332,-0.71438 4.73159,-0.25738z" stroke="#ff0000"/><path d="M249.94878,152.48158c-0.0435,0.47687 -2.02509,0.68579 -4.42599,0.46666c-2.4009,-0.21914 -4.0995,-1.9248 -4.05598,-2.40168c0.04353,-0.47686 1.67251,0.80563 4.07341,1.02476c2.40088,0.21912 4.45208,0.43337 4.40856,0.91024z" stroke="none"/><path d="M247.4732,151.10569c1.87679,1.00814 3.9321,1.08309 3.51441,1.45104c-0.4177,0.36797 -2.60646,0.54452 -4.48325,-0.4636c-1.87681,-1.00814 -2.73094,-2.81919 -2.31325,-3.18714c0.4177,-0.36796 1.40528,1.19158 3.28207,2.1997z" stroke="none"/></g><path d="M246.21272,160.55937l0.66997,0.66063l0.95898,-0.50855l0.70306,0.66557l0.82562,-0.15632l6.18877,2.87375c0,0 -8.08591,-1.32412 -8.84606,-1.39349c-0.63679,-0.05813 -6.3581,-0.47471 -6.3581,-0.47471l4.75876,-1.39407z" fill="url(#color-2)" stroke="#ff0000"/></g><g stroke-width="0"><g><path d="M283.35216,174.43746c-0.10896,1.04738 2.33433,7.32778 1.34045,8.87098c-2.15355,3.34385 -8.73023,2.15116 -9.81585,2.06547c-1.58663,-0.12524 -2.59311,-2.9156 -2.24805,-6.23245c0.34506,-3.31685 1.91101,-5.90417 3.49764,-5.77893c1.58663,0.12524 7.57087,-2.24192 7.22581,1.07493z" fill="#906bc7" stroke="#ffffff"/><path d="M278.00782,178.76384c0,9.57869 -13.43146,17.34375 -30,17.34375c-16.56854,0 -30,-7.76506 -30,-17.34375c0,-9.57869 13.43146,-17.34375 30,-17.34375c16.56854,0 30,7.76506 30,17.34375z" fill="#ca96a1" stroke="none"/><path d="M247.92144,168.67147c-11.88667,0.25754 -21.83705,-1.21776 -21.90234,-4.23086c-0.02917,-1.34599 3.88765,-1.68452 7.1122,-2.8725c3.99384,-1.4714 0.18472,-4.24959 6.76146,-4.39209c11.88667,-0.25754 32.21032,5.51325 32.21032,5.51325c0,0 -12.29497,5.72466 -24.18165,5.9822z" data-paper-data="{&quot;index&quot;:null}" fill="#906bc7" stroke="#000000"/></g><path d="M272.93641,193.45641c0,0 -20.32364,5.7708 -32.21031,5.51326c-6.57674,-0.14249 -2.76762,-2.92069 -6.76146,-4.39209c-3.22456,-1.18798 -7.14137,-1.52651 -7.11221,-2.8725c0.06528,-3.0131 10.01567,-4.4884 21.90234,-4.23086c11.88667,0.25754 24.18164,5.98219 24.18164,5.98219z" fill="#906bc7" stroke="#000000"/></g><g><g stroke="#000000" stroke-width="0"><path d="M208.94863,178.62359c0.0712,2.31232 -2.91715,4.28062 -6.67466,4.39633c-3.75752,0.11571 -7.76343,-3.7422 -7.76343,-3.7422c0,0 3.74806,-4.51575 7.50558,-4.63145c3.75752,-0.11571 6.86131,1.665 6.93251,3.97732z" fill="#ffd726"/><path d="M208.94218,178.41425c0.06052,1.96547 -2.47957,3.63853 -5.67346,3.73688c-3.19389,0.09835 -6.59892,-3.18086 -6.59892,-3.18086c0,0 3.18585,-3.83839 6.37974,-3.93674c3.19389,-0.09835 5.83211,1.41525 5.89264,3.38072z" fill="#debb21"/><path d="M210.15817,175.21878c0.04593,1.49149 0.72478,4.39712 -2.77853,5.86682c-1.51968,0.92665 -3.18515,-0.76397 -5.42486,-0.69501c-4.39705,0.1354 -9.10791,-5.03228 -9.10791,-5.03228c0,0 4.37187,-5.8409 8.76892,-5.9763c1.70614,-0.05254 4.98743,-0.99115 6.37853,-0.29289c2.19402,1.1013 2.10656,4.26928 2.16385,6.12966z" fill="#ffd726"/></g><path d="M234.0842,174.96754c0,2.98156 -2.9111,3.77178 -4.98283,5.9052c-2.66522,2.74459 -6.42186,6.71633 -10.93731,6.71633c-8.02539,0 -14.53125,-5.52649 -14.53125,-12.34375c0,-6.81726 6.50586,-12.34375 14.53125,-12.34375c2.39409,0 5.76407,2.15848 7.75535,3.02965c4.68378,2.04915 8.16479,4.25275 8.16479,9.03632z" fill="url(#color-3)" stroke="#000000" stroke-width="0"/><path d="M214.81083,166.08453c0.0714,1.80654 -1.79402,3.41619 -4.16656,3.59524c-2.37255,0.17904 -4.35376,-1.1403 -4.42514,-2.94684c-0.07142,-1.80654 1.79403,-3.41615 4.16657,-3.5952c2.37252,-0.17904 4.35373,1.1403 4.42515,2.94684z" data-paper-data="{&quot;index&quot;:null}" fill="#000000" stroke="#ffffff" stroke-width="0.25"/><path d="M214.12903,184.4602c-0.07142,1.80654 -2.05263,3.12588 -4.42515,2.94684c-2.37254,-0.17905 -4.23799,-1.78867 -4.16657,-3.5952c0.07138,-1.80654 2.0526,-3.12588 4.42514,-2.94684c2.37254,0.17905 4.23796,1.7887 4.16656,3.59524z" data-paper-data="{&quot;index&quot;:null}" fill="#000000" stroke="#ffffff" stroke-width="0.25"/><path d="M208.58862,173.70451v-0.60976h2.29227v0.60976z" fill="#000000" stroke="#ffffff" stroke-width="0"/><path d="M208.64326,174.94276l0.23088,-0.56436l2.1216,0.86794l-0.23088,0.56436z" fill="#000000" stroke="#ffffff" stroke-width="0"/><path d="M210.59537,170.90382l0.23088,0.56435l-2.1216,0.86794l-0.23087,-0.56436z" data-paper-data="{&quot;index&quot;:null}" fill="#000000" stroke="#ffffff" stroke-width="0"/></g><path d="M67.5,280v-200h345v200z" fill="none" stroke="#ffffff" stroke-width="0"/></g></g></svg>