<svg version="1.1" xmlns="http://www.w3.org/2000/svg" xmlns:xlink="http://www.w3.org/1999/xlink" width="257" height="257" viewBox="0,0,257,257"><defs><linearGradient x1="236.73318" y1="218.28136" x2="236.73318" y2="242.92862" gradientUnits="userSpaceOnUse" id="color-1"><stop offset="0" stop-color="#000000" stop-opacity="0"/><stop offset="1" stop-color="#000000"/></linearGradient><linearGradient x1="240.71989" y1="190.25694" x2="240.71989" y2="192.34419" gradientUnits="userSpaceOnUse" id="color-2"><stop offset="0" stop-color="#edafbc"/><stop offset="1" stop-color="#d29ca8"/></linearGradient><linearGradient x1="257.5056" y1="185.43551" x2="257.5056" y2="187.52277" gradientUnits="userSpaceOnUse" id="color-3"><stop offset="0" stop-color="#edafbc"/><stop offset="1" stop-color="#d29ca8"/></linearGradient><linearGradient x1="201.51208" y1="177.17374" x2="231.96347" y2="177.17374" gradientUnits="userSpaceOnUse" id="color-4"><stop offset="0" stop-color="#edafbc"/><stop offset="1" stop-color="#ca96a1"/></linearGradient></defs><g transform="translate(-111.5,-51.5)"><g data-paper-data="{&quot;isPaintingLayer&quot;:true}" fill-rule="nonzero" stroke-linecap="butt" stroke-linejoin="miter" stroke-miterlimit="10" stroke-dasharray="" stroke-dashoffset="0" style="mix-blend-mode: normal"><path d="M233.304,242.92862v-76.51368h6.85837v76.51368z" fill="#7b7b7b" stroke="#ed1597" stroke-width="0"/><path d="M232.85142,242.92862v-24.64726h7.76354v24.64726z" fill="url(#color-1)" stroke="#ed1597" stroke-width="0"/><path d="M232.21127,214.91388v-83.97595c0,0 23.59592,0 28.5262,0c2.01312,0 3.49413,1.10097 3.49413,3.11409c0,7.45903 0,59.86019 0,76.08503c0,2.73981 -1.39729,4.77683 -4.1371,4.77683c-5.16914,0 -27.88323,0 -27.88323,0z" fill="#8a5700" stroke="#ed1597" stroke-width="0"/><path d="M215.7684,195.34869c0,-14.92655 0,-63.27325 0,-73.51314c0,-2.51108 0.36982,-6.8326 3.7485,-3.62297c3.7053,3.5199 13.12709,12.72534 13.12709,12.72534v83.97595c0,0 -10.53168,-9.95253 -13.99925,-12.82689c-4.26707,-3.53708 -2.87633,-6.7383 -2.87633,-6.7383z" fill="#8a5700" stroke="none" stroke-width="0"/><path d="M231.64136,209.59474v-75.22773h34.36328v75.22773z" fill="#5d3d3d" stroke="#ed1597" stroke-width="0"/><path d="M213.99535,193.34184v-75.22773l18.11038,16.2529v75.22773z" fill="#3f2a2a" stroke="none" stroke-width="0"/><path d="M111.5,308.5v-257h257v257z" fill="none" stroke="#ed1597" stroke-width="0"/><g><path d="M281.23142,172.84736c-0.10896,1.04738 2.33433,7.32778 1.34045,8.87098c-2.15355,3.34385 -8.73023,2.15116 -9.81585,2.06547c-1.58663,-0.12524 -2.59311,-2.9156 -2.24805,-6.23245c0.34506,-3.31685 1.91101,-5.90417 3.49764,-5.77893c1.58663,0.12524 7.57087,-2.24192 7.22581,1.07493z" fill="#906bc7" stroke="#ffffff" stroke-width="0"/><g stroke-width="0"><g fill="#ffd726"><path d="M240.05197,200.5114v-9.39281h2.0479v9.39281z" stroke="#ff0000"/><path d="M250.29148,202.13708c0,0.45889 -2.09917,-0.6864 -4.68861,-0.6864c-2.58945,0 -4.68861,-0.15525 -4.68861,-0.61415c0,-0.45889 2.09917,-0.8309 4.68861,-0.8309c2.58945,0 4.68861,1.67255 4.68861,2.13144z" stroke="#ff0000"/><path d="M242.63879,200.72816c0,0.47885 -2.06218,0.50577 -4.47304,0.50577c-2.41087,0 -4.1497,1.12912 -4.1497,0.65027c0,-0.47885 1.84661,-2.02306 4.25748,-2.02306c2.41087,0 4.36526,0.38818 4.36526,0.86703z" stroke="none"/><path d="M240.04839,201.87332c-1.96066,0.83336 -3.0859,2.29669 -3.46842,1.89228c-0.38252,-0.4044 0.6327,-2.13032 2.59336,-2.96369c1.96066,-0.83336 4.12431,-0.4586 4.50682,-0.05419c0.38252,0.4044 -1.6711,0.29223 -3.63176,1.1256z" stroke="none"/></g><path d="M238.58274,191.97262l-4.61235,-1.82084c0,0 5.7355,0.10516 6.37492,0.10516c0.76331,0 8.9361,-0.58367 8.9361,-0.58367l-6.42435,2.29934l-0.80799,-0.23072l-0.76065,0.59892l-0.90878,-0.59362l-0.72724,0.59701z" fill="url(#color-2)" stroke="#ff0000"/></g><g stroke-width="0"><g fill="#ffd726"><path d="M256.83768,195.68997v-9.39281h2.0479v9.39281z" stroke="#ff0000"/><path d="M267.07719,197.31566c0,0.45889 -2.09917,-0.6864 -4.68861,-0.6864c-2.58945,0 -4.68861,-0.15525 -4.68861,-0.61415c0,-0.45889 2.09917,-0.8309 4.68861,-0.8309c2.58945,0 4.68861,1.67255 4.68861,2.13144z" stroke="#ff0000"/><path d="M259.4245,195.90673c0,0.47885 -2.06218,0.50577 -4.47304,0.50577c-2.41087,0 -4.1497,1.12912 -4.1497,0.65027c0,-0.47885 1.84661,-2.02306 4.25748,-2.02306c2.41087,0 4.36526,0.38818 4.36526,0.86703z" stroke="none"/><path d="M256.8341,197.0519c-1.96066,0.83336 -3.0859,2.29669 -3.46842,1.89228c-0.38252,-0.4044 0.6327,-2.13032 2.59336,-2.96369c1.96066,-0.83336 4.12431,-0.4586 4.50682,-0.05419c0.38252,0.4044 -1.6711,0.29223 -3.63176,1.1256z" stroke="none"/></g><path d="M255.36845,187.15119l-4.61235,-1.82084c0,0 5.7355,0.10516 6.37492,0.10516c0.76331,0 8.9361,-0.58367 8.9361,-0.58367l-6.42435,2.29934l-0.80799,-0.23072l-0.76065,0.59892l-0.90878,-0.59362l-0.72724,0.59701z" fill="url(#color-3)" stroke="#ff0000"/></g><g stroke="#000000" stroke-width="0"><path d="M206.8279,180.55201c0.0712,2.31232 -2.91715,4.28062 -6.67466,4.39633c-3.75752,0.11571 -7.76343,-3.7422 -7.76343,-3.7422c0,0 3.74806,-4.51575 7.50558,-4.63145c3.75752,-0.11571 6.86131,1.665 6.93251,3.97732z" fill="#ffd726"/><path d="M206.82145,180.34267c0.06052,1.96547 -2.47957,3.63853 -5.67346,3.73688c-3.19389,0.09835 -6.59892,-3.18086 -6.59892,-3.18086c0,0 3.18585,-3.83839 6.37974,-3.93674c3.19389,-0.09835 5.83211,1.41525 5.89264,3.38072z" fill="#debb21"/><path d="M208.03744,177.1472c0.04593,1.49149 0.72478,4.39712 -2.77853,5.86682c-1.51968,0.92665 -3.18515,-0.76397 -5.42486,-0.69501c-4.39705,0.1354 -9.10791,-5.03228 -9.10791,-5.03228c0,0 4.37187,-5.8409 8.76892,-5.9763c1.70614,-0.05254 4.98743,-0.99115 6.37853,-0.29289c2.19402,1.1013 2.10656,4.26928 2.16385,6.12966z" fill="#ffd726"/></g><path d="M275.88708,177.17374c0,9.57869 -13.43146,17.34375 -30,17.34375c-16.56854,0 -30,-7.76506 -30,-17.34375c0,-9.57869 13.43146,-17.34375 30,-17.34375c16.56854,0 30,7.76506 30,17.34375z" fill="#ca96a1" stroke="none" stroke-width="0"/><path d="M231.96347,176.89596c0,2.98156 -2.9111,3.77178 -4.98283,5.9052c-2.66522,2.74459 -6.42186,6.71633 -10.93731,6.71633c-8.02539,0 -14.53125,-5.52649 -14.53125,-12.34375c0,-6.81726 6.50586,-12.34375 14.53125,-12.34375c2.39409,0 5.76407,2.15848 7.75535,3.02965c4.68378,2.04915 8.16479,4.25275 8.16479,9.03632z" fill="url(#color-4)" stroke="#000000" stroke-width="0"/><path d="M270.81567,191.86631c0,0 -20.32364,5.7708 -32.21031,5.51326c-6.57674,-0.14249 -2.76762,-2.92069 -6.76146,-4.39209c-3.22456,-1.18798 -7.14137,-1.52651 -7.11221,-2.8725c0.06528,-3.0131 10.01567,-4.4884 21.90234,-4.23086c11.88667,0.25754 24.18164,5.98219 24.18164,5.98219z" fill="#906bc7" stroke="#000000" stroke-width="0"/><path d="M245.8007,167.08137c-11.88667,0.25754 -21.83705,-1.21776 -21.90234,-4.23086c-0.02917,-1.34599 3.88765,-1.68452 7.1122,-2.8725c3.99384,-1.4714 0.18472,-4.24959 6.76146,-4.39209c11.88667,-0.25754 32.21032,5.51325 32.21032,5.51325c0,0 -12.29497,5.72466 -24.18165,5.9822z" data-paper-data="{&quot;index&quot;:null}" fill="#906bc7" stroke="#000000" stroke-width="0"/><path d="M212.6901,168.01295c0.0714,1.80654 -1.79402,3.41619 -4.16656,3.59524c-2.37255,0.17904 -4.35376,-1.1403 -4.42514,-2.94684c-0.07142,-1.80654 1.79403,-3.41615 4.16657,-3.5952c2.37252,-0.17904 4.35373,1.1403 4.42515,2.94684z" data-paper-data="{&quot;index&quot;:null}" fill="#000000" stroke="#ffffff" stroke-width="0.25"/><path d="M212.0083,186.38862c-0.07142,1.80654 -2.05263,3.12588 -4.42515,2.94684c-2.37254,-0.17905 -4.23799,-1.78867 -4.16657,-3.5952c0.07138,-1.80654 2.0526,-3.12588 4.42514,-2.94684c2.37254,0.17905 4.23796,1.7887 4.16656,3.59524z" data-paper-data="{&quot;index&quot;:null}" fill="#000000" stroke="#ffffff" stroke-width="0.25"/><path d="M206.46789,175.63293v-0.60976h2.29227v0.60976z" fill="#000000" stroke="#ffffff" stroke-width="0"/><path d="M206.52253,176.87118l0.23088,-0.56436l2.1216,0.86794l-0.23088,0.56436z" fill="#000000" stroke="#ffffff" stroke-width="0"/><path d="M208.47464,172.83224l0.23088,0.56435l-2.1216,0.86794l-0.23087,-0.56436z" data-paper-data="{&quot;index&quot;:null}" fill="#000000" stroke="#ffffff" stroke-width="0"/></g></g></g></svg>