<svg version="1.1" xmlns="http://www.w3.org/2000/svg" xmlns:xlink="http://www.w3.org/1999/xlink" width="70.16667" height="70.16667" viewBox="0,0,70.16667,70.16667"><defs><linearGradient x1="238.31195" y1="183.8228" x2="239.7164" y2="182.20382" gradientUnits="userSpaceOnUse" id="color-1"><stop offset="0" stop-color="#fc9950"/><stop offset="1" stop-color="#fc9950" stop-opacity="0"/></linearGradient><linearGradient x1="240.36956" y1="176.16657" x2="242.00004" y2="180.88432" gradientUnits="userSpaceOnUse" id="color-2"><stop offset="0" stop-color="#52e6ff"/><stop offset="1" stop-color="#52e6ff" stop-opacity="0"/></linearGradient><linearGradient x1="240.78409" y1="177.366" x2="242.30403" y2="181.7639" gradientUnits="userSpaceOnUse" id="color-3"><stop offset="0" stop-color="#a0ff52" stop-opacity="0"/><stop offset="1" stop-color="#a0ff52"/></linearGradient><linearGradient x1="236.45767" y1="180.7018" x2="241.35836" y2="181.64983" gradientUnits="userSpaceOnUse" id="color-4"><stop offset="0" stop-color="#ff5252"/><stop offset="1" stop-color="#ff5252" stop-opacity="0"/></linearGradient><linearGradient x1="237.70361" y1="180.94282" x2="242.27205" y2="181.82658" gradientUnits="userSpaceOnUse" id="color-5"><stop offset="0" stop-color="#ffb652" stop-opacity="0"/><stop offset="1" stop-color="#ffb652"/></linearGradient><linearGradient x1="235.84471" y1="182.57848" x2="237.02741" y2="181.21513" gradientUnits="userSpaceOnUse" id="color-6"><stop offset="0" stop-color="#ff5353"/><stop offset="1" stop-color="#ff5353" stop-opacity="0"/></linearGradient><linearGradient x1="237.14724" y1="183.18575" x2="238.5517" y2="181.56678" gradientUnits="userSpaceOnUse" id="color-7"><stop offset="0" stop-color="#ff6f51"/><stop offset="1" stop-color="#ff6f51" stop-opacity="0"/></linearGradient><linearGradient x1="239.44661" y1="184.88178" x2="241.3685" y2="182.66634" gradientUnits="userSpaceOnUse" id="color-8"><stop offset="0" stop-color="#ffb652"/><stop offset="1" stop-color="#ffb652" stop-opacity="0"/></linearGradient></defs><g transform="translate(-204.91669,-144.91672)"><g data-paper-data="{&quot;isPaintingLayer&quot;:true}" fill-rule="nonzero" stroke-linejoin="miter" stroke-miterlimit="10" stroke-dasharray="" stroke-dashoffset="0" style="mix-blend-mode: normal"><path d="M246.67038,177.36452c3.37371,3.7688 2.29004,7.40562 -0.68149,10.06566c-2.97154,2.66004 -6.61573,3.96463 -9.98946,0.19585c-3.37371,-3.7688 -5.19938,-11.18379 -2.22784,-13.84382c2.97154,-2.66004 9.52507,-0.18647 12.89878,3.58233z" fill="#000000" stroke="#ffffff" stroke-width="2" stroke-linecap="butt"/><path d="M204.9167,215.08339v-70.16667h70.16667v70.16667z" fill="none" stroke="none" stroke-width="0" stroke-linecap="butt"/><path d="M246.67038,177.36452c3.37371,3.7688 2.29004,7.40562 -0.68149,10.06566c-2.97154,2.66004 -6.61573,3.96463 -9.98946,0.19585c-3.37371,-3.7688 -5.19938,-11.18379 -2.22784,-13.84382c2.97154,-2.66004 9.52507,-0.18647 12.89878,3.58233z" fill="#000000" stroke="#ff0000" stroke-width="0" stroke-linecap="butt"/><path d="M237.70888,187.08765c-0.50856,-0.56811 -0.46028,-1.44093 0.10784,-1.94947c0.56811,-0.50856 1.44091,-0.46028 1.94947,0.10784c0.50856,0.56811 0.46028,1.44091 -0.10784,1.94947c-0.56811,0.50856 -1.44093,0.46028 -1.94948,-0.10783z" fill="#1c1c1c" stroke="none" stroke-width="0" stroke-linecap="butt"/><path d="M241.38745,189.85434l-1.32596,0.08521c0,0 0.13007,-4.02054 1.53347,-6.67083c0.64426,-1.21668 2.84158,-1.23929 3.1321,-2.06231c0.56618,-1.60396 0.34807,-5.47041 0.34807,-5.47041c0,0 1.18026,1.14344 1.66639,1.70681c0.38303,0.44387 1.01557,1.40113 1.01557,1.40113c0,0 -0.81395,2.91868 -1.64746,4.35945c-0.46158,0.79789 -2.34308,0.93656 -3.18024,2.09938c-1.28855,1.78983 -1.54197,4.55155 -1.54197,4.55155z" fill="#1c1c1c" stroke="none" stroke-width="0" stroke-linecap="butt"/><path d="M233.30673,175.90425c-0.17869,-0.1996 -0.16172,-0.50627 0.03789,-0.68495c0.1996,-0.17869 0.50627,-0.16172 0.68495,0.03789c0.17869,0.1996 0.16172,0.50627 -0.03789,0.68495c-0.1996,0.17869 -0.50627,0.16172 -0.68495,-0.03789z" fill="#1c1c1c" stroke="none" stroke-width="0" stroke-linecap="butt"/><path d="M234.54323,175.04775c-0.30239,-0.3378 -0.27369,-0.85676 0.06411,-1.15916c0.3378,-0.30239 0.85676,-0.27369 1.15916,0.06411c0.30239,0.3378 0.27369,0.85676 -0.06411,1.15916c-0.3378,0.30239 -0.85676,0.27369 -1.15916,-0.06411z" fill="#1c1c1c" stroke="none" stroke-width="0" stroke-linecap="butt"/><path d="M245.8209,185.18455c-0.2474,-0.27638 -0.22391,-0.70098 0.05246,-0.94839c0.27638,-0.2474 0.70098,-0.22391 0.94839,0.05246c0.2474,0.27638 0.22391,0.70098 -0.05246,0.94839c-0.27638,0.2474 -0.70098,0.22391 -0.94839,-0.05246z" fill="#1c1c1c" stroke="none" stroke-width="0" stroke-linecap="butt"/><g fill="none" stroke-linecap="round"><path d="M237.57276,184.67489l2.14364,-2.47107" stroke="url(#color-1)" stroke-width="1"/><g data-paper-data="{&quot;index&quot;:null}" stroke-width="2.5"><path d="M242.00005,180.88431l-1.63048,-4.71774" stroke="url(#color-2)"/><path d="M240.78409,177.366l1.51994,4.3979" stroke="url(#color-3)"/></g><g stroke-width="2.5"><path d="M236.45766,180.7018l4.9007,0.94803" stroke="url(#color-4)"/><path d="M242.27205,181.82658l-4.56845,-0.88376" stroke="url(#color-5)"/></g><path d="M234.95768,183.60099l2.06973,-2.38586" stroke="url(#color-6)" stroke-width="1"/><path d="M238.5517,181.56678l-1.40446,1.61898" stroke="url(#color-7)" stroke-width="1"/><path d="M239.44661,184.88179l1.92189,-2.21544" stroke="url(#color-8)" stroke-width="1"/></g><path d="M237.45917,178.46531c-0.64983,0.23305 -1.36555,-0.10482 -1.5986,-0.75465c-0.23305,-0.64983 0.10482,-1.36555 0.75465,-1.5986c0.64983,-0.23305 1.36555,0.10482 1.5986,0.75465c0.23305,0.64983 -0.10482,1.36555 -0.75465,1.5986z" fill="#1c1c1c" stroke="none" stroke-width="0.5" stroke-linecap="butt"/></g></g></svg>