<svg version="1.1" xmlns="http://www.w3.org/2000/svg" xmlns:xlink="http://www.w3.org/1999/xlink" width="213" height="213" viewBox="0,0,213,213"><g transform="translate(-133.5,-73.5)"><g data-paper-data="{&quot;isPaintingLayer&quot;:true}" fill-rule="nonzero" stroke-linejoin="miter" stroke-miterlimit="10" stroke-dasharray="" stroke-dashoffset="0" style="mix-blend-mode: normal"><path d="M204.91669,215.08336v-70.16667h70.16667v70.16667z" fill="none" stroke="none" stroke-width="0" stroke-linecap="butt"/><path d="M235.84752,185.80388c-4.80155,-1.59085 -5.67085,-5.28478 -4.41654,-9.07062c1.25431,-3.78584 3.76647,-6.73053 8.56803,-5.13969c4.80155,1.59085 10.07424,7.11479 8.81993,10.90062c-1.25431,3.78584 -8.16987,4.90052 -12.97142,3.30967z" fill="#f08129" stroke="#ff0000" stroke-width="0" stroke-linecap="butt"/><path d="M238.78397,172.91105c0.72379,0.2398 1.11614,1.02096 0.87633,1.74474c-0.2398,0.72379 -1.02094,1.11614 -1.74474,0.87633c-0.72379,-0.2398 -1.11614,-1.02094 -0.87633,-1.74474c0.2398,-0.72379 1.02096,-1.11614 1.74475,-0.87634z" fill="#d37324" stroke="none" stroke-width="0" stroke-linecap="butt"/><path d="M234.21651,172.34116l1.10783,-0.73359c0,0 1.8874,3.55237 1.98854,6.5496c0.04643,1.37595 -1.84841,2.48874 -1.69097,3.3472c0.30684,1.67305 2.41961,4.91854 2.41961,4.91854c0,0 -1.59269,-0.40471 -2.29467,-0.65155c-0.55309,-0.19448 -1.57804,-0.71018 -1.57804,-0.71018c0,0 -0.74598,-2.93679 -0.73974,-4.60128c0.00345,-0.92177 1.56659,-1.97812 1.71428,-3.40332c0.22732,-2.19367 -0.92682,-4.71543 -0.92682,-4.71543z" fill="#d37324" stroke="none" stroke-width="0" stroke-linecap="butt"/><path d="M248.16646,180.42213c0.25431,0.08425 0.39216,0.35871 0.3079,0.61302c-0.08425,0.25431 -0.35871,0.39216 -0.61302,0.3079c-0.25431,-0.08425 -0.39216,-0.35871 -0.3079,-0.61302c0.08425,-0.25431 0.35871,-0.39216 0.61302,-0.3079z" fill="#d37324" stroke="none" stroke-width="0" stroke-linecap="butt"/><path d="M247.51994,181.78027c0.43036,0.14259 0.66366,0.60705 0.52107,1.03742c-0.14259,0.43036 -0.60705,0.66366 -1.03742,0.52107c-0.43036,-0.14259 -0.66366,-0.60705 -0.52107,-1.03742c0.14259,-0.43036 0.60705,-0.66366 1.03742,-0.52107z" fill="#d37324" stroke="none" stroke-width="0" stroke-linecap="butt"/><path d="M232.69391,178.59769c0.35211,0.11666 0.54298,0.49668 0.42632,0.84879c-0.11666,0.35211 -0.49668,0.54298 -0.84879,0.42632c-0.35211,-0.11666 -0.54298,-0.49668 -0.42632,-0.84879c0.11666,-0.35211 0.49668,-0.54298 0.84879,-0.42632z" fill="#d37324" stroke="none" stroke-width="0" stroke-linecap="butt"/><g stroke-width="0.15"><path d="M245.38355,177.01079c0,0 0.32704,0.14689 0.92352,0.99254c0.59618,0.84521 0.70451,1.6609 0.81934,2.20982c0.11483,0.54892 1.09658,1.08474 1.09658,1.08474c0,0 -0.67122,0.36176 -1.29186,0.74636c-0.63297,0.39253 -1.32004,1.45207 -2.78482,2.45274c-0.17529,0.11933 -0.35343,0.21537 -0.53193,0.2908l-0.02252,0.01777c-0.28896,0.23062 -1.41925,1.02878 -2.77963,0.6481c-1.03635,-0.29029 -1.28081,-0.83111 -1.32734,-1.08001l-0.00738,-0.00332c0.21498,0.16352 0.45338,0.28128 0.70258,0.3622c0.82421,0.26724 1.45725,-0.08645 2.24588,-0.24243c1.0227,-0.20219 1.75008,-1.13803 1.97116,-2.48304c0.42115,-2.55973 -0.90886,-3.38656 -0.90886,-3.38656l-0.01825,-0.00533c-0.96618,0.31067 -2.95018,0.13926 -3.35433,-0.93742c-0.43446,-1.15958 0.0702,-2.66428 2.60573,-2.81786c2.32053,-0.14063 2.71458,1.63803 2.61912,2.12214l0.043,0.02876v0v0zM243.61439,184.78768c0,0 -1.18689,0.47261 -2.46045,0.0119M245.34066,176.98196c-0.09941,0.46684 -0.49341,0.71921 -0.49341,0.71921M243.47023,178.6151c0.13778,-0.0562 0.24941,-0.09252 0.24941,-0.09252" fill="#f05a28" stroke="#000000" stroke-linecap="round"/><path d="M239.81117,184.58356c0,0 0.34406,0.28198 1.01988,0.5543c0.67629,0.27222 1.66674,0.25901 1.66674,0.25901c-0.47137,0.15676 -1.05336,0.23388 -1.68565,0.05732c-1.00986,-0.28233 -1.27195,-0.82373 -1.32731,-1.0802l0.32634,0.20956v0v0z" fill="#404041" stroke="#000000" stroke-linecap="butt"/><g stroke="#231f20"><path d="M242.49529,174.87485v0v0c0.43591,-0.03081 1.10193,-0.00458 1.59035,0.17511c0.50407,0.18501 0.78476,0.55348 0.80423,0.90552c0.0371,0.65925 -1.01323,1.25365 -2.34556,1.32834c-1.25582,0.06997 -2.31392,-0.34597 -2.46286,-0.94607c0,0 0.01044,-0.18558 0.27898,-0.51429c0.26822,-0.3285 0.67122,-0.58087 0.91788,-0.66861c0.24646,-0.08814 0.78022,-0.24916 1.21698,-0.28z" fill="#404041" stroke-linecap="butt"/><path d="M243.48304,175.46269c0.05908,0.2619 -0.43513,0.59647 -1.10425,0.74732c-0.66863,0.15067 -1.25922,0.06071 -1.31826,-0.2009c-0.05887,-0.26205 0.43549,-0.59639 1.1044,-0.74711c0.66889,-0.15109 1.259,-0.06103 1.31812,0.20069v0v0zM241.1423,176.13369c0.8181,-0.88218 2.34173,-0.58894 2.34173,-0.58894" fill="#929497" stroke-linecap="round"/></g><path d="M240.07375,177.58395v0v0l0.00792,-0.00412c0.01065,0.03283 0.0221,0.06542 0.03415,0.09775c0.40464,1.07806 2.39349,1.24833 3.35781,0.9362l0.01474,0.00672c0,0 1.33019,0.82687 0.90885,3.38712c-0.22108,1.34501 -0.94843,2.28067 -1.97115,2.48295c-0.78871,0.15588 -1.42178,0.50974 -2.24586,0.24234c-0.8576,-0.27861 -1.59349,-0.99542 -1.66828,-2.50561c-0.07597,-1.51041 0.09727,-1.41817 -0.02141,-1.94169c-0.11987,-0.52364 0.06818,-0.35414 0.33843,-0.94689c0.40728,-0.89514 1.14333,-1.65265 1.24481,-1.75477z" fill="#e6e7e8" stroke="#000000" stroke-linecap="round"/><path d="M239.54862,181.50066c0.13422,-1.15665 1.64344,-1.00955 1.64344,-1.00955c0,0 -0.09997,0.65676 -0.20347,1.50901c-0.10383,0.85201 -0.1931,1.04439 -0.1931,1.04439c0,0 -1.38096,-0.38746 -1.24687,-1.54385z" fill="#ffffff" stroke="#000000" stroke-linecap="round"/><path d="M241.56145,183.66402c0.00262,-0.0142 0.00724,-0.02812 0.01397,-0.04193c0.03857,-0.07641 0.1321,-0.10734 0.20852,-0.0684c0.03573,0.01785 0.07428,0.0274 0.11443,0.0284c0.15081,0.004 0.27696,-0.11939 0.28102,-0.27158c0.00411,-0.15386 -0.11545,-0.28217 -0.26652,-0.28632c-0.08571,-0.00228 -0.15334,-0.07369 -0.15096,-0.15948c0.0024,-0.08635 0.07352,-0.15338 0.15948,-0.15097c0.32198,0.00842 0.57725,0.27975 0.56884,0.60508c-0.00946,0.32457 -0.27785,0.58214 -0.59976,0.57429c-0.08646,-0.00232 -0.1693,-0.02313 -0.24627,-0.06217c-0.06295,-0.03189 -0.09501,-0.10073 -0.08277,-0.16694v0v0v0z" fill="#000000" stroke="none" stroke-linecap="butt"/><path d="M242.09985,180.75206c0.00261,-0.01411 0.00724,-0.02812 0.01397,-0.04193c0.03858,-0.07649 0.1321,-0.10733 0.20854,-0.06848c0.03573,0.01785 0.07429,0.02739 0.11439,0.02858c0.15083,0.00391 0.27689,-0.11903 0.28104,-0.27167c0.00411,-0.15386 -0.11545,-0.28218 -0.26652,-0.28632c-0.08569,-0.00238 -0.15334,-0.07369 -0.15095,-0.15949c0.00239,-0.08634 0.07352,-0.15338 0.1595,-0.15105c0.32197,0.00851 0.57724,0.27983 0.56885,0.60507c-0.00936,0.32405 -0.2779,0.58242 -0.59976,0.5743c-0.08645,-0.00233 -0.16932,-0.02304 -0.24628,-0.06208c-0.06295,-0.03189 -0.09501,-0.10073 -0.08277,-0.16695v0v0v0z" fill="#000000" stroke="none" stroke-linecap="butt"/></g><path d="M235.84752,185.80388c-4.80155,-1.59085 -5.67085,-5.28478 -4.41654,-9.07062c1.25431,-3.78584 3.76647,-6.73053 8.56803,-5.13969c4.80155,1.59085 10.07424,7.11479 8.81993,10.90062c-1.25431,3.78584 -8.16987,4.90052 -12.97142,3.30967z" fill-opacity="0.40323" fill="#f08129" stroke="#ff0000" stroke-width="0" stroke-linecap="butt"/><path d="M133.5,286.5v-213h213v213z" fill="none" stroke="none" stroke-width="0" stroke-linecap="butt"/></g></g></svg>