<svg version="1.1" xmlns="http://www.w3.org/2000/svg" xmlns:xlink="http://www.w3.org/1999/xlink" width="53.05759" height="53.05759" viewBox="0,0,53.05759,53.05759"><defs><linearGradient x1="229.30573" y1="182.90445" x2="236.30219" y2="182.90445" gradientUnits="userSpaceOnUse" id="color-1"><stop offset="0" stop-color="#fc9950" stop-opacity="0.29839"/><stop offset="1" stop-color="#fc9950" stop-opacity="0"/></linearGradient><linearGradient x1="252.58635" y1="171.60065" x2="244.44087" y2="185.71299" gradientUnits="userSpaceOnUse" id="color-2"><stop offset="0" stop-color="#52e6ff" stop-opacity="0.29032"/><stop offset="1" stop-color="#52e6ff" stop-opacity="0"/></linearGradient><linearGradient x1="250.51547" y1="175.18853" x2="242.92223" y2="188.3441" gradientUnits="userSpaceOnUse" id="color-3"><stop offset="0" stop-color="#a0ff52" stop-opacity="0"/><stop offset="1" stop-color="#a0ff52" stop-opacity="0.31452"/></linearGradient><linearGradient x1="233.03513" y1="171.65589" x2="241.1806" y2="185.76823" gradientUnits="userSpaceOnUse" id="color-4"><stop offset="0" stop-color="#ff5252" stop-opacity="0.29839"/><stop offset="1" stop-color="#ff5252" stop-opacity="0"/></linearGradient><linearGradient x1="235.10601" y1="175.24377" x2="242.69925" y2="188.39934" gradientUnits="userSpaceOnUse" id="color-5"><stop offset="0" stop-color="#ffb652" stop-opacity="0"/><stop offset="1" stop-color="#ffb652" stop-opacity="0.29839"/></linearGradient><linearGradient x1="227.09632" y1="174.15887" x2="232.98808" y2="174.15887" gradientUnits="userSpaceOnUse" id="color-6"><stop offset="0" stop-color="#ff5353" stop-opacity="0.29839"/><stop offset="1" stop-color="#ff5353" stop-opacity="0"/></linearGradient><linearGradient x1="228.38515" y1="178.66975" x2="235.3816" y2="178.66975" gradientUnits="userSpaceOnUse" id="color-7"><stop offset="0" stop-color="#ff6f51" stop-opacity="0.29839"/><stop offset="1" stop-color="#ff6f51" stop-opacity="0"/></linearGradient><linearGradient x1="229.12162" y1="187.96767" x2="238.69571" y2="187.96767" gradientUnits="userSpaceOnUse" id="color-8"><stop offset="0" stop-color="#ffb652" stop-opacity="0.29839"/><stop offset="1" stop-color="#ffb652" stop-opacity="0"/></linearGradient><linearGradient x1="229.30573" y1="182.90445" x2="236.30219" y2="182.90445" gradientUnits="userSpaceOnUse" id="color-9"><stop offset="0" stop-color="#fc9950" stop-opacity="0.29839"/><stop offset="1" stop-color="#fc9950" stop-opacity="0"/></linearGradient><linearGradient x1="252.58635" y1="171.60065" x2="244.44087" y2="185.71299" gradientUnits="userSpaceOnUse" id="color-10"><stop offset="0" stop-color="#52e6ff" stop-opacity="0.29032"/><stop offset="1" stop-color="#52e6ff" stop-opacity="0"/></linearGradient><linearGradient x1="250.51547" y1="175.18853" x2="242.92223" y2="188.3441" gradientUnits="userSpaceOnUse" id="color-11"><stop offset="0" stop-color="#a0ff52" stop-opacity="0"/><stop offset="1" stop-color="#a0ff52" stop-opacity="0.31452"/></linearGradient><linearGradient x1="233.03513" y1="171.65589" x2="241.1806" y2="185.76823" gradientUnits="userSpaceOnUse" id="color-12"><stop offset="0" stop-color="#ff5252" stop-opacity="0.29839"/><stop offset="1" stop-color="#ff5252" stop-opacity="0"/></linearGradient><linearGradient x1="235.10601" y1="175.24377" x2="242.69925" y2="188.39934" gradientUnits="userSpaceOnUse" id="color-13"><stop offset="0" stop-color="#ffb652" stop-opacity="0"/><stop offset="1" stop-color="#ffb652" stop-opacity="0.29839"/></linearGradient><linearGradient x1="227.09632" y1="174.15887" x2="232.98808" y2="174.15887" gradientUnits="userSpaceOnUse" id="color-14"><stop offset="0" stop-color="#ff5353" stop-opacity="0.29839"/><stop offset="1" stop-color="#ff5353" stop-opacity="0"/></linearGradient><linearGradient x1="228.38515" y1="178.66975" x2="235.3816" y2="178.66975" gradientUnits="userSpaceOnUse" id="color-15"><stop offset="0" stop-color="#ff6f51" stop-opacity="0.29839"/><stop offset="1" stop-color="#ff6f51" stop-opacity="0"/></linearGradient><linearGradient x1="229.12162" y1="187.96767" x2="238.69571" y2="187.96767" gradientUnits="userSpaceOnUse" id="color-16"><stop offset="0" stop-color="#ffb652" stop-opacity="0.29839"/><stop offset="1" stop-color="#ffb652" stop-opacity="0"/></linearGradient></defs><g transform="translate(-213.4712,-153.4712)"><g data-paper-data="{&quot;isPaintingLayer&quot;:true}" fill-rule="nonzero" stroke-linejoin="miter" stroke-miterlimit="10" stroke-dasharray="" stroke-dashoffset="0" style="mix-blend-mode: normal"><g><path d="M213.4712,198.98557c0,-10.85862 0,-30.29639 0,-36.72302c0,-4.05417 4.73328,-8.79134 8.7851,-8.79134c6.49968,0 26.31666,0 37.09967,0c4.30708,0 7.17282,4.38684 7.17282,8.22637c0,6.46929 0,26.9543 0,37.85296c0,4.20145 -2.96808,6.97826 -5.85456,6.97826c-5.86769,0 -27.52689,0 -39.35955,0c-4.69541,0 -7.84348,-3.03086 -7.84348,-7.54323z" fill-opacity="0.29839" fill="#000000" stroke="none" stroke-width="0" stroke-linecap="butt"/><g fill="none" stroke-linecap="round"><path d="M225.62339,182.90445h10.6788" stroke="url(#color-1)" stroke-width="2.5"/><g data-paper-data="{&quot;index&quot;:null}" stroke-width="7.5"><path d="M244.44088,185.713l8.14547,-14.11234" stroke="url(#color-2)"/><path d="M242.92222,188.3441l7.59324,-13.15557" stroke="url(#color-3)"/></g><g stroke-width="7.5"><path d="M241.1806,185.76822l-8.14547,-14.11234" stroke="url(#color-4)"/><path d="M242.69925,188.39934l-7.59324,-13.15557" stroke="url(#color-5)"/></g><path d="M222.67752,174.15887h10.31056" stroke="url(#color-6)" stroke-width="3"/><path d="M228.38515,178.66975h6.99645" stroke="url(#color-7)" stroke-width="2.5"/><path d="M229.12161,187.96767h9.5741" stroke="url(#color-8)" stroke-width="2.5"/></g></g><g><path d="M213.4712,198.98557c0,-10.85862 0,-30.29639 0,-36.72302c0,-4.05417 4.73328,-8.79134 8.7851,-8.79134c6.49968,0 26.31666,0 37.09967,0c4.30708,0 7.17282,4.38684 7.17282,8.22637c0,6.46929 0,26.9543 0,37.85296c0,4.20145 -2.96808,6.97826 -5.85456,6.97826c-5.86769,0 -27.52689,0 -39.35955,0c-4.69541,0 -7.84348,-3.03086 -7.84348,-7.54323z" fill-opacity="0.29839" fill="#000000" stroke="none" stroke-width="0" stroke-linecap="butt"/><g fill="none" stroke-linecap="round"><path d="M225.62339,182.90445h10.6788" stroke="url(#color-9)" stroke-width="2.5"/><g data-paper-data="{&quot;index&quot;:null}" stroke-width="7.5"><path d="M244.44088,185.713l8.14547,-14.11234" stroke="url(#color-10)"/><path d="M242.92222,188.3441l7.59324,-13.15557" stroke="url(#color-11)"/></g><g stroke-width="7.5"><path d="M241.1806,185.76822l-8.14547,-14.11234" stroke="url(#color-12)"/><path d="M242.69925,188.39934l-7.59324,-13.15557" stroke="url(#color-13)"/></g><path d="M222.67752,174.15887h10.31056" stroke="url(#color-14)" stroke-width="3"/><path d="M228.38515,178.66975h6.99645" stroke="url(#color-15)" stroke-width="2.5"/><path d="M229.12161,187.96767h9.5741" stroke="url(#color-16)" stroke-width="2.5"/></g></g></g></g></svg>