<svg version="1.1" xmlns="http://www.w3.org/2000/svg" xmlns:xlink="http://www.w3.org/1999/xlink" width="647.64113" height="479.2559" viewBox="0,0,647.64113,479.2559"><defs><linearGradient x1="323.09983" y1="-61.12943" x2="323.09983" y2="-7.12943" gradientUnits="userSpaceOnUse" id="color-1"><stop offset="0" stop-color="#000000" stop-opacity="0"/><stop offset="1" stop-color="#000000" stop-opacity="0.5"/></linearGradient><linearGradient x1="319.90318" y1="418.12647" x2="319.90318" y2="369.12647" gradientUnits="userSpaceOnUse" id="color-2"><stop offset="0" stop-color="#000000" stop-opacity="0"/><stop offset="1" stop-color="#000000" stop-opacity="0.5"/></linearGradient><linearGradient x1="470.19594" y1="198.30041" x2="470.19594" y2="208.69951" gradientUnits="userSpaceOnUse" id="color-3"><stop offset="0" stop-color="#f49962"/><stop offset="1" stop-color="#b36f44"/></linearGradient><linearGradient x1="247.44003" y1="264.51826" x2="248.00348" y2="267.12993" gradientUnits="userSpaceOnUse" id="color-4"><stop offset="0" stop-color="#edafbc"/><stop offset="1" stop-color="#d29ca8"/></linearGradient><linearGradient x1="363.33276" y1="218.19951" x2="368.06679" y2="227.45856" gradientUnits="userSpaceOnUse" id="color-5"><stop offset="0" stop-color="#f49962"/><stop offset="1" stop-color="#b36f44"/></linearGradient><linearGradient x1="431.49656" y1="210.99288" x2="431.49656" y2="245.28171" gradientUnits="userSpaceOnUse" id="color-6"><stop offset="0" stop-color="#f49962"/><stop offset="1" stop-color="#b36f44"/></linearGradient><linearGradient x1="432.75984" y1="137.68922" x2="432.75984" y2="241.05517" gradientUnits="userSpaceOnUse" id="color-7"><stop offset="0" stop-color="#ffa066"/><stop offset="1" stop-color="#e6915c"/></linearGradient><linearGradient x1="449.45052" y1="184.54162" x2="449.45052" y2="253.58322" gradientUnits="userSpaceOnUse" id="color-8"><stop offset="0" stop-color="#f49962"/><stop offset="1" stop-color="#b36f44"/></linearGradient><radialGradient cx="317.37027" cy="255.32805" r="63.2281" gradientUnits="userSpaceOnUse" id="color-9"><stop offset="0" stop-color="#000000"/><stop offset="1" stop-color="#000000" stop-opacity="0"/></radialGradient><radialGradient cx="316.77935" cy="255.32805" r="56.72801" gradientUnits="userSpaceOnUse" id="color-10"><stop offset="0" stop-color="#000000"/><stop offset="1" stop-color="#000000" stop-opacity="0"/></radialGradient></defs><g transform="translate(2.31907,61.12944)"><g stroke-miterlimit="10"><g stroke="#000000" stroke-width="0" stroke-linecap="butt" stroke-linejoin="miter"><path d="M2.52019,369.1516v-376.52795h640.60852v376.52795z" fill-opacity="0.5" fill="#000000"/><path d="M0.87757,-7.12943v-54h644.44449v54z" fill="url(#color-1)"/><path d="M642.12542,369.12647v49h-644.44449v-49z" fill="url(#color-2)"/></g><g stroke-linecap="butt" stroke-linejoin="miter"><path d="" fill="#fa85ff" stroke="none" stroke-width="0"/><path d="" fill="#98509a" stroke="#fcacff" stroke-width="2.5"/><g stroke="none" stroke-width="0"><path d="" fill="#ffffff"/><path d="" fill="#000000"/></g><g stroke="none" stroke-width="0"><path d="" fill="#ffffff"/><path d="" fill="#000000"/></g></g><g stroke-linecap="butt" stroke-linejoin="miter"><path d="" fill="#fa85ff" stroke="none" stroke-width="0"/><path d="" fill="#98509a" stroke="#fcacff" stroke-width="2.5"/><g stroke="none" stroke-width="0"><path d="" fill="#ffffff"/><path d="" fill="#000000"/></g><g stroke="none" stroke-width="0"><path d="" fill="#ffffff"/><path d="" fill="#000000"/></g></g><g stroke-linecap="butt" stroke-linejoin="miter"><path d="" fill="#fa85ff" stroke="none" stroke-width="0"/><path d="" fill="#98509a" stroke="#fcacff" stroke-width="2.5"/><g stroke="none" stroke-width="0"><path d="" fill="#ffffff"/><path d="" fill="#000000"/></g><g stroke="none" stroke-width="0"><path d="" fill="#ffffff"/><path d="" fill="#000000"/></g></g><g stroke-linecap="butt" stroke-linejoin="miter"><path d="" fill="#fa85ff" stroke="none" stroke-width="0"/><path d="" fill="#98509a" stroke="#fcacff" stroke-width="2.5"/><g stroke="none" stroke-width="0"><path d="" fill="#ffffff"/><path d="" fill="#000000"/></g><g stroke="none" stroke-width="0"><path d="" fill="#ffffff"/><path d="" fill="#000000"/></g></g><path d="" fill="#845c18" stroke="none" stroke-width="0.5" stroke-linecap="butt" stroke-linejoin="miter"/><path d="" fill="#845c18" stroke="none" stroke-width="0.5" stroke-linecap="butt" stroke-linejoin="miter"/><g><path d="M198.1216,274.75359c0.18436,-64.19092 0.08434,-128.38307 -0.26465,-192.57299c0.48007,0.06168 0.96892,0.09528 1.46487,0.09911c0.03199,0.00008 0.0638,0.00021 0.09542,0.00036c80.73006,0.41526 161.46308,0.48274 242.19368,0.14379c-0.29452,64.03919 -0.40999,128.07976 -0.32475,192.11988c-81.0547,-0.05889 -162.10983,0.09847 -243.16457,0.20983z" fill="#8e918e" stroke="none" stroke-width="0" stroke-linecap="butt" stroke-linejoin="miter"/><g stroke="none" stroke-linecap="butt" stroke-linejoin="miter"><path d="M227.79836,119.60422c0,-11.56232 9.37311,-20.93541 20.93543,-20.93541c11.56232,0 20.93541,9.37309 20.93541,20.93541c0,11.56232 -9.37309,20.93543 -20.93541,20.93543c-11.56232,0 -20.93543,-9.37311 -20.93543,-20.93543z" fill="#7b8c7d" stroke-width="0"/><path d="M304.2414,121.7184c0,-6.69141 5.42445,-12.11586 12.11586,-12.11586c6.6914,0 12.11587,5.42445 12.11587,12.11586c0,6.6914 -5.42446,12.11586 -12.11587,12.11586c-6.6914,0 -12.11586,-5.42445 -12.11586,-12.11586z" fill="#7b8c7d" stroke-width="0"/><path d="M264.03433,115.32205c0,-0.4692 0.38035,-0.84955 0.84955,-0.84955c0.4692,0 0.84956,0.38035 0.84956,0.84955c0,0.4692 -0.38036,0.84956 -0.84956,0.84956c-0.4692,0 -0.84955,-0.38036 -0.84955,-0.84956z" fill="#6e7d70" stroke-width="0.5"/><path d="M275.10722,102.79221c0,-0.4692 0.38035,-0.84956 0.84955,-0.84956c0.4692,0 0.84956,0.38036 0.84956,0.84956c0,0.4692 -0.38036,0.84955 -0.84956,0.84955c-0.4692,0 -0.84955,-0.38036 -0.84955,-0.84955z" fill="#6e7d70" stroke-width="0.5"/><path d="M301.62388,106.2889c0,-0.4692 0.38036,-0.84955 0.84956,-0.84955c0.4692,0 0.84956,0.38036 0.84956,0.84955c0,0.4692 -0.38036,0.84956 -0.84956,0.84956c-0.4692,0 -0.84956,-0.38036 -0.84956,-0.84956z" fill="#6e7d70" stroke-width="0.5"/><path d="M324.64384,114.44788c0,-0.4692 0.38035,-0.84956 0.84955,-0.84956c0.4692,0 0.84956,0.38036 0.84956,0.84956c0,0.4692 -0.38036,0.84955 -0.84956,0.84955c-0.4692,0 -0.84955,-0.38036 -0.84955,-0.84955z" fill="#6e7d70" stroke-width="0.5"/><path d="M237.80905,96.38158c0,-0.4692 0.38036,-0.84955 0.84956,-0.84955c0.4692,0 0.84955,0.38036 0.84955,0.84955c0,0.4692 -0.38035,0.84956 -0.84955,0.84956c-0.4692,0 -0.84956,-0.38036 -0.84956,-0.84956z" fill="#6e7d70" stroke-width="0.5"/><path d="M239.5574,106.87168c0,-0.4692 0.38036,-0.84956 0.84956,-0.84956c0.4692,0 0.84955,0.38036 0.84955,0.84956c0,0.4692 -0.38036,0.84956 -0.84955,0.84956c-0.4692,0 -0.84956,-0.38036 -0.84956,-0.84956z" fill="#6e7d70" stroke-width="0.5"/><path d="M288.4792,106.01506c0,-0.4692 0.38036,-0.84955 0.84956,-0.84955c0.4692,0 0.84955,0.38035 0.84955,0.84955c0,0.4692 -0.38036,0.84956 -0.84955,0.84956c-0.4692,0 -0.84956,-0.38036 -0.84956,-0.84956z" fill="#69786b" stroke-width="0.5"/><path d="M326.3829,106.01506c0,-0.4692 0.38036,-0.84955 0.84955,-0.84955c0.4692,0 0.84956,0.38035 0.84956,0.84955c0,0.4692 -0.38036,0.84956 -0.84956,0.84956c-0.4692,0 -0.84955,-0.38036 -0.84955,-0.84956z" fill="#69786b" stroke-width="0.5"/><path d="M337.31666,113.30423c0,-0.4692 0.38036,-0.84955 0.84955,-0.84955c0.4692,0 0.84956,0.38036 0.84956,0.84955c0,0.4692 -0.38036,0.84956 -0.84956,0.84956c-0.46919,0 -0.84955,-0.38036 -0.84955,-0.84956z" fill="#69786b" stroke-width="0.5"/><path d="M267.08982,157.91117c0,-0.4692 0.38035,-0.84956 0.84955,-0.84956c0.4692,0 0.84956,0.38036 0.84956,0.84956c0,0.4692 -0.38036,0.84955 -0.84956,0.84955c-0.4692,0 -0.84955,-0.38035 -0.84955,-0.84955z" fill="#69786b" stroke-width="0.5"/><path d="M250.57549,140.27418c0,-0.4692 0.38036,-0.84956 0.84956,-0.84956c0.4692,0 0.84955,0.38036 0.84955,0.84956c0,0.4692 -0.38035,0.84955 -0.84955,0.84955c-0.4692,0 -0.84956,-0.38035 -0.84956,-0.84955z" fill="#69786b" stroke-width="0.5"/><path d="M337.31666,132.98501c0,-0.4692 0.38036,-0.84956 0.84955,-0.84956c0.4692,0 0.84956,0.38036 0.84956,0.84956c0,0.4692 -0.38036,0.84955 -0.84956,0.84955c-0.46919,0 -0.84955,-0.38036 -0.84955,-0.84955z" fill="#69786b" stroke-width="0.5"/><path d="M238.63917,159.86548c0,-0.4692 0.38036,-0.84956 0.84955,-0.84956c0.4692,0 0.84956,0.38036 0.84956,0.84956c0,0.4692 -0.38036,0.84955 -0.84956,0.84955c-0.4692,0 -0.84955,-0.38036 -0.84955,-0.84955z" fill="#69786b" stroke-width="0.5"/><path d="M275.58192,168.97109c0,-0.4692 0.38035,-0.84956 0.84955,-0.84956c0.4692,0 0.84956,0.38036 0.84956,0.84956c0,0.4692 -0.38036,0.84956 -0.84956,0.84956c-0.4692,0 -0.84955,-0.38036 -0.84955,-0.84956z" fill="#69786b" stroke-width="0.5"/><path d="M288.85009,132.54867c0,-0.4692 0.38035,-0.84955 0.84955,-0.84955c0.4692,0 0.84956,0.38036 0.84956,0.84955c0,0.4692 -0.38036,0.84956 -0.84956,0.84956c-0.4692,0 -0.84955,-0.38036 -0.84955,-0.84956z" fill="#69786b" stroke-width="0.5"/><path d="M326.31316,158.04435c0,-0.4692 0.38036,-0.84955 0.84955,-0.84955c0.4692,0 0.84955,0.38036 0.84955,0.84955c0,0.4692 -0.38036,0.84955 -0.84955,0.84955c-0.4692,0 -0.84955,-0.38036 -0.84955,-0.84955z" fill="#69786b" stroke-width="0.5"/><path d="M223.8707,147.80229c0,-0.4692 0.38036,-0.84956 0.84955,-0.84956c0.4692,0 0.84956,0.38036 0.84956,0.84956c0,0.4692 -0.38036,0.84955 -0.84956,0.84955c-0.4692,0 -0.84955,-0.38035 -0.84955,-0.84955z" fill="#69786b" stroke-width="0.5"/><path d="M225.19528,166.01528c0,-0.4692 0.38035,-0.84955 0.84955,-0.84955c0.4692,0 0.84956,0.38036 0.84956,0.84955c0,0.4692 -0.38036,0.84956 -0.84956,0.84956c-0.4692,0 -0.84955,-0.38036 -0.84955,-0.84956z" fill="#69786b" stroke-width="0.5"/><path d="M316.26023,154.75634c0,-0.4692 0.38036,-0.84956 0.84955,-0.84956c0.4692,0 0.84956,0.38036 0.84956,0.84956c0,0.4692 -0.38036,0.84955 -0.84956,0.84955c-0.4692,0 -0.84955,-0.38035 -0.84955,-0.84955z" fill="#5c785f" stroke-width="0.5"/><path d="M282.15227,148.46458c0,-0.4692 0.38036,-0.84956 0.84955,-0.84956c0.4692,0 0.84956,0.38036 0.84956,0.84956c0,0.4692 -0.38036,0.84955 -0.84956,0.84955c-0.4692,0 -0.84955,-0.38036 -0.84955,-0.84955z" fill="#5c785f" stroke-width="0.5"/><path d="M231.81819,146.14657c0,-0.4692 0.38036,-0.84955 0.84955,-0.84955c0.4692,0 0.84956,0.38036 0.84956,0.84955c0,0.4692 -0.38036,0.84956 -0.84956,0.84956c-0.4692,0 -0.84955,-0.38036 -0.84955,-0.84956z" fill="#5c785f" stroke-width="0.5"/><path d="M227.5133,130.91388c0,-0.4692 0.38036,-0.84955 0.84956,-0.84955c0.4692,0 0.84955,0.38036 0.84955,0.84955c0,0.4692 -0.38035,0.84955 -0.84955,0.84955c-0.4692,0 -0.84956,-0.38036 -0.84956,-0.84955z" fill="#5c785f" stroke-width="0.5"/></g><g stroke="none" stroke-linecap="butt" stroke-linejoin="miter"><path d="M285.5377,161.64742c0,-11.56232 9.37311,-20.93541 20.93541,-20.93541c11.56232,0 20.93541,9.37309 20.93541,20.93541c0,11.56232 -9.37309,20.93541 -20.93541,20.93541c-11.56232,0 -20.93541,-9.37309 -20.93541,-20.93541z" fill="#879689" stroke-width="0"/><path d="M364.22305,190.10871c0,-6.6914 5.42446,-12.11586 12.11586,-12.11586c6.6914,0 12.11586,5.42445 12.11586,12.11586c0,6.6914 -5.42446,12.11586 -12.11586,12.11586c-6.69141,0 -12.11586,-5.42446 -12.11586,-12.11586z" fill="#728c75" stroke-width="0"/><path d="M357.19873,227.05145c0,-6.6914 5.42446,-12.11586 12.11586,-12.11586c6.69141,0 12.11586,5.42446 12.11586,12.11586c0,6.6914 -5.42445,12.11586 -12.11586,12.11586c-6.6914,0 -12.11586,-5.42446 -12.11586,-12.11586z" fill="#7b8c7d" stroke-width="0"/><path d="M324.01598,183.71235c0,-0.4692 0.38036,-0.84955 0.84956,-0.84955c0.4692,0 0.84955,0.38035 0.84955,0.84955c0,0.4692 -0.38036,0.84956 -0.84955,0.84956c-0.4692,0 -0.84956,-0.38036 -0.84956,-0.84956z" fill="#6e7d70" stroke-width="0.5"/><path d="M335.08887,171.18249c0,-0.4692 0.38036,-0.84956 0.84956,-0.84956c0.4692,0 0.84955,0.38036 0.84955,0.84956c0,0.4692 -0.38035,0.84955 -0.84955,0.84955c-0.4692,0 -0.84956,-0.38036 -0.84956,-0.84955z" fill="#6e7d70" stroke-width="0.5"/><path d="M361.60553,174.6792c0,-0.4692 0.38036,-0.84955 0.84955,-0.84955c0.4692,0 0.84955,0.38036 0.84955,0.84955c0,0.4692 -0.38035,0.84956 -0.84955,0.84956c-0.46919,0 -0.84955,-0.38036 -0.84955,-0.84956z" fill="#6e7d70" stroke-width="0.5"/><path d="M384.62549,182.83817c0,-0.4692 0.38036,-0.84956 0.84956,-0.84956c0.46919,0 0.84955,0.38036 0.84955,0.84956c0,0.4692 -0.38036,0.84955 -0.84955,0.84955c-0.4692,0 -0.84956,-0.38036 -0.84956,-0.84955z" fill="#6e7d70" stroke-width="0.5"/><path d="M297.7907,164.77187c0,-0.4692 0.38036,-0.84955 0.84955,-0.84955c0.4692,0 0.84956,0.38036 0.84956,0.84955c0,0.4692 -0.38036,0.84956 -0.84956,0.84956c-0.4692,0 -0.84955,-0.38036 -0.84955,-0.84956z" fill="#6e7d70" stroke-width="0.5"/><path d="M299.53905,175.26198c0,-0.4692 0.38036,-0.84955 0.84956,-0.84955c0.4692,0 0.84956,0.38036 0.84956,0.84955c0,0.4692 -0.38036,0.84956 -0.84956,0.84956c-0.4692,0 -0.84956,-0.38036 -0.84956,-0.84956z" fill="#6e7d70" stroke-width="0.5"/><path d="M348.46085,174.40535c0,-0.4692 0.38036,-0.84955 0.84955,-0.84955c0.4692,0 0.84956,0.38035 0.84956,0.84955c0,0.4692 -0.38036,0.84956 -0.84956,0.84956c-0.46919,0 -0.84955,-0.38036 -0.84955,-0.84956z" fill="#69786b" stroke-width="0.5"/><path d="M386.36456,174.40535c0,-0.4692 0.38036,-0.84955 0.84955,-0.84955c0.4692,0 0.84955,0.38035 0.84955,0.84955c0,0.4692 -0.38036,0.84956 -0.84955,0.84956c-0.46919,0 -0.84955,-0.38036 -0.84955,-0.84956z" fill="#69786b" stroke-width="0.5"/><path d="M397.29831,181.69452c0,-0.4692 0.38035,-0.84955 0.84955,-0.84955c0.46919,0 0.84955,0.38036 0.84955,0.84955c0,0.4692 -0.38036,0.84956 -0.84955,0.84956c-0.4692,0 -0.84955,-0.38036 -0.84955,-0.84956z" fill="#69786b" stroke-width="0.5"/><path d="M327.07147,226.30145c0,-0.4692 0.38036,-0.84956 0.84955,-0.84956c0.4692,0 0.84955,0.38036 0.84955,0.84956c0,0.4692 -0.38036,0.84955 -0.84955,0.84955c-0.4692,0 -0.84955,-0.38036 -0.84955,-0.84955z" fill="#69786b" stroke-width="0.5"/><path d="M310.55716,208.66447c0,-0.4692 0.38035,-0.84956 0.84955,-0.84956c0.4692,0 0.84956,0.38036 0.84956,0.84956c0,0.4692 -0.38036,0.84955 -0.84956,0.84955c-0.4692,0 -0.84955,-0.38035 -0.84955,-0.84955z" fill="#69786b" stroke-width="0.5"/><path d="M397.29831,201.3753c0,-0.4692 0.38035,-0.84956 0.84955,-0.84956c0.46919,0 0.84955,0.38036 0.84955,0.84956c0,0.4692 -0.38036,0.84955 -0.84955,0.84955c-0.4692,0 -0.84955,-0.38036 -0.84955,-0.84955z" fill="#69786b" stroke-width="0.5"/><path d="M298.62082,228.25578c0,-0.4692 0.38036,-0.84955 0.84956,-0.84955c0.4692,0 0.84956,0.38035 0.84956,0.84955c0,0.4692 -0.38036,0.84956 -0.84956,0.84956c-0.4692,0 -0.84956,-0.38036 -0.84956,-0.84956z" fill="#69786b" stroke-width="0.5"/><path d="M335.56357,237.36139c0,-0.4692 0.38036,-0.84956 0.84956,-0.84956c0.46919,0 0.84955,0.38036 0.84955,0.84956c0,0.4692 -0.38036,0.84956 -0.84955,0.84956c-0.46919,0 -0.84956,-0.38036 -0.84956,-0.84956z" fill="#69786b" stroke-width="0.5"/><path d="M348.83174,200.93896c0,-0.4692 0.38036,-0.84955 0.84955,-0.84955c0.46919,0 0.84955,0.38036 0.84955,0.84955c0,0.4692 -0.38036,0.84956 -0.84955,0.84956c-0.4692,0 -0.84955,-0.38036 -0.84955,-0.84956z" fill="#69786b" stroke-width="0.5"/><path d="M386.29481,226.43467c0,-0.4692 0.38036,-0.84956 0.84956,-0.84956c0.46919,0 0.84955,0.38036 0.84955,0.84956c0,0.4692 -0.38036,0.84955 -0.84955,0.84955c-0.4692,0 -0.84956,-0.38035 -0.84956,-0.84955z" fill="#69786b" stroke-width="0.5"/><path d="M283.85236,216.19259c0,-0.4692 0.38036,-0.84956 0.84956,-0.84956c0.4692,0 0.84955,0.38036 0.84955,0.84956c0,0.4692 -0.38035,0.84955 -0.84955,0.84955c-0.4692,0 -0.84956,-0.38035 -0.84956,-0.84955z" fill="#69786b" stroke-width="0.5"/><path d="M285.17693,234.40557c0,-0.4692 0.38036,-0.84955 0.84956,-0.84955c0.4692,0 0.84955,0.38036 0.84955,0.84955c0,0.4692 -0.38036,0.84956 -0.84955,0.84956c-0.4692,0 -0.84956,-0.38036 -0.84956,-0.84956z" fill="#69786b" stroke-width="0.5"/><path d="M376.24188,223.14664c0,-0.4692 0.38036,-0.84956 0.84955,-0.84956c0.4692,0 0.84955,0.38036 0.84955,0.84956c0,0.4692 -0.38036,0.84955 -0.84955,0.84955c-0.46919,0 -0.84955,-0.38036 -0.84955,-0.84955z" fill="#5c785f" stroke-width="0.5"/><path d="M342.13391,216.85488c0,-0.4692 0.38036,-0.84956 0.84956,-0.84956c0.46919,0 0.84955,0.38036 0.84955,0.84956c0,0.4692 -0.38036,0.84955 -0.84955,0.84955c-0.4692,0 -0.84956,-0.38036 -0.84956,-0.84955z" fill="#5c785f" stroke-width="0.5"/><path d="M291.79984,214.53686c0,-0.4692 0.38036,-0.84956 0.84956,-0.84956c0.4692,0 0.84955,0.38036 0.84955,0.84956c0,0.4692 -0.38035,0.84955 -0.84955,0.84955c-0.4692,0 -0.84956,-0.38036 -0.84956,-0.84955z" fill="#5c785f" stroke-width="0.5"/><path d="M287.49495,199.30417c0,-0.4692 0.38036,-0.84955 0.84955,-0.84955c0.4692,0 0.84956,0.38036 0.84956,0.84955c0,0.4692 -0.38036,0.84955 -0.84956,0.84955c-0.4692,0 -0.84955,-0.38036 -0.84955,-0.84955z" fill="#5c785f" stroke-width="0.5"/></g><g stroke="none" stroke-linecap="butt" stroke-linejoin="miter"><path d="M335.98956,128.57342c0,-11.56232 9.37311,-20.93541 20.93541,-20.93541c11.56231,0 20.93541,9.37309 20.93541,20.93541c0,11.56232 -9.37311,20.93543 -20.93541,20.93543c-11.56232,0 -20.93541,-9.37311 -20.93541,-20.93543z" fill="#7b8c7d" stroke-width="0"/><path d="M412.43261,130.68762c0,-6.69141 5.42446,-12.11587 12.11586,-12.11587c6.69141,0 12.11586,5.42446 12.11586,12.11587c0,6.6914 -5.42445,12.11586 -12.11586,12.11586c-6.6914,0 -12.11586,-5.42446 -12.11586,-12.11586z" fill="#728274" stroke-width="0"/><path d="M405.40828,167.63039c0,-6.6914 5.42445,-12.11586 12.11586,-12.11586c6.6914,0 12.11586,5.42446 12.11586,12.11586c0,6.6914 -5.42446,12.11586 -12.11586,12.11586c-6.69141,0 -12.11586,-5.42445 -12.11586,-12.11586z" fill="#879689" stroke-width="0"/><path d="M372.22553,124.29127c0,-0.4692 0.38036,-0.84955 0.84956,-0.84955c0.46919,0 0.84955,0.38035 0.84955,0.84955c0,0.4692 -0.38036,0.84955 -0.84955,0.84955c-0.4692,0 -0.84956,-0.38036 -0.84956,-0.84955z" fill="#6e7d70" stroke-width="0.5"/><path d="M383.29842,111.76143c0,-0.4692 0.38036,-0.84955 0.84955,-0.84955c0.4692,0 0.84955,0.38036 0.84955,0.84955c0,0.4692 -0.38036,0.84955 -0.84955,0.84955c-0.46919,0 -0.84955,-0.38035 -0.84955,-0.84955z" fill="#6e7d70" stroke-width="0.5"/><path d="M409.81508,115.25812c0,-0.4692 0.38036,-0.84955 0.84956,-0.84955c0.46919,0 0.84955,0.38036 0.84955,0.84955c0,0.4692 -0.38036,0.84956 -0.84955,0.84956c-0.4692,0 -0.84956,-0.38036 -0.84956,-0.84956z" fill="#6e7d70" stroke-width="0.5"/><path d="M432.83504,123.41709c0,-0.4692 0.38036,-0.84955 0.84955,-0.84955c0.4692,0 0.84956,0.38035 0.84956,0.84955c0,0.4692 -0.38036,0.84956 -0.84956,0.84956c-0.46919,0 -0.84955,-0.38036 -0.84955,-0.84956z" fill="#6e7d70" stroke-width="0.5"/><path d="M346.00025,105.35078c0,-0.4692 0.38036,-0.84955 0.84955,-0.84955c0.4692,0 0.84956,0.38036 0.84956,0.84955c0,0.4692 -0.38036,0.84956 -0.84956,0.84956c-0.46919,0 -0.84955,-0.38036 -0.84955,-0.84956z" fill="#6e7d70" stroke-width="0.5"/><path d="M347.7486,115.84091c0,-0.4692 0.38036,-0.84956 0.84956,-0.84956c0.4692,0 0.84955,0.38036 0.84955,0.84956c0,0.4692 -0.38036,0.84955 -0.84955,0.84955c-0.4692,0 -0.84956,-0.38036 -0.84956,-0.84955z" fill="#6e7d70" stroke-width="0.5"/><path d="M396.6704,114.98428c0,-0.4692 0.38036,-0.84955 0.84956,-0.84955c0.46919,0 0.84955,0.38035 0.84955,0.84955c0,0.4692 -0.38036,0.84956 -0.84955,0.84956c-0.4692,0 -0.84956,-0.38036 -0.84956,-0.84956z" fill="#69786b" stroke-width="0.5"/><path d="M434.57411,114.98428c0,-0.4692 0.38036,-0.84955 0.84956,-0.84955c0.46919,0 0.84955,0.38035 0.84955,0.84955c0,0.4692 -0.38036,0.84956 -0.84955,0.84956c-0.4692,0 -0.84956,-0.38036 -0.84956,-0.84956z" fill="#69786b" stroke-width="0.5"/><path d="" fill="#69786b" stroke-width="0.5"/><path d="M375.28102,166.88037c0,-0.4692 0.38036,-0.84955 0.84956,-0.84955c0.46919,0 0.84955,0.38036 0.84955,0.84955c0,0.4692 -0.38036,0.84956 -0.84955,0.84956c-0.4692,0 -0.84956,-0.38036 -0.84956,-0.84956z" fill="#69786b" stroke-width="0.5"/><path d="M358.7667,149.24339c0,-0.4692 0.38036,-0.84955 0.84955,-0.84955c0.46919,0 0.84955,0.38036 0.84955,0.84955c0,0.4692 -0.38036,0.84956 -0.84955,0.84956c-0.4692,0 -0.84955,-0.38036 -0.84955,-0.84956z" fill="#69786b" stroke-width="0.5"/><path d="" fill="#69786b" stroke-width="0.5"/><path d="M346.83037,168.83471c0,-0.4692 0.38036,-0.84956 0.84956,-0.84956c0.4692,0 0.84956,0.38036 0.84956,0.84956c0,0.4692 -0.38036,0.84956 -0.84956,0.84956c-0.4692,0 -0.84956,-0.38036 -0.84956,-0.84956z" fill="#69786b" stroke-width="0.5"/><path d="M383.77312,177.94032c0,-0.4692 0.38036,-0.84956 0.84955,-0.84956c0.4692,0 0.84956,0.38036 0.84956,0.84956c0,0.4692 -0.38036,0.84955 -0.84956,0.84955c-0.46919,0 -0.84955,-0.38035 -0.84955,-0.84955z" fill="#69786b" stroke-width="0.5"/><path d="M397.04129,141.51788c0,-0.4692 0.38036,-0.84956 0.84955,-0.84956c0.4692,0 0.84956,0.38036 0.84956,0.84956c0,0.4692 -0.38036,0.84956 -0.84956,0.84956c-0.46919,0 -0.84955,-0.38036 -0.84955,-0.84956z" fill="#69786b" stroke-width="0.5"/><path d="M434.50435,167.01359c0,-0.4692 0.38036,-0.84956 0.84955,-0.84956c0.4692,0 0.84956,0.38036 0.84956,0.84956c0,0.4692 -0.38036,0.84955 -0.84956,0.84955c-0.46919,0 -0.84955,-0.38036 -0.84955,-0.84955z" fill="#69786b" stroke-width="0.5"/><path d="M332.06191,156.77151c0,-0.4692 0.38036,-0.84956 0.84955,-0.84956c0.4692,0 0.84955,0.38036 0.84955,0.84956c0,0.4692 -0.38035,0.84955 -0.84955,0.84955c-0.4692,0 -0.84955,-0.38035 -0.84955,-0.84955z" fill="#69786b" stroke-width="0.5"/><path d="M333.38648,174.9845c0,-0.4692 0.38036,-0.84956 0.84956,-0.84956c0.4692,0 0.84956,0.38036 0.84956,0.84956c0,0.4692 -0.38036,0.84956 -0.84956,0.84956c-0.4692,0 -0.84956,-0.38036 -0.84956,-0.84956z" fill="#69786b" stroke-width="0.5"/><path d="M424.45143,163.72555c0,-0.4692 0.38036,-0.84956 0.84955,-0.84956c0.4692,0 0.84955,0.38036 0.84955,0.84956c0,0.4692 -0.38036,0.84956 -0.84955,0.84956c-0.46919,0 -0.84955,-0.38036 -0.84955,-0.84956z" fill="#5c785f" stroke-width="0.5"/><path d="M390.34346,157.43379c0,-0.4692 0.38036,-0.84956 0.84955,-0.84956c0.4692,0 0.84956,0.38036 0.84956,0.84956c0,0.4692 -0.38036,0.84955 -0.84956,0.84955c-0.46919,0 -0.84955,-0.38035 -0.84955,-0.84955z" fill="#5c785f" stroke-width="0.5"/><path d="M340.00939,155.11578c0,-0.4692 0.38036,-0.84955 0.84956,-0.84955c0.46919,0 0.84955,0.38036 0.84955,0.84955c0,0.4692 -0.38036,0.84956 -0.84955,0.84956c-0.4692,0 -0.84956,-0.38036 -0.84956,-0.84956z" fill="#5c785f" stroke-width="0.5"/><path d="M335.70451,139.88309c0,-0.4692 0.38036,-0.84955 0.84955,-0.84955c0.46919,0 0.84955,0.38035 0.84955,0.84955c0,0.4692 -0.38036,0.84956 -0.84955,0.84956c-0.46919,0 -0.84955,-0.38036 -0.84955,-0.84956z" fill="#5c785f" stroke-width="0.5"/></g><g stroke="none" stroke-linecap="butt" stroke-linejoin="miter"><path d="M221.57134,176.94767c0,-11.56232 9.37311,-20.93541 20.93541,-20.93541c11.56232,0 20.93541,9.37309 20.93541,20.93541c0,11.56232 -9.37309,20.93543 -20.93541,20.93543c-11.56232,0 -20.93541,-9.37311 -20.93541,-20.93543z" fill="#728c75" stroke-width="0"/><path d="M312.58937,189.71282c0,-6.6914 5.42446,-12.11586 12.11586,-12.11586c6.6914,0 12.11586,5.42446 12.11586,12.11586c0,6.6914 -5.42445,12.11586 -12.11586,12.11586c-6.6914,0 -12.11586,-5.42446 -12.11586,-12.11586z" fill="#7b8c7d" stroke-width="0"/><path d="M279.21796,221.04979c0,-6.6914 5.42446,-12.11586 12.11586,-12.11586c6.6914,0 12.11586,5.42446 12.11586,12.11586c0,6.6914 -5.42446,12.11586 -12.11586,12.11586c-6.6914,0 -12.11586,-5.42445 -12.11586,-12.11586z" fill="#728274" stroke-width="0"/><path d="M257.80731,172.66551c0,-0.4692 0.38036,-0.84955 0.84955,-0.84955c0.4692,0 0.84956,0.38035 0.84956,0.84955c0,0.4692 -0.38036,0.84956 -0.84956,0.84956c-0.4692,0 -0.84955,-0.38036 -0.84955,-0.84956z" fill="#6e7d70" stroke-width="0.5"/><path d="M268.8802,160.13566c0,-0.4692 0.38035,-0.84956 0.84955,-0.84956c0.4692,0 0.84956,0.38036 0.84956,0.84956c0,0.4692 -0.38036,0.84955 -0.84956,0.84955c-0.4692,0 -0.84955,-0.38035 -0.84955,-0.84955z" fill="#6e7d70" stroke-width="0.5"/><path d="M295.39687,163.63236c0,-0.4692 0.38036,-0.84955 0.84955,-0.84955c0.4692,0 0.84956,0.38036 0.84956,0.84955c0,0.4692 -0.38036,0.84956 -0.84956,0.84956c-0.4692,0 -0.84955,-0.38036 -0.84955,-0.84956z" fill="#6e7d70" stroke-width="0.5"/><path d="M335.79469,182.44228c0,-0.4692 0.38036,-0.84956 0.84955,-0.84956c0.4692,0 0.84956,0.38036 0.84956,0.84956c0,0.4692 -0.38036,0.84955 -0.84956,0.84955c-0.46919,0 -0.84955,-0.38035 -0.84955,-0.84955z" fill="#6e7d70" stroke-width="0.5"/><path d="M231.58203,153.72503c0,-0.4692 0.38036,-0.84955 0.84956,-0.84955c0.4692,0 0.84955,0.38036 0.84955,0.84955c0,0.4692 -0.38036,0.84956 -0.84955,0.84956c-0.4692,0 -0.84956,-0.38036 -0.84956,-0.84956z" fill="#6e7d70" stroke-width="0.5"/><path d="M233.33038,164.21515c0,-0.4692 0.38036,-0.84955 0.84956,-0.84955c0.4692,0 0.84955,0.38036 0.84955,0.84955c0,0.4692 -0.38035,0.84956 -0.84955,0.84956c-0.4692,0 -0.84956,-0.38036 -0.84956,-0.84956z" fill="#6e7d70" stroke-width="0.5"/><path d="M282.25219,163.35852c0,-0.4692 0.38035,-0.84955 0.84955,-0.84955c0.4692,0 0.84956,0.38035 0.84956,0.84955c0,0.4692 -0.38036,0.84956 -0.84956,0.84956c-0.4692,0 -0.84955,-0.38036 -0.84955,-0.84956z" fill="#69786b" stroke-width="0.5"/><path d="M320.15589,163.35852c0,-0.4692 0.38035,-0.84955 0.84955,-0.84955c0.4692,0 0.84956,0.38035 0.84956,0.84955c0,0.4692 -0.38036,0.84956 -0.84956,0.84956c-0.4692,0 -0.84955,-0.38036 -0.84955,-0.84956z" fill="#69786b" stroke-width="0.5"/><path d="M331.08965,170.64768c0,-0.4692 0.38036,-0.84955 0.84955,-0.84955c0.4692,0 0.84956,0.38036 0.84956,0.84955c0,0.4692 -0.38036,0.84956 -0.84956,0.84956c-0.4692,0 -0.84955,-0.38036 -0.84955,-0.84956z" fill="#69786b" stroke-width="0.5"/><path d="M260.8628,215.25462c0,-0.4692 0.38036,-0.84956 0.84956,-0.84956c0.4692,0 0.84955,0.38036 0.84955,0.84956c0,0.4692 -0.38036,0.84955 -0.84955,0.84955c-0.4692,0 -0.84956,-0.38035 -0.84956,-0.84955z" fill="#69786b" stroke-width="0.5"/><path d="M244.34848,197.61763c0,-0.4692 0.38036,-0.84956 0.84956,-0.84956c0.4692,0 0.84956,0.38036 0.84956,0.84956c0,0.4692 -0.38036,0.84956 -0.84956,0.84956c-0.4692,0 -0.84956,-0.38036 -0.84956,-0.84956z" fill="#69786b" stroke-width="0.5"/><path d="M331.08965,190.32846c0,-0.4692 0.38036,-0.84956 0.84955,-0.84956c0.4692,0 0.84956,0.38036 0.84956,0.84956c0,0.4692 -0.38036,0.84955 -0.84956,0.84955c-0.4692,0 -0.84955,-0.38036 -0.84955,-0.84955z" fill="#69786b" stroke-width="0.5"/><path d="M232.41214,217.20894c0,-0.4692 0.38036,-0.84956 0.84956,-0.84956c0.4692,0 0.84955,0.38036 0.84955,0.84956c0,0.4692 -0.38036,0.84956 -0.84955,0.84956c-0.4692,0 -0.84956,-0.38036 -0.84956,-0.84956z" fill="#69786b" stroke-width="0.5"/><path d="M269.3549,226.31456c0,-0.4692 0.38036,-0.84956 0.84956,-0.84956c0.4692,0 0.84955,0.38036 0.84955,0.84956c0,0.4692 -0.38036,0.84956 -0.84955,0.84956c-0.4692,0 -0.84956,-0.38036 -0.84956,-0.84956z" fill="#69786b" stroke-width="0.5"/><path d="M282.62307,189.89212c0,-0.4692 0.38036,-0.84955 0.84956,-0.84955c0.4692,0 0.84955,0.38036 0.84955,0.84955c0,0.4692 -0.38036,0.84956 -0.84955,0.84956c-0.4692,0 -0.84956,-0.38036 -0.84956,-0.84956z" fill="#69786b" stroke-width="0.5"/><path d="M320.08613,215.38781c0,-0.4692 0.38036,-0.84955 0.84956,-0.84955c0.4692,0 0.84955,0.38035 0.84955,0.84955c0,0.4692 -0.38036,0.84956 -0.84955,0.84956c-0.4692,0 -0.84956,-0.38036 -0.84956,-0.84956z" fill="#69786b" stroke-width="0.5"/><path d="M217.64369,205.14575c0,-0.4692 0.38035,-0.84956 0.84955,-0.84956c0.4692,0 0.84956,0.38036 0.84956,0.84956c0,0.4692 -0.38036,0.84955 -0.84956,0.84955c-0.4692,0 -0.84955,-0.38035 -0.84955,-0.84955z" fill="#69786b" stroke-width="0.5"/><path d="M218.96827,223.35874c0,-0.4692 0.38036,-0.84955 0.84956,-0.84955c0.4692,0 0.84955,0.38036 0.84955,0.84955c0,0.4692 -0.38036,0.84956 -0.84955,0.84956c-0.4692,0 -0.84956,-0.38036 -0.84956,-0.84956z" fill="#69786b" stroke-width="0.5"/><path d="M310.03322,212.0998c0,-0.4692 0.38036,-0.84956 0.84956,-0.84956c0.4692,0 0.84955,0.38036 0.84955,0.84956c0,0.4692 -0.38035,0.84955 -0.84955,0.84955c-0.4692,0 -0.84956,-0.38036 -0.84956,-0.84955z" fill="#5c785f" stroke-width="0.5"/><path d="M275.92525,205.80804c0,-0.4692 0.38036,-0.84956 0.84956,-0.84956c0.4692,0 0.84955,0.38036 0.84955,0.84956c0,0.4692 -0.38035,0.84955 -0.84955,0.84955c-0.4692,0 -0.84956,-0.38035 -0.84956,-0.84955z" fill="#5c785f" stroke-width="0.5"/><path d="M225.59117,203.49003c0,-0.4692 0.38036,-0.84955 0.84956,-0.84955c0.4692,0 0.84955,0.38036 0.84955,0.84955c0,0.4692 -0.38035,0.84956 -0.84955,0.84956c-0.4692,0 -0.84956,-0.38036 -0.84956,-0.84956z" fill="#5c785f" stroke-width="0.5"/><path d="M221.28629,188.25732c0,-0.4692 0.38036,-0.84956 0.84956,-0.84956c0.4692,0 0.84956,0.38036 0.84956,0.84956c0,0.4692 -0.38036,0.84956 -0.84956,0.84956c-0.4692,0 -0.84956,-0.38036 -0.84956,-0.84956z" fill="#5c785f" stroke-width="0.5"/></g><path d="M284.24068,226.46025c-0.20698,0.41396 -0.62094,0.20698 -0.62094,0.20698l-0.40605,-0.2076c-1.37378,-0.30891 -1.40473,-1.26166 -1.69762,-2.46391c-0.0016,-0.34565 0.17053,-0.71991 0.03177,-1.03649c-0.23862,-0.5444 -0.83363,-0.64492 -1.317,-0.77277c-0.39261,-0.10384 -0.58575,-0.29327 -0.97319,-0.33346c-0.915,-0.09492 -1.90101,0.20898 -2.7848,-0.14873c-1.88637,-0.76353 -2.41266,-2.95641 -3.734,-4.26446c0,0 -0.32726,-0.32726 0,-0.65452c0.32726,-0.32726 0.65453,0 0.65453,0c1.19535,1.20542 1.7528,3.35959 3.43972,4.06632c1.69869,0.71167 4.56401,-0.61657 5.56992,1.7534c0.0509,0.11992 0.03244,1.15489 0.03177,1.27762c0.22258,0.86436 0.09292,1.53527 1.07931,1.70147l0.5196,0.25523c0,0 0.41396,0.20698 0.20698,0.62093z" fill="#fe6b6b" stroke="none" stroke-width="0.5" stroke-linecap="butt" stroke-linejoin="miter"/><path d="M276.07342,203.90772c-0.5942,0.15626 -1.21428,0.14269 -1.82546,0.13363c-2.73239,0.49785 -5.02381,-1.47655 -7.29508,-2.716c-1.01177,-0.55212 -2.03734,-0.70256 -2.6135,0.48965l-0.31811,0.3517c0,0 -0.32726,0.32726 -0.65452,0c-0.32726,-0.32726 0,-0.65453 0,-0.65453l0.14471,-0.11113c0.84841,-1.65481 2.39119,-1.70257 3.87851,-0.89165c1.79517,0.97875 3.74542,2.64205 5.85902,2.69006c-0.27547,-0.21046 -0.56484,-0.40565 -0.80735,-0.65211c-0.35838,-0.36422 -0.65452,-1.11324 -0.88695,-1.54011c-1.15111,-2.11409 -1.43209,-4.75332 -1.6114,-7.11836c-0.07579,-0.99961 -0.48283,-1.87626 -0.6551,-2.85254c-0.61437,-0.78829 -0.69861,-1.43368 -1.43195,-0.49227c-0.01353,0.11538 -0.08475,0.41906 -0.45965,0.41906c-0.46283,0 -0.46283,-0.46283 -0.46283,-0.46283l0.09257,-0.39339c0.13004,-0.17079 0.23366,-0.3654 0.39012,-0.51238c1.34283,-1.26162 1.99674,0.07334 2.71676,1.064c0.55971,2.5751 0.76958,5.22549 1.47694,7.77444c0.30212,1.08867 0.65085,2.64151 1.49968,3.47382c0.37254,0.36528 0.83944,0.62577 1.20921,0.99386c0,0 0.08903,0.08904 0.12778,0.22068c0.47044,0.00897 0.94923,0.00731 1.39728,-0.1104c0.88513,-0.23254 1.39648,0.58985 0.2293,0.89679z" fill="#66f9ff" stroke="none" stroke-width="0.5" stroke-linecap="butt" stroke-linejoin="miter"/><path d="M305.10138,203.54294c-0.02644,0.00531 -0.0527,0.01076 -0.07871,0.01649zM305.16072,203.53128c-0.02001,0.01936 -0.33678,0.31577 -0.65353,-0.00098c-0.32726,-0.32726 0,-0.65452 0,-0.65452l0.33393,-0.22401c0.75787,-0.12879 0.71615,-1.22754 0.04523,-1.58659c-0.30174,-0.16148 -0.68403,-0.03094 -1.02625,-0.03009c-2.32222,-0.00356 -4.41969,0.98495 -6.5851,1.63536c-1.54521,0.46414 -3.76857,-0.0978 -5.19212,-0.69843c0,0 -0.42539,-0.18231 -0.24308,-0.60772c0.18231,-0.42539 0.60772,-0.24308 0.60772,-0.24308c1.17323,0.51217 3.25641,1.0761 4.55149,0.66569c2.24537,-0.71156 4.44829,-1.67414 6.86108,-1.67746c0.40651,0.00088 1.13407,-0.04576 1.50709,0.16478c0.7033,0.39695 1.18578,1.92848 0.85559,2.64862c-0.21341,0.46542 -0.65202,0.52925 -1.06206,0.60844z" fill="#66ff86" stroke="none" stroke-width="0.5" stroke-linecap="butt" stroke-linejoin="miter"/><path d="M360.32514,101.50783c0.29089,0.64208 -0.35121,0.93298 -0.35121,0.93298l-0.46753,0.1663c-7.00592,0.55526 -13.48251,4.18351 -19.76924,7.03152c-1.47439,0.66793 -3.07787,1.24158 -4.48839,2.02921c-1.08475,0.60572 -2.00165,1.56065 -3.04689,2.23358c-1.21127,0.77983 -2.52689,1.33718 -3.79804,1.9959c-4.49307,2.32841 -8.69616,5.27869 -12.89215,8.08764c-4.7724,2.56232 -9.74324,4.70049 -14.67632,6.93527c-2.07953,0.94207 -4.35143,2.42205 -6.62795,2.68147c0,0 -0.70113,0.07292 -0.77404,-0.62823c-0.07291,-0.70113 0.62823,-0.77404 0.62823,-0.77404c2.07765,-0.18868 4.29621,-1.70458 6.192,-2.56341c4.88349,-2.21232 9.8034,-4.33083 14.53175,-6.85941c4.21677,-2.83029 8.4503,-5.78435 12.96716,-8.12966c1.23223,-0.63982 2.51147,-1.17465 3.68619,-1.93094c1.06502,-0.68566 1.99425,-1.64544 3.099,-2.26556c1.45099,-0.81447 3.09919,-1.40812 4.61768,-2.09603c6.45617,-2.92479 13.04919,-6.56026 20.23732,-7.15257l-0.00056,-0.04525c0,0 0.64208,-0.29088 0.93298,0.35121z" fill="#845c18" stroke="none" stroke-width="0.5" stroke-linecap="butt" stroke-linejoin="miter"/><path d="M389.03869,82.19898l-0.62774,0.57958c-1.48344,1.00959 -2.61931,2.53169 -4.19994,3.6053c-1.10032,0.74737 -2.68608,1.22711 -3.90421,1.76443c-1.48305,0.50667 -3.31985,0.68456 -4.92131,0.30528l-0.54604,-0.03005c-0.05847,-0.06692 -0.11949,-0.13085 -0.18292,-0.19194c-0.65602,-0.25477 -1.24985,-0.64365 -1.86557,-0.97549c-1.03235,-0.27136 -2.18914,-0.2944 -3.1926,-0.25599c-0.46114,0.33359 -0.85005,0.8183 -1.19198,1.16052c-0.96897,0.96982 -2.03646,1.73027 -2.94327,2.7223c-0.3773,0.41277 -1.52529,1.13918 -1.62841,1.80219c-0.03661,0.23535 0.83161,1.59739 0.94304,1.8279c2.04705,3.13155 5.52039,2.66629 7.85685,0.40577c0.74274,-0.7186 0.52942,-1.70733 0.31385,-2.50643c-0.04913,-0.18212 0.14718,-0.49867 -0.02935,-0.56513c-0.17653,-0.06646 -0.23793,0.30064 -0.39473,0.40549c-0.88732,0.59336 -1.52823,0.89907 -2.22809,1.77189c0,0 -0.44423,0.54732 -0.99155,0.1031c-0.54733,-0.44422 -0.1031,-0.99155 -0.1031,-0.99155c0.63728,-0.77717 2.89301,-3.1057 4.21417,-2.60836c1.21329,0.45674 1.26217,3.06797 1.00434,3.90075c-0.16946,0.54736 -0.43165,1.08776 -0.81542,1.51322c-0.22024,0.24416 -0.66307,0.17035 -0.90455,0.39351c-0.17749,0.16403 -0.08282,0.50937 -0.25541,0.67852c-2.82676,2.77062 -7.08096,0.84926 -8.88951,-1.79866c-0.27077,-0.55509 -1.18977,-1.99979 -1.12727,-2.62307c0.11257,-1.12242 1.32609,-1.92889 1.9836,-2.64821c0.63749,-0.69739 1.57932,-1.81255 2.62224,-2.78417c-1.43119,0.11661 -2.91305,0.31076 -4.15736,0.73631c-2.32439,0.79493 -4.5858,2.08123 -6.82325,3.09483c-8.9504,4.05472 -17.90083,8.10945 -26.85124,12.16417c-2.32371,1.05269 -4.77813,2.59291 -7.22813,3.26449c-4.72442,1.29504 -10.19751,0.68999 -14.68302,2.72201c0,0 -0.64208,0.29088 -0.93298,-0.35121c-0.29089,-0.64208 0.35121,-0.93298 0.35121,-0.93298c1.78245,-0.80748 3.41082,-1.02238 5.34655,-1.20806c2.31517,-0.22206 4.58514,-0.92186 6.86674,-1.31988c0.88555,-0.15449 1.81634,-0.03259 2.68315,-0.27073c2.37219,-0.65173 4.76183,-2.16722 7.0147,-3.18781c8.9504,-4.05472 17.90083,-8.10945 26.85124,-12.16417c2.27454,-1.03042 4.58349,-2.35443 6.95262,-3.14591c1.97365,-0.65935 4.44989,-0.81923 6.52678,-0.9401c0.05609,-0.00326 0.11241,-0.00636 0.16893,-0.00927c0.43893,-0.22336 0.87305,-0.36467 1.28903,-0.38717c1.07031,-0.05792 1.89036,0.27801 2.68453,0.68991c0.81121,0.21371 1.57538,0.55009 2.23535,1.06196c0.01011,0.00319 0.02024,0.00634 0.03039,0.00948c1.37286,0.42429 3.12583,0.32187 4.42969,-0.14844c1.11842,-0.49436 2.61987,-0.92352 3.6265,-1.61702c1.37449,-0.94692 2.35509,-2.0894 3.5453,-3.08919c0.71437,-0.00137 1.42874,-0.00276 2.14311,-0.00419c-0.03695,0.04633 -0.06495,0.07227 -0.06495,0.07227z" fill="#845c18" stroke="none" stroke-width="0.5" stroke-linecap="butt" stroke-linejoin="miter"/><path d="M362.89667,106.25245c-0.29089,-0.64208 0.35121,-0.93298 0.35121,-0.93298l0.70047,-0.31732c2.12827,-0.96414 4.44504,-1.77483 6.47339,-2.9285c1.12808,-0.64161 1.88911,-1.70996 2.91062,-2.43432c1.50622,-1.06807 3.24357,-1.95053 4.61399,-3.21984c2.2976,-1.06957 4.95815,-1.8921 7.09667,-3.24716c3.48982,-2.2113 5.63137,-5.90577 9.47829,-7.64853c0,0 0.6421,-0.29088 0.93298,0.35121c0.29089,0.64208 -0.35121,0.93298 -0.35121,0.93298c-3.75543,1.70128 -5.87852,5.38375 -9.30546,7.55521c-2.12003,1.34334 -4.77023,2.22652 -7.07131,3.23071c-1.35693,1.25681 -3.08445,2.14157 -4.57983,3.19642c-1.05072,0.74117 -1.85209,1.83802 -3.01436,2.50108c-2.0691,1.18037 -4.42988,2.01092 -6.602,2.99492l-0.70048,0.31732c0,0 -0.6421,0.29088 -0.93298,-0.35121z" fill="#845c18" stroke="none" stroke-width="0.5" stroke-linecap="butt" stroke-linejoin="miter"/><path d="M321.64959,111.64171c-0.35735,0.1619 -0.60593,0.03479 -0.75611,-0.10976c-1.198,0.24793 -2.22267,1.01413 -3.39848,1.39854c-4.82242,1.57668 -9.37204,3.71342 -14.01367,5.81619c-3.26547,1.47932 -6.32067,2.41737 -9.9948,1.86601c-3.77857,-0.56703 -8.41113,-2.83649 -12.17492,-1.10913c0,0 -0.64208,0.29088 -0.93298,-0.35121c-0.29089,-0.6421 0.35121,-0.93298 0.35121,-0.93298c4.1391,-1.85472 8.83552,0.37461 12.98236,1.00168c3.42037,0.51721 6.16139,-0.38774 9.18735,-1.75857c4.68056,-2.12038 9.2709,-4.28844 14.13941,-5.86604c1.44169,-0.46716 2.6099,-1.35698 4.14106,-1.53147l0.82077,0.64374c0,0 0.29089,0.64208 -0.35121,0.93298z" fill="#845c18" stroke="none" stroke-width="0.5" stroke-linecap="butt" stroke-linejoin="miter"/><path d="M358.68425,82.20091l-0.70047,0.31732c-5.79214,2.62395 -11.5599,4.11125 -17.35106,6.73475c-6.41761,2.90731 -12.82926,6.01423 -19.15707,8.95996c0,0 -0.64208,0.29088 -0.93298,-0.35121c-0.29089,-0.64208 0.35121,-0.93298 0.35121,-0.93298c6.3722,-2.78086 12.75767,-6.06089 19.15707,-8.95997c5.07105,-2.29729 10.11398,-3.72065 15.17475,-5.79745c1.17252,-0.00075 2.34503,-0.0016 3.51754,-0.00252c-0.0357,0.02152 -0.059,0.03208 -0.059,0.03208z" fill="#845c18" stroke="none" stroke-width="0.5" stroke-linecap="butt" stroke-linejoin="miter"/><path d="M353.86388,96.02939c0.479,0.51716 -0.03816,0.99616 -0.03816,0.99616l-0.56854,0.52529c-0.97858,1.1158 -2.11653,2.00278 -3.27418,2.92059c0,0 -0.55236,0.43793 -0.9903,-0.11445c-0.43793,-0.55238 0.11445,-0.9903 0.11445,-0.9903c1.1112,-0.88098 2.20058,-1.7283 3.13971,-2.79911l0.62086,-0.57634c0,0 0.51716,-0.479 0.99616,0.03815z" fill="#845c18" stroke="none" stroke-width="0.5" stroke-linecap="butt" stroke-linejoin="miter"/><path d="M299.88473,113.62791c0.54732,0.44422 0.1031,0.99155 0.1031,0.99155l-0.61764,0.64291c-1.03742,0.46997 -2.4383,1.37683 -3.5367,1.5433c-0.26599,0.04031 -0.49603,-0.24563 -0.76479,-0.2579c-0.38756,-0.01769 -0.78313,0.29255 -1.15136,0.17042c-2.05199,-0.68062 -2.5403,-4.32569 -1.48591,-5.93553c0.54959,-0.83911 1.55244,-1.37332 2.41747,-1.77356c0,0 0.1456,-0.06596 0.32955,-0.06573c-0.17663,-0.56637 0.39286,-0.82436 0.39286,-0.82436c3.89481,-1.76443 7.71314,-3.76103 11.56867,-5.52225l0.70047,-0.31732c0,0 0.64208,-0.29088 0.93298,0.35121c0.29089,0.64208 -0.35121,0.93298 -0.35121,0.93298l-0.70047,0.31732c-3.85972,1.73187 -7.67961,3.76044 -11.56867,5.52226c0,0 -0.1456,0.06596 -0.32955,0.06573c0.17663,0.56637 -0.39286,0.82435 -0.39286,0.82435c-1.62441,0.71644 -1.94582,1.24118 -1.93589,2.9669c0.00304,0.53064 -0.11489,1.93066 0.77232,2.09226c1.553,0.28284 3.06789,-0.71583 4.52135,-1.37427l0.10476,-0.24717c0,0 0.44422,-0.54731 0.99155,-0.1031z" fill="#845c18" stroke="none" stroke-width="0.5" stroke-linecap="butt" stroke-linejoin="miter"/><path d="M399.44867,89.41222c-0.29089,-0.64208 0.35121,-0.93298 0.35121,-0.93298l0.22789,-0.03425c0.4638,-0.52761 3.05855,-2.35983 2.94817,-3.20027c-0.12766,-0.97199 -0.47784,-2.11214 -1.02674,-3.14698c0.54844,-0.00138 1.09687,-0.00278 1.64531,-0.00419c0.49673,1.05418 0.78575,2.15987 0.79128,3.14913c0.00921,1.65078 -2.34555,3.04304 -3.29805,4.13192l-0.70607,0.38886c0,0 -0.6421,0.29088 -0.93298,-0.35121z" fill="#845c18" stroke="none" stroke-width="0.5" stroke-linecap="butt" stroke-linejoin="miter"/><path d="M434.34074,197.2172c0,-1.18018 3.30894,-0.21935 8.29091,1.32201c-0.00178,1.63998 -0.00342,3.27997 -0.00495,4.91994c-4.97482,-2.58169 -8.28597,-5.08668 -8.28597,-6.24197z" fill="url(#color-3)" stroke="none" stroke-width="0" stroke-linecap="butt" stroke-linejoin="miter"/><path d="M367.79103,272.44653c1.95775,-11.43041 17.87608,-39.73271 38.09253,-44.24581c8.01689,-1.78968 23.708,-0.83668 36.72975,0.56311c-0.00194,15.10543 0.00699,30.21086 0.02711,45.31626c-25.00981,-0.01817 -50.01965,-0.01575 -75.02951,-0.00045c0.02519,-0.53227 0.08481,-1.07651 0.18014,-1.63312z" fill="#317292" stroke="none" stroke-width="0" stroke-linecap="butt" stroke-linejoin="miter"/><g stroke="none" stroke-width="0" stroke-linecap="butt" stroke-linejoin="miter"><path d="M362.54672,258.46061c0,0 6.51862,13.92675 0.25072,20.45604c-8.06804,8.40448 -30.32833,0.82507 -30.32833,0.82507c0,0 -9.1529,-8.03788 -13.24656,-18.07568c-3.02897,-7.42714 -1.19908,-16.32748 -1.72607,-21.90597c-0.69888,-7.39807 4.76277,-13.77669 4.76277,-13.77669l16.4876,-9.01151c0,0 5.12637,-4.04726 6.79806,2.69c1.13356,4.56847 -0.39158,18.61975 2.87296,23.97711c3.4913,5.72948 14.12886,14.82165 14.12886,14.82165z" fill="#55d494"/><path d="M324.35756,192.95453c6.09635,1.04415 27.33876,1.68934 31.01489,6.69155c4.2838,5.8291 -9.54942,16.374 -10.48462,21.83417c-1.73773,10.14581 -16.21794,16.13179 -29.41841,13.87087c-4.1474,-0.71035 -9.29839,-1.57259 -12.45335,-3.58314c-4.04177,-2.57568 13.59839,1.29222 11.86016,-11.35038c-0.67222,-4.88916 -11.67641,-3.77602 -17.2835,-4.60013c-2.20813,-0.32455 -3.01752,-2.11858 -2.87842,-2.93073c1.73773,-10.14581 16.44279,-22.19313 29.64326,-19.9322z" fill="#66ffb3"/><path d="M329.38234,220.00796c-5.25351,-0.8998 -8.7829,-5.88805 -7.8831,-11.14156c0.8998,-5.25351 5.88805,-8.78291 11.14156,-7.8831c5.25351,0.89981 8.7829,5.88804 7.8831,11.14156c-0.8998,5.25351 -5.88805,8.78291 -11.14156,7.88311z" fill="#55d494"/><path d="M328.65356,215.63404c-3.17194,-0.54328 -5.30288,-3.55505 -4.75961,-6.72699c0.54327,-3.17194 3.55504,-5.30288 6.72698,-4.75961c3.17193,0.54327 5.30288,3.55505 4.75961,6.72699c-0.54328,3.17194 -3.55505,5.30288 -6.72698,4.75961z" fill="#66ffb3"/><path d="M328.80725,214.73664c-2.5772,-0.44142 -4.30858,-2.88848 -3.86718,-5.46568c0.44142,-2.5772 2.88848,-4.30859 5.46568,-3.86718c2.5772,0.44142 4.30859,2.88847 3.86718,5.46566c-0.44141,2.5772 -2.88848,4.30859 -5.46568,3.86718z" fill="#ffffff"/><path d="M329.8043,212.6905c-1.13992,-0.19525 -1.90573,-1.2776 -1.71049,-2.41751c0.19525,-1.13992 1.2776,-1.90573 2.41751,-1.71048c1.13992,0.19525 1.90573,1.2776 1.71048,2.41752c-0.19523,1.13992 -1.2776,1.90573 -2.41751,1.71048z" fill="#000000"/></g><path d="M380.56027,274.07292c-3.47538,-1.27595 -5.63836,-3.26783 -5.50841,-6.30581c0.7593,-17.7498 24.16068,-7.15448 24.16068,-9.50585c0,-9.31796 9.93476,-16.87166 22.18991,-16.87166c9.98703,0 18.43309,5.01645 21.2173,11.91612c0.00456,6.9248 0.01142,13.84959 0.02064,20.77439c-20.69335,-0.01503 -41.38674,-0.01597 -62.08014,-0.00718z" fill-opacity="0.29032" fill="#afafaf" stroke="none" stroke-width="0" stroke-linecap="butt" stroke-linejoin="miter"/><path d="M405.69235,274.06731c-0.62963,-0.9068 -0.95043,-1.96221 -0.898,-3.18788c0.7593,-17.7498 24.16068,-7.15448 24.16068,-9.50585c0,-7.02006 5.63892,-13.03872 13.6607,-15.58032c0.00392,9.42895 0.01211,18.85789 0.02467,28.28683c-12.31602,-0.00895 -24.63203,-0.0129 -36.94806,-0.01278z" fill-opacity="0.29032" fill="#afafaf" stroke="none" stroke-width="0" stroke-linecap="butt" stroke-linejoin="miter"/><path d="M423.51861,249.95231c0.53176,-12.43073 12.16863,-10.95922 19.09531,-9.76865c0.00142,6.03054 0.00459,12.06108 0.00953,18.09161c-10.32864,-0.3293 -19.36655,-2.20479 -19.10483,-8.32295z" fill-opacity="0.29032" fill="#afafaf" stroke="none" stroke-width="0" stroke-linecap="butt" stroke-linejoin="miter"/><path d="M388.97652,251.68024c0,2.46548 26.55063,-3.83798 17.96512,13.20621c-3.06776,6.09021 -31.14252,3.66545 -40.15501,3.66545c-9.16259,0 -46.88139,5.04216 -46.3506,-7.36582c0.7593,-17.7498 24.1607,-7.15448 24.1607,-9.50585c0,-9.31796 9.93477,-16.87166 22.18992,-16.87166c12.25515,0 22.18991,7.5537 22.18991,16.87166z" fill-opacity="0.29032" fill="#afafaf" stroke="none" stroke-width="0" stroke-linecap="butt" stroke-linejoin="miter"/><path d="M390.62866,269.85378c0,1.83953 14.78038,-1.2025 18.71942,4.21361c-28.6953,-0.00162 -57.39066,0.01936 -86.086,0.0513c4.86968,-10.15024 22.98677,-2.19599 22.98677,-4.26491c0,-9.31797 9.93477,-16.87166 22.18992,-16.87166c12.25515,0 22.18992,7.5537 22.18992,16.87166z" fill-opacity="0.29032" fill="#afafaf" stroke="none" stroke-width="0" stroke-linecap="butt" stroke-linejoin="miter"/><path d="M400.88925,258.78522c0,2.46548 26.55065,-3.83798 17.96512,13.20621c-0.42676,0.84723 -1.33748,1.52967 -2.61352,2.07679c-26.52647,-0.00491 -53.053,0.01028 -79.57953,0.0364c-2.76689,-1.27818 -4.42691,-3.14113 -4.31258,-5.81356c0.7593,-17.7498 24.1607,-7.15448 24.1607,-9.50585c0,-9.31796 9.93477,-16.87166 22.18992,-16.87166c12.25515,0 22.18991,7.5537 22.18991,16.87166z" fill-opacity="0.29032" fill="#afafaf" stroke="none" stroke-width="0" stroke-linecap="butt" stroke-linejoin="miter"/><path d="M429.78591,268.32138c-9.16259,0 -46.88139,5.04216 -46.3506,-7.36582c0.7593,-17.7498 24.1607,-7.15448 24.1607,-9.50585c0,-9.31796 9.93476,-16.87166 22.18991,-16.87166c4.77927,0 9.20565,1.14881 12.82752,3.10304c0.00161,10.34035 0.00834,20.68071 0.02029,31.02105c-5.25799,-0.13913 -10.00273,-0.38076 -12.84781,-0.38076z" fill-opacity="0.29032" fill="#afafaf" stroke="none" stroke-width="0" stroke-linecap="butt" stroke-linejoin="miter"/><path d="M393.6509,274.06868c4.67121,-10.57089 23.11447,-2.45472 23.11447,-4.54219c0,-9.31797 9.93477,-16.87166 22.18992,-16.87166c1.24815,0 2.47224,0.07836 3.6642,0.22895c0.00455,7.06544 0.0115,14.13087 0.02091,21.1963c-16.32982,-0.01186 -32.65966,-0.01495 -48.9895,-0.01141z" fill-opacity="0.29032" fill="#afafaf" stroke="none" stroke-width="0" stroke-linecap="butt" stroke-linejoin="miter"/><path d="M409.51946,261.9416c0.7593,-17.7498 24.16068,-7.15448 24.16068,-9.50585c0,-5.53941 3.51109,-10.4553 8.93351,-13.53132c0.00202,10.37014 0.0092,20.74025 0.02163,31.11038c-14.31071,0.74924 -33.49542,0.80082 -33.11582,-8.0732z" fill-opacity="0.29032" fill="#afafaf" stroke="none" stroke-width="0" stroke-linecap="butt" stroke-linejoin="miter"/><path d="M439.26194,265.05391c0.16889,-3.94796 1.45792,-6.49363 3.36045,-8.09139c0.00347,4.47463 0.00792,8.94925 0.01333,13.42387c-2.19772,-1.25153 -3.47451,-2.97777 -3.37378,-5.33249z" fill-opacity="0.29032" fill="#afafaf" stroke="none" stroke-width="0" stroke-linecap="butt" stroke-linejoin="miter"/><path d="M423.4441,245.85472c0,1.92044 16.10936,-1.47958 19.17414,4.97863c0.00102,1.76645 0.00219,3.53289 0.00352,5.29934c-0.27713,0.89022 -0.67631,1.86369 -1.21254,2.92825c-3.06776,6.09021 -31.14252,3.66545 -40.15501,3.66545c-9.16259,0 -46.88139,5.04216 -46.3506,-7.36582c0.7593,-17.7498 24.16068,-7.15448 24.16068,-9.50585c0,-9.31796 9.93477,-16.87166 22.18992,-16.87166c12.25515,0 22.18991,7.5537 22.18991,16.87166z" fill-opacity="0.29032" fill="#afafaf" stroke="none" stroke-width="0" stroke-linecap="butt" stroke-linejoin="miter"/><path d="M442.16837,224.9276c0,0.19017 0.15796,0.32816 0.44556,0.42873c-0.00133,5.62922 -0.00116,11.25844 0.00053,16.88767c-8.61827,0.17717 -18.0717,-0.44473 -22.636,-0.44473c-9.16259,0 -46.88139,5.04217 -46.3506,-7.36582c0.7593,-17.7498 24.1607,-7.15448 24.1607,-9.50585c0,-9.31796 9.93476,-16.87166 22.18991,-16.87166c12.25515,0 22.18991,7.5537 22.18991,16.87166z" fill-opacity="0.29032" fill="#afafaf" stroke="none" stroke-width="0" stroke-linecap="butt" stroke-linejoin="miter"/><path d="M425.09625,264.02828c0,1.68756 12.43911,-0.73318 17.53563,3.03694c0.00257,2.3383 0.00543,4.67658 0.00853,7.01488c-28.69417,-0.02085 -57.38839,-0.01458 -86.08263,0.00714c-0.00933,-0.1804 -0.0101,-0.36474 -0.00204,-0.5531c0.7593,-17.7498 24.16068,-7.15448 24.16068,-9.50585c0,-9.31797 9.93476,-16.87166 22.18991,-16.87166c12.25515,0 22.18992,7.5537 22.18992,16.87166z" fill-opacity="0.29032" fill="#afafaf" stroke="none" stroke-width="0" stroke-linecap="butt" stroke-linejoin="miter"/><path d="M435.35682,252.95971c0,0.87412 3.33746,0.64596 7.26321,0.74688c0.00362,5.4032 0.00866,10.80642 0.01512,16.20961c-9.85276,0.92826 -23.6427,-0.08482 -29.46823,-0.08482c-9.16257,0 -46.88138,5.04216 -46.35059,-7.36582c0.7593,-17.7498 24.16068,-7.15448 24.16068,-9.50585c0,-9.31796 9.93476,-16.87166 22.18991,-16.87166c12.25515,0 22.18992,7.5537 22.18992,16.87168z" fill-opacity="0.29032" fill="#afafaf" stroke="none" stroke-width="0" stroke-linecap="butt" stroke-linejoin="miter"/><path d="M417.9029,255.13006c0.7593,-17.7498 24.16068,-7.15448 24.16068,-9.50585c0,-1.28968 0.19032,-2.54559 0.55078,-3.75233c0.00209,7.20828 0.00668,14.41658 0.01378,21.62485c-12.41837,0.16218 -25.03379,-1.15418 -24.72526,-8.36667z" fill-opacity="0.29032" fill="#afafaf" stroke="none" stroke-width="0" stroke-linecap="butt" stroke-linejoin="miter"/><path d="M427.09933,274.07139c-0.03049,-0.27832 -0.03981,-0.56639 -0.02707,-0.86454c0.44849,-10.48405 8.79625,-11.07916 15.55531,-10.29419c0.0036,3.72248 0.00788,7.44495 0.01283,11.16744c-5.18036,-0.00377 -10.36072,-0.00663 -15.54108,-0.0087z" fill-opacity="0.29032" fill="#afafaf" stroke="none" stroke-width="0" stroke-linecap="butt" stroke-linejoin="miter"/><path d="M323.56845,99.83065l-42.23946,-17.71744c0.78917,0.00173 1.57833,0.00343 2.3675,0.00509l40.22438,16.87221z" fill="#676767" stroke="none" stroke-width="0" stroke-linecap="butt" stroke-linejoin="miter"/><path d="M262.75102,104.28841l-0.7001,-0.29366l9.18836,-21.90563c0.27413,0.0007 0.54827,0.00142 0.82241,0.00211z" fill="#676767" stroke="none" stroke-width="0" stroke-linecap="butt" stroke-linejoin="miter"/><path d="M271.59802,116.05201l-9.73703,-12.4323l0.8368,-0.65537l9.73703,12.4323z" fill="#676767" stroke="none" stroke-width="0" stroke-linecap="butt" stroke-linejoin="miter"/><path d="M297.0483,125.72082l15.69247,-1.76585l0.11886,1.05623l-15.69247,1.76583z" fill="#676767" stroke="none" stroke-width="0" stroke-linecap="butt" stroke-linejoin="miter"/><path d="M202.87494,189.48898c-0.71369,1.91169 -1.87211,3.52769 -3.31404,4.77442c-0.00161,-2.2592 -0.00356,-4.51838 -0.00584,-6.77757c0.51378,-1.60104 0.47969,-3.25791 -0.0053,-4.75808c-0.00253,-2.08401 -0.00535,-4.16804 -0.00845,-6.25207c3.61783,3.12009 5.10228,8.2758 3.33363,13.01329z" fill="#000000" stroke="#000000" stroke-width="0" stroke-linecap="butt" stroke-linejoin="miter"/><g fill="#82cc81" stroke="none" stroke-width="0" stroke-linecap="butt" stroke-linejoin="miter"><path d="M213.99391,177.86839l3.13189,4.2789l-0.95087,0.69598l-3.13189,-4.2789z"/><path d="M213.24717,177.6806l5.16972,-1.17968l0.26215,1.14883l-5.16973,1.17968z"/></g><g fill="#82cc81" stroke="none" stroke-width="0" stroke-linecap="butt" stroke-linejoin="miter"><path d="M204.00246,175.03115l-4.46178,1.01814c-0.00061,-0.40274 -0.00122,-0.80548 -0.00184,-1.20823l4.20147,-0.95874z"/><path d="M203.47655,174.92577l-3.13189,-4.27891l0.95087,-0.69597l3.13189,4.2789z"/></g><g fill="#82cc81" stroke-width="0" stroke-linecap="butt" stroke-linejoin="miter"><path d="M200.5033,181.18642l-0.95494,0.41418c-0.00084,-0.65867 -0.0017,-1.31732 -0.00258,-1.97599l0.23578,-0.10227z" stroke="#000000"/><path d="" stroke="#000000"/><path d="" stroke="none"/><path d="" stroke="none"/><path d="" stroke="none"/><path d="" stroke="none"/></g><path d="M214.9912,223.93339l0.8813,2.97982c0,0 -0.64321,0.43733 -0.88046,0.33464c-0.29756,-0.1288 -0.92035,-0.97962 -0.92035,-0.97962l0.4529,-2.45437z" fill="#d0735b" stroke="none" stroke-width="0" stroke-linecap="butt" stroke-linejoin="miter"/><path d="M263.1282,217.38973l-0.62488,0.86994l-4.4988,-1.69289c0,0 -0.38294,-1.71089 -0.05652,-2.16533c0.30908,-0.43029 1.96588,-0.49284 1.96588,-0.49284z" fill="#53c5d0" stroke="none" stroke-width="0" stroke-linecap="butt" stroke-linejoin="miter"/><path d="M260.24001,213.65148c0,0 -0.90478,0.59661 -1.29337,1.13758c-0.36415,0.50694 -0.96959,2.01284 -0.96959,2.01284l-16.82613,-12.08627c0,0 0.39345,-1.36373 0.77559,-1.89575c0.3719,-0.51775 1.48737,-1.25467 1.48737,-1.25467z" fill="#66f2ff" stroke="none" stroke-width="0" stroke-linecap="butt" stroke-linejoin="miter"/><path d="M256.98821,211.14768c0,0 -1.10296,0.9235 -1.50504,1.48327c-0.3963,0.55171 -0.89037,1.85153 -0.89037,1.85153l-0.82161,-0.59016c0,0 0.44138,-1.43047 0.86313,-2.01763c0.36991,-0.51495 1.53226,-1.31718 1.53226,-1.31718z" fill="#000000" stroke="none" stroke-width="0" stroke-linecap="butt" stroke-linejoin="miter"/><path d="M246.88715,203.89206c0,0 -1.10296,0.9235 -1.50504,1.48327c-0.3963,0.55171 -0.89037,1.85153 -0.89037,1.85153l-0.82162,-0.59017c0,0 0.44138,-1.43047 0.86314,-2.01763c0.36991,-0.51495 1.53226,-1.31718 1.53226,-1.31718z" fill="#000000" stroke="none" stroke-width="0" stroke-linecap="butt" stroke-linejoin="miter"/><path d="M248.2404,204.8641c0,0 -1.10296,0.9235 -1.50504,1.48327c-0.3963,0.55171 -0.89037,1.85153 -0.89037,1.85153l-0.82161,-0.59017c0,0 0.44138,-1.43047 0.86314,-2.01763c0.36991,-0.51495 1.53226,-1.31718 1.53226,-1.31718z" fill="#000000" stroke="none" stroke-width="0" stroke-linecap="butt" stroke-linejoin="miter"/><path d="M246.00601,166.26486l0.63848,-0.82741l4.18872,3.23234l-0.63848,0.8274z" fill="#c5c5c5" stroke="none" stroke-width="0" stroke-linecap="butt" stroke-linejoin="miter"/><path d="M257.96148,169.05508l2.15487,-2.79248l0.56884,0.43896l-2.15488,2.79248z" fill="#c5c5c5" stroke="none" stroke-width="0" stroke-linecap="butt" stroke-linejoin="miter"/><g stroke-linecap="butt" stroke-linejoin="miter"><text transform="translate(261.88593,131.59288) rotate(7.79404) scale(0.63088,0.63088)" font-size="40" xml:space="preserve" fill="#00ff06" stroke="#00ff06" stroke-width="1" font-family="Sans Serif" font-weight="normal" text-anchor="start"><tspan x="0" dy="0">B</tspan></text><text transform="translate(313.38122,137.67135) rotate(4.98772) scale(0.63088,0.63088)" font-size="40" xml:space="preserve" fill="#d300ff" stroke="#d300ff" stroke-width="1" font-family="Sans Serif" font-weight="normal" text-anchor="start"><tspan x="0" dy="0">B</tspan></text><text transform="translate(350.0616,134.71077) rotate(-8.6427) scale(0.59176,0.59176)" font-size="40" xml:space="preserve" fill="#d66e00" stroke="#d66e00" stroke-width="1" font-family="Sans Serif" font-weight="normal" text-anchor="start"><tspan x="0" dy="0">N</tspan></text><g stroke="#ff0000"><text transform="translate(296.80893,135.69444) rotate(-3.06615) scale(0.63088,0.55059) skewX(-0.00049)" font-size="40" xml:space="preserve" fill="#ff0000" stroke-width="2" font-family="Sans Serif" font-weight="normal" text-anchor="start"><tspan x="0" dy="0">N</tspan></text><path d="M310.25681,118.43002c0,0 0.92872,-3.58362 1.14989,-4.43703c0.06929,-0.26736 0.39423,-0.18548 0.49169,0.07297c0.32074,0.85051 1.58064,4.19144 1.58064,4.19144z" fill="#ffb36b" stroke-width="0.5"/><path d="M298.10179,119.08117c0,0 1.00585,-3.58778 1.24536,-4.44214c0.07504,-0.26769 0.42203,-0.18695 0.52525,0.07117c0.33966,0.8495 1.67393,4.18645 1.67393,4.18645z" fill="#ffb36b" stroke-width="0.5"/></g><g stroke="#ffffff"><text transform="translate(278.19027,136.52592) scale(0.63088,0.63088)" font-size="40" xml:space="preserve" fill="#ffffff" stroke-width="1" font-family="Sans Serif" font-weight="normal" text-anchor="start"><tspan x="0" dy="0">A</tspan></text><g stroke-width="0.5"><path d="M284.59591,117.09031c0.31943,-0.85059 0.71021,-1.89119 0.8611,-2.29297c0.12266,-0.32661 0.47251,-0.33863 0.66381,-0.04689c0.42644,0.65035 1.12005,1.58355 1.7152,1.80705c0.63097,0.23696 1.99745,0.00012 2.8279,-0.18127c0.37227,-0.08131 0.53025,0.24788 0.3963,0.60461c-0.34313,0.9137 -0.89161,2.37422 -1.06985,2.84885c-0.12537,0.33386 -0.49441,0.25168 -0.70932,-0.03291c-0.49178,-0.6512 -1.26649,-1.57913 -1.83039,-1.7909c-0.63698,-0.23923 -1.85412,-0.02408 -2.62589,0.15517c-0.41356,0.09606 -0.22885,-1.07075 -0.22885,-1.07075z" fill="#ff88f7"/><path d="M286.8172,118.00376l0.65235,-1.73709l1.18123,0.4436l-0.65236,1.73709z" fill="#c17266"/></g></g><g><text transform="translate(332.56231,135.34233) rotate(-3.85953) scale(0.63088,0.55798) skewX(-0.00027)" font-size="40" xml:space="preserve" fill="#5600ff" stroke="#5600ff" stroke-width="2" font-family="Sans Serif" font-weight="normal" text-anchor="start"><tspan x="0" dy="0">A</tspan></text><path d="M336.13041,131.36067c0,0 0.71791,-0.49572 0.87478,-0.76783c0.31347,-0.54373 0.44896,-1.11906 1.13266,-1.16518c0.29459,-0.01987 0.90502,0.47157 0.9229,0.73666c0.01789,0.2651 -0.7461,1.09338 -1.15476,1.1483c-0.54578,0.07335 -1.7756,0.04804 -1.7756,0.04804z" fill="#ffffff" stroke="none" stroke-width="0"/><path d="M343.13635,131.02636c-0.41232,0.00046 -1.28063,-0.7177 -1.29851,-0.98281c-0.01789,-0.2651 0.52102,-0.83408 0.81559,-0.85395c0.68371,-0.04613 0.89526,0.50579 1.27891,1.0025c0.192,0.24857 0.96999,0.64338 0.96999,0.64338c0,0 -1.21529,0.19025 -1.76597,0.19088z" fill="#ffffff" stroke="none" stroke-width="0"/></g></g><g stroke="none" stroke-width="1" stroke-linecap="butt" stroke-linejoin="miter" font-family="Sans Serif" font-weight="normal" font-size="40" text-anchor="start"><text transform="translate(304.20659,174.98051) scale(0.57839,0.85739)" font-size="40" xml:space="preserve" fill="#000000"><tspan x="0" dy="0">III</tspan></text><text transform="translate(302.635,172.65082) scale(0.57839,0.85739)" font-size="40" xml:space="preserve" fill="#ffffff"><tspan x="0" dy="0">III</tspan></text></g><g stroke="none" stroke-width="1" stroke-linecap="butt" stroke-linejoin="miter" font-family="Sans Serif" font-weight="normal" font-size="40" text-anchor="start"><text transform="translate(252.35205,109.60639) scale(0.57839,0.57839)" font-size="40" xml:space="preserve" fill="#000000"><tspan x="0" dy="0">GARTEN OF</tspan></text><text transform="translate(250.78046,108.0348) scale(0.57839,0.57839)" font-size="40" xml:space="preserve" fill="#ffffff"><tspan x="0" dy="0">GARTEN OF</tspan></text></g><g stroke-linecap="butt" stroke-linejoin="miter"><path d="M258.96539,229.12501c-0.00127,0.57992 -0.58118,0.57867 -0.58118,0.57867l-0.21088,-0.00046c-0.5878,-0.00127 -1.71403,0.16222 -2.27679,-0.0298c-1.23421,-0.42109 -2.59589,-2.68429 -1.2173,-3.76959c0.3568,-0.28088 1.76181,-0.10567 2.23725,-0.10463c1.84106,0.004 4.27927,-0.07258 5.67943,1.23652c0,0 0.40918,0.41096 -0.00178,0.82014c-0.41095,0.40917 -0.82013,-0.00177 -0.82013,-0.00177c-0.30365,-0.34803 -0.85872,-0.34688 -1.30517,-0.46524c-1.24998,-0.33141 -2.2479,-0.42701 -3.55485,-0.42981c-0.21778,-0.00045 -1.43591,-0.17839 -1.5586,-0.11283c-0.33058,0.17663 0.27061,1.2573 0.4473,1.40172c0.63244,0.51696 1.58323,0.29374 2.37315,0.29544l0.21087,0.00045c0,0 0.57993,0.00126 0.57867,0.58118z" fill="#845c18" stroke="none" stroke-width="0.5"/><g fill="#d05563" stroke-width="0"><path d="M260.45146,271.7853l-2.01692,-9.34872l1.36635,-0.29477l2.01692,9.34872z" stroke="#ff0000"/><path d="M255.33513,274.58249c-0.09854,-0.45674 0.94286,-2.42361 2.67053,-2.79633c1.72767,-0.37274 3.2081,-0.30465 3.30664,0.1521c0.09855,0.45674 -1.26866,0.91343 -2.99633,1.28616c-1.72767,0.37274 -2.88229,1.81482 -2.98083,1.35807z" stroke="#ff0000"/><path d="M260.13842,272.07864c-0.10281,-0.4766 1.11779,-1.14428 2.72631,-1.49131c1.60852,-0.34702 3.17218,0.92413 3.27499,1.40073c0.10283,0.47659 -1.29977,-0.39692 -2.90829,-0.04989c-1.60852,0.34703 -2.99018,0.61708 -3.09299,0.14048z" stroke="none"/><path d="M262.11264,272.84555c-1.48709,-0.54722 -2.83318,-0.13998 -2.6648,-0.59754c0.16839,-0.45757 1.53148,-1.14202 3.01857,-0.59479c1.48709,0.54723 2.53505,2.11892 2.36667,2.57647c-0.16837,0.45756 -1.23335,-0.83691 -2.72044,-1.38414z" stroke="none"/></g><path d="M234.53854,245.05659c8.25426,-4.58555 18.99083,-3.01889 21.91777,2.24979c0.93285,1.6792 -3.29617,2.57334 -5.11199,4.57119c-2.26611,2.49331 -2.67779,6.06216 -6.61941,7.5823c-2.80979,1.08363 -5.79691,-1.02875 -8.1373,0.27143c-8.25428,4.58556 -8.70362,7.05457 -8.70362,7.05457c0,0 -1.59972,-17.14374 6.65454,-21.72928z" fill="#ff697a" stroke="#33943a" stroke-width="0"/><path d="M267.67279,251.03489c2.49845,9.80912 -8.97386,13.94997 -18.73639,16.62471c-8.53852,2.33938 -20.17261,1.92061 -21.20051,-2.28308c-1.95148,-7.98078 5.7434,-20.55692 15.51839,-23.01511c4.62039,-1.16192 6.38001,0.26828 8.30549,0.26886c2.05437,0.00061 -10.96873,-15.38686 1.85575,-20.18608c4.9705,-1.86008 10.04403,3.46274 12.16637,10.12899c1.19347,3.74867 0.0212,7.16721 0.16754,10.65622c0.13499,3.21788 1.61832,6.60781 1.92338,7.80547z" fill="#9cedec" stroke="#33943a" stroke-width="0"/><g stroke="#000000" stroke-width="0"><path d="M258.35945,225.9316c-0.18079,-1.60174 0.96458,-3.0068 2.55825,-3.13827c1.59368,-0.13148 3.03214,1.06039 3.21293,2.66215c0.18079,1.60174 -0.96458,3.0068 -2.55825,3.13827c-1.59368,0.13147 -3.03215,-1.0604 -3.21294,-2.66216z" fill="#ffffff"/><path d="M261.76373,227.79226c-1.18924,0.0981 -2.26267,-0.79133 -2.3976,-1.9866c-0.1349,-1.19528 0.71979,-2.24379 1.90904,-2.3419c1.18925,-0.09811 2.2627,0.79132 2.3976,1.9866c0.13492,1.19527 -0.71979,2.24378 -1.90904,2.34189z" fill="#000000"/></g><g stroke="#000000" stroke-width="0"><path d="M251.2033,230.20448c-0.18369,-1.62739 0.98003,-3.05498 2.59924,-3.18856c1.61921,-0.13358 3.08074,1.07741 3.26443,2.70483c0.18369,1.6274 -0.98003,3.05497 -2.59925,3.18855c-1.61921,0.13359 -3.08074,-1.07739 -3.26442,-2.70481z" fill="#ffffff"/><path d="M252.45646,229.89177c-0.13707,-1.21444 0.73131,-2.27974 1.93962,-2.37941c1.20831,-0.09968 2.29896,0.804 2.43602,2.01842c0.13709,1.21442 -0.73132,2.2797 -1.93963,2.37939c-1.2083,0.09967 -2.29895,-0.804 -2.43603,-2.01842z" fill="#000000"/></g><path d="M253.26312,222.76793c0,0 -0.0872,-1.29055 -0.37351,-1.90938c-0.39896,-0.86229 -1.79645,-2.7807 -1.79645,-2.7807l0.39084,-0.18082c0,0 1.29105,1.24864 1.68288,2.09552c0.31423,0.67916 0.48711,2.59452 0.48711,2.59452z" fill="#000000" stroke="#33943a" stroke-width="0"/><path d="M252.3397,222.92736c0,0 -0.41548,-1.60944 -0.92352,-2.32334c-0.70792,-0.99473 -2.92696,-3.08725 -2.92696,-3.08725l0.45088,-0.32087c0,0 1.92612,1.27171 2.6214,2.24871c0.55757,0.78351 1.2291,3.16191 1.2291,3.16191z" fill="#000000" stroke="#33943a" stroke-width="0"/><path d="M251.5373,223.28313c0,0 -0.64467,-1.1214 -1.1735,-1.55183c-0.73685,-0.59976 -2.83444,-1.71039 -2.83444,-1.71039l0.27186,-0.33399c0,0 1.70801,0.55551 2.43172,1.14455c0.58037,0.47238 1.5762,2.11765 1.5762,2.11765z" fill="#000000" stroke="#33943a" stroke-width="0"/><path d="M262.27019,237.2218c0.04975,-1.49322 1.33008,-3.59931 4.4888,-3.49406c3.15872,0.10526 7.43521,4.93245 7.43521,4.93245c0,0 -3.13604,1.56115 -6.29475,1.45589c-3.15872,-0.10527 -5.67903,-1.4011 -5.62926,-2.89431z" fill="#8b3943" stroke="#ff0000" stroke-width="0"/><path d="M266.99256,237.37211c3.15091,1.0765 7.39224,1.32135 7.39224,1.32135c0,0 -5.38594,2.88781 -8.53685,1.81129c-3.15092,-1.07651 -5.29228,-3.15794 -4.78285,-4.649c0.3088,-0.90386 2.15435,-2.29033 3.56032,-1.63184c0.91334,0.42776 1.1263,2.72427 2.36713,3.1482z" fill="#d05563" stroke="#33943a" stroke-width="0"/><path d="M273.91475,225.79037c-0.76645,0.73806 -4.44833,2.82338 -6.99041,5.84716c-2.18326,2.59697 -3.32795,6.24231 -3.32795,6.24231c0,0 -0.50188,-0.13752 -3.30314,-1.58113c-2.80126,-1.4436 -3.1482,-7.44572 0.40749,-9.72156c5.42187,-3.47028 8.74402,-2.31535 12.65997,-2.04246c1.0822,0.07541 0.55405,1.25566 0.55405,1.25566z" fill="#d05563" stroke="#33943a" stroke-width="0"/><path d="M239.38862,246.61122c9.69315,-2.4689 20.26819,2.03431 21.84408,8.22143c0.50226,1.97191 -4.07111,1.74617 -6.47048,3.30247c-2.99438,1.94226 -4.37953,5.48686 -8.82749,5.97995c-3.17074,0.35149 -5.66033,-2.61871 -8.40871,-1.91868c-9.69316,2.46889 -10.81998,4.87672 -10.81998,4.87672c0,0 2.98941,-17.993 12.68255,-20.46191z" fill="#ff697a" stroke="#33943a" stroke-width="0"/><g fill="#d05563" stroke-width="0"><path d="M249.16818,277.41672l-2.53557,-11.75271l1.71771,-0.37058l2.53557,11.7527z" stroke="#ff0000"/><path d="M242.73622,280.93317c-0.12388,-0.57419 1.18531,-3.04682 3.35725,-3.5154c2.17192,-0.46857 4.03307,-0.38296 4.15694,0.19123c0.12387,0.57419 -1.59491,1.14831 -3.76684,1.61689c-2.17194,0.46858 -3.62347,2.28148 -3.74734,1.70729z" stroke="#ff0000"/><path d="M248.77466,277.78545c-0.12926,-0.59915 1.40523,-1.43853 3.42737,-1.87479c2.02216,-0.43626 3.98788,1.16177 4.11714,1.76093c0.12927,0.59914 -1.634,-0.499 -3.65614,-0.06274c-2.02213,0.43627 -3.75909,0.77576 -3.88835,0.17659z" stroke="none"/><path d="M251.25654,278.74958c-1.86949,-0.68794 -3.56169,-0.17596 -3.35003,-0.7512c0.21167,-0.57523 1.92527,-1.43569 3.79477,-0.74774c1.86949,0.68795 3.18691,2.66378 2.97525,3.23902c-0.21168,0.57523 -1.5505,-1.05212 -3.42,-1.74007z" stroke="none"/></g><path d="M248.89884,266.93676l-0.77114,-0.61541l-0.602,0.9072l-0.79968,-0.61175l-0.61543,0.43489l-6.0092,-1.7145c0,0 7.0126,-0.74862 7.65283,-0.88674c0.53631,-0.11569 5.31866,-1.28517 5.31866,-1.28517l-3.37714,3.11296z" fill="url(#color-4)" stroke="#ff0000" stroke-width="0"/></g><path d="M374.98816,266.64218c-0.0593,-0.06471 -0.10254,-0.15908 -0.10254,-0.2967c0,-0.43796 0.43795,-0.43796 0.43795,-0.43796l0.47905,0.34295c0.1357,0.62539 0.11685,1.07579 0.00491,1.71005c-0.04771,0.27042 -0.01525,0.57107 -0.1508,0.80987c-0.14373,0.25319 -0.42927,0.39341 -0.6439,0.59013c-0.69495,0.18246 -1.19755,0.20525 -1.90479,0.20525c-0.06212,0 -1.12256,0.00599 -1.20275,-0.01697c-0.79249,-0.22681 -1.43835,-0.99427 -2.23449,-1.20548c-1.37689,-0.36528 -2.71766,0.21905 -3.87104,-0.9068c-0.22571,-0.22033 -0.4371,-0.47118 -0.56364,-0.7601c-0.44159,-1.00833 -0.04986,-2.19646 -0.28761,-3.24081c-0.01274,-0.09298 -0.05362,-0.80648 -0.21879,-0.98817c-0.2947,-0.32413 -0.73214,-0.40629 -1.12604,-0.52608c-1.51876,-0.46188 -4.47772,-0.20573 -4.88968,-2.29895c-0.0114,-0.05786 -0.0068,-1.09489 -0.00138,-1.12727c0.08183,-0.48854 0.27219,-0.7165 0.52048,-1.13414c0,0 0.22533,-0.37556 0.60088,-0.15022c0.37554,0.22533 0.15022,0.60088 0.15022,0.60088c-0.14694,0.24229 -0.36383,0.52403 -0.40695,0.82379c-0.17992,1.25067 0.70144,1.80569 1.83496,2.02893c1.28332,0.25273 3.05267,0.1426 3.99857,1.23221c0.32393,0.37314 0.33349,0.93579 0.3995,1.38195c0.2096,0.9638 -0.15285,2.1277 0.22765,3.04518c0.62589,1.50915 2.70659,0.86011 3.89085,1.18253c0.80047,0.21793 1.43936,0.96155 2.21803,1.20057c0.30637,0.09403 0.6408,-0.01697 0.96127,-0.01697c0.53053,0 0.9789,0.01466 1.49582,-0.1039c0.49058,-0.40533 0.49901,-1.28826 0.38433,-1.94376z" fill="#f3ffff" stroke="none" stroke-width="0.5" stroke-linecap="butt" stroke-linejoin="miter"/><path d="M374.71816,260.67781c0,0.21898 -0.21897,0.21898 -0.21897,0.21898l-0.06706,-0.00298c-0.77481,0.12224 -1.23479,0.83017 -1.72771,1.37272c-0.46376,0.51048 -0.86784,1.02587 -1.25438,1.59857c-0.10639,0.32993 -0.15384,0.64241 -0.21167,0.97415c0.37327,-0.05403 0.74092,-0.12406 1.08578,-0.31679c0.92129,-0.51488 0.68622,-1.59345 1.32972,-2.32916c0.46209,-0.5283 1.77617,-1.25221 2.37747,-0.54599c0.17392,0.20428 0.1421,1.01095 0.14238,1.29756v0.05152c0,0 0,0.43795 -0.43795,0.43795c-0.43795,0 -0.43795,-0.43795 -0.43795,-0.43795v-0.05152c0.00028,-0.2548 0.04268,-0.50863 0.03934,-0.76341c-0.0015,-0.11396 -0.18928,0.12788 -0.29038,0.18052c-0.24092,0.12543 -0.54442,0.1863 -0.73276,0.40703c-0.50717,0.59438 -0.38601,1.45467 -0.93529,2.06973c-0.16944,0.18973 -0.40034,0.31676 -0.62035,0.44441c-0.53859,0.31247 -0.74094,0.33314 -1.34631,0.41469c-0.59098,0.0796 -1.20636,0.0386 -1.50088,0.59587c-0.16512,0.8813 -0.52727,1.16377 -1.19267,1.76273c-0.2412,0.21713 -0.41618,0.53669 -0.71688,0.65876c-0.25205,0.10233 -0.54909,0.01947 -0.81524,-0.03679c-0.0213,-0.0045 -0.0424,-0.00927 -0.06332,-0.01429c0.01594,0.01326 0.03175,0.02648 0.04742,0.03965c0.15536,0.13058 0.21747,0.34375 0.34445,0.50209c0.2338,0.29155 0.51571,0.52887 0.73201,0.84066c0.24673,0.49968 0.26474,1.00056 -0.06004,1.47336c-0.08126,0.11829 -0.449,0.44709 -0.47621,0.60473c-0.03873,0.22435 0.72735,0.23163 0.85979,0.19182c0.55354,-0.16638 0.64368,-0.84384 0.83058,-1.31204l-0.01566,0.02981c0,0 0,-0.21898 0.21898,-0.21898c0.21898,0 0.21898,0.21898 0.21898,0.21898l-0.01566,0.13285c-0.17402,0.43421 -0.28231,1.03239 -0.66479,1.32135c-0.46513,0.3514 -1.82126,0.511 -1.86984,-0.3806c-0.00679,-0.12447 0.26462,-0.47333 0.35485,-0.58942c0.32005,-0.41179 0.49833,-0.74582 0.24243,-1.24833c-0.20948,-0.30024 -0.48494,-0.52546 -0.71069,-0.80813c-0.10524,-0.13176 -0.14162,-0.3207 -0.27384,-0.42534c-0.3175,-0.25125 -0.64371,-0.51512 -0.96981,-0.76544c-0.20397,-0.15656 -0.61203,-0.37076 -0.73559,-0.59757c-0.03967,-0.07281 -0.05259,-0.18486 -0.05073,-0.30939c-0.3915,-0.3096 -0.72334,-0.53998 -0.93866,-1.0863c-0.0115,-0.02919 -0.01738,-0.21899 -0.02031,-0.44432c-0.32143,0.043 -0.6387,0.11538 -0.94863,0.27638c-0.22449,0.11662 -0.4075,0.27871 -0.57366,0.45949c0.0302,0.02456 0.05883,0.04754 0.08542,0.06877c0.63448,0.50767 1.53447,1.05979 1.96152,1.76585c0.24867,0.41115 0.23781,0.93364 0.23317,1.39357c-0.00394,0.3905 -0.1374,0.98967 -0.51991,1.21909c-0.27797,0.16671 -1.0074,0.10581 -1.32966,0.13267c0,0 -0.21823,0.01818 -0.23641,-0.20003c-0.01818,-0.21823 0.20005,-0.23641 0.20005,-0.23641c0.24581,-0.02049 0.93659,0.04831 1.14351,-0.07344c0.35897,-0.21121 0.30315,-0.81501 0.30447,-1.15103c0.00464,-1.17542 -1.20297,-1.8465 -2.03031,-2.50827c-0.03008,-0.02411 -0.06144,-0.04953 -0.0938,-0.07619c-0.35363,0.44211 -0.69511,0.89931 -1.31755,1.05277c-0.94397,0.23274 -2.64985,0.0185 -2.59628,-1.25261c0.00853,-0.20245 0.16604,-0.3697 0.24906,-0.55455l0.1851,-0.21687c0,0 0.30967,-0.30968 0.61937,0c0.30967,0.30968 0,0.61937 0,0.61937l-0.02101,-0.01078c-0.07535,0.12463 -0.25743,0.31268 -0.14957,0.41053c0.26203,0.23774 1.19661,0.22052 1.5121,0.15243c0.39744,-0.08577 0.68519,-0.38764 0.95498,-0.72577c-0.18671,-0.2036 -0.35147,-0.42732 -0.44131,-0.65362c-0.70907,-0.00538 -1.41405,-0.07773 -2.01149,-0.37192c-0.57227,-0.2818 -1.24211,-0.79986 -1.14098,-1.47212c0,0 0.04295,-0.21473 0.25767,-0.17178c0.21473,0.04295 0.17179,0.25768 0.17179,0.25768c-0.14473,0.48451 0.87887,1.01847 1.28736,1.13271c0.43087,0.12051 0.88805,0.16472 1.35089,0.17624c-0.01348,-0.29156 0.01952,-0.61305 0.01952,-0.88817c0,-0.51961 -0.02729,-1.01519 0.4544,-1.36467c0.42613,-0.30917 1.00123,-0.50335 1.43989,-0.82242c0.19776,-0.14383 0.33342,-0.37255 0.55079,-0.48456c0.13043,-0.06721 0.29144,-0.09464 0.39078,-0.20262c0.09039,-0.1144 0.22474,-0.3522 0.33873,-0.62221c-0.01535,-0.0266 -0.03587,-0.0475 -0.06295,-0.05999c-0.11592,-0.0535 -0.24971,-0.05324 -0.37458,-0.07986c-0.53611,0.00455 -1.06727,0.02528 -1.60014,-0.05191c-0.35411,-0.05129 -1.09304,-0.16609 -1.34416,-0.44724c-0.4983,-0.5579 -0.24768,-1.33697 0.0375,-1.88851c0.51077,-0.98784 1.01769,-1.54845 1.95787,-2.12624c0.14699,-0.09033 0.27763,-0.2163 0.42807,-0.29822c0.0001,-0.0836 -0.0003,-0.16567 -0.00035,-0.24486c0.04173,-0.38409 0.08739,-0.87039 0.35735,-1.18222c0.38036,-0.43933 1.35276,-0.6491 1.90305,-0.42554c0.31801,0.12919 0.38652,0.49917 0.52036,0.76676l0.15039,0.25033c0,0 0.11267,0.18777 -0.07511,0.30043c-0.18778,0.11267 -0.30045,-0.07511 -0.30045,-0.07511l-0.15876,-0.2649c-0.05637,-0.11278 -0.16152,-0.53292 -0.30405,-0.57289c-0.18815,-0.05276 -0.39061,0.01838 -0.58602,0.01667c-0.78742,-0.00687 -0.9958,0.48184 -1.06943,1.20942c-0.00002,0.03637 0.00001,0.07333 0.00005,0.11078c0.13484,-0.00816 0.27089,0.00481 0.39714,0.04404c0.29426,0.09143 0.65126,0.1975 0.79642,0.4693c0.35347,0.66184 -0.12713,1.13947 -0.43521,1.59926c0,0 -0.25116,0.35879 -0.60995,0.10764c-0.35879,-0.25116 -0.10764,-0.60995 -0.10764,-0.60995c0.1539,-0.20664 0.50569,-0.43801 0.38918,-0.66781c-0.03596,-0.07092 -0.15505,-0.03703 -0.23406,-0.04594c-0.07631,-0.00859 -0.15531,0.00196 -0.23529,0.02582c-0.0044,0.03322 -0.00927,0.06601 -0.0147,0.09825c-0.06966,0.41416 -0.37683,0.93103 -0.17077,1.36985c0.26151,0.55689 0.9799,0.8006 1.28123,1.32558c0.11304,0.19694 0.13244,0.45307 0.09503,0.72577c0.32218,0.32149 0.24467,0.65452 0.2529,1.12939c0.01189,0.68569 -0.12958,1.22006 -0.26506,1.88369c-0.10114,0.49542 -0.05324,1.08531 -0.04518,1.5956c0.1184,-0.02193 0.23758,-0.049 0.35774,-0.08382c0.32646,-0.09457 0.64367,-0.22546 0.94817,-0.3823c0.05681,-0.08077 0.11354,-0.1599 0.16967,-0.23718c0.24067,-0.14854 0.49815,-0.26964 0.76567,-0.37128c0.48528,-0.94013 0.23817,-2.01369 1.09451,-2.82889c0.14863,-0.14149 0.3143,-0.26127 0.48801,-0.37057c-0.18664,-0.08706 -0.35051,-0.20276 -0.47282,-0.36803c-0.36136,-0.48833 0.12681,-1.38047 0.16723,-1.8927c0.04885,-0.61917 -0.26119,-0.78826 -0.62238,-1.23884c0,0 -0.13679,-0.17099 0.03421,-0.30779c0.17099,-0.13679 0.30779,0.0342 0.30779,0.0342c0.42738,0.53538 0.77371,0.79322 0.71726,1.54347c-0.03039,0.4038 -0.18345,0.7632 -0.25971,1.15196c-0.00622,0.03169 0.00964,0.45283 0.01475,0.45902c0.13788,0.16716 0.38705,0.19506 0.58299,0.28762c0.01975,0.00933 0.03963,0.01839 0.05963,0.02723c0.19839,-0.10938 0.39573,-0.21955 0.58014,-0.34542c0.3642,-0.24861 0.76194,-0.46138 1.07262,-0.77433c0.17652,-0.1778 0.27958,-0.41816 0.44884,-0.60288c0.11628,-0.12692 0.31633,-0.17532 0.40132,-0.32501c0.21659,-0.38147 -0.02048,-0.84592 -0.19536,-1.1599c-0.05918,-0.10625 -0.06364,-0.26477 -0.17071,-0.32247c-0.14745,-0.07945 -0.33394,-0.02629 -0.50092,-0.03943c0,0 -0.43287,-0.0666 -0.36627,-0.49946c0.0666,-0.43287 0.49946,-0.36626 0.49946,-0.36626c0.27957,0.05556 0.59428,0.02003 0.83872,0.16665c0.21511,0.12904 0.31188,0.39401 0.44759,0.60498c0.37662,0.58547 0.55127,1.36347 0.21685,2.03461c-0.10783,0.21642 -0.36569,0.31847 -0.52611,0.49939c-0.53758,0.60625 -0.97913,1.03325 -1.65454,1.49551c0.25516,0.09401 0.4938,0.21394 0.69068,0.406c0.19514,0.48581 0.38085,1.91843 -0.10114,2.3038c-0.35192,0.28138 -1.00514,0.21382 -1.43075,0.29871c-0.46874,0.0935 -0.96974,0.17864 -1.45871,0.30165c-0.06672,0.11804 -0.14131,0.2325 -0.21021,0.34955c0.32479,-0.04139 0.65756,-0.06062 0.94664,0.00084c0.48428,0.10298 0.87776,0.50392 1.34845,0.68427c0.18597,-0.05305 0.37428,-0.08693 0.56273,-0.1152c0.00124,-0.13604 -0.03062,-0.28203 -0.00716,-0.41489c0.05998,-0.33972 0.12268,-0.4927 0.22806,-0.8078c0.4036,-0.61192 0.8299,-1.15819 1.32184,-1.69899c0.5761,-0.63331 1.08749,-1.35707 1.98204,-1.51264l0.13905,-0.00297c0,0 0.21898,-0.00001 0.21898,0.21897zM368.84188,264.75721c-0.45164,-0.08909 -1.02514,0.03756 -1.47237,0.10457c-0.03079,0.00462 -0.06159,0.0093 -0.0924,0.01407c-0.34226,0.22114 -0.69922,0.41603 -1.07659,0.56952c-0.24449,0.42353 -0.45115,0.87108 -0.54736,1.31898c0.40191,0.35462 0.88964,0.68381 1.17481,0.8467c0.1728,0.09869 0.36768,0.15358 0.55718,0.2143c0.1032,0.03307 0.22356,0.11891 0.31829,0.06626c0.18404,-0.1023 0.26599,-0.32769 0.41665,-0.47478c0.62733,-0.61253 0.82447,-0.59702 0.97136,-1.43177c0.14832,-0.23418 0.23771,-0.51847 0.44497,-0.70254c0.04487,-0.03985 0.09576,-0.06998 0.15026,-0.09422c-0.27915,-0.17688 -0.55152,-0.37325 -0.84481,-0.43109zM369.56226,263.24522c0.35856,-0.0719 0.93784,-0.01709 1.24853,-0.21655c0.14662,-0.09412 0.0688,-0.41212 0.0688,-0.54753c0,-0.37996 0.07421,-0.81199 -0.06688,-1.16756c-0.18797,-0.19831 -0.46737,-0.30237 -0.77514,-0.38232c-0.49929,0.26525 -1.07765,0.53496 -1.3413,0.99474c-0.27804,0.48485 -0.19754,1.04729 -0.3132,1.5584c0.39714,-0.09008 0.79648,-0.16243 1.1792,-0.23919zM364.97472,265.75361c0.00295,0.08463 0.01639,0.16742 0.04725,0.24728c0.04888,0.12646 0.14509,0.26528 0.27025,0.4075c0.07579,-0.25611 0.18052,-0.51072 0.30349,-0.75999c-0.20704,0.05302 -0.41431,0.08306 -0.62099,0.10522zM364.46277,261.80024c-0.14983,0.14285 -0.35016,0.22275 -0.53665,0.31263c-0.11124,0.05361 -0.42019,0.3996 -0.4797,0.44289c-0.44226,0.3216 -1.00475,0.53285 -1.44548,0.82637c-0.344,0.2291 -0.26694,0.66496 -0.26694,1.00543c0,0.28115 -0.03693,0.60167 -0.01947,0.89069c0.43196,-0.00442 0.86321,-0.02528 1.27714,-0.02747c0.39357,-0.16927 0.78341,-0.22415 1.17688,-0.26507c0.0012,-0.93397 0.08579,-1.6709 0.26474,-2.58326c0.04198,-0.21405 0.04577,-0.41733 0.0446,-0.62327c-0.00508,0.00716 -0.01011,0.01418 -0.01512,0.02107zM362.07185,266.03236c0.08949,-0.11424 0.18041,-0.22578 0.27618,-0.32795c-0.16698,0.00564 -0.33656,0.01163 -0.50724,0.01572c0.06099,0.10553 0.14146,0.21092 0.23107,0.31223zM364.61953,259.75064c-0.33252,-0.51615 -1.03387,-0.76653 -1.29499,-1.35369c-0.20896,-0.46986 -0.02718,-0.92515 0.08635,-1.37554c-0.13445,0.09492 -0.26024,0.19283 -0.3676,0.26136c-0.55972,0.3572 -0.8351,0.91211 -1.13953,1.4843c-0.08521,0.16018 -0.38067,0.69054 -0.1686,0.8938c0.21778,0.20873 1.01517,0.20585 1.29591,0.21885c0.37238,0.01724 0.74556,0.0008 1.11833,0.00333c0.17409,0.0526 0.36495,0.07035 0.53796,0.12519c-0.00336,-0.10141 -0.02416,-0.18983 -0.06783,-0.2576z" fill="#cdffff" stroke="none" stroke-width="0.5" stroke-linecap="butt" stroke-linejoin="miter"/><path d="M196.36175,256.53015c-1.07642,-41.25882 0,-131.14057 0,-155.33223c0,-13.1931 6.22343,-24.07649 19.41653,-24.07649c27.26291,0 154.95863,0 206.59187,0c14.06611,0 21.74651,10.01039 21.74651,24.0765c0,23.31735 0,107.64932 0,150.67226c0,14.34355 -6.6263,25.62982 -20.96984,25.62982c-27.77791,0 -152.5793,0 -204.26189,0c-13.90979,0 -22.09022,-4.37507 -22.52317,-20.96985z" fill="none" stroke="#ececec" stroke-width="10" stroke-linecap="butt" stroke-linejoin="miter"/><g stroke="none" stroke-width="0" stroke-linecap="butt" stroke-linejoin="miter"><path d="M366.57436,223.11183c13.90269,-7.10826 26.88245,-24.75618 28.18971,-22.19936c1.30726,2.55682 -11.80398,21.85121 -25.70666,28.95947c-6.57231,3.36034 -15.95671,3.19227 -22.12603,4.56033c-6.88091,1.52586 -10.23375,4.32647 -10.92302,2.97834c-0.56155,-1.0983 3.58987,-6.57718 7.3411,-8.11331c4.9814,-2.03989 15.2943,-2.13066 23.22489,-6.18547z" fill="url(#color-5)"/><path d="M381.14612,218.03109c0,-9.4686 22.54267,-7.03824 50.35045,-7.03824c2.57693,0 5.11401,-0.13771 7.59617,-0.3682c-0.00487,3.87701 -0.00904,7.75403 -0.01251,11.63104c-13.40674,-2.72628 -29.55812,-8.21989 -35.33587,-7.07844c-12.68622,2.5063 -0.90856,20.08862 -15.92344,26.42226c-2.92894,1.2355 -9.82404,7.08843 -19.95128,8.58839c-7.12146,1.05478 -16.92007,-1.52635 -23.38793,-2.95277c-6.2891,-1.387 3.53505,-4.25205 9.95684,-3.76505c10.91775,0.82797 29.6715,-3.92484 29.32332,-4.77398c-2.38423,-5.81442 -2.61575,-17.97234 -2.61575,-20.66502z" fill="url(#color-6)"/><path d="M378.25863,201.96951c0,-26.91076 18.72278,-61.15468 53.86135,-59.81602c2.4728,0.0942 4.84817,0.29341 7.12888,0.59054c-0.09368,28.14416 -0.15186,56.28849 -0.17266,84.43286c-11.59139,-7.47169 -24.17195,-16.184 -32.83946,-16.184c-15.23589,0 -0.48563,33.89582 -10.45677,28.25113c-9.01042,-5.10084 -17.52134,-24.50014 -17.52134,-37.27451z" fill="url(#color-7)"/><path d="M411.48172,219.19913c-13.01304,-2.5257 8.974,34.01615 -2.05753,31.89833c-0.12667,-0.02432 1.62921,20.34788 -7.66212,22.14623c-11.14741,2.1576 -21.98959,-4.11596 -33.50684,-8.16301c-8.60605,-3.02408 -19.47415,-3.62679 -20.91482,-4.92308c-7.99707,-7.19561 15.12089,-10.48836 24.88225,-5.96665c6.67604,3.0925 14.21967,11.77695 17.26027,11.35031c15.86742,-2.22644 12.41686,-16.61618 11.7267,-17.18501c-3.49043,-2.87682 -6.78919,-8.03427 -9.21359,-16.14966c-5.42933,-18.17412 -8.03222,-37.80286 -4.72204,-43.21457c6.98393,-11.41778 37.25016,-1.96518 51.84934,2.02594c-0.03873,20.77561 -0.05753,41.55129 -0.05568,62.32694c-3.36332,-2.24232 -6.37391,-4.41837 -6.41723,-4.47912c0,0 -8.15569,-27.14094 -21.16875,-29.66664z" fill="url(#color-8)"/><g><path d="M398.61361,165.4356c7.16834,0 12.77241,7.45207 12.77241,15.31434c0,7.86223 -5.50057,4.52958 -12.66889,4.52958c-7.16833,0 -13.28992,3.3327 -13.28992,-4.52958c0,-7.86223 6.01809,-15.31434 13.18642,-15.31434z" fill="#3c2618"/><path d="M387.72203,180.10529c0,-3.09036 5.28385,-9.41744 10.94803,-9.41744c5.66418,0 10.25592,5.32133 10.25592,8.41169c0,3.09036 -4.51483,1.97491 -10.17901,1.97491c-5.66418,0 -11.02494,2.12119 -11.02494,-0.96917z" fill="#ffffff"/><path d="M398.54523,180.81475c-1.96982,0 -3.56668,-2.0716 -3.56668,-4.62703c0,-2.55544 1.59686,-4.62703 3.56668,-4.62703c1.96982,0 3.56668,2.0716 3.56668,4.62703c0,2.55544 -1.59687,4.62703 -3.56668,4.62703z" fill="#000000"/></g></g><g><path d="M238.9501,169.22735c-1.39123,3.93332 -3.44056,5.66554 -5.04961,5.09638c-1.60907,-0.56916 -2.16863,-3.22414 -0.77739,-7.15746c1.39123,-3.93332 5.63434,-6.36922 5.63434,-6.36922c0,0 1.58391,4.49697 0.19266,8.43029z" fill="#34186a" stroke="#000000" stroke-width="1.5" stroke-linecap="butt" stroke-linejoin="miter"/><path d="M204.4392,194.7117c1.3503,-4.96127 5.51041,-8.14885 9.29186,-7.11968c1.37201,0.37341 11.2057,0.81229 12.95597,1.7783c0.26444,0.14596 -0.95142,0.75345 -0.84148,0.94951c0.23323,0.4159 -1.94545,0.93963 -5.10756,3.29594c-2.87903,2.14538 -6.6396,6.05344 -8.84321,8.02788c-4.82774,4.32563 -8.17015,10.94395 -11.25762,14.62862c-0.0209,-5.93356 -0.04334,-11.8671 -0.06735,-17.80066c2.01563,-1.41403 3.57124,-2.66446 3.86941,-3.75995z" fill="#7e7a93" stroke="#000000" stroke-width="1.5" stroke-linecap="butt" stroke-linejoin="miter"/><path d="M206.87359,198.84592c0.99678,-0.56781 4.94998,0.73346 5.75387,2.25029c0.99151,1.87084 0.56966,8.74863 2.13654,11.49921c0.42031,0.73782 4.18019,4.30875 5.91465,4.33963c1.06437,0.01897 -0.0631,-3.4754 1.02205,-3.34515c0.68985,0.08283 1.37546,2.08551 1.95021,2.02018c0.58813,-0.06687 0.31802,-2.75967 0.76238,-2.77069c0.59282,-0.01471 1.55937,2.03781 2.02088,1.98677c0.46773,-0.05174 0.43038,-2.20672 1.03059,-2.17576c0.71632,0.03695 1.85066,1.69113 2.12524,2.26958c0.73099,1.53995 1.21466,4.08014 -1.20277,5.45941c-9.80992,5.59712 -15.85041,-0.81449 -18.68765,-5.79513c-2.83724,-4.98065 -5.05219,-14.47019 -2.82599,-15.73837z" fill="#3a1b77" stroke="#000000" stroke-width="1.5" stroke-linecap="butt" stroke-linejoin="miter"/><path d="M208.95191,203.47149c-1.019,3.74404 -4.31642,3.73447 -6.56105,6.25372c-0.25765,0.28916 -0.91638,0.56566 -1.77435,0.81962c-0.0299,-8.10207 -0.06271,-16.20413 -0.09838,-24.30616c0.26421,0.07457 0.53542,0.13649 0.81434,0.1848c5.11482,0.88607 20.45619,-11.01381 20.45619,-11.01381c0,0 8.12246,-5.30453 13.0921,-2.08467c4.13689,2.68033 4.58088,6.07968 6.28995,11.24228c0.63058,1.90479 11.40068,3.78561 11.87107,7.54235c0.69956,5.58704 -7.74223,2.87941 -8.1121,3.65623c-0.74884,1.57275 -3.37741,3.26382 -6.6992,4.08499c-4.95771,1.22556 -11.95373,-8.30685 -17.76305,-7.9677c-6.30471,0.36809 -11.2437,10.58957 -11.51554,11.58838z" fill="#421f86" stroke="#000000" stroke-width="1.5" stroke-linecap="butt" stroke-linejoin="miter"/><path d="M207.18808,222.29889c-0.90183,3.31346 -2.78886,7.41103 -6.49977,9.52467c-0.0083,-2.71851 -0.01696,-5.43704 -0.02594,-8.15555c0.60342,-0.91606 1.04171,-1.72501 1.12526,-2.03198c0.83133,-3.05444 -1.29264,-9.60967 -0.79909,-11.6687c0.40017,-1.66939 3.90385,-3.91555 5.01077,-3.61426c2.47213,0.67283 2.69404,10.41495 1.18871,15.94585z" fill="#421f86" stroke="#000000" stroke-width="1.5" stroke-linecap="butt" stroke-linejoin="miter"/><path d="M210.44678,222.69926l42.58098,-16.97111l1.14133,2.86362l-42.581,16.97111z" fill="#7e665d" stroke="#000000" stroke-width="1.5" stroke-linecap="butt" stroke-linejoin="miter"/><g fill="none" stroke="none" stroke-width="1" stroke-linecap="butt" stroke-linejoin="miter" font-family="sans-serif" font-weight="normal" font-size="12" text-anchor="start"/><path d="M225.90278,169.85999l3.37008,-8.52684l2.69087,6.30463l5.10527,-3.26906l-0.18515,5.67569l8.89299,-0.33683l-8.40641,6.21172c0,0 -2.86696,1.01331 -7.69385,-2.07709c-1.68574,-1.07928 -3.77379,-3.98218 -3.77379,-3.98218z" fill="#fff200" stroke="#000000" stroke-width="1.5" stroke-linecap="butt" stroke-linejoin="miter"/><path d="M228.54851,169.44846c0.1373,6.14961 -1.78272,9.60857 -4.2985,9.66475c-2.51574,0.05618 -4.67455,-3.31172 -4.81185,-9.46133c-0.1373,-6.14961 4.43948,-11.72504 4.43948,-11.72504c0,0 4.53353,5.37202 4.67083,11.52162z" fill="#421f86" stroke="#000000" stroke-width="1.5" stroke-linecap="butt" stroke-linejoin="miter"/><path d="M226.40885,168.80898c0.0775,3.47127 -0.22351,7.94532 -1.64358,7.97703c-1.42007,0.03172 -2.44445,-4.12506 -2.52195,-7.5963c-0.0775,-3.47127 2.01746,-6.75136 2.01746,-6.75136c0,0 2.07053,2.89938 2.14807,6.37064z" fill="#8981aa" stroke="#000000" stroke-width="1.5" stroke-linecap="butt" stroke-linejoin="miter"/><path d="M237.6911,181.03321c0.45877,-1.68561 2.19714,-2.68016 3.88272,-2.22138c1.6856,0.45877 2.68016,2.19714 2.22138,3.88272c-0.45877,1.68561 -2.19714,2.68016 -3.88275,2.22138c-1.6856,-0.45877 -2.68016,-2.19714 -2.22138,-3.88272z" fill="#ffffff" stroke="#000000" stroke-width="1.5" stroke-linecap="butt" stroke-linejoin="miter"/><path d="M228.80533,180.09226c0.45877,-1.68561 2.19714,-2.68016 3.88272,-2.22138c1.6856,0.45877 2.68016,2.19714 2.22138,3.88272c-0.45877,1.68561 -2.19714,2.68018 -3.88272,2.22141c-1.6856,-0.45877 -2.68018,-2.19714 -2.22141,-3.88275z" fill="#ffffff" stroke="#000000" stroke-width="1.5" stroke-linecap="butt" stroke-linejoin="miter"/><path d="M229.08307,180.76809c0.2714,-0.99713 1.29972,-1.58546 2.29684,-1.31406c0.99713,0.2714 1.58544,1.29972 1.31406,2.29684c-0.2714,0.99713 -1.29972,1.58544 -2.29684,1.31406c-0.99713,-0.2714 -1.58544,-1.29969 -1.31406,-2.29682z" fill="#000000" stroke="#000000" stroke-width="1.5" stroke-linecap="butt" stroke-linejoin="miter"/><path d="M238.10163,181.56052c0.2714,-0.99713 1.29972,-1.58546 2.29684,-1.31406c0.99713,0.2714 1.58544,1.29972 1.31406,2.29684c-0.2714,0.99713 -1.29972,1.58546 -2.29684,1.31406c-0.99713,-0.2714 -1.58544,-1.29972 -1.31406,-2.29684z" fill="#000000" stroke="#000000" stroke-width="1.5" stroke-linecap="butt" stroke-linejoin="miter"/><path d="M252.97113,193.08723c-0.31015,1.13957 -2.63906,0.7592 -4.37215,0.28751c-1.73309,-0.47169 -2.81747,-4.06761 -2.50731,-5.20717c0.27093,-0.99545 3.50494,0.67689 3.72407,0.73654c1.73309,0.47169 3.46555,3.04355 3.1554,4.1831z" fill="#000000" stroke="#000000" stroke-width="1.5" stroke-linecap="butt" stroke-linejoin="miter"/><path d="M248.38969,191.30837c-0.29664,0.16972 -0.99028,-0.38548 -1.20265,-1.04844c-0.20285,-0.63329 0.06076,-1.37262 0.38648,-1.35031c0.66668,0.04564 1.39624,2.06691 0.81617,2.39875z" fill="#ffffff" stroke="#000000" stroke-width="1.5" stroke-linecap="butt" stroke-linejoin="miter"/><path d="" fill="#07090d" stroke="#000000" stroke-width="1.5" stroke-linecap="butt" stroke-linejoin="miter"/><path d="M233.09327,169.30358c0.21968,-0.80718 1.05215,-1.28346 1.85935,-1.06377c0.80721,0.21968 1.28346,1.05215 1.06376,1.85932c-0.21968,0.80718 -1.05214,1.28346 -1.85935,1.06377c-0.80721,-0.21968 -1.28346,-1.05215 -1.06377,-1.85932z" fill="#ff0000" stroke="#000000" stroke-width="1.5" stroke-linecap="butt" stroke-linejoin="miter"/><path d="M228.98284,169.47762c0.21968,-0.80718 1.05214,-1.28346 1.85932,-1.06377c0.80721,0.21968 1.28346,1.05215 1.06377,1.85935c-0.21968,0.80718 -1.05214,1.28346 -1.85932,1.06377c-0.80721,-0.21968 -1.28346,-1.05215 -1.06377,-1.85935z" fill="#ff0000" stroke="#000000" stroke-width="1.5" stroke-linecap="butt" stroke-linejoin="miter"/><path d="M235.22079,173.02224c0.21968,-0.80718 1.05215,-1.28346 1.85935,-1.06377c0.80721,0.21968 1.28346,1.05215 1.06376,1.85935c-0.21968,0.80718 -1.05214,1.28346 -1.85932,1.06376c-0.80721,-0.21968 -1.28346,-1.05215 -1.06377,-1.85932z" fill="#ff0000" stroke="#000000" stroke-width="1.5" stroke-linecap="butt" stroke-linejoin="miter"/><path d="M238.97533,169.24761c-1.39123,3.93332 -3.44054,5.66554 -5.04964,5.09638c-1.60907,-0.56916 -2.16864,-3.22414 -0.77739,-7.15746c1.39123,-3.93332 5.63434,-6.36922 5.63434,-6.36922c0,0 1.58391,4.49698 0.19265,8.43031z" fill="#34186a" stroke="none" stroke-width="0" stroke-linecap="butt" stroke-linejoin="miter"/><path d="M204.46443,194.73195c1.3503,-4.96127 5.51041,-8.14888 9.29186,-7.11968c1.37201,0.37342 11.2057,0.8123 12.95597,1.7783c0.26444,0.14596 -0.95142,0.75345 -0.84148,0.94952c0.23323,0.4159 -1.94545,0.93963 -5.10756,3.29594c-2.87903,2.14538 -6.6396,6.05347 -8.84321,8.02788c-4.8408,4.33733 -8.18824,10.97978 -11.28268,14.65848c-0.0209,-5.93765 -0.04337,-11.87529 -0.06736,-17.8129c2.0278,-1.42126 3.5951,-2.67753 3.89448,-3.77754z" fill="#7e7a93" stroke="none" stroke-width="0" stroke-linecap="butt" stroke-linejoin="miter"/><path d="M206.89881,198.86621c0.99678,-0.56781 4.95,0.73346 5.75387,2.25029c0.99151,1.87084 0.56964,8.74863 2.13651,11.49921c0.42031,0.73782 4.18019,4.30875 5.91465,4.33966c1.06437,0.01896 -0.0631,-3.4754 1.02205,-3.34515c0.68985,0.0828 1.37546,2.08551 1.95024,2.02018c0.58813,-0.06687 0.318,-2.75966 0.76238,-2.77069c0.59282,-0.01471 1.55937,2.03781 2.02088,1.98677c0.46773,-0.05174 0.43038,-2.20673 1.03059,-2.17576c0.71632,0.03695 1.85066,1.69113 2.12525,2.26958c0.73099,1.53992 1.21466,4.08014 -1.20277,5.45942c-9.80992,5.59712 -15.85041,-0.81449 -18.68765,-5.79513c-2.83724,-4.98065 -5.05219,-14.47019 -2.82599,-15.73837z" fill="#3a1b77" stroke="none" stroke-width="0" stroke-linecap="butt" stroke-linejoin="miter"/><path d="M208.97715,203.49174c-1.019,3.74404 -4.31642,3.73447 -6.56105,6.25372c-0.26014,0.29197 -0.92926,0.57104 -1.79948,0.82702c-0.0299,-8.10694 -0.06272,-16.21384 -0.09842,-24.32075c0.27216,0.07775 0.55173,0.1421 0.83953,0.19197c5.11482,0.88607 20.4562,-11.01381 20.4562,-11.01381c0,0 8.12245,-5.30453 13.0921,-2.08467c4.13689,2.68033 4.58088,6.07968 6.28995,11.24228c0.63058,1.90479 11.40068,3.78561 11.87107,7.54235c0.69956,5.58704 -7.74223,2.87941 -8.1121,3.65623c-0.74884,1.57275 -3.37741,3.26382 -6.6992,4.08499c-4.95771,1.22556 -11.95373,-8.30685 -17.76303,-7.9677c-6.30471,0.36809 -11.2437,10.58959 -11.51554,11.58838z" fill="#421f86" stroke="#000000" stroke-width="0.5" stroke-linecap="butt" stroke-linejoin="miter"/><path d="M207.21329,222.31914c-0.90384,3.32093 -2.79737,7.42952 -6.52487,9.53893c-0.00829,-2.71063 -0.0169,-5.42125 -0.02586,-8.13188c0.61631,-0.93159 1.0656,-1.75872 1.15032,-2.06991c0.83133,-3.05444 -1.29264,-9.60965 -0.79909,-11.66867c0.40017,-1.66939 3.90385,-3.91555 5.01076,-3.61428c2.47213,0.67283 2.69407,10.41495 1.18874,15.94585z" fill="#421f86" stroke="#000000" stroke-width="0.5" stroke-linecap="butt" stroke-linejoin="miter"/><path d="M210.47201,222.71951l42.58098,-16.97111l1.14134,2.86362l-42.581,16.97111z" fill="#7e665d" stroke="#000000" stroke-width="1.5" stroke-linecap="butt" stroke-linejoin="miter"/><g stroke="#000000" stroke-width="0.5" stroke-linecap="butt" stroke-linejoin="round"><path d="M268.15042,198.62194c2.57962,-0.25226 5.12028,0.90355 6.40168,3.18478c1.76657,3.14495 0.47582,7.22778 -2.88114,9.11345c-6.61133,3.7137 -12.42146,-1.82857 -21.46708,-2.21729c4.28126,-8.19036 2.44654,-15.64998 9.27583,-19.48613c3.35698,-1.88568 7.51522,-0.86365 9.2818,2.2813c1.28141,2.28123 0.94654,5.05224 -0.61109,7.12393z" fill="#8f0eaf"/><path d="M266.012,199.82317c1.81558,-0.17755 3.60378,0.63592 4.50565,2.24152c1.24338,2.21349 0.33489,5.08706 -2.0278,6.41425c-4.6532,2.61381 -8.74251,-1.28697 -15.109,-1.56058c3.01324,-5.76458 1.72193,-11.01482 6.52855,-13.71478c2.36271,-1.32718 5.28936,-0.60785 6.53272,1.60562c0.90189,1.60557 0.66619,3.55591 -0.43012,5.01398z" fill="#9043a2"/><path d="M263.87359,201.02435c1.05156,-0.10281 2.08727,0.36833 2.60963,1.29825c0.72015,1.28205 0.19396,2.94638 -1.17448,3.71506c-2.69508,1.51387 -5.06356,-0.74542 -8.75095,-0.90387c1.74523,-3.33876 0.99731,-6.37965 3.78124,-7.94342c1.36847,-0.76868 3.06355,-0.35209 3.78368,0.92996c0.52237,0.92993 0.38586,2.05954 -0.24909,2.90402z" fill="#cc99ff"/></g><path d="M225.92802,169.88021l3.37007,-8.52684l2.69089,6.3046l5.10523,-3.26906l-0.18515,5.67569l8.893,-0.33683l-8.40642,6.21171c0,0 -2.86696,1.01331 -7.69386,-2.07709c-1.68571,-1.07928 -3.77379,-3.98219 -3.77379,-3.98219z" fill="#fff200" stroke="#000000" stroke-width="0.5" stroke-linecap="butt" stroke-linejoin="miter"/><path d="M228.57375,169.46871c0.1373,6.14961 -1.78275,9.60854 -4.2985,9.66472c-2.51574,0.05618 -4.67455,-3.31171 -4.81185,-9.46131c-0.1373,-6.14961 4.4395,-11.72504 4.4395,-11.72504c0,0 4.53353,5.37202 4.67083,11.52163z" fill="#421f86" stroke="none" stroke-width="0" stroke-linecap="butt" stroke-linejoin="miter"/><path d="M226.43405,168.82923c0.0775,3.47127 -0.22351,7.94534 -1.64358,7.97705c-1.42007,0.03172 -2.44444,-4.12507 -2.52194,-7.59633c-0.0775,-3.47127 2.01746,-6.75136 2.01746,-6.75136c0,0 2.07056,2.89937 2.14805,6.37064z" fill="#8981aa" stroke="#000000" stroke-width="0.5" stroke-linecap="butt" stroke-linejoin="miter"/><path d="M237.71633,181.05344c0.45877,-1.68561 2.19714,-2.68016 3.88272,-2.22138c1.6856,0.45877 2.68018,2.19714 2.22141,3.88272c-0.45877,1.68561 -2.19714,2.68016 -3.88275,2.22138c-1.6856,-0.45877 -2.68016,-2.19714 -2.22138,-3.88275z" fill="#ffffff" stroke="#000000" stroke-width="0.5" stroke-linecap="butt" stroke-linejoin="miter"/><path d="M228.83055,180.11251c0.45877,-1.68561 2.19714,-2.68016 3.88272,-2.22138c1.6856,0.45877 2.68016,2.19714 2.22138,3.88272c-0.45877,1.68561 -2.19714,2.68016 -3.88275,2.22138c-1.6856,-0.45877 -2.68016,-2.19714 -2.22138,-3.88272z" fill="#ffffff" stroke="#000000" stroke-width="0.5" stroke-linecap="butt" stroke-linejoin="miter"/><path d="M229.10833,180.78832c0.2714,-0.99713 1.29972,-1.58546 2.29684,-1.31406c0.99713,0.2714 1.58544,1.29972 1.31406,2.29684c-0.2714,0.99713 -1.29972,1.58544 -2.29684,1.31406c-0.99713,-0.2714 -1.58544,-1.29969 -1.31406,-2.29682z" fill="#000000" stroke="none" stroke-width="0" stroke-linecap="butt" stroke-linejoin="miter"/><path d="M238.12686,181.58077c0.2714,-0.99713 1.29969,-1.58546 2.29682,-1.31406c0.99713,0.2714 1.58546,1.29972 1.31406,2.29684c-0.2714,0.99713 -1.29972,1.58546 -2.29684,1.31406c-0.99713,-0.2714 -1.58544,-1.29972 -1.31406,-2.29684z" fill="#000000" stroke="none" stroke-width="0" stroke-linecap="butt" stroke-linejoin="miter"/><path d="M252.99638,193.10743c-0.31015,1.13957 -2.63907,0.7592 -4.37216,0.28751c-1.73309,-0.47169 -2.81747,-4.06761 -2.50731,-5.20718c0.27093,-0.99545 3.50492,0.6769 3.72407,0.73654c1.73309,0.47169 3.46556,3.04355 3.1554,4.18312z" fill="#000000" stroke="none" stroke-width="0" stroke-linecap="butt" stroke-linejoin="miter"/><path d="M248.41492,191.32862c-0.29664,0.16972 -0.99028,-0.38547 -1.20267,-1.04844c-0.20285,-0.63329 0.06076,-1.37262 0.38648,-1.35033c0.6667,0.04564 1.39624,2.06691 0.81617,2.39875z" fill="#ffffff" stroke="none" stroke-width="0.5" stroke-linecap="butt" stroke-linejoin="miter"/><path d="M244.89267,195.4113c0,0 -6.38891,-2.1957 -8.695,-3.56066c-1.77386,-1.04993 -3.96867,-3.93483 -3.96867,-3.93483" fill="none" stroke="#000000" stroke-width="1" stroke-linecap="round" stroke-linejoin="miter"/><path d="" fill="#07090d" stroke="none" stroke-width="0" stroke-linecap="butt" stroke-linejoin="miter"/><path d="M233.11849,169.32381c0.21968,-0.80718 1.05215,-1.28346 1.85935,-1.06377c0.80721,0.21968 1.28346,1.05215 1.06376,1.85932c-0.21968,0.80721 -1.05215,1.28346 -1.85935,1.06377c-0.80721,-0.21968 -1.28346,-1.05215 -1.06376,-1.85932z" fill="#ff0000" stroke="#000000" stroke-width="0.5" stroke-linecap="butt" stroke-linejoin="miter"/><path d="M229.00807,169.49789c0.21968,-0.80718 1.05215,-1.28346 1.85935,-1.06377c0.80721,0.21968 1.28346,1.05215 1.06376,1.85935c-0.21968,0.80718 -1.05214,1.28344 -1.85932,1.06376c-0.80721,-0.21968 -1.28346,-1.05215 -1.06377,-1.85932z" fill="#ff0000" stroke="#000000" stroke-width="0.5" stroke-linecap="butt" stroke-linejoin="miter"/><path d="M235.24601,173.04249c0.21968,-0.80718 1.05214,-1.28346 1.85932,-1.06377c0.80721,0.21968 1.28346,1.05215 1.06377,1.85935c-0.21968,0.80718 -1.05214,1.28346 -1.85932,1.06377c-0.80721,-0.21968 -1.28346,-1.05215 -1.06377,-1.85935z" fill="#ff0000" stroke="#000000" stroke-width="0.5" stroke-linecap="butt" stroke-linejoin="miter"/><path d="M206.84273,208.60863c-0.45949,1.68824 -3.26415,4.54953 -4.53032,4.20492c-0.45336,-0.12339 -0.46818,-2.04741 -1.13902,-2.74084c-0.09289,-0.09603 -0.29833,-0.12789 -0.55912,-0.12576c-0.00294,-0.79077 -0.0059,-1.58153 -0.00887,-2.37231c0.25238,-0.21024 0.47715,-0.42079 0.53175,-0.62147c0.45949,-1.68824 1.8584,-2.77746 3.12461,-2.43286c0.50474,0.13737 0.44636,-1.9885 0.9389,-1.43902c0.74303,0.82894 1.91841,4.51208 1.64207,5.52734z" fill="#421f86" stroke="none" stroke-width="0" stroke-linecap="butt" stroke-linejoin="miter"/><path d="M272.69328,214.4749l3.40108,-9.66879l2.02035,0.71066l-3.4011,9.6688z" fill="#ffffff" stroke="#000000" stroke-width="1.5" stroke-linecap="butt" stroke-linejoin="miter"/><path d="M266.1544,210.41106l1.1853,-1.70835l8.12955,6.24205l-1.27885,1.51328z" fill="#ffffff" stroke="#000000" stroke-width="1.5" stroke-linecap="butt" stroke-linejoin="miter"/><path d="M270.46048,213.44624c0.54669,-1.55418 2.24975,-2.37086 3.80391,-1.82418c1.55418,0.54669 2.37086,2.24975 1.82418,3.80393c-0.54669,1.55418 -2.24974,2.37086 -3.80391,1.82418c-1.55418,-0.54669 -2.37087,-2.24975 -1.82418,-3.80393z" fill="#ffffff" stroke="#000000" stroke-width="1.5" stroke-linecap="butt" stroke-linejoin="miter"/><path d="M239.99563,213.3241c0,1.64838 -4.94112,2.98466 -11.03631,2.98466c-6.09519,0 -11.03631,-1.3363 -11.03631,-2.98466c0,-1.64838 4.94112,-2.98466 11.03631,-2.98466c6.09519,0 11.03631,1.3363 11.03631,2.98466z" fill="#98509a" stroke="#fcacff" stroke-width="2.5" stroke-linecap="butt" stroke-linejoin="miter"/><path d="M220.00532,222.83341c0,-2.07008 1.67811,-3.74817 3.74817,-3.74817c2.07008,0 3.74817,1.67811 3.74817,3.74817c0,2.07008 -1.67811,3.74817 -3.74817,3.74817c-2.07008,0 -3.74817,-1.67811 -3.74817,-3.74817z" fill="#ffffff" stroke="none" stroke-width="0" stroke-linecap="butt" stroke-linejoin="miter"/><path d="M221.39353,223.24988c0,-1.61006 1.3052,-2.91525 2.91525,-2.91525c1.61006,0 2.91525,1.3052 2.91525,2.91525c0,1.61006 -1.3052,2.91525 -2.91525,2.91525c-1.61006,0 -2.91525,-1.3052 -2.91525,-2.91525z" fill="#000000" stroke="none" stroke-width="0" stroke-linecap="butt" stroke-linejoin="miter"/><path d="M229.30637,222.6946c0,-2.07008 1.67811,-3.74817 3.74817,-3.74817c2.07008,0 3.74817,1.67811 3.74817,3.74817c0,2.07008 -1.67811,3.74817 -3.74817,3.74817c-2.07008,0 -3.74817,-1.67811 -3.74817,-3.74817z" fill="#ffffff" stroke="none" stroke-width="0" stroke-linecap="butt" stroke-linejoin="miter"/><path d="M230.6946,223.11107c0,-1.61006 1.30521,-2.91527 2.91527,-2.91527c1.61006,0 2.91525,1.30521 2.91525,2.91527c0,1.61006 -1.3052,2.91525 -2.91525,2.91525c-1.61006,0 -2.91527,-1.3052 -2.91527,-2.91525z" fill="#000000" stroke="none" stroke-width="0" stroke-linecap="butt" stroke-linejoin="miter"/></g><g stroke="none" stroke-linecap="butt" stroke-linejoin="miter"><path d="M254.14217,269.51005v-28.36401h126.4562v28.36401z" fill="url(#color-9)" stroke-width="0"/><path d="M373.50737,255.32805c0,9.79063 -25.398,17.7275 -56.72801,17.7275c-31.33002,0 -56.72801,-7.93687 -56.72801,-17.7275c0,-9.79063 25.398,-17.7275 56.72801,-17.7275c31.33002,0 56.72801,7.93687 56.72801,17.7275z" fill="url(#color-10)" stroke-width="0"/><g stroke-width="1" font-weight="normal" font-size="40" text-anchor="start"><text transform="translate(259.69357,267.14665) rotate(-4.86308) scale(0.93884,0.75408) skewX(-0.00012)" font-size="40" xml:space="preserve" fill="#ff0000" font-family="&quot; Pro W3&quot;, &quot;Hiragino Kaku Gothic Pro&quot;, Osaka, &quot;&quot;, Meiryo, &quot; &quot;, &quot;MS PGothic&quot;"><tspan x="0" dy="0">P</tspan></text><text transform="translate(284.37065,263.95307) rotate(-10.14358) scale(0.68353,0.68353)" font-size="40" xml:space="preserve" fill="#d66e00" font-family="Sans Serif"><tspan x="0" dy="0">O</tspan></text><text transform="translate(301.96766,258.1251) rotate(3.73445) scale(0.68353,0.68353)" font-size="40" xml:space="preserve" fill="#00ff06" font-family="Sans Serif"><tspan x="0" dy="0">C</tspan></text><text transform="translate(321.72857,261.79736) rotate(-2.74627) scale(0.68353,0.68353)" font-size="40" xml:space="preserve" fill="#5600ff" font-family="Sans Serif"><tspan x="0" dy="0">K</tspan></text><text transform="translate(341.00034,266.3076) rotate(-5.43823) scale(0.68353,0.68353)" font-size="40" xml:space="preserve" fill="#d300ff" font-family="Sans Serif"><tspan x="0" dy="0">E</tspan></text><text transform="translate(359.26556,269.6744) rotate(-11.40216) scale(0.68353,0.68353)" font-size="40" xml:space="preserve" fill="#ffffff" font-family="Sans Serif"><tspan x="0" dy="0">T</tspan></text></g></g></g></g></g></svg>