<svg version="1.1" xmlns="http://www.w3.org/2000/svg" xmlns:xlink="http://www.w3.org/1999/xlink" width="1115.10511" height="1204.82273" viewBox="0,0,1115.10511,1204.82273"><defs><linearGradient x1="696.87688" y1="181.50152" x2="217.8979" y2="181.50152" gradientUnits="userSpaceOnUse" id="color-1"><stop offset="0" stop-color="#000000"/><stop offset="1" stop-color="#000000" stop-opacity="0"/></linearGradient><linearGradient x1="763.43844" y1="174.48951" x2="284.45946" y2="174.48951" gradientUnits="userSpaceOnUse" id="color-2"><stop offset="0" stop-color="#000000"/><stop offset="1" stop-color="#000000" stop-opacity="0"/></linearGradient><linearGradient x1="796.96697" y1="179.48951" x2="317.98799" y2="179.48951" gradientUnits="userSpaceOnUse" id="color-3"><stop offset="0" stop-color="#000000"/><stop offset="1" stop-color="#000000" stop-opacity="0"/></linearGradient><linearGradient x1="874.03904" y1="173.979" x2="395.06006" y2="173.979" gradientUnits="userSpaceOnUse" id="color-4"><stop offset="0" stop-color="#000000"/><stop offset="1" stop-color="#000000" stop-opacity="0"/></linearGradient><linearGradient x1="-63.90391" y1="180.49551" x2="415.07507" y2="180.49551" gradientUnits="userSpaceOnUse" id="color-5"><stop offset="0" stop-color="#000000"/><stop offset="1" stop-color="#000000" stop-opacity="0"/></linearGradient><linearGradient x1="-130.46547" y1="173.4835" x2="348.51351" y2="173.4835" gradientUnits="userSpaceOnUse" id="color-6"><stop offset="0" stop-color="#000000"/><stop offset="1" stop-color="#000000" stop-opacity="0"/></linearGradient><linearGradient x1="-163.994" y1="178.4835" x2="314.98498" y2="178.4835" gradientUnits="userSpaceOnUse" id="color-7"><stop offset="0" stop-color="#000000"/><stop offset="1" stop-color="#000000" stop-opacity="0"/></linearGradient><linearGradient x1="-241.06607" y1="172.97299" x2="237.91291" y2="172.97299" gradientUnits="userSpaceOnUse" id="color-8"><stop offset="0" stop-color="#000000"/><stop offset="1" stop-color="#000000" stop-opacity="0"/></linearGradient><linearGradient x1="335.33253" y1="-229.41424" x2="332.28546" y2="249.56137" gradientUnits="userSpaceOnUse" id="color-9"><stop offset="0" stop-color="#000000"/><stop offset="1" stop-color="#000000" stop-opacity="0"/></linearGradient><linearGradient x1="323.86747" y1="-296.00164" x2="320.8204" y2="182.97397" gradientUnits="userSpaceOnUse" id="color-10"><stop offset="0" stop-color="#000000"/><stop offset="1" stop-color="#000000" stop-opacity="0"/></linearGradient><linearGradient x1="332.55801" y1="-329.51118" x2="329.51093" y2="149.46443" gradientUnits="userSpaceOnUse" id="color-11"><stop offset="0" stop-color="#000000"/><stop offset="1" stop-color="#000000" stop-opacity="0"/></linearGradient><linearGradient x1="323.70552" y1="-406.60338" x2="320.65845" y2="72.37223" gradientUnits="userSpaceOnUse" id="color-12"><stop offset="0" stop-color="#000000"/><stop offset="1" stop-color="#000000" stop-opacity="0"/></linearGradient><linearGradient x1="332.82502" y1="619.53161" x2="329.77795" y2="140.556" gradientUnits="userSpaceOnUse" id="color-13"><stop offset="0" stop-color="#000000"/><stop offset="1" stop-color="#000000" stop-opacity="0"/></linearGradient><linearGradient x1="321.35996" y1="686.11901" x2="318.31289" y2="207.1434" gradientUnits="userSpaceOnUse" id="color-14"><stop offset="0" stop-color="#000000"/><stop offset="1" stop-color="#000000" stop-opacity="0"/></linearGradient><linearGradient x1="330.0505" y1="719.62855" x2="327.00342" y2="240.65294" gradientUnits="userSpaceOnUse" id="color-15"><stop offset="0" stop-color="#000000"/><stop offset="1" stop-color="#000000" stop-opacity="0"/></linearGradient><linearGradient x1="321.19801" y1="796.72075" x2="318.15094" y2="317.74514" gradientUnits="userSpaceOnUse" id="color-16"><stop offset="0" stop-color="#000000"/><stop offset="1" stop-color="#000000" stop-opacity="0"/></linearGradient></defs><g transform="translate(241.06607,407.35268)"><g stroke="none" stroke-width="0" stroke-miterlimit="10"><g><path d="M217.8979,381.20122v-399.3994h478.97898v399.3994z" fill="url(#color-1)"/><path d="M284.45946,374.18921v-399.3994h478.97898v399.3994z" fill="url(#color-2)"/><path d="M317.98799,379.18921v-399.3994h478.97898v399.3994z" fill="url(#color-3)"/><path d="M395.06006,373.6787v-399.3994h478.97898v399.3994z" fill="url(#color-4)"/></g><g><path d="M-63.90391,380.19521v-399.3994h478.97898v399.3994z" fill="url(#color-5)"/><path d="M-130.46547,373.1832v-399.3994h478.97898v399.3994z" fill="url(#color-6)"/><path d="M-163.994,378.1832v-399.3994h478.97898v399.3994z" fill="url(#color-7)"/><path d="M-241.06607,372.67269v-399.3994h478.97898v399.3994z" fill="url(#color-8)"/></g><g><path d="M670.86607,250.31067l-677.16121,-1.4986l3.04707,-478.97561l677.16121,1.4986z" fill="url(#color-9)"/><path d="M659.401,183.72327l-677.16121,-1.4986l3.04707,-478.97561l677.16121,1.4986z" fill="url(#color-10)"/><path d="M668.09154,150.21373l-677.16121,-1.4986l3.04707,-478.97561l677.16121,1.4986z" fill="url(#color-11)"/><path d="M659.23906,73.12153l-677.16121,-1.4986l3.04707,-478.97561l677.16121,1.4986z" fill="url(#color-12)"/></g><g><path d="M671.40563,618.78231l-677.16121,1.4986l-3.04707,-478.97561l677.16121,-1.4986z" fill="url(#color-13)"/><path d="M659.94056,685.36971l-677.16121,1.4986l-3.04707,-478.97561l677.16121,-1.4986z" fill="url(#color-14)"/><path d="M668.6311,718.87925l-677.16121,1.4986l-3.04707,-478.97561l677.16121,-1.4986z" fill="url(#color-15)"/><path d="M659.77862,795.97145l-677.16121,1.4986l-3.04707,-478.97561l677.16121,-1.4986z" fill="url(#color-16)"/></g></g></g></svg>