<svg version="1.1" xmlns="http://www.w3.org/2000/svg" xmlns:xlink="http://www.w3.org/1999/xlink" width="210.96483" height="146.76029" viewBox="0,0,210.96483,146.76029"><g transform="translate(-111.85947,-112.86065)"><g data-paper-data="{&quot;isPaintingLayer&quot;:true}" fill-rule="nonzero" stroke-linecap="butt" stroke-linejoin="miter" stroke-miterlimit="10" stroke-dasharray="" stroke-dashoffset="0" style="mix-blend-mode: normal"><g fill="#1cb919" stroke="#fff700" stroke-width="0"><path d="M241.39033,186.41187c0,0 -0.23538,-1.18956 -0.03511,-1.71855c0.21588,-0.57027 1.00363,-1.63578 1.00363,-1.63578c0,0 -0.14174,1.17345 -0.14174,1.74804c0,0.3003 0.04093,0.75534 0.0788,1.1121c0.0326,0.30715 0.06294,0.54144 0.06294,0.54144c0,0 -0.40359,0.21653 -0.57737,0.20806c-0.14304,-0.00698 -0.39115,-0.2553 -0.39115,-0.2553z"/><path d="M242.01767,186.45939c0.17378,-0.00848 0.57737,0.20806 0.57737,0.20806c0,0 -0.03033,0.23429 -0.06294,0.54144c-0.03787,0.35676 -0.0788,0.8118 -0.0788,1.1121c0,0.57459 0.14174,1.74804 0.14174,1.74804c0,0 -0.78774,-1.06551 -1.00363,-1.63578c-0.20027,-0.52899 0.03511,-1.71855 0.03511,-1.71855c0,0 0.24811,-0.24832 0.39115,-0.2553z" data-paper-data="{&quot;index&quot;:null}"/><path d="M242.19545,186.33102c0,0 0.42834,-1.13445 0.87777,-1.47791c0.48449,-0.37024 1.71613,-0.85905 1.71613,-0.85905c0,0 -0.74006,0.92162 -1.04351,1.40954c-0.15859,0.25501 -0.36415,0.66303 -0.52041,0.98598c-0.13452,0.27804 -0.2325,0.49303 -0.2325,0.49303c0,0 -0.45707,-0.02926 -0.60016,-0.12823c-0.11777,-0.08146 -0.19732,-0.42336 -0.19732,-0.42336z"/><path d="M241.56838,186.99058c-0.14309,0.09897 -0.60016,0.12824 -0.60016,0.12824c0,0 -0.09798,-0.21498 -0.2325,-0.49303c-0.15625,-0.32295 -0.36181,-0.73098 -0.5204,-0.98599c-0.30345,-0.48792 -1.04351,-1.40954 -1.04351,-1.40954c0,0 1.23164,0.4888 1.71613,0.85905c0.44943,0.34346 0.87777,1.47791 0.87777,1.47791c0,0 -0.07955,0.3419 -0.19732,0.42336z" data-paper-data="{&quot;index&quot;:null}"/><path d="M241.95468,187.09687c0,0 -0.42834,1.13445 -0.87777,1.47791c-0.48449,0.37024 -1.71613,0.85905 -1.71613,0.85905c0,0 0.74006,-0.92162 1.04351,-1.40954c0.15859,-0.25501 0.36415,-0.66303 0.52041,-0.98599c0.13452,-0.27804 0.2325,-0.49303 0.2325,-0.49303c0,0 0.45707,0.02926 0.60016,0.12823c0.11777,0.08146 0.19732,0.42336 0.19732,0.42336z" data-paper-data="{&quot;index&quot;:null}"/><path d="M242.06203,186.579c0.14309,-0.09897 0.60016,-0.12824 0.60016,-0.12824c0,0 0.09798,0.21498 0.2325,0.49303c0.15625,0.32295 0.36181,0.73098 0.52041,0.98599c0.30345,0.48792 1.04351,1.40954 1.04351,1.40954c0,0 -1.23164,-0.4888 -1.71613,-0.85905c-0.44943,-0.34346 -0.87777,-1.47791 -0.87777,-1.47791c0,0 0.07954,-0.3419 0.19732,-0.42336z" data-paper-data="{&quot;index&quot;:null}"/><path d="M242.1257,186.81719c-0.00912,-0.17375 0.20593,-0.57812 0.20593,-0.57812c0,0 0.23441,0.02947 0.54167,0.06094c0.3569,0.03655 0.81209,0.07581 1.11238,0.0747c0.57458,-0.00212 1.7475,-0.14817 1.7475,-0.14817c0,0 -1.06262,0.79165 -1.63208,1.00964c-0.52825,0.20221 -1.71868,-0.0288 -1.71868,-0.0288c0,0 -0.24923,-0.24719 -0.25673,-0.3902z" data-paper-data="{&quot;index&quot;:null}"/><path d="M241.36591,187.16016c0,0 -1.19043,0.231 -1.71868,0.0288c-0.56946,-0.21798 -1.63208,-1.00964 -1.63208,-1.00964c0,0 1.17293,0.14605 1.7475,0.14817c0.3003,0.00111 0.75548,-0.03815 1.11238,-0.0747c0.30726,-0.03148 0.54167,-0.06094 0.54167,-0.06094c0,0 0.21505,0.40438 0.20593,0.57812c-0.0075,0.143 -0.25673,0.3902 -0.25673,0.3902z" data-paper-data="{&quot;index&quot;:null}"/></g><g data-paper-data="{&quot;index&quot;:null}" stroke-width="0"><path d="M257.66656,196.31733c0.25475,-0.3016 0.71568,-0.24179 1.13586,-0.40842c0.4113,-0.16311 0.78041,-0.55336 1.16867,-0.7788c0.39123,-0.22717 1.20202,0.1515 1.68054,0.09673c0.33273,-0.03808 0.52432,-0.46352 0.87301,-0.46352c0.77175,0 1.55009,-0.20204 2.15864,0.58008c0.48422,0.62234 1.42005,0.31392 1.8134,0.71069c0.56025,0.56512 0.48721,1.26528 0.48721,1.99483c0,1.72498 -1.77985,1.41971 -4.53483,1.41971c-2.75497,0 -5.0639,-0.01923 -5.0639,-1.74421c0,-0.41263 0.01472,-1.09137 0.2814,-1.40708z" fill="#189d16" stroke="#001026"/><g><g fill="#e8e8e8" stroke="none"><path d="M265.25114,196.59974c0.17687,0.33716 0.22807,0.44268 0.11437,0.56473c-0.1137,0.12205 -0.24445,-0.04117 -0.46893,-0.15959c-0.35987,-0.18984 -0.18232,-0.31991 -0.06862,-0.44196c0.1137,-0.12205 0.30046,-0.19712 0.42318,0.03683z"/><path d="M266.03946,197.88788c-0.1137,0.12205 -0.23488,0.31261 -0.41175,-0.07366c-0.11033,-0.24095 -0.26238,-0.38129 -0.14869,-0.50334c0.1137,-0.12205 0.212,-0.06708 0.52612,0.12277c0.21796,0.13172 0.14801,0.33219 0.03431,0.45423z" data-paper-data="{&quot;index&quot;:null}"/><path d="M266.0785,196.55067c0.1137,0.12205 0.29124,0.25211 -0.06862,0.44196c-0.22448,0.11843 -0.35523,0.28164 -0.46893,0.15959c-0.1137,-0.12205 -0.0625,-0.22755 0.11437,-0.56472c0.12272,-0.23395 0.30948,-0.15888 0.42318,-0.03683z" data-paper-data="{&quot;index&quot;:null}"/><path d="M264.84408,197.43364c0.31412,-0.18984 0.41242,-0.24481 0.52612,-0.12277c0.1137,0.12205 -0.03836,0.26239 -0.14869,0.50334c-0.17687,0.38627 -0.29805,0.19571 -0.41174,0.07366c-0.1137,-0.12205 -0.18365,-0.32251 0.03431,-0.45423z" data-paper-data="{&quot;index&quot;:null}"/></g><g fill="#ffffff" stroke="none"><path d="M264.91671,196.92516c0.34718,0.10417 0.4529,0.13992 0.4529,0.31251c0,0.1726 -0.19997,0.15643 -0.43672,0.24307c-0.37953,0.13889 -0.33967,-0.08783 -0.33967,-0.26042c0,-0.1726 0.0826,-0.36743 0.3235,-0.29515z"/><path d="M266.32269,197.23766c0,0.1726 0.03985,0.39932 -0.33967,0.26042c-0.23674,-0.08664 -0.43672,-0.07047 -0.43672,-0.24307c0,-0.1726 0.10572,-0.20834 0.4529,-0.31251c0.2409,-0.07228 0.3235,0.12256 0.3235,0.29515z" data-paper-data="{&quot;index&quot;:null}"/><path d="M265.46935,196.26244c0.1608,0 0.37202,-0.04277 0.24262,0.3646c-0.08072,0.25412 -0.06565,0.46876 -0.22645,0.46876c-0.1608,0 -0.19409,-0.11348 -0.29114,-0.48613c-0.06734,-0.25857 0.11417,-0.34724 0.27497,-0.34724z" data-paper-data="{&quot;index&quot;:null}"/><path d="M265.17824,197.8238c0.09705,-0.37265 0.13035,-0.48613 0.29115,-0.48613c0.1608,0 0.14573,0.21465 0.22645,0.46877c0.1294,0.40738 -0.08183,0.36459 -0.24263,0.36459c-0.1608,0 -0.34231,-0.08866 -0.27497,-0.34723z" data-paper-data="{&quot;index&quot;:null}"/></g><path d="M265.43382,197.46071c-0.12369,0 -0.22396,-0.10762 -0.22396,-0.24039c0,-0.13277 0.10027,-0.2404 0.22396,-0.2404c0.12369,0 0.22396,0.10763 0.22396,0.2404c0,0.13277 -0.10027,0.24039 -0.22396,0.24039z" fill="#fff824" stroke="#001026"/></g><g><g fill="#e8e8e8" stroke="none"><path d="M261.39445,195.7859c0.14796,0.28206 0.1908,0.37033 0.09568,0.47243c-0.09512,0.10209 -0.2045,-0.03444 -0.3923,-0.13351c-0.30105,-0.15882 -0.15253,-0.26763 -0.05741,-0.36972c0.09512,-0.10209 0.25136,-0.1649 0.35402,0.03081z"/><path d="M262.05378,196.86353c-0.09512,0.10209 -0.19649,0.26152 -0.34446,-0.06162c-0.0923,-0.20157 -0.2195,-0.31898 -0.12438,-0.42107c0.09512,-0.10209 0.17736,-0.05612 0.44013,0.1027c0.18233,0.1102 0.12383,0.2779 0.02871,0.37999z" data-paper-data="{&quot;index&quot;:null}"/><path d="M262.08638,195.7448c0.09512,0.10209 0.24364,0.21091 -0.05741,0.36973c-0.18779,0.09907 -0.29718,0.23561 -0.3923,0.13351c-0.09512,-0.10209 -0.05228,-0.19037 0.09569,-0.47243c0.10267,-0.19571 0.2589,-0.1329 0.35402,-0.03081z" data-paper-data="{&quot;index&quot;:null}"/><path d="M261.05392,196.48354c0.26278,-0.15882 0.34501,-0.20479 0.44013,-0.1027c0.09512,0.10209 -0.03209,0.2195 -0.12438,0.42107c-0.14796,0.32314 -0.24934,0.16371 -0.34446,0.06162c-0.09512,-0.10209 -0.15363,-0.26979 0.02871,-0.37999z" data-paper-data="{&quot;index&quot;:null}"/></g><g fill="#ffffff" stroke="none"><path d="M261.11465,196.05813c0.29044,0.08714 0.37888,0.11705 0.37888,0.26144c0,0.14438 -0.16729,0.13085 -0.36534,0.20334c-0.3175,0.1162 -0.28416,-0.07348 -0.28416,-0.21786c0,-0.14438 0.0691,-0.30738 0.27062,-0.24692z"/><path d="M262.29072,196.31959c0,0.14438 0.03334,0.33406 -0.28416,0.21786c-0.19806,-0.07248 -0.36535,-0.05895 -0.36535,-0.20334c0,-0.14438 0.08845,-0.17429 0.37888,-0.26144c0.20152,-0.06046 0.27063,0.10253 0.27063,0.24692z" data-paper-data="{&quot;index&quot;:null}"/><path d="M261.57702,195.50378c0.13451,0 0.31122,-0.03579 0.20297,0.30501c-0.06752,0.21258 -0.05492,0.39216 -0.18944,0.39216c-0.13451,0 -0.16238,-0.09493 -0.24357,-0.40668c-0.05633,-0.21631 0.09552,-0.29049 0.23004,-0.29049z" data-paper-data="{&quot;index&quot;:null}"/><path d="M261.33346,196.8098c0.08119,-0.31175 0.10905,-0.40668 0.24356,-0.40668c0.13451,0 0.12192,0.17957 0.18944,0.39216c0.10825,0.3408 -0.06846,0.30501 -0.20297,0.30501c-0.13451,0 -0.28637,-0.07417 -0.23003,-0.29048z" data-paper-data="{&quot;index&quot;:null}"/></g><path d="M261.54712,196.50617c-0.10348,0 -0.18735,-0.09004 -0.18735,-0.2011c0,-0.11106 0.08388,-0.20111 0.18735,-0.20111c0.10348,0 0.18736,0.09004 0.18736,0.20111c0,0.11106 -0.08389,0.2011 -0.18736,0.2011z" fill="#fff824" stroke="#001026"/></g><g><g fill="#e8e8e8" stroke="none"><path d="M263.01546,197.39218c0.14796,0.28206 0.1908,0.37034 0.09568,0.47243c-0.09512,0.10209 -0.2045,-0.03444 -0.39229,-0.13351c-0.30105,-0.15882 -0.15253,-0.26764 -0.05741,-0.36973c0.09512,-0.10209 0.25135,-0.1649 0.35402,0.03081z"/><path d="M263.67495,198.46982c-0.09512,0.10209 -0.19649,0.26152 -0.34445,-0.06162c-0.09229,-0.20157 -0.21951,-0.31898 -0.12439,-0.42108c0.09512,-0.10209 0.17735,-0.05612 0.44013,0.1027c0.18233,0.1102 0.12383,0.27791 0.02871,0.38z" data-paper-data="{&quot;index&quot;:null}"/><path d="M263.70773,197.35111c0.09512,0.10209 0.24364,0.2109 -0.05741,0.36972c-0.18779,0.09907 -0.29717,0.23561 -0.39229,0.13352c-0.09512,-0.10209 -0.05228,-0.19037 0.09568,-0.47243c0.10267,-0.19571 0.2589,-0.1329 0.35402,-0.03081z" data-paper-data="{&quot;index&quot;:null}"/><path d="M262.67495,198.0898c0.26278,-0.15882 0.34501,-0.20479 0.44013,-0.1027c0.09512,0.10209 -0.03209,0.2195 -0.12439,0.42108c-0.14796,0.32314 -0.24933,0.16372 -0.34445,0.06162c-0.09512,-0.10209 -0.15362,-0.2698 0.02871,-0.38z" data-paper-data="{&quot;index&quot;:null}"/></g><g fill="#ffffff" stroke="none"><path d="M262.73565,197.66439c0.29044,0.08714 0.37887,0.11705 0.37887,0.26143c0,0.14438 -0.16729,0.13086 -0.36534,0.20334c-0.3175,0.1162 -0.28416,-0.07348 -0.28416,-0.21787c0,-0.14438 0.06911,-0.30737 0.27063,-0.24691z"/><path d="M263.91194,197.92585c0,0.14438 0.03334,0.33406 -0.28416,0.21786c-0.19806,-0.07248 -0.36535,-0.05895 -0.36535,-0.20333c0,-0.14438 0.08844,-0.1743 0.37888,-0.26144c0.20153,-0.06046 0.27063,0.10253 0.27063,0.24692z" data-paper-data="{&quot;index&quot;:null}"/><path d="M263.19805,197.11004c0.13452,0 0.31122,-0.03579 0.20297,0.305c-0.06752,0.21258 -0.05492,0.39216 -0.18944,0.39216c-0.13452,0 -0.16237,-0.09493 -0.24356,-0.40668c-0.05633,-0.21631 0.09551,-0.29048 0.23003,-0.29048z" data-paper-data="{&quot;index&quot;:null}"/><path d="M262.95449,198.41609c0.08119,-0.31175 0.10905,-0.40668 0.24356,-0.40668c0.13452,0 0.12192,0.17957 0.18944,0.39216c0.10825,0.3408 -0.06845,0.30501 -0.20297,0.30501c-0.13452,0 -0.28637,-0.07418 -0.23003,-0.29049z" data-paper-data="{&quot;index&quot;:null}"/></g><path d="M263.16833,198.11248c-0.10348,0 -0.18736,-0.09004 -0.18736,-0.20111c0,-0.11106 0.08388,-0.2011 0.18736,-0.2011c0.10348,0 0.18736,0.09004 0.18736,0.2011c0,0.11106 -0.08388,0.20111 -0.18736,0.20111z" fill="#fff824" stroke="#001026"/></g><g><g fill="#e8e8e8" stroke="none"><path d="M259.23282,197.25832c0.14796,0.28206 0.19081,0.37033 0.09569,0.47243c-0.09512,0.10209 -0.2045,-0.03444 -0.3923,-0.13351c-0.30105,-0.15882 -0.15253,-0.26763 -0.05741,-0.36973c0.09512,-0.10209 0.25136,-0.1649 0.35402,0.03081z"/><path d="M259.89232,198.33595c-0.09512,0.10209 -0.19649,0.26152 -0.34445,-0.06162c-0.0923,-0.20157 -0.2195,-0.31898 -0.12438,-0.42108c0.09512,-0.10209 0.17736,-0.05612 0.44013,0.1027c0.18233,0.1102 0.12382,0.2779 0.0287,0.38z" data-paper-data="{&quot;index&quot;:null}"/><path d="M259.92498,197.21722c0.09512,0.10209 0.24364,0.2109 -0.05741,0.36972c-0.18779,0.09907 -0.29718,0.2356 -0.3923,0.13351c-0.09512,-0.10209 -0.05228,-0.19036 0.09568,-0.47242c0.10267,-0.19571 0.2589,-0.1329 0.35402,-0.03081z" data-paper-data="{&quot;index&quot;:null}"/><path d="M258.89232,197.95594c0.26278,-0.15882 0.34501,-0.2048 0.44013,-0.1027c0.09512,0.10209 -0.03209,0.21951 -0.12438,0.42108c-0.14796,0.32314 -0.24934,0.16371 -0.34446,0.06162c-0.09512,-0.10209 -0.15363,-0.2698 0.02871,-0.38z" data-paper-data="{&quot;index&quot;:null}"/></g><g fill="#ffffff" stroke="none"><path d="M258.9531,197.53055c0.29044,0.08714 0.37888,0.11705 0.37888,0.26143c0,0.14438 -0.16729,0.13086 -0.36535,0.20334c-0.3175,0.1162 -0.28415,-0.07348 -0.28415,-0.21786c0,-0.14438 0.0691,-0.30737 0.27062,-0.24691z"/><path d="M260.12932,197.79201c0,0.14438 0.03334,0.33406 -0.28415,0.21787c-0.19806,-0.07248 -0.36535,-0.05895 -0.36535,-0.20334c0,-0.14438 0.08844,-0.17429 0.37888,-0.26144c0.20153,-0.06046 0.27063,0.10252 0.27063,0.24691z" data-paper-data="{&quot;index&quot;:null}"/><path d="M259.41539,196.9762c0.13451,0 0.31122,-0.03579 0.20297,0.30501c-0.06752,0.21258 -0.05492,0.39216 -0.18944,0.39216c-0.13451,0 -0.16238,-0.09493 -0.24357,-0.40668c-0.05633,-0.21631 0.09552,-0.29048 0.23004,-0.29048z" data-paper-data="{&quot;index&quot;:null}"/><path d="M259.17185,198.28232c0.08119,-0.31175 0.10905,-0.40667 0.24357,-0.40667c0.13451,0 0.12192,0.17957 0.18944,0.39215c0.10825,0.3408 -0.06846,0.30501 -0.20297,0.30501c-0.13451,0 -0.28637,-0.07418 -0.23004,-0.29049z" data-paper-data="{&quot;index&quot;:null}"/></g><path d="M259.38558,197.97859c-0.10348,0 -0.18736,-0.09004 -0.18736,-0.20111c0,-0.11106 0.08389,-0.2011 0.18736,-0.2011c0.10348,0 0.18735,0.09004 0.18735,0.2011c0,0.11106 -0.08388,0.20111 -0.18735,0.20111z" fill="#fff824" stroke="#001026"/></g></g><g stroke-width="0"><path d="M282.45297,181.14494v-2.375h0.875v2.375z" fill="#ff0000" stroke="none"/><path d="M283.06059,181.45744v-4.33334h3.55555v4.33334z" fill="#939393" stroke="#001026"/><path d="M283.07797,180.58244v-0.125h3.5625v0.125z" fill="#000000" stroke="none"/></g><g stroke-width="0"><path d="M256.62406,210.09583c0,0.30036 0.16563,0.75433 0.09661,1.03472c-0.07068,0.28716 -0.42387,-0.04918 -0.56818,0.20125c-0.40487,0.70255 -0.59051,1.53185 -1.31914,2.04147c-0.21681,0.15164 -0.14742,-0.17561 -0.46571,-0.08939c-0.47349,0.12825 -1.36362,0.6321 -1.76584,0.6321c-0.23976,0 -0.45329,-0.63056 -0.80452,-0.60166c-0.27385,0.02254 -0.69481,0.71542 -0.86387,0.6642c-0.35545,-0.1077 -0.30429,-0.47481 -0.57585,-0.68473c-0.48659,-0.37615 -0.7377,-0.86847 -1.1214,-1.39935c-0.19913,-0.27552 -0.64073,-0.53188 -0.7312,-0.8504c-0.08215,-0.28925 0.07458,-0.63296 0.07458,-0.9482c0,-0.36794 0.45902,-0.40032 0.56123,-0.73701c0.02105,-0.94163 0.60884,-1.59841 1.3199,-2.15496c0.30929,-0.24209 -0.33604,-0.59683 0.01874,-0.76906c0.35028,-0.17004 1.69993,-0.15911 2.12238,-0.15911c0.32079,0 0.87535,-0.57071 1.17443,-0.50333c0.65428,0.1474 -0.1687,0.91452 0.44622,1.20489c0.32562,0.15376 1.21788,-0.05514 1.16161,0.41619c-0.0403,0.3376 -0.65417,0.5056 -0.35273,0.96855c0.14004,0.21507 0.80435,0.03731 1.107,0.3048c0.17481,0.15451 -0.52038,0.38528 -0.44761,0.6195c0.10317,0.33208 0.93335,0.67107 0.93335,0.80953z" fill="#169114" stroke="#001026"/><path d="M256.25392,210.37791c-0.03762,0.2203 0.02699,0.57403 -0.05875,0.77104c-0.08782,0.20177 -0.30473,-0.08917 -0.44196,0.07643c-0.38497,0.46458 -0.62503,1.0496 -1.2233,1.33211c-0.17802,0.08407 -0.08613,-0.14727 -0.33039,-0.12391c-0.36336,0.03475 -1.07936,0.29281 -1.37438,0.24242c-0.17586,-0.03003 -0.25349,-0.51928 -0.51473,-0.54209c-0.20369,-0.01778 -0.59925,0.4377 -0.71683,0.37895c-0.24722,-0.12352 -0.1637,-0.38638 -0.33659,-0.57437c-0.30978,-0.33686 -0.43229,-0.72941 -0.64722,-1.16686c-0.11155,-0.22703 -0.40333,-0.47039 -0.42979,-0.71535c-0.02402,-0.22245 0.13399,-0.45492 0.17348,-0.68614c0.0461,-0.26988 0.38683,-0.23612 0.50398,-0.47027c0.1334,-0.68803 0.64681,-1.09613 1.23808,-1.41526c0.25719,-0.13881 -0.17171,-0.47985 0.11009,-0.56173c0.27822,-0.08084 1.26679,0.09625 1.57665,0.14917c0.23529,0.04019 0.71354,-0.30895 0.92447,-0.22206c0.46143,0.19008 -0.2383,0.64965 0.17636,0.93966c0.21957,0.15357 0.90019,0.11213 0.79987,0.45078c-0.07185,0.24257 -0.54315,0.2889 -0.38005,0.66622c0.07577,0.17529 0.58529,0.12812 0.77377,0.36224c0.10887,0.13523 -0.42995,0.2174 -0.40591,0.39831c0.03407,0.25649 0.60052,0.60915 0.58317,0.7107z" fill="#19a317" stroke="#001026"/><path d="M254.15195,211.70151c-0.02962,0.17341 0.02124,0.45184 -0.04625,0.60691c-0.06913,0.15882 -0.23986,-0.07019 -0.34787,0.06016c-0.30302,0.36569 -0.49197,0.82617 -0.96289,1.04854c-0.14013,0.06617 -0.0678,-0.11593 -0.26006,-0.09753c-0.286,0.02736 -0.84959,0.23048 -1.08181,0.19082c-0.13842,-0.02364 -0.19952,-0.40874 -0.40516,-0.42669c-0.16033,-0.01399 -0.47169,0.34453 -0.56424,0.29829c-0.19459,-0.09723 -0.12886,-0.30413 -0.26494,-0.45211c-0.24383,-0.26514 -0.34027,-0.57414 -0.50944,-0.91847c-0.0878,-0.1787 -0.31748,-0.37026 -0.33829,-0.56307c-0.0189,-0.17509 0.10547,-0.35808 0.13655,-0.54008c0.03628,-0.21242 0.30448,-0.18586 0.39669,-0.37017c0.105,-0.54156 0.50912,-0.86279 0.97452,-1.11399c0.20244,-0.10926 -0.13516,-0.37771 0.08665,-0.44216c0.219,-0.06363 0.99712,0.07577 1.24102,0.11742c0.1852,0.03163 0.56164,-0.24318 0.72767,-0.17478c0.3632,0.14962 -0.18757,0.51135 0.13882,0.73962c0.17283,0.12088 0.70856,0.08826 0.62959,0.35483c-0.05656,0.19093 -0.42753,0.2274 -0.29915,0.52439c0.05964,0.13798 0.4607,0.10085 0.60906,0.28513c0.08569,0.10644 -0.33843,0.17112 -0.31951,0.31352c0.02682,0.20189 0.47269,0.47947 0.45903,0.55941z" fill="#1cb619" stroke="#001026"/><g><g fill="#e8e8e8" stroke="none"><path d="M252.94009,209.46128c0.13789,0.14801 0.3532,0.30575 -0.08322,0.53599c-0.27223,0.14362 -0.4308,0.34155 -0.56869,0.19355c-0.13789,-0.14801 -0.07579,-0.27597 0.13871,-0.68487c0.14883,-0.28372 0.37532,-0.19268 0.51321,-0.04467z"/><path d="M251.51245,210.5173c0.38094,-0.23023 0.50016,-0.29689 0.63805,-0.14888c0.13789,0.14801 -0.04651,0.31821 -0.18032,0.61042c-0.2145,0.46845 -0.36145,0.23733 -0.49934,0.08932c-0.13789,-0.14801 -0.22272,-0.39111 0.04161,-0.55086z" data-paper-data="{&quot;index&quot;:null}"/><path d="M251.93676,209.49108c0.2145,0.4089 0.27659,0.53685 0.1387,0.68486c-0.13789,0.14801 -0.29646,-0.04993 -0.56869,-0.19355c-0.43643,-0.23023 -0.22111,-0.38798 -0.08322,-0.53599c0.13789,-0.14801 0.36438,-0.23904 0.51322,0.04467z" data-paper-data="{&quot;index&quot;:null}"/><path d="M252.9622,211.06816c-0.13789,0.14801 -0.28484,0.37912 -0.49934,-0.08932c-0.1338,-0.29221 -0.31822,-0.46241 -0.18033,-0.61042c0.13789,-0.14801 0.25711,-0.08136 0.63805,0.14888c0.26433,0.15975 0.17951,0.40285 0.04162,0.55086z" data-paper-data="{&quot;index&quot;:null}"/></g><g fill="#ffffff" stroke="none"><path d="M253.22481,210.25854c0,0.20932 0.04833,0.48427 -0.41194,0.31582c-0.28711,-0.10507 -0.52963,-0.08546 -0.52963,-0.29477c0,-0.20932 0.12821,-0.25266 0.54925,-0.37899c0.29215,-0.08766 0.39232,0.14863 0.39232,0.35794z"/><path d="M251.51966,209.92163c0.42104,0.12633 0.54926,0.16969 0.54926,0.379c0,0.20932 -0.24253,0.1897 -0.52964,0.29477c-0.46027,0.16844 -0.41193,-0.10652 -0.41193,-0.31583c0,-0.20932 0.10017,-0.4456 0.39231,-0.35794z" data-paper-data="{&quot;index&quot;:null}"/><path d="M252.4957,209.51804c-0.11769,0.45193 -0.15808,0.58955 -0.35309,0.58955c-0.19501,0 -0.17673,-0.26031 -0.27462,-0.56849c-0.15693,-0.49404 0.09923,-0.44216 0.29424,-0.44216c0.19501,0 0.41513,0.10752 0.33347,0.4211z" data-paper-data="{&quot;index&quot;:null}"/><path d="M252.18185,211.41148c-0.19501,0 -0.45117,0.05188 -0.29424,-0.44216c0.09789,-0.30818 0.07961,-0.5685 0.27462,-0.5685c0.19501,0 0.2354,0.13762 0.35309,0.58955c0.08166,0.31358 -0.13847,0.42111 -0.33347,0.42111z" data-paper-data="{&quot;index&quot;:null}"/></g><path d="M251.93392,210.25854c0,-0.16101 0.1216,-0.29154 0.27161,-0.29154c0.15,0 0.2716,0.13053 0.2716,0.29154c0,0.16101 -0.1216,0.29154 -0.2716,0.29154c-0.15,0 -0.27161,-0.13053 -0.27161,-0.29154z" fill="#fff824" stroke="#001026"/></g><g><g fill="#e8e8e8" stroke="none"><path d="M256.46281,208.94156c0.13789,0.14801 0.3532,0.30575 -0.08322,0.53598c-0.27223,0.14362 -0.4308,0.34156 -0.56869,0.19355c-0.13789,-0.14801 -0.07579,-0.27597 0.13871,-0.68487c0.14883,-0.28372 0.37532,-0.19268 0.5132,-0.04467z"/><path d="M255.03519,209.99753c0.38094,-0.23023 0.50016,-0.2969 0.63805,-0.14889c0.13789,0.14801 -0.04651,0.31821 -0.18031,0.61042c-0.2145,0.46845 -0.36146,0.23734 -0.49935,0.08933c-0.13789,-0.14801 -0.22271,-0.39112 0.04162,-0.55087z" data-paper-data="{&quot;index&quot;:null}"/><path d="M255.4595,208.97137c0.2145,0.4089 0.27659,0.53685 0.1387,0.68486c-0.13789,0.14801 -0.29646,-0.04993 -0.56869,-0.19355c-0.43643,-0.23023 -0.22111,-0.38797 -0.08322,-0.53598c0.13789,-0.14801 0.36438,-0.23904 0.51322,0.04467z" data-paper-data="{&quot;index&quot;:null}"/><path d="M256.48487,210.54839c-0.13789,0.14801 -0.28484,0.37911 -0.49934,-0.08933c-0.1338,-0.29221 -0.31821,-0.46241 -0.18032,-0.61042c0.13789,-0.14801 0.25711,-0.08135 0.63805,0.14889c0.26433,0.15975 0.1795,0.40286 0.04161,0.55087z" data-paper-data="{&quot;index&quot;:null}"/></g><g fill="#ffffff" stroke="none"><path d="M256.74755,209.73877c0,0.20932 0.04833,0.48427 -0.41194,0.31582c-0.28711,-0.10507 -0.52963,-0.08546 -0.52963,-0.29477c0,-0.20932 0.12821,-0.25266 0.54925,-0.37899c0.29215,-0.08766 0.39232,0.14863 0.39232,0.35794z"/><path d="M255.04244,209.40189c0.42104,0.12633 0.54925,0.16968 0.54925,0.379c0,0.20932 -0.24252,0.18971 -0.52963,0.29478c-0.46027,0.16844 -0.41193,-0.10652 -0.41193,-0.31583c0,-0.20932 0.10017,-0.4456 0.39232,-0.35794z" data-paper-data="{&quot;index&quot;:null}"/><path d="M256.01842,208.99833c-0.11769,0.45193 -0.15808,0.58955 -0.35308,0.58955c-0.19501,0 -0.17673,-0.26031 -0.27463,-0.56849c-0.15693,-0.49404 0.09923,-0.44217 0.29424,-0.44217c0.19501,0 0.41513,0.10753 0.33347,0.42111z" data-paper-data="{&quot;index&quot;:null}"/><path d="M255.70459,210.89176c-0.19501,0 -0.45117,0.05188 -0.29424,-0.44216c0.09789,-0.30818 0.07962,-0.5685 0.27462,-0.5685c0.19501,0 0.23539,0.13762 0.35309,0.58955c0.08166,0.31358 -0.13846,0.42111 -0.33347,0.42111z" data-paper-data="{&quot;index&quot;:null}"/></g><path d="M255.45666,209.73877c0,-0.16101 0.1216,-0.29154 0.2716,-0.29154c0.15,0 0.2716,0.13053 0.2716,0.29154c0,0.16101 -0.1216,0.29153 -0.2716,0.29153c-0.15,0 -0.2716,-0.13052 -0.2716,-0.29153z" fill="#fff824" stroke="#001026"/></g><g><g fill="#e8e8e8" stroke="none"><path d="M254.03731,212.63756c0.13789,0.14801 0.3532,0.30574 -0.08322,0.53598c-0.27223,0.14362 -0.4308,0.34156 -0.56869,0.19355c-0.13789,-0.14801 -0.07579,-0.27597 0.13871,-0.68486c0.14883,-0.28372 0.37532,-0.19268 0.5132,-0.04467z"/><path d="M252.60969,213.69352c0.38094,-0.23023 0.50016,-0.2969 0.63805,-0.14889c0.13789,0.14801 -0.04652,0.31821 -0.18032,0.61042c-0.2145,0.46845 -0.36145,0.23734 -0.49934,0.08933c-0.13789,-0.14801 -0.22271,-0.39112 0.04161,-0.55087z" data-paper-data="{&quot;index&quot;:null}"/><path d="M253.03402,212.66731c0.2145,0.4089 0.27659,0.53685 0.1387,0.68486c-0.13789,0.14801 -0.29645,-0.04993 -0.56869,-0.19355c-0.43643,-0.23023 -0.22111,-0.38797 -0.08322,-0.53598c0.13789,-0.14801 0.36438,-0.23905 0.51321,0.04466z" data-paper-data="{&quot;index&quot;:null}"/><path d="M254.05937,214.24439c-0.13789,0.14801 -0.28484,0.37911 -0.49934,-0.08933c-0.1338,-0.29221 -0.31821,-0.46241 -0.18032,-0.61042c0.13789,-0.14801 0.25711,-0.08135 0.63805,0.14889c0.26433,0.15975 0.1795,0.40286 0.04161,0.55087z" data-paper-data="{&quot;index&quot;:null}"/></g><g fill="#ffffff" stroke="none"><path d="M254.32207,213.43476c0,0.20932 0.04833,0.48428 -0.41194,0.31584c-0.28711,-0.10507 -0.52963,-0.08546 -0.52963,-0.29478c0,-0.20932 0.12821,-0.25267 0.54925,-0.379c0.29215,-0.08766 0.39232,0.14862 0.39232,0.35793z"/><path d="M252.61692,213.09785c0.42104,0.12633 0.54925,0.16968 0.54925,0.379c0,0.20932 -0.24252,0.1897 -0.52963,0.29477c-0.46027,0.16844 -0.41194,-0.10652 -0.41194,-0.31583c0,-0.20932 0.10018,-0.44559 0.39232,-0.35794z" data-paper-data="{&quot;index&quot;:null}"/><path d="M253.59292,212.69426c-0.11769,0.45193 -0.15808,0.58955 -0.35309,0.58955c-0.19501,0 -0.17673,-0.26032 -0.27462,-0.5685c-0.15693,-0.49404 0.09923,-0.44216 0.29424,-0.44216c0.19501,0 0.41513,0.10753 0.33347,0.42111z" data-paper-data="{&quot;index&quot;:null}"/><path d="M253.27907,214.5877c-0.19501,0 -0.45117,0.05188 -0.29424,-0.44216c0.09789,-0.30818 0.07962,-0.56849 0.27463,-0.56849c0.19501,0 0.23539,0.13762 0.35308,0.58955c0.08166,0.31358 -0.13846,0.4211 -0.33347,0.4211z" data-paper-data="{&quot;index&quot;:null}"/></g><path d="M253.03114,213.43476c0,-0.16101 0.1216,-0.29153 0.2716,-0.29153c0.15,0 0.2716,0.13052 0.2716,0.29153c0,0.16101 -0.1216,0.29154 -0.2716,0.29154c-0.15,0 -0.2716,-0.13053 -0.2716,-0.29154z" fill="#fff824" stroke="#001026"/></g><g><g fill="#e8e8e8" stroke="none"><path d="M253.9219,206.22729c0.13789,0.14801 0.3532,0.30575 -0.08322,0.53599c-0.27223,0.14362 -0.43081,0.34155 -0.5687,0.19355c-0.13789,-0.14801 -0.07579,-0.27597 0.13871,-0.68487c0.14883,-0.28372 0.37533,-0.19268 0.51322,-0.04467z"/><path d="M252.49426,207.28326c0.38094,-0.23023 0.50016,-0.29689 0.63805,-0.14888c0.13789,0.14801 -0.04651,0.31821 -0.18032,0.61042c-0.2145,0.46845 -0.36145,0.23734 -0.49934,0.08933c-0.13789,-0.14801 -0.22272,-0.39112 0.04161,-0.55087z" data-paper-data="{&quot;index&quot;:null}"/><path d="M252.91848,206.25711c0.2145,0.4089 0.2766,0.53685 0.13871,0.68486c-0.13789,0.14801 -0.29646,-0.04993 -0.5687,-0.19355c-0.43643,-0.23023 -0.22111,-0.38797 -0.08322,-0.53598c0.13789,-0.14801 0.36438,-0.23905 0.51322,0.04467z" data-paper-data="{&quot;index&quot;:null}"/><path d="M253.94392,207.83419c-0.13789,0.14801 -0.28485,0.37911 -0.49935,-0.08933c-0.1338,-0.29221 -0.3182,-0.46241 -0.18031,-0.61042c0.13789,-0.14801 0.2571,-0.08135 0.63805,0.14888c0.26433,0.15975 0.1795,0.40286 0.04161,0.55087z" data-paper-data="{&quot;index&quot;:null}"/></g><g fill="#ffffff" stroke="none"><path d="M254.20657,207.02457c0,0.20932 0.04834,0.48427 -0.41193,0.31583c-0.28711,-0.10507 -0.52964,-0.08546 -0.52964,-0.29478c0,-0.20932 0.12821,-0.25266 0.54925,-0.37899c0.29215,-0.08766 0.39231,0.14862 0.39231,0.35794z"/><path d="M252.50142,206.68766c0.42104,0.12633 0.54925,0.16968 0.54925,0.379c0,0.20932 -0.24252,0.18971 -0.52963,0.29478c-0.46027,0.16844 -0.41194,-0.10651 -0.41194,-0.31583c0,-0.20932 0.10018,-0.4456 0.39232,-0.35795z" data-paper-data="{&quot;index&quot;:null}"/><path d="M253.47744,206.28407c-0.11769,0.45193 -0.15808,0.58955 -0.35309,0.58955c-0.19501,0 -0.17673,-0.26031 -0.27463,-0.56849c-0.15693,-0.49404 0.09924,-0.44217 0.29425,-0.44217c0.19501,0 0.41513,0.10753 0.33347,0.42111z" data-paper-data="{&quot;index&quot;:null}"/><path d="M253.16357,208.1775c-0.19501,0 -0.45117,0.05188 -0.29424,-0.44216c0.09789,-0.30818 0.07962,-0.56849 0.27463,-0.56849c0.19501,0 0.23539,0.13761 0.35309,0.58954c0.08166,0.31358 -0.13847,0.42111 -0.33347,0.42111z" data-paper-data="{&quot;index&quot;:null}"/></g><path d="M252.91566,207.02457c0,-0.16101 0.12161,-0.29154 0.27161,-0.29154c0.15,0 0.2716,0.13053 0.2716,0.29154c0,0.16101 -0.1216,0.29153 -0.2716,0.29153c-0.15,0 -0.27161,-0.13052 -0.27161,-0.29153z" fill="#fff824" stroke="#001026"/></g><g><g fill="#e8e8e8" stroke="none"><path d="M250.68786,211.71351c0.13789,0.14801 0.3532,0.30574 -0.08322,0.53598c-0.27223,0.14362 -0.4308,0.34157 -0.56869,0.19356c-0.13789,-0.14801 -0.07579,-0.27597 0.13871,-0.68487c0.14883,-0.28372 0.37532,-0.19268 0.5132,-0.04467z"/><path d="M249.2602,212.76948c0.38094,-0.23023 0.50016,-0.2969 0.63805,-0.14889c0.13789,0.14801 -0.04652,0.31821 -0.18032,0.61042c-0.2145,0.46845 -0.36145,0.23734 -0.49934,0.08933c-0.13789,-0.14801 -0.22271,-0.39112 0.04161,-0.55087z" data-paper-data="{&quot;index&quot;:null}"/><path d="M249.68451,211.74332c0.2145,0.4089 0.27659,0.53685 0.1387,0.68486c-0.13789,0.14801 -0.29645,-0.04993 -0.56869,-0.19355c-0.43643,-0.23023 -0.22111,-0.38797 -0.08322,-0.53598c0.13789,-0.14801 0.36438,-0.23905 0.51321,0.04467z" data-paper-data="{&quot;index&quot;:null}"/><path d="M250.70986,213.32036c-0.13789,0.14801 -0.28484,0.37912 -0.49934,-0.08933c-0.1338,-0.29221 -0.31821,-0.46241 -0.18032,-0.61042c0.13789,-0.14801 0.25711,-0.08135 0.63805,0.14889c0.26433,0.15975 0.1795,0.40286 0.04161,0.55087z" data-paper-data="{&quot;index&quot;:null}"/></g><g fill="#ffffff" stroke="none"><path d="M250.97256,212.51079c0,0.20932 0.04833,0.48427 -0.41194,0.31582c-0.28711,-0.10507 -0.52963,-0.08546 -0.52963,-0.29477c0,-0.20932 0.12821,-0.25267 0.54925,-0.379c0.29215,-0.08766 0.39232,0.14863 0.39232,0.35795z"/><path d="M249.26745,212.17392c0.42104,0.12633 0.54925,0.16968 0.54925,0.379c0,0.20932 -0.24252,0.18971 -0.52963,0.29478c-0.46027,0.16844 -0.41194,-0.10652 -0.41194,-0.31583c0,-0.20932 0.10018,-0.4456 0.39232,-0.35794z" data-paper-data="{&quot;index&quot;:null}"/><path d="M250.24347,211.77027c-0.11769,0.45193 -0.15808,0.58955 -0.35309,0.58955c-0.19501,0 -0.17673,-0.26031 -0.27462,-0.56849c-0.15693,-0.49404 0.09923,-0.44217 0.29424,-0.44217c0.19501,0 0.41513,0.10753 0.33347,0.42111z" data-paper-data="{&quot;index&quot;:null}"/><path d="M249.9296,213.66371c-0.19501,0 -0.45117,0.05188 -0.29424,-0.44216c0.09789,-0.30818 0.07962,-0.56849 0.27463,-0.56849c0.19501,0 0.23539,0.13762 0.35308,0.58955c0.08166,0.31358 -0.13846,0.4211 -0.33347,0.4211z" data-paper-data="{&quot;index&quot;:null}"/></g><path d="M249.68167,212.51079c0,-0.16101 0.1216,-0.29154 0.2716,-0.29154c0.15,0 0.27161,0.13053 0.27161,0.29154c0,0.16101 -0.12161,0.29153 -0.27161,0.29153c-0.15,0 -0.2716,-0.13052 -0.2716,-0.29153z" fill="#fff824" stroke="#001026"/></g><g><g fill="#e8e8e8" stroke="none"><path d="M256.74577,211.57491c0.13789,0.14801 0.35321,0.30574 -0.08322,0.53598c-0.27223,0.14362 -0.43081,0.34156 -0.5687,0.19355c-0.13789,-0.14801 -0.07579,-0.27596 0.13871,-0.68486c0.14883,-0.28372 0.37532,-0.19268 0.51321,-0.04467z"/><path d="M255.3182,212.63093c0.38094,-0.23023 0.50016,-0.29689 0.63805,-0.14888c0.13789,0.14801 -0.04652,0.31821 -0.18032,0.61042c-0.2145,0.46845 -0.36145,0.23734 -0.49934,0.08933c-0.13789,-0.14801 -0.22272,-0.39112 0.04161,-0.55087z" data-paper-data="{&quot;index&quot;:null}"/><path d="M255.74246,211.60471c0.2145,0.4089 0.27659,0.53686 0.1387,0.68487c-0.13789,0.14801 -0.29646,-0.04993 -0.56869,-0.19355c-0.43643,-0.23023 -0.22111,-0.38796 -0.08322,-0.53597c0.13789,-0.14801 0.36438,-0.23906 0.51321,0.04466z" data-paper-data="{&quot;index&quot;:null}"/><path d="M256.76788,213.1818c-0.13789,0.14801 -0.28485,0.37912 -0.49935,-0.08933c-0.1338,-0.29221 -0.31821,-0.46241 -0.18032,-0.61042c0.13789,-0.14801 0.2571,-0.08136 0.63805,0.14888c0.26433,0.15975 0.17951,0.40286 0.04162,0.55087z" data-paper-data="{&quot;index&quot;:null}"/></g><g fill="#ffffff" stroke="none"><path d="M257.03049,212.37217c0,0.20932 0.04833,0.48428 -0.41194,0.31584c-0.28711,-0.10507 -0.52963,-0.08546 -0.52963,-0.29478c0,-0.20932 0.12821,-0.25267 0.54925,-0.379c0.29215,-0.08766 0.39232,0.14862 0.39232,0.35793z"/><path d="M255.32536,212.03526c0.42104,0.12633 0.54925,0.16968 0.54925,0.379c0,0.20932 -0.24253,0.18971 -0.52964,0.29478c-0.46027,0.16844 -0.41193,-0.10651 -0.41193,-0.31583c0,-0.20932 0.10017,-0.4456 0.39231,-0.35795z" data-paper-data="{&quot;index&quot;:null}"/><path d="M256.3014,211.63167c-0.11769,0.45193 -0.15808,0.58955 -0.35309,0.58955c-0.19501,0 -0.17673,-0.26032 -0.27462,-0.5685c-0.15693,-0.49404 0.09923,-0.44216 0.29423,-0.44216c0.19501,0 0.41514,0.10753 0.33347,0.42111z" data-paper-data="{&quot;index&quot;:null}"/><path d="M255.98755,213.52511c-0.19501,0 -0.45117,0.05188 -0.29424,-0.44216c0.09789,-0.30818 0.07961,-0.5685 0.27462,-0.5685c0.19501,0 0.2354,0.13761 0.35309,0.58954c0.08166,0.31358 -0.13847,0.42111 -0.33347,0.42111z" data-paper-data="{&quot;index&quot;:null}"/></g><path d="M255.73962,212.37217c0,-0.16101 0.1216,-0.29153 0.2716,-0.29153c0.15,0 0.2716,0.13052 0.2716,0.29153c0,0.16101 -0.1216,0.29154 -0.2716,0.29154c-0.15,0 -0.2716,-0.13053 -0.2716,-0.29154z" fill="#fff824" stroke="#001026"/></g><g><g fill="#e8e8e8" stroke="none"><path d="M250.94779,207.5902c0.13789,0.14801 0.35321,0.30574 -0.08322,0.53598c-0.27223,0.14362 -0.4308,0.34157 -0.56869,0.19356c-0.13789,-0.14801 -0.07579,-0.27597 0.1387,-0.68487c0.14883,-0.28372 0.37532,-0.19268 0.51321,-0.04467z"/><path d="M249.52011,208.64617c0.38094,-0.23023 0.50015,-0.29689 0.63804,-0.14888c0.13789,0.14801 -0.04651,0.31821 -0.18031,0.61042c-0.2145,0.46845 -0.36145,0.23734 -0.49934,0.08933c-0.13789,-0.14801 -0.22271,-0.39112 0.04161,-0.55087z" data-paper-data="{&quot;index&quot;:null}"/><path d="M249.94437,207.62001c0.2145,0.4089 0.2766,0.53685 0.13871,0.68486c-0.13789,0.14801 -0.29647,-0.04993 -0.5687,-0.19355c-0.43643,-0.23023 -0.22111,-0.38797 -0.08322,-0.53598c0.13789,-0.14801 0.36438,-0.23905 0.51321,0.04467z" data-paper-data="{&quot;index&quot;:null}"/><path d="M250.96981,209.19703c-0.13789,0.14801 -0.28484,0.37912 -0.49934,-0.08933c-0.1338,-0.29221 -0.31821,-0.46241 -0.18032,-0.61042c0.13789,-0.14801 0.25711,-0.08135 0.63805,0.14888c0.26433,0.15975 0.1795,0.40286 0.04161,0.55087z" data-paper-data="{&quot;index&quot;:null}"/></g><g fill="#ffffff" stroke="none"><path d="M251.23242,208.38747c0,0.20932 0.04834,0.48427 -0.41193,0.31582c-0.28711,-0.10507 -0.52963,-0.08546 -0.52963,-0.29477c0,-0.20932 0.12821,-0.25267 0.54925,-0.379c0.29215,-0.08766 0.39231,0.14863 0.39231,0.35795z"/><path d="M249.52731,208.05055c0.42104,0.12633 0.54925,0.16968 0.54925,0.379c0,0.20932 -0.24251,0.1897 -0.52963,0.29477c-0.46027,0.16844 -0.41194,-0.10651 -0.41194,-0.31583c0,-0.20932 0.10017,-0.4456 0.39232,-0.35794z" data-paper-data="{&quot;index&quot;:null}"/><path d="M250.5034,207.64697c-0.11769,0.45193 -0.15808,0.58955 -0.35309,0.58955c-0.19501,0 -0.17673,-0.26031 -0.27462,-0.56849c-0.15693,-0.49404 0.09923,-0.44217 0.29424,-0.44217c0.19501,0 0.41514,0.10753 0.33347,0.42111z" data-paper-data="{&quot;index&quot;:null}"/><path d="M250.18946,209.5404c-0.19501,0 -0.45117,0.05188 -0.29424,-0.44216c0.09789,-0.30818 0.07962,-0.56849 0.27463,-0.56849c0.19501,0 0.23539,0.13761 0.35309,0.58954c0.08166,0.31358 -0.13846,0.42111 -0.33347,0.42111z" data-paper-data="{&quot;index&quot;:null}"/></g><path d="M249.94158,208.38747c0,-0.16101 0.1216,-0.29154 0.2716,-0.29154c0.15,0 0.27161,0.13053 0.27161,0.29154c0,0.16101 -0.12161,0.29153 -0.27161,0.29153c-0.15,0 -0.2716,-0.13052 -0.2716,-0.29153z" fill="#fff824" stroke="#001026"/></g><g><g fill="#e45e5e" stroke="none"><path d="M251.9595,206.19818c0.11384,0.12219 0.2916,0.25241 -0.0687,0.44249c-0.22475,0.11857 -0.35566,0.28198 -0.4695,0.15979c-0.11384,-0.12219 -0.06258,-0.22784 0.11451,-0.56541c0.12287,-0.23423 0.30985,-0.15906 0.4237,-0.03687z"/><path d="M250.78096,207.06991c0.3145,-0.19008 0.41292,-0.24511 0.52676,-0.12292c0.11384,0.12219 -0.0384,0.26271 -0.14887,0.50395c-0.17709,0.38674 -0.29841,0.19594 -0.41225,0.07376c-0.11384,-0.12219 -0.18385,-0.3229 0.03436,-0.45479z" data-paper-data="{&quot;index&quot;:null}"/><path d="M251.13115,206.22272c0.17709,0.33757 0.22836,0.44322 0.11452,0.56541c-0.11384,0.12219 -0.24476,-0.04122 -0.46951,-0.15979c-0.3603,-0.19008 -0.18255,-0.32031 -0.0687,-0.4425c0.11384,-0.12219 0.30083,-0.19736 0.4237,0.03687z" data-paper-data="{&quot;index&quot;:null}"/><path d="M251.97778,207.52474c-0.11384,0.12219 -0.23516,0.31298 -0.41225,-0.07376c-0.11047,-0.24124 -0.26271,-0.38176 -0.14887,-0.50395c0.11384,-0.12219 0.21226,-0.06716 0.52676,0.12292c0.21821,0.13189 0.1482,0.3326 0.03436,0.45479z" data-paper-data="{&quot;index&quot;:null}"/></g><g fill="#ff6969" stroke="none"><path d="M252.19455,206.85632c0,0.17281 0.03991,0.3998 -0.34008,0.26074c-0.23703,-0.08675 -0.43725,-0.07055 -0.43725,-0.24336c0,-0.17281 0.10584,-0.2086 0.45344,-0.31289c0.24119,-0.07237 0.32389,0.1227 0.32389,0.29551z"/><path d="M250.78686,206.5782c0.3476,0.1043 0.45345,0.14008 0.45345,0.31289c0,0.17281 -0.20022,0.15662 -0.43725,0.24336c-0.37999,0.13906 -0.34008,-0.08793 -0.34008,-0.26074c0,-0.17281 0.0827,-0.36788 0.32389,-0.29551z" data-paper-data="{&quot;index&quot;:null}"/><path d="M251.59265,206.24502c-0.09716,0.37311 -0.13051,0.48672 -0.2915,0.48672c-0.16099,0 -0.14591,-0.21492 -0.22672,-0.46934c-0.12956,-0.40787 0.08192,-0.36504 0.24291,-0.36504c0.16099,0 0.34273,0.08878 0.27531,0.34766z" data-paper-data="{&quot;index&quot;:null}"/><path d="M251.33355,207.80814c-0.16099,0 -0.37248,0.04283 -0.24292,-0.36504c0.08082,-0.25442 0.06573,-0.46933 0.22672,-0.46933c0.16099,0 0.19434,0.11361 0.2915,0.48672c0.06742,0.25888 -0.11431,0.34766 -0.2753,0.34766z" data-paper-data="{&quot;index&quot;:null}"/></g><path d="M251.12885,206.85632c0,-0.13293 0.10039,-0.24069 0.22423,-0.24069c0.12384,0 0.22423,0.10776 0.22423,0.24069c0,0.13293 -0.10039,0.24068 -0.22423,0.24068c-0.12384,0 -0.22423,-0.10775 -0.22423,-0.24068z" fill="#fff824" stroke="#001026"/></g><g><g fill="#e45e5e" stroke="none"><path d="M250.09999,209.63426c0.11384,0.12219 0.29159,0.25242 -0.06871,0.4425c-0.22475,0.11857 -0.35566,0.28197 -0.4695,0.15978c-0.11384,-0.12219 -0.06258,-0.22782 0.11451,-0.5654c0.12287,-0.23423 0.30985,-0.15906 0.4237,-0.03688z"/><path d="M248.92136,210.50604c0.3145,-0.19008 0.41292,-0.2451 0.52676,-0.12291c0.11384,0.12219 -0.03841,0.2627 -0.14887,0.50394c-0.17709,0.38674 -0.2984,0.19594 -0.41224,0.07375c-0.11384,-0.12219 -0.18386,-0.3229 0.03436,-0.45478z" data-paper-data="{&quot;index&quot;:null}"/><path d="M249.27164,209.65887c0.17709,0.33757 0.22835,0.44322 0.11451,0.5654c-0.11384,0.12219 -0.24476,-0.04121 -0.46951,-0.15978c-0.3603,-0.19008 -0.18255,-0.3203 -0.0687,-0.44249c0.11384,-0.12219 0.30083,-0.19736 0.4237,0.03687z" data-paper-data="{&quot;index&quot;:null}"/><path d="M250.1182,210.96081c-0.11384,0.12219 -0.23516,0.31299 -0.41225,-0.07375c-0.11047,-0.24124 -0.26271,-0.38175 -0.14887,-0.50394c0.11384,-0.12219 0.21225,-0.06717 0.52676,0.12291c0.21821,0.13189 0.1482,0.33259 0.03436,0.45478z" data-paper-data="{&quot;index&quot;:null}"/></g><g fill="#ff6969" stroke="none"><path d="M250.33504,210.29247c0,0.17281 0.0399,0.3998 -0.34009,0.26074c-0.23703,-0.08675 -0.43725,-0.07055 -0.43725,-0.24336c0,-0.17281 0.10585,-0.2086 0.45345,-0.31289c0.24119,-0.07237 0.32389,0.1227 0.32389,0.29551z"/><path d="M248.92735,210.01435c0.3476,0.1043 0.45344,0.14008 0.45344,0.31289c0,0.17281 -0.20021,0.15661 -0.43724,0.24336c-0.37999,0.13906 -0.34009,-0.08794 -0.34009,-0.26074c0,-0.17281 0.08271,-0.36787 0.32389,-0.2955z" data-paper-data="{&quot;index&quot;:null}"/><path d="M249.73314,209.68109c-0.09716,0.37311 -0.13051,0.48672 -0.2915,0.48672c-0.16099,0 -0.1459,-0.21491 -0.22672,-0.46934c-0.12956,-0.40787 0.08192,-0.36505 0.24291,-0.36505c0.16099,0 0.34273,0.08877 0.27531,0.34766z" data-paper-data="{&quot;index&quot;:null}"/><path d="M249.474,211.2443c-0.16099,0 -0.37247,0.04283 -0.24291,-0.36504c0.08082,-0.25442 0.06573,-0.46934 0.22672,-0.46934c0.16099,0 0.19434,0.11361 0.29151,0.48672c0.06742,0.25888 -0.11433,0.34766 -0.27532,0.34766z" data-paper-data="{&quot;index&quot;:null}"/></g><path d="M249.26934,210.29247c0,-0.13293 0.10039,-0.24069 0.22423,-0.24069c0.12384,0 0.22423,0.10776 0.22423,0.24069c0,0.13293 -0.10039,0.24068 -0.22423,0.24068c-0.12384,0 -0.22423,-0.10775 -0.22423,-0.24068z" fill="#fff824" stroke="#001026"/></g><g><g fill="#e45e5e" stroke="none"><path d="M254.18293,208.38111c0.11384,0.12219 0.2916,0.25242 -0.0687,0.4425c-0.22475,0.11857 -0.35566,0.28198 -0.4695,0.15979c-0.11384,-0.12219 -0.06257,-0.22784 0.11451,-0.56541c0.12287,-0.23423 0.30985,-0.15906 0.4237,-0.03688z"/><path d="M253.00426,209.25289c0.3145,-0.19008 0.41291,-0.2451 0.52675,-0.12292c0.11384,0.12219 -0.0384,0.2627 -0.14886,0.50395c-0.17709,0.38674 -0.29841,0.19594 -0.41225,0.07375c-0.11384,-0.12219 -0.18385,-0.3229 0.03436,-0.45478z" data-paper-data="{&quot;index&quot;:null}"/><path d="M253.35458,208.40567c0.17709,0.33757 0.22835,0.44323 0.11451,0.56542c-0.11384,0.12219 -0.24475,-0.04122 -0.4695,-0.1598c-0.3603,-0.19008 -0.18255,-0.3203 -0.0687,-0.44249c0.11384,-0.12219 0.30083,-0.19736 0.4237,0.03687z" data-paper-data="{&quot;index&quot;:null}"/><path d="M254.20108,209.70763c-0.11384,0.12219 -0.23516,0.31299 -0.41225,-0.07375c-0.11047,-0.24124 -0.26271,-0.38176 -0.14887,-0.50395c0.11384,-0.12219 0.21226,-0.06716 0.52676,0.12292c0.21821,0.13189 0.14819,0.33259 0.03435,0.45478z" data-paper-data="{&quot;index&quot;:null}"/></g><g fill="#ff6969" stroke="none"><path d="M254.41794,209.03925c0,0.17281 0.0399,0.3998 -0.34009,0.26074c-0.23703,-0.08675 -0.43725,-0.07055 -0.43725,-0.24335c0,-0.17281 0.10584,-0.2086 0.45344,-0.31289c0.24119,-0.07237 0.32389,0.1227 0.32389,0.29551z"/><path d="M253.0102,208.76115c0.3476,0.1043 0.45345,0.14008 0.45345,0.31289c0,0.17281 -0.20022,0.15661 -0.43725,0.24336c-0.37999,0.13906 -0.34008,-0.08793 -0.34008,-0.26074c0,-0.17281 0.0827,-0.36788 0.32388,-0.29551z" data-paper-data="{&quot;index&quot;:null}"/><path d="M253.81604,208.42795c-0.09716,0.37311 -0.13051,0.48672 -0.2915,0.48672c-0.16099,0 -0.14591,-0.21491 -0.22673,-0.46934c-0.12956,-0.40787 0.08193,-0.36504 0.24292,-0.36504c0.16099,0 0.34273,0.08877 0.27531,0.34766z" data-paper-data="{&quot;index&quot;:null}"/><path d="M253.55694,209.99109c-0.16099,0 -0.37247,0.04282 -0.24292,-0.36505c0.08082,-0.25442 0.06573,-0.46933 0.22672,-0.46933c0.16099,0 0.19434,0.11361 0.2915,0.48671c0.06742,0.25888 -0.11432,0.34766 -0.27531,0.34766z" data-paper-data="{&quot;index&quot;:null}"/></g><path d="M253.35224,209.03925c0,-0.13293 0.10039,-0.24068 0.22423,-0.24068c0.12384,0 0.22424,0.10775 0.22424,0.24068c0,0.13293 -0.1004,0.24069 -0.22424,0.24069c-0.12384,0 -0.22423,-0.10776 -0.22423,-0.24069z" fill="#fff824" stroke="#001026"/></g><g><g fill="#e45e5e" stroke="none"><path d="M254.99138,211.12996c0.11384,0.12219 0.29159,0.25242 -0.06871,0.4425c-0.22475,0.11857 -0.35566,0.28198 -0.4695,0.15979c-0.11384,-0.12219 -0.06257,-0.22783 0.11451,-0.5654c0.12287,-0.23423 0.30985,-0.15907 0.4237,-0.03688z"/><path d="M253.81277,212.00174c0.3145,-0.19008 0.41292,-0.2451 0.52676,-0.12291c0.11384,0.12219 -0.0384,0.26271 -0.14887,0.50395c-0.17709,0.38674 -0.29841,0.19593 -0.41225,0.07375c-0.11384,-0.12219 -0.18386,-0.3229 0.03436,-0.45479z" data-paper-data="{&quot;index&quot;:null}"/><path d="M254.16303,211.15457c0.17709,0.33757 0.22835,0.44322 0.11451,0.56541c-0.11384,0.12219 -0.24475,-0.04122 -0.4695,-0.15979c-0.3603,-0.19008 -0.18255,-0.32031 -0.06871,-0.4425c0.11384,-0.12219 0.30083,-0.19735 0.4237,0.03688z" data-paper-data="{&quot;index&quot;:null}"/><path d="M255.00957,212.45653c-0.11384,0.12219 -0.23516,0.313 -0.41224,-0.07375c-0.11047,-0.24124 -0.26271,-0.38177 -0.14887,-0.50395c0.11384,-0.12219 0.21226,-0.06716 0.52676,0.12291c0.21821,0.13189 0.14819,0.3326 0.03435,0.45479z" data-paper-data="{&quot;index&quot;:null}"/></g><g fill="#ff6969" stroke="none"><path d="M255.22643,211.78817c0,0.17281 0.03991,0.39981 -0.34008,0.26075c-0.23703,-0.08675 -0.43725,-0.07056 -0.43725,-0.24337c0,-0.17281 0.10584,-0.20859 0.45344,-0.31288c0.24119,-0.07237 0.32389,0.12269 0.32389,0.2955z"/><path d="M253.81874,211.51005c0.3476,0.1043 0.45344,0.14009 0.45344,0.3129c0,0.17281 -0.20022,0.15661 -0.43725,0.24335c-0.37999,0.13906 -0.34009,-0.08793 -0.34009,-0.26074c0,-0.17281 0.08271,-0.36788 0.3239,-0.29551z" data-paper-data="{&quot;index&quot;:null}"/><path d="M254.62453,211.17686c-0.09716,0.37311 -0.13051,0.48672 -0.2915,0.48672c-0.16099,0 -0.14591,-0.21491 -0.22673,-0.46934c-0.12956,-0.40787 0.08193,-0.36504 0.24292,-0.36504c0.16099,0 0.34273,0.08877 0.27531,0.34766z" data-paper-data="{&quot;index&quot;:null}"/><path d="M254.36539,212.74c-0.16099,0 -0.37248,0.04283 -0.24292,-0.36504c0.08082,-0.25442 0.06574,-0.46934 0.22673,-0.46934c0.16099,0 0.19433,0.11361 0.2915,0.48672c0.06742,0.25888 -0.11432,0.34766 -0.27531,0.34766z" data-paper-data="{&quot;index&quot;:null}"/></g><path d="M254.16069,211.78817c0,-0.13293 0.10039,-0.24068 0.22423,-0.24068c0.12384,0 0.22423,0.10775 0.22423,0.24068c0,0.13293 -0.10039,0.24069 -0.22423,0.24069c-0.12384,0 -0.22423,-0.10776 -0.22423,-0.24069z" fill="#fff824" stroke="#001026"/></g><g><g fill="#e45e5e" stroke="none"><path d="M252.28294,211.29167c0.11384,0.12219 0.29159,0.25242 -0.06871,0.4425c-0.22475,0.11857 -0.35566,0.28198 -0.4695,0.15979c-0.11384,-0.12219 -0.06257,-0.22783 0.11452,-0.56541c0.12287,-0.23423 0.30985,-0.15906 0.4237,-0.03688z"/><path d="M251.10431,212.16346c0.3145,-0.19008 0.41292,-0.24511 0.52676,-0.12292c0.11384,0.12219 -0.0384,0.26271 -0.14887,0.50395c-0.17709,0.38674 -0.2984,0.19594 -0.41224,0.07375c-0.11384,-0.12219 -0.18386,-0.3229 0.03435,-0.45478z" data-paper-data="{&quot;index&quot;:null}"/><path d="M251.45459,211.31622c0.17709,0.33757 0.22836,0.44322 0.11452,0.56541c-0.11384,0.12219 -0.24475,-0.04122 -0.4695,-0.15979c-0.3603,-0.19008 -0.18255,-0.32031 -0.06871,-0.4425c0.11384,-0.12219 0.30083,-0.19735 0.4237,0.03688z" data-paper-data="{&quot;index&quot;:null}"/><path d="M252.30113,212.61823c-0.11384,0.12219 -0.23516,0.31299 -0.41224,-0.07375c-0.11047,-0.24124 -0.26271,-0.38176 -0.14887,-0.50395c0.11384,-0.12219 0.21225,-0.06716 0.52676,0.12292c0.21821,0.13189 0.14819,0.33259 0.03435,0.45478z" data-paper-data="{&quot;index&quot;:null}"/></g><g fill="#ff6969" stroke="none"><path d="M252.51799,211.94984c0,0.17281 0.03991,0.3998 -0.34008,0.26074c-0.23703,-0.08675 -0.43725,-0.07055 -0.43725,-0.24335c0,-0.17281 0.10585,-0.2086 0.45345,-0.31289c0.24119,-0.07237 0.32388,0.1227 0.32388,0.29551z"/><path d="M251.1103,211.6717c0.3476,0.1043 0.45344,0.14008 0.45344,0.31288c0,0.17281 -0.20022,0.15661 -0.43725,0.24336c-0.37999,0.13906 -0.34009,-0.08793 -0.34009,-0.26073c0,-0.17281 0.08271,-0.36788 0.3239,-0.29551z" data-paper-data="{&quot;index&quot;:null}"/><path d="M251.91609,211.33851c-0.09716,0.37311 -0.13052,0.48672 -0.29151,0.48672c-0.16099,0 -0.1459,-0.21491 -0.22672,-0.46934c-0.12956,-0.40787 0.08193,-0.36504 0.24292,-0.36504c0.16099,0 0.34273,0.08877 0.27531,0.34766z" data-paper-data="{&quot;index&quot;:null}"/><path d="M251.65695,212.90171c-0.16099,0 -0.37248,0.04283 -0.24292,-0.36504c0.08082,-0.25442 0.06574,-0.46933 0.22673,-0.46933c0.16099,0 0.19434,0.11361 0.2915,0.48672c0.06742,0.25888 -0.11432,0.34765 -0.27531,0.34765z" data-paper-data="{&quot;index&quot;:null}"/></g><path d="M251.45225,211.94984c0,-0.13293 0.10039,-0.24069 0.22423,-0.24069c0.12384,0 0.22423,0.10776 0.22423,0.24069c0,0.13293 -0.10039,0.24069 -0.22423,0.24069c-0.12384,0 -0.22423,-0.10776 -0.22423,-0.24069z" fill="#fff824" stroke="#001026"/></g></g><g data-paper-data="{&quot;index&quot;:null}" stroke="#ffffff" stroke-width="0"><path d="M322.8243,119.17832c0,8.31131 0,25.90723 0,30.6c0,2.692 -1.50799,4.6 -4.2,4.6c-5.57586,0 -15.08167,0 -18.2,0c-2.56664,0 -4.2,-1.63335 -4.2,-4.2c0,-8.22559 0,-26.06924 0,-30.8c0,-2.58852 1.41148,-4.6 4,-4.6c2.95152,0 11.88849,0 17.6,0c3.31151,0 5,1.7158 5,4.4z" fill="#7d2727"/><path d="M308.27763,122.94688c0.18338,0.77697 0.19386,11.45979 0.0463,12.24436c-0.4269,2.2698 -2.41961,3.98707 -4.81341,3.98707c-2.21099,0 -4.0798,-1.46499 -4.68872,-3.47722c-0.2837,-0.93749 -0.30485,-11.74766 -0.09011,-12.70329c0.49126,-2.18622 2.44431,-3.81948 4.77884,-3.81948c2.31637,0 4.25718,1.60796 4.76711,3.76857z" fill="#aeaeae"/><path d="M317.27378,138.16409c0.10636,0.45065 0.11244,6.64668 0.02685,7.10173c-0.2476,1.31649 -1.40337,2.3125 -2.79178,2.3125c-1.28237,0 -2.36629,-0.84969 -2.71947,-2.01679c-0.16454,-0.54374 -0.17682,-6.81364 -0.05227,-7.36791c0.28493,-1.268 1.4177,-2.2153 2.77173,-2.2153c1.34349,0 2.46916,0.93262 2.76492,2.18577z" fill="#aeaeae"/><path d="M317.09792,120.14386c0.07654,0.35588 0.08092,5.2489 0.01932,5.60825c-0.17818,1.03964 -1.00987,1.82619 -2.00897,1.82619c-0.9228,0 -1.70279,-0.67101 -1.95694,-1.59267c-0.11841,-0.4294 -0.12723,-5.38075 -0.03761,-5.81846c0.20503,-1.00134 1.02018,-1.74943 1.99455,-1.74943c0.96679,0 1.77682,0.73649 1.98965,1.72611z" fill="#57ad87"/><path d="M310.49791,143.51774c0.07654,0.30926 0.08092,4.56132 0.01933,4.8736c-0.17818,0.90345 -1.00987,1.58696 -2.00898,1.58696c-0.9228,0 -1.70279,-0.5831 -1.95694,-1.38403c-0.11841,-0.37315 -0.12723,-4.6759 -0.03761,-5.05626c0.20503,-0.87018 1.02018,-1.52026 1.99454,-1.52026c0.96679,0 1.77682,0.64002 1.98965,1.49999z" fill="#57ad87"/><path d="M311.27378,121.76409c0.10636,0.45065 0.11244,6.64668 0.02685,7.10173c-0.2476,1.31649 -1.40337,2.3125 -2.79178,2.3125c-1.28237,0 -2.36629,-0.84969 -2.71946,-2.01679c-0.16454,-0.54374 -0.17682,-6.81364 -0.05227,-7.36791c0.28493,-1.268 1.41771,-2.2153 2.77173,-2.2153c1.34349,0 2.46916,0.93262 2.76492,2.18577z" fill="#945cad"/><path d="M304.22418,144.73499c0.06601,0.27971 0.06979,4.12552 0.01667,4.40797c-0.15368,0.81713 -0.87106,1.43534 -1.73283,1.43534c-0.79595,0 -1.46873,-0.52739 -1.68794,-1.2518c-0.10213,-0.3375 -0.10974,-4.22915 -0.03244,-4.57318c0.17685,-0.78704 0.87995,-1.37502 1.72038,-1.37502c0.83389,0 1.53258,0.57887 1.71616,1.35669z" fill="#945cad"/><path d="M321.98474,129.43085c0.14854,0.62935 0.15703,9.28243 0.03751,9.91793c-0.34578,1.83854 -1.95988,3.22953 -3.89887,3.22953c-1.7909,0 -3.30464,-1.18664 -3.79787,-2.81655c-0.22979,-0.75936 -0.24692,-9.5156 -0.07299,-10.28967c0.39792,-1.77083 1.9799,-3.09378 3.87086,-3.09378c1.87626,0 3.44831,1.30245 3.86136,3.05254z" fill="#945cad"/></g><g stroke="none"><path d="M192.91717,152.21384h-18.26612v-39.35319h18.26612z" fill="#b54343" stroke-width="0"/><path d="M191.06768,150.27542h-14.56717v-35.26091h14.56717z" fill="#9c3a3a" stroke-width="0"/><path d="M177.57423,151.83337c-0.45806,0 -0.82939,-0.32545 -0.82939,-0.72691c0,-0.40147 0.37133,-0.72691 0.82939,-0.72691c0.45806,0 0.82939,0.32545 0.82939,0.72691c0,0.40147 -0.37133,0.72691 -0.82939,0.72691z" fill="#9c3a3a" stroke-width="0.5"/><path d="M181.99766,151.98253c-0.45806,0 -0.82939,-0.32545 -0.82939,-0.72691c0,-0.40147 0.37132,-0.72691 0.82939,-0.72691c0.45806,0 0.82939,0.32545 0.82939,0.72691c0,0.40147 -0.37132,0.72691 -0.82939,0.72691z" fill="#9c3a3a" stroke-width="0.5"/><path d="M186.33605,151.98253c-0.45806,0 -0.82939,-0.32545 -0.82939,-0.72691c0,-0.40147 0.37132,-0.72691 0.82939,-0.72691c0.45806,0 0.82939,0.32545 0.82939,0.72691c0,0.40147 -0.37132,0.72691 -0.82939,0.72691z" fill="#9c3a3a" stroke-width="0.5"/><path d="M190.67433,151.90796c-0.45806,0 -0.82939,-0.32545 -0.82939,-0.72691c0,-0.40147 0.37132,-0.72691 0.82939,-0.72691c0.45806,0 0.82939,0.32545 0.82939,0.72691c0,0.40147 -0.37132,0.72691 -0.82939,0.72691z" fill="#9c3a3a" stroke-width="0.5"/><path d="M177.31903,114.55561c-0.45806,0 -0.82939,-0.32545 -0.82939,-0.72691c0,-0.40146 0.37133,-0.72691 0.82939,-0.72691c0.45806,0 0.82939,0.32545 0.82939,0.72691c0,0.40146 -0.37133,0.72691 -0.82939,0.72691z" fill="#9c3a3a" stroke-width="0.5"/><path d="M180.80676,114.55561c-0.45806,0 -0.82939,-0.32545 -0.82939,-0.72691c0,-0.40146 0.37133,-0.72691 0.82939,-0.72691c0.45806,0 0.82939,0.32545 0.82939,0.72691c0,0.40146 -0.37133,0.72691 -0.82939,0.72691z" fill="#9c3a3a" stroke-width="0.5"/><path d="M185.23012,114.70473c-0.45806,0 -0.82939,-0.32545 -0.82939,-0.72691c0,-0.40146 0.37133,-0.72691 0.82939,-0.72691c0.45806,0 0.82939,0.32545 0.82939,0.72691c0,0.40146 -0.37133,0.72691 -0.82939,0.72691z" fill="#9c3a3a" stroke-width="0.5"/><path d="M189.39837,114.77927c-0.45806,0 -0.82939,-0.32545 -0.82939,-0.72691c0,-0.40146 0.37133,-0.72691 0.82939,-0.72691c0.45806,0 0.82939,0.32545 0.82939,0.72691c0,0.40146 -0.37133,0.72691 -0.82939,0.72691z" fill="#9c3a3a" stroke-width="0.5"/><path d="M180.89182,146.31632c-0.45806,0 -0.82939,-0.32545 -0.82939,-0.72691c0,-0.40146 0.37133,-0.72691 0.82939,-0.72691c0.45806,0 0.82939,0.32545 0.82939,0.72691c0,0.40146 -0.37133,0.72691 -0.82939,0.72691z" fill="#b54343" stroke-width="0.5"/><path d="M185.06,149.00029c-0.45806,0 -0.82939,-0.32545 -0.82939,-0.72691c0,-0.40146 0.37133,-0.72691 0.82939,-0.72691c0.45806,0 0.82939,0.32545 0.82939,0.72691c0,0.40146 -0.37133,0.72691 -0.82939,0.72691z" fill="#b54343" stroke-width="0.5"/><path d="M187.95227,144.45238c-0.45806,0 -0.82939,-0.32545 -0.82939,-0.72691c0,-0.40146 0.37133,-0.72691 0.82939,-0.72691c0.45806,0 0.82939,0.32545 0.82939,0.72691c0,0.40146 -0.37133,0.72691 -0.82939,0.72691z" fill="#b54343" stroke-width="0.5"/><path d="M178.42496,122.6076c-0.45806,0 -0.82939,-0.32545 -0.82939,-0.72691c0,-0.40146 0.37133,-0.72691 0.82939,-0.72691c0.45806,0 0.82939,0.32545 0.82939,0.72691c0,0.40146 -0.37133,0.72691 -0.82939,0.72691z" fill="#b54343" stroke-width="0.5"/><path d="M184.12428,118.50705c-0.45806,0 -0.82939,-0.32545 -0.82939,-0.72691c0,-0.40146 0.37133,-0.72691 0.82939,-0.72691c0.45806,0 0.82939,0.32545 0.82939,0.72691c0,0.40146 -0.37133,0.72691 -0.82939,0.72691z" fill="#b54343" stroke-width="0.5"/><path d="M184.8048,123.35317c-0.45806,0 -0.82939,-0.32545 -0.82939,-0.72691c0,-0.40146 0.37133,-0.72691 0.82939,-0.72691c0.45806,0 0.82939,0.32545 0.82939,0.72691c0,0.40146 -0.37133,0.72691 -0.82939,0.72691z" fill="#b54343" stroke-width="0.5"/><path d="M189.05811,120.59461c-0.45806,0 -0.82939,-0.32545 -0.82939,-0.72691c0,-0.40146 0.37133,-0.72691 0.82939,-0.72691c0.45806,0 0.82939,0.32545 0.82939,0.72691c0,0.40146 -0.37133,0.72691 -0.82939,0.72691z" fill="#b54343" stroke-width="0.5"/><path d="M189.05811,133.64185c-0.45806,0 -0.82939,-0.32545 -0.82939,-0.72691c0,-0.40146 0.37133,-0.72691 0.82939,-0.72691c0.45806,0 0.82939,0.32545 0.82939,0.72691c0,0.40146 -0.37133,0.72691 -0.82939,0.72691z" fill="#b54343" stroke-width="0.5"/><path d="M177.82943,138.11518c-0.45806,0 -0.82939,-0.32545 -0.82939,-0.72691c0,-0.40146 0.37133,-0.72691 0.82939,-0.72691c0.45806,0 0.82939,0.32545 0.82939,0.72691c0,0.40146 -0.37133,0.72691 -0.82939,0.72691z" fill="#b54343" stroke-width="0.5"/><path d="M183.86908,144.69468c-0.61074,0 -1.10585,-0.43394 -1.10585,-0.96922c0,-0.53528 0.49511,-0.96922 1.10585,-0.96922c0.61074,0 1.10585,0.43394 1.10585,0.96922c0,0.53528 -0.49511,0.96922 -1.10585,0.96922z" fill="#b54343" stroke-width="0.5"/><path d="M188.63279,139.10305c-0.61074,0 -1.10585,-0.43394 -1.10585,-0.96922c0,-0.53528 0.49511,-0.96922 1.10585,-0.96922c0.61074,0 1.10585,0.43394 1.10585,0.96922c0,0.53528 -0.49511,0.96922 -1.10585,0.96922z" fill="#b54343" stroke-width="0.5"/><path d="M179.70092,119.71858c-0.61074,0 -1.10585,-0.43394 -1.10585,-0.96922c0,-0.53528 0.49511,-0.96922 1.10585,-0.96922c0.61074,0 1.10585,0.43394 1.10585,0.96922c0,0.53528 -0.49511,0.96922 -1.10585,0.96922z" fill="#b54343" stroke-width="0.5"/><path d="M188.12239,124.7138c-0.61074,0 -1.10585,-0.43394 -1.10585,-0.96922c0,-0.53528 0.49511,-0.96922 1.10585,-0.96922c0.61074,0 1.10585,0.43394 1.10585,0.96922c0,0.53528 -0.49511,0.96922 -1.10585,0.96922z" fill="#b54343" stroke-width="0.5"/><path d="M178.08461,143.53911c-0.30537,0 -0.55292,-0.21698 -0.55292,-0.48462c0,-0.26764 0.24756,-0.48462 0.55292,-0.48462c0.30537,0 0.55292,0.21698 0.55292,0.48462c0,0.26764 -0.24756,0.48462 -0.55292,0.48462z" fill="#b54343" stroke-width="0.5"/><path d="M177.82943,149.0562c-0.30537,0 -0.55292,-0.21698 -0.55292,-0.48462c0,-0.26764 0.24756,-0.48462 0.55292,-0.48462c0.30537,0 0.55292,0.21698 0.55292,0.48462c0,0.26764 -0.24756,0.48462 -0.55292,0.48462z" fill="#b54343" stroke-width="0.5"/><path d="M188.63279,148.53431c-0.30537,0 -0.55292,-0.21698 -0.55292,-0.48462c0,-0.26764 0.24756,-0.48462 0.55292,-0.48462c0.30537,0 0.55292,0.21698 0.55292,0.48462c0,0.26764 -0.24756,0.48462 -0.55292,0.48462z" fill="#b54343" stroke-width="0.5"/><path d="M178.1697,131.38654c-0.30537,0 -0.55292,-0.21698 -0.55292,-0.48462c0,-0.26764 0.24756,-0.48462 0.55292,-0.48462c0.30537,0 0.55292,0.21698 0.55292,0.48462c0,0.26764 -0.24756,0.48462 -0.55292,0.48462z" fill="#b54343" stroke-width="0.5"/><path d="M180.89182,123.11086c-0.30537,0 -0.55292,-0.21698 -0.55292,-0.48462c0,-0.26764 0.24756,-0.48462 0.55292,-0.48462c0.30537,0 0.55292,0.21698 0.55292,0.48462c0,0.26764 -0.24756,0.48462 -0.55292,0.48462z" fill="#b54343" stroke-width="0.5"/><path d="M188.88797,128.18064c-0.30537,0 -0.55292,-0.21698 -0.55292,-0.48462c0,-0.26764 0.24756,-0.48462 0.55292,-0.48462c0.30537,0 0.55292,0.21698 0.55292,0.48462c0,0.26764 -0.24756,0.48462 -0.55292,0.48462z" fill="#b54343" stroke-width="0.5"/><path d="M186.7613,118.11563c-0.30537,0 -0.55292,-0.21698 -0.55292,-0.48462c0,-0.26764 0.24756,-0.48462 0.55292,-0.48462c0.30537,0 0.55292,0.21698 0.55292,0.48462c0,0.26764 -0.24756,0.48462 -0.55292,0.48462z" fill="#b54343" stroke-width="0.5"/><path d="M178.1697,146.05534c-0.15268,0 -0.27646,-0.10849 -0.27646,-0.24231c0,-0.13382 0.12378,-0.24231 0.27646,-0.24231c0.15268,0 0.27646,0.10849 0.27646,0.24231c0,0.13382 -0.12378,0.24231 -0.27646,0.24231z" fill="#b54343" stroke-width="0.5"/><path d="M180.55158,148.36658c-0.15268,0 -0.27646,-0.10849 -0.27646,-0.24231c0,-0.13382 0.12378,-0.24231 0.27646,-0.24231c0.15268,0 0.27646,0.10849 0.27646,0.24231c0,0.13382 -0.12378,0.24231 -0.27646,0.24231z" fill="#b54343" stroke-width="0.5"/><path d="M180.29638,144.26603c-0.15268,0 -0.27646,-0.10849 -0.27646,-0.24231c0,-0.13382 0.12378,-0.24231 0.27646,-0.24231c0.15268,0 0.27646,0.10849 0.27646,0.24231c0,0.13382 -0.12378,0.24231 -0.27646,0.24231z" fill="#b54343" stroke-width="0.5"/><path d="M185.14506,146.12989c-0.15268,0 -0.27646,-0.10849 -0.27646,-0.24231c0,-0.13382 0.12378,-0.24231 0.27646,-0.24231c0.15268,0 0.27646,0.10849 0.27646,0.24231c0,0.13382 -0.12378,0.24231 -0.27646,0.24231z" fill="#b54343" stroke-width="0.5"/><path d="M189.31331,141.35834c-0.15268,0 -0.27646,-0.10849 -0.27646,-0.24231c0,-0.13382 0.12378,-0.24231 0.27646,-0.24231c0.15268,0 0.27646,0.10849 0.27646,0.24231c0,0.13382 -0.12378,0.24231 -0.27646,0.24231z" fill="#b54343" stroke-width="0.5"/><path d="M177.82943,134.20101c-0.15268,0 -0.27646,-0.10849 -0.27646,-0.24231c0,-0.13382 0.12378,-0.24231 0.27646,-0.24231c0.15268,0 0.27646,0.10849 0.27646,0.24231c0,0.13382 -0.12378,0.24231 -0.27646,0.24231z" fill="#b54343" stroke-width="0.5"/><path d="M178.33981,125.17977c-0.15268,0 -0.27646,-0.10849 -0.27646,-0.24231c0,-0.13382 0.12378,-0.24231 0.27646,-0.24231c0.15268,0 0.27646,0.10849 0.27646,0.24231c0,0.13382 -0.12378,0.24231 -0.27646,0.24231z" fill="#b54343" stroke-width="0.5"/><path d="M183.86908,120.48277c-0.15268,0 -0.27646,-0.10849 -0.27646,-0.24231c0,-0.13382 0.12378,-0.24231 0.27646,-0.24231c0.15268,0 0.27646,0.10849 0.27646,0.24231c0,0.13382 -0.12378,0.24231 -0.27646,0.24231z" fill="#b54343" stroke-width="0.5"/><path d="M180.9769,116.97866c-0.15268,0 -0.27646,-0.10849 -0.27646,-0.24231c0,-0.13382 0.12378,-0.24231 0.27646,-0.24231c0.15268,0 0.27646,0.10849 0.27646,0.24231c0,0.13382 -0.12378,0.24231 -0.27646,0.24231z" fill="#b54343" stroke-width="0.5"/></g><g><path d="M167.23707,195.98889v-12.40767h3.8939v12.40767z" fill="#7b7b7b" stroke="#fff700" stroke-width="0"/><path d="M167.11595,195.8127v-12.05531h3.8279v12.05531z" fill="#000000" stroke="none" stroke-width="0"/><path d="M166.84105,189.65306v-5.60985c0,0 2.4842,0 3.16792,0c0.55862,0 0.72598,0.56335 0.72598,1.12197c0,0.6425 0,2.31978 0,3.43191c0,0.60008 -0.3239,1.05597 -0.92398,1.05597c-0.70894,0 -2.96992,0 -2.96992,0z" fill="#a6a6a6" stroke="#fff700" stroke-width="0"/><path d="M166.77506,195.5269v-5.60985c0,0 2.4842,0 3.16792,0c0.55862,0 0.72598,0.56335 0.72598,1.12197c0,0.6425 0,2.31978 0,3.43191c0,0.60008 -0.3239,1.05597 -0.92398,1.05597c-0.70894,0 -2.96992,0 -2.96992,0z" fill="#a6a6a6" stroke="#fff700" stroke-width="0"/><path d="M157.18167,194.74071c0.07779,-1.45718 0.18513,-3.71639 0.18513,-5.08765c0,-1.20931 -0.08522,-3.09516 -0.15882,-4.49841c-0.04713,-0.89861 0.08746,-1.85434 0.9873,-1.85434c1.26971,0 6.47702,0 8.71177,0c0.58675,0 1.02648,0.28813 1.02648,0.87489c0,1.38247 0,8.44647 0,11.02171c0,0.5538 -0.27469,0.94089 -0.82848,0.94089c-2.04382,0 -7.26085,0 -8.64577,0c-0.65607,0 -1.35539,0.06009 -1.27761,-1.39709z" fill="#2054a6" stroke="#000000" stroke-width="0"/><path d="M158.98726,188.56409c0,-1.40332 1.13761,-2.54093 2.54093,-2.54093c1.40332,0 2.54093,1.13761 2.54093,2.54093c0,1.40332 -1.13761,2.54093 -2.54093,2.54093c-1.40332,0 -2.54093,-1.13761 -2.54093,-2.54093z" fill="none" stroke="#fff700" stroke-width="0.25"/><path d="M161.89119,191.20402c0,-0.92947 0.75348,-1.68296 1.68296,-1.68296c0.92947,0 1.68296,0.75348 1.68296,1.68296c0,0.92947 -0.75348,1.68296 -1.68296,1.68296c-0.92947,0 -1.68296,-0.75348 -1.68296,-1.68296z" fill="none" stroke="#fff700" stroke-width="0.25"/><path d="M162.74917,192.58998c0,-1.33042 1.07852,-2.40894 2.40894,-2.40894c1.33042,0 2.40894,1.07852 2.40894,2.40894c0,1.33042 -1.07852,2.40894 -2.40894,2.40894c-1.33042,0 -2.40894,-1.07852 -2.40894,-2.40894z" fill="none" stroke="#fff700" stroke-width="0.25"/><path d="M159.38324,193.90995c0,-0.71077 0.57619,-1.28697 1.28697,-1.28697c0.71077,0 1.28697,0.57619 1.28697,1.28697c0,0.71077 -0.57619,1.28697 -1.28697,1.28697c-0.71077,0 -1.28697,-0.57619 -1.28697,-1.28697z" fill="none" stroke="#fff700" stroke-width="0.25"/><path d="M162.28721,185.92416c0,-0.71077 0.57619,-1.28697 1.28697,-1.28697c0.71077,0 1.28697,0.57619 1.28697,1.28697c0,0.71077 -0.57619,1.28697 -1.28697,1.28697c-0.71077,0 -1.28697,-0.57619 -1.28697,-1.28697z" fill="none" stroke="#fff700" stroke-width="0.25"/><path d="M157.60132,191.56701c0,-1.12994 0.916,-2.04595 2.04595,-2.04595c1.12994,0 2.04595,0.916 2.04595,2.04595c0,1.12994 -0.916,2.04595 -2.04595,2.04595c-1.12994,0 -2.04595,-0.916 -2.04595,-2.04595z" fill="none" stroke="#fff700" stroke-width="0.25"/><path d="M164.9271,186.78213c0,-0.45562 0.36936,-0.82498 0.82498,-0.82498c0.45562,0 0.82498,0.36936 0.82498,0.82498c0,0.45562 -0.36936,0.82498 -0.82498,0.82498c-0.45562,0 -0.82498,-0.36936 -0.82498,-0.82498z" fill="none" stroke="#fff700" stroke-width="0.25"/><path d="M164.9271,186.71614c0,-0.45562 0.36936,-0.82498 0.82498,-0.82498c0.45562,0 0.82498,0.36936 0.82498,0.82498c0,0.45562 -0.36936,0.82498 -0.82498,0.82498c-0.45562,0 -0.82498,-0.36936 -0.82498,-0.82498z" fill="none" stroke="#fff700" stroke-width="0.25"/><path d="M158.19527,185.52817c0,-0.82012 0.66484,-1.48496 1.48496,-1.48496c0.82012,0 1.48496,0.66484 1.48496,1.48496c0,0.82012 -0.66484,1.48496 -1.48496,1.48496c-0.82012,0 -1.48496,-0.66484 -1.48496,-1.48496z" fill="none" stroke="#fff700" stroke-width="0.25"/><path d="M164.3331,188.76208c0,-0.82012 0.66484,-1.48496 1.48496,-1.48496c0.82012,0 1.48496,0.66484 1.48496,1.48496c0,0.82012 -0.66484,1.48496 -1.48496,1.48496c-0.82012,0 -1.48496,-0.66484 -1.48496,-1.48496z" fill="none" stroke="#fff700" stroke-width="0.25"/></g><g stroke-width="0"><path d="M209.35249,259.62094l-12.25652,-12.25652l-0.12443,-5.947l24.59724,0.19426l0.04023,5.75273z" fill="#aa7d24" stroke="none"/><path d="M209.1144,253.66856l-12.25652,-12.25652l12.25652,-12.25652l12.25652,12.25652z" fill="#c5922a" stroke="none"/><path d="M204.20383,254.49917l-2.39575,-2.48666l-0.04165,-5.68563l12.30669,-12.30669l2.4412,2.44121l-12.35214,12.35214z" fill="#ab8974" stroke="#9e7c36"/><path d="M204.20383,254.59008l-2.39575,-2.48666l-0.04165,-5.68563l2.39575,2.48666z" fill="#a1816d" stroke="#9e7c36"/></g><g data-paper-data="{&quot;index&quot;:null}" stroke="#9e7c36" stroke-width="0"><path d="M124.52679,255.26766l-0.91669,-3.94616l0.36111,-6.22887l0.99217,4.90105z" fill="#987020"/><path d="M112.74372,254.64371l-0.76749,-3.29226l11.78012,0.16645l0.74046,3.59395z" fill="#aa7d24"/><path d="M111.93091,251.32893l0.17155,-6.78598l11.87547,0.30021l-0.17155,6.78598z" fill="#c5922a"/><path d="M111.85948,248.82544l0.02908,-1.68944l12.1199,0.20859l-0.02908,1.68944z" fill="#ab8974"/></g><g><path d="M208.71361,217.81865v-16.36952h12.01312v16.36952z" fill="#000000" stroke="#ffffff" stroke-width="0.5"/><path d="M209.43956,217.11983v-14.82668h10.56122v14.82668z" fill="#000000" stroke="#ffffff" stroke-width="0.5"/><path d="M209.5704,216.97716v-10.45369h10.23589v10.45369z" fill="#ffffff" stroke="#ffffff" stroke-width="0"/><path d="M219.37072,204.59971c0,0.66154 -1.98262,1.19782 -4.4283,1.19782c-2.44568,0 -4.4283,-0.53628 -4.4283,-1.19782c0,-0.66154 1.98262,-1.19782 4.4283,-1.19782c2.44568,0 4.4283,0.53628 4.4283,1.19782z" fill="#ff0000" stroke="#ffffff" stroke-width="0"/><text transform="translate(210.81073,205.01861) scale(0.03708,0.03708)" font-size="40" xml:space="preserve" fill="#ffffff" fill-rule="nonzero" stroke="none" stroke-width="1" stroke-linecap="butt" stroke-linejoin="miter" stroke-miterlimit="10" stroke-dasharray="" stroke-dashoffset="0" font-family="Sans Serif" font-weight="normal" text-anchor="start" style="mix-blend-mode: normal"><tspan x="0" dy="0">ATTENTION</tspan></text><text transform="translate(209.55867,215.42828) scale(0.0294,0.0294)" font-size="40" xml:space="preserve" fill="#000000" fill-rule="nonzero" stroke="#000000" stroke-width="1" stroke-linecap="butt" stroke-linejoin="miter" stroke-miterlimit="10" stroke-dasharray="" stroke-dashoffset="0" font-family="Sans Serif" font-weight="normal" text-anchor="start" style="mix-blend-mode: normal"><tspan x="0" dy="0">NO FOOD BEYOND</tspan><tspan x="0" dy="46.150000000000006px">THIS POINT</tspan></text><g stroke-width="0"><path d="M213.31793,208.15665c0,-0.56561 0.45852,-1.02413 1.02413,-1.02413c0.56561,0 1.02413,0.45852 1.02413,1.02413c0,0.56561 -0.45852,1.02413 -1.02413,1.02413c-0.56561,0 -1.02413,-0.45852 -1.02413,-1.02413z" fill="#0065bf" stroke="none"/><path d="M216.28789,210.9986c0,1.28676 -0.79094,2.32988 -1.76662,2.32988c-0.97567,0 -1.76662,-1.04312 -1.76662,-2.32988c0,-1.28676 0.79094,-2.32988 1.76662,-2.32988c0.97567,0 1.76662,1.04312 1.76662,2.32988z" fill="#0065bf" stroke="none"/><path d="M216.79026,210.48784c0.33892,0.66842 0.38874,1.32432 0.11128,1.46501c-0.27746,0.14068 -0.77713,-0.28713 -1.11604,-0.95555c-0.33892,-0.66842 -0.38874,-1.32432 -0.11128,-1.46501c0.27746,-0.14068 0.77713,0.28713 1.11604,0.95555z" fill="#0065bf" stroke="none"/><path d="M213.46439,209.18691c0.35609,0.13769 0.38431,0.92288 0.06304,1.75376c-0.32127,0.83088 -0.87039,1.39283 -1.22648,1.25514c-0.35609,-0.13769 -0.38431,-0.92288 -0.06304,-1.75376c0.32127,-0.83088 0.87039,-1.39283 1.22648,-1.25514z" fill="#0065bf" stroke="none"/><path d="M216.3391,213.32848c0,0.56561 -0.29804,1.02413 -0.66568,1.02413c-0.36765,0 -0.66568,-0.45852 -0.66568,-1.02413c0,-0.56561 0.29804,-1.02413 0.66568,-1.02413c0.36765,0 0.66568,0.45852 0.66568,1.02413z" fill="#0065bf" stroke="none"/><path d="M214.34205,213.37969c0,0.56561 -0.29804,1.02413 -0.66568,1.02413c-0.36765,0 -0.66568,-0.45852 -0.66568,-1.02413c0,-0.56561 0.29804,-1.02413 0.66568,-1.02413c0.36765,0 0.66568,0.45852 0.66568,1.02413z" fill="#0065bf" stroke="none"/><path d="M213.37714,207.69641c0,0 0.012,-0.30007 0.03433,-0.46441c0.02526,-0.18591 0.10953,-0.59435 0.10953,-0.59435l0.37746,0.50986l0.49222,-0.53864l0.24282,0.41403l0.42053,-0.33582c0,0 0.20315,0.30795 0.23483,0.47254c0.03466,0.18006 0.03981,0.56557 0.03981,0.56557c0,0 -0.64337,0.13515 -0.94375,0.13054c-0.32349,-0.00496 -1.00779,-0.15931 -1.00779,-0.15931z" fill="#ffcd00" stroke="#000000"/></g></g></g></g></svg>