<svg version="1.1" xmlns="http://www.w3.org/2000/svg" xmlns:xlink="http://www.w3.org/1999/xlink" width="202" height="178" viewBox="0,0,202,178"><g transform="translate(-139,-91)"><g data-paper-data="{&quot;isPaintingLayer&quot;:true}" fill-rule="nonzero" stroke-width="0" stroke-linecap="butt" stroke-linejoin="miter" stroke-miterlimit="10" stroke-dasharray="" stroke-dashoffset="0" style="mix-blend-mode: normal"><path d="M139,269v-178h202v178z" fill="none" stroke="none"/><path d="M294.03828,227.61596h-107.93772v-94.15136h107.93773z" data-paper-data="{&quot;index&quot;:null}" fill="#d4a048" stroke="none"/><path d="M186.05724,227.39242v-65.20075h11.93004v65.20075z" fill="#ad833b" stroke="#000000"/><path d="M185.96171,172.5311v-10.24498h107.97722v10.24498z" fill="#ad833b" stroke="none"/><path d="M283.56904,227.11319v-64.97384h10.30046v64.97384z" fill="#ad833b" stroke="none"/><path d="M185.96171,228.04802v-5.51653h107.97722v5.51653z" fill="#ad833b" stroke="none"/><path d="M188.44802,198.01415v-3.1523h99.80789v3.1523z" fill="#ad833b" stroke="#000000"/><path d="M293.90961,165.16785h-107.49354v-33.21587h107.49354z" data-paper-data="{&quot;index&quot;:null}" fill="#d4a048" stroke="none"/><path d="M233.16922,225.53704v-55.51693h13.39729v55.51693z" fill="#ad833b" stroke="#000000"/><path d="M240.06884,212.73183l-16.98898,-16.98898l16.98898,-16.98897l16.98898,16.98897z" fill="#9f7936" stroke="none"/><path d="M229.64779,191.9619c1.1087,-0.76993 3.13009,-2.17366 4.83846,-3.36003c1.62722,-1.13001 2.97044,0.03327 2.97044,2.51263c0,2.47291 0,5.32711 0,6.86316c0,2.07983 -1.81087,3.92122 -3.81839,2.47134c-1.70874,-1.23409 -3.55995,-2.57107 -4.5582,-3.29203c-1.3809,-0.99732 -0.97318,-4.12501 0.56769,-5.19506z" fill="#bcbcbc" stroke="#000000"/><path d="M249.916,197.15697c-0.99825,0.72096 -2.84946,2.05794 -4.5582,3.29203c-2.00752,1.44987 -3.81839,-0.39152 -3.81839,-2.47134c0,-1.53605 0,-4.39025 0,-6.86316c0,-2.47936 1.34322,-3.64264 2.97044,-2.51263c1.70836,1.18637 3.72975,2.5901 4.83846,3.36003c1.54088,1.07005 1.94859,4.19775 0.56769,5.19506z" data-paper-data="{&quot;index&quot;:null}" fill="#bcbcbc" stroke="#000000"/></g></g></svg>