<svg version="1.1" xmlns="http://www.w3.org/2000/svg" xmlns:xlink="http://www.w3.org/1999/xlink" width="150.8392" height="116.65585" viewBox="0,0,150.8392,116.65585"><defs><linearGradient x1="217.30455" y1="183.75637" x2="217.30455" y2="235.0686" gradientUnits="userSpaceOnUse" id="color-1"><stop offset="0" stop-color="#000000" stop-opacity="0"/><stop offset="1" stop-color="#000000"/></linearGradient></defs><g transform="translate(-167.31899,-122.23387)"><g data-paper-data="{&quot;isPaintingLayer&quot;:true}" fill-rule="nonzero" stroke-width="0" stroke-linecap="butt" stroke-linejoin="miter" stroke-miterlimit="10" stroke-dasharray="" stroke-dashoffset="0" style="mix-blend-mode: normal"><path d="M261.38891,179.1139c7.31544,15.47251 -1.47136,18.44815 -2.61097,18.43539c-2.43975,-0.02732 -5.65559,11.19039 -7.41982,18.17018c-0.08976,-0.00241 -2.82163,21.08462 -2.82163,21.08462l-71.49397,-1.19186c0,0 4.38742,-8.84209 9.9601,-16.44753c6.76661,-9.23488 14.91582,-17.55876 14.42209,-17.65966c-2.34247,0.05106 11.98203,-25.44449 7.97375,-30.7061c-5.00286,-6.56719 49.77022,3.61906 51.99045,8.31496z" fill="#09b309" stroke="#000000"/><g stroke="#000000"><path d="M267.38153,139.2225c2.36221,4.86096 6.2031,9.78252 -2.62095,22.17601c-3.40015,4.77555 -12.61758,11.70823 -9.81694,16.08286c9.22783,14.41394 -47.98001,3.08713 -52.62621,-1.6207c-6.06396,-6.14438 -8.99229,-13.54842 -9.92006,-20.76822c-2.3097,-17.97382 5.18018,-28.71993 27.41529,-31.5772c22.23511,-2.85728 38.84891,-2.23679 47.56888,15.70722z" fill="#09b309"/><path d="M219.81267,143.46933c-0.89444,4.33519 -4.82856,7.38458 -8.78711,6.811c-3.95855,-0.57357 -6.4425,-4.55292 -5.54807,-8.88809c0.89444,-4.33519 4.82856,-7.38457 8.78711,-6.811c3.95855,0.57357 6.4425,4.55292 5.54808,8.88809z" fill="#ffffff"/><path d="M218.7402,143.54457c-0.7369,3.57159 -3.97808,6.08386 -7.23937,5.61131c-3.26129,-0.47255 -5.30774,-3.75096 -4.57082,-7.32256c0.7369,-3.57159 3.97806,-6.08387 7.23938,-5.61133c3.26129,0.47255 5.30772,3.75096 4.57083,7.32257z" fill="#000000"/><path d="M250.35944,141.11259c-0.89444,4.33519 -4.82856,7.38457 -8.78711,6.811c-3.95855,-0.57357 -6.4425,-4.55292 -5.54806,-8.88809c0.89444,-4.33519 4.82855,-7.38458 8.7871,-6.811c3.95855,0.57357 6.4425,4.55292 5.54808,8.88809z" fill="#ffffff"/><path d="M249.64797,141.1643c-0.78318,3.79595 -4.22796,6.46603 -7.69411,5.9638c-3.46616,-0.50223 -5.64115,-3.98659 -4.85796,-7.78254c0.78318,-3.79595 4.22796,-6.46605 7.69411,-5.96381c3.46616,0.50223 5.64115,3.98659 4.85795,7.78256z" fill="#000000"/><g><g><path d="M203.13313,159.40947c0,0 15.19238,-2.4877 23.42208,-3.13166c9.03626,-0.70709 28.6024,-0.93927 28.6024,-0.93927c0,0 5.04648,7.6428 -1.14261,10.73317c-3.38657,1.69099 -15.76816,5.29877 -26.50245,6.30808c0,0 -19.44902,2.30301 -25.23991,-5.4479c-1.85209,-2.47895 0.86049,-7.5224 0.86049,-7.5224z" fill="#000000"/><path d="M238.27158,156.3394c0,0 -0.22779,3.83349 -2.27642,3.62367c-2.31645,-0.23723 -2.58075,-3.69436 -2.58075,-3.69436c0,0 1.18874,0.00924 2.48822,-0.06767c1.29949,-0.07692 2.36897,0.13834 2.36897,0.13834z" fill="#ffffff"/><path d="M243.85844,156.24386c0,0 -0.41582,3.81843 -2.45148,3.51013c-2.30177,-0.34861 -2.39588,-3.81479 -2.39588,-3.81479c0,0 1.18674,0.0665 2.48828,0.05229c1.30157,-0.01421 2.35906,0.25236 2.35906,0.25236z" fill="#ffffff"/><path d="M249.35551,156.17048c0,0 -0.51969,3.8062 -2.54606,3.44357c-2.29127,-0.41004 -2.2909,-3.8777 -2.2909,-3.8777c0,0 1.18442,0.0982 2.48578,0.11878c1.30139,0.02059 2.35118,0.31533 2.35118,0.31533z" fill="#ffffff"/><path d="M254.35615,156.09791c0,0 0.04102,3.83923 -2.01774,3.77061c-2.32789,-0.07758 -2.83354,-3.50765 -2.83354,-3.50765c0,0 1.18671,-0.0724 2.47792,-0.23832c1.2912,-0.16592 2.37336,-0.02464 2.37336,-0.02464z" fill="#ffffff"/><path d="M232.71593,156.82212c0,0 0.04103,3.83923 -2.01773,3.77061c-2.32789,-0.0776 -2.83355,-3.50765 -2.83355,-3.50765c0,0 1.18674,-0.0724 2.47794,-0.23832c1.2912,-0.16592 2.37336,-0.02463 2.37336,-0.02463z" fill="#ffffff"/><path d="M226.95876,157.18846c0,0 0.04101,3.83924 -2.01774,3.7706c-2.32789,-0.0776 -2.83355,-3.50765 -2.83355,-3.50765c0,0 1.18673,-0.0724 2.47794,-0.23832c1.2912,-0.16592 2.37335,-0.02463 2.37335,-0.02463z" fill="#ffffff"/><path d="M221.77158,157.91977c0,0 0.04102,3.83922 -2.01774,3.7706c-2.32789,-0.07758 -2.83355,-3.50765 -2.83355,-3.50765c0,0 1.18673,-0.0724 2.47793,-0.23832c1.2912,-0.16592 2.37335,-0.02464 2.37335,-0.02464z" fill="#ffffff"/><path d="M216.57728,158.22601c0,0 0.22373,3.83259 -1.83625,3.86016c-2.32926,0.03117 -2.99769,-3.37101 -2.99769,-3.37101c0,0 1.18211,-0.12774 2.46412,-0.35373c1.28203,-0.226 2.36982,-0.1354 2.36982,-0.1354z" fill="#ffffff"/><path d="M211.40059,159.03915c0,0 0.2529,4.33254 -2.07578,4.36371c-2.63313,0.03524 -3.38874,-3.81077 -3.38874,-3.81077c0,0 1.33631,-0.14438 2.78557,-0.39987c1.44925,-0.25548 2.67898,-0.15307 2.67898,-0.15307z" fill="#ffffff"/><path d="M203.89106,160.31493l-0.53903,-0.90677c0,0 15.51534,-2.32248 23.82276,-2.97164c8.94916,-0.6993 27.91813,-0.93834 27.91813,-0.93834l-0.02927,0.75072c0,0 -18.82723,-0.2639 -27.66105,0.95686c-8.25955,1.14139 -23.51155,3.10917 -23.51155,3.10917z" fill="#000000"/></g><path d="M229.17833,171.53859c-1.46676,0.11924 -2.79617,0.31741 -2.79617,0.31741c0,0 -0.24131,-3.9121 2.31516,-4.54373c2.26091,-0.55861 3.11163,3.69711 3.11163,3.69711c0,0 -1.16386,0.41 -2.63063,0.52922z" data-paper-data="{&quot;index&quot;:null}" fill="#ffffff"/><path d="M234.73382,170.53393c-1.35287,0.26827 -2.56918,0.59526 -2.56918,0.59526c0,0 -0.65241,-3.61506 1.65921,-4.47706c2.04436,-0.76235 3.30183,3.10717 3.30183,3.10717c0,0 -1.039,0.50638 -2.39186,0.77463z" data-paper-data="{&quot;index&quot;:null}" fill="#ffffff"/><path d="M220.76321,171.65553c0,0 0.23828,-4.06171 2.40897,-3.84104c2.45446,0.24954 2.73724,3.9121 2.73724,3.9121c0,0 -1.25946,-0.00885 -2.6362,0.07365c-1.37673,0.08249 -2.51002,-0.14472 -2.51002,-0.14472z" data-paper-data="{&quot;index&quot;:null}" fill="#ffffff"/><path d="M215.0575,170.72225c0,0 1.28736,-3.86623 3.32582,-3.09863c2.30494,0.86795 1.62461,4.4813 1.62461,4.4813c0,0 -1.21377,-0.33014 -2.56454,-0.60188c-1.35078,-0.27174 -2.38587,-0.7808 -2.38587,-0.7808z" data-paper-data="{&quot;index&quot;:null}" fill="#ffffff"/><path d="M239.97101,169.06608c-1.32801,0.37138 -2.51529,0.79081 -2.51529,0.79081c0,0 -0.93385,-3.5533 1.3037,-4.59022c1.97887,-0.91702 3.536,2.84341 3.536,2.84341c0,0 -0.99641,0.58463 -2.32442,0.956z" data-paper-data="{&quot;index&quot;:null}" fill="#ffffff"/><path d="M209.92892,168.91881c0,0 1.55596,-3.20292 3.23188,-2.3097c1.89502,1.01001 0.89318,4.06208 0.89318,4.06208c0,0 -1.01242,-0.42198 -2.15007,-0.80876c-1.13765,-0.38679 -1.975,-0.94364 -1.975,-0.94364z" data-paper-data="{&quot;index&quot;:null}" fill="#ffffff"/><path d="M204.26459,167.18899c0,0 1.55595,-3.20292 3.23188,-2.3097c1.89502,1.01001 0.89318,4.06208 0.89318,4.06208c0,0 -1.01242,-0.42197 -2.15007,-0.80874c-1.13765,-0.38679 -1.97499,-0.94364 -1.97499,-0.94364z" data-paper-data="{&quot;index&quot;:null}" fill="#ffffff"/><path d="M244.76096,167.18473c-1.13461,0.40103 -2.14373,0.83568 -2.14373,0.83568c0,0 -1.02525,-3.03938 0.86191,-4.07309c1.66897,-0.91419 3.24948,2.26909 3.24948,2.26909c0,0 -0.83304,0.5673 -1.96766,0.96833z" data-paper-data="{&quot;index&quot;:null}" fill="#ffffff"/><path d="M249.32427,165.92455c-1.13461,0.40103 -2.14374,0.83566 -2.14374,0.83566c0,0 -1.02525,-3.03938 0.86191,-4.07309c1.66897,-0.91419 3.24946,2.26909 3.24946,2.26909c0,0 -0.83304,0.56732 -1.96764,0.96834z" data-paper-data="{&quot;index&quot;:null}" fill="#ffffff"/><path d="M253.38027,164.70114c-1.13461,0.40103 -2.14374,0.83566 -2.14374,0.83566c0,0 -1.02524,-3.03937 0.86192,-4.07308c1.66897,-0.91419 3.24946,2.26908 3.24946,2.26908c0,0 -0.83304,0.56732 -1.96765,0.96834z" data-paper-data="{&quot;index&quot;:null}" fill="#ffffff"/><path d="M203.06154,166.22267l2.45324,1.03294c0,0 1.39347,1.72706 3.76176,2.53194c3.79407,1.28945 10.02803,1.87003 16.57602,1.66916c8.61497,-0.26429 30.06216,-7.94117 30.06216,-7.94117l-1.87525,1.56552c0,0 -6.6435,2.1164 -13.3359,4.28158c-5.03091,1.62764 -11.20605,2.89309 -15.10134,3.13543c-6.92142,0.43059 -14.70375,-1.15091 -18.80848,-2.81387c-1.82068,-0.73763 -2.88606,-2.34141 -2.88606,-2.34141z" fill="#000000"/></g></g><g fill="#0ac00a"><path d="M250.68123,177.50332c13.35699,10.70071 29.17649,-22.70014 42.08185,-11.45889c-4.22791,1.40901 18.21968,9.43918 12.84096,11.45311c-2.55035,-2.43938 -7.48876,10.85615 -18.43191,15.53704c-11.86387,5.07471 -29.72749,1.69533 -30.7574,2.18336c-2.20489,1.0448 -9.78736,-20.96228 -5.73352,-17.71461z" stroke="#000000"/><path d="M306.49489,172.17396c-7.44399,5.92871 -16.95286,6.37256 -21.23869,0.99136c-4.28581,-5.38119 -1.72561,-14.54968 5.71838,-20.47839c7.44399,-5.92871 16.95286,-6.37256 21.23869,-0.99136c4.28582,5.3812 1.72561,14.54968 -5.71838,20.47839z" stroke="#33943a"/><path d="M310.95089,179.46924c-4.79671,1.1395 -15.16343,-2.69096 -16.06442,-6.48372c-0.90099,-3.79274 8.00491,-6.11154 12.80162,-7.25103c4.79672,-1.1395 9.41562,1.01139 10.31661,4.80413c0.901,3.79275 -2.2571,7.79112 -7.05381,8.93063z" stroke="none"/></g><g fill="#0ac00a"><path d="M200.96262,200.22409c-2.24798,-0.66056 -20.22411,-10.61363 -25.20413,-22.43997c-9.45135,-22.44471 14.75651,-20.44823 9.18581,-22.23113c4.17356,-5.09586 2.49267,19.26394 10.73756,14.94987c15.08236,-7.89175 24.40417,9.09878 22.17707,2.87055c-1.28414,-3.59118 3.92884,7.57186 0.43874,14.55264c-4.06475,8.13016 -16.82815,12.58107 -17.33506,12.29805z" stroke="#000000"/><path d="M192.22545,159.21279c-1.10356,9.45222 -7.53735,16.46808 -14.3703,15.67032c-6.83295,-0.79775 -11.47752,-9.10702 -10.37397,-18.55924c1.10356,-9.45222 7.53735,-16.46807 14.3703,-15.67032c6.83295,0.79775 11.47752,9.10702 10.37397,18.55924z" stroke="#33943a"/><path d="M197.48196,156.48395c-1.81986,4.58203 -10.90644,10.87291 -14.52945,9.43396c-3.623,-1.43895 -0.41047,-10.06286 1.4094,-14.64488c1.81986,-4.58204 6.23217,-7.12999 9.85517,-5.69103c3.623,1.43895 5.08474,6.31993 3.26487,10.90196z" stroke="none"/></g><path d="M174.43535,238.53014l1.53846,-54.77377h82.66149v55.13335z" fill="url(#color-1)" stroke="#33943a"/></g></g></svg>