<svg version="1.1" xmlns="http://www.w3.org/2000/svg" xmlns:xlink="http://www.w3.org/1999/xlink" width="159.67303" height="101.8843" viewBox="0,0,159.67303,101.8843"><g transform="translate(-179.04553,-126.0687)"><g data-paper-data="{&quot;isPaintingLayer&quot;:true}" fill-rule="nonzero" stroke-linecap="butt" stroke-linejoin="miter" stroke-miterlimit="10" stroke-dasharray="" stroke-dashoffset="0" style="mix-blend-mode: normal"><path d="M300.69355,126.0687c0,0 2.42017,5.53188 4.41542,8.93912c-1.71174,0.55524 -3.41552,1.12543 -5.11976,1.69672c-1.43853,-0.79317 -2.87476,-1.42599 -4.019,-1.88273c-1.71087,-0.68292 -3.6494,-1.08776 -5.55004,-1.47165z" fill="#966726" stroke="#ffffff" stroke-width="0"/><path d="M215.01427,207.53758c1.48856,-0.12847 2.97533,-0.24194 4.46079,-0.34218c0.17799,2.0185 0.49268,4.02768 0.88639,6.00289c1.5585,2.84454 2.93865,5.70885 5.20655,7.89075l-3.93881,2.79172c-4.50561,-0.15415 -8.86783,-0.97212 -13.00187,-2.87449c-2.09596,-0.83564 -6.65231,-1.71689 -8.25331,-3.36027c-1.57919,-1.62101 0.17002,-4.01413 1.2162,-5.14872c1.65918,-1.79938 3.865,-3.19204 6.15208,-4.37575c2.52299,-0.27739 5.05573,-0.39271 7.27196,-0.58397z" fill="#966726" stroke="#ffffff" stroke-width="0"/><path d="M228.84627,206.722c1.04683,1.69284 2.05592,3.39556 2.95575,5.11064c0.02516,1.60004 0.10807,3.20438 0.07947,4.7816l-3.60711,2.55662c-2.21929,-1.85392 -3.43181,-4.54536 -4.86186,-7.0782c-0.30175,-1.6833 -0.55014,-3.38684 -0.69742,-5.09566c2.04514,-0.11287 4.08844,-0.20301 6.13119,-0.275z" fill="#966726" stroke="#ffffff" stroke-width="0"/><path d="M211.8825,220.98953c0,0 -2.29075,-6.44156 -4.31156,-10.16116c1.1702,0.37952 2.2644,0.71564 3.06834,1.0359c2.45866,1.10528 6.04606,2.32125 9.84117,3.03129z" fill="#966726" stroke="#ffffff" stroke-width="0"/><path d="M198.8912,202.66021l1.09121,-0.77343c-0.15977,0.45799 -0.26493,0.92312 -0.30726,1.39424c-0.48346,-0.38483 -0.78395,-0.62081 -0.78395,-0.62081z" fill="#966726" stroke="#ffffff" stroke-width="0"/><path d="M225.43769,183.84482c0.35431,0.5264 0.67292,1.00577 0.92254,1.41093c-1.37647,1.43378 -2.59606,3.02769 -3.6195,4.79367c-2.01479,-0.03047 -4.18123,-0.25713 -6.19688,0.0991z" fill="#966726" stroke="#ffffff" stroke-width="0"/><path d="M229.28046,190.07103c-0.91429,-0.01784 -1.82364,-0.02357 -2.72191,-0.02439c0.46945,-0.67116 0.97419,-1.31059 1.51066,-1.91942c0.39705,0.64688 0.80218,1.29476 1.21125,1.94381z" fill="#966726" stroke="#ffffff" stroke-width="0"/><path d="M209.62995,206.2831c0,0 -1.32382,0.93828 -2.2621,-0.38553c-0.93828,-1.32382 0.38553,-2.2621 0.38553,-2.2621c3.24574,-2.28375 5.95899,-6.10945 9.52285,-8.14311c0.34729,-0.0262 0.68849,-0.0533 1.02252,-0.08212c0.73072,-0.06306 1.46101,-0.12251 2.19093,-0.17855c-0.26118,0.86079 -0.47376,1.72927 -0.64266,2.60334c-3.90937,1.62376 -6.87774,6.06589 -10.21707,8.44808z" fill="#8b5f23" stroke="none" stroke-width="0.5"/><path d="M226.93902,196.74702c-1.22996,0.22675 -2.4083,0.24403 -3.58653,0.33622c0.17906,-0.70311 0.39237,-1.40201 0.64347,-2.09561c2.71455,-0.17006 5.42516,-0.29748 8.13479,-0.39298c0.0532,0.08602 0.1063,0.17207 0.15929,0.25816c-1.70605,0.88221 -3.49637,1.55229 -5.35103,1.89421z" fill="#8b5f23" stroke="none" stroke-width="0.5"/><path d="M286.46333,153.90481c-0.02392,-0.02234 -0.04761,-0.04471 -0.07104,-0.06711c0.33253,-0.11134 0.66492,-0.22284 0.99723,-0.33439c1.58516,1.01562 2.76607,2.28383 3.14721,3.89294c0.04999,0.21103 0.06036,0.43252 0.03729,0.6618c-0.8247,-1.75198 -3.15321,-3.25946 -4.11069,-4.15324z" fill="#8b5f23" stroke="none" stroke-width="0.5"/><path d="M288.53797,145.10527c1.14315,1.15155 -0.0084,2.29471 -0.0084,2.29471l-0.99492,0.8786c-0.09767,0.71095 -0.03043,1.25777 0.15118,1.70622c-0.10975,0.03677 -0.21951,0.07356 -0.32927,0.11036c-1.01235,-0.55819 -2.02358,-1.03696 -2.93268,-1.43084c0.02989,-0.6067 0.1137,-1.23339 0.23068,-1.88124l1.58872,-1.68619c0,0 1.15155,-1.14315 2.29471,0.0084z" fill="#8b5f23" stroke="none" stroke-width="0.5"/><path d="M213.71733,209.63672c0.09939,-0.12793 0.18814,-0.25648 0.26033,-0.38595c0.91697,-1.64447 1.51861,-3.39898 2.27365,-5.11951c0,0 0.65242,-1.48567 2.13809,-0.83324c0.58462,0.25674 0.83816,0.64249 0.93066,1.01597c0.00405,0.23371 0.01029,0.46744 0.01865,0.70116c-0.04128,0.25063 -0.11607,0.42096 -0.11607,0.42096c-0.61162,1.39174 -1.01029,3.27701 -1.90054,4.6214c0.77077,-0.49748 1.66094,-0.8519 2.29389,-1.49533c0.10757,0.9144 0.24067,1.82572 0.39387,2.73166c-2.14239,-0.34107 -4.24319,-0.87713 -6.29253,-1.65713z" fill="#8b5f23" stroke="none" stroke-width="0.5"/><path d="M217.07965,214.11884c-1.96212,0.66663 -3.92234,0.50959 -4.91686,-1.61439c1.43679,0.56606 3.11485,1.13037 4.91686,1.61439z" fill="#8b5f23" stroke="none" stroke-width="0.5"/><path d="M212.63408,149.28955c-0.02629,-1.37908 1.48579,-2.3251 2.18446,-3.51438c1.10423,-1.87966 2.0391,-3.7721 2.87929,-5.71625l6.37867,-0.55744c0.02472,0.71673 -0.03636,1.39961 -0.22469,2.00024c-1.19129,3.79928 -5.74334,7.66338 -9.90379,9.69756c-0.46112,-0.63744 -1.29922,-1.13676 -1.31395,-1.90972z" fill="#a37029" stroke="#ffffff" stroke-width="0"/><path d="M278.01797,139.33695c-3.75839,1.16027 -7.56693,1.74961 -10.90947,4.01424c-0.9255,0.62704 -1.75646,1.3467 -2.53788,2.11545c-0.6097,-1.02165 -1.32864,-1.97292 -2.01066,-2.81889c-1.64631,-2.04205 -3.51392,-3.94891 -5.50389,-5.76485c5.42798,-1.03471 11.1423,-1.17948 16.8551,-1.20185c2.00183,0.50397 5.44724,1.11212 8.65191,2.20052c-1.50726,0.49639 -3.02038,0.98465 -4.54511,1.45536z" fill="#a37029" stroke="#ffffff" stroke-width="0"/><path d="M283.69895,147.76266c0,0 -0.02457,0.20901 -0.0637,0.56994c-0.10121,-0.04132 -0.2005,-0.08138 -0.29768,-0.12018c-0.30216,-0.12062 -0.61143,-0.23255 -0.92633,-0.33723z" fill="#a37029" stroke="#ffffff" stroke-width="0"/><path d="M207.67946,132.29753c-0.59508,1.26366 -1.24481,2.50867 -1.97442,3.74733c-0.7163,1.21607 -2.64248,4.39312 -2.63215,5.20834c0.0227,1.79067 2.30181,5.06851 3.89034,7.42712c-0.57735,0.18946 -1.1611,0.35351 -1.75864,0.46351c-3.09582,0.56994 -4.53148,-1.50199 -7.31496,-2.21726c-7.6774,-1.97286 -13.70157,-6.53144 -18.84412,-12.1267z" fill="#a37029" stroke="#ffffff" stroke-width="0"/><path d="M192.72425,162.98202c2.36808,1.47094 5.23982,3.05528 7.89843,3.94507c1.57918,0.52852 3.4005,0.36652 4.85512,1.17717c0.97833,0.54522 1.7975,1.04592 2.62632,1.41807l-23.03903,2.01341c-0.6776,-4.00826 2.1022,-7.82906 4.93426,-10.44758c0.88066,0.6778 1.78823,1.31204 2.72488,1.89384z" fill="#a37029" stroke="#ffffff" stroke-width="0"/><path d="M184.02833,155.50675c1.11027,1.21826 2.26647,2.39003 3.47527,3.48783c-0.59346,0.57261 -1.17699,1.18861 -1.73177,1.84121c-0.09101,-0.79288 -0.98814,-3.3096 -1.7435,-5.32905z" fill="#a37029" stroke="#ffffff" stroke-width="0"/><path d="M214.95053,163.39699c-1.89683,-0.68618 -3.32897,-1.85062 -5.41049,-2.19344c-2.28575,-0.37645 -4.79882,0.31863 -7.22972,0.95233c-0.92436,-0.6685 -1.82036,-1.37688 -2.69075,-2.11966c3.33207,-0.60638 6.86192,-2.06676 10.20153,-1.54938c2.39282,0.37071 3.96532,1.57279 6.11127,2.36151c0.99418,0.3654 2.05525,0.58322 3.14663,0.68896c-0.05828,0.17867 -0.09031,0.32642 -0.08894,0.43346c0.00796,0.62791 0.29337,1.43867 0.72915,2.32855c-1.64067,-0.07956 -3.25251,-0.35385 -4.76865,-0.9023z" fill="#8b5f23" stroke="none" stroke-width="0.5"/><path d="M197.41514,162.74904c-0.09921,-0.06192 -0.1943,-0.14096 -0.27771,-0.24176c0.09227,0.08104 0.18483,0.16162 0.27771,0.24176z" fill="#8b5f23" stroke="none" stroke-width="0.5"/><path d="M230.81082,160.90854c0.48805,1.27542 -0.78737,1.76348 -0.78737,1.76348l-1.80046,0.68557c-1.43218,0.33373 -2.94074,0.6189 -4.47159,0.79129c-0.03936,-0.06411 -0.07887,-0.12813 -0.11854,-0.19207c-0.43386,-0.6992 -1.38229,-1.21191 -1.39798,-2.03462c-0.00234,-0.12263 0.00749,-0.24182 0.02782,-0.35808c1.78157,-0.1217 3.55127,-0.44251 5.1603,-0.81794l1.62436,-0.62498c0,0 1.27542,-0.48805 1.76348,0.78737z" fill="#8b5f23" stroke="none" stroke-width="0.5"/><path d="M264.81623,158.68881c-0.53567,-0.84187 -1.1342,-1.63061 -1.70878,-2.3454c2.66898,-0.76842 5.59125,-1.00812 8.24034,-1.23581c-1.28838,0.4836 -2.54086,1.07852 -3.73397,1.88687c-0.67358,0.45636 -1.29708,0.96178 -1.88785,1.49947c-0.30563,0.05902 -0.60924,0.12368 -0.90974,0.19487z" fill="#8b5f23" stroke="none" stroke-width="0.5"/><path d="M272.57383,154.63964c0,0 0.37494,-0.23031 0.82989,-0.21661c-0.29617,0.08863 -0.59116,0.18016 -0.8847,0.27575z" fill="#8b5f23" stroke="none" stroke-width="0.5"/><path d="M278.11167,151.6348l1.87074,-0.54957c0,0 1.27486,-0.32868 1.64379,0.91115c-1.03014,0.3341 -2.06383,0.66305 -3.10292,0.98383c-0.57339,0.17702 -1.14794,0.34074 -1.72184,0.49915c0.33849,-0.63162 0.78985,-1.23678 1.31022,-1.84457z" fill="#8b5f23" stroke="none" stroke-width="0.5"/><path d="M205.73095,171.37487c-2.21436,0.95631 -8.62943,1.31156 -8.20766,-2.85092c0.1046,-1.03233 1.80371,-1.02642 2.69753,-1.5534c0.52657,-0.31045 1.02601,-0.65273 1.51436,-1.00942c0.02817,0.01763 0.05635,0.03519 0.08457,0.05273c0.79529,0.49399 1.64736,1.00077 2.52912,1.48975c-0.64601,0.55709 -1.32156,1.12091 -2.04154,1.47446c0.83976,-0.03675 1.71028,0.10983 2.49547,-0.17188c0.40567,-0.14554 0.71077,-0.33476 0.95526,-0.55169c0.74967,0.3824 1.5099,0.74157 2.26527,1.06015c-0.6343,0.79349 -1.28878,1.6268 -2.29237,2.06023z" fill="#8b5f23" stroke="none" stroke-width="0.5"/><path d="M205.93429,157.26149c0.26992,0.35363 0.23181,0.94302 0.25327,1.45648c-0.38239,-0.16382 -0.78637,-0.30965 -1.22362,-0.42201c-1.73556,-0.44598 -3.38662,-1.02411 -4.96211,-1.71647c1.64413,-0.15443 3.31726,-0.16213 5.04817,-0.22472c0.3135,0.24621 0.60936,0.54652 0.88428,0.90673z" fill="#8b5f23" stroke="none" stroke-width="0.5"/><path d="M216.77686,168.72507l0.25089,-0.02192c0,0 1.1904,-0.10403 1.44145,0.99606c-0.6792,-0.21822 -1.30218,-0.54836 -1.94404,-0.89055c0.084,-0.03321 0.16793,-0.0628 0.2517,-0.08358z" fill="#8b5f23" stroke="none" stroke-width="0.5"/><path d="M214.27451,171.48068c-0.3286,-0.161 -0.56761,-0.4363 -0.75532,-0.7697c0.36583,0.10377 0.71966,0.23874 1.05412,0.42514c0.30805,0.17167 0.60033,0.33894 0.88209,0.49917c-0.41409,0.03935 -0.81591,0.02424 -1.18088,-0.15459z" fill="#8b5f23" stroke="none" stroke-width="0.5"/><path d="M205.01072,163.94063c0.29378,0.02247 0.61474,0.1572 0.90115,0.52288c-0.30329,-0.17005 -0.60364,-0.3444 -0.90115,-0.52288z" fill="#8b5f23" stroke="none" stroke-width="0.5"/><path d="M294.41966,214.89528c-2.24408,-1.68143 -4.47951,-3.48243 -6.12422,-5.68025c-0.23751,-0.31738 -0.48403,-0.63828 -0.73324,-0.96236c2.04859,-2.56908 3.85985,-5.32142 5.55924,-8.15617c2.64527,0.19484 5.2953,0.45789 7.94646,0.73146c-2.45319,1.0151 -4.80732,2.16533 -6.87802,3.69249l0.02044,3.03967c0,0 0.72566,1.4513 2.17696,0.72566c1.07444,-0.53721 0.95573,-1.47215 0.82162,-1.92148c3.21066,-2.12562 6.8819,-3.48692 10.5197,-4.8607c1.39011,0.13154 2.77969,0.2527 4.16821,0.35517c0.57299,0.32844 1.17557,0.63127 1.81255,0.90469c3.11862,1.3386 6.33498,2.45768 9.45588,3.79931z" fill="#a37029" stroke="#ffffff" stroke-width="0"/><path d="M284.37437,199.86866c1.62238,-0.00201 3.24696,-0.00197 4.87437,-0.00217c0.09913,0.0043 0.19827,0.00874 0.29742,0.01331c-1.20138,1.97076 -2.48742,3.88816 -3.91363,5.72007c-1.20022,-1.8608 -1.97056,-3.79007 -1.25816,-5.73121z" fill="#a37029" stroke="#ffffff" stroke-width="0"/><path d="M338.71855,194.76381l-19.23044,5.57436c-1.51635,-0.71153 -3.09683,-1.27396 -4.68116,-1.82567c0.9688,-0.49817 1.90772,-1.04 2.80506,-1.64391c1.94293,-0.39738 3.81239,-0.95404 5.87748,-1.3227c4.26559,-0.7615 8.57749,-1.07894 12.8513,-1.91548l1.43848,-0.39049c0,0 0.03592,-0.00987 0.09538,-0.03206c0.49523,0.93832 0.84391,1.55597 0.84391,1.55597z" fill="#a37029" stroke="#ffffff" stroke-width="0"/><path d="M251.66775,197.58726c-0.53027,-1.17913 -1.13087,-2.3526 -1.77729,-3.52062l8.67219,-2.51382c0.75312,-0.00498 1.50656,-0.0089 2.26037,-0.01201c-0.59325,4.02471 2.98567,8.37801 5.16931,11.28379c1.36917,1.82197 3.0744,3.39271 4.8772,4.84715l-6.91912,2.00566c-2.51106,-1.23841 -4.9706,-2.79412 -7.42837,-4.71712c-1.5848,-1.23997 -2.84214,-2.64034 -4.00413,-4.06372c-0.19683,-1.16339 -0.40648,-2.32273 -0.85016,-3.30931z" fill="#a37029" stroke="#ffffff" stroke-width="0"/><path d="M247.33871,227.95299c0,0 -0.01334,-1.84774 -0.13028,-4.08874c4.90044,-0.88491 9.82896,-1.5811 14.6792,-2.51981c0.02413,0.02187 0.04841,0.04362 0.07286,0.06519c0.68153,0.60168 1.43014,1.15072 2.22518,1.6599z" fill="#a37029" stroke="#ffffff" stroke-width="0"/><path d="M275.85903,212.08222c-1.90393,-0.29191 -3.47665,-1.09376 -5.45057,-1.10718c-0.16297,-0.94511 -0.34621,-1.87858 -0.66883,-2.70951c0.04525,-0.00257 0.09053,-0.0048 0.13584,-0.00667c2.41931,-0.0999 4.1949,0.77476 6.45299,1.13279c1.53296,0.24305 3.14542,0.1474 4.74616,-0.15511c0.18491,0.28684 0.37432,0.5693 0.56575,0.84657c-0.74766,0.72866 -1.53133,1.43562 -2.3557,2.11817c-1.15043,0.08275 -2.29824,0.05379 -3.42564,-0.11906z" fill="#8b5f23" stroke="none" stroke-width="0.5"/><path d="M272.99837,196.20943c0.7259,1.1567 -0.4308,1.8826 -0.4308,1.8826l-1.63354,1.0214c-0.90199,0.40704 -1.84217,0.79921 -2.80817,1.1541c-0.56815,-0.74177 -1.16276,-1.50107 -1.70613,-2.27374c1.12649,-0.38461 2.21289,-0.83091 3.22353,-1.28733l1.4725,-0.92783c0,0 1.1567,-0.7259 1.8826,0.4308z" fill="#8b5f23" stroke="none" stroke-width="0.5"/><path d="M283.19112,197.12397c-0.97658,-1.02946 -1.18714,-2.75694 -0.94098,-4.54149c0.8405,0.08724 1.68106,0.17489 2.52157,0.26112c-0.22508,0.99461 -0.13625,1.90868 0.48491,2.49341c1.49444,1.40678 4.42248,0.78092 6.13137,0.27939c0.23345,-0.06767 0.4725,-0.13282 0.71492,-0.19784c-0.59572,1.09429 -1.20405,2.18003 -1.83365,3.25222c-2.46847,0.42139 -5.31562,0.31119 -7.07815,-1.5468z" fill="#8b5f23" stroke="none" stroke-width="0.5"/><path d="M297.85681,195.98531c-0.98476,0.68976 -2.08155,1.14446 -3.22005,1.51818c0.43293,-0.75758 0.86071,-1.51876 1.28566,-2.2817c0.64292,0.25864 1.28826,0.51189 1.93438,0.76352z" fill="#8b5f23" stroke="none" stroke-width="0.5"/><path d="M278.37341,199.96663c-0.47224,0.52926 -1.39343,0.35551 -2.00317,0.71792c-1.31169,0.77964 -2.4683,1.83913 -3.86585,2.45169c0,0 -1.25433,0.53995 -1.79428,-0.71438c-0.53995,-1.25433 0.71438,-1.79428 0.71438,-1.79428c1.57646,-0.66365 3.80438,-1.69672 5.04069,-2.615c0.68207,-0.5066 -0.15067,-1.69756 -0.11327,-2.54637c0.05834,-1.32422 0.24253,-2.42215 0.628,-3.4088c0.92128,0.08502 1.84293,0.17516 2.76481,0.26799c-1.1856,2.29308 0.51922,5.52245 -1.37131,7.64122z" fill="#8b5f23" stroke="none" stroke-width="0.5"/><path d="M314.68551,193.13235c-2.08639,-0.35387 -4.83309,1.02424 -6.77542,1.58728c0,0 -1.31161,0.3802 -1.69182,-0.93142c-0.04051,-0.13975 -0.06181,-0.26892 -0.06754,-0.38819c2.06766,-0.39966 4.03516,-1.00088 6.22202,-1.39128c2.30063,-0.41071 4.61473,-0.69224 6.92906,-0.99572c-0.77069,0.92803 -1.6248,1.74775 -2.54425,2.48287c-0.73017,-0.08759 -1.44402,-0.25702 -2.07205,-0.36353z" fill="#8b5f23" stroke="none" stroke-width="0.5"/><path d="M262.67837,207.45809c0.19757,0.68156 -0.0617,1.11162 -0.35636,1.36752c-0.92352,-0.51107 -1.84145,-1.06725 -2.75632,-1.67107c0.4315,0.03069 0.78567,-0.37349 1.17896,-0.55772l0.2419,-0.07012c0,0 1.31161,-0.3802 1.69182,0.93142z" fill="#8b5f23" stroke="none" stroke-width="0.5"/><path d="M258.37297,204.90889c0.47267,0.41783 0.42949,1.42082 0.7267,1.93377c-0.86084,-0.58409 -1.71934,-1.21083 -2.57763,-1.88237c-0.50316,-0.39368 -0.97332,-0.80354 -1.4179,-1.22516c1.13278,-0.06737 2.24165,0.26577 3.26883,1.17377z" fill="#8b5f23" stroke="none" stroke-width="0.5"/></g></g></svg>