<svg version="1.1" xmlns="http://www.w3.org/2000/svg" xmlns:xlink="http://www.w3.org/1999/xlink" width="801.03451" height="721.13361" viewBox="0,0,801.03451,721.13361"><defs><linearGradient x1="147.36471" y1="-6.77748" x2="259.65076" y2="-6.77748" gradientUnits="userSpaceOnUse" id="color-1"><stop offset="0" stop-color="#9f5500"/><stop offset="1" stop-color="#7a4100"/></linearGradient><linearGradient x1="361.51276" y1="206.93181" x2="432.60426" y2="206.93181" gradientUnits="userSpaceOnUse" id="color-2"><stop offset="0" stop-color="#452a1f"/><stop offset="1" stop-color="#6d4231"/></linearGradient><linearGradient x1="502.99186" y1="206.93181" x2="431.90037" y2="206.93181" gradientUnits="userSpaceOnUse" id="color-3"><stop offset="0" stop-color="#452a1f"/><stop offset="1" stop-color="#6d4231"/></linearGradient><linearGradient x1="348.73498" y1="350.26514" x2="432.10949" y2="350.26514" gradientUnits="userSpaceOnUse" id="color-4"><stop offset="0" stop-color="#452a1f"/><stop offset="1" stop-color="#6d4231"/></linearGradient><linearGradient x1="514.65854" y1="350.26514" x2="431.28401" y2="350.26514" gradientUnits="userSpaceOnUse" id="color-5"><stop offset="0" stop-color="#452a1f"/><stop offset="1" stop-color="#6d4231"/></linearGradient></defs><g transform="translate(189.66956,124.80328)"><g data-paper-data="{&quot;isPaintingLayer&quot;:true}" fill-rule="nonzero" stroke-linecap="butt" stroke-linejoin="miter" stroke-miterlimit="10" stroke-dasharray="" stroke-dashoffset="0" style="mix-blend-mode: normal"><path d="M333.2419,214.17169c0,-3.92169 0,-8.17564 0,-10.68847c0,-7.43362 5.26388,-10.68847 11.00332,-10.68847c11.29278,0 54.71096,0 54.71096,0v30.48193c0,0 -43.79258,0 -55.01661,0c-4.94933,0 -10.69767,-4.30346 -10.69767,-9.10499z" fill="#9bff98" stroke="none" stroke-width="0"/><path d="M335.66306,213.45276c0,-3.4622 0,-7.21774 0,-9.43615c0,-6.56266 4.64713,-9.43615 9.71411,-9.43615c9.96966,0 48.30073,0 48.30073,0v26.9105c0,0 -38.6616,0 -48.57057,0c-4.36944,0 -9.44428,-3.79924 -9.44428,-8.0382z" fill="#8ce489" stroke="none" stroke-width="0"/><path d="M80.36365,228.02598v-57.5c0,0 3.58163,-9.94407 14.28571,-10.35714c9.79586,-0.37803 16.07143,10.35714 16.07143,10.35714v57.5z" fill="#6f3b00" stroke="#000000" stroke-width="0"/><g stroke="#000000" stroke-width="0"><path d="M-189.44282,-31.98799v-71h437.72421c-0.01045,0.29624 -0.01832,0.59215 -0.02373,0.88749c-0.00274,0.03343 -0.00529,0.06693 -0.00765,0.1005c-0.17535,2.50049 -0.23755,5.25764 -0.04694,8.04681c-0.08725,17.15316 -0.02447,34.31086 0.54694,51.45319c0.09139,2.74174 -0.10069,5.49353 -0.14775,8.23812c-0.20184,0.75775 -0.37204,1.51192 -0.47209,2.27389z" fill="#b4eceb"/><path d="M599.74335,-102.98799v71l-268.39074,2c0,0 0.00643,-70.49055 0.00643,-72.99029c0,-0.00324 0,-0.00647 0,-0.00971z" fill="#b4eceb"/><path d="M-189.44282,-88.98799v-35h438.72332c0.03138,4.37712 0.01021,8.75466 -0.01396,13.132c-0.65748,2.8221 -0.95506,5.81667 -1.00888,8.75549c-0.00274,0.03343 -0.00529,0.06693 -0.00765,0.1005c-0.17535,2.50049 -0.23755,5.25764 -0.04694,8.04681c-0.00842,1.65503 -0.01544,3.3101 -0.02074,4.9652z" fill="#9ed0d0"/><path d="M599.74335,-123.98799v35h-269.1876c0,0 0.80329,-11.49055 0.80329,-13.99029c0,-5.24835 -0.32171,-9.20227 -0.69915,-13.06478c0.85449,-2.59587 2.15237,-5.27644 3.18878,-7.94493z" fill="#9ed0d0"/></g><g stroke="#000000" stroke-width="0"><path d="M463.7103,596.33033v-71h147.65465v71z" fill="#afae9f"/><path d="M463.7103,539.33033v-35h147.65465v35z" fill="#cccbba"/></g><path d="M123.35725,-33.92857l-20.71429,-15c0,0 35.03559,-10.26835 52.98646,-11.28253c22.95096,-1.29666 74.1564,14.85396 74.1564,14.85396l-0.71429,11.42857z" fill="#2e944e" stroke="#000000" stroke-width="0"/><g stroke-width="0"><path d="M50.19492,-31.85036c0,0 0.49775,-4.15335 0.04478,-8.50309c-0.37224,-3.57462 -1.71114,-7.11959 -1.71114,-9.99348c0,-5.65147 1.66636,-17.83003 1.66636,-17.83003h2.49954c0,0 -1.66636,11.07845 -1.66636,16.83021c0,2.70931 1.64068,7.02265 1.99155,10.68145c0.46581,4.85722 -0.32519,8.81494 -0.32519,8.81494z" fill="#53a26c" stroke="#000000"/><g fill="#e0ce64" stroke="none"><path d="M68.19155,-71.0931c0,0 -3.84218,1.74968 -8.58175,1.74968c-4.73956,0 -8.58174,-0.78336 -8.58174,-1.74968c0,-0.96632 3.84218,-1.74967 8.58174,-1.74967c4.73957,0 8.58175,1.74967 8.58175,1.74967z"/><path d="M50.94478,-88.17326c0,0 1.74968,3.84218 1.74968,8.58174c0,4.73956 -0.78336,8.58174 -1.74968,8.58174c-0.96632,0 -1.74967,-3.84218 -1.74967,-8.58174c0,-4.73956 1.74967,-8.58174 1.74967,-8.58174z"/><path d="M42.44636,-72.67613c4.73956,0 8.58174,0.78336 8.58174,1.74967c0,0.96632 -3.84218,1.74968 -8.58174,1.74968c-4.73956,0 -8.58174,-1.74968 -8.58174,-1.74968c0,0 3.84218,-1.74967 8.58174,-1.74967z" data-paper-data="{&quot;index&quot;:null}"/><path d="M49.36174,-62.42803c0,-4.73957 0.78335,-8.58175 1.74967,-8.58175c0.96632,0 1.74968,3.84218 1.74968,8.58175c0,4.73956 -1.74968,8.58174 -1.74968,8.58174c0,0 -1.74967,-3.84217 -1.74967,-8.58174z" data-paper-data="{&quot;index&quot;:null}"/></g><g fill="#e0ce64" stroke="none"><path d="M59.18616,-55.90884c0,0 -3.35321,-2.56509 -5.5857,-6.74594c-2.23249,-4.18085 -3.35127,-7.93908 -2.49887,-8.39425c0.8524,-0.45517 3.35321,2.56509 5.5857,6.74594c2.23249,4.18084 2.49886,8.39424 2.49886,8.39424z"/><path d="M66.12901,-79.16783c0,0 -2.56509,3.35321 -6.74594,5.5857c-4.18084,2.23249 -7.93908,3.35127 -8.39425,2.49886c-0.45517,-0.85241 2.5651,-3.35321 6.74594,-5.5857c4.18084,-2.23249 8.39424,-2.49886 8.39424,-2.49886z"/><path d="M48.45574,-79.36478c2.23249,4.18085 3.35127,7.93908 2.49886,8.39425c-0.8524,0.45517 -3.35321,-2.56509 -5.5857,-6.74594c-2.23249,-4.18085 -2.49887,-8.39424 -2.49887,-8.39424c0,0 3.35321,2.56509 5.5857,6.74594z" data-paper-data="{&quot;index&quot;:null}"/><path d="M42.6731,-68.43741c4.18084,-2.23249 7.93907,-3.35127 8.39424,-2.49886c0.45517,0.85241 -2.56509,3.35321 -6.74594,5.5857c-4.18084,2.23249 -8.39425,2.49886 -8.39425,2.49886c0,0 2.5651,-3.35321 6.74594,-5.5857z" data-paper-data="{&quot;index&quot;:null}"/></g><g fill="#e0ce64" stroke="none"><path d="M64.86535,-60.85484c0,0 -4.1285,-0.88271 -7.93585,-3.7054c-3.80735,-2.82269 -6.42728,-5.74022 -5.85178,-6.51647c0.5755,-0.77626 4.1285,0.88271 7.93585,3.7054c3.80735,2.82269 5.85178,6.51647 5.85178,6.51647z"/><path d="M61.18304,-84.84703c0,0 -0.88271,4.1285 -3.7054,7.93585c-2.82269,3.80735 -5.74021,6.42729 -6.51647,5.85179c-0.77625,-0.5755 0.88271,-4.12851 3.7054,-7.93586c2.82269,-3.80735 6.51647,-5.85178 6.51647,-5.85178z"/><path d="M45.1267,-77.45931c3.80735,2.82269 6.42728,5.74021 5.85178,6.51647c-0.5755,0.77626 -4.1285,-0.88271 -7.93585,-3.7054c-3.80735,-2.82269 -5.85178,-6.51647 -5.85178,-6.51647c0,0 4.1285,0.88271 7.93585,3.7054z" data-paper-data="{&quot;index&quot;:null}"/><path d="M44.57856,-65.10837c2.82269,-3.80735 5.74021,-6.42728 6.51647,-5.85178c0.77625,0.5755 -0.8827,4.1285 -3.70539,7.93585c-2.82269,3.80735 -6.51647,5.85178 -6.51647,5.85178c0,0 0.88271,-4.1285 3.7054,-7.93585z" data-paper-data="{&quot;index&quot;:null}"/></g><path d="M47.02884,-70.50987c0,-2.1167 1.71592,-3.83262 3.83263,-3.83262c2.1167,0 3.83263,1.71592 3.83263,3.83262c0,2.1167 -1.71592,3.83263 -3.83262,3.83263c-2.1167,0 -3.83262,-1.71593 -3.83262,-3.83263z" fill="#74613b" stroke="#000000"/></g><g stroke-width="0"><path d="M-57.6622,-31.85036c0,0 0.49775,-4.15335 0.04478,-8.50309c-0.37224,-3.57462 -1.71114,-7.11959 -1.71114,-9.99348c0,-5.65147 1.66636,-17.83003 1.66636,-17.83003h2.49954c0,0 -1.66636,11.07845 -1.66636,16.83021c0,2.70931 1.64068,7.02265 1.99155,10.68145c0.46581,4.85722 -0.3252,8.81494 -0.3252,8.81494z" fill="#53a26c" stroke="#000000"/><g fill="#e0ce64" stroke="none"><path d="M-39.6656,-71.0931c0,0 -3.84217,1.74968 -8.58174,1.74968c-4.73956,0 -8.58175,-0.78336 -8.58175,-1.74968c0,-0.96632 3.84219,-1.74967 8.58175,-1.74967c4.73956,0 8.58174,1.74967 8.58174,1.74967z"/><path d="M-56.91236,-88.17326c0,0 1.74968,3.84218 1.74968,8.58174c0,4.73956 -0.78336,8.58174 -1.74968,8.58174c-0.96632,0 -1.74967,-3.84218 -1.74967,-8.58174c0,-4.73956 1.74967,-8.58174 1.74967,-8.58174z"/><path d="M-65.41079,-72.67613c4.73956,0 8.58174,0.78336 8.58174,1.74967c0,0.96632 -3.84218,1.74968 -8.58174,1.74968c-4.73956,0 -8.58175,-1.74968 -8.58175,-1.74968c0,0 3.84218,-1.74967 8.58175,-1.74967z" data-paper-data="{&quot;index&quot;:null}"/><path d="M-58.4954,-62.42803c0,-4.73957 0.78335,-8.58175 1.74967,-8.58175c0.96632,0 1.74968,3.84218 1.74968,8.58175c0,4.73956 -1.74968,8.58174 -1.74968,8.58174c0,0 -1.74967,-3.84217 -1.74967,-8.58174z" data-paper-data="{&quot;index&quot;:null}"/></g><g fill="#e0ce64" stroke="none"><path d="M-48.67096,-55.90884c0,0 -3.35321,-2.56509 -5.5857,-6.74594c-2.23249,-4.18085 -3.35127,-7.93908 -2.49887,-8.39425c0.8524,-0.45517 3.35321,2.56509 5.5857,6.74594c2.23249,4.18084 2.49886,8.39424 2.49886,8.39424z"/><path d="M-41.72819,-79.16783c0,0 -2.56509,3.35321 -6.74593,5.5857c-4.18084,2.23249 -7.93908,3.35127 -8.39425,2.49886c-0.45517,-0.85241 2.56509,-3.35321 6.74594,-5.5857c4.18084,-2.23249 8.39424,-2.49886 8.39424,-2.49886z"/><path d="M-59.4014,-79.36478c2.23249,4.18085 3.35128,7.93908 2.49887,8.39425c-0.8524,0.45517 -3.35322,-2.56509 -5.58571,-6.74594c-2.23249,-4.18085 -2.49886,-8.39424 -2.49886,-8.39424c0,0 3.35321,2.56509 5.5857,6.74594z" data-paper-data="{&quot;index&quot;:null}"/><path d="M-65.18408,-68.43741c4.18084,-2.23249 7.93908,-3.35127 8.39425,-2.49886c0.45517,0.85241 -2.56509,3.35321 -6.74594,5.5857c-4.18084,2.23249 -8.39425,2.49886 -8.39425,2.49886c0,0 2.56509,-3.35321 6.74594,-5.5857z" data-paper-data="{&quot;index&quot;:null}"/></g><g fill="#e0ce64" stroke="none"><path d="M-42.99179,-60.85484c0,0 -4.1285,-0.88271 -7.93585,-3.7054c-3.80735,-2.82269 -6.42728,-5.74022 -5.85178,-6.51647c0.5755,-0.77626 4.1285,0.88271 7.93585,3.7054c3.80735,2.82269 5.85178,6.51647 5.85178,6.51647z"/><path d="M-46.6741,-84.84703c0,0 -0.88271,4.1285 -3.7054,7.93585c-2.82269,3.80735 -5.74022,6.42729 -6.51647,5.85179c-0.77625,-0.5755 0.88271,-4.12851 3.7054,-7.93586c2.82269,-3.80735 6.51647,-5.85178 6.51647,-5.85178z"/><path d="M-62.73044,-77.45931c3.80735,2.82269 6.42728,5.74021 5.85179,6.51647c-0.5755,0.77626 -4.12851,-0.88271 -7.93586,-3.7054c-3.80735,-2.82269 -5.85178,-6.51647 -5.85178,-6.51647c0,0 4.1285,0.88271 7.93585,3.7054z" data-paper-data="{&quot;index&quot;:null}"/><path d="M-63.27858,-65.10837c2.82269,-3.80735 5.74021,-6.42728 6.51647,-5.85178c0.77625,0.5755 -0.88271,4.1285 -3.7054,7.93585c-2.82269,3.80735 -6.51647,5.85178 -6.51647,5.85178c0,0 0.88271,-4.1285 3.7054,-7.93585z" data-paper-data="{&quot;index&quot;:null}"/></g><path d="M-60.82829,-70.50987c0,-2.1167 1.71592,-3.83262 3.83262,-3.83262c2.1167,0 3.83263,1.71592 3.83263,3.83262c0,2.1167 -1.71592,3.83263 -3.83262,3.83263c-2.1167,0 -3.83262,-1.71593 -3.83262,-3.83263z" fill="#74613b" stroke="#000000"/></g><g stroke-width="0"><path d="M187.3378,-31.85036c0,0 0.49775,-4.15335 0.04478,-8.50309c-0.37224,-3.57462 -1.71114,-7.11959 -1.71114,-9.99348c0,-5.65147 1.66636,-17.83003 1.66636,-17.83003h2.49953c0,0 -1.66635,11.07845 -1.66635,16.83021c0,2.70931 1.64067,7.02265 1.99155,10.68145c0.4658,4.85722 -0.3252,8.81494 -0.3252,8.81494z" fill="#53a26c" stroke="#000000"/><g fill="#e0ce64" stroke="none"><path d="M205.33448,-71.0931c0,0 -3.84218,1.74968 -8.58174,1.74968c-4.73956,0 -8.58175,-0.78336 -8.58175,-1.74968c0,-0.96632 3.84219,-1.74967 8.58175,-1.74967c4.73956,0 8.58174,1.74967 8.58174,1.74967z"/><path d="M188.08764,-88.17326c0,0 1.74967,3.84218 1.74967,8.58174c0,4.73956 -0.78336,8.58174 -1.74967,8.58174c-0.96632,0 -1.74967,-3.84218 -1.74967,-8.58174c0,-4.73956 1.74967,-8.58174 1.74967,-8.58174z"/><path d="M179.58922,-72.67613c4.73956,0 8.58175,0.78336 8.58175,1.74967c0,0.96632 -3.84218,1.74968 -8.58175,1.74968c-4.73956,0 -8.58174,-1.74968 -8.58174,-1.74968c0,0 3.84218,-1.74967 8.58174,-1.74967z" data-paper-data="{&quot;index&quot;:null}"/><path d="M186.50461,-62.42803c0,-4.73957 0.78336,-8.58175 1.74967,-8.58175c0.96632,0 1.74967,3.84218 1.74967,8.58175c0,4.73956 -1.74967,8.58174 -1.74967,8.58174c0,0 -1.74967,-3.84217 -1.74967,-8.58174z" data-paper-data="{&quot;index&quot;:null}"/></g><g fill="#e0ce64" stroke="none"><path d="M196.32904,-55.90884c0,0 -3.3532,-2.56509 -5.58569,-6.74594c-2.23249,-4.18085 -3.35127,-7.93908 -2.49886,-8.39425c0.85241,-0.45517 3.35321,2.56509 5.5857,6.74594c2.23249,4.18084 2.49886,8.39424 2.49886,8.39424z"/><path d="M203.2719,-79.16783c0,0 -2.56509,3.35321 -6.74594,5.5857c-4.18085,2.23249 -7.93908,3.35127 -8.39425,2.49886c-0.45517,-0.85241 2.5651,-3.35321 6.74594,-5.5857c4.18085,-2.23249 8.39424,-2.49886 8.39424,-2.49886z"/><path d="M185.59862,-79.36478c2.23249,4.18085 3.35127,7.93908 2.49887,8.39425c-0.85241,0.45517 -3.35321,-2.56509 -5.5857,-6.74594c-2.23249,-4.18085 -2.49886,-8.39424 -2.49886,-8.39424c0,0 3.35321,2.56509 5.5857,6.74594z" data-paper-data="{&quot;index&quot;:null}"/><path d="M179.81598,-68.43741c4.18085,-2.23249 7.93908,-3.35127 8.39425,-2.49886c0.45517,0.85241 -2.56509,3.35321 -6.74594,5.5857c-4.18085,2.23249 -8.39425,2.49886 -8.39425,2.49886c0,0 2.56509,-3.35321 6.74594,-5.5857z" data-paper-data="{&quot;index&quot;:null}"/></g><g fill="#e0ce64" stroke="none"><path d="M202.00821,-60.85484c0,0 -4.1285,-0.88271 -7.93585,-3.7054c-3.80735,-2.82269 -6.42728,-5.74022 -5.85178,-6.51647c0.5755,-0.77626 4.1285,0.88271 7.93585,3.7054c3.80735,2.82269 5.85178,6.51647 5.85178,6.51647z"/><path d="M198.3259,-84.84703c0,0 -0.88271,4.1285 -3.7054,7.93585c-2.82269,3.80735 -5.74022,6.42729 -6.51647,5.85179c-0.77625,-0.5755 0.88271,-4.12851 3.7054,-7.93586c2.82269,-3.80735 6.51647,-5.85178 6.51647,-5.85178z"/><path d="M182.26956,-77.45931c3.80735,2.82269 6.42729,5.74021 5.85179,6.51647c-0.5755,0.77626 -4.1285,-0.88271 -7.93586,-3.7054c-3.80735,-2.82269 -5.85178,-6.51647 -5.85178,-6.51647c0,0 4.1285,0.88271 7.93585,3.7054z" data-paper-data="{&quot;index&quot;:null}"/><path d="M181.72142,-65.10837c2.82269,-3.80735 5.74021,-6.42728 6.51647,-5.85178c0.77625,0.5755 -0.88271,4.1285 -3.7054,7.93585c-2.82269,3.80735 -6.51647,5.85178 -6.51647,5.85178c0,0 0.88271,-4.1285 3.7054,-7.93585z" data-paper-data="{&quot;index&quot;:null}"/></g><path d="M184.17171,-70.50987c0,-2.1167 1.71592,-3.83262 3.83262,-3.83262c2.1167,0 3.83263,1.71592 3.83263,3.83262c0,2.1167 -1.71592,3.83263 -3.83263,3.83263c-2.1167,0 -3.83262,-1.71593 -3.83262,-3.83263z" fill="#74613b" stroke="#000000"/></g><g stroke-width="0"><path d="M334.48055,-31.85036c0,0 0.49775,-4.15335 0.04478,-8.50309c-0.37225,-3.57462 -1.71113,-7.11959 -1.71113,-9.99348c0,-5.65147 1.66635,-17.83003 1.66635,-17.83003h2.49954c0,0 -1.66636,11.07845 -1.66636,16.83021c0,2.70931 1.64068,7.02265 1.99156,10.68145c0.4658,4.85722 -0.3252,8.81494 -0.3252,8.81494z" fill="#53a26c" stroke="#000000"/><g fill="#e0ce64" stroke="none"><path d="M352.47733,-71.0931c0,0 -3.84218,1.74968 -8.58175,1.74968c-4.73957,0 -8.58175,-0.78336 -8.58175,-1.74968c0,-0.96632 3.84218,-1.74967 8.58175,-1.74967c4.73957,0 8.58175,1.74967 8.58175,1.74967z"/><path d="M335.23046,-88.17326c0,0 1.74968,3.84218 1.74968,8.58174c0,4.73956 -0.78336,8.58174 -1.74968,8.58174c-0.96632,0 -1.74967,-3.84218 -1.74967,-8.58174c0,-4.73956 1.74967,-8.58174 1.74967,-8.58174z"/><path d="M335.31381,-70.92646c0,0.6081 -1.52153,1.14374 -3.83075,1.45731c-0.13536,-0.68506 -0.23169,-1.36642 -0.23306,-2.04322c-0.00061,-0.30159 -0.00202,-0.60239 -0.00419,-0.90246c2.44169,0.30845 4.068,0.85969 4.068,1.48838z" data-paper-data="{&quot;index&quot;:null}"/><path d="M333.64743,-62.42803c0,-4.73957 0.78335,-8.58175 1.74967,-8.58175c0.96632,0 1.74968,3.84218 1.74968,8.58175c0,4.73956 -1.74968,8.58174 -1.74968,8.58174c0,0 -1.74967,-3.84217 -1.74967,-8.58174z" data-paper-data="{&quot;index&quot;:null}"/></g><g fill="#e0ce64" stroke="none"><path d="M343.47188,-55.90884c0,0 -3.35321,-2.56509 -5.5857,-6.74594c-2.23249,-4.18085 -3.35127,-7.93908 -2.49887,-8.39425c0.8524,-0.45517 3.35321,2.56509 5.5857,6.74594c2.23249,4.18084 2.49886,8.39424 2.49886,8.39424z"/><path d="M350.41478,-79.16783c0,0 -2.56509,3.35321 -6.74594,5.5857c-4.18084,2.23249 -7.93908,3.35127 -8.39425,2.49886c-0.45517,-0.85241 2.56509,-3.35321 6.74593,-5.5857c4.18084,-2.23249 8.39425,-2.49886 8.39425,-2.49886z"/><path d="M332.74136,-79.36478c2.23249,4.18085 3.35127,7.93908 2.49887,8.39425c-0.65717,0.35092 -2.29413,-1.36391 -4.03255,-4.08371c-0.05138,-2.40279 -0.14551,-4.76415 -0.26233,-7.10386c0.62211,0.82251 1.2434,1.75842 1.79603,2.79334z" data-paper-data="{&quot;index&quot;:null}"/><path d="M335.35303,-70.93627c0.32015,0.59957 -1.07913,2.01466 -3.39232,3.5783c-0.23372,-1.03154 -0.50776,-2.05682 -0.63663,-3.07298c2.16586,-0.80025 3.74412,-1.03873 4.02895,-0.50532z" data-paper-data="{&quot;index&quot;:null}"/></g><g fill="#e0ce64" stroke="none"><path d="M349.15109,-60.85484c0,0 -4.1285,-0.88271 -7.93585,-3.7054c-3.80735,-2.82269 -6.42728,-5.74022 -5.85179,-6.51647c0.5755,-0.77626 4.1285,0.88271 7.93585,3.7054c3.80735,2.82269 5.85178,6.51647 5.85178,6.51647z"/><path d="M345.46877,-84.84703c0,0 -0.8827,4.1285 -3.7054,7.93585c-2.82269,3.80735 -5.74022,6.42729 -6.51647,5.85179c-0.77625,-0.5755 0.8827,-4.12851 3.7054,-7.93586c2.82269,-3.80735 6.51647,-5.85178 6.51647,-5.85178z"/><path d="M335.26417,-70.94284c-0.36635,0.49415 -1.93928,0.00147 -4.01632,-1.15004c-0.00723,-1.33978 -0.02981,-2.66463 -0.06444,-3.97783c2.81075,2.3347 4.56175,4.47912 4.08077,5.12788z" data-paper-data="{&quot;index&quot;:null}"/><path d="M335.38074,-70.96015c0.71247,0.52821 -0.62652,3.56471 -3.03386,7.00397c0.00799,-0.17307 0.01216,-0.34707 0.01216,-0.5221c0,-1.35066 -0.35723,-2.69525 -0.6662,-4.02752c1.73296,-1.8238 3.17602,-2.83386 3.68791,-2.45435z" data-paper-data="{&quot;index&quot;:null}"/></g><path d="M331.31453,-70.50987c0,-2.1167 1.71593,-3.83262 3.83263,-3.83262c2.1167,0 3.83262,1.71592 3.83262,3.83262c0,2.1167 -1.71592,3.83263 -3.83262,3.83263c-1.67222,0 -3.0943,-1.07094 -3.61781,-2.56437c-0.08853,-0.42371 -0.16454,-0.84606 -0.21482,-1.26682c0,-0.00048 0,-0.00096 0,-0.00144z" fill="#74613b" stroke="#000000"/></g><g stroke="#000000" stroke-width="0"><path d="M236.96237,-56.98731c-7.97627,0 -14.44232,-6.81106 -14.44232,-15.21291c0,-8.40185 6.46605,-15.2129 14.44232,-15.2129c4.52312,0 8.5606,2.19024 11.20872,5.61877c0.00135,6.3446 0.03482,12.68917 0.11855,19.03271c-2.64532,3.5177 -6.73611,5.77432 -11.32727,5.77432z" fill="#40c32e"/><path d="M233.69444,-40.19677c0,0 0.25653,-16.85417 -0.82421,-22.46571c-0.35558,-1.84632 -2.99186,-3.74889 -4.114,-5.23084c-1.22221,-1.61412 -0.92157,-2.72926 -0.92157,-2.72926c0,0 4.29986,2.80497 7.1561,3.9609c0.22359,0.09049 -0.08452,-2.16601 0.40147,-3.95001c0.25567,-0.93854 1.36788,-1.95856 1.51242,-1.97713c0.4025,-0.0517 0.36889,1.48287 0.5564,2.90539c0.19338,1.467 0.60328,2.82415 0.71984,2.82415c1.29538,0 4.07785,-3.53793 4.07785,-3.53793c0,0 0.49812,0.68924 0.18403,2.06696c-0.61832,2.7122 -2.27465,7.24871 -2.30354,8.53883c-0.11037,4.92955 1.44338,19.59465 1.44338,19.59465z" fill="#736124"/></g><g stroke="#000000" stroke-width="0"><path d="" fill="#edace5"/><path d="" fill="#edace5"/><path d="" fill="#736124"/></g><path d="M-51.2499,-32.5l-18.75,-15c0,0 44.15177,-6.629 64.85308,-5.64841c18.67235,0.88448 53.89692,11.27341 53.89692,11.27341l-21.25,9.375z" fill="#2e944e" stroke="#000000" stroke-width="0"/><g stroke="#000000" stroke-width="0"><path d="M153.54746,-67.91451c0,8.40185 -6.46605,15.21291 -14.44232,15.21291c-7.97627,0 -14.44232,-6.81105 -14.44232,-15.21291c0,-8.40185 6.46605,-15.21291 14.44232,-15.21291c7.97627,0 14.44232,6.81105 14.44232,15.21291z" fill="#edace5"/><path d="M135.83722,-35.91105c0,0 0.25652,-16.85418 -0.82422,-22.46572c-0.35558,-1.84632 -2.99186,-3.74889 -4.11399,-5.23084c-1.22221,-1.61412 -0.92158,-2.72926 -0.92158,-2.72926c0,0 4.29986,2.80497 7.15611,3.96091c0.22359,0.09049 -0.08452,-2.16601 0.40147,-3.95002c0.25567,-0.93854 1.36788,-1.95857 1.51242,-1.97714c0.4025,-0.0517 0.36889,1.48287 0.5564,2.90539c0.19338,1.467 0.60327,2.82415 0.71984,2.82415c1.29538,0 4.07785,-3.53793 4.07785,-3.53793c0,0 0.49813,0.68924 0.18404,2.06697c-0.61832,2.7122 -2.27465,7.2487 -2.30354,8.53882c-0.11037,4.92955 1.44338,19.59465 1.44338,19.59465z" fill="#736124"/></g><g stroke="#000000" stroke-width="0"><path d="M23.54755,-66.48593c0,8.40185 -6.46605,15.21291 -14.44232,15.21291c-7.97627,0 -14.44231,-6.81106 -14.44231,-15.21291c0,-8.40185 6.46605,-15.21291 14.44232,-15.21291c7.97627,0 14.44232,6.81105 14.44232,15.21291z" fill="#edace5"/><path d="M5.83728,-34.48248c0,0 0.25652,-16.85418 -0.82422,-22.46572c-0.35558,-1.84632 -2.99186,-3.74889 -4.11399,-5.23084c-1.22221,-1.61412 -0.92158,-2.72926 -0.92158,-2.72926c0,0 4.29986,2.80497 7.15611,3.9609c0.22359,0.09049 -0.08453,-2.16601 0.40146,-3.95001c0.25567,-0.93854 1.36789,-1.95856 1.51243,-1.97713c0.4025,-0.0517 0.36889,1.48287 0.5564,2.90539c0.19337,1.467 0.60328,2.82415 0.71984,2.82415c1.29538,0 4.07785,-3.53792 4.07785,-3.53792c0,0 0.49813,0.68924 0.18404,2.06696c-0.61832,2.7122 -2.27465,7.24871 -2.30354,8.53883c-0.11036,4.92955 1.44338,19.59465 1.44338,19.59465z" fill="#736124"/></g><g stroke="#000000" stroke-width="0"><path d="M-90.02388,-72.02165c0,8.40185 -6.46605,15.21291 -14.44232,15.21291c-7.97627,0 -14.44232,-6.81105 -14.44232,-15.21291c0,-8.40185 6.46605,-15.21291 14.44232,-15.21291c7.97627,0 14.44232,6.81105 14.44232,15.21291z" fill="#edace5"/><path d="M-107.73415,-40.0182c0,0 0.25653,-16.85417 -0.82421,-22.46571c-0.35559,-1.84632 -2.99186,-3.74889 -4.114,-5.23084c-1.22221,-1.61412 -0.92158,-2.72926 -0.92158,-2.72926c0,0 4.29986,2.80497 7.15611,3.9609c0.22359,0.09049 -0.08452,-2.16601 0.40147,-3.95002c0.25567,-0.93854 1.36788,-1.95856 1.51242,-1.97713c0.4025,-0.0517 0.36888,1.48287 0.5564,2.90539c0.19338,1.467 0.60328,2.82415 0.71985,2.82415c1.29538,0 4.07785,-3.53792 4.07785,-3.53792c0,0 0.49812,0.68924 0.18403,2.06696c-0.61832,2.7122 -2.27465,7.24871 -2.30354,8.53882c-0.11037,4.92955 1.44338,19.59465 1.44338,19.59465z" fill="#736124"/></g><g stroke="#000000" stroke-width="0"><path d="M113.90471,-74.62863c0,7.25794 -5.58568,13.14165 -12.47598,13.14165c-6.89029,0 -12.47597,-5.88371 -12.47597,-13.14165c0,-7.25794 5.58568,-13.14164 12.47597,-13.14164c6.89029,0 12.47598,5.88371 12.47598,13.14164z" fill="#40c32e"/><path d="M98.60572,-46.98249c0,0 0.2216,-14.55946 -0.71199,-19.40698c-0.30718,-1.59494 -2.58452,-3.23847 -3.55387,-4.51866c-1.05581,-1.39435 -0.7961,-2.35766 -0.7961,-2.35766c0,0 3.71443,2.42307 6.18179,3.42162c0.19315,0.07817 -0.07301,-1.87111 0.34681,-3.41222c0.22086,-0.81076 1.18165,-1.6919 1.30651,-1.70794c0.3477,-0.04466 0.31866,1.28097 0.48064,2.50981c0.16705,1.26727 0.52114,2.43964 0.62184,2.43964c1.11902,0 3.52264,-3.05623 3.52264,-3.05623c0,0 0.43031,0.5954 0.15898,1.78554c-0.53414,2.34293 -1.96496,6.26178 -1.98991,7.37625c-0.09534,4.25838 1.24686,16.92681 1.24686,16.92681z" fill="#736124"/></g><g stroke="#000000" stroke-width="0"><path d="M412.11899,-72.20022c0,8.40185 -6.46605,15.21291 -14.44232,15.21291c-7.97627,0 -14.44232,-6.81106 -14.44232,-15.21291c0,-8.40185 6.46605,-15.2129 14.44232,-15.2129c7.97627,0 14.44232,6.81105 14.44232,15.2129z" fill="#edace5"/><path d="M394.40871,-40.19677c0,0 0.25652,-16.85417 -0.82422,-22.46571c-0.35559,-1.84632 -2.99186,-3.74889 -4.114,-5.23084c-1.22221,-1.61412 -0.92158,-2.72926 -0.92158,-2.72926c0,0 4.29986,2.80497 7.15611,3.9609c0.22359,0.09049 -0.08452,-2.16601 0.40147,-3.95001c0.25567,-0.93854 1.36789,-1.95856 1.51243,-1.97713c0.4025,-0.0517 0.36888,1.48287 0.5564,2.90539c0.19338,1.467 0.60328,2.82415 0.71985,2.82415c1.29538,0 4.07785,-3.53793 4.07785,-3.53793c0,0 0.49813,0.68924 0.18403,2.06696c-0.61832,2.7122 -2.27465,7.24871 -2.30354,8.53883c-0.11037,4.92955 1.44338,19.59465 1.44338,19.59465z" fill="#736124"/></g><g stroke="#000000" stroke-width="0"><path d="M459.26186,-66.48593c0,8.40185 -6.46605,15.21291 -14.44232,15.21291c-7.97627,0 -14.44232,-6.81106 -14.44232,-15.21291c0,-8.40185 6.46605,-15.21291 14.44232,-15.21291c7.97627,0 14.44232,6.81105 14.44232,15.21291z" fill="#40c32e"/><path d="M441.55158,-34.48248c0,0 0.25652,-16.85418 -0.82422,-22.46572c-0.35559,-1.84632 -2.99186,-3.74889 -4.11399,-5.23084c-1.22221,-1.61412 -0.92158,-2.72926 -0.92158,-2.72926c0,0 4.29986,2.80497 7.15611,3.9609c0.22359,0.09049 -0.08452,-2.16601 0.40147,-3.95001c0.25567,-0.93854 1.36788,-1.95856 1.51242,-1.97713c0.4025,-0.0517 0.36888,1.48287 0.5564,2.90539c0.19338,1.467 0.60328,2.82415 0.71985,2.82415c1.29538,0 4.07785,-3.53792 4.07785,-3.53792c0,0 0.49813,0.68924 0.18403,2.06696c-0.61832,2.7122 -2.27465,7.24871 -2.30354,8.53883c-0.11037,4.92955 1.44338,19.59465 1.44338,19.59465z" fill="#736124"/></g><path d="M469.12511,-36.25l-8.125,-16.875c0,0 23.72576,-2.07185 35.01983,-2.1736c11.80804,-0.10638 43.10517,9.6736 43.10517,9.6736l-8.75,9.375z" fill="#2e944e" stroke="#000000" stroke-width="0"/><g stroke="#000000" stroke-width="0"><path d="M541.4046,-73.62879c0,8.40185 -6.46605,15.2129 -14.44232,15.2129c-7.97627,0 -14.44232,-6.81105 -14.44232,-15.2129c0,-8.40185 6.46605,-15.21291 14.44232,-15.21291c7.97627,0 14.44232,6.81106 14.44232,15.21291z" fill="#40c32e"/><path d="M523.69431,-41.62534c0,0 0.25653,-16.85417 -0.82421,-22.46571c-0.35559,-1.84632 -2.99186,-3.74889 -4.114,-5.23085c-1.22221,-1.61412 -0.92158,-2.72925 -0.92158,-2.72925c0,0 4.29985,2.80497 7.15611,3.9609c0.22359,0.09049 -0.08452,-2.16601 0.40147,-3.95002c0.25567,-0.93854 1.36788,-1.95856 1.51242,-1.97713c0.4025,-0.0517 0.36888,1.48287 0.5564,2.90539c0.19337,1.467 0.60328,2.82415 0.71985,2.82415c1.29538,0 4.07785,-3.53792 4.07785,-3.53792c0,0 0.49812,0.68924 0.18403,2.06696c-0.61832,2.7122 -2.27466,7.2487 -2.30354,8.53882c-0.11037,4.92955 1.44338,19.59465 1.44338,19.59465z" fill="#736124"/></g><g stroke="#000000" stroke-width="0"><path d="M505.12755,-58.7396c0,6.36821 -4.90096,11.53067 -10.9466,11.53067c-6.04564,0 -10.9466,-5.16246 -10.9466,-11.53067c0,-6.36821 4.90096,-11.53067 10.9466,-11.53067c6.04564,0 10.9466,5.16245 10.9466,11.53067z" fill="#edace5"/><path d="M491.70401,-34.48248c0,0 0.19443,-12.77468 -0.62472,-17.02796c-0.26952,-1.39942 -2.26769,-2.84148 -3.11822,-3.96473c-0.92638,-1.22342 -0.69851,-2.06865 -0.69851,-2.06865c0,0 3.25909,2.12603 5.42399,3.00218c0.16947,0.06858 -0.06407,-1.64173 0.30429,-2.99392c0.19379,-0.71137 1.03679,-1.4845 1.14634,-1.49858c0.30507,-0.03919 0.27959,1.12395 0.42172,2.20215c0.14657,1.11192 0.45726,2.14057 0.54561,2.14057c0.98184,0 3.09082,-2.68158 3.09082,-2.68158c0,0 0.37756,0.52241 0.13949,1.56666c-0.46866,2.05572 -1.72409,5.49418 -1.74598,6.47203c-0.08365,3.73636 1.09401,14.85183 1.09401,14.85183z" fill="#736124"/></g><path d="M344.08513,-50.78133c29.92738,0.51022 56.91496,4.53133 56.91496,4.53133v6.25h-70.00039c0.01894,-3.20293 -0.0153,-6.40721 -0.06421,-9.61178c4.39612,-0.68525 8.80387,-1.24364 13.14965,-1.16955z" fill="#2e944e" stroke="#000000" stroke-width="0"/><path d="M241.0001,-40v-6.25c0,0 3.13832,-1.00237 7.57135,-2.20427c0.05307,1.98494 0.11241,3.96971 0.17856,5.95427c0.02775,0.83257 0.02937,1.66606 0.01684,2.5z" fill="#2e944e" stroke="#000000" stroke-width="0"/><path d="M-189.66956,-30.21021v-30.03003c0,0 37.96651,12.01201 79.06908,12.01201c10.92617,0 25.73296,-0.10729 43.58928,-0.30159c14.21156,-0.15464 37.86229,11.64761 55.51819,11.39296c29.52148,-0.42578 76.52785,-15.47071 112.25645,-16.56746c12.19465,-0.37434 30.11919,7.17158 42.64542,6.83873c14.40621,-0.3828 44.75259,7.11595 59.3421,6.70318c8.69639,-0.24604 22.11015,-8.41371 30.74462,-8.70247c3.98134,-0.13314 9.66658,1.44872 15.14386,2.83543c0.03454,1.17655 0.07136,2.35304 0.11057,3.52945c0.09139,2.74174 -0.10069,5.49353 -0.14775,8.23812c-0.35713,1.34076 -0.61522,2.67028 -0.56087,4.05167z" fill="#3bbe64" stroke="#000000" stroke-width="0"/><path d="M336.13659,-42.29496c34.77188,-1.22621 78.11362,-14.87656 105.68222,-16.87199c17.06169,-1.23493 43.11809,17.7638 56.14289,17.34853c46.85948,-1.49399 57.12102,-18.42182 57.12102,-18.42182v30.03003h-223.82465c0.06972,-2.60454 0.55529,-5.25474 -0.00805,-7.78979c-0.07137,-0.32116 -0.15891,-0.65565 -0.25801,-1.00048c0.01486,-1.5633 0.01608,-3.12694 0.00815,-4.69082c2.10666,0.89986 3.88641,1.4404 5.13643,1.39633z" fill="#3bbe64" stroke="#000000" stroke-width="0"/><path d="M255.33728,40.56979c0,15.21342 -15.90296,27.54632 -35.52026,27.54632c-19.6173,0 -44.944,-7.25859 -44.944,-22.472c0,-3.69426 11.76239,-15.03042 13.27454,-23.49278c2.06449,-11.5534 -6.20906,-21.50788 -8.88858,-33.93872c-0.55131,-2.55762 -1.7309,-10.66701 -8.55781,-12.83127c-8.20316,-2.60055 -22.30794,-4.99044 -23.26645,-7.34585c-1.42155,-3.49329 19.23366,-0.77774 24.59196,-3.13308c6.78454,-2.98227 -0.89791,-10.59612 2.12143,-10.59612c5.41402,0 14.74845,18.45985 24.37731,26.61583c2.96624,2.51251 5.35668,-13.47936 10.72937,-29.90133c2.2923,-7.00656 -18.84563,-26.41478 -16.13061,-32.17414c1.59353,-3.38036 13.51814,10.89225 19.54645,11.07635c9.0362,0.27597 12.95891,-12.12201 14.10912,-11.1113c5.73194,5.03678 -8.30944,44.92735 -4.37339,59.09993c1.3663,4.91964 11.00342,0.56908 19.87661,0.60002c3.17612,0.01107 7.3637,1.72208 10.81778,3.74118c0.39913,0.39903 0.8265,0.76717 1.28307,1.10977c1.18313,1.09202 2.51726,2.02287 3.96754,2.75768c0.48337,0.49199 0.83614,0.9431 1.02537,1.32707c3.63227,7.37012 -30.04253,3.25779 -30.14771,11.06813c-0.20492,15.21689 26.10825,39.06148 26.10825,42.05431z" fill="url(#color-1)" stroke="#000000" stroke-width="0"/><path d="M26.4313,317.45633l-25.25075,-36.14323l193.02021,-134.84974c0,0 13.3378,-5.30739 25.35382,9.63302c12.1745,15.13745 -0.10307,26.51021 -0.10307,26.51021z" fill="#6f3b00" stroke="#000000" stroke-width="0"/><path d="M25.62506,291.06333c7.09046,9.91991 7.97242,21.43964 1.96993,25.73004c-6.00249,4.2904 -16.61642,-0.27321 -23.70687,-10.19311c-7.09045,-9.91991 -7.97242,-21.43964 -1.96993,-25.73004c6.00249,-4.2904 16.61642,0.27321 23.70688,10.19312z" fill="#532c00" stroke="#000000" stroke-width="0"/><path d="M23.48322,292.69612c5.92615,8.29098 6.66329,17.91909 1.64645,21.50498c-5.01684,3.58589 -13.88787,-0.22835 -19.81402,-8.51934c-5.92615,-8.29098 -6.66329,-17.91909 -1.64646,-21.50497c5.01684,-3.58589 13.88788,0.22835 19.81403,8.51934z" fill="#775e29" stroke="#000000" stroke-width="0"/><path d="M67.22952,255.92494c1.38675,2.08013 -0.69337,3.46688 -0.69337,3.46688l-0.95818,0.63416c-2.30552,1.71067 -4.19256,4.78814 -6.61424,6.19806c-3.09252,1.80048 -7.01105,1.84346 -10.25183,3.35064c-5.74515,2.67188 -10.55161,7.64409 -15.7109,11.22107c0,0 -2.05548,1.42302 -3.47851,-0.63246c-1.42302,-2.05548 0.63246,-3.4785 0.63246,-3.4785c5.42534,-3.7503 10.40086,-8.81387 16.43197,-11.63608c3.05749,-1.43073 6.84189,-1.46663 9.74817,-3.07792c1.40035,-0.77639 1.98668,-2.52904 3.16385,-3.61442c0.94631,-0.87252 2.0527,-1.55359 3.07905,-2.33038l1.18468,-0.79441c0,0 2.08012,-1.38675 3.46687,0.69338z" fill="#623400" stroke="none" stroke-width="0.5"/><path d="M108.42815,242.92358c1.17382,2.20729 -1.03347,3.38112 -1.03347,3.38112l-2.58763,1.36622c-1.7762,0.58379 -3.4941,1.39035 -5.32859,1.75135c-2.07391,0.40811 -4.31553,0.13172 -6.27238,0.93072c-5.11047,2.08664 -10.39598,4.96186 -13.98043,9.25796c-0.84261,1.0099 -1.3307,2.28781 -2.19667,3.27774c-3.66983,4.1951 -7.60317,7.85073 -10.42321,12.8062c0,0 -1.24035,2.17061 -3.41096,0.93026c-2.17061,-1.24034 -0.93026,-3.41096 -0.93026,-3.41096c3.00893,-5.24622 7.10832,-9.16972 11.00536,-13.62238c0.82993,-0.94826 1.2742,-2.18957 2.08904,-3.15082c4.1612,-4.90897 10.07431,-8.40407 16.01957,-10.74203c3.89807,-1.53291 7.46241,-1.26756 11.4573,-2.62306l2.21125,-1.18579c0,0 2.20729,-1.17382 3.38111,1.03347z" fill="#623400" stroke="none" stroke-width="0.5"/><path d="M187.02114,176.52112c0.79057,2.37171 -1.58114,3.16227 -1.58114,3.16227l-0.64988,0.17194c-5.55338,3.07852 -10.88236,6.4922 -16.38587,9.61863c-3.95198,2.24504 -8.18841,3.25352 -11.95374,5.95c-10.09919,7.23238 -19.66878,16.02133 -31.17342,20.9713c0,0 -2.29786,0.9848 -3.28266,-1.31306c-0.9848,-2.29787 1.31307,-3.28266 1.31307,-3.28266c11.16868,-4.76567 20.4491,-13.47003 30.25515,-20.45727c3.89828,-2.77769 8.28373,-3.86361 12.33198,-6.19286c5.52094,-3.17659 10.88441,-6.56983 16.47127,-9.66708l1.49298,-0.54236c0,0 2.37171,-0.79057 3.16228,1.58114z" fill="#623400" stroke="none" stroke-width="0.5"/><path d="M209.98863,175.90107c1.76776,1.76776 0,3.53554 0,3.53554l-1.42857,1.42857c-2.63306,2.63306 -5.24778,5.25907 -7.86946,7.86937c-2.39109,2.38072 -3.94882,5.45125 -6.56808,7.62755c-2.96742,2.46559 -6.10447,3.17266 -9.52409,4.66043c-2.81213,1.22347 -5.39137,3.02813 -8.21936,4.28798c0,0 -2.28454,1.01534 -3.29988,-1.26918c-1.01534,-2.28453 1.26918,-3.29988 1.26918,-3.29988c2.8357,-1.25713 5.39201,-3.04483 8.20921,-4.28345c2.96513,-1.30365 5.77378,-1.76982 8.33306,-3.911c2.48973,-2.083 4.00543,-5.07966 6.28906,-7.37245c2.59964,-2.61006 5.22151,-5.2216 7.84482,-7.84491l1.42857,-1.42857c0,0 1.76777,-1.76776 3.53553,0z" fill="#623400" stroke="none" stroke-width="0.5"/><path d="M103.93515,222.31169c0,-2.5 2.5,-2.5 2.5,-2.5l0.04182,0.41987c3.77298,-1.50328 -2.65918,-4.54294 -3.78398,-6.00635c-3.306,-4.30124 -3.04355,-8.59771 -3.04355,-13.69924c0,0 0,-2.5 2.5,-2.5c2.5,0 2.5,2.5 2.5,2.5c0,2.51655 -0.47541,5.90179 0.52786,8.3384c1.71582,4.16719 8.47575,5.99117 7.74966,11.01264c0.35473,0.25821 0.672,0.66322 0.87991,1.28696c0.79057,2.37171 -1.58114,3.16228 -1.58114,3.16228l-1.81539,0.57864c-3.76405,1.87326 -7.28849,3.04414 -10.73637,5.51255c0,0 -2.03433,1.45309 -3.48743,-0.58124c-1.4531,-2.03433 0.58124,-3.48743 0.58124,-3.48743c2.34557,-1.67187 4.7223,-2.80479 7.16908,-3.92538c-0.00113,-0.03668 -0.0017,-0.0739 -0.0017,-0.11172z" fill="#623400" stroke="none" stroke-width="0.5"/><path d="M207.15032,151.38259c1.28624,2.14373 -0.85749,3.42998 -0.85749,3.42998l-2.08716,1.22555c-2.68078,1.08575 -4.34789,3.04121 -6.8873,4.5156c0,0 -2.17061,1.24035 -3.41096,-0.93026c-1.24034,-2.17061 0.93026,-3.41096 0.93026,-3.41096c2.75589,-1.54321 4.46468,-3.46344 7.39841,-4.77012l1.48427,-0.91729c0,0 2.14373,-1.28624 3.42997,0.85749z" fill="#623400" stroke="none" stroke-width="0.5"/><path d="M60.70291,284.82964c1.76776,1.76776 0,3.53553 0,3.53553l-2.1285,1.42139c-6.12834,0.86005 -12.32846,3.0583 -17.80695,5.83263c0,0 -2.23606,1.11803 -3.3541,-1.11804c-1.11803,-2.23607 1.11803,-3.3541 1.11803,-3.3541c6.01636,-2.97587 12.64952,-5.34032 19.33591,-6.31023l-0.69993,-0.00718c0,0 1.76777,-1.76776 3.53553,0z" fill="#7a4100" stroke="none" stroke-width="0.5"/><path d="M95.72086,214.09741c2.5,0 2.5,2.5 2.5,2.5l-0.04012,2.94606c-0.75976,2.06531 -1.66959,4.10269 -2.87976,5.94069c0,0 -0.73981,1.10972 -1.94926,1.16772l-0.17269,0.23995c-1.57382,1.0452 -3.34601,1.76772 -4.92498,2.80512c-2.12637,1.39704 -2.94779,4.61437 -4.62941,6.45833c-1.51492,1.66117 -3.2665,3.1291 -5.15413,4.35029c-1.96757,1.27291 -3.22684,0.76368 -4.78776,2.72773c-0.81807,1.02936 -1.22574,2.32656 -1.8386,3.48983c0,0 -1.19713,2.19474 -3.39187,0.99761c-2.19474,-1.19713 -0.99761,-3.39187 -0.99761,-3.39187c0.8157,-1.45577 1.37051,-3.09233 2.44711,-4.36731c2.68897,-3.18445 7.17023,-4.07818 10.05812,-7.2077c1.28999,-1.39792 1.89287,-3.31466 3.05988,-4.81677c1.98223,-2.55141 4.79312,-3.4696 7.38573,-5.2055l-0.49217,0.2478c0,0 0.65063,-1.30124 1.95187,-1.42211c0.541,-0.93003 1.00869,-1.90503 1.39574,-2.90592l-0.04012,-2.05393c0,0 0,-2.5 2.5,-2.5z" fill="#7a4100" stroke="none" stroke-width="0.5"/><path d="M154.63145,206.61535c1.76776,1.76776 0,3.53553 0,3.53553l-0.36206,0.27152c-2.33139,3.72305 -3.42484,6.4758 -7.09009,9.27692c-9.00137,6.87917 -21.85712,6.64056 -29.14915,15.95982c0,0 -1.56174,1.95217 -3.51391,0.39043c-1.95217,-1.56174 -0.39043,-3.51391 -0.39043,-3.51391c4.8856,-5.9983 11.71191,-9.22249 18.94942,-11.85716c3.85768,-1.40431 7.81482,-2.57329 11.18714,-5.04016c2.97392,-2.17543 3.86997,-4.82516 5.76704,-7.86595l1.06651,-1.15705c0,0 1.76777,-1.76776 3.53554,0z" fill="#7a4100" stroke="none" stroke-width="0.5"/><path d="M183.67122,168.69366c1.11803,2.23607 -1.11803,3.3541 -1.11803,3.3541l-0.84752,0.41894c-3.80203,1.61056 -6.53857,3.46035 -10.60673,4.73444c0,0 -2.38944,0.73522 -3.12466,-1.65423c-0.73522,-2.38945 1.65423,-3.12467 1.65423,-3.12467c3.85626,-1.16204 6.48811,-2.98484 10.10756,-4.55127l0.58105,-0.29535c0,0 2.23607,-1.11803 3.35411,1.11804z" fill="#7a4100" stroke="none" stroke-width="0.5"/><path d="M219.3855,161.5508c1.11803,2.23607 -1.11804,3.35411 -1.11804,3.35411l-2.27609,1.13322c-3.55764,1.50928 -7.41887,2.00308 -10.86546,3.82891c-2.29544,1.216 -4.03925,3.42684 -6.01887,5.0795c0,0 -1.92056,1.60046 -3.52102,-0.32009c-1.60046,-1.92056 0.3201,-3.52101 0.3201,-3.52101c2.28783,-1.90281 4.19475,-4.19401 6.83827,-5.63479c3.5802,-1.95129 7.59462,-2.43089 11.27739,-4.02823l2.00962,-1.00963c0,0 2.23607,-1.11804 3.35411,1.11803z" fill="#7a4100" stroke="none" stroke-width="0.5"/><path d="M119.86425,241.59653c2.14373,1.28624 0.8575,3.42997 0.8575,3.42997l-1.31702,2.12645c-2.2146,2.58154 -4.08447,5.76906 -6.80923,7.85979c-2.54841,1.95541 -3.08695,1.55018 -5.87533,2.80483c-4.62069,2.0791 -9.92853,3.93428 -14.38113,6.29564c-2.20874,1.17136 -4.26512,4.86218 -5.80815,6.63046c0,0 -1.64626,1.88144 -3.5277,0.23518c-1.88144,-1.64626 -0.23518,-3.5277 -0.23518,-3.5277c2.2086,-2.51663 4.06524,-5.94175 7.04899,-7.65526c1.31744,-0.75657 2.85594,-1.03823 4.26966,-1.5945c3.65384,-1.43769 7.06385,-3.35986 10.63493,-4.96701c1.97329,-0.88807 3.15084,-0.89197 4.83895,-2.19517c2.39697,-1.85043 4.09244,-4.85701 6.04791,-7.14021l0.82584,-1.44497c0,0 1.28624,-2.14373 3.42997,-0.8575z" fill="#7a4100" stroke="none" stroke-width="0.5"/><path d="M88.17427,217.76204c-2.23607,-1.11803 -1.11804,-3.3541 -1.11804,-3.3541l0.77975,-1.55088c3.41926,-5.49578 -0.87461,-10.25597 -2.71568,-15.51424c-1.2537,-3.58071 0.04911,-7.33741 1.06315,-10.7495c0,0 0.71837,-2.39456 3.11293,-1.6762c2.39457,0.71837 1.6762,3.11293 1.6762,3.11293c-0.67579,2.22899 -2.03065,5.40253 -1.07971,7.82193c1.35896,3.45748 3.16976,5.0374 3.99374,8.82655c0.837,3.84906 0.06666,7.372 -1.70942,10.65921l-0.64883,1.30626c0,0 -1.11803,2.23606 -3.3541,1.11803z" fill="#623400" stroke="none" stroke-width="0.5"/><path d="M105.72446,190.85799c-2.47487,-0.35356 -2.12132,-2.82843 -2.12132,-2.82843l0.33831,-2.32367c0.08443,-4.78001 -2.28956,-4.68603 -5.17703,-8.2664c-1.1664,-1.4463 -2.12972,-3.10803 -3.57259,-4.27868c0,0 -1.92055,-1.60046 -0.32009,-3.52102c1.60046,-1.92056 3.52101,-0.3201 3.52101,-0.3201c1.67356,1.42285 2.91965,3.28589 4.28456,5.00704c2.3311,2.93952 5.34684,3.7698 6.20678,7.83943c0.26838,1.27009 0.02984,2.59611 0.04476,3.89417l-0.37598,2.67633c0,0 -0.35355,2.47487 -2.82843,2.12132z" fill="#7a4100" stroke="none" stroke-width="0.5"/><path d="M12.73726,296.31077c0,-2.5 2.5,-2.5 2.5,-2.5l3.95258,0.63148c3.28283,3.04077 7.63227,10.7935 1.01364,13.61222c-2.97357,1.26637 -7.28451,-2.3053 -9.18129,-4.09143c-3.21261,-3.02522 -7.08757,-5.63589 -7.03276,-10.46503c0.01627,-1.43315 -0.35154,-3.0994 0.46974,-4.27401c0.78773,-1.12662 2.49169,-1.16217 3.73753,-1.74327c0,0 2.37171,-0.79057 3.16228,1.58114c0.79057,2.37171 -1.58114,3.16228 -1.58114,3.16228c-2.21736,-0.13454 -0.80984,2.85521 0.40278,4.03759c2.32655,2.26854 5.21926,5.97425 8.42377,7.05534c0.68875,0.23236 -0.30661,-1.42524 -0.54999,-2.11017c-0.41681,-1.17298 -1.22984,-2.23095 -2.18637,-3.02761l-0.63075,0.63148c0,0 -2.5,0 -2.5,-2.5z" fill="#675223" stroke="none" stroke-width="0.5"/><g><path d="M476.78803,-56.50277l7.88011,12.64542l-26.4979,3.07455l-7.46986,8.60078l-26.20569,-4.21293l-19.55012,4.78568l-19.25266,-6.05511l-30.375,1.25392l0.4872,-15.01913l-19.04551,-12.8812l26.98506,-8.80071l8.51135,-13.15018l24.21219,4.51729l19.00359,-5.93371l16.59556,5.0113l24.54799,-1.97566l10.20686,10.37923l24.63557,3.99634z" fill="#2d2a08" stroke="#000000" stroke-width="0"/><path d="M474.4608,-57.06833l7.11957,11.6841l-24.73864,2.5165l-6.90616,9.45978l-26.42173,-3.9713l-18.50269,4.46151l-18.66512,-5.67745l-29.09515,1.20108l0.46667,-14.38629l-18.24302,-12.33845l25.84804,-8.42989l7.54766,-12.05449l23.79707,3.78535l18.8739,-5.10439l15.22527,4.22085l25.48905,-1.55564l9.72968,10.46213l21.66926,2.97095z" fill="#ffef2c" stroke="#000000" stroke-width="0"/><text transform="translate(390.0441,-69.81361) scale(0.22185,0.22185)" font-size="40" xml:space="preserve" fill="#2d2a08" fill-rule="nonzero" stroke="#2d2a08" stroke-width="2" stroke-linecap="butt" stroke-linejoin="miter" stroke-miterlimit="10" stroke-dasharray="" stroke-dashoffset="0" font-family="Sans Serif" font-weight="normal" text-anchor="start" style="mix-blend-mode: normal"><tspan x="0" dy="0">OPILA BIRD </tspan><tspan x="0" dy="46.150000000000006px">   MISSION</tspan></text><text transform="translate(366.50173,-51.72284) scale(0.14694,0.14694)" font-size="40" xml:space="preserve" fill="#2d2a08" fill-rule="nonzero" stroke="#2d2a08" stroke-width="1" stroke-linecap="butt" stroke-linejoin="miter" stroke-miterlimit="10" stroke-dasharray="" stroke-dashoffset="0" font-family="Sans Serif" font-weight="normal" text-anchor="start" style="mix-blend-mode: normal"><tspan x="0" dy="0">Opila Bird is unbelievably hungry!</tspan><tspan x="0" dy="46.150000000000006px">  Feed it     eggs to get your prize!</tspan></text><g fill="#2d2a08" stroke="none" stroke-width="0"><path d="M445.88282,-65.56239l1.31793,-13.61805l4.49421,0.78457l-3.28924,13.37985z"/><path d="M444.42271,-59.27916l0.64612,-3.70111l3.70112,0.64612l-0.64612,3.70112z"/></g><g data-paper-data="{&quot;index&quot;:null}" fill="#2d2a08" stroke="none" stroke-width="0"><path d="M384.12051,-64.74542l-3.28924,-13.37985l4.49421,-0.78457l1.31793,13.61804z"/><path d="M384.4024,-58.36244l-0.64612,-3.70111l3.70111,-0.64612l0.64612,3.70111z"/></g><text transform="translate(389.79928,-43.80607) scale(0.23454,0.23454)" font-size="40" xml:space="preserve" fill="#ff2e2e" fill-rule="nonzero" stroke="#ff0000" stroke-width="1" stroke-linecap="butt" stroke-linejoin="miter" stroke-miterlimit="10" stroke-dasharray="" stroke-dashoffset="0" font-family="Sans Serif" font-weight="normal" text-anchor="start" style="mix-blend-mode: normal"><tspan x="0" dy="0">6</tspan></text></g><g stroke="#000000" stroke-width="0"><path d="M555.0826,571.23558v-68.89172h55v68.89172z" fill="#afae9f"/><path d="M555.0826,516.34388v-640.14716l55,-1v641.14716z" fill="#9ed0d0"/></g><g><path d="M243.67032,70.19858v-44.39847h7.56566v44.39847z" fill="#4c4c4c" stroke="none" stroke-width="0"/><path d="M242.4331,70.64847v-44.39847h7.56566v44.39847z" fill="#6a6a6a" stroke="none" stroke-width="0"/><path d="M223.83909,30.66303v-29.31137h43.96706v29.31137z" fill="#8b8b8b" stroke="#ff0000" stroke-width="0"/><path d="M223.95157,32.46262v-29.31137h43.96706v29.31137z" fill="#a2a2a2" stroke="#ff0000" stroke-width="0"/><path d="M231.93522,11.38531c0.05044,-0.39879 -1.32575,-0.64538 -1.55525,-0.69926l-1.37984,-0.10614c-0.34757,-0.02331 -0.64475,-0.23059 -0.79499,-0.52529c-0.07809,0.46152 -0.14555,0.92516 -0.19646,1.39246c0.97115,0.22151 3.81875,0.79055 3.92654,-0.06177zM228.78154,8.69397l0.99115,-0.33038l0.00092,0.00276c0.59281,-0.16094 1.40883,-0.62926 0.90419,-1.51588c-0.14976,-0.26311 -1.10745,-0.06152 -1.8604,0.14493c-0.13279,0.63571 -0.27044,1.26891 -0.39728,1.90369c0.10288,-0.0926 0.22579,-0.1634 0.36142,-0.20512zM226.68089,6.63892c-0.28388,-0.92262 0.63874,-1.20651 0.63874,-1.20651c1.23925,-0.37262 3.78355,-1.1783 4.85785,0.20224c1.03615,1.33149 0.61769,2.538 -0.21885,3.42627c1.07488,0.31032 2.04345,1.34813 1.88575,2.61147c-0.35874,2.87381 -4.85135,2.01154 -6.58746,1.58027l-0.19126,-0.084c-0.08274,0.00725 -0.17365,0.0049 -0.2735,-0.00936c-0.95561,-0.13651 -0.81909,-1.09212 -0.81909,-1.09212l0.10817,-0.75277c0.15705,-1.46563 0.46494,-2.89526 0.76707,-4.33427c-0.06683,-0.08954 -0.12444,-0.20156 -0.16742,-0.34122z" fill="#000000" stroke="none" stroke-width="0.5"/><path d="M243.86531,13.66585c0,0.96531 -0.96531,0.96531 -0.96531,0.96531l-1.30306,-0.23239c-0.27573,-0.26729 -0.49106,-0.5398 -0.65624,-0.81706c-0.0187,0.93697 -0.96503,0.93697 -0.96503,0.93697l-0.44402,-0.0059c-0.64928,-0.07717 -1.68836,-0.21331 -2.44574,-0.62594c-2.74907,1.17502 -5.03051,-3.92238 -1.26862,-4.9846c0.39596,-0.1118 0.8227,-0.01722 1.23405,-0.02582c0,0 0.96531,0 0.96531,0.96531c0,0.02812 -0.00082,0.05542 -0.00241,0.08193c0.27171,0.17079 0.45231,0.47324 0.45231,0.81786c0,0.07916 -0.00953,0.15611 -0.0275,0.22973l-0.22043,0.99194l-0.01648,-0.00366l0.00823,0.03781c-0.01149,0.02736 -0.02233,0.05527 -0.03261,0.08364c0.40473,0.2262 0.73013,0.42835 1.56708,0.51299l0.23082,-0.0059c0,0 0.34824,0 0.62639,0.20916c-0.55304,-1.95459 0.79627,-4.11243 0.77026,-6.32972c0,0 0,-0.96531 0.96531,-0.96531c0.96531,0 0.96531,0.96531 0.96531,0.96531c-0.01358,1.5301 -1.89339,5.53971 -0.44957,6.46543l0.04663,-0.23239c0,0 0.96531,0 0.96531,0.96531zM236.26491,11.79016c0.00636,-0.01716 0.01295,-0.03423 0.01976,-0.05119l-0.05214,-0.01422l0.24321,-0.89178c-1.23327,0.18251 -0.47197,1.17767 -0.21083,0.95719z" fill="#000000" stroke="none" stroke-width="0.5"/><path d="M247.21071,14.46235c-0.23412,0.93649 -1.17061,0.70236 -1.17061,0.70236l-0.52103,-0.13319c-3.86903,-1.44038 -1.43176,-5.38615 -1.44737,-8.45154c0,0 0,-0.96531 0.96531,-0.96531c0.96531,0 0.96531,0.96531 0.96531,0.96531c-0.00716,1.66815 -1.87518,6.08675 0.12727,6.62l0.37876,0.09176c0,0 0.93649,0.23412 0.70237,1.17061z" fill="#000000" stroke="none" stroke-width="0.5"/><path d="M257.00622,10.29163c0,-0.08379 0.01068,-0.16507 0.03074,-0.24259c-0.76891,0.86571 -1.68323,1.1172 -2.72623,1.13005c0.0137,0.94252 0.08294,1.87638 0.32327,2.81501c0,0 0.23413,0.93649 -0.70236,1.17061c-0.93649,0.23412 -1.17061,-0.70236 -1.17061,-0.70236c-0.21463,-0.87637 -0.48893,-2.41763 -0.56276,-4.01539c-0.01826,-0.07979 -0.02843,-0.16872 -0.02843,-0.26781c0,-0.06644 0.00457,-0.12832 0.01309,-0.18593c-0.05858,-2.79108 0.56503,-5.57929 3.24385,-5.15341c2.32507,0.36964 3.18276,2.74439 2.04022,4.62869c0.14682,-0.09018 0.3196,-0.14219 0.50453,-0.14219c0.53312,0 0.96531,0.43218 0.96531,0.96531c0,0.53312 -0.43218,0.96531 -0.96531,0.96531c-0.53312,0 -0.96531,-0.43218 -0.96531,-0.96531zM254.32314,9.2831c0.53798,0.004 0.95942,-0.14135 1.42235,-0.70639c0.757,-0.92398 0.03801,-2.1274 -1.15069,-1.8787c-0.55381,0.11587 -0.26953,1.83475 -0.26939,2.13145c0.00007,0.15168 -0.00084,0.30288 -0.00227,0.45363z" fill="#000000" stroke="none" stroke-width="0.5"/><path d="M265.23537,10.51658c0,0.96531 -0.96531,0.96531 -0.96531,0.96531l-0.75515,-0.04954c-0.35566,-0.11859 -0.6922,-0.23702 -1.0236,-0.34682c-0.20876,0.84816 -0.41596,1.69932 -0.67462,2.53249c-0.15914,0.5126 -0.74083,1.0449 -0.50735,1.5282c0.15232,0.31529 1.21585,0.25606 1.25719,0.2585l0.35384,-0.00479c0,0 0.96531,0 0.96531,0.96531c0,0.96531 -0.96531,0.96531 -0.96531,0.96531l-0.54595,-0.00479c-1.16532,-0.14665 -2.08388,-0.0162 -2.79188,-1.31614c-0.00279,-0.00512 -0.00554,-0.01024 -0.00827,-0.01536c-0.17765,0.66144 -0.92792,0.66144 -0.92792,0.66144l-0.8816,-0.10191c-1.82431,-1.22342 -1.27114,-1.64252 -1.09202,-3.65018c0,0 0.0874,-0.96134 1.04874,-0.87395c0.96134,0.0874 0.87395,1.04874 0.87395,1.04874c-0.07897,0.85429 -0.65244,1.74656 0.03272,1.74858l0.0182,-0.10191c0,0 0.44656,0 0.73223,0.30374c0.04575,-0.69388 0.41146,-1.38391 0.59641,-1.98997c0.24515,-0.80333 0.45069,-1.61244 0.65526,-2.41829c-0.12537,-0.01721 -0.25323,-0.03147 -0.38418,-0.04243c0,0 -0.96134,-0.0874 -0.87395,-1.04874c0.0874,-0.96134 1.04874,-0.87395 1.04874,-0.87395c0.24243,0.02348 0.47598,0.05525 0.70341,0.09405c0.22437,-0.78797 0.4773,-1.56584 0.79637,-2.32481c0,0 0.38025,-0.88726 1.26751,-0.507c0.88726,0.38025 0.507,1.26751 0.507,1.26751c-0.28829,0.65749 -0.51722,1.34014 -0.71775,2.0357c0.37264,0.11861 0.75052,0.24745 1.14802,0.37991l0.14464,-0.04954c0,0 0.96531,0 0.96531,0.96531z" fill="#000000" stroke="none" stroke-width="0.5"/><path d="M235.98623,27.9442c-0.1066,0.95941 -1.066,0.8528 -1.066,0.8528l-1.14035,-0.13553c-1.205,-0.47399 -4.03977,-1.31147 -4.74445,-2.4477c-1.70176,-2.74388 2.24709,-6.2214 3.63127,-8.16013c0,0 0.56107,-0.78551 1.34658,-0.22443c0.7855,0.56108 0.22443,1.34658 0.22443,1.34658c-1.08543,1.51895 -2.60586,2.91108 -3.37559,4.63296c-0.03986,0.08916 -0.29605,1.23415 -0.19149,1.37866c0.47987,0.66322 2.79922,1.28269 3.57863,1.60137l0.88418,0.08941c0,0 0.95941,0.1066 0.8528,1.06601z" fill="#000000" stroke="none" stroke-width="0.5"/><path d="M239.77911,27.76537c-0.26519,0.92817 -1.19336,0.66298 -1.19336,0.66298l-1.38553,-0.72142c-1.47689,-2.95379 -1.26279,-5.95009 -0.88262,-9.205c0,0 0.11279,-0.9587 1.07149,-0.84591c0.9587,0.11279 0.84591,1.07149 0.84591,1.07149c-0.3396,2.86472 -0.60226,5.52746 0.69202,8.11602l0.18911,-0.27152c0,0 0.92817,0.26519 0.66298,1.19336z" fill="#000000" stroke="none" stroke-width="0.5"/><path d="M242.37783,24.34332c-0.14344,0.64141 -0.40867,1.18707 0.06389,1.79937c0.10261,0.13295 1.54407,1.21654 1.85655,0.62366c0.48991,-0.92952 0.21891,-2.82226 -1.21251,-2.69014c-0.2559,0.02362 -0.48675,0.12963 -0.70793,0.26711zM240.28203,25.11853c-0.64378,-0.4517 -0.26996,-1.19933 -0.26996,-1.19933l0.50708,-0.63708c0.48065,-0.26653 1.90705,-1.11474 2.42005,-1.13096c2.82572,-0.08938 4.77553,3.64331 2.83656,5.8579c-1.3305,1.51962 -3.86877,0.65685 -4.8919,-0.72603c-0.64167,-0.8673 -0.69883,-1.46468 -0.60183,-2.16449z" fill="#000000" stroke="none" stroke-width="0.5"/><path d="M255.78757,27.27523c0,0.96531 -0.96531,0.96531 -0.96531,0.96531h-0.22495c-1.22784,-0.00521 -2.75307,-0.04067 -3.75954,-0.89222c-0.12632,-0.10688 -0.24076,-0.23032 -0.34337,-0.36739c-0.01482,0.12181 -0.04088,0.24178 -0.0809,0.3591c-0.17218,0.50477 -0.8438,0.6525 -1.26571,0.97874l-0.62409,0.14673c0,0 -0.96531,0 -0.96531,-0.96531c0,-0.77635 0.62439,-0.92832 0.86883,-0.95807c0.74277,-0.57923 -1.29826,-2.16198 -1.31261,-2.87002c-0.03839,-1.89367 0.86787,-1.87821 2.1161,-2.37396c0,0 0.91577,-0.30526 1.22103,0.61051c0.0302,0.09059 0.04844,0.17521 0.05681,0.25415c0.17291,-0.25069 0.37812,-0.46558 0.6153,-0.63032c2.03647,-1.4145 5.98491,1.08489 4.07671,3.57865c-0.38958,0.50913 -2.18294,0.4293 -2.85274,0.43005c0,0 -0.29873,0 -0.56382,-0.16618c0.00609,0.05336 0.01312,0.10155 0.02092,0.1435c0.1659,0.89226 2.20883,0.79443 2.79239,0.79145h0.22495c0,0 0.96531,0 0.96531,0.96531zM251.89127,23.71862c0.23233,-0.10808 0.45657,-0.10808 0.45657,-0.10808c0.47867,0.00059 0.97073,0.36678 1.42128,0.20511c0.53214,-0.19095 -1.0928,-1.03204 -1.547,-0.69537c-0.15123,0.11209 -0.25813,0.33209 -0.33085,0.59835zM249.84124,23.12967c-1.20881,0.24649 -0.54184,0.61294 -0.01578,1.28095c0.02063,-0.48541 0.10879,-0.9687 0.26351,-1.40809c-0.13397,0.08921 -0.24773,0.12713 -0.24773,0.12713zM248.31346,26.61216l-0.18889,0.06944c0.07226,-0.01976 0.13497,-0.04301 0.18889,-0.06944z" fill="#000000" stroke="none" stroke-width="0.5"/><path d="M264.72403,28.28902c-0.33894,0.90385 -1.24279,0.5649 -1.24279,0.5649l-1.09631,-0.43808c-0.27773,-0.21386 -0.62666,-0.36761 -0.91276,-0.5744c-0.26811,0.17415 -0.57632,0.17415 -0.57632,0.17415l-0.43347,-0.00479c-1.11543,-0.12228 -3.12531,-0.4079 -3.6866,-1.64355c-0.65688,-1.44608 0.32174,-3.48346 1.80095,-3.94787c0.87857,-0.27583 1.9569,0.0218 2.82315,0.19317c0.02037,-0.76501 -0.00717,-1.53385 -0.00717,-2.31071c0,0 0,-0.96531 0.96531,-0.96531c0.96531,0 0.96531,0.96531 0.96531,0.96531c0,1.59308 0.08286,3.13361 -0.24576,4.69834c-0.10386,0.49453 -0.59673,1.06042 -0.31836,1.48215c0.14133,0.2141 0.46442,0.2181 0.69664,0.32715l0.70328,0.23676c0,0 0.90385,0.33894 0.5649,1.24279zM261.18854,24.60143c0.00536,-0.02541 0.0106,-0.05081 0.01571,-0.07622c-0.09707,-0.00241 -0.16032,-0.01506 -0.16032,-0.01506c-2.71421,-0.55546 -3.3533,1.32062 -0.38948,1.57962l0.23889,-0.00474c0.05849,-0.52641 0.20606,-1.06123 0.2952,-1.48359z" fill="#000000" stroke="none" stroke-width="0.5"/></g><g stroke="#ff0000" stroke-width="0"><path d="M214.92751,234.29092c44.02835,-0.98319 57.78449,69.6384 57.78449,69.6384l-6.638,17.01142c0,0 -30.88973,1.52344 -47.67492,1.89827c-44.02835,0.98319 -83.72871,-17.39054 -84.68736,-41.84242c-0.95865,-24.45188 37.18745,-45.72249 81.21579,-46.70568z" data-paper-data="{&quot;index&quot;:null}" fill="#723218"/><path d="M208.34337,222.94002c43.44346,-6.1272 48.85952,-4.8364 48.85952,-4.8364l14.60275,84.85971c0,0 -30.35597,5.12624 -46.91818,7.46215c-43.44346,6.1272 -85.46739,-7.46538 -90.03591,-31.62382c-4.56852,-24.15844 30.04837,-49.73444 73.49182,-55.86164z" data-paper-data="{&quot;index&quot;:null}" fill="#923f1e"/><path d="M207.98731,226.41192c39.76458,-5.60834 44.722,-4.42684 44.722,-4.42684l13.36616,77.67362c0,0 -27.78537,4.69214 -42.94506,6.83023c-39.76458,5.60834 -78.22984,-6.83319 -82.41149,-28.94585c-4.18165,-22.11266 27.50381,-45.52283 67.26839,-51.13117z" data-paper-data="{&quot;index&quot;:null}" fill="#5e2914"/><path d="M169.2798,305.93278l-6.02778,-67.28092l12.78822,-4.00157l7.75323,72.8554z" fill="#923f1e"/><path d="M196.89493,308.07173l-5.57559,-78.23671l12.81878,-4.74185l7.2639,84.71064z" fill="#923f1e"/><path d="M226.57504,307.5589l-6.3846,-82.32514l12.81877,-4.74186l7.26391,84.71065z" fill="#923f1e"/></g><g><path d="M-114.67966,476.32299v-16.55458h4.13864v16.55458z" fill="#8d8d8d" stroke="#ffffff" stroke-width="0"/><path d="M-114.93832,462.87239v-2.84532h17.8479v2.84532z" fill="#8d8d8d" stroke="none" stroke-width="0"/><path d="M-102.00506,476.58165v-15.51992h3.36265v15.51992z" fill="#8d8d8d" stroke="none" stroke-width="0"/><path d="M-95.27976,494.94689v-22.24521h5.69064v22.24521z" fill="#8d8d8d" stroke="none" stroke-width="0"/><path d="M-96.05576,480.97896v-8.79462h57.68236v8.79462z" fill="#8d8d8d" stroke="none" stroke-width="0"/><path d="M-44.06404,495.46422v-21.21055h6.20797v21.21055z" fill="#8d8d8d" stroke="none" stroke-width="0"/><path d="M-31.60775,473.995v-15.00259h4.13864v15.00259z" fill="#8d8d8d" stroke="none" stroke-width="0"/><path d="M-30.57309,464.42439v-5.9493h16.55458v5.9493z" fill="#8d8d8d" stroke="none" stroke-width="0"/><path d="M-116.27818,461.1996v-96.2266h35.37439v96.2266z" fill="#d2bd97" stroke="none" stroke-width="0"/><path d="M-46.70109,461.1996v-96.2266h35.37439v96.2266z" fill="#d2bd97" stroke="none" stroke-width="0"/><path d="M-17.64876,454.41151c0,1.25 -1.25,1.25 -1.25,1.25l-0.95721,-0.00015c-2.82896,-0.11489 -7.07418,-2.03543 -8.05993,-4.97868c-0.78505,-2.34402 -0.41694,-5.16985 -1.34476,-7.65085c-1.19369,-3.19192 -4.58696,-5.33608 -7.60233,-6.52222c0,0 -1.1606,-0.46424 -0.69636,-1.62483c0.46424,-1.1606 1.62484,-0.69636 1.62484,-0.69636c3.71992,1.5094 7.49162,4.05951 9.00874,7.94992c0.15984,0.40988 1.25688,4.63892 1.33932,5.07815c0.20226,1.07762 -0.39162,2.99286 0.66201,3.77787c0.59334,0.44207 1.36367,0.58298 2.00638,0.94957c0.96476,0.55029 1.99113,1.24287 3.10152,1.21774l0.91779,-0.00016c0,0 1.25,0 1.25,1.25z" fill="#c7b38f" stroke="none" stroke-width="0.5"/><path d="M-97.86072,476.20642v-126.24024h64.02378v126.24024z" fill="#fee6b8" stroke="none" stroke-width="0"/><path d="M-84.47012,416.2329c-0.88389,-0.88388 0,-1.76777 0,-1.76777l0.01053,0.1761c1.07299,-3.19014 0.87336,-6.27882 0.87336,-9.60471c0,-13.97552 -2.5,-27.89256 -2.5,-41.875c0,0 0,-1.25 1.25,-1.25c1.25,0 1.25,1.25 1.25,1.25c0,13.98199 2.5,27.89887 2.5,41.875c0,3.61243 0.14829,6.91746 -1.00164,10.39528l-0.61447,0.8011c0,0 -0.88388,0.88388 -1.76777,0z" fill="#f0d8ad" stroke="none" stroke-width="0.5"/><path d="M-65.14875,456.91151c-1.25,0 -1.25,-1.25 -1.25,-1.25l0.03732,-0.61567c0.67208,-2.58646 1.98045,-4.87311 2.53447,-7.57184c0.63536,-3.09488 0.2397,-6.54651 0.19,-9.68313c-0.32189,-4.65183 -2.18153,-9.0083 -2.44801,-13.63522c-0.53463,-9.28297 0.72285,-18.14494 2.52299,-27.17679c0,0 0.24514,-1.22573 1.47087,-0.98058c1.22573,0.24514 0.98058,1.47087 0.98058,1.47087c-1.77443,8.84354 -2.96715,17.4828 -2.47701,26.57321c0.24853,4.60945 2.11627,8.99415 2.44825,13.64068c0.05432,3.35396 0.42676,6.97714 -0.23757,10.28796c-0.54456,2.71393 -1.94493,5.08867 -2.55921,7.68117l0.03732,0.00933c0,0 0,1.25 -1.25,1.25z" fill="#f0d8ad" stroke="none" stroke-width="0.5"/><path d="M-50.70775,459.90455c-1.11804,-0.55901 -0.55902,-1.67705 -0.55902,-1.67705l0.18053,-0.06599c0,-5.31142 1.59098,-10.38842 1.5625,-15.625c0,0 0,-1.25 1.25,-1.25c1.25,0 1.25,1.25 1.25,1.25c-0.02427,5.2551 -1.5625,10.30921 -1.5625,15.625l-0.44446,1.18402c0,0 -0.55901,1.11803 -1.67705,0.55902z" fill="#f0d8ad" stroke="none" stroke-width="0.5"/><path d="M-85.77374,457.84901c-1.25,0 -1.25,-1.25 -1.25,-1.25v-0.625c0,-3.02249 -0.70851,-3.44876 -1.52906,-6.27531c-0.37519,-1.29242 -0.03344,-2.69142 -0.03344,-4.03719c0,-3.125 0,-6.25 0,-9.375c0,0 0,-1.25 1.25,-1.25c1.25,0 1.25,1.25 1.25,1.25c0,3.125 0,6.25 0,9.375c0,1.15433 -0.37918,2.36148 -0.03344,3.46281c0.84662,2.69687 1.59594,3.86168 1.59594,6.84969v0.625c0,0 0,1.25 -1.25,1.25z" fill="#f0d8ad" stroke="none" stroke-width="0.5"/><path d="M-45.83972,408.96705c-1.11804,0.55901 -1.67705,-0.55902 -1.67705,-0.55902l-0.72352,-1.52182c-0.01114,-0.61656 -0.0223,-1.23312 -0.03344,-1.84969c0.03296,-5.51431 2.76568,-10.76007 1.70203,-16.38862c-0.46086,-2.43874 -1.78697,-4.44706 -2.69608,-6.71049c-2.10142,-5.23199 -3.56736,-11.1847 -4.30749,-16.73568c0,0 -0.1652,-1.23904 1.07383,-1.40424c1.23904,-0.1652 1.40424,1.07383 1.40424,1.07383c0.71326,5.34943 2.11646,11.09362 4.14866,16.13274c0.98102,2.43257 2.33596,4.5645 2.83541,7.19061c1.11451,5.86007 -1.70053,11.15343 -1.6606,16.84186c-0.01114,0.4251 -0.02229,0.8502 -0.03344,1.27531l0.52648,0.97817c0,0 0.55902,1.11804 -0.55902,1.67705z" fill="#f0d8ad" stroke="none" stroke-width="0.5"/><path d="M-73.34212,395.45158c-1.04007,-0.69338 -0.34669,-1.73344 -0.34669,-1.73344l0.66506,-0.99412c2.26084,-2.99269 1.14747,-5.67942 2.08708,-9.13136c1.65144,-6.06705 6.45507,-12.52362 6.41292,-18.86864c0,0 0,-1.25 1.25,-1.25c1.25,0 1.25,1.25 1.25,1.25c-0.03654,6.6911 -4.72482,13.1608 -6.5014,19.52787c-1.04962,3.76171 0.04423,6.56029 -2.4986,9.97213l-0.58493,0.88087c0,0 -0.69338,1.04007 -1.73344,0.34669z" fill="#e8d1a7" stroke="none" stroke-width="0.5"/><path d="M-57.01441,443.43669c-1.21268,-0.30317 -0.90951,-1.51585 -0.90951,-1.51585l0.28454,-1.09956c-0.00895,-2.24268 -0.17876,-4.58912 -0.0051,-6.82537c0.27852,-3.58646 1.55824,-6.60222 1.55824,-10.2094c0,0 0,-1.25 1.25,-1.25c1.25,0 1.25,1.25 1.25,1.25c0,3.7008 -1.28918,6.76814 -1.56676,10.4156c-0.17253,2.26699 0.00291,4.65258 -0.00511,6.92463l-0.34045,1.40044c0,0 -0.30317,1.21268 -1.51585,0.90951z" fill="#e8d1a7" stroke="none" stroke-width="0.5"/><path d="M-75.14875,451.91151c-1.25,0 -1.25,-1.25 -1.25,-1.25c0,-8.75 0,-18.4375 0,-27.1875c0,0 0,-1.25 1.25,-1.25c1.25,0 1.25,1.25 1.25,1.25c0,8.75 0,17.5 0,26.25v0.9375c0,0 0,1.25 -1.25,1.25z" fill="#e8d1a7" stroke="none" stroke-width="0.5"/><path d="M-38.89874,438.16151c-1.25,0 -1.25,-1.25 -1.25,-1.25v-1.5625c0,-3.85843 -1.2463,-7.30379 -1.25,-11.25c0,0 0,-1.25 1.25,-1.25c1.25,0 1.25,1.25 1.25,1.25c-0.00393,3.94253 1.25,7.35846 1.25,11.25v1.5625c0,0 0,1.25 -1.25,1.25z" fill="#e8d1a7" stroke="none" stroke-width="0.5"/><path d="M-110.6801,410.658c-1.24649,0.09364 -1.34013,-1.15285 -1.34013,-1.15285l-0.08934,-1.18935c-0.5572,-7.41714 -1.77882,-15.10523 -1.68901,-22.53897c0.04725,-3.91118 3.45588,-6.91289 3.33734,-10.42781c0,0 0,-1.25 1.25,-1.25c1.25,0 1.25,1.25 1.25,1.25c-0.0713,3.20682 -2.41366,5.18627 -3.15022,8.23675c-0.71326,2.95404 0.14694,6.60009 0.37117,9.5849c0.37456,4.98595 0.74913,9.9719 1.12369,14.95785l0.08935,1.18935c0,0 0.09364,1.24649 -1.15285,1.34013z" fill="#c7b38f" stroke="none" stroke-width="0.5"/><path d="M-101.48814,443.31325c-0.46424,1.1606 -1.62483,0.69636 -1.62483,0.69636l-1.77351,-0.73367c-1.26747,-1.19148 -2.78089,-2.35557 -3.33362,-4.12719c-0.06144,-0.19693 -0.05364,-3.25368 -0.05364,-4.11223c0,-3.55321 0.29723,-7.22691 -0.29549,-10.732c0,0 -0.2055,-1.23299 1.02749,-1.43849c1.23299,-0.2055 1.43849,1.02749 1.43849,1.02749c0.601,3.65386 0.32951,7.4425 0.32951,11.143c0,1.1294 -0.36784,2.30296 -0.05363,3.38777c0.26779,0.92456 1.61262,2.08945 2.29138,2.74781l1.3515,0.51633c0,0 1.1606,0.46424 0.69635,1.62484z" fill="#c7b38f" stroke="none" stroke-width="0.5"/><path d="M-29.27961,411.70158c-1.04007,-0.69338 -0.34669,-1.73344 -0.34669,-1.73344l0.50447,-0.70836c0.74145,-1.83389 2.34521,-3.4737 2.74863,-5.41209c0.90717,-4.35899 -1.66623,-6.7189 -2.46249,-10.55376c-1.21213,-5.83768 -1.31304,-11.39042 -1.31304,-17.31991c0,0 0,-1.25 1.25,-1.25c1.25,0 1.25,1.25 1.25,1.25c0,4.0052 -0.2087,7.99678 0.43126,11.94808c0.27651,1.70727 0.21071,4.43498 1.02803,5.99202c1.74252,3.31959 3.13513,6.46348 2.26519,10.43622c-0.47852,2.18523 -2.07226,3.80213 -2.87637,5.83791l-0.74553,1.16663c0,0 -0.69338,1.04007 -1.73344,0.34669z" fill="#c7b38f" stroke="none" stroke-width="0.5"/><path d="M-14.3432,427.15803c-0.55901,1.11804 -1.67705,0.55902 -1.67705,0.55902l-0.7091,-0.35867c-1.56029,-0.95462 -2.89382,-1.50166 -3.65722,-3.45884c-0.99208,-2.54344 0.85562,-5.63493 1.18791,-8.10231c0,0 0.17678,-1.23744 1.41421,-1.06066c1.23744,0.17677 1.06066,1.41421 1.06066,1.41421c-0.57515,3.8421 -2.87985,6.62872 1.28069,9.06386l0.5409,0.26633c0,0 1.11803,0.55902 0.55902,1.67705z" fill="#c7b38f" stroke="none" stroke-width="0.5"/></g><g><path d="M33.96896,477.82449v-16.55458h4.13864v16.55458z" fill="#8d8d8d" stroke="#ffffff" stroke-width="0"/><path d="M33.71032,464.37389v-2.84532h17.8479v2.84532z" fill="#8d8d8d" stroke="none" stroke-width="0"/><path d="M46.64359,478.08315v-15.51992h3.36265v15.51992z" fill="#8d8d8d" stroke="none" stroke-width="0"/><path d="M53.36889,496.44839v-22.24521h5.69064v22.24521z" fill="#8d8d8d" stroke="none" stroke-width="0"/><path d="M52.59289,482.48046v-8.79462h57.68236v8.79462z" fill="#8d8d8d" stroke="none" stroke-width="0"/><path d="M104.58462,496.96572v-21.21055h6.20797v21.21055z" fill="#8d8d8d" stroke="none" stroke-width="0"/><path d="M117.0409,475.4965v-15.00259h4.13864v15.00259z" fill="#8d8d8d" stroke="none" stroke-width="0"/><path d="M118.07557,465.92589v-5.9493h16.55458v5.9493z" fill="#8d8d8d" stroke="none" stroke-width="0"/><path d="M32.37044,462.7011v-96.2266h35.37439v96.2266z" fill="#d2bd97" stroke="none" stroke-width="0"/><path d="M101.94756,462.7011v-96.2266h35.37439v96.2266z" fill="#d2bd97" stroke="none" stroke-width="0"/><path d="M130.99991,455.91301c0,1.25 -1.25,1.25 -1.25,1.25l-0.95721,-0.00015c-2.82896,-0.11489 -7.07418,-2.03543 -8.05993,-4.97868c-0.78505,-2.34402 -0.41694,-5.16985 -1.34476,-7.65085c-1.19369,-3.19192 -4.58696,-5.33608 -7.60233,-6.52222c0,0 -1.1606,-0.46424 -0.69636,-1.62483c0.46424,-1.1606 1.62484,-0.69636 1.62484,-0.69636c3.71992,1.5094 7.49162,4.05951 9.00874,7.94992c0.15984,0.40988 1.25688,4.63892 1.33932,5.07815c0.20226,1.07762 -0.39162,2.99286 0.66201,3.77787c0.59334,0.44207 1.36367,0.58298 2.00638,0.94957c0.96476,0.55029 1.99113,1.24287 3.10152,1.21774l0.91779,-0.00016c0,0 1.25,0 1.25,1.25z" fill="#c7b38f" stroke="none" stroke-width="0.5"/><path d="M50.78793,477.70792v-126.24024h64.02378v126.24024z" fill="#fee6b8" stroke="none" stroke-width="0"/><path d="M64.17852,417.7344c-0.88389,-0.88388 0,-1.76777 0,-1.76777l0.01053,0.1761c1.07299,-3.19014 0.87336,-6.27882 0.87336,-9.60471c0,-13.97552 -2.5,-27.89256 -2.5,-41.875c0,0 0,-1.25 1.25,-1.25c1.25,0 1.25,1.25 1.25,1.25c0,13.98199 2.5,27.89887 2.5,41.875c0,3.61243 0.14829,6.91746 -1.00164,10.39528l-0.61447,0.8011c0,0 -0.88388,0.88388 -1.76777,0z" fill="#f0d8ad" stroke="none" stroke-width="0.5"/><path d="M83.49989,458.41301c-1.25,0 -1.25,-1.25 -1.25,-1.25l0.03732,-0.61567c0.67208,-2.58646 1.98045,-4.87311 2.53448,-7.57184c0.63536,-3.09488 0.2397,-6.54651 0.19,-9.68313c-0.32189,-4.65183 -2.18153,-9.0083 -2.44801,-13.63522c-0.53463,-9.28297 0.72285,-18.14494 2.52299,-27.17679c0,0 0.24514,-1.22573 1.47087,-0.98058c1.22573,0.24514 0.98058,1.47087 0.98058,1.47087c-1.77443,8.84354 -2.96715,17.4828 -2.47701,26.57321c0.24853,4.60945 2.11627,8.99415 2.44825,13.64068c0.05432,3.35396 0.42676,6.97714 -0.23757,10.28796c-0.54456,2.71393 -1.94493,5.08867 -2.55921,7.68117l0.03732,0.00933c0,0 0,1.25 -1.25,1.25z" fill="#f0d8ad" stroke="none" stroke-width="0.5"/><path d="M97.9409,461.40605c-1.11804,-0.55901 -0.55902,-1.67705 -0.55902,-1.67705l0.18053,-0.06599c0,-5.31142 1.59098,-10.38842 1.5625,-15.625c0,0 0,-1.25 1.25,-1.25c1.25,0 1.25,1.25 1.25,1.25c-0.02427,5.2551 -1.5625,10.30921 -1.5625,15.625l-0.44446,1.18402c0,0 -0.55901,1.11803 -1.67705,0.55902z" fill="#f0d8ad" stroke="none" stroke-width="0.5"/><path d="M62.87491,459.35051c-1.25,0 -1.25,-1.25 -1.25,-1.25v-0.625c0,-3.02249 -0.70851,-3.44876 -1.52906,-6.27531c-0.37519,-1.29242 -0.03344,-2.69142 -0.03344,-4.03719c0,-3.125 0,-6.25 0,-9.375c0,0 0,-1.25 1.25,-1.25c1.25,0 1.25,1.25 1.25,1.25c0,3.125 0,6.25 0,9.375c0,1.15433 -0.37918,2.36148 -0.03344,3.46281c0.84662,2.69687 1.59594,3.86168 1.59594,6.84969v0.625c0,0 0,1.25 -1.25,1.25z" fill="#f0d8ad" stroke="none" stroke-width="0.5"/><path d="M102.80893,410.46855c-1.11804,0.55901 -1.67705,-0.55902 -1.67705,-0.55902l-0.72352,-1.52182c-0.01114,-0.61656 -0.0223,-1.23312 -0.03344,-1.84969c0.03296,-5.51431 2.76568,-10.76007 1.70203,-16.38862c-0.46086,-2.43874 -1.78697,-4.44706 -2.69608,-6.71049c-2.10142,-5.23199 -3.56736,-11.1847 -4.30749,-16.73568c0,0 -0.1652,-1.23904 1.07383,-1.40424c1.23904,-0.1652 1.40424,1.07383 1.40424,1.07383c0.71326,5.34943 2.11646,11.09362 4.14866,16.13274c0.98102,2.43257 2.33595,4.5645 2.83541,7.19061c1.11451,5.86007 -1.70052,11.15343 -1.6606,16.84186c-0.01114,0.4251 -0.02229,0.8502 -0.03344,1.27531l0.52647,0.97817c0,0 0.55902,1.11804 -0.55902,1.67705z" fill="#f0d8ad" stroke="none" stroke-width="0.5"/><path d="M75.30652,396.95308c-1.04007,-0.69338 -0.34669,-1.73344 -0.34669,-1.73344l0.66506,-0.99412c2.26084,-2.99269 1.14747,-5.67942 2.08708,-9.13136c1.65144,-6.06705 6.45507,-12.52362 6.41292,-18.86864c0,0 0,-1.25 1.25,-1.25c1.25,0 1.25,1.25 1.25,1.25c-0.03654,6.6911 -4.72482,13.1608 -6.5014,19.52787c-1.04962,3.76171 0.04423,6.56029 -2.4986,9.97213l-0.58493,0.88087c0,0 -0.69338,1.04007 -1.73344,0.34669z" fill="#e8d1a7" stroke="none" stroke-width="0.5"/><path d="M91.63424,444.93819c-1.21268,-0.30317 -0.90951,-1.51585 -0.90951,-1.51585l0.28454,-1.09956c-0.00895,-2.24268 -0.17876,-4.58912 -0.0051,-6.82537c0.27852,-3.58646 1.55824,-6.60222 1.55824,-10.2094c0,0 0,-1.25 1.25,-1.25c1.25,0 1.25,1.25 1.25,1.25c0,3.7008 -1.28918,6.76814 -1.56676,10.4156c-0.17253,2.26699 0.00291,4.65258 -0.00511,6.92463l-0.34045,1.40044c0,0 -0.30317,1.21268 -1.51585,0.90951z" fill="#e8d1a7" stroke="none" stroke-width="0.5"/><path d="M73.49989,453.41301c-1.25,0 -1.25,-1.25 -1.25,-1.25c0,-8.75 0,-18.4375 0,-27.1875c0,0 0,-1.25 1.25,-1.25c1.25,0 1.25,1.25 1.25,1.25c0,8.75 0,17.5 0,26.25v0.9375c0,0 0,1.25 -1.25,1.25z" fill="#e8d1a7" stroke="none" stroke-width="0.5"/><path d="M109.74992,439.66301c-1.25,0 -1.25,-1.25 -1.25,-1.25v-1.5625c0,-3.85843 -1.2463,-7.30379 -1.25,-11.25c0,0 0,-1.25 1.25,-1.25c1.25,0 1.25,1.25 1.25,1.25c-0.00393,3.94253 1.25,7.35846 1.25,11.25v1.5625c0,0 0,1.25 -1.25,1.25z" fill="#e8d1a7" stroke="none" stroke-width="0.5"/><path d="M37.96855,412.1595c-1.24649,0.09364 -1.34013,-1.15285 -1.34013,-1.15285l-0.08934,-1.18935c-0.5572,-7.41714 -1.77882,-15.10523 -1.68901,-22.53897c0.04725,-3.91118 3.45588,-6.91289 3.33734,-10.42781c0,0 0,-1.25 1.25,-1.25c1.25,0 1.25,1.25 1.25,1.25c-0.0713,3.20682 -2.41366,5.18627 -3.15022,8.23675c-0.71326,2.95404 0.14694,6.60009 0.37117,9.5849c0.37456,4.98595 0.74913,9.9719 1.12369,14.95785l0.08935,1.18935c0,0 0.09364,1.24649 -1.15285,1.34013z" fill="#c7b38f" stroke="none" stroke-width="0.5"/><path d="M47.16052,444.81475c-0.46424,1.1606 -1.62483,0.69636 -1.62483,0.69636l-1.77351,-0.73367c-1.26747,-1.19148 -2.78089,-2.35557 -3.33362,-4.12719c-0.06144,-0.19693 -0.05364,-3.25368 -0.05364,-4.11223c0,-3.55321 0.29723,-7.22691 -0.29549,-10.732c0,0 -0.2055,-1.23299 1.02749,-1.43849c1.23299,-0.2055 1.43849,1.02749 1.43849,1.02749c0.601,3.65386 0.32951,7.4425 0.32951,11.143c0,1.1294 -0.36784,2.30296 -0.05363,3.38777c0.26779,0.92456 1.61262,2.08945 2.29138,2.74781l1.3515,0.51633c0,0 1.1606,0.46424 0.69635,1.62484z" fill="#c7b38f" stroke="none" stroke-width="0.5"/><path d="M119.36905,413.20308c-1.04007,-0.69338 -0.34669,-1.73344 -0.34669,-1.73344l0.50447,-0.70836c0.74145,-1.83389 2.34521,-3.4737 2.74863,-5.41209c0.90717,-4.35899 -1.66623,-6.7189 -2.46249,-10.55376c-1.21213,-5.83768 -1.31304,-11.39042 -1.31304,-17.31991c0,0 0,-1.25 1.25,-1.25c1.25,0 1.25,1.25 1.25,1.25c0,4.0052 -0.2087,7.99678 0.43126,11.94808c0.27651,1.70727 0.21071,4.43498 1.02803,5.99202c1.74252,3.31959 3.13513,6.46348 2.26519,10.43622c-0.47852,2.18523 -2.07226,3.80213 -2.87637,5.83791l-0.74553,1.16663c0,0 -0.69338,1.04007 -1.73344,0.34669z" fill="#c7b38f" stroke="none" stroke-width="0.5"/><path d="M134.30543,428.65953c-0.55901,1.11804 -1.67705,0.55902 -1.67705,0.55902l-0.7091,-0.35867c-1.5603,-0.95462 -2.89382,-1.50166 -3.65722,-3.45884c-0.99208,-2.54344 0.85562,-5.63493 1.18791,-8.10231c0,0 0.17678,-1.23744 1.41421,-1.06066c1.23744,0.17677 1.06066,1.41421 1.06066,1.41421c-0.57515,3.8421 -2.87985,6.62872 1.28068,9.06386l0.5409,0.26633c0,0 1.11803,0.55902 0.55902,1.67705z" fill="#c7b38f" stroke="none" stroke-width="0.5"/></g><path d="M384.89493,412.73273v-256.75675h96.0961v256.75676z" fill="#a36349" stroke="#ffffff" stroke-width="0"/><path d="M392.52763,402.72215v-238.92857h6.07143v238.92857z" fill="#724533" stroke="#ffffff" stroke-width="0"/><path d="M462.52763,403.79358v-241.78571h8.57143v241.78571z" fill="#724533" stroke="none" stroke-width="0"/><g stroke="#ffffff" stroke-width="0"><path d="M361.51276,244.71316v-75.5627h71.09149v75.5627z" fill="url(#color-2)"/><path d="M431.90037,244.71316v-75.5627h71.09149v75.5627z" data-paper-data="{&quot;index&quot;:null}" fill="url(#color-3)"/><path d="M423.17392,245.78497v-77.70632h18.09282v77.70632z" fill="#452a1f"/></g><g stroke="#ffffff" stroke-width="0"><path d="M348.73498,394.57427v-88.61826h83.37452v88.61826z" fill="url(#color-4)"/><path d="M431.28401,394.57427v-88.61826h83.37452v88.61826z" data-paper-data="{&quot;index&quot;:null}" fill="url(#color-5)"/><path d="M421.04982,395.83127v-91.13225h21.21885v91.13225z" fill="#452a1f"/></g><path d="M392.52763,407.5v-7.14286h78.21429v7.14286z" fill="#724533" stroke="#ffffff" stroke-width="0"/><path d="M392.17049,166.07143v-5.35714h78.57143v5.35714z" fill="#724533" stroke="#ffffff" stroke-width="0"/><g stroke-width="0"><path d="M-115.27975,220.19553v-38.88889h38.88889v38.88889z" fill="#78705b" stroke="none"/><path d="M-115.27975,212.46825v-38.88889h38.88889v38.88889z" fill="#8d846b" stroke="none"/><path d="M-106.94642,254.69048v-128.33333h21.66667v128.33333z" fill="#bcb08f" stroke="none"/><path d="M-116.28985,268.71573c0,-3.74896 0,-10.11527 0,-14.54545c0,-2.87481 2.25699,-4.93434 4.43939,-4.93434c4.78041,0 23.40308,0 31.36364,0c2.24452,0 3.64141,2.52719 3.64141,5.84343c0,3.95061 0,9.02104 0,12.27273c0,5.86846 -8.72448,17.30827 -20.91414,17.43939c-10.49334,0.11287 -18.5303,-10.46007 -18.5303,-16.07576z" fill="#6d8d8f" stroke="#ffffff"/><path d="M-116.28985,264.17027c0,-3.74896 0,-10.11527 0,-14.54545c0,-2.87481 2.25699,-4.93434 4.43939,-4.93434c4.78041,0 23.40308,0 31.36364,0c2.24452,0 3.64141,2.52719 3.64141,5.84343c0,3.95061 0,9.02104 0,12.27273c0,5.86846 -8.72448,17.30827 -20.91414,17.43939c-10.49334,0.11287 -18.5303,-10.46007 -18.5303,-16.07576z" fill="#8fb9bd" stroke="#ffffff"/><path d="M-96.85046,111.50955c12.18966,0.13112 20.91414,11.57093 20.91414,17.43939c0,3.25169 0,8.32212 0,12.27273c0,3.31625 -1.39689,5.84343 -3.64141,5.84343c-7.96055,0 -26.58323,0 -31.36364,0c-2.1824,0 -4.43939,-2.05953 -4.43939,-4.93434c0,-4.43018 0,-10.79649 0,-14.54545c0,-5.61569 8.03696,-16.18863 18.5303,-16.07576z" data-paper-data="{&quot;index&quot;:null}" fill="#9c6248" stroke="#ffffff"/><path d="M-96.85046,106.9641c12.18966,0.13112 20.91414,11.57093 20.91414,17.43939c0,3.25169 0,8.32212 0,12.27273c0,3.31625 -1.39689,5.84343 -3.64141,5.84343c-7.96055,0 -26.58323,0 -31.36364,0c-2.1824,0 -4.43939,-2.05953 -4.43939,-4.93434c0,-4.43018 0,-10.79649 0,-14.54545c0,-5.61569 8.03696,-16.18863 18.5303,-16.07576z" data-paper-data="{&quot;index&quot;:null}" fill="#bd7857" stroke="#ffffff"/><path d="M-108.2141,151.89755v-3.63636c0,0 8.39117,-5.45455 12.27273,-5.45455c4.26423,0 12.27273,5.45455 12.27273,5.45455v3.63636c0,0 -7.67858,-5.45455 -11.8892,-5.45455c-3.9552,0 -12.65625,5.45455 -12.65625,5.45455z" fill="#583728" stroke="#ffffff"/><path d="M-108.66864,242.35209v-3.63636c0,0 8.39117,-5.45455 12.27273,-5.45455c4.26423,0 12.27273,5.45455 12.27273,5.45455v3.63636c0,0 -7.67858,-5.45455 -11.8892,-5.45455c-3.9552,0 -12.65625,5.45455 -12.65625,5.45455z" fill="#583728" stroke="#ffffff"/></g><path d="M330.75001,-89.5v-34.5h11v34.5z" fill="#9ed0d0" stroke="#ffffff" stroke-width="0"/><g><g stroke-width="0"><path d="M38.37074,-34.92311c-1.15193,2.38611 -2.60475,4.44827 -4.28914,6.21396c-6.51451,-0.29741 -39.30748,-2.32111 -49.10452,-1.28024c0,0 -0.4012,0.04354 -0.69238,0.32044c-1.11546,-1.59345 -1.67973,-3.30728 -1.54474,-5.08269c0.8708,-11.45299 16.30166,-25.25752 29.46785,-24.50522c2.52518,0.14428 5.51809,3.34182 8.08427,4.15474c2.73798,0.86734 -7.98305,-22.95493 11.13467,-23.94248c7.40964,-0.38275 11.92691,8.85186 11.94398,18.63235c0.0096,5.49993 -2.99481,9.56197 -4.27137,14.27412c-1.17735,4.34594 0.02254,9.65901 -0.72863,11.21499z" fill="#000000" stroke="#33943a"/><path d="M37.39589,-37.77554c-0.19484,3.40993 -1.95135,6.46621 -4.64383,9.00614c-6.07085,-0.27335 -37.60931,-2.16247 -47.22677,-1.27438c-1.07238,-1.62234 -1.63222,-3.50663 -1.50762,-5.68715c0.58999,-10.32564 16.30428,-23.38339 28.15965,-22.70599c2.27376,0.12992 6.76143,3.72271 9.07214,4.4547c2.46537,0.78098 -7.32054,-22.63283 9.89382,-23.52205c6.67193,-0.34465 10.73947,7.97057 10.75483,16.77732c0.00864,4.95235 -2.69663,8.60997 -3.84611,12.85298c-1.06013,3.91327 -0.56734,8.54516 -0.65609,10.09842z" fill="#edafbc" stroke="#33943a"/><g stroke="#000000"><path d="M39.60348,-74.11923c1.70031,0.38767 2.80382,2.10029 2.46477,3.82522c-0.33906,1.72492 -1.99228,2.809 -3.69259,2.42133c-1.70031,-0.38767 -2.80382,-2.10029 -2.46477,-3.82522c0.33906,-1.72492 1.99228,-2.809 3.69259,-2.42133z" fill="#000000"/><path d="M39.49381,-73.56125c1.39655,0.31841 2.30291,1.72505 2.02443,3.14182c-0.27848,1.41676 -1.63635,2.30717 -3.0329,1.98875c-1.39655,-0.31841 -2.30291,-1.72505 -2.02443,-3.14182c0.27848,-1.41676 1.63635,-2.30717 3.0329,-1.98875z" fill="#ffffff"/><path d="M36.16277,-71.16952c0.20782,-1.05724 1.22111,-1.72169 2.26324,-1.48408c1.04215,0.23761 1.71852,1.2873 1.51071,2.34454c-0.2078,1.05724 -1.22109,1.72169 -2.26324,1.48408c-1.04214,-0.23761 -1.7185,-1.28729 -1.51071,-2.34454z" fill="#000000"/></g><g stroke="#000000"><path d="M31.46523,-72.61588c1.70031,0.38767 2.80382,2.10029 2.46477,3.82522c-0.33906,1.72492 -1.99228,2.80899 -3.69259,2.42132c-1.70031,-0.38767 -2.80382,-2.10029 -2.46477,-3.82522c0.33906,-1.72492 1.99228,-2.80899 3.69259,-2.42132z" fill="#000000"/><path d="M31.35553,-72.0579c1.39655,0.31841 2.30291,1.72505 2.02443,3.14182c-0.27848,1.41676 -1.63635,2.30717 -3.0329,1.98875c-1.39655,-0.31841 -2.30291,-1.72505 -2.02443,-3.14182c0.27848,-1.41676 1.63635,-2.30717 3.0329,-1.98875z" fill="#ffffff"/><path d="M28.02452,-69.66616c0.20782,-1.05724 1.22109,-1.72169 2.26324,-1.48408c1.04215,0.23761 1.71852,1.2873 1.51071,2.34454c-0.2078,1.05724 -1.22109,1.72167 -2.26324,1.48407c-1.04214,-0.23761 -1.7185,-1.28729 -1.51071,-2.34454z" fill="#000000"/></g><path d="M30.83744,-77.17364c0,0 0.38547,-1.582 0.27687,-2.43344c-0.15133,-1.1864 -1.09997,-4.01961 -1.09997,-4.01961l0.53776,-0.06859c0,0 1.07524,1.98893 1.22387,3.15415c0.11919,0.93445 -0.40076,3.2989 -0.40076,3.2989z" fill="#000000" stroke="#33943a"/><path d="M29.6686,-77.33294c0,0 0.11261,-2.08941 -0.226,-3.13916c-0.47183,-1.46273 -2.34035,-4.81691 -2.34035,-4.81691l0.663,-0.21386c0,0 1.82868,2.25782 2.29208,3.69444c0.37162,1.15209 0.27427,4.26163 0.27427,4.26163z" fill="#000000" stroke="#33943a"/><path d="M28.57046,-77.21076c0,0 -0.3478,-1.59071 -0.81901,-2.30814c-0.65657,-0.99967 -2.75224,-3.12928 -2.75224,-3.12928l0.45312,-0.2976c0,0 1.83894,1.31539 2.4838,2.29722c0.51714,0.78737 1.08745,3.14019 1.08745,3.14019z" fill="#000000" stroke="#33943a"/><path d="M49.45105,-53.22779c-0.86636,2.10828 -5.18038,2.33322 -9.63564,0.50242c-4.45525,-1.83081 -7.36461,-5.02408 -6.49825,-7.13236c0.86636,-2.10828 5.18038,-2.33322 9.63564,-0.50242c4.45525,1.83081 7.36461,5.02408 6.49825,7.13236z" fill="#000000" stroke="#33943a"/><path d="M48.40404,-53.65802c-0.75391,1.83465 -4.50804,2.03039 -8.38504,0.4372c-3.877,-1.59319 -6.40876,-4.37201 -5.65485,-6.20667c0.75391,-1.83465 4.50804,-2.03039 8.38504,-0.4372c3.877,1.59319 6.40876,4.37202 5.65485,6.20667z" fill="#ffd726" stroke="#33943a"/><path d="M52.6159,-51.3707c-1.35431,-0.54959 -5.39766,-3.1548 -10.61216,-4.65593c-4.47848,-1.28925 -9.14352,-0.794 -9.14352,-0.794c0,0 -0.61805,-1.27879 -0.37112,-5.6005c0.24693,-4.32171 7.58538,-8.10964 12.42742,-4.91872c7.38337,4.86566 7.78963,9.67981 9.63449,14.74644c0.50984,1.40022 -1.93509,1.22269 -1.93509,1.22269z" fill="#000000" stroke="#33943a"/><path d="M52.48595,-51.93723c-1.24114,-0.50366 -5.52411,-3.6706 -10.30289,-5.04631c-4.10425,-1.18151 -8.88258,-0.63198 -8.88258,-0.63198c0,0 -0.09875,-0.64759 0.12756,-4.60817c0.22631,-3.96058 6.95152,-7.43199 11.38897,-4.5077c6.76639,4.45909 7.13872,8.87094 8.82942,13.51421c0.46725,1.28321 -1.16046,1.27996 -1.16046,1.27996z" fill="#ffd726" stroke="#33943a"/><g stroke="#33943a"><path d="M23.87376,-36.64348c-0.11477,2.00854 -4.35829,0.43158 -7.08414,1.18286c-3.40186,0.93758 -5.7648,3.86556 -10.10451,3.00358c-3.09357,-0.61446 -4.5543,-4.15679 -7.35371,-4.31675c-9.87319,-0.56413 -11.65355,1.36935 -11.65355,1.36935c0,0 8.18486,-16.06848 18.05805,-15.50434c9.87319,0.56413 18.49796,7.96326 18.13787,14.26528z" fill="#000000"/><path d="M22.27844,-37.09272c-0.10447,1.82829 -3.96715,0.39285 -6.44839,1.0767c-3.09656,0.85344 -5.24743,3.51865 -9.1977,2.73403c-2.81595,-0.55932 -4.14558,-3.78374 -6.69377,-3.92934c-8.98714,-0.51352 -10.60771,1.24646 -10.60771,1.24646c0,0 7.45033,-14.62644 16.43745,-14.11292c8.98714,0.51352 16.8379,7.2486 16.51012,12.98507z" fill="#906bc7"/></g></g><g><text transform="translate(67.83977,-81.0215) scale(0.12525,0.12525)" font-size="40" xml:space="preserve" fill="#ed1597" fill-rule="nonzero" stroke="#ed1597" stroke-width="1" stroke-linecap="butt" stroke-linejoin="miter" stroke-miterlimit="10" stroke-dasharray="" stroke-dashoffset="0" font-family="Sans Serif" font-weight="normal" text-anchor="start" style="mix-blend-mode: normal"><tspan x="0" dy="0">Opila Bird Says!</tspan></text><path d="M58.32033,-50.89671c0,0 -0.11598,-0.75172 0.92504,-1.30038c2.34623,-1.23657 7.16301,-2.51865 8.23483,-4.5626c0.96353,-1.83744 0.65422,-8.10982 0.58116,-14.13795c-0.05158,-4.25576 2.21574,-7.53175 6.47174,-7.5077c4.82939,0.02729 19.37409,0.10946 27.32576,0.15438c3.09804,0.01751 5.32126,1.59514 5.29627,4.69314c-0.03515,4.35775 -0.08587,10.64824 -0.11113,13.7794c-0.04101,5.08505 -2.98235,9.09058 -8.06751,9.06736c-8.32649,-0.03802 -40.65617,-0.18565 -40.65617,-0.18565z" fill="#000000" stroke="#33943a" stroke-width="0"/><path d="M60.21025,-51.72052c0,0 6.76111,-1.3634 8.21519,-4.13629c0.90543,-1.72663 1.0071,-8.99394 0.93845,-14.65856c-0.04847,-3.99913 2.08214,-7.07758 6.08149,-7.05498c4.53818,0.02564 18.20581,0.10286 25.67799,0.14507c2.91122,0.01645 5.00038,1.49896 4.9769,4.41013c-0.03302,4.09497 -0.0807,10.00614 -0.10443,12.94849c-0.03853,4.77842 -2.80251,8.54241 -7.58103,8.52059c-7.82439,-0.03573 -38.20456,-0.17445 -38.20456,-0.17445z" fill="#bbbbbb" stroke="#33943a" stroke-width="0"/><text transform="translate(72.23415,-69.59111) scale(0.10384,0.10953)" font-size="40" xml:space="preserve" fill="#ed1597" fill-rule="nonzero" stroke="#ed1597" stroke-width="1" stroke-linecap="butt" stroke-linejoin="miter" stroke-miterlimit="10" stroke-dasharray="" stroke-dashoffset="0" font-family="Sans Serif" font-weight="normal" text-anchor="start" style="mix-blend-mode: normal"><tspan x="0" dy="0">Laughter is the</tspan><tspan x="0" dy="46.15px">best medicine,</tspan><tspan x="0" dy="46.15px">so make sure to</tspan><tspan x="0" dy="46.15px">       SMILE!</tspan></text></g></g></g></g></svg>