<svg version="1.1" xmlns="http://www.w3.org/2000/svg" xmlns:xlink="http://www.w3.org/1999/xlink" width="187" height="187" viewBox="0,0,187,187"><defs><radialGradient cx="240" cy="180" r="12.75" gradientUnits="userSpaceOnUse" id="color-1"><stop offset="0" stop-color="#71ff82"/><stop offset="1" stop-color="#71ff82" stop-opacity="0"/></radialGradient></defs><g transform="translate(-146.5,-86.5)"><g data-paper-data="{&quot;isPaintingLayer&quot;:true}" fill-rule="nonzero" stroke="#000000" stroke-width="0" stroke-linecap="butt" stroke-linejoin="miter" stroke-miterlimit="10" stroke-dasharray="" stroke-dashoffset="0" style="mix-blend-mode: normal"><path d="M230.71576,180c0,-5.12755 4.15669,-9.28424 9.28424,-9.28424c5.12755,0 9.28424,4.15669 9.28424,9.28424c0,5.12755 -4.15669,9.28424 -9.28424,9.28424c-5.12755,0 -9.28424,-4.15669 -9.28424,-9.28424z" fill="#626262"/><path d="M232.11111,180c0,-4.35692 3.53197,-7.88889 7.88889,-7.88889c4.35691,0 7.88889,3.53197 7.88889,7.88889c0,4.35691 -3.53197,7.88889 -7.88889,7.88889c-4.35692,0 -7.88889,-3.53197 -7.88889,-7.88889z" fill="#71ff82"/><path d="M227.25,180c0,-7.04163 5.70837,-12.75 12.75,-12.75c7.04163,0 12.75,5.70837 12.75,12.75c0,7.04163 -5.70837,12.75 -12.75,12.75c-7.04163,0 -12.75,-5.70837 -12.75,-12.75z" fill="url(#color-1)"/><path d="M146.5,273.5v-187h187v187z" fill="none"/></g></g></svg>