<svg version="1.1" xmlns="http://www.w3.org/2000/svg" xmlns:xlink="http://www.w3.org/1999/xlink" width="155.31684" height="115.93639" viewBox="0,0,155.31684,115.93639"><defs><linearGradient x1="217.30455" y1="183.75637" x2="217.30455" y2="235.0686" gradientUnits="userSpaceOnUse" id="color-1"><stop offset="0" stop-color="#000000" stop-opacity="0"/><stop offset="1" stop-color="#000000"/></linearGradient></defs><g transform="translate(-161.34593,-122.95333)"><g data-paper-data="{&quot;isPaintingLayer&quot;:true}" fill-rule="nonzero" stroke-width="0" stroke-linecap="butt" stroke-linejoin="miter" stroke-miterlimit="10" stroke-dasharray="" stroke-dashoffset="0" style="mix-blend-mode: normal"><path d="M261.38891,179.1139c7.31544,15.47251 -1.47136,18.44815 -2.61097,18.43539c-2.43975,-0.02732 -5.65559,11.19039 -7.41982,18.17018c-0.08976,-0.00241 -2.82163,21.08462 -2.82163,21.08462l-71.49397,-1.19186c0,0 4.38742,-8.84209 9.9601,-16.44753c6.76661,-9.23488 14.91582,-17.55876 14.42209,-17.65966c-2.34247,0.05106 11.98203,-25.44449 7.97375,-30.7061c-5.00286,-6.56719 49.77022,3.61906 51.99045,8.31496z" fill="#09b309" stroke="#000000"/><g stroke="#000000"><path d="M273.15707,142.36038c2.00521,5.01877 5.48087,10.20471 -4.21467,21.92901c-3.73595,4.51769 -13.42972,10.76702 -10.95212,15.33238c8.16344,15.04237 -48.07769,-0.38387 -52.37199,-5.41476c-5.60468,-6.56602 -7.99098,-14.1621 -8.39525,-21.43003c-1.00642,-18.09365 7.23953,-28.27115 29.62287,-29.51615c22.38335,-1.24501 38.90903,0.57295 46.31115,19.09953z" fill="#09b309"/><path d="M225.40576,143.16287c-1.205,4.25933 -5.34895,7.01682 -9.25577,6.15903c-3.90682,-0.85778 -6.09709,-5.00603 -4.8921,-9.26534c1.205,-4.25933 5.34895,-7.01681 9.25577,-6.15903c3.90682,0.85778 6.09709,5.00603 4.89211,9.26534z" fill="#ffffff"/><path d="M224.33065,143.1605c-0.99276,3.50909 -4.40681,5.78088 -7.62548,5.07417c-3.21867,-0.7067 -5.02318,-4.12426 -4.0304,-7.63336c0.99276,-3.50909 4.40679,-5.78089 7.6255,-5.0742c3.21867,0.7067 5.02316,4.12426 4.0304,7.63337z" fill="#000000"/><path d="M256.04296,143.01698c-1.205,4.25933 -5.34895,7.01681 -9.25577,6.15903c-3.90682,-0.85778 -6.09709,-5.00603 -4.89209,-9.26534c1.205,-4.25933 5.34894,-7.01682 9.25576,-6.15903c3.90682,0.85778 6.09709,5.00603 4.89211,9.26534z" fill="#ffffff"/><path d="M255.32961,143.01721c-1.05511,3.72952 -4.68362,6.14401 -8.10448,5.39293c-3.42087,-0.75109 -5.33871,-4.38335 -4.28358,-8.11287c1.05511,-3.72952 4.68362,-6.14403 8.10448,-5.39294c3.42087,0.75109 5.33871,4.38335 4.28358,8.11289z" fill="#000000"/><g><g><path d="M207.61924,157.8576c0,0 15.33231,-1.38471 23.58702,-1.433c9.06372,-0.05306 28.5956,1.12756 28.5956,1.12756c0,0 4.4817,7.9871 -1.9143,10.62271c-3.49979,1.44216 -16.10948,4.14689 -26.88862,4.37882c0,0 -19.56452,0.89328 -24.78088,-7.25538c-1.66834,-2.60616 1.40118,-7.44068 1.40118,-7.44068z" fill="#000000"/><path d="M242.88763,157.33164c0,0 -0.50387,3.80705 -2.53202,3.44991c-2.29328,-0.4038 -2.30738,-3.87099 -2.30738,-3.87099c0,0 1.18498,0.09502 2.48662,0.11209c1.30165,0.01707 2.35281,0.30896 2.35281,0.30896z" fill="#ffffff"/><path d="M248.46682,157.63958c0,0 -0.69033,3.77846 -2.69843,3.32404c-2.2706,-0.51383 -2.1143,-3.97777 -2.1143,-3.97777c0,0 1.17884,0.15198 2.47802,0.23174c1.29921,0.07977 2.3347,0.42197 2.3347,0.42197z" fill="#ffffff"/><path d="M253.95485,157.96314c0,0 -0.79304,3.75877 -2.78796,3.25083c-2.2557,-0.57434 -2.00506,-4.03293 -2.00506,-4.03293c0,0 1.17424,0.18343 2.47072,0.29788c1.29651,0.11446 2.32229,0.4842 2.32229,0.4842z" fill="#ffffff"/><path d="M258.94769,158.25168c0,0 -0.23618,3.83218 -2.28462,3.61514c-2.31622,-0.2454 -2.57298,-3.70301 -2.57298,-3.70301c0,0 1.18885,0.01344 2.48866,-0.05885c1.29981,-0.0723 2.36894,0.14672 2.36894,0.14672z" fill="#ffffff"/><path d="M237.31163,157.41212c0,0 -0.23617,3.83218 -2.28461,3.61514c-2.31622,-0.24542 -2.57299,-3.70301 -2.57299,-3.70301c0,0 1.18886,0.01344 2.48868,-0.05886c1.29981,-0.0723 2.36895,0.14673 2.36895,0.14673z" fill="#ffffff"/><path d="M231.54303,157.36199c0,0 -0.2362,3.83218 -2.28462,3.61513c-2.31622,-0.24542 -2.57299,-3.70301 -2.57299,-3.70301c0,0 1.18886,0.01344 2.48868,-0.05886c1.29981,-0.0723 2.36893,0.14673 2.36893,0.14673z" fill="#ffffff"/><path d="M226.3166,157.717c0,0 -0.23618,3.83217 -2.28462,3.61513c-2.31622,-0.2454 -2.57299,-3.70301 -2.57299,-3.70301c0,0 1.18886,0.01344 2.48867,-0.05886c1.29981,-0.0723 2.36893,0.14672 2.36893,0.14672z" fill="#ffffff"/><path d="M221.11374,157.64755c0,0 -0.05347,3.83874 -2.11007,3.71757c-2.32544,-0.13703 -2.74657,-3.57858 -2.74657,-3.57858c0,0 1.18824,-0.04209 2.48322,-0.17496c1.295,-0.13288 2.37341,0.03599 2.37341,0.03599z" fill="#ffffff"/><path d="M215.89187,158.08494c0,0 -0.06046,4.3395 -2.38531,4.20251c-2.6288,-0.1549 -3.10486,-4.04542 -3.10486,-4.04542c0,0 1.34325,-0.04755 2.80716,-0.19778c1.46391,-0.15022 2.68304,0.04069 2.68304,0.04069z" fill="#ffffff"/><path d="M208.30984,158.8154l-0.47218,-0.94331c0,0 15.6425,-1.19661 23.97511,-1.24449c8.9763,-0.05157 27.91304,1.0791 27.91304,1.0791l-0.08337,0.74665c0,0 -18.75908,-1.62206 -27.65797,-1.04207c-8.32039,0.54229 -23.67463,1.40412 -23.67463,1.40412z" fill="#000000"/></g><path d="M232.7211,171.83489c-1.47154,0.01306 -2.81178,0.11477 -2.81178,0.11477c0,0 0.04168,-3.91932 2.63706,-4.36478c2.29533,-0.39397 2.83668,3.91205 2.83668,3.91205c0,0 -1.19042,0.32493 -2.66196,0.33797z" data-paper-data="{&quot;index&quot;:null}" fill="#ffffff"/><path d="M238.33462,171.23382c-1.3687,0.16993 -2.60544,0.40828 -2.60544,0.40828c0,0 -0.3898,-3.65272 1.97801,-4.34563c2.09406,-0.61281 3.06896,3.33738 3.06896,3.33738c0,0 -1.07283,0.43007 -2.44153,0.59998z" data-paper-data="{&quot;index&quot;:null}" fill="#ffffff"/><path d="M224.31948,171.34416c0,0 0.53082,-4.03392 2.67991,-3.65716c2.43005,0.42604 2.44775,4.09946 2.44775,4.09946c0,0 -1.25553,-0.09973 -2.63464,-0.11681c-1.37909,-0.01709 -2.49303,-0.32551 -2.49303,-0.32551z" data-paper-data="{&quot;index&quot;:null}" fill="#ffffff"/><path d="M218.69602,170.00151c0,0 1.56305,-3.76324 3.54079,-2.85051c2.23628,1.03205 1.29694,4.58687 1.29694,4.58687c0,0 -1.18677,-0.41688 -2.51441,-0.78541c-1.32765,-0.36853 -2.32329,-0.95096 -2.32329,-0.95096z" data-paper-data="{&quot;index&quot;:null}" fill="#ffffff"/><path d="M243.66409,170.14779c-1.35135,0.27456 -2.56581,0.6072 -2.56581,0.6072c0,0 -0.67496,-3.61143 1.6316,-4.48415c2.03989,-0.7718 3.32155,3.09121 3.32155,3.09121c0,0 -1.03601,0.51119 -2.38736,0.78574z" data-paper-data="{&quot;index&quot;:null}" fill="#ffffff"/><path d="M213.71098,167.83262c0,0 1.78308,-3.08227 3.39015,-2.07042c1.81718,1.14414 0.59767,4.11595 0.59767,4.11595c0,0 -0.97932,-0.49395 -2.08609,-0.96183c-1.10677,-0.46789 -1.90174,-1.08373 -1.90174,-1.08373z" data-paper-data="{&quot;index&quot;:null}" fill="#ffffff"/><path d="M208.18626,165.69849c0,0 1.78307,-3.08227 3.39015,-2.07042c1.81718,1.14414 0.59767,4.11595 0.59767,4.11595c0,0 -0.97932,-0.49394 -2.0861,-0.96181c-1.10677,-0.46789 -1.90173,-1.08373 -1.90173,-1.08373z" data-paper-data="{&quot;index&quot;:null}" fill="#ffffff"/><path d="M248.57733,168.61706c-1.1606,0.3181 -2.19845,0.67877 -2.19845,0.67877c0,0 -0.80321,-3.10545 1.15364,-4.00026c1.7306,-0.79135 3.07724,2.49771 3.07724,2.49771c0,0 -0.87181,0.5057 -2.03242,0.82379z" data-paper-data="{&quot;index&quot;:null}" fill="#ffffff"/><path d="M253.21969,167.68951c-1.1606,0.3181 -2.19847,0.67876 -2.19847,0.67876c0,0 -0.80321,-3.10545 1.15364,-4.00026c1.7306,-0.79135 3.07722,2.4977 3.07722,2.4977c0,0 -0.87181,0.50571 -2.0324,0.8238z" data-paper-data="{&quot;index&quot;:null}" fill="#ffffff"/><path d="M257.35342,166.76204c-1.1606,0.3181 -2.19847,0.67876 -2.19847,0.67876c0,0 -0.8032,-3.10544 1.15364,-4.00025c1.7306,-0.79135 3.07722,2.49769 3.07722,2.49769c0,0 -0.87181,0.50571 -2.0324,0.8238z" data-paper-data="{&quot;index&quot;:null}" fill="#ffffff"/><path d="M207.0561,164.64786l2.37229,1.20731c0,0 1.26519,1.82313 3.5692,2.79684c3.69111,1.55993 9.8669,2.58892 16.41232,2.86118c8.61157,0.35818 30.55691,-5.75073 30.55691,-5.75073l-1.98335,1.4261c0,0 -6.77892,1.63138 -13.61015,3.3079c-5.13526,1.26029 -11.38564,2.07675 -15.28826,2.03732c-6.93444,-0.07008 -14.58233,-2.20915 -18.55634,-4.16403c-1.7627,-0.86711 -2.70954,-2.5436 -2.70954,-2.5436z" fill="#000000"/></g></g><g fill="#0ac00a"><path d="M249.05965,179.96128c11.52639,12.65135 32.35734,-17.87643 43.35339,-4.76151c-4.39582,0.73298 16.52626,12.16296 10.89942,13.31415c-2.13908,-2.80699 -9.08894,9.5566 -20.62782,12.4751c-12.50972,3.16403 -29.62853,-2.95766 -30.72191,-2.63608c-2.34076,0.68846 -6.40136,-22.23133 -2.90311,-18.39165z" stroke="#000000"/><path d="M305.02198,183.39418c-8.2769,4.69633 -17.73878,3.65304 -21.13373,-2.33027c-3.39493,-5.98329 0.56267,-14.64084 8.83957,-19.33717c8.2769,-4.69633 17.73878,-3.65304 21.13373,2.33027c3.39494,5.9833 -0.56267,14.64084 -8.83957,19.33717z" stroke="#33943a"/><path d="M308.28676,191.29471c-4.91568,0.37813 -14.55889,-5.02093 -14.85786,-8.90776c-0.29898,-3.88681 8.85946,-4.78952 13.77514,-5.16764c4.91569,-0.37813 9.14301,2.46622 9.44199,6.35303c0.29899,3.88682 -3.44358,7.34424 -8.35926,7.72238z" stroke="none"/></g><g fill="#0ac00a"><path d="M204.0699,201.58058c-2.33924,-0.13312 -22.10521,-5.74659 -29.63939,-16.13404c-14.29877,-19.71391 9.73049,-23.26375 3.90051,-23.7358c2.90809,-5.91011 6.79977,18.19549 13.85038,12.12274c12.89766,-11.1089 25.83238,3.32256 22.24984,-2.23767c-2.06568,-3.20602 5.54482,6.48257 3.73016,14.0733c-2.11345,8.84053 -13.5336,16.07208 -14.09152,15.91149z" stroke="#000000"/><path d="M186.2528,163.6225c1.07052,9.45602 -3.60306,17.74901 -10.43875,18.52287c-6.8357,0.77388 -13.24493,-6.26442 -14.31546,-15.72044c-1.07052,-9.45602 3.60306,-17.749 10.43875,-18.52287c6.8357,-0.77388 13.24493,6.26442 14.31546,15.72044z" stroke="#33943a"/><path d="M190.7528,159.77185c-0.73243,4.87549 -8.15411,13.0645 -12.00916,12.48538c-3.85504,-0.57912 -2.68363,-9.7071 -1.95119,-14.58259c0.73243,-4.8755 4.45131,-8.35838 8.30635,-7.77925c3.85504,0.57912 6.38642,5.00097 5.65398,9.87647z" stroke="none"/></g><path d="M174.43535,238.53014l1.53846,-54.77377h82.66149v55.13335z" fill="url(#color-1)" stroke="#33943a"/></g></g></svg>