<svg version="1.1" xmlns="http://www.w3.org/2000/svg" xmlns:xlink="http://www.w3.org/1999/xlink" width="286" height="286" viewBox="0,0,286,286"><g transform="translate(-97,-37)"><g data-paper-data="{&quot;isPaintingLayer&quot;:true}" fill-rule="nonzero" stroke-width="0" stroke-linecap="butt" stroke-linejoin="miter" stroke-miterlimit="10" stroke-dasharray="" stroke-dashoffset="0" style="mix-blend-mode: normal"><g><path d="M229.8623,189.89191c0,-2.84516 0,-16.53453 0,-20.60529c0,-0.72432 0.48587,-1.14412 1.30417,-1.14412c3.98378,0 15.84663,0 17.8858,0c0.58458,0 1.08543,0.29994 1.08543,0.83033c0,3.64213 0,18.15089 0,21.02367c0,0.9604 -0.86993,1.86099 -2.23598,1.86099c-4.37176,0 -13.82483,0 -16.10768,0c-0.9723,0 -1.93174,-0.95807 -1.93174,-1.96559z" fill="#000000" stroke="#000000"/><path d="M232.84054,174.84801v-2.5256h14.46477v2.5256z" fill="#4c4c4c" stroke="none"/><path d="M232.94459,180.58291v-6.06654h14.32955v6.06654z" fill="#fcff40" stroke="#000000"/></g><g stroke="#000000"><g><path d="M231.34481,162.35209c0,-3.79065 0,-10.18904 0,-12.10856c0,-1.07517 0.99565,-2.23542 1.956,-2.23542c1.97231,0 9.2958,0 13.03999,0c1.35057,0 2.23542,1.16025 2.23542,2.23542c0,1.96753 0,8.64078 0,12.38798c0,1.4552 -0.68709,2.608 -2.14229,2.608c-1.94944,0 -8.70403,0 -12.48112,0c-1.55697,0 -2.608,-1.1788 -2.608,-2.88742z" fill="#000000"/><path d="M231.78665,162.05833c0,-3.59627 0,-9.66652 0,-11.48761c0,-1.02003 0.94459,-2.12078 1.85569,-2.12078c1.87117,0 8.8191,0 12.37126,0c1.28132,0 2.12079,1.10075 2.12079,2.12078c0,1.86663 0,8.19765 0,11.7527c0,1.38057 -0.65185,2.47426 -2.03243,2.47426c-1.84947,0 -8.25766,0 -11.84106,0c-1.47712,0 -2.47426,-1.11835 -2.47426,-2.73935z" fill="#ffc854"/></g><g data-paper-data="{&quot;index&quot;:null}" fill="#000000"><path d="M235.82107,160.8364c-0.63021,-0.63299 -0.55164,-1.5153 0.08135,-2.1455c1.12098,-1.11606 5.37597,-5.35236 5.37597,-5.35236l2.02625,2.03518c0,0 -4.25498,4.23631 -5.37597,5.35237c-0.81379,0.81021 -1.77314,0.44624 -2.1076,0.11031zM237.12531,160.14959c0.19086,-0.19003 0.19155,-0.49881 0.00152,-0.68968c-0.19003,-0.19086 -0.49881,-0.19154 -0.68968,-0.00152c-0.19086,0.19003 -0.19154,0.49881 -0.00151,0.68968c0.19003,0.19086 0.49881,0.19155 0.68967,0.00152z"/><path d="M240.89439,153.72085c0,0 -1.10717,-1.04759 0.37443,-2.57275c0.85228,-0.87734 2.8892,-0.52364 2.8892,-0.52364l-1.78026,1.70076l0.37534,1.60577l1.4169,0.18429l1.74682,-1.80108c0,0 0.80726,1.69562 -0.32587,2.70831c-1.65783,1.48161 -2.74662,0.58009 -2.74662,0.58009z"/></g><path d="M243.06655,162.43479c-0.85826,-0.84565 -3.10465,-3.05901 -3.10465,-3.05901l2.23272,-2.26603c0,0 1.98251,1.95337 2.82318,2.78169c0.67861,0.66864 0.75206,1.68588 0.22611,2.29589c-0.34273,0.39749 -1.56935,0.84655 -2.17737,0.24747z" fill="#000000"/><path d="M237.8574,156.09764l-1.93888,-1.92111l-1.33457,-0.4285l-0.94462,-1.94123l0.99348,-0.91146l1.69952,0.75951l0.49071,1.35961l2.24266,1.95698z" fill="#000000"/></g><path d="M97,323v-286h286v286z" fill="none" stroke="#000000"/></g></g></svg>