<svg version="1.1" xmlns="http://www.w3.org/2000/svg" xmlns:xlink="http://www.w3.org/1999/xlink" width="53.84164" height="74.77809" viewBox="0,0,53.84164,74.77809"><g transform="translate(-208.98192,-144.94332)"><g data-paper-data="{&quot;isPaintingLayer&quot;:true}" fill-rule="nonzero" stroke="none" stroke-width="0" stroke-linecap="butt" stroke-linejoin="miter" stroke-miterlimit="10" stroke-dasharray="" stroke-dashoffset="0" style="mix-blend-mode: normal"><path d="" fill="#f0a787"/><path d="" fill="#000000"/><g><path d="M262.82137,212.83513c-0.04517,1.15215 -2.13266,0.51504 -2.67572,1.39196c-0.18309,0.29566 0.59538,1.21952 0.24856,1.95061c-0.41511,0.8751 -1.95826,1.30585 -2.48876,1.68245c-1.02312,0.72631 -2.35985,1.4234 -2.98458,1.74128c-1.80532,0.91856 -4.18898,-3.70713 -5.8062,-4.70865c-1.84434,-1.14216 -11.50376,-1.84153 -12.69629,-4.63557c-0.55941,-1.31067 5.80387,-4.81863 6.45726,-5.87371c0.45715,-0.73819 8.5037,5.33114 8.94546,4.93248c1.5356,-1.38581 3.06246,-0.87813 5.16665,0.42495c1.99042,1.23263 5.94247,2.34533 5.83362,3.09419z" data-paper-data="{&quot;index&quot;:null}" fill="#f2a685"/><path d="M256.55003,215.54264l3.63863,-0.39545c0,0 0.37175,0.83732 0.20288,1.09072c-0.21178,0.31782 -1.32868,0.86086 -1.32868,0.86086l-2.7494,-1.04047z" data-paper-data="{&quot;index&quot;:null}" fill="#d0735b"/></g><g data-paper-data="{&quot;index&quot;:null}"><path d="M212.26383,172.26069c-1.04959,-0.47733 0.32932,-2.16911 -0.27727,-3.00335c-0.20451,-0.28127 -1.35408,0.09022 -1.89984,-0.50721c-0.65326,-0.71509 -0.46875,-2.30658 -0.61688,-2.94008c-0.28569,-1.22175 -0.42579,-2.72281 -0.48393,-3.42134c-0.168,-2.01859 5.01551,-2.4769 6.55403,-3.59556c1.75458,-1.27577 6.05329,-9.95417 9.09081,-10.00208c1.42488,-0.02248 2.26726,7.19468 2.99709,8.19842c0.51062,0.70226 -8.14998,5.85763 -7.94789,6.4173c0.70253,1.9455 -0.34463,3.16717 -2.34641,4.62268c-1.89355,1.37681 -4.41756,4.61505 -5.06971,4.23121z" data-paper-data="{&quot;index&quot;:null}" fill="#f2a685"/><path d="M212.12774,165.4312l-1.00929,3.51815c0,0 -0.91572,0.02766 -1.08649,-0.22446c-0.21418,-0.3162 -0.29475,-1.5555 -0.29475,-1.5555l2.00254,-2.15212z" data-paper-data="{&quot;index&quot;:null}" fill="#d0735b"/></g><g><path d="M231.03667,166.19585c-5.86873,0 -11.75223,-4.19456 -11.75223,-10.06328c0,-5.86873 5.8835,-11.18925 11.75223,-11.18925c5.86873,0 10.62626,4.75754 10.62626,10.62626c0,5.86873 -4.75754,10.62626 -10.62626,10.62626z" fill="#376fac"/><path d="M236.63667,214.85667c-5.86873,0 -13.15968,-8.69841 -13.15968,-14.56712c0,-5.86872 7.29095,-6.6854 13.15968,-6.6854c5.86873,0 10.62626,4.75754 10.62626,10.62626c0,5.86872 -4.75754,10.62626 -10.62626,10.62626z" fill="#376fac"/><path d="M231.76996,211.5973c-10.61777,-0.15099 -15.55234,-14.33357 -15.55234,-31.66767c0,-17.33411 3.51465,-31.41055 15.4116,-31.38618c10.05443,0.0206 15.4116,14.05207 15.4116,31.38618c0,17.33411 -2.95315,31.84284 -15.27085,31.66767z" fill="#4f9ee3"/><path d="M237.5725,193.80083c-1.17914,0.03138 -2.28458,-0.83722 -3.31934,-0.91372c-9.40584,-0.69543 -12.97191,-4.87365 -12.97191,-11.8589c0,-6.42226 1.59585,-11.34677 10.23946,-12.98201c1.79198,-0.33902 3.88688,-1.07544 6.33328,-1.05731c8.86287,0.06567 16.57275,6.28562 16.57275,14.03934c0,7.75371 -7.70461,12.52909 -16.85424,12.77263z" fill="#f0a787"/><path d="M253.52949,182.55881c-1.16597,0 -2.11118,-0.94521 -2.11118,-2.11118c0,-1.16597 0.94521,-2.11118 2.11118,-2.11118c1.16597,0 2.63898,0.73408 2.74453,2.00562c0.09646,1.16197 -1.57857,2.21674 -2.74453,2.21674z" fill="#f0a787"/><path d="M234.58166,193.53693c-9.28276,0 -13.77544,-4.64083 -13.77544,-11.92816c0,-3.97536 0.04282,-8.1649 2.95564,-11.00415c2.63666,-2.57007 7.73612,-2.87249 11.34759,-3.35186c0.50754,-0.06738 3.67276,-0.71128 5.93437,0.57982c1.99467,1.13871 3.14577,4.22813 3.14577,4.22813c0,0 0.23964,-2.10482 1.32501,-1.33522c1.5621,1.10763 0.37794,2.63823 0.37794,2.63823c0,0 0.9901,-1.80735 1.68503,-1.03805c0.86012,0.95216 -0.41492,3.09566 -0.41492,3.09566l2.25003,-1.30724c0,0 1.1092,5.23659 -2.64449,12.66389c-0.94983,1.8794 -4.43819,4.55979 -4.43819,4.55979c0,0 1.67186,1.39012 0.06508,1.93782c-2.56898,1.07965 -6.52146,0.26133 -7.81342,0.26133z" fill="#000000"/></g></g></g></svg>