<svg version="1.1" xmlns="http://www.w3.org/2000/svg" xmlns:xlink="http://www.w3.org/1999/xlink" width="521.57657" height="514.47806" viewBox="0,0,521.57657,514.47806"><g transform="translate(-99.28587,-40.89731)"><g data-paper-data="{&quot;isPaintingLayer&quot;:true}" fill-rule="nonzero" stroke-linecap="butt" stroke-linejoin="miter" stroke-miterlimit="10" stroke-dasharray="" stroke-dashoffset="0" style="mix-blend-mode: normal"><path d="M376.06982,178.69745v-43.54354h46.54655v43.54354z" fill="none" stroke="#ff0000" stroke-width="0"/><path d="M143.33709,474.49324v-370.87087h174.17418v370.87087z" fill-opacity="0.00806" fill="#000000" stroke="#ff0000" stroke-width="0"/><g data-paper-data="{&quot;index&quot;:null}" stroke="#000000" stroke-width="0"><path d="M140.97604,137.62423v-74.12784h437.00842v74.12784z" fill="#afae9f"/><path d="M140.97604,77.49641v-35h437.00842v35z" fill="#cccbba"/></g><path d="M576.76334,418.20575v-192.62376l44.0991,0.304v192.31975z" data-paper-data="{&quot;index&quot;:null}" fill="#cccbba" stroke="#000000" stroke-width="0"/><path d="M99.28587,455.27407v-414.37676l44.0991,0.65397v413.72277z" data-paper-data="{&quot;index&quot;:null}" fill="#cccbba" stroke="#000000" stroke-width="0"/><g><path d="M484.34828,123.36723c-0.30744,41.62257 -10.46111,25.67135 -23.36554,25.67135c-12.90443,0 -27.97716,23.02237 -23.36554,-25.97879c1.10571,-11.74885 10.46111,-16.75555 23.36554,-16.75555c12.90443,0 23.4527,5.26255 23.36554,17.06299z" fill="#373e84" stroke="#ff0000" stroke-width="0"/><path d="M532.92404,144.78513c-2.8177,0 -2.8177,-2.8177 -2.8177,-2.8177l0.0671,-0.61852c-0.3718,-1.71753 -0.947,-3.39862 -1.66889,-5.00081c0,0 -1.14438,-2.57485 1.43047,-3.71922c2.57485,-1.14438 3.71922,1.43047 3.71922,1.43047c0.85745,1.95148 1.54865,3.98839 2.0204,6.06708l0.0671,1.84101c0,0 0,2.8177 -2.8177,2.8177z" fill="#000000" stroke="none" stroke-width="0.5"/><path d="M408.31951,225.83598v-86.87587h128.39179v86.87587z" fill="#6b78ff" stroke="#ff0000" stroke-width="0"/><path d="M408.31951,181.24482v-42.28471h128.39179v42.28471z" fill="#ffffff" stroke="#ff0000" stroke-width="0"/><g stroke="#563a16" stroke-width="0"><g data-paper-data="{&quot;index&quot;:null}"><path d="M509.6247,193.45229v41.9576l-2.91222,-3.45152v-38.50608z" data-paper-data="{&quot;index&quot;:null}" fill="#d82020"/><path d="M512.48714,204.59864v27.23528l-2.91222,3.45152v-35.65921z" fill="#ff2727"/></g><g data-paper-data="{&quot;index&quot;:null}"><path d="M477.69796,198.80683v41.9576l-2.91222,-3.45152v-38.50608z" data-paper-data="{&quot;index&quot;:null}" fill="#d82020"/><path d="M480.56036,198.68238v38.50608l-2.91222,3.45152v-41.9576z" fill="#ff2727"/></g><g><path d="M474.58035,201.00042l-0.19486,-2.93055l49.66428,20.58542l-0.18418,2.38763l-32.68463,7.79408z" fill="#ff2727"/><path d="M474.73975,198.34748l32.33678,-7.84217l16.94846,27.88465l-32.68463,7.79408z" fill="#d82020"/></g><g data-paper-data="{&quot;index&quot;:null}"><path d="M522.23831,208.76885v41.9576l-2.91222,-3.45152v-38.50608z" data-paper-data="{&quot;index&quot;:null}" fill="#d82020"/><path d="M525.10078,208.64438v38.50608l-2.91222,3.45152v-41.9576z" fill="#ff2727"/></g><g data-paper-data="{&quot;index&quot;:null}"><path d="M490.31157,214.12338v41.9576l-2.91222,-3.45152v-38.50608z" data-paper-data="{&quot;index&quot;:null}" fill="#d82020"/><path d="M493.17398,213.99894v38.50608l-2.91222,3.45152v-41.9576z" fill="#ff2727"/></g><g><path d="M519.43742,219.43941v-38.50608l2.91222,1.0786v37.42747z" data-paper-data="{&quot;index&quot;:null}" fill="#ff2727"/><path d="M522.29985,219.56389v-37.42747l2.91222,-1.0786v38.50608z" fill="#ff2727"/><path d="M487.349,229.82094v-38.50608l2.91222,1.0786v37.42747z" data-paper-data="{&quot;index&quot;:null}" fill="#d82020"/><path d="M490.21144,229.94543v-37.42747l2.91222,-1.0786v38.50608z" fill="#ff2727"/><path d="M489.94179,198.20755v-5.82444l35.27028,-11.32532v5.82444z" fill="#ff2727"/><path d="M491.01676,213.44615v-5.82444l35.27028,-11.32532v5.82444z" fill="#ff2727"/><path d="M489.99304,192.44398l-2.73799,-0.87118l31.86023,-10.57859l6.09825,0.2489z" fill="#d82020"/><path d="M489.6991,230.51166v-5.82444l35.27028,-11.32532v5.82444z" fill="#ff2727"/></g></g><g data-paper-data="{&quot;index&quot;:null}" stroke="#563a16" stroke-width="0"><g data-paper-data="{&quot;index&quot;:null}"><path d="M423.24992,203.59476v38.50608l-2.91222,3.45152v-41.9576z" data-paper-data="{&quot;index&quot;:null}" fill="#50c758"/><path d="M420.38749,209.7687v35.65921l-2.91222,-3.45152v-27.23528z" fill="#5de866"/></g><g data-paper-data="{&quot;index&quot;:null}"><path d="M455.17666,208.9493v38.50608l-2.91222,3.45152v-41.9576z" data-paper-data="{&quot;index&quot;:null}" fill="#50c758"/><path d="M452.31423,208.82485v41.9576l-2.91222,-3.45152v-38.50608z" fill="#5de866"/></g><g><path d="M438.78144,238.97947l-32.68463,-7.79408l-0.18418,-2.38763l49.66428,-20.58542l-0.19486,2.93055z" fill="#5de866"/><path d="M438.62204,236.32651l-32.68463,-7.79408l16.94846,-27.88465l32.33678,7.84217z" fill="#50c758"/></g><g data-paper-data="{&quot;index&quot;:null}"><path d="M410.63628,218.91131v38.50608l-2.91222,3.45152v-41.9576z" data-paper-data="{&quot;index&quot;:null}" fill="#50c758"/><path d="M407.77384,218.78685v41.9576l-2.91222,-3.45152v-38.50608z" fill="#5de866"/></g><g data-paper-data="{&quot;index&quot;:null}"><path d="M442.56306,224.26585v38.50608l-2.91222,3.45152v-41.9576z" data-paper-data="{&quot;index&quot;:null}" fill="#50c758"/><path d="M439.70062,224.1414v41.9576l-2.91222,-3.45152v-38.50608z" fill="#5de866"/></g><g><path d="M407.61277,229.58188v-37.42747l2.91222,-1.0786v38.50608z" data-paper-data="{&quot;index&quot;:null}" fill="#50c758"/><path d="M404.75033,229.70636v-38.50608l2.91222,1.0786v37.42747z" fill="#5de866"/><path d="M439.70117,239.96341v-37.42747l2.91222,-1.0786v38.50608z" data-paper-data="{&quot;index&quot;:null}" fill="#50c758"/><path d="M436.83872,240.0879v-38.50608l2.91222,1.0786v37.42747z" fill="#5de866"/><path d="M404.75033,197.02471v-5.82444l35.27028,11.32532v5.82444z" fill="#5de866"/><path d="M403.67536,212.2633v-5.82444l35.27028,11.32532v5.82444z" fill="#5de866"/><path d="M404.74886,191.38559l6.09825,-0.2489l31.86023,10.57859l-2.73799,0.87118z" fill="#5de866"/><path d="M404.99303,229.32881v-5.82444l35.27028,11.32532v5.82444z" fill="#5de866"/></g></g><path d="M531.79482,135.65193c-2.29286,1.63775 -3.93061,-0.6551 -3.93061,-0.6551l0.75565,-0.97214c-0.80142,-0.05834 -1.62112,-0.35491 -2.40426,-0.17502c-1.58655,0.36443 -1.73643,2.75877 -2.48207,4.20583c-1.61483,3.13387 -3.05271,6.82148 -5.17973,9.62898c-3.53424,4.66492 -8.88279,5.15585 -14.24887,5.69503c0,0 -2.80372,0.28037 -3.08409,-2.52334c-0.28037,-2.80372 2.52334,-3.08409 2.52334,-3.08409c2.95782,-0.29428 6.23342,-0.26865 8.82099,-1.97175c5.80837,-3.823 4.63186,-14.56882 11.69525,-17.23601c1.36055,-0.51376 2.9063,-0.11668 4.35945,-0.17502l3.83006,3.33203c0,0 1.63775,2.29286 -0.6551,3.93061z" fill="#000000" stroke="none" stroke-width="0.5"/><g data-paper-data="{&quot;index&quot;:null}" stroke="#33943a" stroke-width="0"><path d="M478.35205,151.82345l1.54091,-7.26427l34.24585,7.26427l-1.54091,7.26427z" fill="#4c4c4c"/><path d="M475.77114,144.43947l0.79563,-25.76737l41.37288,9.29978l0.51949,22.97706l-6.88455,3.58594z" data-paper-data="{&quot;index&quot;:null}" fill="#b2b2b2"/><path d="M476.03635,143.90551v-24.9682l35.80346,10.36415v24.9682z" data-paper-data="{&quot;index&quot;:null}" fill="#e5e5e5"/><g><path d="M475.24071,157.96523l0.79563,-10.65035l41.37288,9.29978l0.51949,7.86004l-6.88455,3.58594z" data-paper-data="{&quot;index&quot;:null}" fill="#b2b2b2"/><path d="M475.50592,157.43126v-9.85119l35.80346,10.36415v9.85119z" data-paper-data="{&quot;index&quot;:null}" fill="#e5e5e5"/></g><path d="M479.74929,142.71556v-20.89931l28.37755,8.67519v20.89931z" data-paper-data="{&quot;index&quot;:null}" fill="#4c4c4c"/></g></g><g data-paper-data="{&quot;index&quot;:null}" stroke-width="0"><path d="M327.81021,162.5724l0.102,-14.58459l62.36009,-0.49249l-0.31546,15.07713l-31.07331,31.07331z" fill="#aa7d24" stroke="none"/><path d="M328.41383,147.48166l31.07331,-31.07331l31.07331,31.07331l-31.07331,31.07331z" fill="#c5922a" stroke="none"/><path d="M372.04226,166.2463l-31.31573,-31.31573l6.18905,-6.18907l31.2005,31.20051l-0.10559,14.41447l-6.07382,6.30429z" fill="#ab8974" stroke="#9e7c36"/><path d="M372.04226,166.47679l6.07382,-6.3043l-0.10559,14.41448l-6.07382,6.30429z" fill="#a1816d" stroke="#9e7c36"/></g><path d="M117.87803,555.37538v-480.48048h487.98799v480.48048z" fill="#ff0000" stroke="#ffffff" stroke-width="0"/></g></g></svg>