<svg version="1.1" xmlns="http://www.w3.org/2000/svg" xmlns:xlink="http://www.w3.org/1999/xlink" width="76.3531" height="127.90865" viewBox="0,0,76.3531,127.90865"><g transform="translate(-207.8125,-121.81491)"><g data-paper-data="{&quot;isPaintingLayer&quot;:true}" fill-rule="nonzero" stroke-width="0" stroke-linecap="butt" stroke-linejoin="miter" stroke-miterlimit="10" stroke-dasharray="" stroke-dashoffset="0" style="mix-blend-mode: normal"><path d="M207.8125,249.72357v-116.37019h64.375v116.37019z" fill="#411010" stroke="#ff0000"/><path d="M207.8125,238.1851v-116.37019h64.375v116.37019z" fill="#5c1717" stroke="#ff0000"/><path d="M212.93949,232.18277v-103.16506h54.05849v103.16506z" fill="#7f2020" stroke="none"/><path d="M210.44508,189.51705v-10.9375h59.0625v10.9375z" fill="#5c1717" stroke="#ff0000"/><path d="M225.44508,154.51705c0,-7.59392 6.15608,-13.75 13.75,-13.75c7.59392,0 13.75,6.15608 13.75,13.75c0,7.59392 -6.15608,13.75 -13.75,13.75c-7.59392,0 -13.75,-6.15608 -13.75,-13.75z" fill="#5c1717" stroke="#ff0000"/><path d="M225.44508,211.07955c0,-7.59392 6.15608,-13.75 13.75,-13.75c7.59392,0 13.75,6.15608 13.75,13.75c0,7.59392 -6.15608,13.75 -13.75,13.75c-7.59392,0 -13.75,-6.15608 -13.75,-13.75z" fill="#5c1717" stroke="#ff0000"/><path d="M212.63258,184.82955v-0.9375h54.6875v0.9375z" fill="#7f2020" stroke="#ff0000"/><path d="M210.13258,236.39205v-112.5h1.875v112.5z" fill="#676767" stroke="none"/><path d="M210.44508,124.51705v-1.5625h58.4375v1.5625z" fill="#676767" stroke="none"/><path d="M210.44508,236.70455v-1.5625h58.4375v1.5625z" fill="#676767" stroke="none"/><path d="M282.25564,151.73854l-15.84359,-28.37658l1.90996,-1.0664l15.84359,28.37658z" fill="#676767" stroke="none"/><path d="M284.1656,207.73695l-15.84359,28.37658l-1.90996,-1.0664l15.84359,-28.37658z" data-paper-data="{&quot;index&quot;:null}" fill="#676767" stroke="none"/></g></g></svg>