<svg version="1.1" xmlns="http://www.w3.org/2000/svg" xmlns:xlink="http://www.w3.org/1999/xlink" width="70.16667" height="70.16667" viewBox="0,0,70.16667,70.16667"><defs><linearGradient x1="238.31194" y1="183.82279" x2="239.71639" y2="182.20381" gradientUnits="userSpaceOnUse" id="color-1"><stop offset="0" stop-color="#fc9950"/><stop offset="1" stop-color="#fc9950" stop-opacity="0"/></linearGradient><linearGradient x1="240.36955" y1="176.16656" x2="242.00003" y2="180.88431" gradientUnits="userSpaceOnUse" id="color-2"><stop offset="0" stop-color="#52e6ff"/><stop offset="1" stop-color="#52e6ff" stop-opacity="0"/></linearGradient><linearGradient x1="240.78408" y1="177.36599" x2="242.30402" y2="181.76389" gradientUnits="userSpaceOnUse" id="color-3"><stop offset="0" stop-color="#a0ff52" stop-opacity="0"/><stop offset="1" stop-color="#a0ff52"/></linearGradient><linearGradient x1="236.45766" y1="180.70179" x2="241.35835" y2="181.64982" gradientUnits="userSpaceOnUse" id="color-4"><stop offset="0" stop-color="#ff5252"/><stop offset="1" stop-color="#ff5252" stop-opacity="0"/></linearGradient><linearGradient x1="237.7036" y1="180.94281" x2="242.27204" y2="181.82657" gradientUnits="userSpaceOnUse" id="color-5"><stop offset="0" stop-color="#ffb652" stop-opacity="0"/><stop offset="1" stop-color="#ffb652"/></linearGradient><linearGradient x1="235.8447" y1="182.57847" x2="237.0274" y2="181.21512" gradientUnits="userSpaceOnUse" id="color-6"><stop offset="0" stop-color="#ff5353"/><stop offset="1" stop-color="#ff5353" stop-opacity="0"/></linearGradient><linearGradient x1="237.14723" y1="183.18574" x2="238.55169" y2="181.56677" gradientUnits="userSpaceOnUse" id="color-7"><stop offset="0" stop-color="#ff6f51"/><stop offset="1" stop-color="#ff6f51" stop-opacity="0"/></linearGradient><linearGradient x1="239.4466" y1="184.88177" x2="241.36849" y2="182.66633" gradientUnits="userSpaceOnUse" id="color-8"><stop offset="0" stop-color="#ffb652"/><stop offset="1" stop-color="#ffb652" stop-opacity="0"/></linearGradient></defs><g transform="translate(-204.91669,-144.9167)"><g data-paper-data="{&quot;isPaintingLayer&quot;:true}" fill-rule="nonzero" stroke-linejoin="miter" stroke-miterlimit="10" stroke-dasharray="" stroke-dashoffset="0" style="mix-blend-mode: normal"><path d="M204.91669,215.08338v-70.16667h70.16667v70.16667z" fill="none" stroke="none" stroke-width="0" stroke-linecap="butt"/><g><path d="M246.67037,177.36451c3.37371,3.7688 2.29004,7.40562 -0.68149,10.06566c-2.97154,2.66004 -6.61573,3.96463 -9.98946,0.19585c-3.37371,-3.7688 -5.19938,-11.18379 -2.22784,-13.84382c2.97154,-2.66004 9.52507,-0.18647 12.89878,3.58233z" fill="#000000" stroke="#ff0000" stroke-width="0" stroke-linecap="butt"/><path d="M237.70887,187.08764c-0.50856,-0.56811 -0.46028,-1.44093 0.10784,-1.94947c0.56811,-0.50856 1.44091,-0.46028 1.94947,0.10784c0.50856,0.56811 0.46028,1.44091 -0.10784,1.94947c-0.56811,0.50856 -1.44093,0.46028 -1.94948,-0.10783z" fill="#1c1c1c" stroke="none" stroke-width="0" stroke-linecap="butt"/><path d="M241.38744,189.85433l-1.32596,0.08521c0,0 0.13007,-4.02054 1.53347,-6.67083c0.64426,-1.21668 2.84158,-1.23929 3.1321,-2.06231c0.56618,-1.60396 0.34807,-5.47041 0.34807,-5.47041c0,0 1.18026,1.14344 1.66639,1.70681c0.38303,0.44387 1.01557,1.40113 1.01557,1.40113c0,0 -0.81395,2.91868 -1.64746,4.35945c-0.46158,0.79789 -2.34308,0.93656 -3.18024,2.09938c-1.28855,1.78983 -1.54197,4.55155 -1.54197,4.55155z" fill="#1c1c1c" stroke="none" stroke-width="0" stroke-linecap="butt"/><path d="M233.30672,175.90424c-0.17869,-0.1996 -0.16172,-0.50627 0.03789,-0.68495c0.1996,-0.17869 0.50627,-0.16172 0.68495,0.03789c0.17869,0.1996 0.16172,0.50627 -0.03789,0.68495c-0.1996,0.17869 -0.50627,0.16172 -0.68495,-0.03789z" fill="#1c1c1c" stroke="none" stroke-width="0" stroke-linecap="butt"/><path d="M234.54322,175.04774c-0.30239,-0.3378 -0.27369,-0.85676 0.06411,-1.15916c0.3378,-0.30239 0.85676,-0.27369 1.15916,0.06411c0.30239,0.3378 0.27369,0.85676 -0.06411,1.15916c-0.3378,0.30239 -0.85676,0.27369 -1.15916,-0.06411z" fill="#1c1c1c" stroke="none" stroke-width="0" stroke-linecap="butt"/><path d="M245.82089,185.18454c-0.2474,-0.27638 -0.22391,-0.70098 0.05246,-0.94839c0.27638,-0.2474 0.70098,-0.22391 0.94839,0.05246c0.2474,0.27638 0.22391,0.70098 -0.05246,0.94839c-0.27638,0.2474 -0.70098,0.22391 -0.94839,-0.05246z" fill="#1c1c1c" stroke="none" stroke-width="0" stroke-linecap="butt"/><g fill="none" stroke-linecap="round"><path d="M237.57275,184.67488l2.14364,-2.47107" stroke="url(#color-1)" stroke-width="1"/><g data-paper-data="{&quot;index&quot;:null}" stroke-width="2.5"><path d="M240.36956,176.16656l1.63048,4.71774" stroke="url(#color-2)"/><path d="M240.78408,177.36599l1.51994,4.3979" stroke="url(#color-3)"/></g><g stroke-width="2.5"><path d="M241.35835,181.64982l-4.9007,-0.94803" stroke="url(#color-4)"/><path d="M242.27204,181.82657l-4.56845,-0.88376" stroke="url(#color-5)"/></g><path d="M237.0274,181.21512l-2.06973,2.38586" stroke="url(#color-6)" stroke-width="1"/><path d="M238.55169,181.56677l-1.40446,1.61898" stroke="url(#color-7)" stroke-width="1"/><path d="M239.4466,184.88178l1.92189,-2.21544" stroke="url(#color-8)" stroke-width="1"/></g><path d="M237.45916,178.4653c-0.64983,0.23305 -1.36555,-0.10482 -1.5986,-0.75465c-0.23305,-0.64983 0.10482,-1.36555 0.75465,-1.5986c0.64983,-0.23305 1.36555,0.10482 1.5986,0.75465c0.23305,0.64983 -0.10482,1.36555 -0.75465,1.5986z" fill="#1c1c1c" stroke="none" stroke-width="0.5" stroke-linecap="butt"/></g></g></g></svg>