<svg version="1.1" xmlns="http://www.w3.org/2000/svg" xmlns:xlink="http://www.w3.org/1999/xlink" width="345" height="200" viewBox="0,0,345,200"><defs><linearGradient x1="243.95173" y1="190.55074" x2="243.95173" y2="192.63799" gradientUnits="userSpaceOnUse" id="color-1"><stop offset="0" stop-color="#edafbc"/><stop offset="1" stop-color="#d29ca8"/></linearGradient><linearGradient x1="260.73744" y1="185.72931" x2="260.73744" y2="187.81657" gradientUnits="userSpaceOnUse" id="color-2"><stop offset="0" stop-color="#edafbc"/><stop offset="1" stop-color="#d29ca8"/></linearGradient><linearGradient x1="204.74392" y1="177.46754" x2="235.19531" y2="177.46754" gradientUnits="userSpaceOnUse" id="color-3"><stop offset="0" stop-color="#edafbc"/><stop offset="1" stop-color="#ca96a1"/></linearGradient></defs><g transform="translate(-67.5,-80)"><g data-paper-data="{&quot;isPaintingLayer&quot;:true}" fill-rule="nonzero" stroke-linecap="butt" stroke-linejoin="miter" stroke-miterlimit="10" stroke-dasharray="" stroke-dashoffset="0" style="mix-blend-mode: normal"><path d="M284.46326,173.14116c-0.10896,1.04738 2.33433,7.32778 1.34045,8.87098c-2.15355,3.34385 -8.73023,2.15116 -9.81585,2.06547c-1.58663,-0.12524 -2.59311,-2.9156 -2.24805,-6.23245c0.34506,-3.31685 1.91101,-5.90417 3.49764,-5.77893c1.58663,0.12524 7.57087,-2.24192 7.22581,1.07493z" fill="#906bc7" stroke="#ffffff" stroke-width="0"/><g stroke-width="0"><g fill="#ffd726"><path d="M243.28381,200.8052v-9.39281h2.0479v9.39281z" stroke="#ff0000"/><path d="M253.52332,202.43088c0,0.45889 -2.09917,-0.6864 -4.68861,-0.6864c-2.58945,0 -4.68861,-0.15525 -4.68861,-0.61415c0,-0.45889 2.09917,-0.8309 4.68861,-0.8309c2.58945,0 4.68861,1.67255 4.68861,2.13144z" stroke="#ff0000"/><path d="M245.87063,201.02196c0,0.47885 -2.06218,0.50577 -4.47304,0.50577c-2.41087,0 -4.1497,1.12912 -4.1497,0.65027c0,-0.47885 1.84661,-2.02306 4.25748,-2.02306c2.41087,0 4.36526,0.38818 4.36526,0.86703z" stroke="none"/><path d="M243.28023,202.16712c-1.96066,0.83336 -3.0859,2.29669 -3.46842,1.89228c-0.38252,-0.4044 0.6327,-2.13032 2.59336,-2.96369c1.96066,-0.83336 4.12431,-0.4586 4.50682,-0.05419c0.38252,0.4044 -1.6711,0.29223 -3.63176,1.1256z" stroke="none"/></g><path d="M241.81458,192.26642l-4.61235,-1.82084c0,0 5.7355,0.10516 6.37492,0.10516c0.76331,0 8.9361,-0.58367 8.9361,-0.58367l-6.42435,2.29934l-0.80799,-0.23072l-0.76065,0.59892l-0.90878,-0.59362l-0.72724,0.59701z" fill="url(#color-1)" stroke="#ff0000"/></g><g stroke-width="0"><g fill="#ffd726"><path d="M260.06952,195.98377v-9.39281h2.0479v9.39281z" stroke="#ff0000"/><path d="M270.30903,197.60946c0,0.45889 -2.09917,-0.6864 -4.68861,-0.6864c-2.58945,0 -4.68861,-0.15525 -4.68861,-0.61415c0,-0.45889 2.09917,-0.8309 4.68861,-0.8309c2.58945,0 4.68861,1.67255 4.68861,2.13144z" stroke="#ff0000"/><path d="M262.65634,196.20053c0,0.47885 -2.06218,0.50577 -4.47304,0.50577c-2.41087,0 -4.1497,1.12912 -4.1497,0.65027c0,-0.47885 1.84661,-2.02306 4.25748,-2.02306c2.41087,0 4.36526,0.38818 4.36526,0.86703z" stroke="none"/><path d="M260.06594,197.3457c-1.96066,0.83336 -3.0859,2.29669 -3.46842,1.89228c-0.38252,-0.4044 0.6327,-2.13032 2.59336,-2.96369c1.96066,-0.83336 4.12431,-0.4586 4.50682,-0.05419c0.38252,0.4044 -1.6711,0.29223 -3.63176,1.1256z" stroke="none"/></g><path d="M258.60029,187.44499l-4.61235,-1.82084c0,0 5.7355,0.10516 6.37492,0.10516c0.76331,0 8.9361,-0.58367 8.9361,-0.58367l-6.42435,2.29934l-0.80799,-0.23072l-0.76065,0.59892l-0.90878,-0.59362l-0.72724,0.59701z" fill="url(#color-2)" stroke="#ff0000"/></g><g stroke="#000000" stroke-width="0"><path d="M210.05974,180.84581c0.0712,2.31232 -2.91715,4.28062 -6.67466,4.39633c-3.75752,0.11571 -7.76343,-3.7422 -7.76343,-3.7422c0,0 3.74806,-4.51575 7.50558,-4.63145c3.75752,-0.11571 6.86131,1.665 6.93251,3.97732z" fill="#ffd726"/><path d="M210.05329,180.63647c0.06052,1.96547 -2.47957,3.63853 -5.67346,3.73688c-3.19389,0.09835 -6.59892,-3.18086 -6.59892,-3.18086c0,0 3.18585,-3.83839 6.37974,-3.93674c3.19389,-0.09835 5.83211,1.41525 5.89264,3.38072z" fill="#debb21"/><path d="M211.26928,177.441c0.04593,1.49149 0.72478,4.39712 -2.77853,5.86682c-1.51968,0.92665 -3.18515,-0.76397 -5.42486,-0.69501c-4.39705,0.1354 -9.10791,-5.03228 -9.10791,-5.03228c0,0 4.37187,-5.8409 8.76892,-5.9763c1.70614,-0.05254 4.98743,-0.99115 6.37853,-0.29289c2.19402,1.1013 2.10656,4.26928 2.16385,6.12966z" fill="#ffd726"/></g><path d="M279.11892,177.46754c0,9.57869 -13.43146,17.34375 -30,17.34375c-16.56854,0 -30,-7.76506 -30,-17.34375c0,-9.57869 13.43146,-17.34375 30,-17.34375c16.56854,0 30,7.76506 30,17.34375z" fill="#ca96a1" stroke="none" stroke-width="0"/><path d="M235.19531,177.18976c0,2.98156 -2.9111,3.77178 -4.98283,5.9052c-2.66522,2.74459 -6.42186,6.71633 -10.93731,6.71633c-8.02539,0 -14.53125,-5.52649 -14.53125,-12.34375c0,-6.81726 6.50586,-12.34375 14.53125,-12.34375c2.39409,0 5.76407,2.15848 7.75535,3.02965c4.68378,2.04915 8.16479,4.25275 8.16479,9.03632z" fill="url(#color-3)" stroke="#000000" stroke-width="0"/><path d="M274.04751,192.16011c0,0 -20.32364,5.7708 -32.21031,5.51326c-6.57674,-0.14249 -2.76762,-2.92069 -6.76146,-4.39209c-3.22456,-1.18798 -7.14137,-1.52651 -7.11221,-2.8725c0.06528,-3.0131 10.01567,-4.4884 21.90234,-4.23086c11.88667,0.25754 24.18164,5.98219 24.18164,5.98219z" fill="#906bc7" stroke="#000000" stroke-width="0"/><path d="M249.03254,167.37517c-11.88667,0.25754 -21.83705,-1.21776 -21.90234,-4.23086c-0.02917,-1.34599 3.88765,-1.68452 7.1122,-2.8725c3.99384,-1.4714 0.18472,-4.24959 6.76146,-4.39209c11.88667,-0.25754 32.21032,5.51325 32.21032,5.51325c0,0 -12.29497,5.72466 -24.18165,5.9822z" data-paper-data="{&quot;index&quot;:null}" fill="#906bc7" stroke="#000000" stroke-width="0"/><path d="M215.92194,168.30675c0.0714,1.80654 -1.79402,3.41619 -4.16656,3.59524c-2.37255,0.17904 -4.35376,-1.1403 -4.42514,-2.94684c-0.07142,-1.80654 1.79403,-3.41615 4.16657,-3.5952c2.37252,-0.17904 4.35373,1.1403 4.42515,2.94684z" data-paper-data="{&quot;index&quot;:null}" fill="#000000" stroke="#ffffff" stroke-width="0.25"/><path d="M215.24014,186.68242c-0.07142,1.80654 -2.05263,3.12588 -4.42515,2.94684c-2.37254,-0.17905 -4.23799,-1.78867 -4.16657,-3.5952c0.07138,-1.80654 2.0526,-3.12588 4.42514,-2.94684c2.37254,0.17905 4.23796,1.7887 4.16656,3.59524z" data-paper-data="{&quot;index&quot;:null}" fill="#000000" stroke="#ffffff" stroke-width="0.25"/><path d="M209.69973,175.92673v-0.60976h2.29227v0.60976z" fill="#000000" stroke="#ffffff" stroke-width="0"/><path d="M209.75437,177.16498l0.23088,-0.56436l2.1216,0.86794l-0.23088,0.56436z" fill="#000000" stroke="#ffffff" stroke-width="0"/><path d="M211.70648,173.12604l0.23088,0.56435l-2.1216,0.86794l-0.23087,-0.56436z" data-paper-data="{&quot;index&quot;:null}" fill="#000000" stroke="#ffffff" stroke-width="0"/><path d="M67.5,280v-200h345v200z" fill="none" stroke="#ffffff" stroke-width="0"/></g></g></svg>