<svg version="1.1" xmlns="http://www.w3.org/2000/svg" xmlns:xlink="http://www.w3.org/1999/xlink" width="306.81381" height="413.29129" viewBox="0,0,306.81381,413.29129"><g transform="translate(-136.64717,94.90098)"><g data-paper-data="{&quot;isPaintingLayer&quot;:true}" fill-rule="nonzero" stroke-width="0" stroke-linecap="butt" stroke-linejoin="miter" stroke-miterlimit="10" stroke-dasharray="" stroke-dashoffset="0" style="mix-blend-mode: normal"><g stroke="#000000"><path d="M136.64718,33.09902v-107h306.81381l-2,101z" fill="#afae9f"/><path d="M136.64718,-59.90097v-35h306.81381v35z" fill="#cccbba"/></g><g><path d="M306.91095,-12.48629l1.75815,-7.73207l3.07655,7.57924z" fill="#000000" stroke="#33943a"/><path d="M298.40957,-12.57167l1.75815,-7.73207l3.07655,7.57924z" fill="#000000" stroke="#33943a"/><g stroke="#000000"><g><path d="M252.20108,-5.95474c0.98757,2.65469 2.47208,7.16649 -2.75495,13.18747c-2.01412,2.32005 -6.26796,3.04804 -5.0272,5.4711c0.27983,0.54649 8.87546,7.26186 12.71024,10.87712c3.94588,3.72001 5.54536,6.46186 6.38474,8.60596c-0.69804,-0.06407 -15.29777,0.01716 -17.33259,-0.10335c-1.19049,-3.43195 -2.97278,-8.0302 -3.96999,-8.00985c-1.15708,0.02361 -2.04262,4.44506 -2.54533,7.77015c-0.87698,-0.00556 -1.74879,0.0027 -2.61355,0.0282c-7.51858,0.2217 -15.03622,0.47407 -22.55404,0.72075c-0.38228,-2.53071 -0.9117,-5.33382 -1.39061,-5.41603c-1.0646,0.0569 -2.01801,3.02076 -2.63914,5.5475c-4.21765,0.13659 -8.43542,0.26934 -12.6535,0.39182c1.2455,-3.54779 4.01681,-8.325 7.20707,-11.75273c6.07789,-6.5303 13.14127,-8.88606 10.95452,-11.57583c-2.85401,-3.51053 -3.66529,-6.98667 -3.78582,-10.79965c-0.30006,-9.49249 4.2431,-15.15988 15.98609,-15.53108c11.74299,-0.3712 20.37852,0.78883 24.02406,10.58846z" fill="#000000"/><path d="M251.33744,-5.32861c0.94923,2.55164 2.63696,5.2052 -2.38718,10.99246c-1.93594,2.22999 -6.8931,5.26011 -5.7005,7.5891c0.26897,0.52527 8.63221,6.87209 12.31812,10.34701c4.30105,4.05486 6.41383,7.01902 7.15569,8.6277c-0.4891,-0.04928 -13.55175,0.04438 -15.33939,-0.06991c-1.39329,-3.43317 -4.05218,-9.60378 -5.15561,-9.58126c-1.22882,0.02508 -2.66942,5.72424 -3.4466,9.26655c-0.10132,0.00048 -17.59982,0.53017 -23.62023,0.72795c-0.46984,-2.94615 -1.21114,-6.99806 -1.74687,-7.09002c-1.17859,0.06299 -2.65351,4.34634 -3.52278,7.26192c-3.65213,0.11796 -7.30436,0.23282 -10.9568,0.34041c1.12849,-3.12025 3.89747,-7.57267 7.09103,-11.00394c5.84196,-6.27681 13.01639,-9.60009 10.91453,-12.18545c-2.74323,-3.37427 -3.85327,-7.22842 -3.96912,-10.89339c-0.28842,-9.12401 3.98705,-14.14981 15.27421,-14.5066c11.28716,-0.35679 19.58747,0.75821 23.09151,10.17745z" fill="#0ac00a"/></g><g><path d="M228.05123,-5.3122c-0.80142,2.59382 -3.38274,4.22363 -5.76555,3.64028c-2.3828,-0.58335 -3.66476,-3.15897 -2.86334,-5.75279c0.80142,-2.59382 3.38274,-4.22363 5.76555,-3.64028c2.3828,0.58335 3.66476,3.15897 2.86334,5.75279z" fill="#000000"/><path d="M227.28043,-5.5009c-0.65825,2.13043 -2.7784,3.46907 -4.7355,2.98993c-1.9571,-0.47913 -3.01003,-2.59461 -2.3518,-4.72503c0.65825,-2.13043 2.7784,-3.46907 4.7355,-2.98993c1.9571,0.47913 3.01003,2.59461 2.3518,4.72503z" fill="#ffffff"/><path d="M227.36465,-4.7512c-0.4912,1.5898 -2.07334,2.58873 -3.53379,2.23119c-1.46046,-0.35755 -2.2462,-1.93618 -1.75498,-3.52598c0.4912,-1.5898 2.07334,-2.58874 3.5338,-2.23119c1.46046,0.35755 2.24619,1.93618 1.75498,3.52598z" fill="#000000"/></g><g><path d="M243.48172,-5.01584c-0.80142,2.59382 -3.38274,4.22363 -5.76554,3.64028c-2.3828,-0.58335 -3.66476,-3.15897 -2.86334,-5.75279c0.80142,-2.59382 3.38274,-4.22363 5.76554,-3.64028c2.3828,0.58335 3.66476,3.15897 2.86334,5.75279z" fill="#000000"/><path d="M242.71093,-5.20455c-0.65825,2.13043 -2.7784,3.46907 -4.7355,2.98993c-1.9571,-0.47913 -3.01003,-2.59461 -2.3518,-4.72503c0.65825,-2.13043 2.7784,-3.46907 4.7355,-2.98993c1.9571,0.47913 3.01003,2.59461 2.3518,4.72503z" fill="#ffffff"/><path d="M242.79514,-4.45485c-0.4912,1.5898 -2.07334,2.58873 -3.53379,2.23119c-1.46046,-0.35755 -2.24619,-1.93618 -1.75498,-3.52598c0.4912,-1.5898 2.07334,-2.58874 3.53379,-2.23119c1.46046,0.35755 2.24619,1.93618 1.75498,3.52598z" fill="#000000"/></g><g><g><path d="M218.14585,1.68459c0,0 7.73798,-0.51225 11.8956,-0.43694c4.56508,0.08269 14.38698,0.91301 14.38698,0.91301c0,0 0.82616,3.50426 -2.42665,4.75434c-1.77988,0.68402 -6.82831,2.466 -12.25943,2.45267c0,0 -4.59238,0.13707 -8.26817,-2.67017c-2.30342,-1.75915 -3.32834,-5.0129 -3.32834,-5.0129z" fill="#000000"/><path d="M235.9132,1.84545c0,0 -0.29971,1.91113 -1.31676,1.7068c-1.15002,-0.23104 -1.11526,-1.97726 -1.11526,-1.97726c0,0 0.5956,0.06215 1.25089,0.08647c0.6553,0.02431 1.18113,0.18399 1.18113,0.18399z" fill="#ffffff"/><path d="M238.71912,2.06787c0,0 -0.39326,1.89448 -1.39904,1.6414c-1.13726,-0.28617 -1.01673,-2.0287 -1.01673,-2.0287c0,0 0.59182,0.09077 1.24512,0.14662c0.6533,0.05585 1.17065,0.24068 1.17065,0.24068z" fill="#ffffff"/><path d="M241.47896,2.29706c0,0 -0.44474,1.88332 -1.44324,1.60345c-1.12903,-0.31646 -0.96105,-2.05516 -0.96105,-2.05516c0,0 0.58913,0.10655 1.24065,0.17984c0.65153,0.07329 1.16364,0.27187 1.16364,0.27187z" fill="#ffffff"/><path d="M243.98984,2.50264c0,0 -0.1652,1.92702 -1.19416,1.79299c-1.16347,-0.15155 -1.25105,-1.89587 -1.25105,-1.89587c0,0 0.59854,0.02112 1.25399,0.0004c0.65545,-0.02072 1.19121,0.10248 1.19121,0.10248z" fill="#ffffff"/><path d="M233.10418,1.81867c0,0 -0.1652,1.92702 -1.19416,1.79299c-1.16347,-0.15155 -1.25105,-1.89587 -1.25105,-1.89587c0,0 0.59854,0.02112 1.25399,0.0004c0.65545,-0.02072 1.19122,0.10249 1.19122,0.10249z" fill="#ffffff"/><path d="M230.19974,1.72378c0,0 -0.1652,1.92702 -1.19416,1.79299c-1.16347,-0.15155 -1.25105,-1.89587 -1.25105,-1.89587c0,0 0.59854,0.02112 1.25399,0.0004c0.65545,-0.02072 1.19121,0.10248 1.19121,0.10248z" fill="#ffffff"/><path d="M227.56345,1.83948c0,0 -0.1652,1.92702 -1.19416,1.79299c-1.16347,-0.15155 -1.25105,-1.89587 -1.25105,-1.89587c0,0 0.59854,0.02112 1.25399,0.0004c0.65545,-0.02072 1.19121,0.10248 1.19121,0.10248z" fill="#ffffff"/><path d="M224.94417,1.74171c0,0 -0.07327,1.93252 -1.1075,1.84667c-1.16943,-0.09707 -1.33996,-1.83531 -1.33996,-1.83531c0,0 0.5989,-0.00684 1.25265,-0.05813c0.65375,-0.05129 1.19481,0.04677 1.19481,0.04677z" fill="#ffffff"/><path d="M222.30917,1.89894c0,0 -0.08283,2.18461 -1.25197,2.08757c-1.32198,-0.10974 -1.51476,-2.07473 -1.51476,-2.07473c0,0 0.67702,-0.00773 1.41606,-0.06571c0.73903,-0.05798 1.35067,0.05287 1.35067,0.05287z" fill="#ffffff"/><path d="M218.48208,2.17527l-0.2264,-0.48075c0,0 7.89192,-0.41378 12.08876,-0.33732c4.52104,0.08238 14.04384,0.88036 14.04384,0.88036l-0.051,0.375c0,0 -9.42739,-1.0433 -13.91583,-0.85863c-4.19665,0.17266 -11.93937,0.42134 -11.93937,0.42134z" fill="#000000"/></g><path d="M230.61831,9.02648c-0.74121,-0.01119 -1.41738,0.02386 -1.41738,0.02386c0,0 0.06829,-1.97325 1.3807,-2.16626c1.16067,-0.17069 1.38131,2.00433 1.38131,2.00433c0,0 -0.60341,0.14926 -1.34463,0.13807z" data-paper-data="{&quot;index&quot;:null}" fill="#ffffff"/><path d="M233.4525,8.79154c-0.69132,0.06905 -1.31701,0.17415 -1.31701,0.17415c0,0 -0.15221,-1.8442 1.04857,-2.16456c1.06195,-0.28332 1.50523,1.71773 1.50523,1.71773c0,0 -0.54548,0.20363 -1.23679,0.27268z" data-paper-data="{&quot;index&quot;:null}" fill="#ffffff"/><path d="M226.39322,8.67794c0,0 0.31601,-2.02506 1.39374,-1.80937c1.21862,0.24388 1.18319,2.09401 1.18319,2.09401c0,0 -0.63108,-0.06538 -1.32538,-0.09063c-0.6943,-0.02525 -1.25154,-0.19402 -1.25154,-0.19402z" data-paper-data="{&quot;index&quot;:null}" fill="#ffffff"/><path d="M223.83217,7.6626c0,0 0.83256,-1.87628 1.81753,-1.39276c1.11372,0.54673 0.59776,2.32557 0.59776,2.32557c0,0 -0.59263,-0.22426 -1.25676,-0.42587c-0.66414,-0.20161 -1.15852,-0.50695 -1.15852,-0.50695z" data-paper-data="{&quot;index&quot;:null}" fill="#ffffff"/><path d="M236.1495,8.30896c-0.68385,0.12196 -1.29945,0.27481 -1.29945,0.27481c0,0 -0.29631,-1.82685 0.8758,-2.2385c1.03659,-0.36405 1.6354,1.59681 1.6354,1.59681c0,0 -0.52789,0.24492 -1.21175,0.36687z" data-paper-data="{&quot;index&quot;:null}" fill="#ffffff"/><path d="M221.51492,6.24163c0,0 0.93515,-1.53069 1.73226,-1.00172c0.90131,0.59812 0.2513,2.07999 0.2513,2.07999c0,0 -0.48722,-0.26057 -1.03893,-0.50955c-0.55171,-0.24899 -0.94462,-0.56871 -0.94462,-0.56871z" data-paper-data="{&quot;index&quot;:null}" fill="#ffffff"/><path d="M238.64226,7.5974c-0.58831,0.14618 -1.11532,0.31529 -1.11532,0.31529c0,0 -0.36701,-1.57358 0.62925,-2.00058c0.88108,-0.37763 1.51953,1.29497 1.51953,1.29497c0,0 -0.44515,0.24415 -1.03346,0.39032z" data-paper-data="{&quot;index&quot;:null}" fill="#ffffff"/><path d="M240.98025,6.83567c-0.58831,0.14618 -1.11533,0.31528 -1.11533,0.31528c0,0 -0.36701,-1.57358 0.62925,-2.00058c0.88108,-0.37763 1.51952,1.29497 1.51952,1.29497c0,0 -0.44515,0.24415 -1.03345,0.39033z" data-paper-data="{&quot;index&quot;:null}" fill="#ffffff"/><path d="M219.88152,4.94316l0.17974,-0.47255c0,0 3.45734,4.00567 8.80576,4.35667c4.33242,0.28433 13.86586,-2.91564 13.86586,-2.91564l-0.13659,0.75419c0,0 -2.7211,1.06822 -6.1815,1.83005c-2.60131,0.57269 -5.75882,0.90841 -7.72368,0.84145c-5.0399,-0.17178 -8.80959,-4.39416 -8.80959,-4.39416z" fill="#000000"/></g></g><g><path d="M280.45054,6.55647c0.01683,0.53254 5.01213,1.57247 7.491,5.21458c3.11145,4.57154 3.57235,11.92197 3.51888,12.41973c-0.02546,0.23696 1.30917,2.99645 1.80576,5.31634c0.09842,0.4598 0.14981,0.89108 0.16866,1.30294c-0.4604,0.00341 -0.91751,0.01025 -1.36961,0.02454c-1.31834,0.04167 -2.63669,0.08335 -3.95504,0.12502c-0.21356,-1.1901 -0.37613,-2.12024 -0.54423,-2.3033c-1.56403,-1.70327 -3.23442,-10.78468 -5.12278,-12.15451c-1.72494,-1.25128 0.21544,7.33798 0.70797,15.22511c-2.28793,0.07232 -14.89631,0.22302 -18.84788,0.49399c0.34186,-7.04914 0.53786,-15.67723 -2.38091,-14.23219c-1.62005,0.80206 -1.60089,8.59137 -2.21164,14.03918c-0.04772,-0.0001 -0.09545,-0.00027 -0.14319,-0.00051c-1.59777,-0.00783 -3.34778,-0.05968 -5.0007,-0.00743c0,0 -0.25417,0.00803 -0.45302,0.16681c-0.02603,-0.2589 -0.05425,-0.4149 -0.08654,-0.43781c-0.37563,-0.26641 0.13226,-3.49773 0.50735,-6.65464c0.2187,-1.84068 -0.31267,-3.42519 -0.00569,-5.29808c0.39095,-2.38515 1.44051,-4.28077 2.48946,-5.54398c2.87771,-3.4655 6.27625,-5.41501 6.22773,-6.94986c-0.09913,-3.1361 0.8129,-7.51536 1.12406,-11.39693c0.44387,-5.5371 0.67005,-9.14309 3.25102,-9.22467c1.09172,-0.03451 2.23323,3.75942 3.91928,3.95758c2.18167,0.2564 2.86517,-5.80297 4.18615,-5.14725c2.06424,1.02466 2.97966,5.87387 3.66206,11.23808c0.52413,4.12004 1.0042,8.00362 1.06185,9.82727z" fill="#000000" stroke="#33943a"/><path d="M280.01553,7.03727c0.01578,0.49931 4.69938,1.47435 7.02357,4.88919c2.9173,4.28628 3.60458,11.16998 3.55444,11.63669c-0.02668,0.24831 1.74738,2.9659 1.92031,5.36162c0.04633,0.64188 0.0113,1.27085 -0.05068,1.8991c-0.13304,0.00301 -3.5127,0.10919 -5.07009,0.15842c-0.30453,-1.59009 -0.50094,-3.00072 -0.70613,-3.22417c-1.46644,-1.59698 -3.03259,-10.11173 -4.80312,-11.39608c-1.69535,-1.22982 0.3813,7.66048 0.73039,15.38186c-0.80121,0.02533 -15.45051,0.26905 -17.7925,0.44026c0.34528,-6.76702 0.71015,-15.858 -2.17824,-14.428c-1.63574,0.80983 -1.5201,9.24988 -2.18884,14.26815c-0.29545,0.00343 -4.06887,-0.00722 -5.59674,-0.00876c-0.03122,-0.71132 -0.06771,-1.17478 -0.12311,-1.21407c-0.35219,-0.24979 0.39528,-2.77726 0.74697,-5.73718c0.20506,-1.72582 -0.5604,-3.58611 -0.27257,-5.34214c0.36656,-2.23632 1.85284,-4.28493 2.83634,-5.46931c2.69815,-3.24926 5.88462,-5.07712 5.83913,-6.5162c-0.09295,-2.94042 0.76217,-7.04641 1.05392,-10.68578c0.41617,-5.19159 0.59598,-9.59314 3.0159,-9.66963c1.0236,-0.03236 2.12614,4.5454 3.70698,4.7312c2.04554,0.24041 2.66219,-6.20629 3.90074,-5.5915c1.93543,0.96072 2.81793,6.27277 3.45775,11.30226c0.49142,3.86296 0.94154,7.5042 0.99559,9.21406z" fill="#ffffff" stroke="#33943a"/><g stroke="#000000"><path d="M271.61692,-3.67381c0.26566,1.56063 -0.76705,3.07706 -2.30663,3.38706c-1.53957,0.30999 -3.003,-0.70385 -3.26866,-2.26447c-0.26566,-1.56063 0.76706,-3.07706 2.30663,-3.38706c1.53957,-0.30999 3.003,0.70385 3.26866,2.26447z" fill="#000000"/><path d="M271.11891,-3.57354c0.21819,1.28182 -0.63002,2.52734 -1.89454,2.78195c-1.26452,0.25461 -2.4665,-0.5781 -2.6847,-1.85991c-0.21819,-1.28182 0.63002,-2.52734 1.89454,-2.78195c1.26452,-0.25461 2.4665,0.5781 2.6847,1.85991z" fill="#ffffff"/><path d="M271.37805,-3.20392c0.16283,0.95653 -0.47014,1.88599 -1.41377,2.07599c-0.94363,0.19 -1.84059,-0.4314 -2.00341,-1.38793c-0.16283,-0.95653 0.47014,-1.88599 1.41378,-2.07599c0.94363,-0.19 1.84059,0.4314 2.00341,1.38794z" fill="#000000"/></g><g stroke="#000000"><path d="M278.23693,-3.78422c0.26566,1.56063 -0.76706,3.07707 -2.30663,3.38706c-1.53957,0.30999 -3.003,-0.70385 -3.26866,-2.26447c-0.26566,-1.56063 0.76706,-3.07707 2.30663,-3.38706c1.53957,-0.30999 3.003,0.70385 3.26866,2.26447z" fill="#000000"/><path d="M277.7389,-3.68394c0.21819,1.28182 -0.63002,2.52734 -1.89454,2.78195c-1.26452,0.25461 -2.4665,-0.5781 -2.6847,-1.85991c-0.21819,-1.28182 0.63002,-2.52734 1.89454,-2.78195c1.26452,-0.25461 2.4665,0.5781 2.6847,1.85991z" fill="#ffffff"/><path d="M277.99805,-3.31432c0.16283,0.95653 -0.47014,1.88598 -1.41377,2.07598c-0.94363,0.19 -1.84059,-0.4314 -2.00341,-1.38793c-0.16283,-0.95653 0.47014,-1.88598 1.41377,-2.07598c0.94363,-0.19 1.84059,0.4314 2.00341,1.38793z" fill="#000000"/></g><g stroke="#33943a"><path d="M271.63298,-8.58982c0.44046,-0.95262 1.05136,-2.27387 1.32466,-2.86497c0.26664,-0.57668 1.1321,-0.83938 1.51314,-0.42798c0.71232,0.76908 3.06589,3.31019 3.06589,3.31019c0,0 3.58626,0.18163 4.64836,0.23542c0.55383,0.02805 1.13678,0.33904 0.94603,0.75161c-0.45594,0.98611 -1.27519,2.75797 -1.5896,3.43797c-0.24084,0.52088 -1.07883,0.7118 -1.47241,0.34158c-0.71341,-0.67109 -3.00988,-2.83133 -3.00988,-2.83133c0,0 -3.80995,-0.55502 -4.84698,-0.70609c-0.4901,-0.0714 -0.86738,-0.62316 -0.57922,-1.24639z" fill="#ff9ee9"/><path d="M276.20399,-6.89364l1.00674,-2.17738l1.31789,0.60934l-1.00674,2.17738z" fill="#ff5c92"/></g><path d="M266.54446,2.96844c-0.01684,-0.5327 0.79682,-1.56747 1.90473,-1.34968c1.26447,0.24857 2.86095,0.50703 3.90022,0.47418c1.10872,-0.03505 2.86161,-0.46055 4.12973,-0.80901c0.9056,-0.24885 1.60333,0.78657 1.62017,1.31927c0.01375,0.43494 -0.34759,1.36651 -0.93561,1.61615c-1.26505,0.53707 -3.46954,1.38998 -4.80066,1.43205c-1.3113,0.04145 -3.5653,-0.68738 -4.83682,-1.14327c-0.57132,-0.20484 -0.968,-1.10474 -0.98175,-1.53968z" fill="#000000" stroke="#33943a"/><path d="M267.04254,3.12916c-0.01279,-0.40451 0.73647,-1.19442 1.74869,-1.03445c1.15526,0.18258 2.61413,0.37106 3.56481,0.34101c1.0142,-0.03206 2.61949,-0.36384 3.78102,-0.63473c0.82948,-0.19345 1.46255,0.58954 1.47533,0.99405c0.01044,0.33028 -0.32461,1.03959 -0.86364,1.23208c-1.15965,0.41412 -3.18006,1.07273 -4.3977,1.11122c-1.19952,0.03792 -3.25745,-0.50458 -4.41815,-0.84459c-0.52152,-0.15277 -0.87991,-0.83431 -0.89035,-1.16459z" fill="#ffffff" stroke="#33943a"/></g><path d="M297.6184,-4.16897c0.20984,-3.30878 0.39395,-6.66199 1.06193,-8.84746c0.42148,-1.37902 1.11108,-2.15341 1.88305,-2.59947c0.56881,-0.32867 1.4493,0.66927 2.04959,1.85476c0.7473,1.47582 1.25486,3.23614 2.4533,3.01783c1.17358,-0.21379 1.73458,-2.05707 2.48123,-3.22082c0.31594,-0.49244 0.85567,-0.96613 1.18027,-0.97639c1.07742,-0.03406 2.13786,0.55956 2.65323,1.67574c0.71921,1.55763 0.71212,4.12231 1.17391,7.32518c0.55569,3.85417 1.74249,8.16708 1.84163,11.30318c0.04852,1.53485 3.5634,3.26582 6.65424,6.54266c1.12664,1.19443 2.29382,3.01999 2.83464,5.37568c0.42466,1.84976 -0.00558,3.46467 0.32894,5.28786c0.57373,3.12692 1.28469,6.31971 0.92664,6.60931c-0.03079,0.0249 -0.04909,0.18238 -0.05872,0.4424c-0.20847,-0.1459 -0.46265,-0.13787 -0.46265,-0.13787c-1.65292,0.05225 -3.39616,0.21453 -4.99024,0.32325c-0.04763,0.00325 -0.09525,0.00643 -0.14287,0.00955c-0.9536,-5.39836 -1.42644,-13.17332 -3.09392,-13.87147c-3.00421,-1.25781 -2.26367,7.34068 -1.47728,14.35415c-3.9608,-0.02085 -16.55352,0.62507 -18.84145,0.6974c-0.00659,-7.90249 1.38743,-16.59715 -0.25504,-15.23942c-1.79807,1.48636 -2.89156,10.65515 -4.34489,12.45379c-0.1562,0.19331 -0.25971,1.13186 -0.39767,2.33307c-1.31834,0.04167 -2.63669,0.08335 -3.95504,0.12502c-0.4521,0.01429 -0.90873,0.03633 -1.36842,0.06201c-0.0072,-0.41222 0.01684,-0.84589 0.08603,-1.31099c0.34908,-2.34662 1.50676,-5.1849 1.46638,-5.41978c-0.08481,-0.49339 -0.08906,-7.85825 2.72744,-12.61718c2.24389,-3.7914 7.16353,-5.14474 7.1467,-5.67728c-0.05765,-1.82366 0.17619,-5.7298 0.43905,-9.87472z" fill="#000000" stroke="#33943a"/><path d="M298.05552,-3.10045c0.32089,-5.05986 0.86613,-10.41704 2.73702,-11.49808c1.19725,-0.69179 2.21984,5.70309 4.2461,5.33397c1.56595,-0.28526 2.37717,-4.92352 3.40077,-4.95588c2.41992,-0.0765 2.87736,4.30491 3.62059,9.45985c0.52102,3.61368 1.63376,7.65746 1.72671,10.59788c0.04549,1.43908 3.34105,3.06204 6.23903,6.1344c1.05634,1.1199 2.66904,3.07055 3.17611,5.27925c0.39816,1.73434 -0.24827,3.63926 0.06537,5.34869c0.53793,2.9318 1.44353,5.40702 1.10783,5.67855c-0.0528,0.04271 -0.05995,0.50754 -0.04619,1.21942c-1.52472,0.09803 -5.28994,0.34698 -5.58501,0.36222c-0.98435,-4.96601 -1.402,-13.39652 -3.08562,-14.10142c-2.97293,-1.24472 -2.03463,7.80507 -1.26264,14.53677c-2.34813,-0.02296 -16.98358,0.65903 -17.78478,0.68436c-0.13928,-7.728 1.37173,-16.73171 -0.24256,-15.39728c-1.68588,1.39361 -2.71113,9.99028 -4.07378,11.67669c-0.19066,0.23596 -0.29759,1.65619 -0.50109,3.26233c-1.55739,0.04923 -4.937,0.15671 -5.06997,0.16211c-0.10154,-0.62308 -0.17623,-1.24858 -0.17053,-1.8921c0.02128,-2.40186 1.62016,-5.22607 1.57785,-5.4722c-0.07951,-0.46261 0.17163,-7.37597 2.8124,-11.83795c2.10387,-3.55482 6.71653,-4.82372 6.70075,-5.32303c-0.05405,-1.70986 0.16519,-5.37227 0.41166,-9.25855z" fill="#ff3131" stroke="#33943a"/><g stroke="#000000"><path d="M308.46832,-7.52843c1.55608,0.21214 2.68251,1.66032 2.51595,3.23461c-0.16656,1.57429 -1.56304,2.67853 -3.11911,2.4664c-1.55608,-0.21214 -2.68251,-1.66032 -2.51594,-3.23461c0.16656,-1.57429 1.56303,-2.67853 3.11911,-2.4664z" fill="#000000"/><path d="M308.41444,-7.01918c1.27808,0.17424 2.20326,1.3637 2.06646,2.65674c-0.13681,1.29303 -1.28379,2.2 -2.56187,2.02576c-1.27808,-0.17424 -2.20326,-1.3637 -2.06646,-2.65674c0.13681,-1.29303 1.28379,-2.2 2.56187,-2.02576z" fill="#ffffff"/><path d="M305.61726,-4.60816c0.10209,-0.96491 0.95801,-1.64172 1.91175,-1.5117c0.95375,0.13002 1.64416,1.01764 1.54207,1.98255c-0.10208,0.96491 -0.95801,1.64172 -1.91175,1.5117c-0.95374,-0.13002 -1.64415,-1.01764 -1.54206,-1.98255z" fill="#000000"/></g><g stroke="#000000"><path d="M301.85456,-7.22051c1.55608,0.21214 2.68251,1.66033 2.51595,3.23462c-0.16656,1.57429 -1.56303,2.67853 -3.11911,2.4664c-1.55608,-0.21214 -2.68251,-1.66033 -2.51595,-3.23462c0.16656,-1.57429 1.56303,-2.67853 3.11911,-2.4664z" fill="#000000"/><path d="M301.80069,-6.71125c1.27808,0.17424 2.20326,1.3637 2.06646,2.65674c-0.13681,1.29303 -1.28379,2.2 -2.56187,2.02576c-1.27808,-0.17424 -2.20326,-1.3637 -2.06646,-2.65674c0.13681,-1.29303 1.28379,-2.2 2.56187,-2.02576z" fill="#ffffff"/><path d="M299.00353,-4.30025c0.10209,-0.96491 0.95801,-1.64172 1.91175,-1.5117c0.95375,0.13002 1.64415,1.01764 1.54206,1.98255c-0.10208,0.96491 -0.95801,1.64172 -1.91175,1.5117c-0.95374,-0.13002 -1.64415,-1.01764 -1.54206,-1.98255z" fill="#000000"/></g><path d="M309.94849,2.8452c-1.2402,0.53529 -3.44366,1.40502 -4.75496,1.44647c-1.33112,0.04208 -3.58508,-0.6699 -4.88152,-1.12599c-0.60262,-0.21201 -1.02207,-1.11889 -1.03582,-1.55383c-0.01684,-0.5327 0.6141,-1.61011 1.53361,-1.41896c1.2876,0.26767 3.06386,0.58162 4.17258,0.54657c1.03927,-0.03285 2.61624,-0.39163 3.86248,-0.71956c1.09194,-0.28733 1.96933,0.69399 1.98617,1.22669c0.01375,0.43494 -0.32531,1.3581 -0.88254,1.59861z" fill="#000000" stroke="#33943a"/><path d="M309.52911,2.65695c-1.13691,0.41264 -3.15646,1.08403 -4.35598,1.12195c-1.21765,0.03849 -3.27562,-0.4912 -4.45911,-0.83125c-0.55012,-0.15806 -0.92929,-0.8448 -0.93973,-1.17508c-0.01279,-0.40451 0.56956,-1.22591 1.4096,-1.08524c1.17632,0.19698 2.79935,0.42672 3.81356,0.39466c0.95068,-0.03005 2.39473,-0.31029 3.53616,-0.56547c1.00009,-0.22359 1.79774,0.51743 1.81053,0.92194c0.01044,0.33028 -0.30419,1.03309 -0.81502,1.2185z" fill="#ffffff" stroke="#33943a"/><path d="M304.10156,3.51492c0,0 -1.00922,1.70129 -2.06983,1.73482c-0.05206,0.00165 -1.28698,1.17781 -1.85391,0.65967c-0.56693,-0.51814 -0.58395,-0.96548 -0.615,-1.94749c-0.03264,-1.0327 1.1103,-1.70448 2.17091,-1.73801c1.06061,-0.03353 2.36783,1.29101 2.36783,1.29101z" fill="#ff9ee9" stroke="#33943a"/><path d="M307.47625,-13.27344l1.24357,-5.46903l2.1761,5.36093z" fill="#ffffff" stroke="#33943a"/><path d="M298.9786,-13.2409l1.24357,-5.46903l2.1761,5.36093z" fill="#ffffff" stroke="#33943a"/><g><path d="M393.95368,27.43367c-0.83327,-0.09531 -4.04574,0.40212 -4.83741,0.38714c-0.36405,-1.5419 -0.51231,-3.09672 -0.98466,-3.74278c-1.62896,-2.2281 -1.44899,-6.95811 -2.85387,-7.70903c-1.90149,-1.01637 -2.05476,4.38405 -1.94287,5.26154c0.23245,1.82291 -0.0736,4.20981 -0.17552,6.29778c-1.3422,0.04639 -2.68085,0.08932 -4.00825,0.09137c-1.0493,0.03311 -2.09861,0.06624 -3.14791,0.09937c-0.07837,-0.09719 -0.15488,-0.18837 -0.22924,-0.27262c-1.64354,-1.86203 -1.97987,-1.5807 -2.42217,-1.56672c-0.34344,0.01086 -0.96296,0.59629 -1.34668,1.96563c-2.52342,0.07974 -5.04684,0.15953 -7.57026,0.23933c0.00658,-6.04558 -0.02758,-13.09737 -0.42681,-13.33787c-1.9061,-1.14824 -0.98666,3.73647 -1.28938,6.86447c-0.26897,2.77927 -0.79503,4.93497 -1.40727,6.57218c-1.67513,0.05298 -3.35027,0.10595 -5.02541,0.15892c0.03379,-0.52099 0.04437,-0.9328 -0.05417,-1.11102c-0.71203,-1.28773 1.52579,-11.38315 1.13305,-12.64341c-0.36307,-1.16505 -0.10591,-2.59118 -0.13847,-3.62105c-0.2294,-7.25707 10.98831,-7.60096 16.24435,-7.7671c1.59569,-0.05044 12.60073,0.96723 15.59661,3.24716c1.86723,1.421 0.44026,5.61985 1.20832,7.58132c1.02028,2.60559 2.69494,5.08414 3.35302,7.19934c0.66981,2.15288 0.34688,5.40014 0.325,5.80606z" fill="#000000" stroke="#33943a"/><path d="M393.3911,27.63984c0.00203,0.06431 -3.18015,0.20966 -3.8188,0.19167c-0.46767,-1.66676 -0.43636,-3.42463 -0.96339,-4.1455c-1.57567,-2.1552 -1.92073,-7.29877 -3.27964,-8.02512c-1.83928,-0.98311 -2.37839,5.08827 -2.27016,5.93706c0.23412,1.83597 -0.09649,4.2634 -0.18092,6.34002c-1.24797,0.04253 -2.4924,0.07981 -3.7271,0.08172c-0.80687,0.02546 -1.61374,0.05093 -2.42061,0.0764c-0.19644,-0.2831 -0.38909,-0.53778 -0.57563,-0.74912c-1.58977,-1.80111 -2.83828,-1.66686 -3.26611,-1.65334c-0.37138,0.01174 -1.23217,0.8839 -1.58506,2.57389c-2.18017,0.0689 -4.36033,0.13784 -6.5405,0.20678c-0.03507,-6.15381 -0.19106,-13.92984 -0.59719,-14.14404c-2.68875,-1.41808 -1.66374,4.41789 -2.14136,7.41993c-0.38665,2.43024 -0.96044,4.89382 -1.55161,6.85978c-1.19825,0.0379 -2.39651,0.07579 -3.59477,0.11368c0.04366,-0.61884 0.07486,-1.12154 -0.03554,-1.3212c-0.68873,-1.2456 1.47587,-11.01075 1.09598,-12.22978c-0.35119,-1.12694 -0.10245,-2.50641 -0.13394,-3.50259c-0.2219,-7.01965 10.62883,-7.35229 15.71291,-7.513c1.54349,-0.04879 12.18849,0.93559 15.08636,3.14093c1.80614,1.37451 0.42586,5.43599 1.16879,7.3333c0.98689,2.52035 2.60677,4.91781 3.24332,6.96381c0.64789,2.08245 0.31819,4.24887 0.37496,6.04473z" fill="#496fff" stroke="#33943a"/><g data-paper-data="{&quot;index&quot;:null}" stroke="#000000"><path d="M371.32542,9.09661c0.29695,1.74443 -0.8574,3.43948 -2.57831,3.78598c-1.7209,0.3465 -3.35668,-0.78674 -3.65363,-2.53118c-0.29695,-1.74443 0.8574,-3.43948 2.5783,-3.78599c1.7209,-0.3465 3.35669,0.78675 3.65364,2.53118z" fill="#000000"/><path d="M370.76873,9.2087c0.2439,1.43279 -0.70422,2.825 -2.11768,3.1096c-1.41345,0.2846 -2.757,-0.64619 -3.0009,-2.07897c-0.2439,-1.43279 0.70422,-2.825 2.11767,-3.1096c1.41345,-0.2846 2.75701,0.64619 3.0009,2.07897z" fill="#ffffff"/><path d="M371.0584,9.62186c0.182,1.06919 -0.52551,2.10811 -1.58028,2.32049c-1.05477,0.21237 -2.05737,-0.48221 -2.23937,-1.55141c-0.182,-1.06919 0.52551,-2.10811 1.58028,-2.32049c1.05477,-0.21237 2.05737,0.48221 2.23937,1.55141z" fill="#000000"/></g><g data-paper-data="{&quot;index&quot;:null}" stroke="#000000"><path d="M380.40254,9.02751c0.27969,1.64307 -0.80757,3.23962 -2.42848,3.56599c-1.6209,0.32637 -3.16163,-0.74103 -3.44132,-2.3841c-0.27969,-1.64307 0.80757,-3.23961 2.42848,-3.56598c1.6209,-0.32637 3.16163,0.74103 3.44132,2.38409z" fill="#000000"/><path d="M379.87821,9.13309c0.22972,1.34953 -0.6633,2.66084 -1.99462,2.9289c-1.33132,0.26806 -2.5968,-0.60864 -2.82652,-1.95817c-0.22972,-1.34953 0.6633,-2.66084 1.99462,-2.9289c1.33132,-0.26806 2.5968,0.60864 2.82652,1.95817z" fill="#ffffff"/><path d="M380.15105,9.52224c0.17143,1.00706 -0.49498,1.98561 -1.48845,2.18565c-0.99348,0.20003 -1.93782,-0.45419 -2.10924,-1.46125c-0.17143,-1.00706 0.49498,-1.98561 1.48846,-2.18565c0.99348,-0.20003 1.93781,0.45419 2.10924,1.46125z" fill="#000000"/></g><path d="M368.54399,16.39242c0,0 0.97361,-1.3825 1.61443,-1.90847c0.50676,-0.41595 1.92354,-0.99549 1.92354,-0.99549l-0.43002,4.06218z" fill="#000000" stroke="#33943a"/><path d="M374.8261,17.52513l-0.68572,-4.02691c0,0 1.45056,0.4889 1.98257,0.87202c0.67275,0.48446 1.73174,1.8027 1.73174,1.8027z" data-paper-data="{&quot;index&quot;:null}" fill="#000000" stroke="#33943a"/><path d="M369.35132,15.88907c0,0 0.65243,-0.92642 1.08184,-1.27888c0.33958,-0.27873 1.28897,-0.66708 1.28897,-0.66708l-0.28816,2.72208z" fill="#ffffff" stroke="#33943a"/><path d="M374.98772,16.6277l-0.4595,-2.69845c0,0 0.97202,0.32762 1.32853,0.58434c0.45081,0.32463 1.16045,1.208 1.16045,1.208z" data-paper-data="{&quot;index&quot;:null}" fill="#ffffff" stroke="#33943a"/><path d="M368.23574,16.11144c-0.01205,-0.38131 0.62011,-0.84895 1.51249,-0.54251c1.18576,0.40719 2.78966,0.87427 3.82935,0.8414c1.04824,-0.03314 2.7411,-0.63144 3.96492,-1.12199c0.86717,-0.34759 1.52988,0.3407 1.54316,0.76078c0.01084,0.343 -0.286,1.08598 -0.77722,1.30003c-1.15597,0.5037 -3.28479,1.35425 -4.56354,1.39467c-1.16002,0.03667 -3.11237,-0.56878 -4.34405,-0.99994c-0.66996,-0.23453 -1.15256,-1.23555 -1.1651,-1.63243z" fill="#000000" stroke="#33943a"/></g><g><path d="M353.98173,24.57457c-0.59126,1.59119 -1.39391,2.99384 -2.36209,4.22133c-4.17301,0.20201 -25.21091,0.88303 -31.39713,2.13601c0,0 -0.25328,0.05189 -0.42235,0.24602c-0.80728,-0.94927 -1.27024,-2.00847 -1.29089,-3.14899c-0.13323,-7.35738 8.87893,-17.0901 17.32191,-17.40193c1.6193,-0.05981 3.72052,1.79971 5.40618,2.16391c1.79851,0.38858 -6.47204,-14.16125 5.66236,-15.94065c4.70305,-0.68966 8.13954,4.9288 8.73852,11.16603c0.33683,3.50742 -1.33522,6.27895 -1.86611,9.36124c-0.48963,2.84275 0.59516,6.15941 0.2096,7.19703z" fill="#000000" stroke="#33943a"/><path d="M353.18843,22.81383c0.08076,2.18666 -0.85582,4.24165 -2.42043,6.02358c-3.88858,0.19068 -24.11823,0.88211 -30.1991,2.02684c-0.78154,-0.97029 -1.25192,-2.13848 -1.30356,-3.53676c-0.24455,-6.62144 8.99329,-15.89489 16.59569,-16.17567c1.45808,-0.05385 4.53646,1.96789 6.0543,2.29583c1.61944,0.34989 -6.03011,-13.99564 4.89619,-15.59788c4.23481,-0.621 7.32917,4.43809 7.86851,10.05434c0.30329,3.15822 -1.20228,5.65381 -1.68032,8.42923c-0.44088,2.55973 0.15194,5.48444 0.18873,6.48049z" fill="#edafbc" stroke="#33943a"/><g stroke="#000000"><path d="M352.4112,-0.49987c1.10781,0.14503 1.91464,1.17103 1.8021,2.29162c-0.11254,1.12059 -1.10183,1.91145 -2.20964,1.76642c-1.10781,-0.14503 -1.91464,-1.17103 -1.8021,-2.29162c0.11254,-1.12059 1.10183,-1.91145 2.20964,-1.76642z" fill="#000000"/><path d="M352.3748,-0.13738c0.9099,0.11912 1.57258,0.96181 1.48015,1.88221c-0.09243,0.92039 -0.90498,1.56996 -1.81488,1.45084c-0.9099,-0.11912 -1.57258,-0.96181 -1.48015,-1.88221c0.09243,-0.92039 0.90498,-1.56996 1.81488,-1.45084z" fill="#ffffff"/><path d="M350.39399,1.58842c0.06898,-0.68683 0.67533,-1.17156 1.35432,-1.08267c0.679,0.08889 1.17352,0.71774 1.10454,1.40457c-0.06897,0.68683 -0.67532,1.17156 -1.35432,1.08267c-0.67899,-0.08889 -1.17351,-0.71774 -1.10454,-1.40457z" fill="#000000"/></g><g stroke="#000000"><path d="M347.3108,0.94835c1.10781,0.14503 1.91464,1.17103 1.8021,2.29162c-0.11254,1.12059 -1.10183,1.91144 -2.20964,1.76641c-1.10781,-0.14503 -1.91464,-1.17103 -1.8021,-2.29162c0.11254,-1.12059 1.10183,-1.91144 2.20964,-1.76641z" fill="#000000"/><path d="M347.27439,1.31084c0.9099,0.11912 1.57258,0.96181 1.48015,1.88221c-0.09243,0.92039 -0.90498,1.56996 -1.81488,1.45084c-0.9099,-0.11912 -1.57258,-0.96181 -1.48015,-1.88221c0.09243,-0.92039 0.90498,-1.56996 1.81488,-1.45084z" fill="#ffffff"/><path d="M345.29359,3.03664c0.06898,-0.68683 0.67532,-1.17156 1.35432,-1.08267c0.679,0.08889 1.17352,0.71774 1.10454,1.40457c-0.06897,0.68683 -0.67532,1.17155 -1.35432,1.08266c-0.67899,-0.08889 -1.17351,-0.71774 -1.10454,-1.40457z" fill="#000000"/></g><path d="M346.63633,-1.92096c0,0 0.15074,-1.03222 0.03028,-1.56876c-0.16786,-0.74762 -0.94328,-2.49767 -0.94328,-2.49767l0.33887,-0.07608c0,0 0.80541,1.20394 0.97027,1.93821c0.13221,0.58885 -0.05726,2.12822 -0.05726,2.12822z" fill="#000000" stroke="#33943a"/><path d="M345.88124,-1.95229c0,0 -0.05381,-1.33945 -0.3329,-1.98865c-0.3889,-0.9046 -1.78237,-2.93163 -1.78237,-2.93163l0.41002,-0.17627c0,0 1.30214,1.33014 1.68409,2.21859c0.3063,0.71249 0.43118,2.70169 0.43118,2.70169z" fill="#000000" stroke="#33943a"/><path d="M345.18816,-1.80833c0,0 -0.31748,-0.99368 -0.66117,-1.42295c-0.47889,-0.59814 -1.94361,-1.83045 -1.94361,-1.83045l0.27112,-0.21706c0,0 1.25202,0.72842 1.72236,1.31588c0.37719,0.47111 0.88242,1.93751 0.88242,1.93751z" fill="#000000" stroke="#33943a"/><path d="M359.94841,12.23312c-0.42582,1.39681 -3.16389,1.79968 -6.11565,0.89983c-2.95176,-0.89985 -4.99943,-2.76167 -4.57361,-4.15848c0.42582,-1.39681 3.16389,-1.79968 6.11565,-0.89983c2.95176,0.89985 4.99943,2.76167 4.57361,4.15848z" fill="#000000" stroke="#33943a"/><path d="M359.25474,12.02166c-0.37055,1.21552 -2.75326,1.5661 -5.32191,0.78304c-2.56865,-0.78306 -4.35056,-2.40323 -3.98001,-3.61876c0.37055,-1.21552 2.75326,-1.5661 5.32191,-0.78304c2.56865,0.78306 4.35056,2.40324 3.98001,3.61876z" fill="#ffd726" stroke="#33943a"/><path d="M362.0787,13.22732c-0.89686,-0.26911 -3.63246,-1.68766 -7.04867,-2.33158c-2.93401,-0.55303 -5.87972,0.04335 -5.87972,0.04335c0,0 -0.4711,-0.77848 -0.57346,-3.54983c-0.10236,-2.77135 4.35053,-5.62864 7.63078,-3.88453c5.00187,2.6595 5.55046,5.70566 7.03181,8.82636c0.40938,0.86244 -1.16073,0.89622 -1.16073,0.89622z" fill="#000000" stroke="#33943a"/><path d="M361.96175,12.87379c-0.82192,-0.24662 -3.74413,-2.00905 -6.87488,-2.59917c-2.68884,-0.50682 -5.70354,0.131 -5.70354,0.131c0,0 -0.10192,-0.40711 -0.19572,-2.94688c-0.0938,-2.53977 3.98699,-5.1583 6.99314,-3.55993c4.5839,2.43727 5.08666,5.22888 6.44422,8.08882c0.37518,0.79037 -0.66321,0.88617 -0.66321,0.88617z" fill="#ffd726" stroke="#33943a"/><g stroke="#33943a"><path d="M344.63173,24.34895c0.04757,1.288 -2.75388,0.53733 -4.44733,1.18042c-2.11342,0.80256 -3.44451,2.81218 -6.26432,2.52333c-2.01011,-0.20591 -3.15479,-2.37747 -4.94995,-2.31117c-6.3313,0.23384 -7.3506,1.57412 -7.3506,1.57412c0,0 4.25435,-10.74104 10.58565,-10.97488c6.3313,-0.23384 12.2773,3.96692 12.42656,8.00817z" fill="#000000"/><path d="M343.58718,24.15834c0.0433,1.17241 -2.50673,0.48911 -4.04821,1.07448c-1.92375,0.73054 -3.13538,2.55981 -5.70214,2.29688c-1.82972,-0.18743 -2.87167,-2.1641 -4.50573,-2.10375c-5.76311,0.21285 -6.69093,1.43285 -6.69093,1.43285c0,0 3.87255,-9.7771 9.63565,-9.98995c5.76311,-0.21285 11.1755,3.61091 11.31136,7.28949z" fill="#906bc7"/></g></g><g><g fill="#000000"><path d="M397.80383,25.22427c-0.49471,-7.13466 -5.29472,-16.57918 -5.2823,-19.87926c0.01102,-2.9289 0.37898,-6.16292 0.37898,-6.16292l1.47047,-0.13323c0,0 0.03819,3.95223 0.14071,7.19547c0.12145,3.84222 5.22339,11.36208 5.60721,18.8136c0.04461,0.866 -0.03907,1.76347 -0.2097,2.65817c-0.72105,0.02279 -1.4421,0.04559 -2.16316,0.06838c0.09293,-0.81067 0.1198,-1.66597 0.05779,-2.56021z" stroke="#33943a"/><path d="M402.91673,25.06264c-0.49471,-7.13466 -5.29472,-16.57918 -5.2823,-19.87926c0.01102,-2.9289 0.37898,-6.16292 0.37898,-6.16292l1.47047,-0.13323c0,0 0.03819,3.95223 0.14071,7.19547c0.12145,3.84222 5.22339,11.36208 5.60721,18.8136c0.04461,0.866 -0.03907,1.76347 -0.2097,2.65817c-0.72105,0.02279 -1.4421,0.04559 -2.16316,0.06838c0.09293,-0.81067 0.1198,-1.66597 0.05779,-2.56021z" stroke="#33943a"/><path d="M404.04556,24.15309c-0.08757,-7.46089 4.52924,-15.28796 4.40778,-19.13018c-0.10252,-3.24324 -0.31403,-7.18999 -0.31403,-7.18999l1.47595,0.04009c0,0 0.57148,3.20432 0.76746,6.12668c0.22082,3.2927 -3.97311,13.02153 -4.01622,20.17319c-0.00718,1.19083 0.13783,2.30318 0.38085,3.32706c-0.70122,0.02217 -1.40245,0.04433 -2.10367,0.0665c-0.35428,-1.13122 -0.58497,-2.29178 -0.59813,-3.41334z" data-paper-data="{&quot;index&quot;:null}" stroke="#33943a"/><path d="M408.64673,24.26788c-0.08757,-7.46089 4.52924,-15.28796 4.40779,-19.13018c-0.10252,-3.24324 -0.31403,-7.18999 -0.31403,-7.18999l1.47595,0.04009c0,0 0.57148,3.20432 0.76746,6.12668c0.22082,3.2927 -3.9731,13.02153 -4.01621,20.17319c-0.00658,1.09138 0.11467,2.11683 0.32204,3.06868c-0.70776,0.02237 -1.41551,0.04475 -2.12327,0.06712c-0.3096,-1.04921 -0.50757,-2.11906 -0.51973,-3.15559z" data-paper-data="{&quot;index&quot;:null}" stroke="#33943a"/><path d="M430.71647,-20.31261c0.54566,0.41259 0.70444,0.92327 0.5516,1.59006c-1.72849,7.54095 -3.05433,11.75586 -6.1705,18.83703c-0.30428,0.69144 -3.40485,1.56339 -3.81601,1.81726c-1.70343,1.05178 -9.72135,-4.58124 -9.72135,-4.58124l2.34062,-1.05436c0,0 4.03717,4.55302 8.46369,2.64794c2.65394,-1.1422 7.10648,-17.49338 7.26365,-18.71993c0,0 0.78012,-0.76979 1.0883,-0.53676z" data-paper-data="{&quot;index&quot;:null}" stroke="#33943a"/><path d="M377.6155,-18.13169c0.23432,1.21418 5.71068,17.2515 8.43146,18.2238c4.538,1.6217 8.27955,-3.17721 8.27955,-3.17721l2.40254,0.90442c0,0 -7.64614,6.12817 -9.41259,5.18608c-0.42638,-0.2274 -3.57583,-0.90178 -3.92317,-1.57262c-3.55718,-6.87023 -5.14658,-10.99298 -7.34789,-18.40971c-0.19465,-0.65581 -0.06844,-1.1755 0.45007,-1.62173c0.29285,-0.25202 1.12003,0.46696 1.12003,0.46696z" data-paper-data="{&quot;index&quot;:null}" stroke="#33943a"/><path d="M390.97516,-0.43898c0,0 -0.55702,-14.79605 12.8093,-15.55654c14.61095,-0.8313 12.92821,13.81767 12.92821,13.81767c0,0 -0.82264,0.77405 -1.57403,0.61092c-0.85261,-0.1851 -1.70449,-1.29961 -2.8075,-1.09775c-0.93981,0.17199 -1.46813,1.20869 -2.35021,1.63156c-1.1446,0.54872 -1.87988,-0.90948 -3.21308,-0.76259c-1.0727,0.11819 -1.02702,1.22434 -2.1467,1.29667c-0.78216,0.05053 -1.69018,-1.10417 -2.46156,-1.04258c-0.7126,0.0569 -2.15419,1.17169 -2.81908,1.21323c-1.19641,0.07474 -2.58123,-0.88046 -3.49855,-0.80377c-0.92135,0.07702 -1.80932,1.00769 -2.30003,1.04085c-1.27678,0.08626 -2.56677,-0.34765 -2.56677,-0.34765z" stroke="#33943a"/><g stroke="#000000"><path d="M404.92622,-13.32828c2.00327,0.2731 3.45342,2.13747 3.23899,4.16418c-0.21443,2.02671 -2.01223,3.44829 -4.01549,3.17519c-2.00327,-0.2731 -3.45341,-2.13747 -3.23898,-4.16418c0.21443,-2.02671 2.01222,-3.44829 4.01549,-3.17519z"/><path d="M404.85685,-12.67267c1.64538,0.22431 2.83644,1.75559 2.66032,3.42023c-0.17612,1.66463 -1.65274,2.83224 -3.29811,2.60793c-1.64538,-0.22431 -2.83644,-1.75559 -2.66032,-3.42023c0.17612,-1.66463 1.65273,-2.83224 3.29811,-2.60793z"/><path d="M401.25583,-9.56878c0.13143,-1.24221 1.23332,-2.11352 2.46116,-1.94613c1.22784,0.16739 2.11666,1.31009 1.98523,2.5523c-0.13142,1.24221 -1.23332,2.11352 -2.46116,1.94613c-1.22783,-0.16739 -2.11665,-1.31009 -1.98522,-2.5523z"/></g></g><g><path d="M397.99151,23.57091c-0.468,-6.74939 -5.0088,-15.68391 -4.99706,-18.80578c0.01043,-2.77074 0.35852,-5.83013 0.35852,-5.83013l1.39106,-0.12603c0,0 0.03612,3.73881 0.13311,6.80692c0.1149,3.63474 4.94133,10.74853 5.30442,17.79767c0.07238,1.40514 -0.21226,2.89788 -0.65664,4.31469c-0.63932,0.02021 -1.27864,0.04042 -1.91796,0.06063c0.31982,-1.26248 0.49124,-2.6793 0.38455,-4.21796z" fill="#b66828" stroke="#33943a"/><path d="M402.82833,23.41802c-0.468,-6.74939 -5.0088,-15.68391 -4.99706,-18.80578c0.01043,-2.77074 0.35852,-5.83013 0.35852,-5.83013l1.39106,-0.12603c0,0 0.03612,3.73881 0.13311,6.80692c0.1149,3.63474 4.94133,10.74853 5.30443,17.79767c0.07238,1.40514 -0.21226,2.89788 -0.65664,4.31469c-0.63932,0.02021 -1.27864,0.04042 -1.91796,0.06063c0.31982,-1.26248 0.49124,-2.6793 0.38455,-4.21796z" fill="#b66828" stroke="#33943a"/><path d="M403.8962,22.55758c-0.08284,-7.058 4.28466,-14.46243 4.16977,-18.09716c-0.09698,-3.0681 -0.29707,-6.80173 -0.29707,-6.80173l1.39625,0.03793c0,0 0.54062,3.03129 0.72602,5.79584c0.20889,3.1149 -3.75856,12.31837 -3.79934,19.08384c-0.01117,1.85359 0.36743,3.50617 0.90752,4.91568c-0.62599,0.01979 -1.25198,0.03958 -1.87798,0.05936c-0.68457,-1.59045 -1.20572,-3.33708 -1.22516,-4.99376z" data-paper-data="{&quot;index&quot;:null}" fill="#b66828" stroke="#33943a"/><path d="M408.2489,22.66618c-0.08284,-7.058 4.28467,-14.46243 4.16977,-18.09716c-0.09698,-3.0681 -0.29707,-6.80173 -0.29707,-6.80173l1.39625,0.03793c0,0 0.54062,3.03129 0.72602,5.79584c0.20889,3.1149 -3.75856,12.31837 -3.79934,19.08384c-0.01054,1.74796 0.32554,3.31718 0.8168,4.67236c-0.63,0.01991 -1.26002,0.03983 -1.89002,0.05974c-0.63333,-1.52429 -1.10395,-3.17809 -1.12241,-4.75082z" data-paper-data="{&quot;index&quot;:null}" fill="#b66828" stroke="#33943a"/><path d="M429.12688,-19.50699c0.51619,0.39031 0.6664,0.87341 0.52182,1.5042c-1.63515,7.13374 -2.8894,11.12104 -5.8373,17.81984c-0.28785,0.6541 -3.22099,1.47897 -3.60995,1.71913c-1.61144,0.99498 -9.1964,-4.33386 -9.1964,-4.33386l2.21423,-0.99742c0,0 3.81916,4.30716 8.00665,2.50496c2.51063,-1.08052 6.72273,-16.54874 6.87141,-17.70906c0,0 0.73799,-0.72822 1.02953,-0.50778z" data-paper-data="{&quot;index&quot;:null}" fill="#b66828" stroke="#33943a"/><path d="M378.89335,-17.44384c0.22167,1.14861 5.4023,16.31993 7.97617,17.23972c4.29295,1.53413 7.83246,-3.00564 7.83246,-3.00564l2.2728,0.85559c0,0 -7.23325,5.79725 -8.90432,4.90603c-0.40335,-0.21512 -3.38273,-0.85308 -3.71132,-1.4877c-3.3651,-6.49924 -4.86867,-10.39936 -6.95111,-17.41559c-0.18414,-0.62039 -0.06474,-1.11203 0.42577,-1.53415c0.27704,-0.23841 1.05955,0.44174 1.05955,0.44174z" data-paper-data="{&quot;index&quot;:null}" fill="#b66828" stroke="#33943a"/><path d="M391.5316,-0.70653c0,0 -0.52694,-13.99708 12.1176,-14.7165c13.82196,-0.78641 12.23009,13.07152 12.23009,13.07152c0,0 -0.77822,0.73225 -1.48903,0.57793c-0.80657,-0.17511 -1.61245,-1.22943 -2.6559,-1.03847c-0.88906,0.1627 -1.38885,1.14342 -2.2233,1.54345c-1.08279,0.51909 -1.77837,-0.86036 -3.03958,-0.72141c-1.01477,0.11181 -0.97156,1.15823 -2.03078,1.22665c-0.73992,0.0478 -1.59892,-1.04455 -2.32864,-0.98628c-0.67412,0.05382 -2.03786,1.10842 -2.66685,1.14771c-1.1318,0.07071 -2.44184,-0.83291 -3.30962,-0.76037c-0.8716,0.07286 -1.71162,0.95328 -2.17582,0.98464c-1.20784,0.08161 -2.42817,-0.32888 -2.42817,-0.32888z" fill="#ff9138" stroke="#33943a"/><g stroke="#000000"><path d="M404.72931,-12.89981c1.89509,0.25836 3.26693,2.02205 3.06408,3.93932c-0.20285,1.91727 -1.90356,3.26209 -3.79866,3.00374c-1.89509,-0.25836 -3.26693,-2.02205 -3.06408,-3.93932c0.20285,-1.91727 1.90356,-3.26209 3.79866,-3.00374z" fill="#000000"/><path d="M404.66369,-12.27961c1.55653,0.2122 2.68327,1.6608 2.51667,3.23554c-0.16661,1.57474 -1.56349,2.67931 -3.12001,2.4671c-1.55653,-0.2122 -2.68327,-1.6608 -2.51667,-3.23554c0.16661,-1.57474 1.56348,-2.67931 3.12001,-2.4671z" fill="#ffffff"/><path d="M401.25713,-9.34333c0.12433,-1.17513 1.16672,-1.99939 2.32826,-1.84104c1.16154,0.15835 2.00236,1.23935 1.87803,2.41448c-0.12432,1.17513 -1.16672,1.99939 -2.32826,1.84104c-1.16153,-0.15835 -2.00235,-1.23935 -1.87802,-2.41448z" fill="#000000"/></g></g></g></g><g><path d="M277.81883,133.98232l-45.98309,-45.98309l-0.46683,-22.31151l92.28208,0.72881l0.15093,21.58266z" fill="#aa7d24" stroke="none"/><path d="M276.92557,111.65063l-45.98309,-45.98309l45.98309,-45.98309l45.98309,45.98309z" fill="#c5922a" stroke="none"/><path d="M258.50248,114.76684l-8.9882,-9.32927l-0.15626,-21.33092l46.17131,-46.17131l9.15871,9.15875l-46.34183,46.34183z" fill="#ab8974" stroke="#9e7c36"/><path d="M258.50248,115.10792l-8.9882,-9.32927l-0.15626,-21.33092l8.9882,9.32926z" fill="#a1816d" stroke="#9e7c36"/></g><g data-paper-data="{&quot;index&quot;:null}"><path d="M217.15507,165.50451l-18.88691,-18.88691l-0.19174,-9.16414l37.90356,0.29934l0.06199,8.86477z" fill="#aa7d24" stroke="none"/><path d="M216.78818,156.3321l-18.88691,-18.88691l18.88691,-18.88691l18.8869,18.88691z" fill="#c5922a" stroke="none"/><path d="M209.22112,157.61202l-3.69178,-3.83185l-0.06418,-8.76137l18.96422,-18.96422l3.76181,3.76182l-19.03425,19.03425z" fill="#ab8974" stroke="#9e7c36"/><path d="M209.22112,157.75213l-3.69178,-3.83187l-0.06418,-8.76138l3.69178,3.83187z" fill="#a1816d" stroke="#9e7c36"/></g><g data-paper-data="{&quot;index&quot;:null}"><path d="M184.41279,83.94364l0.08158,-11.66563l49.87936,-0.39393l-0.25232,12.05958l-24.85431,24.85431z" fill="#aa7d24" stroke="none"/><path d="M184.8956,71.87314l24.85431,-24.85431l24.85432,24.85431l-24.85432,24.85431z" fill="#c5922a" stroke="none"/><path d="M219.79224,86.88224l-25.04821,-25.04821l4.95037,-4.9504l24.95605,24.95605l-0.08446,11.52957l-4.85821,5.04256z" fill="#ab8974" stroke="#9e7c36"/><path d="M219.79224,87.06659l4.85821,-5.04255l-0.08446,11.52957l-4.85821,5.04256z" fill="#a1816d" stroke="#9e7c36"/></g><g data-paper-data="{&quot;index&quot;:null}"><path d="M231.22568,122.13821l0.0659,-9.42362l40.29305,-0.31822l-0.20383,9.74185l-20.07756,20.07756z" fill="#aa7d24" stroke="none"/><path d="M231.61567,112.38755l20.07756,-20.07755l20.07756,20.07755l-20.07756,20.07756z" fill="#c5922a" stroke="none"/><path d="M259.80554,124.51204l-20.23419,-20.23418l3.99896,-3.99898l20.15974,20.15974l-0.06822,9.3137l-3.9245,4.07342z" fill="#ab8974" stroke="#9e7c36"/><path d="M259.80554,124.66097l3.92451,-4.07343l-0.06822,9.3137l-3.9245,4.07343z" fill="#a1816d" stroke="#9e7c36"/></g><g data-paper-data="{&quot;index&quot;:null}"><path d="M242.40506,183.8293l0.15093,-21.58266l92.28208,-0.72881l-0.46683,22.31151l-45.98309,45.98309z" fill="#aa7d24" stroke="none"/><path d="M243.29832,161.49764l45.98309,-45.98309l45.98309,45.98309l-45.98309,45.98309z" fill="#c5922a" stroke="none"/><path d="M307.86078,189.26604l-46.34183,-46.34183l9.15871,-9.15875l46.17132,46.17132l-0.15626,21.33092l-8.9882,9.32926z" fill="#ab8974" stroke="#9e7c36"/><path d="M307.86078,189.60712l8.9882,-9.32926l-0.15626,21.33092l-8.9882,9.32926z" fill="#a1816d" stroke="#9e7c36"/></g><g data-paper-data="{&quot;index&quot;:null}"><path d="M229.91274,228.74063l-30.42719,-30.42719l-0.3089,-14.76361l61.06341,0.48225l0.09987,14.28133z" fill="#aa7d24" stroke="none"/><path d="M229.32168,213.96367l-30.42719,-30.4272l30.42719,-30.42719l30.42719,30.42719z" fill="#c5922a" stroke="none"/><path d="M217.13103,216.02567l-5.94752,-6.17321l-0.1034,-14.11476l30.55174,-30.55174l6.06035,6.06038l-30.66457,30.66457z" fill="#ab8974" stroke="#9e7c36"/><path d="M217.13103,216.25136l-5.94752,-6.17321l-0.1034,-14.11476l5.94752,6.17321z" fill="#a1816d" stroke="#9e7c36"/></g><g stroke="#000000"><path d="M138.14869,318.39032v-71h303.81081v71z" fill="#afae9f"/><path d="M138.14869,261.39032v-35h303.81081v35z" fill="#cccbba"/></g><g stroke="#000000"><path d="M137.66519,314.74908v-68.89172h55v68.89172z" fill="#afae9f"/><path d="M137.66519,259.85738v-319.0961l55,-1v320.0961z" fill="#cccbba"/></g></g></g></svg>