<svg version="1.1" xmlns="http://www.w3.org/2000/svg" xmlns:xlink="http://www.w3.org/1999/xlink" width="565.26318" height="637.52358" viewBox="0,0,565.26318,637.52358"><g transform="translate(-33.44885,-2.80265)"><g stroke-miterlimit="10"><g fill="#000000" stroke="#33943a" stroke-width="0"><path d="M314.33367,86.07689c0,0 -12.18619,-18.68309 -14.20415,-27.12489c-2.51624,-10.52657 0.26916,-31.17166 0.26916,-31.17166l4.85805,-1.16131c0,0 1.05701,27.50879 3.61898,38.22664c1.83872,7.69183 10.31616,20.06984 10.31616,20.06984z"/><path d="M322.33518,80.05105c0,0 -10.97213,-26.4817 -11.5238,-37.62183c-0.68787,-13.89134 7.71466,-39.30909 7.71466,-39.30909l6.41082,-0.31748c0,0 -5.17305,34.99627 -4.47282,49.14013c0.50269,10.15048 8.28198,27.7907 8.28198,27.7907z"/><path d="M333.73341,76.11976c0,0 -2.75217,-22.13579 -0.86105,-30.6068c2.35807,-10.56309 13.92007,-27.89219 13.92007,-27.89219l4.87495,1.08814c0,0 -11.12121,25.18286 -13.52214,35.9379c-1.72308,7.7187 0.46312,22.56126 0.46312,22.56126z"/></g><path d="M429.81835,165.58803c0,36.68755 -24.7731,84.27744 -25.78695,119.50389c-1.23833,43.02606 -50.28852,15.20143 -74.26118,15.20143c-32.88674,0 -71.31657,33.59771 -75.71992,-35.32866c-1.77777,-27.82799 -26.94386,-76.6054 -26.94386,-103.30012c0,-63.56137 45.96415,-91.54733 102.66379,-91.54733c56.69964,0 100.04813,31.9094 100.04813,95.47078z" fill="#edafbc" stroke="#ffffff" stroke-width="0"/><path d="M489.1216,448.73078c0,105.81525 -69.09259,191.59546 -154.32261,191.59546c-85.23002,0 -154.32261,-85.78021 -154.32261,-191.59546c0,-105.81525 69.09259,-191.59544 154.32261,-191.59544c85.23002,0 154.32261,85.78019 154.32261,191.59544z" fill="#edafbc" stroke="#ffffff" stroke-width="0"/><path d="M305.02762,143.98537c1.77733,17.69909 -10.96611,33.90398 -28.46316,36.19468c-17.49727,2.2906 -33.12239,-10.20017 -34.89974,-27.89926c-1.77755,-17.69909 10.96581,-33.90398 28.46306,-36.19468c17.49727,-2.2906 33.12219,10.20049 34.89974,27.89956z" fill="#ffffff" stroke="#ffffff" stroke-width="0.5"/><path d="M410.96094,143.98537c1.77733,17.69909 -10.96611,33.90398 -28.46316,36.19468c-17.49727,2.2906 -33.12239,-10.20017 -34.89974,-27.89926c-1.77755,-17.69909 10.96581,-33.90398 28.46306,-36.19468c17.49727,-2.2906 33.12219,10.20049 34.89974,27.89956z" fill="#ffffff" stroke="#ffffff" stroke-width="0.5"/><g stroke="#ffffff" stroke-width="0"><path d="M319.88835,277.74084c-42.75381,0 -47.81366,-41.78343 -47.81366,-41.78343c0,0 5.05985,-10.90001 47.81366,-10.90001c42.75381,0 58.05947,13.62504 58.05947,13.62504c0,0 -15.30566,39.0584 -58.05947,39.0584z" fill="#edc824"/><path d="M325.51831,261.07106c-36.45404,0 -40.76833,-27.71444 -40.76833,-27.71444c0,0 4.31428,-7.22984 40.76833,-7.22984c36.45404,0 49.50441,9.03732 49.50441,9.03732c0,0 -13.05036,25.90699 -49.50441,25.90699z" fill="#dab821"/><path d="M380.31282,225.17786c0,0 -15.23518,16.99767 -57.79211,16.99767c-42.55694,0 -47.59351,-13.59813 -47.59351,-13.59813c0,0 5.03655,-52.12622 47.59351,-52.12622c42.55694,0 57.79211,48.72668 57.79211,48.72668z" fill="#ffd726"/></g><path d="M570.93486,403.10655c15.5707,48.34904 48.79626,149.07322 8.77645,178.21093c-34.1753,24.88244 -11.96393,-34.50607 -25.83701,-30.03828c-12.45574,4.01134 -5.27733,20.0523 -20.33492,5.85655c-24.12818,-22.74712 -63.22758,-64.18104 -79.98852,-116.22592c-27.22091,-84.52441 -47.48721,-160.18478 -47.48721,-160.18478c0,0 137.65032,37.85711 164.87123,122.38151z" fill="#906bc7" stroke="#ffffff" stroke-width="0"/><path d="M256.22954,282.39392c0,0 -29.40599,72.59824 -66.80266,153.13917c-23.02655,49.59212 -66.9191,85.9098 -93.65853,105.5211c-16.68723,12.23877 -7.59288,-2.79901 -19.46161,-8.30988c-13.21926,-6.13795 1.52941,55.52903 -29.33088,26.63735c-36.13787,-33.83259 9.20772,-129.7131 30.59909,-175.78354c37.39667,-80.54094 178.65459,-101.20422 178.65459,-101.20422z" fill="#906bc7" stroke="#ffffff" stroke-width="0"/><path d="M278.70869,150.18768c0,5.80479 -3.0251,10.51051 -6.75676,10.51051c-3.73165,0 -6.75676,-4.70572 -6.75676,-10.51051c0,-5.80479 3.0251,-10.51051 6.75676,-10.51051c3.73165,0 6.75676,4.70572 6.75676,10.51051z" fill="#ff0000" stroke="#ffffff" stroke-width="0.5"/><path d="M384.30929,149.18169c0,5.8048 -3.0251,10.51051 -6.75676,10.51051c-3.73165,0 -6.75675,-4.70571 -6.75675,-10.51051c0,-5.8048 3.0251,-10.51051 6.75675,-10.51051c3.73165,0 6.75676,4.70571 6.75676,10.51051z" fill="#ff0000" stroke="#ffffff" stroke-width="0.5"/></g></g></svg>