<svg version="1.1" xmlns="http://www.w3.org/2000/svg" xmlns:xlink="http://www.w3.org/1999/xlink" width="257" height="257" viewBox="0,0,257,257"><defs><linearGradient x1="236.73318" y1="218.28136" x2="236.73318" y2="242.92862" gradientUnits="userSpaceOnUse" id="color-1"><stop offset="0" stop-color="#000000" stop-opacity="0"/><stop offset="1" stop-color="#000000"/></linearGradient></defs><g transform="translate(-111.5,-51.5)"><g data-paper-data="{&quot;isPaintingLayer&quot;:true}" fill-rule="nonzero" stroke-width="0" stroke-linecap="butt" stroke-linejoin="miter" stroke-miterlimit="10" stroke-dasharray="" stroke-dashoffset="0" style="mix-blend-mode: normal"><path d="M233.304,242.92862v-76.51368h6.85837v76.51368z" fill="#7b7b7b" stroke="#ed1597"/><path d="M232.85142,242.92862v-24.64726h7.76354v24.64726z" fill="url(#color-1)" stroke="#ed1597"/><path d="M232.21127,214.91388v-83.97595c0,0 23.59592,0 28.5262,0c2.01312,0 3.49413,1.10097 3.49413,3.11409c0,7.45903 0,59.86019 0,76.08503c0,2.73981 -1.39729,4.77683 -4.1371,4.77683c-5.16914,0 -27.88323,0 -27.88323,0z" fill="#8a5700" stroke="#ed1597"/><path d="M215.7684,195.34869c0,-14.92655 0,-63.27325 0,-73.51314c0,-2.51108 0.36982,-6.8326 3.7485,-3.62297c3.7053,3.5199 13.12709,12.72534 13.12709,12.72534v83.97595c0,0 -10.53168,-9.95253 -13.99925,-12.82689c-4.26707,-3.53708 -2.87633,-6.7383 -2.87633,-6.7383z" fill="#8a5700" stroke="none"/><path d="M231.64136,209.59474v-75.22773h34.36328v75.22773z" fill="#5d3d3d" stroke="#ed1597"/><path d="M213.99535,193.34184v-75.22773l18.11038,16.2529v75.22773z" fill="#3f2a2a" stroke="none"/><path d="M111.5,308.5v-257h257v257z" fill="none" stroke="#ed1597"/></g></g></svg>