<svg version="1.1" xmlns="http://www.w3.org/2000/svg" xmlns:xlink="http://www.w3.org/1999/xlink" width="123.00635" height="78.48799" viewBox="0,0,123.00635,78.48799"><g transform="translate(-197.37886,-137.76684)"><g data-paper-data="{&quot;isPaintingLayer&quot;:true}" fill-rule="nonzero" stroke-linecap="butt" stroke-linejoin="miter" stroke-miterlimit="10" stroke-dasharray="" stroke-dashoffset="0" style="mix-blend-mode: normal"><path d="M261.69707,169.02632c0.07458,-0.07502 0.14884,-0.15036 0.22277,-0.22605c1.67891,-1.71867 3.07338,-3.76802 5.09257,-5.14063c2.33437,-1.58686 5.08602,-1.95499 7.7143,-2.76519c2.0594,-0.63484 4.08984,-1.31267 6.11646,-1.99298c1.22115,0.7824 2.13088,1.75938 2.4245,2.99898c0.40162,1.69556 -2.51618,4.2687 -3.36504,5.37555c-2.33146,3.04007 -5.9256,4.91242 -9.83788,6.02848c-2.72252,-1.55334 -5.52133,-2.9485 -8.36768,-4.27818z" fill="#966726" stroke="#ffffff" stroke-width="0"/><path d="M302.85185,160.84029l-8.97106,6.35843c1.82066,-2.09693 3.73404,-5.03044 3.31666,-7.17597c-0.24622,-1.26567 -1.13164,-2.39011 -2.27673,-3.35277c0.94103,-0.31324 1.88355,-0.62328 2.83006,-0.92609c1.9586,2.32682 5.10107,5.09639 5.10107,5.09639z" fill="#966726" stroke="#ffffff" stroke-width="0"/><path d="M273.1174,175.13852c-0.09452,-0.0599 -0.18915,-0.11955 -0.28389,-0.17897c0.40733,-0.15032 0.81068,-0.3092 1.20942,-0.47702z" fill="#966726" stroke="#ffffff" stroke-width="0"/><path d="M274.01294,158.49851c-2.89533,0.89383 -5.82929,1.34784 -8.40426,3.09243c-2.17581,1.47415 -3.67337,3.61276 -5.47788,5.4631c-0.16187,0.16598 -0.32538,0.3303 -0.49039,0.49311c-0.84206,-0.76218 -1.71146,-1.50378 -2.59574,-2.23039l13.59212,-9.6337c0.0708,-0.00033 0.14161,-0.00063 0.21241,-0.00091c1.54214,0.38824 4.19636,0.85674 6.66512,1.6952c-1.16114,0.3824 -2.32679,0.75854 -3.50139,1.12116z" fill="#966726" stroke="#ffffff" stroke-width="0"/><path d="M291.09212,137.76684c0,0 1.86441,4.26156 3.40148,6.88638c-1.31866,0.42774 -2.63119,0.86699 -3.94408,1.30709c-1.10819,-0.61103 -2.21461,-1.09853 -3.09609,-1.45039c-1.31799,-0.5261 -2.81137,-0.83797 -4.27555,-1.13371z" fill="#966726" stroke="#ffffff" stroke-width="0"/><path d="M266.18574,180.05148c0.18826,-0.27902 0.33691,-0.58288 0.42725,-0.91856c0.23012,-0.85504 0.19125,-1.70666 -0.01864,-2.53143c1.02829,-0.17796 2.05169,-0.39451 3.06161,-0.65457c0.42107,0.24698 0.84013,0.4982 1.25704,0.75402z" fill="#966726" stroke="#ffffff" stroke-width="0"/><path d="M265.01569,173.416c0.46097,0.2351 0.92018,0.47343 1.37749,0.71544c-0.27451,0.04713 -0.54915,0.09131 -0.82362,0.13269c-0.17531,-0.29069 -0.36184,-0.57386 -0.55387,-0.84814z" fill="#966726" stroke="#ffffff" stroke-width="0"/><path d="M264.22027,178.40846c-0.17524,0.67098 -2.00242,1.82948 -2.10131,1.90579c-3.09554,2.38888 -6.32805,4.54055 -9.44501,6.90133c-0.16518,0.21667 -0.35275,0.42182 -0.54498,0.62456c-2.66649,0.00628 -5.32626,0.02302 -7.98383,0.06685c1.5874,-3.86232 4.68166,-7.50346 7.5004,-10.14028c2.19784,-0.32631 4.37115,-0.47091 6.40521,-0.47091c1.98963,-0.00101 4.05635,-0.10298 6.13031,-0.34578c0.13504,0.49189 0.16344,0.98276 0.0392,1.45843z" fill="#966726" stroke="#ffffff" stroke-width="0"/><path d="M260.51375,172.04314c0.60822,0.64038 1.55384,1.53871 2.34781,2.5443c-1.67222,0.15009 -3.29966,0.20916 -4.81081,0.20836c-1.01476,0 -2.05415,0.03445 -3.10798,0.10646c1.53957,-1.2756 3.10268,-2.52895 4.5985,-3.85257c0.32963,0.32714 0.65402,0.65815 0.97247,0.99344z" fill="#966726" stroke="#ffffff" stroke-width="0"/><path d="M234.7952,167.2065c-0.30794,-0.53795 -0.60885,-1.08009 -0.91057,-1.62175l18.21464,-12.91001c0.80944,0.45796 1.57478,0.89992 2.24831,1.19932c0.47611,0.21164 0.95148,0.42352 1.42595,0.63608c-4.82953,1.13816 -9.34647,3.23078 -13.24415,7.03707c-2.47929,2.42115 -3.98417,5.70969 -5.98613,8.54703c-0.60852,-0.96711 -1.1996,-1.92962 -1.74805,-2.88775z" fill="#966726" stroke="#ffffff" stroke-width="0"/><path d="M249.05352,160.31877c-3.57049,3.24637 -6.83755,7.40314 -8.66189,11.99276c-0.72459,-0.10905 -1.459,-0.19146 -2.19776,-0.25362c2.08544,-2.87389 3.58761,-6.30472 6.12253,-8.76239c1.97748,-1.91722 4.12335,-3.35153 6.39194,-4.42465c-0.55976,0.4748 -1.11295,0.95586 -1.65482,1.4479z" fill="#966726" stroke="#ffffff" stroke-width="0"/><path d="M243.89441,195.85093c-0.08315,-0.29534 -0.18124,-0.57983 -0.30174,-0.84777c-0.16341,-0.36336 -0.33549,-0.72603 -0.51503,-1.08801c-0.01936,-0.67031 -0.01727,-1.31678 0.03244,-1.92386c0.04281,-0.5228 0.12343,-1.04651 0.23766,-1.56929c0.12178,-0.00228 0.24357,-0.0045 0.36535,-0.00667c0.68088,0.18647 1.33982,0.41195 1.96901,0.68438c1.04947,0.39368 1.93203,0.93119 2.71196,1.56198z" fill="#966726" stroke="#ffffff" stroke-width="0"/><path d="M250.64556,190.34519c-0.03695,0.25066 -0.05289,0.50298 -0.05009,0.75622l-0.17931,0.12709c-0.32251,-0.30587 -0.66147,-0.59938 -1.02269,-0.87711c0.41723,-0.00244 0.83459,-0.00449 1.25209,-0.0062z" fill="#966726" stroke="#ffffff" stroke-width="0"/><path d="M225.08788,200.52754c1.14673,-0.09897 2.29209,-0.18638 3.43643,-0.2636c0.13712,1.55498 0.37954,3.10278 0.68284,4.62441c1.20061,2.19133 2.26383,4.39789 4.01094,6.07875l-3.03432,2.15064c-3.47096,-0.11875 -6.83146,-0.74889 -10.01617,-2.2144c-1.61465,-0.64375 -5.1247,-1.32263 -6.35805,-2.58863c-1.21655,-1.24877 0.13098,-3.09234 0.93692,-3.96639c1.27817,-1.38618 2.97746,-2.45903 4.73934,-3.37092c1.94362,-0.21369 3.89475,-0.30253 5.60206,-0.44987z" fill="#966726" stroke="#ffffff" stroke-width="0"/><path d="M235.74356,199.89925c0.80644,1.3041 1.58381,2.61582 2.277,3.93705c0.01938,1.23261 0.08325,2.46854 0.06122,3.68357l-2.77879,1.96953c-1.70966,-1.42819 -2.64374,-3.50158 -3.7454,-5.45279c-0.23246,-1.29675 -0.42381,-2.6091 -0.53727,-3.92551c1.5755,-0.08695 3.14959,-0.15639 4.72325,-0.21185z" fill="#966726" stroke="#ffffff" stroke-width="0"/><path d="M222.67528,210.89044c0,0 -1.76471,-4.96235 -3.32147,-7.82779c0.90148,0.29237 1.74441,0.5513 2.36374,0.79802c1.89406,0.85147 4.65767,1.78821 7.58128,2.3352z" fill="#966726" stroke="#ffffff" stroke-width="0"/><path d="M212.66725,196.77019l0.84063,-0.59582c-0.12308,0.35282 -0.20409,0.71114 -0.2367,1.07407c-0.37244,-0.29646 -0.60393,-0.47825 -0.60393,-0.47825z" fill="#966726" stroke="#ffffff" stroke-width="0"/><path d="M233.11771,182.27549c0.27295,0.40552 0.51839,0.77481 0.71069,1.08693c-1.06038,1.10453 -1.99991,2.33242 -2.78833,3.69287c-1.55212,-0.02347 -3.22107,-0.19808 -4.77385,0.07634z" fill="#966726" stroke="#ffffff" stroke-width="0"/><path d="M236.07804,187.07194c-0.70434,-0.01374 -1.40487,-0.01816 -2.09686,-0.01879c0.36165,-0.51704 0.75048,-1.00963 1.16376,-1.47865c0.30587,0.49833 0.61797,0.99744 0.9331,1.49744z" fill="#966726" stroke="#ffffff" stroke-width="0"/><path d="M220.94,199.56113c0,0 -1.01982,0.72282 -1.74264,-0.297c-0.72282,-1.01982 0.297,-1.74264 0.297,-1.74264c2.5004,-1.75932 4.59059,-4.7065 7.33606,-6.27316c0.26754,-0.02018 0.53039,-0.04106 0.78771,-0.06326c0.56292,-0.04858 1.12551,-0.09438 1.68781,-0.13755c-0.2012,0.66312 -0.36497,1.33217 -0.49508,2.00552c-3.01164,1.25089 -5.29836,4.67294 -7.87086,6.5081z" fill="#8b5f23" stroke="none" stroke-width="0.5"/><path d="M234.27428,192.21488c-0.94752,0.17468 -1.85527,0.18799 -2.76293,0.25901c0.13794,-0.54165 0.30227,-1.08006 0.49571,-1.61438c2.09119,-0.13101 4.17935,-0.22917 6.26675,-0.30274c0.04098,0.06627 0.08189,0.13256 0.12271,0.19888c-1.31428,0.67962 -2.69348,1.19583 -4.12224,1.45923z" fill="#8b5f23" stroke="none" stroke-width="0.5"/><path d="M242.90253,184.3549l0.99439,-1.24466c0,0 0.08263,-0.10304 0.22768,-0.21528c-0.93196,1.46738 -1.73797,3.00672 -2.37052,4.59809c-0.76521,-0.11516 -1.54136,-0.20062 -2.32202,-0.26388c1.26387,-0.88337 2.43491,-1.89266 3.47048,-2.87426z" fill="#8b5f23" stroke="none" stroke-width="0.5"/><path d="M245.84726,184.67427l-0.07753,0.09635c0.08381,-0.13502 0.16899,-0.26945 0.25544,-0.40325c-0.08258,0.18802 -0.17791,0.30689 -0.17791,0.30689z" fill="#8b5f23" stroke="none" stroke-width="0.5"/><path d="M262.82166,178.91863c-2.1326,1.50236 -5.43832,3.09288 -8.07988,1.72668c-1.00336,-0.51893 -1.66439,-1.66842 -2.03232,-3.02281c0.78361,-0.09621 1.56168,-0.16986 2.32895,-0.22266c0.19025,0.49224 0.49784,0.87644 0.95234,1.07981c1.51526,0.67803 3.52152,-0.35254 4.88339,-1.255c1.09314,-0.0554 2.199,-0.14492 3.30692,-0.27462c0.08487,0.30913 0.12762,0.61786 0.11683,0.92266c-0.48538,0.35395 -0.98325,0.69653 -1.47623,1.04594z" fill="#8b5f23" stroke="none" stroke-width="0.5"/><path d="M253.1187,171.05298c0.63624,-1.0953 1.32957,-1.77878 2.11717,-2.22278c0.16244,0.08153 0.32069,0.15715 0.47416,0.22538c0.51386,0.22842 1.02685,0.45712 1.53879,0.68665c-1.59111,1.37631 -3.24716,2.68561 -4.85674,4.03885c0.09449,-1.09114 0.34483,-2.07085 0.72662,-2.7281z" fill="#8b5f23" stroke="none" stroke-width="0.5"/><path d="M277.08996,161.1765c-2.89749,2.0431 -6.82635,4.51006 -8.2874,7.90868c-0.41902,0.9747 -0.43365,2.11815 -0.56868,3.20354c-0.75783,-0.40915 -1.52095,-0.80789 -2.28876,-1.19816c0.11795,-1.02453 0.17405,-2.09182 0.55924,-2.98938c1.12973,-2.63254 3.39529,-4.72457 5.77063,-6.53437c0.8184,-0.21455 1.64093,-0.42242 2.45172,-0.67236c1.0756,-0.33157 2.1433,-0.67487 3.20668,-1.02412z" fill="#8b5f23" stroke="none" stroke-width="0.5"/><path d="M265.17608,173.64922c0.02416,-0.03793 0.0478,-0.07623 0.07091,-0.1149c0.38333,0.19666 0.76542,0.39562 1.14619,0.59713c-0.27451,0.04713 -0.54915,0.09131 -0.82362,0.13269c-0.12607,-0.20903 -0.25793,-0.41417 -0.39347,-0.61492z" fill="#8b5f23" stroke="none" stroke-width="0.5"/><path d="M255.81224,174.18518c0.59546,-0.4896 1.19188,-0.97847 1.78406,-1.47192c0.77129,-0.42051 1.52779,-0.86911 2.27281,-1.33513c0.21738,0.21985 0.43232,0.44148 0.64463,0.66502c0.34515,0.3634 0.79895,0.80987 1.27204,1.31187c-0.85493,0.56084 -1.79765,1.04019 -2.61313,1.4303c-0.38016,0.00733 -0.75447,0.01068 -1.1219,0.01048c-0.70437,0 -1.42061,0.0166 -2.1453,0.05083c-0.10458,-0.25049 -0.12406,-0.47098 -0.09322,-0.66146z" fill="#8b5f23" stroke="none" stroke-width="0.5"/><path d="M264.19629,169.21695c0.12935,0.36662 0.16421,0.72084 0.12195,1.06204c-0.86863,-0.42561 -1.74264,-0.84226 -2.62117,-1.25267c0.07458,-0.07502 0.14884,-0.15036 0.22277,-0.22605c0.3416,-0.34969 0.67142,-0.71306 0.99713,-1.08164c0.53385,0.21937 0.9859,0.66664 1.27932,1.49832z" fill="#8b5f23" stroke="none" stroke-width="0.5"/><path d="M251.43037,184.55066c-0.24929,0.5995 -1.09798,0.72605 -1.51628,1.22261c-0.55622,0.66028 -1.02909,1.3952 -1.55103,2.08446c-1.04842,0.00781 -2.09613,0.01847 -3.1434,0.03298c0.10144,-0.40656 0.4011,-0.6807 0.4011,-0.6807c1.16365,-1.04747 2.77956,-2.61008 3.57261,-3.77551c0.43752,-0.64296 -0.64032,-1.42248 -0.86302,-2.16761c-0.00048,-0.00161 -0.00096,-0.00321 -0.00144,-0.00482c0.67782,-0.80986 1.38087,-1.57763 2.08285,-2.29177c0.43274,1.84418 1.81116,3.67443 1.01861,5.58036z" fill="#8b5f23" stroke="none" stroke-width="0.5"/><path d="M251.90121,174.10667c0.01352,0.01907 0.02643,0.03804 0.03874,0.0569c-0.4877,0.41533 -0.97012,0.83572 -1.44408,1.2643c-0.72097,0.12234 -1.44207,0.26354 -2.16021,0.42454c0.13183,-0.341 0.29123,-0.68918 0.47947,-1.04955l1.34345,-0.99318c0,0 1.01982,-0.72282 1.74264,0.297z" fill="#8b5f23" stroke="none" stroke-width="0.5"/><path d="M273.64932,170.84243c-0.72282,-1.01982 0.297,-1.74264 0.297,-1.74264c1.95519,-1.38579 4.01332,-3.34836 6.4367,-3.83786c0.40402,-0.08161 0.90716,-0.05777 1.39479,-0.11334c-0.71893,0.86085 -1.49958,1.63766 -1.87518,2.12742c-0.35824,0.46713 -0.7463,0.90668 -1.16074,1.32016c-1.15504,0.73123 -2.26215,1.7476 -3.20567,2.43921c-0.1564,0.09147 -0.31451,0.18086 -0.47421,0.26822c-0.36028,0.12982 -0.94789,0.19461 -1.41269,-0.46117z" fill="#8b5f23" stroke="none" stroke-width="0.5"/><path d="M280.12967,159.21078c-0.01843,-0.01721 -0.03668,-0.03444 -0.05473,-0.0517c0.25617,-0.08577 0.51223,-0.17167 0.76823,-0.2576c1.22115,0.7824 2.13088,1.75938 2.4245,2.99898c0.03851,0.16257 0.0465,0.3332 0.02873,0.50983c-0.63532,-1.34966 -2.42912,-2.51097 -3.16673,-3.19951z" fill="#8b5f23" stroke="none" stroke-width="0.5"/><path d="M285.36677,165.64832c-0.41857,0.81477 -1.10241,1.26675 -1.86657,1.54208c1.12096,-1.51131 2.07905,-3.22831 2.246,-4.72983c0.21409,1.07913 0.13482,2.18675 -0.37943,3.18775z" fill="#8b5f23" stroke="none" stroke-width="0.5"/><path d="M281.7279,152.43193c0.88064,0.88711 -0.00647,1.76776 -0.00647,1.76776l-0.76645,0.67684c-0.07524,0.54769 -0.02344,0.96894 0.11646,1.31441c-0.08455,0.02833 -0.1691,0.05667 -0.25366,0.08502c-0.77988,-0.43001 -1.55889,-0.79884 -2.25923,-1.10227c0.02303,-0.46738 0.08759,-0.95016 0.17771,-1.44924l1.22389,-1.29898c0,0 0.88711,-0.88064 1.76776,0.00647z" fill="#8b5f23" stroke="none" stroke-width="0.5"/><path d="M240.11093,195.7437c0.72282,1.01982 -0.297,1.74264 -0.297,1.74264l-0.18808,0.13331c-0.71625,0.43138 -1.3149,1.23247 -2.14874,1.29414c-1.48253,0.10965 -2.6118,-2.37517 -3.76009,-2.02632c-2.47952,0.75328 -1.89405,2.97396 -2.51785,4.85953c-0.26208,-2.00034 -0.37837,-4.02128 -0.21827,-6.02189c1.3115,-1.12354 2.85575,-1.62481 4.64156,-0.89192c0.71624,0.29394 0.94677,1.77589 1.69722,1.58557c0.38826,-0.09847 0.57369,-0.55916 0.86053,-0.83874l0.18808,-0.13331c0,0 1.01982,-0.72282 1.74264,0.297z" fill="#8b5f23" stroke="none" stroke-width="0.5"/><path d="M224.08877,202.14464c0.07657,-0.09855 0.14494,-0.19758 0.20055,-0.29732c0.7064,-1.26684 1.16988,-2.61845 1.75154,-3.94389c0,0 0.5026,-1.14451 1.64711,-0.6419c0.45037,0.19778 0.64569,0.49495 0.71695,0.78267c0.00312,0.18004 0.00793,0.3601 0.01437,0.54015c-0.0318,0.19308 -0.08942,0.32429 -0.08942,0.32429c-0.47117,1.07215 -0.77829,2.52449 -1.46411,3.56016c0.59377,-0.38324 1.27953,-0.65627 1.76713,-1.15195c0.08287,0.70442 0.1854,1.40647 0.30342,2.10437c-1.65042,-0.26275 -3.2688,-0.67571 -4.84754,-1.27659z" fill="#8b5f23" stroke="none" stroke-width="0.5"/><path d="M226.67898,205.59751c-1.51155,0.51355 -3.02163,0.39257 -3.78777,-1.24367c1.10685,0.43607 2.39957,0.8708 3.78777,1.24367z" fill="#8b5f23" stroke="none" stroke-width="0.5"/><path d="M246.50187,146.85368c1.63695,1.3901 3.21503,2.83227 4.66941,4.36355c0.8288,0.87262 2.28408,2.22422 3.12848,3.67349c-1.80854,0.50951 -3.56747,1.16788 -5.26,2.0167c-2.88953,-1.34738 -5.8898,-3.62776 -9.17699,-3.10665c-2.38778,0.37853 -3.72466,2.53368 -5.64956,3.65762c-2.58182,1.50751 -5.06784,2.11658 -7.85553,3.03707c-0.04087,0.01258 -0.08169,0.02535 -0.12246,0.03831c-0.23213,-0.41589 -0.46306,-0.83251 -0.69632,-1.24773c3.78927,-1.90322 7.6342,-5.40242 8.77959,-9.01243c0.22727,-0.7163 0.28516,-1.53213 0.23662,-2.37588z" fill="#a37029" stroke="#ffffff" stroke-width="0"/><path d="M223.25427,155.65535c-0.02025,-1.06239 1.1446,-1.79117 1.68283,-2.70735c0.85066,-1.44802 1.57085,-2.90589 2.2181,-4.40359l4.9139,-0.42943c0.01904,0.55214 -0.02801,1.07821 -0.17309,1.54091c-0.91773,2.92683 -4.42446,5.90359 -7.62952,7.47065c-0.35523,-0.49106 -1.00087,-0.87572 -1.01222,-1.47118z" fill="#a37029" stroke="#ffffff" stroke-width="0"/><path d="M242.90084,169.33069c1.62135,-0.96111 2.89881,-2.99579 4.86072,-3.34924c2.50683,-0.45161 5.72701,2.08663 7.94847,3.07412c0.51386,0.22842 1.02685,0.45712 1.53879,0.68665c-0.51026,0.44138 -1.0272,0.87586 -1.54715,1.30712l-17.92626,1.56659c0.35153,-0.45287 0.68495,-0.923 1.00714,-1.40389c1.38694,-0.49406 2.74622,-1.06802 4.11829,-1.88136z" fill="#a37029" stroke="#ffffff" stroke-width="0"/><path d="M294.51782,163.99425c0.16544,1.89309 1.04074,4.8846 1.45972,6.23688c-0.25981,0.27617 -0.53103,0.54125 -0.81275,0.79565l-13.88329,1.21328c-0.30247,-0.1483 -0.6056,-0.29551 -0.90934,-0.44174c0.55715,-0.50137 1.03086,-1.08178 1.22771,-1.81323c0.21127,-0.78503 0.19581,-1.56717 0.02942,-2.3283c0.70537,-0.75473 1.45387,-1.4645 2.31635,-2.05079c2.33437,-1.58686 5.08602,-1.95499 7.7143,-2.76519c0.94998,-0.29284 1.89379,-0.59484 2.83391,-0.902c-0.02586,0.77875 -0.02445,1.50141 0.02397,2.05545z" fill="#a37029" stroke="#ffffff" stroke-width="0"/><path d="M273.62367,147.98823c-2.89533,0.89383 -5.82929,1.34784 -8.40426,3.09243c-0.71297,0.48305 -1.35311,1.03745 -1.95509,1.62967c-0.46969,-0.78704 -1.02354,-1.51987 -1.54894,-2.17157c-1.26826,-1.57312 -2.707,-3.0421 -4.24,-4.44103c4.18152,-0.7971 8.58363,-0.90863 12.98456,-0.92586c1.54214,0.38824 4.19636,0.85674 6.66512,1.6952c-1.16114,0.3824 -2.32679,0.75854 -3.50139,1.12116z" fill="#a37029" stroke="#ffffff" stroke-width="0"/><path d="M278.00009,154.47909c0,0 -0.01893,0.16101 -0.04907,0.43906c-0.07797,-0.03183 -0.15446,-0.06269 -0.22932,-0.09258c-0.23277,-0.09292 -0.47102,-0.17915 -0.71361,-0.25979z" fill="#a37029" stroke="#ffffff" stroke-width="0"/><path d="M219.43741,142.56531c-0.45843,0.97348 -0.95896,1.93259 -1.52102,2.88681c-0.55181,0.93682 -2.03567,3.3843 -2.02771,4.01232c0.01749,1.37947 1.77323,3.9046 2.99698,5.72159c-0.44477,0.14595 -0.89447,0.27233 -1.35479,0.35707c-2.38491,0.43906 -3.49089,-1.15708 -5.63518,-1.7081c-5.91439,-1.51982 -10.5552,-5.03159 -14.51683,-9.34197z" fill="#a37029" stroke="#ffffff" stroke-width="0"/><path d="M207.91645,166.20354c1.82428,1.13316 4.03657,2.35368 6.08467,3.03914c1.21654,0.40715 2.61962,0.28235 3.74021,0.90685c0.75367,0.42002 1.38473,0.80574 2.02322,1.09243l-17.74844,1.55106c-0.522,-3.08782 1.61946,-6.03123 3.80118,-8.04844c0.67843,0.52215 1.37759,1.01075 2.09915,1.45895z" fill="#a37029" stroke="#ffffff" stroke-width="0"/><path d="M201.21743,160.44486c0.85531,0.9385 1.74601,1.84119 2.67722,2.6869c-0.45718,0.44112 -0.90671,0.91566 -1.33409,1.4184c-0.07011,-0.61081 -0.76123,-2.5496 -1.34313,-4.10531z" fill="#a37029" stroke="#ffffff" stroke-width="0"/><path d="M225.03878,166.52322c-1.46125,-0.52861 -2.56452,-1.42565 -4.16805,-1.68975c-1.76086,-0.29 -3.69684,0.24546 -5.56952,0.73364c-0.71209,-0.51499 -1.40234,-1.0607 -2.07286,-1.63291c2.56691,-0.46713 5.28618,-1.59216 7.85889,-1.19359c1.84334,0.28558 3.05474,1.21162 4.7079,1.81922c0.76588,0.28149 1.58329,0.44929 2.42405,0.53075c-0.0449,0.13764 -0.06957,0.25146 -0.06852,0.33392c0.00613,0.48372 0.226,1.1083 0.56171,1.79383c-1.26391,-0.06129 -2.50562,-0.27259 -3.6736,-0.6951z" fill="#8b5f23" stroke="none" stroke-width="0.5"/><path d="M211.53015,166.02406c-0.07643,-0.0477 -0.14968,-0.10859 -0.21394,-0.18624c0.07108,0.06243 0.14239,0.12451 0.21394,0.18624z" fill="#8b5f23" stroke="none" stroke-width="0.5"/><path d="M237.25698,164.6062c0.37598,0.98254 -0.60656,1.35852 -0.60656,1.35852l-1.38701,0.52814c-1.1033,0.25709 -2.26544,0.47678 -3.44475,0.60958c-0.03032,-0.04939 -0.06076,-0.09871 -0.09132,-0.14796c-0.33423,-0.53864 -1.06487,-0.93361 -1.07695,-1.5674c-0.0018,-0.09447 0.00577,-0.18629 0.02143,-0.27585c1.37246,-0.09375 2.73577,-0.34089 3.97531,-0.63011l1.25135,-0.48146c0,0 0.98254,-0.37598 1.35852,0.60656z" fill="#8b5f23" stroke="none" stroke-width="0.5"/><path d="M253.50467,159.46765c1.28145,0.58935 3.47522,0.83104 3.04443,3.06801c-0.31796,1.65112 -2.30922,2.00378 -4.22653,1.99749c-1.35379,-0.6294 -2.746,-1.099 -4.19235,-1.07584c-0.00985,-0.07796 -0.01248,-0.16292 -0.00641,-0.25551c0.06884,-1.04976 1.1186,-0.98093 1.1186,-0.98093c1.34964,0.08985 2.70662,0.07602 4.05786,0.01475c0.39712,-0.01801 1.03623,0.25 1.18673,-0.11794c0.01999,-0.04887 -3.75571,-1.66217 -4.34293,-1.57699c-0.9466,0.13731 -2.6699,1.62481 -3.40542,3.1058c-0.88069,0.24747 -1.61785,0.73715 -2.31117,1.29825c0.04755,-0.74249 0.27069,-1.54375 0.60042,-2.31197c1.95088,-1.74525 4.05424,-3.05219 6.26876,-4.03097c0.69645,0.17939 1.40592,0.49696 2.20802,0.86585z" fill="#8b5f23" stroke="none" stroke-width="0.5"/><path d="M251.42697,168.99867c-1.97636,0.16701 -4.6788,-0.02066 -6.16905,-1.61802c0.55626,-0.48385 1.13637,-0.92375 1.78889,-1.18953c1.07421,0.86135 2.99767,0.82032 4.19697,0.71149c0.12646,-0.01105 0.25469,-0.02084 0.38429,-0.03004c1.09288,0.53241 2.17067,1.19231 3.13141,1.70922c-1.07827,0.25493 -2.20701,0.31852 -3.33252,0.41688z" fill="#8b5f23" stroke="none" stroke-width="0.5"/><path d="M259.9511,164.3978c-0.95438,0.70373 -1.5172,1.92675 -2.35548,2.76084c-0.28975,-0.12938 -0.57984,-0.25855 -0.87024,-0.38759c-0.42826,-0.19031 -0.85884,-0.40397 -1.29231,-0.62873c0.14056,-0.07499 0.27712,-0.15874 0.40894,-0.25243c1.09922,-0.78126 1.74016,-2.3584 2.85792,-3.1837c0.30972,-0.22868 0.63462,-0.43504 0.97212,-0.62162c0.47156,0.49294 0.97356,1.04577 1.41414,1.63018c-0.40172,0.19693 -0.78224,0.42288 -1.13507,0.68305z" fill="#8b5f23" stroke="none" stroke-width="0.5"/><path d="M263.45352,162.8962c-0.41266,-0.64855 -0.87375,-1.25616 -1.31638,-1.80681c2.05609,-0.59196 4.3073,-0.77662 6.34806,-0.95202c-0.99252,0.37255 -1.95739,0.83085 -2.87652,1.45358c-0.5189,0.35156 -0.99922,0.74092 -1.45433,1.15514c-0.23545,0.04547 -0.46934,0.09528 -0.70083,0.15012z" fill="#8b5f23" stroke="none" stroke-width="0.5"/><path d="M269.4297,159.77687c0,0 0.28884,-0.17742 0.63932,-0.16687c-0.22816,0.06828 -0.45541,0.13879 -0.68154,0.21243z" fill="#8b5f23" stroke="none" stroke-width="0.5"/><path d="M235.27417,169.74012c-0.27528,-0.08047 -0.56768,-0.28626 -0.67377,-0.78028c-0.22087,-1.02857 0.8077,-1.24944 0.8077,-1.24944c0.94303,-0.19458 2.17841,-0.48634 3.19338,-0.82816c-0.4608,0.75111 -0.9192,1.50402 -1.39849,2.23785c-0.63325,0.21313 -1.27428,0.41399 -1.92882,0.62003z" fill="#8b5f23" stroke="none" stroke-width="0.5"/><path d="M239.90241,164.54501c0.5152,-2.11451 1.30908,-3.36679 3.09963,-4.4894l1.37068,-0.14748c-0.62838,0.50758 -1.2432,1.05302 -1.84333,1.63908c-1.01735,0.9935 -1.87064,2.13305 -2.66152,3.32754c0.00052,-0.11675 0.0098,-0.2282 0.03454,-0.32974z" fill="#8b5f23" stroke="none" stroke-width="0.5"/><path d="M241.5901,167.20134c-0.15661,0.09119 -0.31288,0.17909 -0.46888,0.26396c0.25412,-0.40545 0.5124,-0.80704 0.77864,-1.20118c-0.07564,0.32698 -0.17225,0.64302 -0.30976,0.93722z" fill="#8b5f23" stroke="none" stroke-width="0.5"/><path d="M275.09059,162.74095c0.65119,2.07237 0.33251,4.94121 -1.6465,6.20078c-1.41472,0.90042 -3.01156,0.02039 -4.22207,-0.43937c-1.34559,-0.51107 -3.28172,-0.07854 -4.78484,0.12311c0.09576,-0.18455 0.17372,-0.37959 0.22947,-0.58673c0.14149,-0.52573 0.18129,-1.05017 0.14217,-1.56786c1.71961,-0.21194 3.57005,-0.47951 5.17933,0.07191c0.71527,0.24509 1.55967,1.05417 2.48459,0.53257c1.79727,-1.01354 0.25572,-3.85667 -0.09664,-5.0358c-0.04782,-0.16004 -0.08635,-0.3162 -0.1161,-0.46882c0.71396,-0.18726 1.43115,-0.3692 2.14101,-0.57821c0.14723,0.54359 0.48089,1.08426 0.68958,1.74842z" fill="#8b5f23" stroke="none" stroke-width="0.5"/><path d="M273.69585,157.46205l1.44115,-0.42337c0,0 0.98211,-0.2532 1.26632,0.70192c-0.79358,0.25738 -1.5899,0.51079 -2.39038,0.75791c-0.44172,0.13637 -0.88433,0.26249 -1.32644,0.38453c0.26076,-0.48658 0.60847,-0.95277 1.00935,-1.42099z" fill="#8b5f23" stroke="none" stroke-width="0.5"/><path d="M217.93635,172.66909c-1.70586,0.73671 -6.6478,1.01038 -6.32289,-2.19625c0.08058,-0.79527 1.38951,-0.79072 2.07808,-1.19668c0.40565,-0.23916 0.7904,-0.50284 1.16661,-0.77762c0.0217,0.01358 0.04341,0.02711 0.06515,0.04062c0.61266,0.38055 1.26907,0.77096 1.94834,1.14765c-0.49766,0.42916 -1.01808,0.86351 -1.57273,1.13587c0.64692,-0.02831 1.31754,0.08461 1.92242,-0.13241c0.31251,-0.11212 0.54755,-0.25789 0.7359,-0.425c0.57752,0.29459 1.16317,0.57128 1.74508,0.8167c-0.48864,0.61128 -0.99283,1.25323 -1.76596,1.58713z" fill="#8b5f23" stroke="none" stroke-width="0.5"/><path d="M218.09299,161.79665c0.20794,0.27242 0.17858,0.72647 0.19511,1.12202c-0.29458,-0.1262 -0.60579,-0.23854 -0.94263,-0.3251c-1.33701,-0.34357 -2.60893,-0.78894 -3.82263,-1.32231c1.26658,-0.11897 2.5555,-0.1249 3.88893,-0.17312c0.24151,0.18967 0.46943,0.42102 0.68122,0.69851z" fill="#8b5f23" stroke="none" stroke-width="0.5"/><path d="M226.44572,170.62778l0.19328,-0.01689c0,0 0.91704,-0.08014 1.11044,0.76733c-0.52323,-0.16811 -1.00315,-0.42244 -1.49762,-0.68605c0.06471,-0.02558 0.12937,-0.04838 0.1939,-0.06439z" fill="#8b5f23" stroke="none" stroke-width="0.5"/><path d="M224.518,172.7506c-0.25314,-0.12403 -0.43727,-0.33611 -0.58187,-0.59295c0.28182,0.07994 0.5544,0.18392 0.81206,0.32751c0.23731,0.13225 0.46247,0.26111 0.67953,0.38454c-0.319,0.03031 -0.62855,0.01867 -0.90971,-0.11909z" fill="#8b5f23" stroke="none" stroke-width="0.5"/><path d="M217.38151,166.94202c0.22632,0.01731 0.47357,0.1211 0.69421,0.40281c-0.23364,-0.131 -0.46502,-0.26531 -0.69421,-0.40281z" fill="#8b5f23" stroke="none" stroke-width="0.5"/><path d="M314.77279,164.62961c0,0 0.41205,5.27502 1.05872,7.5059c0.25443,0.87773 0.71913,1.97287 1.20788,3.01185l-0.52325,0.1458c-2.11857,0.41471 -4.24827,0.66227 -6.3732,0.94318c-0.12066,-1.40471 -0.2923,-2.75607 -0.45445,-3.97702c-0.24351,-1.8336 -0.27524,-4.24925 -1.90695,-5.60315z" fill="#a37029" stroke="#ffffff" stroke-width="0"/><path d="M306.65148,176.76209c-2.44318,0.43655 -4.50204,1.26678 -7.01813,1.34311c-1.46304,0.04438 -2.92931,0.0318 -4.39784,-0.02125c2.41837,-3.22289 5.255,-6.09451 8.91419,-8.28987c0.74399,-0.36501 1.78238,-1.74925 2.24729,-1.06323c0.60454,0.89204 0.70031,2.97378 0.81248,3.85178c0.15095,1.18152 0.3376,2.55956 0.46898,4.00654c-0.34263,0.05446 -0.68498,0.11182 -1.02697,0.17292z" fill="#a37029" stroke="#ffffff" stroke-width="0"/><path d="M290.18397,176.47006c-1.25134,-1.11701 -2.29087,-2.41918 -3.29495,-3.75774l14.67973,-4.25524c-2.43003,1.55107 -4.84748,3.36622 -6.7074,5.5202c-1.05464,1.22138 -2.01158,2.49685 -2.8999,3.80955c-0.64073,-0.40257 -1.24255,-0.83929 -1.77747,-1.31678z" fill="#a37029" stroke="#ffffff" stroke-width="0"/><path d="M271.38635,180.25251l10.22157,-2.96294c1.1301,1.43845 2.22564,2.88021 3.47894,4.17332c-4.56948,-0.4383 -9.14577,-1.00585 -13.70051,-1.21038z" fill="#a37029" stroke="#ffffff" stroke-width="0"/><path d="M286.25894,206.19565c-1.72876,-1.29531 -3.45085,-2.68274 -4.71788,-4.37586c-0.18297,-0.2445 -0.37288,-0.49171 -0.56486,-0.74137c1.57816,-1.97913 2.97349,-4.09943 4.28264,-6.28322c2.03782,0.1501 4.07931,0.35274 6.12167,0.56349c-1.88985,0.782 -3.70339,1.66809 -5.29858,2.84456l0.01575,2.34165c0,0 0.55902,1.11803 1.67705,0.55902c0.82771,-0.41385 0.73626,-1.13409 0.63295,-1.48024c2.47338,-1.6375 5.30157,-2.6862 8.104,-3.74451c1.07089,0.10133 2.14137,0.19467 3.21104,0.27361c0.44141,0.25302 0.90562,0.48631 1.39632,0.69694c2.40247,1.03121 4.88024,1.89331 7.28447,2.92685z" fill="#a37029" stroke="#ffffff" stroke-width="0"/><path d="M278.52041,194.61968c1.24982,-0.00155 2.50134,-0.00152 3.75504,-0.00167c0.07637,0.00331 0.15274,0.00673 0.22912,0.01025c-0.9255,1.5182 -1.91622,2.9953 -3.01492,4.40654c-0.92461,-1.43349 -1.51805,-2.91973 -0.96924,-4.41512z" fill="#a37029" stroke="#ffffff" stroke-width="0"/><path d="M320.38521,190.68709l-14.81444,4.29429c-1.16814,-0.54814 -2.38569,-0.98141 -3.6062,-1.40643c0.74633,-0.38377 1.46964,-0.80118 2.16092,-1.26641c1.49676,-0.30613 2.93693,-0.73496 4.5278,-1.01896c3.28606,-0.58663 6.60779,-0.83118 9.90018,-1.47562l1.10815,-0.30082c0,0 0.02767,-0.0076 0.07348,-0.0247c0.38151,0.72285 0.65012,1.19866 0.65012,1.19866z" fill="#a37029" stroke="#ffffff" stroke-width="0"/><path d="M253.32441,192.86217c-0.4085,-0.90836 -0.87118,-1.81236 -1.36916,-2.71216l6.68074,-1.93656c0.58018,-0.00384 1.1606,-0.00686 1.74131,-0.00925c-0.45702,3.10049 2.30005,6.45412 3.98225,8.69263c1.05476,1.40358 2.36841,2.61362 3.75722,3.73407l-5.33024,1.54509c-1.93443,-0.95403 -3.82917,-2.15249 -5.72255,-3.6339c-1.22087,-0.95523 -2.18948,-2.03402 -3.08464,-3.13054c-0.15163,-0.89623 -0.31314,-1.78935 -0.65493,-2.54937z" fill="#a37029" stroke="#ffffff" stroke-width="0"/><path d="M249.38619,208.45425c0.24985,-2.35663 -0.14245,-4.96099 -0.08594,-7.16528l3.77843,-1.09526c2.0857,1.1225 3.45602,2.87111 4.84136,4.67155c0.15838,0.88093 0.29786,1.77267 0.54366,2.50007c0.34605,0.48979 0.65964,1.00992 0.98017,1.52413c-2.99049,0.52615 -6.0183,0.97206 -9.05181,1.56023c-0.22621,0.04386 -0.45646,0.08885 -0.69027,0.13437c-0.08067,-0.78802 -0.1838,-1.53128 -0.31559,-2.12981z" fill="#a37029" stroke="#ffffff" stroke-width="0"/><path d="M249.98947,216.25484c0,0 -0.01028,-1.42343 -0.10036,-3.14982c3.77512,-0.6817 7.57188,-1.21802 11.30833,-1.94117c0.01859,0.01685 0.03729,0.0336 0.05613,0.05022c0.52503,0.46351 1.10173,0.88647 1.7142,1.27873z" fill="#a37029" stroke="#ffffff" stroke-width="0"/><path d="M239.70582,193.70078l0.84207,-0.24409c-0.00688,0.53227 0.00145,1.06643 0.01441,1.60052c-0.49038,-0.78605 -0.85648,-1.35643 -0.85648,-1.35643z" fill="#a37029" stroke="#ffffff" stroke-width="0"/><path d="M271.9605,204.02857c-1.46672,-0.22488 -2.67829,-0.84259 -4.19892,-0.85293c-0.12555,-0.72808 -0.26671,-1.44719 -0.51524,-2.08731c0.03486,-0.00198 0.06974,-0.0037 0.10465,-0.00514c1.86375,-0.07696 3.2316,0.59685 4.97115,0.87266c1.18094,0.18724 2.42312,0.11355 3.65627,-0.11949c0.14245,0.22097 0.28836,0.43857 0.43583,0.65217c-0.57597,0.56133 -1.17968,1.10595 -1.81475,1.63176c-0.88625,0.06375 -1.77048,0.04144 -2.63899,-0.09172z" fill="#8b5f23" stroke="none" stroke-width="0.5"/><path d="M269.75675,191.80074c0.55921,0.89108 -0.33187,1.45029 -0.33187,1.45029l-1.25842,0.78685c-0.69486,0.31357 -1.41914,0.61568 -2.16331,0.88908c-0.43768,-0.57143 -0.89575,-1.15637 -1.31434,-1.75161c0.86781,-0.29629 1.70473,-0.6401 2.48329,-0.99171l1.13436,-0.71477c0,0 0.89108,-0.55921 1.45029,0.33187z" fill="#8b5f23" stroke="none" stroke-width="0.5"/><path d="M245.51147,198.20496c0,0 -1.01042,0.29289 -1.30332,-0.71753c-0.29289,-1.01042 0.71753,-1.30332 0.71753,-1.30332c1.63413,-0.4676 3.26916,-1.39672 4.94471,-2.11395c0.48197,0.52881 0.93355,1.08804 1.3787,1.65885c-1.96351,0.71012 -3.90502,1.93865 -5.73762,2.47595z" fill="#8b5f23" stroke="none" stroke-width="0.5"/><path d="M277.60888,192.50527c-0.75232,-0.79306 -0.91453,-2.12385 -0.7249,-3.4986c0.64749,0.06721 1.29503,0.13473 1.94253,0.20116c-0.17339,0.76621 -0.10496,1.47038 0.37356,1.92083c1.15126,1.08373 3.40692,0.60159 4.72339,0.21523c0.17984,-0.05213 0.364,-0.10232 0.55075,-0.15241c-0.45892,0.843 -0.92756,1.67942 -1.41258,2.50539c-1.90162,0.32462 -4.09496,0.23973 -5.45275,-1.1916z" fill="#8b5f23" stroke="none" stroke-width="0.5"/><path d="M288.9068,191.62809c-0.75862,0.53137 -1.60355,0.88165 -2.48061,1.16955c0.33351,-0.58361 0.66306,-1.17 0.99043,-1.75774c0.49528,0.19925 0.99243,0.39434 1.49018,0.58819z" fill="#8b5f23" stroke="none" stroke-width="0.5"/><path d="M301.87091,180.88879c0.71385,0.77276 -0.05892,1.48661 -0.05892,1.48661l-1.0583,0.82642c-2.86788,0.82377 -6.67276,1.69957 -8.77317,3.99778c-0.07804,0.08539 -0.15146,0.1749 -0.22104,0.26783c-0.78165,0.01203 -1.56416,0.00875 -2.34739,-0.00732c0.03286,-0.06967 0.06588,-0.13924 0.09923,-0.20852c0.19787,-0.35616 0.39632,-0.7117 0.59577,-1.06629c0.0984,-0.1423 0.20374,-0.27739 0.31825,-0.40285c2.40229,-2.63189 6.45088,-3.63968 9.74258,-4.60147l0.2164,-0.3511c0,0 0.77276,-0.71385 1.48661,0.05892z" fill="#8b5f23" stroke="none" stroke-width="0.5"/><path d="M284.70108,183.61177c1.01774,0.24485 2.49135,0.20449 3.18803,1.09857c-0.46604,0.87677 -0.92443,1.75697 -1.38243,2.63637c-0.44501,-0.02487 -0.89019,-0.05285 -1.33551,-0.08349c-0.35739,-0.2175 -0.70394,-0.44512 -1.03496,-0.68397c0.30096,-0.06797 0.60117,-0.13897 0.90062,-0.21234c0.38611,-0.0946 1.06503,0.0445 1.1414,-0.34562c0.00739,-0.03776 -2.12443,-0.50022 -3.49769,-0.67182c-0.64726,-0.62947 -1.23958,-1.30718 -1.80483,-2.00962c1.1846,-0.33958 2.35759,-0.0812 3.82538,0.27192z" fill="#8b5f23" stroke="none" stroke-width="0.5"/><path d="M279.97663,186.81261c-0.80403,-0.08002 -1.6082,-0.1629 -2.41237,-0.24597c0.37076,-0.87388 0.84342,-1.62217 1.33589,-2.07466c0.48793,0.60923 0.98399,1.20759 1.5035,1.78297c-0.14499,0.16558 -0.28855,0.34619 -0.42702,0.53765z" fill="#8b5f23" stroke="none" stroke-width="0.5"/><path d="M273.89749,194.69515c-0.3638,0.40772 -1.07345,0.27387 -1.54317,0.55306c-1.01048,0.60061 -1.90149,1.4168 -2.97811,1.88869c0,0 -0.96629,0.41596 -1.38225,-0.55033c-0.41596,-0.96629 0.55033,-1.38225 0.55033,-1.38225c1.21445,-0.51125 2.93076,-1.30709 3.88317,-2.0145c0.52544,-0.39027 -0.11607,-1.30774 -0.08726,-1.96163c0.04494,-1.02013 0.18684,-1.86594 0.48379,-2.62602c0.70972,0.0655 1.41973,0.13494 2.12991,0.20645c-0.91334,1.76651 0.39999,4.2543 -1.05641,5.88652z" fill="#8b5f23" stroke="none" stroke-width="0.5"/><path d="M277.15705,186.52244c0.00021,0.00074 0.00043,0.00148 0.00064,0.00221c-0.89261,-0.09219 -1.78518,-0.18404 -2.67749,-0.2719c0.01033,-0.00981 0.02072,-0.01961 0.03114,-0.02942l1.34239,-0.41842c0,0 1.01042,-0.29289 1.30332,0.71753z" fill="#8b5f23" stroke="none" stroke-width="0.5"/><path d="M306.85653,177.53133c0.45502,0.94852 -0.4935,1.40354 -0.4935,1.40354l-0.7963,0.32633c-0.77481,1.52161 0.28118,2.16223 0.94547,3.37987c0.32696,0.59931 0.57518,1.29436 0.70916,2.01603c-0.04224,0.13207 -0.087,0.26224 -0.13438,0.39035c-0.62158,0.0926 -1.24359,0.17743 -1.86564,0.2595c-0.33257,-1.08238 -1.17337,-2.19352 -1.50808,-2.82813c-0.91294,-1.73092 -0.47085,-3.1868 0.40791,-4.74647l1.33182,-0.69456c0,0 0.94852,-0.45502 1.40354,0.4935z" fill="#8b5f23" stroke="none" stroke-width="0.5"/><path d="M301.87102,189.43027c-1.60728,-0.27261 -3.72324,0.78904 -5.21954,1.22278c0,0 -1.01042,0.29289 -1.30332,-0.71753c-0.03121,-0.10766 -0.04762,-0.20717 -0.05203,-0.29905c1.59285,-0.30788 3.10854,-0.77104 4.79322,-1.07179c1.77232,-0.3164 3.55502,-0.53328 5.3379,-0.76707c-0.59371,0.71492 -1.25169,1.3464 -1.96,1.91271c-0.5625,-0.06748 -1.11242,-0.198 -1.59623,-0.28005z" fill="#8b5f23" stroke="none" stroke-width="0.5"/><path d="M252.36425,203.45399c-1.53081,1.05324 -6.3261,2.27915 -6.62859,-0.92967c-0.07502,-0.79581 1.20999,-1.04493 1.80687,-1.57661c0.91155,-0.81197 1.6534,-1.75842 2.48197,-2.65144c0,0 0.71574,-0.77101 1.48675,-0.05527c0.77101,0.71574 0.05527,1.48675 0.05527,1.48675c-0.67077,0.72218 -1.31614,1.79191 -2.14746,2.42578c0.62918,-0.15311 1.30897,-0.17225 1.86034,-0.50234c1.01261,-0.60622 0.98248,-1.43998 1.37331,-2.22621c0.41251,0.64399 0.79924,1.31246 1.2401,1.93183c-0.39666,0.75098 -0.76844,1.57419 -1.52857,2.09718z" fill="#8b5f23" stroke="none" stroke-width="0.5"/><path d="M261.80659,200.4663c0.1522,0.52505 -0.04753,0.85635 -0.27453,1.05349c-0.71145,-0.39371 -1.41859,-0.82217 -2.12337,-1.28733c0.33241,0.02364 0.60525,-0.28772 0.90823,-0.42965l0.18635,-0.05402c0,0 1.01042,-0.29289 1.30332,0.71753z" fill="#8b5f23" stroke="none" stroke-width="0.5"/><path d="M258.48987,198.50249c0.36413,0.32188 0.33086,1.09455 0.55982,1.48971c-0.66316,-0.44996 -1.32452,-0.93278 -1.98571,-1.45011c-0.38762,-0.30328 -0.74981,-0.61902 -1.0923,-0.94382c0.87265,-0.0519 1.72689,0.20474 2.51819,0.90423z" fill="#8b5f23" stroke="none" stroke-width="0.5"/></g></g></svg>