<svg version="1.1" xmlns="http://www.w3.org/2000/svg" xmlns:xlink="http://www.w3.org/1999/xlink" width="719.7777" height="653.33194" viewBox="0,0,719.7777,653.33194"><g transform="translate(98.75815,-1.59312)"><g data-paper-data="{&quot;isPaintingLayer&quot;:true}" fill-rule="nonzero" stroke-linecap="butt" stroke-linejoin="miter" stroke-miterlimit="10" stroke-dasharray="" stroke-dashoffset="0" style="mix-blend-mode: normal"><g stroke="#000000" stroke-width="0"><path d="M-98.75815,138.48041v-114.54354h708.8859v114.54354z" fill="#afae9f"/><path d="M-98.75815,37.93689v-35h708.8859v35z" fill="#cccbba"/></g><path d="M576.92045,452.74027v-450.43514l44.0991,-0.71201v451.14715z" fill="#cccbba" stroke="#000000" stroke-width="0"/><path d="M576.92045,509.52706v-207.57579l44.0991,-0.32812v207.90391z" fill="#cccbba" stroke="#000000" stroke-width="0"/><g fill="#66655d" stroke-width="0"><path d="M307.64113,60.87669c0,5.80044 -1.67935,10.50263 -3.75094,10.50263c-2.07159,0 -3.75094,-4.70219 -3.75094,-10.50263c0,-5.80044 1.67935,-10.50263 3.75094,-10.50263c2.07159,0 3.75094,4.70219 3.75094,10.50263z" stroke="#ed1597"/><path d="M300.37542,53.09366c1.80833,3.15406 5.79324,11.23225 4.54628,11.94717c-0.7073,0.40552 -1.53404,3.29664 -3.66928,0.87013c-1.62915,-1.85138 -4.61002,-8.86333 -5.39262,-10.22834c-1.80833,-3.15406 -2.26341,-6.29049 -1.01646,-7.00541c1.24695,-0.71492 3.72375,1.26239 5.53208,4.41645z" stroke="none"/><path d="M311.29868,56.46482c-1.48126,3.04039 -4.67364,10.43598 -6.04182,9.76942c-1.36817,-0.66657 -0.39404,-9.14288 1.08722,-12.18327c1.48126,-3.04039 3.79118,-4.96475 5.15936,-4.29818c1.36817,0.66657 1.2765,3.67165 -0.20476,6.71204z" stroke="none"/></g><g fill="#66655d" stroke-width="0"><path d="M340.07095,85.56208c0,5.80044 -1.67935,10.50263 -3.75094,10.50263c-2.07159,0 -3.75094,-4.70219 -3.75094,-10.50263c0,-5.80044 1.67935,-10.50263 3.75094,-10.50263c2.07159,0 3.75094,4.70219 3.75094,10.50263z" stroke="#ed1597"/><path d="M332.80523,77.77904c1.80833,3.15406 5.79324,11.23225 4.54628,11.94717c-0.7073,0.40552 -1.53404,3.29664 -3.66928,0.87013c-1.62915,-1.85138 -4.61002,-8.86333 -5.39262,-10.22834c-1.80833,-3.15406 -2.26341,-6.29049 -1.01646,-7.00541c1.24695,-0.71492 3.72375,1.26239 5.53208,4.41645z" stroke="none"/><path d="M343.7285,81.1502c-1.48126,3.04039 -4.67364,10.43598 -6.04182,9.76942c-1.36817,-0.66657 -0.39404,-9.14288 1.08722,-12.18327c1.48126,-3.04039 3.79118,-4.96475 5.15936,-4.29818c1.36817,0.66657 1.2765,3.67165 -0.20476,6.71204z" stroke="none"/></g><g fill="#66655d" stroke-width="0"><path d="M316.35362,117.02384c0,5.80044 -1.67935,10.50263 -3.75094,10.50263c-2.07159,0 -3.75094,-4.70219 -3.75094,-10.50263c0,-5.80044 1.67935,-10.50263 3.75094,-10.50263c2.07159,0 3.75094,4.70219 3.75094,10.50263z" stroke="#ed1597"/><path d="M309.08791,109.2408c1.80833,3.15406 5.79324,11.23225 4.54628,11.94717c-0.7073,0.40552 -1.53404,3.29664 -3.66928,0.87013c-1.62915,-1.85138 -4.61002,-8.86333 -5.39262,-10.22834c-1.80833,-3.15406 -2.26341,-6.29049 -1.01646,-7.00541c1.24695,-0.71492 3.72375,1.26239 5.53208,4.41645z" stroke="none"/><path d="M320.01117,112.61196c-1.48126,3.04039 -4.67364,10.43598 -6.04182,9.76942c-1.36817,-0.66657 -0.39404,-9.14288 1.08722,-12.18327c1.48126,-3.04039 3.79118,-4.96475 5.15936,-4.29818c1.36817,0.66657 1.2765,3.67165 -0.20476,6.71204z" stroke="none"/></g><g stroke-width="0"><path d="M451.08971,653.39413v-22.96387h4.89896v22.96387c0,0 -0.18691,0.15102 -0.46998,0.35819c-0.61823,0.45245 -1.69516,1.17274 -2.28568,1.17274c-0.75926,0 -2.14329,-1.53092 -2.14329,-1.53092z" fill="#333333" stroke="#000000"/><path d="M446.62944,628.59315c0,-32.34599 0,-354.8188 0,-354.8188h13.85681c0,0 0,324.23509 0,355.43117c0,4.08473 -2.55614,6.98117 -6.64088,6.98117c-2.35538,0 -7.21593,-2.19183 -7.21593,-7.59354z" fill="#515151" stroke="none"/><path d="M446.62944,619.4076c0,-32.34599 0,-348.00062 0,-348.00062c0,0 2.21666,-4.65518 6.42034,-5c4.9911,-0.40941 7.43647,5 7.43647,5c0,0 0,317.41691 0,348.61299c0,4.08473 -2.55614,6.98117 -6.64088,6.98117c-2.35538,0 -7.21593,-2.19183 -7.21593,-7.59354z" fill="#717171" stroke="none"/></g><g stroke="#ffffff"><path d="M487.72894,73.44932c0,-5.92957 4.80687,-10.73644 10.73644,-10.73644c5.92957,0 10.73644,4.80687 10.73644,10.73644c0,5.92957 -4.80687,10.73644 -10.73644,10.73644c-5.92957,0 -10.73644,-4.80687 -10.73644,-10.73644z" fill="#ca2525" stroke-width="0"/><path d="M488.60897,73.44932c0,-5.44354 4.41286,-9.8564 9.8564,-9.8564c5.44354,0 9.8564,4.41286 9.8564,9.8564c0,5.44354 -4.41286,9.8564 -9.8564,9.8564c-5.44354,0 -9.8564,-4.41286 -9.8564,-9.8564z" fill="#f43737" stroke-width="0"/><text transform="translate(489.48901,74.07613) scale(0.07534,0.07534)" font-size="40" xml:space="preserve" fill="#ffffff" fill-rule="nonzero" stroke="#ffffff" stroke-width="1" stroke-linecap="butt" stroke-linejoin="miter" stroke-miterlimit="10" stroke-dasharray="" stroke-dashoffset="0" font-family="Sans Serif" font-weight="normal" text-anchor="start" style="mix-blend-mode: normal"><tspan x="0" dy="0">EMERGENCY</tspan><tspan x="0" dy="46.15px">       STOP</tspan></text></g></g></g></svg>