<svg version="1.1" xmlns="http://www.w3.org/2000/svg" xmlns:xlink="http://www.w3.org/1999/xlink" width="716.21622" height="429.601" viewBox="0,0,716.21622,429.601"><defs><radialGradient cx="384.56456" cy="192.76276" r="93.84384" gradientUnits="userSpaceOnUse" id="color-1"><stop offset="0" stop-color="#ffffff"/><stop offset="1" stop-color="#ffffff" stop-opacity="0"/></radialGradient><radialGradient cx="62.6028" cy="194.26426" r="93.84384" gradientUnits="userSpaceOnUse" id="color-2"><stop offset="0" stop-color="#ffffff"/><stop offset="1" stop-color="#ffffff" stop-opacity="0"/></radialGradient><radialGradient cx="259.86382" cy="185.25526" r="93.84384" gradientUnits="userSpaceOnUse" id="color-3"><stop offset="0" stop-color="#ffffff"/><stop offset="1" stop-color="#ffffff" stop-opacity="0"/></radialGradient><linearGradient x1="409.29028" y1="57.00833" x2="400.31459" y2="70.32479" gradientUnits="userSpaceOnUse" id="color-4"><stop offset="0" stop-color="#ffffff" stop-opacity="0.27419"/><stop offset="1" stop-color="#ffffff" stop-opacity="0"/></linearGradient><linearGradient x1="418.54989" y1="52.38361" x2="427.52557" y2="39.06716" gradientUnits="userSpaceOnUse" id="color-5"><stop offset="0" stop-color="#ffffff" stop-opacity="0.27419"/><stop offset="1" stop-color="#ffffff" stop-opacity="0"/></linearGradient><linearGradient x1="216.49739" y1="341.53573" x2="491.62549" y2="250.20993" gradientUnits="userSpaceOnUse" id="color-6"><stop offset="0" stop-color="#070707"/><stop offset="1" stop-color="#070707" stop-opacity="0"/></linearGradient><linearGradient x1="120.69946" y1="293.65255" x2="227.23383" y2="335.70559" gradientUnits="userSpaceOnUse" id="color-7"><stop offset="0" stop-color="#070707" stop-opacity="0"/><stop offset="1" stop-color="#070707"/></linearGradient><radialGradient cx="225.41276" cy="289.52816" r="82.55159" gradientUnits="userSpaceOnUse" id="color-8"><stop offset="0" stop-color="#070707"/><stop offset="1" stop-color="#070707" stop-opacity="0"/></radialGradient><radialGradient cx="186.5681" cy="263.26456" r="82.55159" gradientUnits="userSpaceOnUse" id="color-9"><stop offset="0" stop-color="#070707"/><stop offset="1" stop-color="#070707" stop-opacity="0"/></radialGradient><linearGradient x1="448.24205" y1="177.82685" x2="640.13109" y2="177.82685" gradientUnits="userSpaceOnUse" id="color-10"><stop offset="0" stop-color="#000000" stop-opacity="0"/><stop offset="1" stop-color="#000000"/></linearGradient><linearGradient x1="191.67761" y1="182.82685" x2="-0.21143" y2="182.82685" gradientUnits="userSpaceOnUse" id="color-11"><stop offset="0" stop-color="#000000" stop-opacity="0"/><stop offset="1" stop-color="#000000"/></linearGradient></defs><g transform="translate(53.61862,15)"><g stroke-miterlimit="10"><path d="M-1.56306,375v-390h656.63964v390z" fill="#070707" stroke="none" stroke-width="0" stroke-linecap="butt"/><path d="M478.40841,192.76276c0,56.80406 -42.01532,102.85285 -93.84384,102.85285c-33.66142,0 -60.55785,-38.556 -60.55785,-38.556l-1.83059,-129.62352c0,0 31.70549,-37.52619 62.38843,-37.52619c51.82852,0 93.84384,46.04879 93.84384,102.85285z" fill="url(#color-1)" stroke="#848484" stroke-width="0" stroke-linecap="butt"/><path d="M156.44664,194.26426c0,56.80406 -42.01532,102.85285 -93.84384,102.85285c-33.66142,0 -60.55785,-38.556 -60.55785,-38.556l-1.83059,-129.62352c0,0 31.70549,-37.52619 62.38843,-37.52619c51.82852,0 93.84384,46.04879 93.84384,102.85285z" fill="url(#color-2)" stroke="#848484" stroke-width="0" stroke-linecap="butt"/><path d="M259.86382,82.4024c30.68295,0 62.38843,37.52619 62.38843,37.52619l-1.83059,129.62352c0,0 -26.89643,38.556 -60.55785,38.556c-51.82852,0 -93.84384,-46.04879 -93.84384,-102.85285c0,-56.80406 42.01532,-102.85285 93.84384,-102.85285z" fill="url(#color-3)" stroke="#848484" stroke-width="0" stroke-linecap="butt"/><path d="M22.95796,414.601l-76.57658,-141.14114l387.85196,-102.15948l328.36426,151.70903l-10.51051,91.59159z" fill="#141414" stroke="#848484" stroke-width="0" stroke-linecap="butt"/><g stroke-width="0" stroke-linecap="butt"><path d="M370.17886,185.54204v-5.33522h1.6416v5.33522z" fill="#141414" stroke="none"/><path d="M358.41403,190.33006v-6.84002h1.7784v6.84002z" fill="#141414" stroke="#848484"/><path d="M329.27554,182.39564v-5.88241h1.2312v5.88241z" fill="#141414" stroke="#848484"/><path d="M334.94203,171.22064l1.00897,-9.83751l37.58434,5.04487l-0.50449,10.84649z" fill="#1f1f1f" stroke="#848484"/><path d="M372.7786,177.11633l-12.35995,4.28815l-33.80068,-7.06282l8.5763,-3.27918z" fill="#464646" stroke="#848484"/><path d="M326.39313,177.22258l0.21241,-3.61099l34.41052,7.00956l-0.84965,4.67303z" fill="#323232" stroke="#848484"/><path d="M359.78204,184.99485l0.54719,-4.10401l12.58564,-3.83042l-0.2736,3.96722z" fill="#252525" stroke="#848484"/></g><g stroke-width="0" stroke-linecap="butt"><path d="M260.29219,189.7709v-6.57039h2.02165v6.57039z" fill="#141414" stroke="none"/><path d="M274.61228,195.6674v-8.42358h2.19013v8.42358z" fill="#141414" stroke="#848484"/><path d="M311.1706,185.89606v-7.24427h1.51624v7.24427z" fill="#141414" stroke="#848484"/><path d="M258.8016,179.5893l-0.62129,-13.35759l46.28562,-6.21283l1.24256,12.11502z" fill="#1f1f1f" stroke="#848484"/><path d="M305.39784,171.93912l10.56182,4.03835l-41.62599,8.69796l-15.22144,-5.28091z" fill="#464646" stroke="#848484"/><path d="M274.64432,189.46565l-1.04635,-5.75489l42.37702,-8.63236l0.26158,4.44698z" fill="#323232" stroke="#848484"/><path d="M259.28136,184.21135l-0.33694,-4.88568l15.49939,4.71721l0.67388,5.05414z" fill="#252525" stroke="#848484"/></g><g stroke-width="0" stroke-linecap="butt"><path d="M130.60988,259.5461v-12.5598h3.86454v12.5598z" fill="#141414" stroke="none"/><path d="M102.91393,270.81771v-16.10229h4.18659v16.10229z" fill="#141414" stroke="#848484"/><path d="M34.31816,252.13906v-13.84796h2.8984v13.84796z" fill="#141414" stroke="#848484"/><path d="M47.65781,225.83167l2.37524,-23.15876l88.4784,11.87629l-1.18765,25.53403z" fill="#1f1f1f" stroke="#848484"/><path d="M136.72999,239.71089l-29.09692,10.09485l-79.57116,-16.6268l20.18971,-7.71961z" fill="#464646" stroke="#848484"/><path d="M27.5326,239.96102l0.50003,-8.50073l81.00681,16.5014l-2.00017,11.00091z" fill="#323232" stroke="#848484"/><path d="M106.1344,258.25793l1.28816,-9.66137l29.62823,-9.0173l-0.64409,9.33935z" fill="#252525" stroke="#848484"/></g><g stroke-width="0" stroke-linecap="butt"><path d="M433.66308,66.90903v-27.5h3.57143v27.5z" fill="#000000" stroke="#000000"/><path d="M400.80593,44.76617v-24.28572h2.85715v24.28572z" fill="#000000" stroke="none"/><path d="M378.00753,38.58481l12.45092,-6.83001l59.58572,39.64117l-12.45092,6.83001z" fill="#070707" stroke="none"/><path d="M371.8021,52.45238l8.97568,-13.31646l57.02499,35.74483l-8.97568,13.31645z" fill="url(#color-4)" stroke="#000000"/><path d="M456.03807,56.93957l-8.97568,13.31646l-57.02499,-35.74482l8.97568,-13.31646z" fill="url(#color-5)" stroke="#000000"/><path d="M380.96438,39.05783l9.85879,-5.6275l56.69492,37.46185l-9.65878,4.82751z" fill="#ffffff" stroke="none"/></g><path d="M222.625,299.63176l-53.125,-43.75l236.98864,-90.51136l44.94319,20.3409z" fill="#ffffff" stroke="#000000" stroke-width="0" stroke-linecap="butt"/><path d="M221.375,369.63176v-70l229.43182,-114.54545l-3.63637,77.54546z" fill="#a2a2a2" stroke="#000000" stroke-width="0" stroke-linecap="butt"/><g stroke="#000000" stroke-width="0" stroke-linecap="butt"><path d="M385.05976,164.56547l13.95034,-3.48758l5.61889,-1.7438v5.23138c0,0 -1.12443,4.45636 -1.74379,4.45636c-2.46452,0 -17.82544,-4.45636 -17.82544,-4.45636z" fill="#656565"/><path d="M377.08975,184.21402l31.40867,-9.99367l16.92805,9.99367l-27.21974,9.14607z" fill="#909090"/><path d="M382.39251,184.41797l16.31619,-4.48695c0,0 6.22361,0.1618 12.33076,0.64007c3.24462,0.2541 8.88029,3.03107 8.88029,3.03107l-20.59919,7.54623z" fill="#000000"/><path d="M386.9973,183.55344l-1.93754,-18.79421l12.98157,1.93755l0.38751,18.0192z" fill="#4c4c4c"/><path d="M404.44996,185.84564l-2.07011,-25.90195l18.76362,-3.67114l1.01976,23.65848z" fill="#787878"/><path d="M397.28103,159.73973l18.35572,-4.69091l5.30276,1.01976l-18.96758,4.48695z" fill="#888888"/><path d="M396.66918,185.142l0.61186,-26.01413l5.50672,1.22371l2.03952,25.2901z" fill="#6c6c6c"/><path d="M405.84703,182.17449l-0.81581,-19.98734l15.70434,-3.67114l0.61185,18.76362z" fill="#000000"/><path d="M397.48499,203.5895v-10.19762l28.14544,-9.99367l-0.20396,6.11858z" fill="#7c7c7c"/><path d="M377.90556,195.63535l-0.4079,-10.80947l19.98733,8.1581v10.19762z" fill="#6c6c6c"/></g><g stroke="#000000" stroke-width="0" stroke-linecap="butt"><path d="M338.716,178.60496l16.04048,-4.01012l6.46076,-2.00507v6.01519c0,0 -1.2929,5.12404 -2.00506,5.12404c-2.83378,0 -20.49618,-5.12404 -20.49618,-5.12404z" fill="#656565"/><path d="M329.55187,201.1974l36.11455,-11.49099l19.46434,11.49099l-31.298,10.5164z" fill="#909090"/><path d="M335.64913,201.43191l18.7608,-5.15922c0,0 7.15608,0.18605 14.17826,0.73598c3.73075,0.29217 10.21079,3.4852 10.21079,3.4852l-23.68551,8.67687z" fill="#000000"/><path d="M340.94385,200.43785l-2.22785,-21.61011l14.92656,2.22785l0.44557,20.71896z" fill="#4c4c4c"/><path d="M361.01139,203.07348l-2.38027,-29.78278l21.57492,-4.22118l1.17256,27.20316z" fill="#787878"/><path d="M352.76836,173.05619l21.10591,-5.39373l6.09726,1.17255l-21.80944,5.15922z" fill="#888888"/><path d="M352.06483,202.26442l0.70353,-29.91176l6.33178,1.40706l2.3451,29.07925z" fill="#6c6c6c"/><path d="M362.61779,198.8523l-0.93804,-22.98199l18.05727,-4.22118l0.70353,21.57492z" fill="#000000"/><path d="M353.00288,223.47586v-11.7255l32.36239,-11.491l-0.23451,7.03531z" fill="#7c7c7c"/><path d="M330.48991,214.32997l-0.46902,-12.42903l22.98199,9.3804v11.7255z" fill="#6c6c6c"/></g><path d="M286.80519,197.4417l18,-4.5l7.25,-2.25v6.75c0,0 -1.45084,5.75 -2.25,5.75c-3.17995,0 -23,-5.75 -23,-5.75z" fill="#656565" stroke="#000000" stroke-width="0" stroke-linecap="butt"/><path d="M276.52157,222.79404l40.52631,-12.89474l21.84211,12.89474l-35.12137,11.80109z" fill="#909090" stroke="#000000" stroke-width="0" stroke-linecap="butt"/><path d="M283.36367,223.0572l21.05263,-5.78948c0,0 8.03027,0.20878 15.91027,0.82588c4.1865,0.32786 11.45815,3.91096 11.45815,3.91096l-26.57895,9.73684z" fill="#000000" stroke="#000000" stroke-width="0" stroke-linecap="butt"/><path d="M289.30519,221.9417l-2.5,-24.25l16.75,2.5l0.5,23.25z" fill="#4c4c4c" stroke="#000000" stroke-width="0" stroke-linecap="butt"/><path d="M170.70048,340.79548l-0.57548,-83.03872l51.875,40.625v71.25z" fill="#787878" stroke="#000000" stroke-width="0" stroke-linecap="butt"/><path d="M311.8242,224.8993l-2.67105,-33.42105l24.21053,-4.73685l1.31579,30.52632z" fill="#787878" stroke="#000000" stroke-width="0" stroke-linecap="butt"/><path d="M302.5742,191.21509l23.68421,-6.05263l6.84211,1.31579l-24.47369,5.78947z" fill="#888888" stroke="#000000" stroke-width="0" stroke-linecap="butt"/><path d="M301.78472,223.99141l0.78948,-33.56579l7.10527,1.57895l2.63158,32.63158z" fill="#6c6c6c" stroke="#000000" stroke-width="0" stroke-linecap="butt"/><path d="M313.62683,220.16246l-1.05263,-25.78948l20.26316,-4.73684l0.78947,24.21052z" fill="#000000" stroke="#000000" stroke-width="0" stroke-linecap="butt"/><path d="M302.83736,247.79404v-13.15789l36.31579,-12.89474l-0.26316,7.89474z" fill="#7c7c7c" stroke="#000000" stroke-width="0" stroke-linecap="butt"/><path d="M277.5742,237.53088l-0.52632,-13.94736l25.78948,10.52631v13.15789z" fill="#6c6c6c" stroke="#000000" stroke-width="0" stroke-linecap="butt"/><g stroke="#000000" stroke-width="0" stroke-linecap="butt"><path d="M215.36626,219.12286l20.58656,-5.14664l8.29181,-2.57332v7.71995c0,0 -1.65932,6.57626 -2.57332,6.57626c-3.6369,0 -26.30505,-6.57626 -26.30505,-6.57626z" fill="#656565"/><path d="M203.6049,248.11827l46.34985,-14.74768l24.98076,14.74768l-40.16823,13.49687z" fill="#909090"/><path d="M211.4302,248.41924l24.07784,-6.62141c0,0 9.1842,0.23878 18.19654,0.94456c4.78808,0.37498 13.10465,4.47296 13.10465,4.47296l-30.39827,11.13599z" fill="#000000"/><path d="M218.2255,247.14345l-2.85925,-27.73467l19.15694,2.85925l0.57184,26.59096z" fill="#4c4c4c"/><path d="M243.98043,250.52605l-3.05488,-38.22357l27.68952,-5.41752l1.50487,34.91287z" fill="#787878"/><path d="M233.40123,212.00151l27.08757,-6.92238l7.8253,1.50486l-27.99049,6.62141z" fill="#888888"/><path d="M232.4983,249.48769l0.90292,-38.38911l8.12627,1.80585l3.00973,37.32065z" fill="#6c6c6c"/><path d="M246.04209,245.10854l-1.20389,-29.49535l23.17493,-5.41752l0.90292,27.68952z" fill="#000000"/><path d="M233.70221,276.71071v-15.04865l41.53428,-14.74769l-0.30097,9.0292z" fill="#7c7c7c"/><path d="M204.80879,264.97276l-0.60195,-15.95157l29.49536,12.03892v15.04864z" fill="#6c6c6c"/></g><path d="M402.99802,283.76984v-75h1.11111v75z" fill="#848484" stroke="#000000" stroke-width="0" stroke-linecap="butt"/><path d="M347.99802,309.88095v-72.77777h2.22222v72.77777z" fill="#848484" stroke="none" stroke-width="0" stroke-linecap="butt"/><path d="M287.44246,337.10318v-70h2.22222v70z" fill="#848484" stroke="none" stroke-width="0" stroke-linecap="butt"/><path d="M366.80929,245.51311l-1.1947,-2.57495l18.39249,-8.53359l1.1947,2.57495z" fill="#848484" stroke="none" stroke-width="0" stroke-linecap="butt"/><path d="M370.5382,283.87376l-1.23094,-2.55782l18.27017,-8.79243l1.23094,2.55783z" fill="#848484" stroke="none" stroke-width="0" stroke-linecap="butt"/><path d="M420.48721,221.40774l-1.2624,-2.54244l18.16032,-9.01714l1.2624,2.54244z" fill="#848484" stroke="none" stroke-width="0" stroke-linecap="butt"/><path d="M423.26723,254.17219l-1.36621,-2.4882l17.77286,-9.75865l1.36621,2.4882z" fill="#848484" stroke="none" stroke-width="0" stroke-linecap="butt"/><path d="M312.63431,275.04634l-1.30794,-2.51932l17.99514,-9.34243l1.30794,2.51932z" fill="#848484" stroke="none" stroke-width="0" stroke-linecap="butt"/><path d="M245.30043,308.07293l-1.0524,-2.6363l18.83077,-7.51717l1.05241,2.63631z" fill="#848484" stroke="none" stroke-width="0" stroke-linecap="butt"/><path d="M315.21748,309.74589l-1.13693,-2.60098l18.57838,-8.12095l1.13693,2.60098z" fill="#848484" stroke="none" stroke-width="0" stroke-linecap="butt"/><path d="M248.34221,340.6967l-1.34707,-2.49861l17.84723,-9.62197l1.34707,2.49861z" fill="#848484" stroke="none" stroke-width="0" stroke-linecap="butt"/><path d="M124.89676,254.17787l-10.18435,-145.45465l47.5981,-14.35094l21.47097,14.35094l-1.5015,127.62763l-34.19373,24.23069z" fill="#1e1e1e" stroke="#848484" stroke-width="0" stroke-linecap="butt"/><path d="M221.66042,334.294l227.14871,-115.27967" fill="none" stroke="#848484" stroke-width="1.5" stroke-linecap="round"/><path d="M220.70514,375.65846l0.27328,-77.72413l238.0033,-117.39214l31.3223,61.13645z" fill="url(#color-6)" stroke="#848484" stroke-width="0" stroke-linecap="butt"/><path d="M134.58494,368.74459l20.41231,-126.48739l66.25001,53.11149l1.70459,75.14458z" fill="url(#color-7)" stroke="#848484" stroke-width="0" stroke-linecap="butt"/><path d="M142.86116,289.52816c0,-45.59199 36.95961,-82.55159 82.55159,-82.55159c45.59199,0 82.55159,36.95961 82.55159,82.55159c0,45.59199 -36.95961,82.55159 -82.55159,82.55159c-45.59199,0 -82.55159,-36.95961 -82.55159,-82.55159z" fill="url(#color-8)" stroke="#848484" stroke-width="0" stroke-linecap="butt"/><path d="M104.0165,263.26456c0,-45.59199 36.95961,-82.55159 82.55159,-82.55159c45.59199,0 82.55159,36.95961 82.55159,82.55159c0,45.59199 -36.95961,82.55159 -82.55159,82.55159c-45.59199,0 -82.55159,-36.95961 -82.55159,-82.55159z" fill="url(#color-9)" stroke="#848484" stroke-width="0" stroke-linecap="butt"/><g stroke-linecap="butt"><path d="M475.85343,224.07562l0.09367,0.03804l0.21754,-0.00807l0.10505,0.02216l0.10652,-0.01344l0.2541,0.03052l0.23262,-0.0477l0.13831,-0.07992l0.29781,-0.23396l0.13914,-0.12772l0.0032,-0.00413l0.08585,-0.13013l0.1967,-0.18056l0.03225,-0.09834l0.1568,-0.07521l0.12812,-0.1176l0.10328,0.00661l0.10099,-0.04843l0.0748,-0.08442l0.22123,-0.1516l0.20647,-0.17117l0.14437,-0.06924l0.00335,-0.0023l0.001,0.00021l0.32752,-0.15709l0.21439,-0.1413l0.84074,-0.66047l0.12321,-0.18676l-0.00008,-0.0152l0.02793,-0.02703l0.02077,-0.03148l0.2291,-0.2103l0.22348,-0.21625l0.03265,-0.01887l0.02864,-0.02629l0.01517,0.00098l0.14512,-0.08386l0.10367,-0.117l0.05861,-0.04016l0.03913,-0.05931l0.12768,-0.1172l0.04733,-0.10022l0.1452,-0.17728l0.11696,-0.19707l0.28724,-0.29004l0.02807,-0.04255l0.05159,-0.12702l0.07452,-0.10205l-0.00015,-0.03183l0.01295,-0.05289l-0.02071,-0.04092l0.10115,-0.2876l0.07251,-0.29613l0.01716,-0.00991l0.0533,-0.21768l0.00481,-0.03391l-0.11719,-0.57155l-0.16745,-0.49436l-0.00697,-0.08525l-0.03698,-0.07711l-0.02833,-0.13814l-0.56082,-0.15003l-0.14058,-0.01688l-0.03803,-0.01451l-0.04061,0.00271l-0.24907,-0.04488l-0.11459,0.02349l-0.30974,-0.01325l-0.05089,-0.01506l-0.05265,0.00664l-0.42056,-0.0505l-0.2038,-0.00872l-0.40305,0.01495l-0.10505,-0.02216l-0.10652,0.01343l-0.42055,-0.0505l-0.2578,-0.01103l-0.05089,-0.01505l-0.05265,0.00664l-0.23608,-0.02835l-0.09101,-0.03472l-0.09741,-0.0016l-0.01889,-0.00505l-0.12913,-0.00552l-0.3512,0.00169l-0.08308,-0.02034l-0.08485,0.01071l-0.60281,-0.07239l-0.35094,0.01302l-0.14367,-0.03031l-0.14652,0.00979l-0.35936,-0.06475l-0.43267,-0.05196l-0.09102,-0.03473l-0.0974,-0.0016l-0.23192,-0.06205l-0.05692,-0.00683l-0.29914,0.00145l-0.12162,-0.02978l-0.12493,0.00835l-0.3985,-0.0718l-0.05237,-0.02359l-0.05742,-0.00094l-0.06951,-0.01859l-0.39467,-0.04739l-0.07948,0.0163l-0.0544,-0.00232l-0.03606,0.02833l-0.30186,-0.04278l-0.3046,-0.01303l-0.02643,-0.03005l-0.24879,0.01503l-0.12093,-0.02258l-0.12206,0.0154l-0.01801,-0.00216l-0.92904,0.19049l-0.12045,0.07939l-0.24185,0.08494l-0.00229,0.0011l-0.07463,0.11313l0.15925,0.77668l0.13407,0.27953l0.00758,0.03695l0.01588,0.03547l-0.00572,0.01408l0.00871,0.04246l0.01035,0.01318l0.07386,0.165l0.10863,0.1445l0.07865,0.18622l0.09576,0.1219l0.0609,0.13604l0.09513,0.11475l0.06982,0.14557l0.01208,0.01538l0.02346,0.05242l0.04229,0.03886l0.22283,0.33809l0.08494,0.24185l0.11085,0.23113l0.01794,0.08751l0.00743,0.00768l0.23794,0.41175l0.02355,0.08222l0.05139,0.06835l0.08033,0.1902l0.07834,0.04344l0.02688,0.10198l0.23366,0.28185l0.09435,0.19671l0.36414,0.55248l0.27682,0.35238l0.0398,0.08891l0.06774,0.07001l0.23793,0.41175l0.05992,0.20915l0.09409,0.19617l0.01134,0.05533c0.27426,0.13448 0.50095,0.36031 0.63329,0.64664l0.01328,0.0016l0.20327,0.07756l0.21339,0.04243l0.17808,0.08412l0.22233,0.04006l0.12908,0.05815zM472.18226,225.2919l-0.01362,-0.05168l-0.05078,-0.01666l-0.25684,-0.53549l-0.03999,-0.04133l-0.11897,-0.20588l-0.05992,-0.20916l-0.09408,-0.19617l-0.0465,-0.2268l-0.07992,-0.1383l-0.25219,-0.32101l-0.02346,-0.05242l-0.0423,-0.03886l-0.44567,-0.67618l-0.00973,-0.02772l-0.00974,-0.01175l-0.10675,-0.0592l-0.02688,-0.10198l-0.23366,-0.28185l-0.13407,-0.27953l-0.00663,-0.03233l-0.01983,-0.02637l-0.11639,-0.27557l-0.14084,-0.24373l-0.01115,-0.00366l-0.01681,-0.03505l-0.0233,-0.02965l-0.12706,-0.28384l-0.13449,-0.2804l-0.00758,-0.03695l-0.01589,-0.03547l0.00572,-0.01409l-0.00542,-0.02644l-0.04841,-0.07345l-0.06909,-0.08795l-0.0609,-0.13604l-0.09513,-0.11475l-0.06982,-0.14557l-0.11596,-0.14759l-0.07386,-0.165l-0.10863,-0.1445l-0.07865,-0.18623l-0.04121,-0.05246l-0.01445,-0.00473l-0.01681,-0.03505l-0.02329,-0.02966l-0.12707,-0.28384l-0.13449,-0.2804l-0.00757,-0.03694l-0.01588,-0.03548l0.00572,-0.01408l-0.04267,-0.20812l-0.13407,-0.27953l-0.00757,-0.03694l-0.01588,-0.03549l0.00572,-0.01408l-0.28433,-1.38668l0.00233,-0.0544l-0.02833,-0.03606l0.04279,-0.30186l0.01303,-0.3046l0.03443,-0.03029l0.00764,-0.05391l0.09529,-0.23463l-0.00303,-0.02052l0.21464,-0.27662l0.12846,-0.1759l0.27443,-0.416l0.16028,-0.14713l0.13338,-0.17189l0.06277,-0.04931l0.00474,-0.01445l0.03504,-0.01681l0.02966,-0.02329l0.06792,-0.0304l0.02008,-0.01844l0.01846,0.00118l0.17739,-0.07942l0.2804,-0.13448l0.03695,-0.00758l0.00506,-0.00227l0.11775,-0.07761l0.24185,-0.08494l0.23113,-0.11085l1.39952,-0.28696l0.21737,0.0093l0.21586,-0.02723l0.11491,0.0138l0.2996,-0.0181l0.00953,-0.00749l0.03418,0.00484l0.0656,-0.00396l0.29437,0.05498l0.09216,0.01306l0.18642,0.00797l0.21586,-0.02722l0.70824,0.08504l0.09102,0.03473l0.09741,0.0016l0.10804,0.0289l0.22081,0.03979l0.25914,-0.00126l0.08307,0.02034l0.08486,-0.0107l0.23608,0.02835l0.09102,0.03473l0.0974,0.0016l0.23192,0.06205l0.37667,0.04523l0.03803,0.0145l0.0406,-0.00271l0.25452,0.04586l0.31085,-0.01154l0.10505,0.02216l0.10652,-0.01344l0.62458,0.07501l0.29914,-0.00145l0.03205,0.00785l0.03233,-0.00663l0.30974,0.01325l0.14293,0.0423l0.14903,0.00245l0.06951,0.01859l0.08897,0.01069l0.2578,0.01103l0.05089,0.01505l0.05266,-0.00664l0.36673,0.04403l0.35094,-0.01302l0.05398,0.01138l0.05404,-0.01108l0.30974,0.01325l0.05089,0.01506l0.05265,-0.00664l0.42056,0.0505l0.25781,0.01103l0.01557,0.00461l0.05816,0.00249l0.25576,-0.01709l0.35936,0.06475l0.19659,0.02361l0.09102,0.03473l0.09741,0.0016l1.13695,0.30417l0.19026,0.10553l0.20525,0.07218l0.26628,0.17567l0.14713,0.16028l0.17189,0.13338l0.04931,0.06277l0.01445,0.00473l0.01681,0.03506l0.02329,0.02966l0.0304,0.06791l0.01844,0.02008l-0.00118,0.01846l0.07941,0.17739l0.13449,0.2804l0.00757,0.03694l0.01588,0.03549l-0.00572,0.01408l0.11637,0.56754l0.16745,0.49436l0.00697,0.08525l0.03698,0.07711l0.19634,0.95757l-0.00232,0.05441l0.02833,0.03606l-0.04278,0.30185l-0.01303,0.3046l-0.03444,0.03028l-0.00764,0.05392l-0.00126,0.00311l0.00056,0.11566l-0.01295,0.05289l0.02071,0.04092l-0.10115,0.2876l-0.07251,0.29613l-0.01716,0.00991l-0.00371,0.01513l0.0207,0.04092l-0.10115,0.2876l-0.07251,0.29613l-0.0397,0.02295l-0.01807,0.05137l-0.10186,0.15442l-0.05159,0.12702l-0.0795,0.10886l-0.04472,0.12717l-0.17566,0.26629l-0.09931,0.09116l-0.0688,0.11593l-0.2184,0.22053l-0.06155,0.13032l-0.16508,0.20155l-0.14346,0.21746l-0.27155,0.24928l-0.20302,0.22914l-0.17947,0.12299l-0.15635,0.15129l-0.13511,0.07808l-0.11684,0.17712l-0.16028,0.14712l-0.13338,0.17189l-1.05773,0.83093l-0.05242,0.02346l-0.03885,0.04229l-0.33809,0.22283l-0.08784,0.03085l-0.07168,0.05942l-0.31263,0.14995l-0.06807,0.07682l-0.10149,0.06954l-0.07542,0.09719l-0.06277,0.04931l-0.00473,0.01445l-0.03506,0.01681l-0.02965,0.0233l-0.24737,0.11074l-0.01893,0.01296l-0.00685,-0.00144l-0.0107,0.00479l-0.05157,0.02473l-0.03201,0.04851l-0.16027,0.14713l-0.13338,0.17189l-0.52886,0.41546l-0.08891,0.0398l-0.07,0.06774l-0.41175,0.23793l-0.20916,0.05992l-0.19617,0.09409l-0.66293,0.13593l-0.21737,-0.0093l-0.21586,0.02722l-0.36672,-0.04404l-0.35094,0.01302l-0.19783,-0.04173l-0.20215,-0.00332l-0.16242,-0.04345l-0.07479,-0.04148l-0.08468,-0.012l-0.12062,-0.04899l-0.25982,-0.04681l-0.16284,-0.07335l-0.17518,-0.03484l-0.14135,-0.06676l-0.01802,-0.00217l-0.09101,-0.03473l-0.09741,-0.0016l-0.0695,-0.0186l-0.1586,-0.01904l-0.00582,0.00119l-0.69692,-0.0298l-0.88484,-1.00606z" fill="#000000" stroke="none" stroke-width="0.5"/><path d="M475.85343,224.07562l0.09367,0.03804l0.21754,-0.00807l0.10505,0.02216l0.10652,-0.01344l0.2541,0.03052l0.23262,-0.0477l0.13831,-0.07992l0.29781,-0.23396l0.13914,-0.12772l0.0032,-0.00413l0.08585,-0.13013l0.1967,-0.18056l0.03225,-0.09834l0.1568,-0.07521l0.12812,-0.1176l0.10328,0.00661l0.10099,-0.04843l0.0748,-0.08442l0.22123,-0.1516l0.20647,-0.17117l0.14437,-0.06924l0.00335,-0.0023l0.001,0.00021l0.32752,-0.15709l0.21439,-0.1413l0.84074,-0.66047l0.12321,-0.18676l-0.00008,-0.0152l0.02793,-0.02703l0.02077,-0.03148l0.2291,-0.2103l0.22348,-0.21625l0.03265,-0.01887l0.02864,-0.02629l0.01517,0.00098l0.14512,-0.08386l0.10367,-0.117l0.05861,-0.04016l0.03913,-0.05931l0.12768,-0.1172l0.04733,-0.10022l0.1452,-0.17728l0.11696,-0.19707l0.28724,-0.29004l0.02807,-0.04255l0.05159,-0.12702l0.07452,-0.10205l-0.00015,-0.03183l0.01295,-0.05289l-0.02071,-0.04092l0.10115,-0.2876l0.07251,-0.29613l0.01716,-0.00991l0.0533,-0.21768l0.00481,-0.03391l-0.11719,-0.57155l-0.16745,-0.49436l-0.00697,-0.08525l-0.03698,-0.07711l-0.02833,-0.13814l-0.56082,-0.15003l-0.14058,-0.01688l-0.03803,-0.01451l-0.04061,0.00271l-0.24907,-0.04488l-0.11459,0.02349l-0.30974,-0.01325l-0.05089,-0.01506l-0.05265,0.00664l-0.42056,-0.0505l-0.2038,-0.00872l-0.40305,0.01495l-0.10505,-0.02216l-0.10652,0.01343l-0.42055,-0.0505l-0.2578,-0.01103l-0.05089,-0.01505l-0.05265,0.00664l-0.23608,-0.02835l-0.09101,-0.03472l-0.09741,-0.0016l-0.01889,-0.00505l-0.12913,-0.00552l-0.3512,0.00169l-0.08308,-0.02034l-0.08485,0.01071l-0.60281,-0.07239l-0.35094,0.01302l-0.14367,-0.03031l-0.14652,0.00979l-0.35936,-0.06475l-0.43267,-0.05196l-0.09102,-0.03473l-0.0974,-0.0016l-0.23192,-0.06205l-0.05692,-0.00683l-0.29914,0.00145l-0.12162,-0.02978l-0.12493,0.00835l-0.3985,-0.0718l-0.05237,-0.02359l-0.05742,-0.00094l-0.06951,-0.01859l-0.39467,-0.04739l-0.07948,0.0163l-0.0544,-0.00232l-0.03606,0.02833l-0.30186,-0.04278l-0.3046,-0.01303l-0.02643,-0.03005l-0.24879,0.01503l-0.12093,-0.02258l-0.12206,0.0154l-0.01801,-0.00216l-0.92904,0.19049l-0.12045,0.07939l-0.24185,0.08494l-0.00229,0.0011l-0.07463,0.11313l0.15925,0.77668l0.13407,0.27953l0.00758,0.03695l0.01588,0.03547l-0.00572,0.01408l0.00871,0.04246l0.01035,0.01318l0.07386,0.165l0.10863,0.1445l0.07865,0.18622l0.09576,0.1219l0.0609,0.13604l0.09513,0.11475l0.06982,0.14557l0.01208,0.01538l0.02346,0.05242l0.04229,0.03886l0.22283,0.33809l0.08494,0.24185l0.11085,0.23113l0.01794,0.08751l0.00743,0.00768l0.23794,0.41175l0.02355,0.08222l0.05139,0.06835l0.08033,0.1902l0.07834,0.04344l0.02688,0.10198l0.23366,0.28185l0.09435,0.19671l0.36414,0.55248l0.27682,0.35238l0.0398,0.08891l0.06774,0.07001l0.23793,0.41175l0.05992,0.20915l0.09409,0.19617l0.01134,0.05533c0.27426,0.13448 0.50095,0.36031 0.63329,0.64664l0.01328,0.0016l0.20327,0.07756l0.21339,0.04243l0.17808,0.08412l0.22233,0.04006l0.12908,0.05815zM472.18226,225.2919l-0.01362,-0.05168l-0.05078,-0.01666l-0.25684,-0.53549l-0.03999,-0.04133l-0.11897,-0.20588l-0.05992,-0.20916l-0.09408,-0.19617l-0.0465,-0.2268l-0.07992,-0.1383l-0.25219,-0.32101l-0.02346,-0.05242l-0.0423,-0.03886l-0.44567,-0.67618l-0.00973,-0.02772l-0.00974,-0.01175l-0.10675,-0.0592l-0.02688,-0.10198l-0.23366,-0.28185l-0.13407,-0.27953l-0.00663,-0.03233l-0.01983,-0.02637l-0.11639,-0.27557l-0.14084,-0.24373l-0.01115,-0.00366l-0.01681,-0.03505l-0.0233,-0.02965l-0.12706,-0.28384l-0.13449,-0.2804l-0.00758,-0.03695l-0.01589,-0.03547l0.00572,-0.01409l-0.00542,-0.02644l-0.04841,-0.07345l-0.06909,-0.08795l-0.0609,-0.13604l-0.09513,-0.11475l-0.06982,-0.14557l-0.11596,-0.14759l-0.07386,-0.165l-0.10863,-0.1445l-0.07865,-0.18623l-0.04121,-0.05246l-0.01445,-0.00473l-0.01681,-0.03505l-0.02329,-0.02966l-0.12707,-0.28384l-0.13449,-0.2804l-0.00757,-0.03694l-0.01588,-0.03548l0.00572,-0.01408l-0.04267,-0.20812l-0.13407,-0.27953l-0.00757,-0.03694l-0.01588,-0.03549l0.00572,-0.01408l-0.28433,-1.38668l0.00233,-0.0544l-0.02833,-0.03606l0.04279,-0.30186l0.01303,-0.3046l0.03443,-0.03029l0.00764,-0.05391l0.09529,-0.23463l-0.00303,-0.02052l0.21464,-0.27662l0.12846,-0.1759l0.27443,-0.416l0.16028,-0.14713l0.13338,-0.17189l0.06277,-0.04931l0.00474,-0.01445l0.03504,-0.01681l0.02966,-0.02329l0.06792,-0.0304l0.02008,-0.01844l0.01846,0.00118l0.17739,-0.07942l0.2804,-0.13448l0.03695,-0.00758l0.00506,-0.00227l0.11775,-0.07761l0.24185,-0.08494l0.23113,-0.11085l1.39952,-0.28696l0.21737,0.0093l0.21586,-0.02723l0.11491,0.0138l0.2996,-0.0181l0.00953,-0.00749l0.03418,0.00484l0.0656,-0.00396l0.29437,0.05498l0.09216,0.01306l0.18642,0.00797l0.21586,-0.02722l0.70824,0.08504l0.09102,0.03473l0.09741,0.0016l0.10804,0.0289l0.22081,0.03979l0.25914,-0.00126l0.08307,0.02034l0.08486,-0.0107l0.23608,0.02835l0.09102,0.03473l0.0974,0.0016l0.23192,0.06205l0.37667,0.04523l0.03803,0.0145l0.0406,-0.00271l0.25452,0.04586l0.31085,-0.01154l0.10505,0.02216l0.10652,-0.01344l0.62458,0.07501l0.29914,-0.00145l0.03205,0.00785l0.03233,-0.00663l0.30974,0.01325l0.14293,0.0423l0.14903,0.00245l0.06951,0.01859l0.08897,0.01069l0.2578,0.01103l0.05089,0.01505l0.05266,-0.00664l0.36673,0.04403l0.35094,-0.01302l0.05398,0.01138l0.05404,-0.01108l0.30974,0.01325l0.05089,0.01506l0.05265,-0.00664l0.42056,0.0505l0.25781,0.01103l0.01557,0.00461l0.05816,0.00249l0.25576,-0.01709l0.35936,0.06475l0.19659,0.02361l0.09102,0.03473l0.09741,0.0016l1.13695,0.30417l0.19026,0.10553l0.20525,0.07218l0.26628,0.17567l0.14713,0.16028l0.17189,0.13338l0.04931,0.06277l0.01445,0.00473l0.01681,0.03506l0.02329,0.02966l0.0304,0.06791l0.01844,0.02008l-0.00118,0.01846l0.07941,0.17739l0.13449,0.2804l0.00757,0.03694l0.01588,0.03549l-0.00572,0.01408l0.11637,0.56754l0.16745,0.49436l0.00697,0.08525l0.03698,0.07711l0.19634,0.95757l-0.00232,0.05441l0.02833,0.03606l-0.04278,0.30185l-0.01303,0.3046l-0.03444,0.03028l-0.00764,0.05392l-0.00126,0.00311l0.00056,0.11566l-0.01295,0.05289l0.02071,0.04092l-0.10115,0.2876l-0.07251,0.29613l-0.01716,0.00991l-0.00371,0.01513l0.0207,0.04092l-0.10115,0.2876l-0.07251,0.29613l-0.0397,0.02295l-0.01807,0.05137l-0.10186,0.15442l-0.05159,0.12702l-0.0795,0.10886l-0.04472,0.12717l-0.17566,0.26629l-0.09931,0.09116l-0.0688,0.11593l-0.2184,0.22053l-0.06155,0.13032l-0.16508,0.20155l-0.14346,0.21746l-0.27155,0.24928l-0.20302,0.22914l-0.17947,0.12299l-0.15635,0.15129l-0.13511,0.07808l-0.11684,0.17712l-0.16028,0.14712l-0.13338,0.17189l-1.05773,0.83093l-0.05242,0.02346l-0.03885,0.04229l-0.33809,0.22283l-0.08784,0.03085l-0.07168,0.05942l-0.31263,0.14995l-0.06807,0.07682l-0.10149,0.06954l-0.07542,0.09719l-0.06277,0.04931l-0.00473,0.01445l-0.03506,0.01681l-0.02965,0.0233l-0.24737,0.11074l-0.01893,0.01296l-0.00685,-0.00144l-0.0107,0.00479l-0.05157,0.02473l-0.03201,0.04851l-0.16027,0.14713l-0.13338,0.17189l-0.52886,0.41546l-0.08891,0.0398l-0.07,0.06774l-0.41175,0.23793l-0.20916,0.05992l-0.19617,0.09409l-0.66293,0.13593l-0.21737,-0.0093l-0.21586,0.02722l-0.36672,-0.04404l-0.35094,0.01302l-0.19783,-0.04173l-0.20215,-0.00332l-0.16242,-0.04345l-0.07479,-0.04148l-0.08468,-0.012l-0.12062,-0.04899l-0.25982,-0.04681l-0.16284,-0.07335l-0.17518,-0.03484l-0.14135,-0.06676l-0.01802,-0.00217l-0.09101,-0.03473l-0.09741,-0.0016l-0.0695,-0.0186l-0.1586,-0.01904l-0.00582,0.00119l-0.69692,-0.0298l-0.88484,-1.00606z" fill="#000000" stroke="none" stroke-width="0.5"/><g stroke="#848484" stroke-width="0"><path d="M471.57177,254.7982l-4.74113,-5.65421c0,0 18.30209,-1.1548 18.0748,-0.42362c-0.50229,1.6158 -5.34875,6.58968 -5.34875,6.58968z" fill="#0c0c0c"/><path d="M485.05069,249.25017l7.13967,-9.52296c0,0 6.46819,6.73699 8.70689,6.09476c1.93752,-0.55582 0.99819,-4.98779 0.99819,-4.98779l3.65284,-3.28105l-1.52163,11.52578z" fill="#1e1e1e"/><path d="M451.9324,231.46583c4.39396,-7.11469 20.38116,-7.61799 25.43457,-6.77883c4.22468,0.70154 8.48146,0.67692 14.43439,3.55093c5.22577,2.52294 6.42259,12.09548 4.9238,15.53239c-0.87891,2.01546 -4.10638,4.3838 -6.68205,6.02812c-1.8916,1.2076 -5.90587,1.92221 -9.71315,1.77111c-6.40526,-0.25422 -16.2206,-0.72047 -21.72705,-1.61083c-2.60688,-0.42153 -7.94682,-4.55194 -9.15266,-9.54496c-0.79479,-3.29097 1.63769,-7.58058 2.48214,-8.94793z" fill="#868686"/><path d="M496.72517,243.77031c-0.87891,2.01546 -4.10638,4.3838 -6.68205,6.02812c-1.8916,1.2076 -5.90587,1.92221 -9.71315,1.77111c-6.40526,-0.25422 -16.2206,-0.72047 -21.72705,-1.61083c-2.60688,-0.42153 -7.94682,-4.55194 -9.15266,-9.54496c-0.40467,-1.6756 6.84481,3.77675 21.93655,5.52633c14.91713,1.72932 25.86149,-3.36938 25.33834,-2.16976z" fill="#474747"/><path d="M491.09935,237.36253c-0.34118,-1.79089 -1.6202,-15.45722 -0.99492,-23.37355c0.48315,-6.1168 2.31589,-16.47615 2.31589,-16.47615l5.88729,0.76287c0,0 -2.59778,12.05677 -3.11354,19.36489c-0.49199,6.97123 0.08693,23.52089 0.08693,23.52089c0,0 -3.84046,-2.00805 -4.18164,-3.79893z" fill="#757575"/><path d="M492.62741,197.64944c0,0 1.64464,-6.87498 4.83937,-9.58858c3.19474,-2.7136 8.21858,-0.96879 8.21858,-0.96879c0,0 -2.63128,3.472 -3.50792,5.0421c-1.20204,2.15289 -3.59227,6.62185 -3.59227,6.62185z" fill="#929292"/><path d="M494.33105,239.08163c-3.45257,-7.77552 4.13214,-40.31591 4.13214,-40.31591c0,0 2.25597,-5.08653 3.54633,-7.08904c1.07297,-1.66514 3.66465,-4.10168 3.66465,-4.10168c0,0 7.45997,26.51346 5.11688,40.07262c-1.95268,11.29992 -13.00743,19.20953 -16.46001,11.43401z" fill="#1e1e1e"/><path d="M479.76541,263.43776c0.36679,1.78884 -0.81561,3.54239 -2.64096,3.91667c-1.82534,0.37427 -3.60243,-0.77247 -3.96921,-2.56131c-0.36679,-1.78884 0.81561,-3.54239 2.64096,-3.91667c1.82534,-0.37427 3.60243,0.77247 3.96921,2.56131z" fill="#000000"/><path d="M474.30743,265.51994l-2.4315,-11.85865l5.15593,-1.05717l2.4315,11.85865z" fill="#0c0c0c"/><path d="M468.52625,269.58078l-7.45268,1.27763c0,0 2.46123,-5.13354 4.5935,-6.74991c2.6525,-2.01071 10.10426,-4.39165 10.10426,-4.39165l1.02514,4.99968c0,0 -3.46057,0.8464 -4.86147,1.67036c-1.35426,0.79652 -3.40875,3.19388 -3.40875,3.19388z" fill="#0c0c0c"/><path d="M482.20559,264.55653c-1.61212,-0.20617 -5.12654,0.37758 -5.12654,0.37758l-1.02514,-4.99968c0,0 7.78745,-0.74372 11.01721,0.0609c2.59633,0.64681 6.87917,4.39755 6.87917,4.39755l-7.35411,1.75836c0,0 -2.83217,-1.39539 -4.3906,-1.5947z" fill="#0c0c0c"/></g><path d="M472.83072,243.02423l0.12258,0.04978l0.28469,-0.01056l0.13746,0.029l0.13939,-0.01758l0.33251,0.03993l0.30441,-0.06242l0.18098,-0.10458l0.38973,-0.30617l0.18208,-0.16714l0.00419,-0.0054l0.11234,-0.1703l0.25742,-0.23629l0.0422,-0.1287l0.2052,-0.09842l0.16765,-0.1539l0.13516,0.00866l0.13215,-0.06338l0.09788,-0.11047l0.28951,-0.19838l0.27019,-0.224l0.18892,-0.09061l0.00439,-0.00301l0.00131,0.00027l0.42861,-0.20558l0.28056,-0.18491l1.10021,-0.8643l0.16123,-0.24441l-0.00009,-0.01989l0.03655,-0.03538l0.02718,-0.04119l0.2998,-0.27521l0.29245,-0.283l0.04274,-0.02469l0.03747,-0.0344l0.01985,0.00128l0.18992,-0.10975l0.13566,-0.15311l0.0767,-0.05256l0.0512,-0.07761l0.16708,-0.15338l0.06194,-0.13115l0.19001,-0.232l0.15305,-0.25789l0.37589,-0.37954l0.03673,-0.05568l0.0675,-0.16622l0.09751,-0.13354l-0.0002,-0.04165l0.01694,-0.06922l-0.0271,-0.05354l0.13237,-0.37637l0.09489,-0.38751l0.02245,-0.01297l0.06975,-0.28486l0.00628,-0.04438l-0.15336,-0.74795l-0.21913,-0.64694l-0.00912,-0.11155l-0.0484,-0.10091l-0.03707,-0.18078l-0.7339,-0.19634l-0.18397,-0.02209l-0.04976,-0.01899l-0.05314,0.00355l-0.32593,-0.05873l-0.14995,0.03074l-0.40533,-0.01733l-0.06659,-0.01971l-0.0689,0.00869l-0.55035,-0.06609l-0.26671,-0.0114l-0.52744,0.01957l-0.13746,-0.029l-0.13939,0.01758l-0.55035,-0.06609l-0.33738,-0.01443l-0.06659,-0.01971l-0.0689,0.00869l-0.30895,-0.0371l-0.1191,-0.04544l-0.12746,-0.0021l-0.02473,-0.00662l-0.16898,-0.00723l-0.45958,0.00222l-0.10871,-0.02662l-0.11104,0.01401l-0.78885,-0.09473l-0.45925,0.01704l-0.18801,-0.03966l-0.19173,0.01281l-0.47027,-0.08473l-0.56621,-0.068l-0.11911,-0.04544l-0.12746,-0.0021l-0.30351,-0.0812l-0.07448,-0.00895l-0.39146,0.0019l-0.15916,-0.03897l-0.16349,0.01092l-0.52149,-0.09397l-0.06853,-0.03087l-0.07515,-0.00123l-0.09095,-0.02433l-0.51648,-0.06202l-0.10401,0.02133l-0.0712,-0.00305l-0.04719,0.03707l-0.39502,-0.05598l-0.3986,-0.01704l-0.03459,-0.03933l-0.32558,0.01967l-0.15826,-0.02956l-0.15973,0.02015l-0.02357,-0.00283l-1.21576,0.24928l-0.15763,0.1039l-0.31649,0.11116l-0.003,0.00144l-0.09766,0.14804l0.2084,1.01638l0.17545,0.3658l0.00991,0.04835l0.02079,0.04643l-0.00749,0.01844l0.01139,0.05555l0.01355,0.01725l0.09666,0.21592l0.14215,0.1891l0.10292,0.24369l0.12532,0.15953l0.0797,0.17803l0.12449,0.15016l0.09137,0.19051l0.01582,0.02013l0.03071,0.0686l0.05534,0.05085l0.29161,0.44244l0.11116,0.31648l0.14506,0.30245l0.02348,0.11452l0.00973,0.01005l0.31137,0.53883l0.03082,0.10759l0.06725,0.08946l0.10512,0.2489l0.10251,0.05685l0.03518,0.13346l0.30578,0.36883l0.12347,0.25742l0.47652,0.72299l0.36226,0.46113l0.05209,0.11635l0.08865,0.09162l0.31137,0.53883l0.07841,0.27371l0.12313,0.25671l0.01485,0.07241c0.3589,0.17598 0.65555,0.47152 0.82875,0.84621l0.01738,0.00209l0.26602,0.10149l0.27925,0.05553l0.23305,0.11008l0.29095,0.05243l0.16892,0.0761zM468.02652,244.61589l-0.01783,-0.06763l-0.06646,-0.0218l-0.3361,-0.70075l-0.05234,-0.05409l-0.15568,-0.26942l-0.07841,-0.27371l-0.12313,-0.25671l-0.06086,-0.2968l-0.10458,-0.18098l-0.33001,-0.42008l-0.0307,-0.0686l-0.05535,-0.05085l-0.58321,-0.88487l-0.01274,-0.03627l-0.01274,-0.01538l-0.13969,-0.07748l-0.03519,-0.13346l-0.30578,-0.36883l-0.17544,-0.3658l-0.00867,-0.04231l-0.02595,-0.03452l-0.15231,-0.36062l-0.1843,-0.31895l-0.01459,-0.00479l-0.022,-0.04587l-0.03049,-0.03881l-0.16628,-0.37145l-0.176,-0.36694l-0.00991,-0.04835l-0.02079,-0.04643l0.00749,-0.01843l-0.0071,-0.03461l-0.06335,-0.09612l-0.09041,-0.11508l-0.0797,-0.17803l-0.12449,-0.15016l-0.09137,-0.19051l-0.15174,-0.19315l-0.09666,-0.21592l-0.14215,-0.1891l-0.10292,-0.2437l-0.05393,-0.06865l-0.0189,-0.0062l-0.022,-0.04587l-0.03049,-0.03881l-0.16628,-0.37144l-0.17599,-0.36695l-0.00991,-0.04834l-0.02079,-0.04643l0.00749,-0.01843l-0.05585,-0.27236l-0.17545,-0.3658l-0.00991,-0.04834l-0.02079,-0.04643l0.00749,-0.01843l-0.37208,-1.81465l0.00305,-0.0712l-0.03707,-0.04719l0.05598,-0.39502l0.01705,-0.3986l0.04506,-0.03963l0.01,-0.07056l0.12469,-0.30704l-0.00397,-0.02685l0.2809,-0.36199l0.1681,-0.23019l0.35913,-0.54439l0.20975,-0.19254l0.17454,-0.22494l0.08215,-0.06453l0.0062,-0.0189l0.04586,-0.022l0.03881,-0.03049l0.08887,-0.03978l0.02628,-0.02413l0.02415,0.00155l0.23214,-0.10392l0.36694,-0.17599l0.04835,-0.00991l0.00662,-0.00296l0.1541,-0.10157l0.31648,-0.11116l0.30245,-0.14506l1.83146,-0.37552l0.28446,0.01217l0.28248,-0.03563l0.15038,0.01806l0.39206,-0.02368l0.01247,-0.0098l0.04473,0.00634l0.08584,-0.00519l0.38523,0.07195l0.1206,0.01709l0.24394,0.01044l0.28248,-0.03563l0.92682,0.1113l0.11911,0.04544l0.12746,0.0021l0.14138,0.03783l0.28896,0.05206l0.33912,-0.00165l0.10871,0.02662l0.11104,-0.01401l0.30895,0.0371l0.11911,0.04544l0.12746,0.0021l0.30351,0.0812l0.49292,0.05919l0.04976,0.01898l0.05314,-0.00354l0.33307,0.06001l0.40679,-0.0151l0.13746,0.029l0.13939,-0.01758l0.81734,0.09815l0.39146,-0.0019l0.04195,0.01028l0.04231,-0.00867l0.40533,0.01733l0.18703,0.05535l0.19503,0.0032l0.09095,0.02433l0.11643,0.01398l0.33738,0.01443l0.06659,0.01971l0.0689,-0.00869l0.47991,0.05764l0.45924,-0.01704l0.07064,0.0149l0.07072,-0.0145l0.40533,0.01734l0.06659,0.01971l0.0689,-0.00869l0.55035,0.06609l0.33738,0.01443l0.02037,0.00603l0.07612,0.00326l0.33469,-0.02236l0.47027,0.08473l0.25726,0.0309l0.1191,0.04545l0.12746,0.0021l1.48785,0.39805l0.24898,0.1381l0.2686,0.09446l0.34847,0.22989l0.19254,0.20974l0.22494,0.17455l0.06453,0.08215l0.0189,0.0062l0.022,0.04587l0.03049,0.03881l0.03978,0.08887l0.02413,0.02628l-0.00154,0.02415l0.10391,0.23214l0.176,0.36695l0.00991,0.04834l0.02079,0.04643l-0.00749,0.01843l0.15228,0.7427l0.21913,0.64694l0.00912,0.11155l0.0484,0.10091l0.25694,1.25311l-0.00305,0.0712l0.03707,0.04719l-0.05598,0.39501l-0.01704,0.3986l-0.04506,0.03964l-0.01,0.07055l-0.00165,0.00408l0.00073,0.15135l-0.01694,0.06922l0.0271,0.05354l-0.13236,0.37637l-0.09489,0.38751l-0.02245,0.01297l-0.00485,0.01979l0.0271,0.05354l-0.13236,0.37637l-0.09489,0.38751l-0.05196,0.03002l-0.02364,0.06722l-0.13331,0.20208l-0.0675,0.16622l-0.10404,0.14247l-0.05853,0.16642l-0.22988,0.34847l-0.12995,0.1193l-0.09003,0.15171l-0.28581,0.28859l-0.08055,0.17053l-0.21603,0.26376l-0.18774,0.28459l-0.35536,0.32621l-0.26568,0.29984l-0.23486,0.16094l-0.20461,0.19799l-0.17681,0.10217l-0.1529,0.23177l-0.20974,0.19253l-0.17455,0.22494l-1.38417,1.08737l-0.0686,0.03071l-0.05084,0.05535l-0.44243,0.29161l-0.11495,0.04038l-0.0938,0.07776l-0.40912,0.19622l-0.08908,0.10053l-0.1328,0.091l-0.0987,0.12719l-0.08215,0.06453l-0.0062,0.0189l-0.04587,0.022l-0.03881,0.03049l-0.32372,0.14492l-0.02476,0.01697l-0.00896,-0.00187l-0.014,0.00627l-0.06749,0.03237l-0.04188,0.06349l-0.20974,0.19254l-0.17455,0.22494l-0.69209,0.54368l-0.11635,0.05209l-0.09162,0.08865l-0.53883,0.31137l-0.27371,0.07841l-0.25672,0.12313l-0.86753,0.17788l-0.28446,-0.01217l-0.28248,0.03563l-0.47991,-0.05763l-0.45925,0.01704l-0.25888,-0.05461l-0.26454,-0.00435l-0.21255,-0.05686l-0.09788,-0.05428l-0.11081,-0.0157l-0.15785,-0.06411l-0.34,-0.06126l-0.21311,-0.096l-0.22925,-0.04558l-0.18497,-0.08737l-0.02357,-0.00283l-0.1191,-0.04545l-0.12746,-0.0021l-0.09095,-0.02433l-0.20754,-0.02492l-0.00762,0.00156l-0.912,-0.03901l-1.15793,-1.31656z" fill="#000000" stroke="none" stroke-width="0.5"/></g><path d="M138.92159,123.33866l-24.75619,-13.87847l47.63691,-15.75394l23.25582,15.75394z" fill="#111111" stroke="#848484" stroke-width="0" stroke-linecap="butt"/><path d="M123.91784,252.74601l-8.62716,-142.91073l22.50563,14.25356v128.65717z" fill="#181818" stroke="#848484" stroke-width="0" stroke-linecap="butt"/><path d="M448.24205,358.7603v-361.86691h191.88902v361.86691z" fill="url(#color-10)" stroke="#000000" stroke-width="0" stroke-linecap="butt"/><path d="M-0.21141,357.75429v-349.8549h191.88902v349.8549z" fill="url(#color-11)" stroke="#000000" stroke-width="0" stroke-linecap="butt"/></g></g></svg>