<svg version="1.1" xmlns="http://www.w3.org/2000/svg" xmlns:xlink="http://www.w3.org/1999/xlink" width="345" height="200" viewBox="0,0,345,200"><defs><linearGradient x1="242.05173" y1="160.48851" x2="241.82233" y2="158.41387" gradientUnits="userSpaceOnUse" id="color-1"><stop offset="0" stop-color="#edafbc"/><stop offset="1" stop-color="#d29ca8"/></linearGradient><linearGradient x1="244.79545" y1="192.1964" x2="245.03869" y2="194.26943" gradientUnits="userSpaceOnUse" id="color-2"><stop offset="0" stop-color="#edafbc"/><stop offset="1" stop-color="#d29ca8"/></linearGradient><linearGradient x1="203.818" y1="175.06013" x2="234.26939" y2="175.06013" gradientUnits="userSpaceOnUse" id="color-3"><stop offset="0" stop-color="#edafbc"/><stop offset="1" stop-color="#ca96a1"/></linearGradient></defs><g transform="translate(-67.5,-80)"><g data-paper-data="{&quot;isPaintingLayer&quot;:true}" fill-rule="nonzero" stroke-linecap="butt" stroke-linejoin="miter" stroke-miterlimit="10" stroke-dasharray="" stroke-dashoffset="0" style="mix-blend-mode: normal"><g data-paper-data="{&quot;index&quot;:null}" stroke-width="0"><g fill="#ffd726"><path d="M242.29634,150.14449l1.03228,9.33592l-2.03549,0.22507l-1.03228,-9.33592z" stroke="#ff0000"/><path d="M250.25969,147.62837c0.05044,0.45612 -1.8522,2.34923 -4.42596,2.63382c-2.57375,0.28459 -4.70108,0.14553 -4.75153,-0.31058c-0.05044,-0.45612 2.01894,-0.84113 4.59271,-1.12572c2.57374,-0.28458 4.53433,-1.65362 4.58477,-1.19752z" stroke="#ff0000"/><path d="M238.56465,151.21133c-2.39626,0.26496 -4.40141,-1.06697 -4.45403,-1.54291c-0.05264,-0.47596 1.79976,0.45523 4.19602,0.19027c2.39627,-0.26495 4.44892,-0.46482 4.50154,0.01112c0.05263,0.47595 -1.84727,1.07655 -4.24353,1.34152z" stroke="none"/><path d="M240.10763,149.01628c2.04036,0.61283 4.06922,0.27564 3.73346,0.71963c-0.33576,0.44399 -2.44511,1.05426 -4.48547,0.44144c-2.04038,-0.61284 -3.23912,-2.21673 -2.90337,-2.66072c0.33577,-0.44399 1.61502,0.88681 3.65538,1.49963z" stroke="none"/></g><path d="M240.76133,158.53121l0.78844,0.51346l0.83803,-0.6899l0.82186,0.5117l0.77774,-0.31813l6.63814,1.57937c0,0 -8.18742,0.31807 -8.9461,0.40195c-0.63555,0.07026 -6.32475,0.80514 -6.32475,0.80514l4.38429,-2.31672z" fill="url(#color-1)" stroke="#ff0000"/></g><g stroke-width="0"><g fill="#ffd726"><path d="M245.32702,202.45885l-1.09452,-9.32882l2.03395,-0.23864l1.09452,9.32882z" stroke="#ff0000"/><path d="M255.68621,202.88025c0.05349,0.45577 -2.16485,-0.43712 -4.73666,-0.13536c-2.57181,0.30174 -4.67476,0.39216 -4.72823,-0.06361c-0.05349,-0.45577 1.98805,-1.06985 4.55985,-1.37159c2.57181,-0.30174 4.85157,1.11478 4.90504,1.57057z" stroke="#ff0000"/><path d="M247.92147,202.37268c0.0558,0.47559 -1.9892,0.74263 -4.38364,1.02356c-2.39445,0.28094 -3.98985,1.60498 -4.04565,1.1294c-0.0558,-0.47559 1.59828,-2.22447 3.99274,-2.50541c2.39445,-0.28094 4.38077,-0.12314 4.43655,0.35244z" stroke="none"/><path d="M245.48215,203.8119c-1.8502,1.05615 -2.79725,2.64063 -3.22429,2.28355c-0.42703,-0.35707 0.38014,-2.18953 2.23034,-3.2457c1.8502,-1.05615 4.04277,-0.93607 4.46982,-0.57899c0.42703,0.35707 -1.62567,0.48496 -3.47585,1.54113z" stroke="none"/></g><path d="M242.8728,194.14944l-4.79311,-1.27096c0,0 5.70868,-0.5639 6.34375,-0.63842c0.75811,-0.08894 8.80721,-1.621 8.80721,-1.621l-6.11265,3.03229l-0.82937,-0.13499l-0.68568,0.68347l-0.97176,-0.48367l-0.65272,0.67768z" fill="url(#color-2)" stroke="#ff0000"/></g><g stroke-width="0"><g><path d="M284.0929,174.06709c-0.10896,1.04738 2.33433,7.32778 1.34045,8.87098c-2.15355,3.34385 -8.73023,2.15116 -9.81585,2.06547c-1.58663,-0.12524 -2.59311,-2.9156 -2.24805,-6.23245c0.34506,-3.31685 1.91101,-5.90417 3.49764,-5.77893c1.58663,0.12524 7.57087,-2.24192 7.22581,1.07493z" fill="#906bc7" stroke="#ffffff"/><path d="M278.74856,178.39347c0,9.57869 -13.43146,17.34375 -30,17.34375c-16.56854,0 -30,-7.76506 -30,-17.34375c0,-9.57869 13.43146,-17.34375 30,-17.34375c16.56854,0 30,7.76506 30,17.34375z" fill="#ca96a1" stroke="none"/><path d="M248.66218,168.3011c-11.88667,0.25754 -21.83705,-1.21776 -21.90234,-4.23086c-0.02917,-1.34599 3.88765,-1.68452 7.1122,-2.8725c3.99384,-1.4714 0.18472,-4.24959 6.76146,-4.39209c11.88667,-0.25754 32.21032,5.51325 32.21032,5.51325c0,0 -12.29497,5.72466 -24.18165,5.9822z" data-paper-data="{&quot;index&quot;:null}" fill="#906bc7" stroke="#000000"/></g><path d="M273.67715,193.08604c0,0 -20.32364,5.7708 -32.21031,5.51326c-6.57674,-0.14249 -2.76762,-2.92069 -6.76146,-4.39209c-3.22456,-1.18798 -7.14137,-1.52651 -7.11221,-2.8725c0.06528,-3.0131 10.01567,-4.4884 21.90234,-4.23086c11.88667,0.25754 24.18164,5.98219 24.18164,5.98219z" fill="#906bc7" stroke="#000000"/></g><g><g stroke="#000000" stroke-width="0"><path d="M209.13382,178.4384c0.0712,2.31232 -2.91715,4.28062 -6.67466,4.39633c-3.75752,0.11571 -7.76343,-3.7422 -7.76343,-3.7422c0,0 3.74806,-4.51575 7.50558,-4.63145c3.75752,-0.11571 6.86131,1.665 6.93251,3.97732z" fill="#ffd726"/><path d="M209.12737,178.22906c0.06052,1.96547 -2.47957,3.63853 -5.67346,3.73688c-3.19389,0.09835 -6.59892,-3.18086 -6.59892,-3.18086c0,0 3.18585,-3.83839 6.37974,-3.93674c3.19389,-0.09835 5.83211,1.41525 5.89264,3.38072z" fill="#debb21"/><path d="M210.34336,175.03359c0.04593,1.49149 0.72478,4.39712 -2.77853,5.86682c-1.51968,0.92665 -3.18515,-0.76397 -5.42486,-0.69501c-4.39705,0.1354 -9.10791,-5.03228 -9.10791,-5.03228c0,0 4.37187,-5.8409 8.76892,-5.9763c1.70614,-0.05254 4.98743,-0.99115 6.37853,-0.29289c2.19402,1.1013 2.10656,4.26928 2.16385,6.12966z" fill="#ffd726"/></g><path d="M234.26939,174.78235c0,2.98156 -2.9111,3.77178 -4.98283,5.9052c-2.66522,2.74459 -6.42186,6.71633 -10.93731,6.71633c-8.02539,0 -14.53125,-5.52649 -14.53125,-12.34375c0,-6.81726 6.50586,-12.34375 14.53125,-12.34375c2.39409,0 5.76407,2.15848 7.75535,3.02965c4.68378,2.04915 8.16479,4.25275 8.16479,9.03632z" fill="url(#color-3)" stroke="#000000" stroke-width="0"/><path d="M214.99602,165.89934c0.0714,1.80654 -1.79402,3.41619 -4.16656,3.59524c-2.37255,0.17904 -4.35376,-1.1403 -4.42514,-2.94684c-0.07142,-1.80654 1.79403,-3.41615 4.16657,-3.5952c2.37252,-0.17904 4.35373,1.1403 4.42515,2.94684z" data-paper-data="{&quot;index&quot;:null}" fill="#000000" stroke="#ffffff" stroke-width="0.25"/><path d="M214.31422,184.27501c-0.07142,1.80654 -2.05263,3.12588 -4.42515,2.94684c-2.37254,-0.17905 -4.23799,-1.78867 -4.16657,-3.5952c0.07138,-1.80654 2.0526,-3.12588 4.42514,-2.94684c2.37254,0.17905 4.23796,1.7887 4.16656,3.59524z" data-paper-data="{&quot;index&quot;:null}" fill="#000000" stroke="#ffffff" stroke-width="0.25"/><path d="M208.77381,173.51932v-0.60976h2.29227v0.60976z" fill="#000000" stroke="#ffffff" stroke-width="0"/><path d="M208.82845,174.75757l0.23088,-0.56436l2.1216,0.86794l-0.23088,0.56436z" fill="#000000" stroke="#ffffff" stroke-width="0"/><path d="M210.78056,170.71863l0.23088,0.56435l-2.1216,0.86794l-0.23087,-0.56436z" data-paper-data="{&quot;index&quot;:null}" fill="#000000" stroke="#ffffff" stroke-width="0"/></g><path d="M67.5,280v-200h345v200z" fill="none" stroke="#ffffff" stroke-width="0"/></g></g></svg>