<svg version="1.1" xmlns="http://www.w3.org/2000/svg" xmlns:xlink="http://www.w3.org/1999/xlink" width="70.16667" height="70.16667" viewBox="0,0,70.16667,70.16667"><g transform="translate(-204.91667,-144.91667)"><g data-paper-data="{&quot;isPaintingLayer&quot;:true}" fill-rule="nonzero" stroke-width="0" stroke-linecap="butt" stroke-linejoin="miter" stroke-miterlimit="10" stroke-dasharray="" stroke-dashoffset="0" style="mix-blend-mode: normal"><path d="M204.91668,215.08334v-70.16667h70.16667v70.16667z" fill="none" stroke="none"/><g><path d="M248.53161,189.37675l-20.77595,-9.30936c0,0 -2.66451,-2.00573 -0.77204,-6.21628c1.64445,-3.65872 5.12315,-3.49423 5.12315,-3.49423l20.77595,9.30936z" fill="#fff073" stroke="#ffffff"/><path d="M248.45365,189.34181l-10.83962,-4.85705l4.35111,-9.7105l10.83962,4.85705z" fill="#5a5629" stroke="#ffffff"/><path d="M245.0268,182.05469l-1.79283,1.11024l-1.93137,-3.57387l2.6429,1.92023l0.77537,-1.56616l2.82249,4.15413z" fill="#ffffff" stroke="#ffffff"/><path d="M253.03933,179.53474c1.05492,0.47269 0.9013,3.10729 -0.34315,5.88454c-1.24444,2.77725 -3.10844,4.64546 -4.16336,4.17277c-1.05492,-0.47269 -0.9013,-3.10729 0.34315,-5.88454c1.24444,-2.77725 3.10844,-4.64546 4.16336,-4.17277z" fill="#413e1e" stroke="#ffffff"/><path d="M234.16599,178.29462l-3.6383,-1.63027l0.61135,-1.36437l3.6383,1.63027z" fill="#000000" stroke="#ffffff"/><path d="M232.27179,178.86571l-1.00053,-0.44832l1.63027,-3.6383l1.00053,0.44832z" fill="#000000" stroke="none"/></g></g></g></svg>