<svg version="1.1" xmlns="http://www.w3.org/2000/svg" xmlns:xlink="http://www.w3.org/1999/xlink" width="401.18456" height="637.5236" viewBox="0,0,401.18456,637.5236"><g transform="translate(-134.83373,-2.80263)"><g stroke-miterlimit="10"><g fill="#000000" stroke="#33943a" stroke-width="0"><path d="M314.33367,86.07687c0,0 -12.18619,-18.68309 -14.20415,-27.12489c-2.51624,-10.52657 0.26916,-31.17166 0.26916,-31.17166l4.85805,-1.16131c0,0 1.05701,27.50879 3.61898,38.22664c1.83872,7.69183 10.31616,20.06984 10.31616,20.06984z"/><path d="M322.33518,80.05104c0,0 -10.97213,-26.4817 -11.5238,-37.62183c-0.68787,-13.89134 7.71466,-39.30909 7.71466,-39.30909l6.41082,-0.31748c0,0 -5.17305,34.99627 -4.47282,49.14013c0.50269,10.15048 8.28198,27.7907 8.28198,27.7907z"/><path d="M333.7334,76.11974c0,0 -2.75217,-22.13579 -0.86105,-30.6068c2.35807,-10.56309 13.92007,-27.89219 13.92007,-27.89219l4.87495,1.08814c0,0 -11.12121,25.18286 -13.52214,35.9379c-1.72308,7.7187 0.46312,22.56126 0.46312,22.56126z"/></g><path d="M429.81838,165.58801c0,36.68755 -24.7731,84.27744 -25.78695,119.50389c-1.23833,43.02606 -50.28852,15.20143 -74.26118,15.20143c-32.88674,0 -71.31657,33.59771 -75.71992,-35.32866c-1.77777,-27.82799 -26.94386,-76.6054 -26.94386,-103.30012c0,-63.56137 45.96415,-91.54733 102.66379,-91.54733c56.69964,0 100.04813,31.9094 100.04813,95.47078z" fill="#edafbc" stroke="#ffffff" stroke-width="0"/><path d="M489.12162,448.73078c0,105.81525 -69.09259,191.59546 -154.32261,191.59546c-85.23002,0 -154.32261,-85.78021 -154.32261,-191.59546c0,-105.81525 69.09259,-191.59544 154.32261,-191.59544c85.23002,0 154.32261,85.78019 154.32261,191.59544z" fill="#edafbc" stroke="#ffffff" stroke-width="0"/><path d="M305.02761,143.98537c1.77733,17.69909 -10.96611,33.90398 -28.46316,36.19468c-17.49727,2.2906 -33.12239,-10.20017 -34.89974,-27.89926c-1.77755,-17.69909 10.96581,-33.90398 28.46306,-36.19468c17.49727,-2.2906 33.12219,10.20049 34.89974,27.89956z" fill="#000000" stroke="#ffffff" stroke-width="0.5"/><path d="M410.96092,143.98537c1.77733,17.69909 -10.96611,33.90398 -28.46316,36.19468c-17.49727,2.2906 -33.12239,-10.20017 -34.89974,-27.89926c-1.77755,-17.69909 10.96581,-33.90398 28.46306,-36.19468c17.49727,-2.2906 33.12219,10.20049 34.89974,27.89956z" fill="#000000" stroke="#ffffff" stroke-width="0.5"/><path d="M319.88834,298.76187c-42.75381,0 -47.81366,-58.45528 -47.81366,-58.45528c0,0 5.05985,-15.24918 47.81366,-15.24918c42.75381,0 58.05947,19.06152 58.05947,19.06152c0,0 -15.30566,54.64295 -58.05947,54.64295z" fill="#edc824" stroke="#ffffff" stroke-width="0"/><path d="M325.51831,285.09506c-36.45404,0 -49.77734,-51.27247 -49.77734,-51.27247c0,0 13.32329,-24.21233 49.77734,-24.21233c36.45404,0 52.50741,21.25644 52.50741,21.25644c0,0 -16.05336,54.22842 -52.50741,54.22842z" fill="#dab821" stroke="#ffffff" stroke-width="0"/><path d="M380.31282,232.68535c0,0 -13.73368,-20.53987 -56.29061,-20.53987c-42.55694,0 -49.09501,23.93941 -49.09501,23.93941c0,0 5.03655,-52.12622 47.59351,-52.12622c42.55694,0 57.79211,48.72668 57.79211,48.72668z" fill="#ffd726" stroke="#ffffff" stroke-width="0"/><path d="M536.01758,456.3615c0,50.79445 0.74963,156.85451 -46.27547,172.32163c-40.15754,13.2083 -0.81034,-36.5123 -15.38509,-36.5123c-13.08573,0 -11.17016,17.46919 -21.15122,-0.65894c-15.99359,-29.04833 -40.50932,-80.47315 -40.50932,-135.15037c0,-88.79951 3.90257,-167.02985 3.90257,-167.02985c0,0 119.41853,78.23034 119.41853,167.02985z" fill="#906bc7" stroke="#ffffff" stroke-width="0"/><path d="M254.25298,279.96549c0,0 3.90257,78.23034 3.90257,167.02985c0,54.67724 -24.51575,106.10202 -40.50932,135.15035c-9.98109,18.12813 -8.06549,0.65894 -21.15122,0.65894c-14.57475,0 24.77244,49.7206 -15.38509,36.5123c-47.02508,-15.46712 -46.27547,-121.52716 -46.27547,-172.32161c0,-88.79951 119.41853,-167.02985 119.41853,-167.02985z" fill="#906bc7" stroke="#ffffff" stroke-width="0"/><path d="M305.02761,143.98536c1.77733,17.69909 -10.96611,33.90398 -28.46316,36.19468c-17.49727,2.2906 -33.12239,-10.20017 -34.89974,-27.89926c-1.77755,-17.69909 10.96581,-33.90398 28.46306,-36.19468c17.49727,-2.2906 33.12219,10.20049 34.89974,27.89956z" fill="#ffffff" stroke="#ffffff" stroke-width="0.5"/><path d="M410.96092,143.98536c1.77733,17.69909 -10.96611,33.90398 -28.46316,36.19468c-17.49727,2.2906 -33.12239,-10.20017 -34.89974,-27.89926c-1.77755,-17.69909 10.96581,-33.90398 28.46306,-36.19468c17.49727,-2.2906 33.12219,10.20049 34.89974,27.89956z" fill="#ffffff" stroke="#ffffff" stroke-width="0.5"/><path d="M269.69972,135.17264c0,5.80479 -3.0251,10.51051 -6.75676,10.51051c-3.73165,0 -6.75676,-4.70572 -6.75676,-10.51051c0,-5.80479 3.0251,-10.51051 6.75676,-10.51051c3.73165,0 6.75676,4.70572 6.75676,10.51051z" fill="#ff0000" stroke="#ffffff" stroke-width="0.5"/><path d="M399.32435,132.66516c0,5.8048 -3.0251,10.51051 -6.75676,10.51051c-3.73165,0 -6.75675,-4.70571 -6.75675,-10.51051c0,-5.8048 3.0251,-10.51051 6.75675,-10.51051c3.73165,0 6.75676,4.70571 6.75676,10.51051z" fill="#ff0000" stroke="#ffffff" stroke-width="0.5"/></g></g></svg>