<svg version="1.1" xmlns="http://www.w3.org/2000/svg" xmlns:xlink="http://www.w3.org/1999/xlink" width="199.67305" height="127.40752" viewBox="0,0,199.67305,127.40752"><g transform="translate(-159.04551,-113.30708)"><g data-paper-data="{&quot;isPaintingLayer&quot;:true}" fill-rule="nonzero" stroke-linecap="butt" stroke-linejoin="miter" stroke-miterlimit="10" stroke-dasharray="" stroke-dashoffset="0" style="mix-blend-mode: normal"><path d="M311.16783,113.30708c0,0 3.02645,6.91768 5.52154,11.17848c-2.14055,0.69433 -4.27115,1.40736 -6.40232,2.12177c-1.7989,-0.99187 -3.59492,-1.78322 -5.02581,-2.35438c-2.13946,-0.854 -4.56362,-1.36026 -6.94039,-1.84032z" fill="#966726" stroke="#ffffff" stroke-width="0"/><path d="M200.10856,232.00671c0,0 -2.86461,-8.05525 -5.39166,-12.70665c1.46335,0.47459 2.83166,0.89492 3.837,1.29541c3.07458,1.38217 7.56067,2.90275 12.3065,3.79066z" fill="#966726" stroke="#ffffff" stroke-width="0"/><path d="M183.86278,209.08568l1.36457,-0.96718c-0.19979,0.57272 -0.3313,1.15437 -0.38423,1.74351c-0.60457,-0.48123 -0.98034,-0.77633 -0.98034,-0.77633z" fill="#966726" stroke="#ffffff" stroke-width="0"/><path d="M206.60766,223.41483c-2.45365,0.83363 -4.90493,0.63725 -6.14859,-2.01881c1.79672,0.70786 3.89516,1.41354 6.14859,2.01881z" fill="#8b5f23" stroke="none" stroke-width="0.5"/><path d="M201.04842,142.34503c-0.03288,-1.72456 1.858,-2.90757 2.73169,-4.39477c1.38085,-2.35054 2.54992,-4.71706 3.60059,-7.14824l7.9766,-0.69709c0.03091,0.89628 -0.04547,1.75023 -0.28098,2.50132c-1.48972,4.75104 -7.18212,9.58315 -12.38481,12.12691c-0.57664,-0.79713 -1.62469,-1.42153 -1.64311,-2.38813z" fill="#a37029" stroke="#ffffff" stroke-width="0"/><path d="M282.81175,129.89919c-4.69991,1.45093 -9.46254,2.18791 -13.64242,5.01985c-1.15735,0.78412 -2.19647,1.68406 -3.17365,2.6454c-0.76244,-1.27759 -1.66148,-2.46716 -2.51435,-3.52506c-2.05873,-2.55361 -4.3942,-4.93816 -6.88268,-7.20901c6.78775,-1.29392 13.93358,-1.47495 21.0775,-1.50293c2.50331,0.63022 6.81184,1.39072 10.81932,2.75178c-1.88485,0.62074 -3.77702,1.23132 -5.68371,1.81995z" fill="#a37029" stroke="#ffffff" stroke-width="0"/><path d="M289.91588,140.43564c0,0 -0.03073,0.26137 -0.07966,0.71272c-0.12656,-0.05167 -0.25073,-0.10177 -0.37225,-0.15029c-0.37785,-0.15084 -0.7646,-0.29081 -1.15839,-0.42171z" fill="#a37029" stroke="#ffffff" stroke-width="0"/><path d="M194.85261,121.09631c-0.74415,1.58022 -1.55665,3.13712 -2.46904,4.68608c-0.89574,1.52071 -3.30445,5.49365 -3.29153,6.51309c0.02839,2.23925 2.87844,6.33823 4.86492,9.2877c-0.72198,0.23692 -1.45197,0.44207 -2.1992,0.57962c-3.87136,0.71272 -5.66667,-1.87826 -9.14744,-2.77271c-9.60068,-2.46708 -17.13398,-8.16764 -23.5648,-15.16458z" fill="#a37029" stroke="#ffffff" stroke-width="0"/><path d="M165.27659,150.11971c1.38841,1.52345 2.83425,2.98876 4.34587,4.36157c-0.74213,0.71606 -1.47184,1.48637 -2.1656,2.30246c-0.11381,-0.99151 -1.23568,-4.13869 -2.18027,-6.66404z" fill="#a37029" stroke="#ffffff" stroke-width="0"/><path d="M358.71855,199.21113l-24.04789,6.9708c-1.89621,-0.88978 -3.87262,-1.5931 -5.85385,-2.28302c1.2115,-0.62297 2.38563,-1.30053 3.50776,-2.05573c2.42966,-0.49693 4.76744,-1.19304 7.34986,-1.65405c5.33417,-0.95226 10.72625,-1.34923 16.0707,-2.39533l1.79884,-0.48831c0,0 0.04492,-0.01234 0.11927,-0.04009c0.61929,1.17338 1.05532,1.94576 1.05532,1.94576z" fill="#a37029" stroke="#ffffff" stroke-width="0"/><path d="M244.44697,240.7146c0,0 -0.01668,-2.31062 -0.16292,-5.11302c6.12806,-1.10659 12.29123,-1.97718 18.35651,-3.15105c0.03017,0.02735 0.06054,0.05455 0.09111,0.08152c0.85226,0.75241 1.78841,1.43899 2.78261,2.07572z" fill="#a37029" stroke="#ffffff" stroke-width="0"/><path d="M328.66495,197.17097c-2.60906,-0.44252 -6.04384,1.28082 -8.47274,1.98491c0,0 -1.64018,0.47544 -2.11564,-1.16475c-0.05066,-0.17476 -0.07729,-0.33629 -0.08446,-0.48544c2.58563,-0.49978 5.04602,-1.25161 7.78071,-1.73981c2.87697,-0.5136 5.77077,-0.86565 8.66487,-1.24516c-0.96376,1.16051 -2.03183,2.18558 -3.18161,3.10486c-0.91309,-0.10953 -1.80576,-0.32141 -2.59112,-0.4546z" fill="#8b5f23" stroke="none" stroke-width="0.5"/></g></g></svg>