<svg version="1.1" xmlns="http://www.w3.org/2000/svg" xmlns:xlink="http://www.w3.org/1999/xlink" width="671.31201" height="661.97332" viewBox="0,0,671.31201,661.97332"><g transform="translate(126.06156,124.80327)"><g data-paper-data="{&quot;isPaintingLayer&quot;:true}" fill-rule="nonzero" stroke-width="0" stroke-linecap="butt" stroke-linejoin="miter" stroke-miterlimit="10" stroke-dasharray="" stroke-dashoffset="0" style="mix-blend-mode: normal"><g data-paper-data="{&quot;index&quot;:null}" stroke="#563a16"><path d="M289.65662,90.5797l-2.45495,-0.78111l28.56656,-9.48499l5.4678,0.22318z" fill="#565dd8"/><path d="M289.39305,124.71199v-5.22231l29.3324,-9.11285l-0.20834,5.22231z" fill="#565dd8"/><path d="M289.90078,108.71579v-5.22232l27.66573,-9.52952l0.41667,6.05566z" fill="#565dd8"/><g data-paper-data="{&quot;index&quot;:null}"><path d="M307.81415,133.44971v37.62006l-2.61116,-3.09471v-34.52535z" data-paper-data="{&quot;index&quot;:null}" fill="#d82020"/><path d="M310.38067,133.33812v34.52535l-2.61116,3.09471v-37.62006z" fill="#ff2727"/></g><g data-paper-data="{&quot;index&quot;:null}"><path d="M289.9422,117.08642v37.62007l-2.61116,-3.09471v-34.52535z" data-paper-data="{&quot;index&quot;:null}" fill="#565dd8"/><path d="M292.50871,116.97484v34.52535l-2.61116,3.09471v-37.62007z" fill="#666dff"/></g><g data-paper-data="{&quot;index&quot;:null}"><path d="M337.41785,141.49244v20.59916l-2.61116,-3.09471v-17.50445z" data-paper-data="{&quot;index&quot;:null}" fill="#d82020"/><path d="M339.98437,141.38085v17.50444l-2.61116,3.09471v-20.59915z" fill="#ff2727"/></g><g><path d="M289.61034,127.66428l-0.46357,-2.92561l51.76381,16.13636l0.03325,2.41494l-32.11568,10.81574z" fill="#565dd8"/><path d="M289.11131,124.15176l32.17859,-9.99889l19.57157,26.45792l-32.11569,10.81574z" fill="#666dff"/></g><path d="M316.05702,114.78437v-34.52535l2.61116,0.9671v33.55825z" data-paper-data="{&quot;index&quot;:null}" fill="#565dd8"/><path d="M318.62355,114.89595v-33.55824l2.61116,-0.9671v34.52534z" fill="#666dff"/><path d="M287.28588,124.09268v-34.52535l2.61118,0.9671v33.55825z" data-paper-data="{&quot;index&quot;:null}" fill="#565dd8"/><path d="M289.85243,124.20426v-33.55825l2.61116,-0.9671v34.52535z" fill="#666dff"/><path d="M289.61065,95.74745v-5.22232l31.62406,-10.15452v5.22232z" fill="#666dff"/></g><g data-paper-data="{&quot;index&quot;:null}" stroke="#563a16"><path d="M186.90947,249.82249l5.4678,-0.22318l28.56656,9.48499l-2.45495,0.78111z" fill="#565dd8"/><path d="M189.62839,284.88485l-0.20834,-5.22231l29.3324,9.11285v5.22231z" fill="#565dd8"/><path d="M190.16232,269.30532l0.41667,-6.05566l27.66573,9.52952v5.22232z" fill="#565dd8"/><g data-paper-data="{&quot;index&quot;:null}"><path d="M202.94251,302.73543v34.52535l-2.61116,3.09471v-37.62006z" data-paper-data="{&quot;index&quot;:null}" fill="#d82020"/><path d="M200.37599,302.62383v37.62006l-2.61116,-3.09471v-34.52535z" fill="#ff2727"/></g><g data-paper-data="{&quot;index&quot;:null}"><path d="M220.81446,286.37214v34.52535l-2.61116,3.09471v-37.62007z" data-paper-data="{&quot;index&quot;:null}" fill="#565dd8"/><path d="M218.24795,286.26055v37.62007l-2.61116,-3.09471v-34.52535z" fill="#666dff"/></g><g data-paper-data="{&quot;index&quot;:null}"><path d="M173.33881,310.77816v17.50445l-2.61116,3.09471v-20.59916z" data-paper-data="{&quot;index&quot;:null}" fill="#d82020"/><path d="M170.77229,310.66656v20.59915l-2.61116,-3.09471v-17.50444z" fill="#ff2727"/></g><g><path d="M199.31735,323.39141l-32.11568,-10.81574l0.03325,-2.41494l51.76381,-16.13636l-0.46357,2.92561z" fill="#565dd8"/><path d="M199.39973,320.71224l-32.11569,-10.81574l19.57157,-26.45792l32.17859,9.99889z" fill="#666dff"/></g><path d="M189.47732,284.07008v-33.55825l2.61116,-0.9671v34.52535z" data-paper-data="{&quot;index&quot;:null}" fill="#565dd8"/><path d="M186.91079,284.18166v-34.52535l2.61116,0.9671v33.55824z" fill="#666dff"/><path d="M218.24844,293.37839v-33.55825l2.61118,-0.9671v34.52535z" data-paper-data="{&quot;index&quot;:null}" fill="#565dd8"/><path d="M215.68191,293.48997v-34.52535l2.61116,0.9671v33.55825z" fill="#666dff"/><path d="M186.91079,254.87865v-5.22232l31.62406,10.15452v5.22232z" fill="#666dff"/></g><g stroke="#563a16"><path d="M149.44915,43.07646l5.4678,-0.22317l28.56655,9.48498l-2.45495,0.78111z" fill="#d82020"/><path d="M152.16807,78.13882l-0.20834,-5.22231l29.33239,9.11285v5.22231z" fill="#d82020"/><path d="M152.70201,62.55929l0.41667,-6.05566l27.66573,9.52952v5.22232z" fill="#d82020"/><g data-paper-data="{&quot;index&quot;:null}"><path d="M165.48219,95.9894v34.52534l-2.61116,3.09471v-37.62005z" data-paper-data="{&quot;index&quot;:null}" fill="#d82020"/><path d="M162.91568,95.8778v37.62006l-2.61116,-3.09471v-34.52535z" fill="#ff2727"/></g><g data-paper-data="{&quot;index&quot;:null}"><path d="M183.35414,79.62611v34.52535l-2.61116,3.09471v-37.62007z" data-paper-data="{&quot;index&quot;:null}" fill="#d82020"/><path d="M180.78764,79.51452v37.62007l-2.61116,-3.09471v-34.52535z" fill="#ff2727"/></g><g data-paper-data="{&quot;index&quot;:null}"><path d="M135.87849,104.03213v17.50445l-2.61116,3.09471v-20.59916z" data-paper-data="{&quot;index&quot;:null}" fill="#d82020"/><path d="M133.31197,103.92053v20.59915l-2.61116,-3.09471v-17.50444z" fill="#ff2727"/></g><g><path d="M161.85704,116.64538l-32.11568,-10.81574l0.03325,-2.41493l51.7638,-16.13636l-0.46357,2.92561z" fill="#d82020"/><path d="M161.93941,113.96621l-32.11569,-10.81574l19.57156,-26.45792l32.17859,9.99889z" fill="#ff2727"/></g><path d="M152.017,77.32405v-33.55825l2.61116,-0.9671v34.52535z" data-paper-data="{&quot;index&quot;:null}" fill="#d82020"/><path d="M149.45047,77.43563v-34.52534l2.61116,0.9671v33.55825z" fill="#ff2727"/><path d="M180.78813,86.63236v-33.55825l2.61118,-0.9671v34.52535z" data-paper-data="{&quot;index&quot;:null}" fill="#d82020"/><path d="M178.22159,86.74394v-34.52535l2.61116,0.9671v33.55825z" fill="#ff2727"/><path d="M149.45047,48.13262v-5.22232l31.62406,10.15452v5.22232z" fill="#ff2727"/></g><g data-paper-data="{&quot;index&quot;:null}" stroke="#563a16"><path d="M103.6686,241.86938l-2.45495,-0.78111l28.56656,-9.48498l5.4678,0.22318z" fill="#d82020"/><path d="M103.40504,276.00167v-5.22231l29.3324,-9.11285l-0.20834,5.22231z" fill="#d82020"/><path d="M103.91277,260.00547v-5.22232l27.66573,-9.52952l0.41667,6.05566z" fill="#d82020"/><g data-paper-data="{&quot;index&quot;:null}"><path d="M121.82613,284.73939v37.62006l-2.61116,-3.09471v-34.52535z" data-paper-data="{&quot;index&quot;:null}" fill="#d82020"/><path d="M124.39265,284.6278v34.52535l-2.61116,3.09471v-37.62006z" fill="#ff2727"/></g><g data-paper-data="{&quot;index&quot;:null}"><path d="M103.95419,268.3761v37.62007l-2.61116,-3.09471v-34.52535z" data-paper-data="{&quot;index&quot;:null}" fill="#d82020"/><path d="M106.52069,268.26452v34.52535l-2.61116,3.09471v-37.62007z" fill="#ff2727"/></g><g data-paper-data="{&quot;index&quot;:null}"><path d="M151.42983,292.78212v20.59916l-2.61116,-3.09471v-17.50445z" data-paper-data="{&quot;index&quot;:null}" fill="#d82020"/><path d="M153.99635,292.67053v17.50444l-2.61116,3.09471v-20.59915z" fill="#ff2727"/></g><g><path d="M103.62233,278.95397l-0.46357,-2.92561l51.76381,16.13636l0.03325,2.41494l-32.11568,10.81574z" fill="#d82020"/><path d="M103.1233,275.44144l32.17859,-9.99889l19.57156,26.45792l-32.11569,10.81574z" fill="#ff2727"/></g><path d="M130.06901,266.07405v-34.52535l2.61116,0.9671v33.55825z" data-paper-data="{&quot;index&quot;:null}" fill="#d82020"/><path d="M132.63554,266.18563v-33.55824l2.61116,-0.9671v34.52534z" fill="#ff2727"/><path d="M101.29787,275.38236v-34.52535l2.61118,0.9671v33.55825z" data-paper-data="{&quot;index&quot;:null}" fill="#d82020"/><path d="M103.86442,275.49394v-33.55825l2.61116,-0.9671v34.52534z" fill="#ff2727"/><path d="M103.62264,247.03713v-5.22232l31.62406,-10.15452v5.22232z" fill="#ff2727"/></g><g stroke="#000000"><path d="M-120.89034,-32.69076v-71h622.90992v71z" fill="#afae9f"/><path d="M-120.89034,-89.69074v-35h622.90992v35z" fill="#cccbba"/></g><g stroke="#000000"><path d="M-125.39485,164.00594v-71h131.91893v71z" fill="#afae9f"/><path d="M-125.39485,107.00595v-35h131.91893v35z" fill="#cccbba"/></g><path d="M-22.99545,513.34088v-442.24989l55,-0.69905v442.94895z" fill="#cccbba" stroke="#000000"/><path d="M-126.06156,104.93247v-229.37317l44.0991,-0.36257v229.73574z" fill="#cccbba" stroke="#000000"/><path d="M79.53357,192.25222v-38.20837h11.18171v38.20837l-5.24143,2.7488z" fill="#398f7e" stroke="#ffffff"/><path d="M199.22332,383.75102l-5.24143,-2.7488v-38.20837h11.18171v38.20837z" data-paper-data="{&quot;index&quot;:null}" fill="#398f7e" stroke="#ffffff"/><path d="M294.53356,392.25222v-38.20837h11.18171v38.20837l-5.24143,2.7488z" fill="#398f7e" stroke="#ffffff"/><path d="M382.97333,236.25102l-5.24143,-2.7488v-38.20837h11.18171v38.20837z" data-paper-data="{&quot;index&quot;:null}" fill="#398f7e" stroke="#ffffff"/><path d="M130.89953,210.11944v-38.20837h11.18171v38.20837l-5.24143,2.7488z" fill="#398f7e" stroke="#ffffff"/><path d="M147.85735,401.61824l-5.24143,-2.7488v-38.20837h11.18171v38.20837z" data-paper-data="{&quot;index&quot;:null}" fill="#398f7e" stroke="#ffffff"/><path d="M345.89953,410.11944v-38.20837h11.18171v38.20837l-5.24143,2.7488z" fill="#398f7e" stroke="#ffffff"/><path d="M331.60736,254.11824l-5.24143,-2.7488v-38.20837h11.18171v38.20837z" data-paper-data="{&quot;index&quot;:null}" fill="#398f7e" stroke="#ffffff"/><path d="M170.73438,167.2381v-38.20837h11.18171v38.20837l-5.24143,2.7488z" fill="#398f7e" stroke="#ffffff"/><path d="M108.02251,358.73689l-5.24143,-2.7488v-38.20837h11.18171v38.20837z" data-paper-data="{&quot;index&quot;:null}" fill="#398f7e" stroke="#ffffff"/><path d="M385.73437,367.23809v-38.20837h11.18171v38.20837l-5.24143,2.7488z" fill="#398f7e" stroke="#ffffff"/><path d="M291.77252,211.2369l-5.24143,-2.7488v-38.20837h11.18171v38.20837z" data-paper-data="{&quot;index&quot;:null}" fill="#398f7e" stroke="#ffffff"/><path d="M112.72927,177.68356v-38.20837h11.18171v38.20837l-5.24143,2.7488z" fill="#398f7e" stroke="#ffffff"/><path d="M166.02762,369.18236l-5.24143,-2.7488v-38.20837h11.18171v38.20837z" data-paper-data="{&quot;index&quot;:null}" fill="#398f7e" stroke="#ffffff"/><path d="M327.72926,377.68355v-38.20837h11.18171v38.20837l-5.24143,2.7488z" fill="#398f7e" stroke="#ffffff"/><path d="M349.77763,221.68236l-5.24143,-2.7488v-38.20837h11.18171v38.20837z" data-paper-data="{&quot;index&quot;:null}" fill="#398f7e" stroke="#ffffff"/><path d="M68.51695,153.21742l-0.01559,-7.86359l118.58818,-26.73391l-0.26916,8.57955l-42.61468,59.5411z" fill="#41a38f" stroke="#ffffff"/><path d="M140.49147,375.49057l-42.61468,-59.5411l-0.26916,-8.57955l118.58818,26.73391l-0.01559,7.86359z" data-paper-data="{&quot;index&quot;:null}" fill="#41a38f" stroke="#ffffff"/><path d="M283.51694,353.21741l-0.01559,-7.86359l118.58818,-26.73391l-0.26916,8.57955l-42.61468,59.5411z" fill="#41a38f" stroke="#ffffff"/><path d="M324.24147,227.99057l-42.61468,-59.5411l-0.26916,-8.57955l118.58818,26.73391l-0.01559,7.86359z" data-paper-data="{&quot;index&quot;:null}" fill="#41a38f" stroke="#ffffff"/><path d="M69.14239,144.85333l42.61468,-59.5411l75.68875,33.52314l-42.61468,59.5411z" fill="#52ccb3" stroke="#ffffff"/><path d="M139.86603,367.12647l-42.61468,-59.5411l75.68875,-33.52314l42.61468,59.5411z" data-paper-data="{&quot;index&quot;:null}" fill="#52ccb3" stroke="#ffffff"/><path d="M323.61604,219.62647l-42.61468,-59.5411l75.68875,-33.52314l42.61468,59.5411z" data-paper-data="{&quot;index&quot;:null}" fill="#52ccb3" stroke="#ffffff"/><g stroke="#563a16"><g data-paper-data="{&quot;index&quot;:null}"><path d="M377.26673,208.89089v37.22682l-2.58386,-3.06236v-34.16446z" data-paper-data="{&quot;index&quot;:null}" fill="#d82020"/><path d="M379.80642,218.78047v24.16446l-2.58386,3.06236v-31.63858z" fill="#ff2727"/></g><g data-paper-data="{&quot;index&quot;:null}"><path d="M348.93976,213.6417v37.22682l-2.58386,-3.06236v-34.16446z" data-paper-data="{&quot;index&quot;:null}" fill="#d82020"/><path d="M351.47945,213.53128v34.16446l-2.58386,3.06236v-37.22682z" fill="#ff2727"/></g><g><path d="M346.17368,215.58796l-0.17289,-2.60013l44.06456,18.26438l-0.16341,2.11842l-28.99939,6.91529z" fill="#ff2727"/><path d="M346.3151,213.23414l28.69076,-6.95795l15.0375,24.74061l-28.99939,6.91529z" fill="#d82020"/></g><g data-paper-data="{&quot;index&quot;:null}"><path d="M388.45815,222.48048v37.22682l-2.58386,-3.06236v-34.16446z" data-paper-data="{&quot;index&quot;:null}" fill="#d82020"/><path d="M390.99784,222.37005v34.16446l-2.58386,3.06236v-37.22682z" fill="#ff2727"/></g><g data-paper-data="{&quot;index&quot;:null}"><path d="M360.13117,227.23128v37.22682l-2.58386,-3.06236v-34.16446z" data-paper-data="{&quot;index&quot;:null}" fill="#d82020"/><path d="M362.67086,227.12087v34.16446l-2.58386,3.06236v-37.22682z" fill="#ff2727"/></g><g><path d="M385.97303,231.94792v-34.16446l2.58386,0.95699v33.20747z" data-paper-data="{&quot;index&quot;:null}" fill="#ff2727"/><path d="M388.51273,232.05837v-33.20747l2.58386,-0.95699v34.16446z" fill="#ff2727"/><path d="M357.50265,241.15892v-34.16446l2.58386,0.95699v33.20747z" data-paper-data="{&quot;index&quot;:null}" fill="#d82020"/><path d="M360.04235,241.26937v-33.20747l2.58386,-0.95699v34.16446z" fill="#ff2727"/><path d="M359.8031,213.10999v-5.16773l31.2935,-10.04837v5.16773z" fill="#ff2727"/><path d="M360.75684,226.63041v-5.16773l31.2935,-10.04837v5.16773z" fill="#ff2727"/><path d="M359.84857,207.99627l-2.42928,-0.77295l28.26794,-9.38584l5.41066,0.22084z" fill="#d82020"/><path d="M359.58777,241.77176v-5.16773l31.2935,-10.04837v5.16773z" fill="#ff2727"/></g></g><g stroke="#563a16"><g data-paper-data="{&quot;index&quot;:null}"><path d="M193.6953,363.17661v37.22682l-2.58386,-3.06236v-34.16446z" data-paper-data="{&quot;index&quot;:null}" fill="#fff266"/><path d="M196.23499,373.06619v24.16446l-2.58386,3.06236v-31.63858z" fill="#c7bd50"/></g><g data-paper-data="{&quot;index&quot;:null}"><path d="M165.36833,367.92742v37.22682l-2.58386,-3.06236v-34.16446z" data-paper-data="{&quot;index&quot;:null}" fill="#c7bd50"/><path d="M167.90802,367.817v34.16446l-2.58386,3.06236v-37.22682z" fill="#fff266"/></g><g><path d="M162.60225,369.87368l-0.17289,-2.60013l44.06456,18.26438l-0.16341,2.11842l-28.99939,6.91529z" fill="#fff266"/><path d="M162.74367,367.51986l28.69076,-6.95795l15.0375,24.74061l-28.99939,6.91529z" fill="#c7bd50"/></g><g data-paper-data="{&quot;index&quot;:null}"><path d="M204.88672,376.7662v37.22682l-2.58386,-3.06236v-34.16446z" data-paper-data="{&quot;index&quot;:null}" fill="#c7bd50"/><path d="M207.42641,376.65577v34.16446l-2.58386,3.06236v-37.22682z" fill="#fff266"/></g><g data-paper-data="{&quot;index&quot;:null}"><path d="M176.55974,381.517v37.22682l-2.58386,-3.06236v-34.16446z" data-paper-data="{&quot;index&quot;:null}" fill="#c7bd50"/><path d="M179.09943,381.40659v34.16446l-2.58386,3.06236v-37.22682z" fill="#fff266"/></g><g><path d="M202.4016,386.23364v-34.16446l2.58386,0.95699v33.20747z" data-paper-data="{&quot;index&quot;:null}" fill="#c7bd50"/><path d="M204.9413,386.34409v-33.20747l2.58386,-0.95699v34.16446z" fill="#fff266"/><path d="M173.93122,395.44464v-34.16446l2.58386,0.95699v33.20747z" data-paper-data="{&quot;index&quot;:null}" fill="#c7bd50"/><path d="M176.47092,395.55509v-33.20747l2.58386,-0.95699v34.16446z" fill="#fff266"/><path d="M176.23167,367.39571v-5.16773l31.2935,-10.04837v5.16773z" fill="#fff266"/><path d="M177.18541,380.91612v-5.16773l31.2935,-10.04837v5.16773z" fill="#fff266"/><path d="M176.27714,362.28199l-2.42928,-0.77295l28.26794,-9.38584l5.41066,0.22084z" fill="#c7bd50"/><path d="M176.01634,396.05748v-5.16773l31.2935,-10.04837v5.16773z" fill="#fff266"/></g></g><g stroke="#563a16"><g data-paper-data="{&quot;index&quot;:null}"><path d="M185.60706,162.63739v37.22682l-2.58386,-3.06236v-34.16446z" data-paper-data="{&quot;index&quot;:null}" fill="#50c758"/><path d="M188.14675,172.52697v24.16446l-2.58386,3.06236v-31.63858z" fill="#5de866"/></g><g data-paper-data="{&quot;index&quot;:null}"><path d="M157.28009,167.3882v37.22682l-2.58386,-3.06236v-34.16446z" data-paper-data="{&quot;index&quot;:null}" fill="#50c758"/><path d="M159.81978,167.27778v34.16446l-2.58386,3.06236v-37.22682z" fill="#5de866"/></g><g><path d="M154.51401,169.33446l-0.17289,-2.60013l44.06456,18.26438l-0.16341,2.11842l-28.99939,6.91529z" fill="#5de866"/><path d="M154.65543,166.98064l28.69076,-6.95795l15.0375,24.74061l-28.99939,6.91529z" fill="#50c758"/></g><g data-paper-data="{&quot;index&quot;:null}"><path d="M196.79848,176.22698v37.22682l-2.58386,-3.06236v-34.16446z" data-paper-data="{&quot;index&quot;:null}" fill="#50c758"/><path d="M199.33817,176.11655v34.16446l-2.58386,3.06236v-37.22682z" fill="#5de866"/></g><g data-paper-data="{&quot;index&quot;:null}"><path d="M168.4715,180.97778v37.22682l-2.58386,-3.06236v-34.16446z" data-paper-data="{&quot;index&quot;:null}" fill="#50c758"/><path d="M171.01119,180.86737v34.16446l-2.58386,3.06236v-37.22682z" fill="#5de866"/></g><g><path d="M194.31336,185.69442v-34.16446l2.58386,0.95699v33.20747z" data-paper-data="{&quot;index&quot;:null}" fill="#50c758"/><path d="M196.85306,185.80487v-33.20747l2.58386,-0.95699v34.16446z" fill="#5de866"/><path d="M165.84298,194.90542v-34.16446l2.58386,0.95699v33.20747z" data-paper-data="{&quot;index&quot;:null}" fill="#50c758"/><path d="M168.38268,195.01587v-33.20747l2.58386,-0.95699v34.16446z" fill="#5de866"/><path d="M168.14343,166.85649v-5.16773l31.2935,-10.04837v5.16773z" fill="#5de866"/><path d="M169.09718,180.37691v-5.16773l31.2935,-10.04837v5.16773z" fill="#5de866"/><path d="M168.1889,161.74277l-2.42928,-0.77295l28.26794,-9.38584l5.41066,0.22084z" fill="#5de866"/><path d="M167.9281,195.51826v-5.16773l31.2935,-10.04837v5.16773z" fill="#5de866"/></g></g><g stroke="#563a16"><path d="M368.02058,246.64789l5.4678,-0.22318l28.56656,9.48499l-2.45495,0.78111z" fill="#c7bd50"/><path d="M370.7395,281.71024l-0.20834,-5.22231l29.3324,9.11285v5.22231z" fill="#c7bd50"/><path d="M371.27343,266.13072l0.41667,-6.05566l27.66573,9.52952v5.22232z" fill="#c7bd50"/><g data-paper-data="{&quot;index&quot;:null}"><path d="M384.05362,299.56082v34.52535l-2.61116,3.09471v-37.62006z" data-paper-data="{&quot;index&quot;:null}" fill="#d82020"/><path d="M381.4871,299.44923v37.62006l-2.61116,-3.09471v-34.52535z" fill="#ff2727"/></g><g data-paper-data="{&quot;index&quot;:null}"><path d="M401.92557,283.19754v34.52535l-2.61116,3.09471v-37.62007z" data-paper-data="{&quot;index&quot;:null}" fill="#c7bd50"/><path d="M399.35906,283.08594v37.62007l-2.61116,-3.09471v-34.52535z" fill="#fff266"/></g><g data-paper-data="{&quot;index&quot;:null}"><path d="M354.44992,307.60355v17.50445l-2.61116,3.09471v-20.59916z" data-paper-data="{&quot;index&quot;:null}" fill="#d82020"/><path d="M351.8834,307.49196v20.59915l-2.61116,-3.09471v-17.50444z" fill="#ff2727"/></g><g><path d="M380.42846,320.21681l-32.11568,-10.81574l0.03325,-2.41494l51.76381,-16.13636l-0.46357,2.92561z" fill="#c7bd50"/><path d="M380.51084,317.53763l-32.11569,-10.81574l19.57157,-26.45792l32.17859,9.99889z" fill="#fff266"/></g><path d="M370.58843,280.89548v-33.55825l2.61116,-0.9671v34.52535z" data-paper-data="{&quot;index&quot;:null}" fill="#c7bd50"/><path d="M368.0219,281.00706v-34.52534l2.61116,0.9671v33.55824z" fill="#fff266"/><path d="M399.35955,290.20379v-33.55825l2.61118,-0.9671v34.52535z" data-paper-data="{&quot;index&quot;:null}" fill="#c7bd50"/><path d="M396.79302,290.31537v-34.52535l2.61116,0.9671v33.55825z" fill="#fff266"/><path d="M368.0219,251.70404v-5.22232l31.62406,10.15452v5.22232z" fill="#fff266"/></g><path d="M284.14239,344.85333l42.61468,-59.5411l75.68875,33.52314l-42.61468,59.5411z" fill="#52ccb3" stroke="#ffffff"/><g data-paper-data="{&quot;index&quot;:null}" stroke="#563a16"><g data-paper-data="{&quot;index&quot;:null}"><path d="M304.56574,373.35168v34.16446l-2.58386,3.06236v-37.22682z" data-paper-data="{&quot;index&quot;:null}" fill="#50c758"/><path d="M302.02605,378.82949v31.63858l-2.58386,-3.06236v-24.16446z" fill="#5de866"/></g><g data-paper-data="{&quot;index&quot;:null}"><path d="M332.89271,378.10249v34.16446l-2.58386,3.06236v-37.22682z" data-paper-data="{&quot;index&quot;:null}" fill="#50c758"/><path d="M330.35302,377.99207v37.22682l-2.58386,-3.06236v-34.16446z" fill="#5de866"/></g><g><path d="M318.34606,404.74671l-28.99939,-6.91529l-0.16341,-2.11842l44.06456,-18.26438l-0.17289,2.60013z" fill="#5de866"/><path d="M318.20464,402.39288l-28.99939,-6.91529l15.0375,-24.74061l28.69076,6.95795z" fill="#50c758"/></g><g data-paper-data="{&quot;index&quot;:null}"><path d="M293.37432,386.94127v34.16446l-2.58386,3.06236v-37.22682z" data-paper-data="{&quot;index&quot;:null}" fill="#50c758"/><path d="M290.83463,386.83084v37.22682l-2.58386,-3.06236v-34.16446z" fill="#5de866"/></g><g data-paper-data="{&quot;index&quot;:null}"><path d="M321.7013,391.69207v34.16446l-2.58386,3.06236v-37.22682z" data-paper-data="{&quot;index&quot;:null}" fill="#50c758"/><path d="M319.16161,391.58166v37.22682l-2.58386,-3.06236v-34.16446z" fill="#5de866"/></g><g><path d="M290.69172,396.40871v-33.20747l2.58386,-0.95699v34.16446z" data-paper-data="{&quot;index&quot;:null}" fill="#50c758"/><path d="M288.15202,396.51916v-34.16446l2.58386,0.95699v33.20747z" fill="#5de866"/><path d="M319.1621,405.61971v-33.20747l2.58386,-0.95699v34.16446z" data-paper-data="{&quot;index&quot;:null}" fill="#50c758"/><path d="M316.6224,405.73016v-34.16446l2.58386,0.95699v33.20747z" fill="#5de866"/><path d="M288.15201,367.52241v-5.16773l31.2935,10.04837v5.16773z" fill="#5de866"/><path d="M287.19827,381.04282v-5.16773l31.2935,10.04837v5.16773z" fill="#5de866"/><path d="M288.15072,362.51911l5.41066,-0.22084l28.26794,9.38584l-2.42928,0.77295z" fill="#5de866"/><path d="M288.36734,396.18418v-5.16773l31.2935,10.04837v5.16773z" fill="#5de866"/></g></g><path d="M-104.01201,537.17005v-592.15049h649.26246v592.15049z" fill="#db0909" stroke="#000000"/></g></g></svg>