<svg version="1.1" xmlns="http://www.w3.org/2000/svg" xmlns:xlink="http://www.w3.org/1999/xlink" width="90.16667" height="90.16667" viewBox="0,0,90.16667,90.16667"><g transform="translate(-194.91667,-134.91666)"><g data-paper-data="{&quot;isPaintingLayer&quot;:true}" fill-rule="nonzero" stroke-width="0" stroke-linecap="butt" stroke-linejoin="miter" stroke-miterlimit="10" stroke-dasharray="" stroke-dashoffset="0" style="mix-blend-mode: normal"><path d="M239.64859,175.15371l11.61229,-18.8095l2.35119,1.45154l-11.61229,18.8095z" fill="#ff0000" stroke="#33943a"/><path d="M194.91667,225.08333v-90.16667h90.16667v90.16667z" fill="none" stroke="none"/><path d="M224.78151,189.07989l0.13434,-3.4872l28.53395,-13.34788l0.08956,3.81696l-13.75503,22.2803z" fill="#464646" stroke="#33943a"/><path d="M224.78151,185.45921l13.75503,-22.2803l15.00282,9.26218l-13.75503,22.2803z" fill="#616161" stroke="#33943a"/><path d="M234.13873,176.31384c1.62241,-2.62797 5.06802,-3.44313 7.69599,-1.82072c2.62797,1.62241 3.44313,5.06802 1.82072,7.69599c-1.62241,2.62797 -5.06802,3.44313 -7.69599,1.82072c-2.62797,-1.62241 -3.44313,-5.06802 -1.82072,-7.69599z" fill="#ff0000" stroke="#33943a"/><path d="M248.03453,158.0636c0,0 1.59065,-3.17363 4.77726,-1.22582c2.47476,1.5127 0.70885,4.61273 0.70885,4.61273z" fill="#ff0000" stroke="none"/></g></g></svg>