<svg version="1.1" xmlns="http://www.w3.org/2000/svg" xmlns:xlink="http://www.w3.org/1999/xlink" width="210" height="210" viewBox="0,0,210,210"><g transform="translate(-135,-75)"><g data-paper-data="{&quot;isPaintingLayer&quot;:true}" fill-rule="nonzero" stroke-width="0" stroke-linecap="butt" stroke-linejoin="miter" stroke-miterlimit="10" stroke-dasharray="" stroke-dashoffset="0" style="mix-blend-mode: normal"><g fill="#000000" stroke="#000000"><g><path d="M211.14287,195.71632c0,-7.61589 6.1739,-13.78978 13.78978,-13.78978c7.61589,0 13.78978,6.17389 13.78978,13.78978c0,7.61589 -6.17389,13.78978 -13.78978,13.78978c-7.61589,0 -13.78978,-6.17389 -13.78978,-13.78978zM225.13544,204.43633c5.03992,0 9.12559,-4.08567 9.12559,-9.12559c0,-5.03992 -4.08567,-9.12559 -9.12559,-9.12559c-5.03992,0 -9.12559,4.08567 -9.12559,9.12559c0,5.03992 4.08567,9.12559 9.12559,9.12559z"/><path d="M241.0748,196.32469c0,-7.61589 6.1739,-13.78978 13.78978,-13.78978c7.61589,0 13.78978,6.17389 13.78978,13.78978c0,7.61589 -6.17389,13.78978 -13.78978,13.78978c-7.61589,0 -13.78978,-6.17389 -13.78978,-13.78978zM255.06737,205.0447c5.03992,0 9.12559,-4.08567 9.12559,-9.12559c0,-5.03992 -4.08567,-9.12559 -9.12559,-9.12559c-5.03992,0 -9.12559,4.08567 -9.12559,9.12559c0,5.03992 4.08567,9.12559 9.12559,9.12559z"/><path d="M240.95313,165.66269c0,-7.61589 6.1739,-13.78978 13.78978,-13.78978c7.61589,0 13.78978,6.17389 13.78978,13.78978c0,7.61589 -6.17389,13.78978 -13.78978,13.78978c-7.61589,0 -13.78978,-6.17389 -13.78978,-13.78978zM254.9457,174.38272c5.03992,0 9.12559,-4.08567 9.12559,-9.12559c0,-5.03992 -4.08567,-9.12559 -9.12559,-9.12559c-5.03992,0 -9.12559,4.08567 -9.12559,9.12559c0,5.03992 4.08567,9.12559 9.12559,9.12559z"/><path d="M211.14287,166.02773c0,-7.61589 6.1739,-13.78978 13.78978,-13.78978c7.61589,0 13.78978,6.17389 13.78978,13.78978c0,7.61589 -6.17389,13.78978 -13.78978,13.78978c-7.61589,0 -13.78978,-6.17389 -13.78978,-13.78978zM225.13544,174.74774c5.03992,0 9.12559,-4.08567 9.12559,-9.12559c0,-5.03992 -4.08567,-9.12559 -9.12559,-9.12559c-5.03992,0 -9.12559,4.08567 -9.12559,9.12559c0,5.03992 4.08567,9.12559 9.12559,9.12559z"/><path d="M211.14287,166.02773c0,-7.61589 6.1739,-13.78978 13.78978,-13.78978c7.61589,0 13.78978,6.17389 13.78978,13.78978c0,7.61589 -6.17389,13.78978 -13.78978,13.78978c-7.61589,0 -13.78978,-6.17389 -13.78978,-13.78978zM225.13544,174.74774c5.03992,0 9.12559,-4.08567 9.12559,-9.12559c0,-5.03992 -4.08567,-9.12559 -9.12559,-9.12559c-5.03992,0 -9.12559,4.08567 -9.12559,9.12559c0,5.03992 4.08567,9.12559 9.12559,9.12559z"/></g><path d="M234.52465,180.99369c0,-2.96796 2.406,-5.37396 5.37396,-5.37396c2.96796,0 5.37396,2.406 5.37396,5.37396c0,2.96796 -2.406,5.37396 -5.37396,5.37396c-2.96796,0 -5.37396,-2.406 -5.37396,-5.37396z"/></g><path d="M135,285v-210h210v210z" fill="none" stroke="#000000"/><g fill="#ff4d4d"><path d="M211.30509,163.75644c0,-7.61589 6.1739,-13.78978 13.78978,-13.78978c7.61589,0 13.78978,6.17389 13.78978,13.78978c0,7.61589 -6.17389,13.78978 -13.78978,13.78978c-7.61589,0 -13.78978,-6.17389 -13.78978,-13.78978zM225.29766,172.47647c5.03992,0 9.12559,-4.08567 9.12559,-9.12559c0,-5.03992 -4.08567,-9.12559 -9.12559,-9.12559c-5.03992,0 -9.12559,4.08567 -9.12559,9.12559c0,5.03992 4.08567,9.12559 9.12559,9.12559z" stroke="#000000"/><path d="M241.11535,163.75644c0,-7.61589 6.1739,-13.78978 13.78978,-13.78978c7.61589,0 13.78978,6.17389 13.78978,13.78978c0,7.61589 -6.17389,13.78978 -13.78978,13.78978c-7.61589,0 -13.78978,-6.17389 -13.78978,-13.78978zM255.10792,172.47647c5.03992,0 9.12559,-4.08567 9.12559,-9.12559c0,-5.03992 -4.08567,-9.12559 -9.12559,-9.12559c-5.03992,0 -9.12559,4.08567 -9.12559,9.12559c0,5.03992 4.08567,9.12559 9.12559,9.12559z" stroke="#000000"/><path d="M211.30509,193.56672c0,-7.61589 6.1739,-13.78978 13.78978,-13.78978c7.61589,0 13.78978,6.17389 13.78978,13.78978c0,7.61589 -6.17389,13.78978 -13.78978,13.78978c-7.61589,0 -13.78978,-6.17389 -13.78978,-13.78978zM225.29766,202.28673c5.03992,0 9.12559,-4.08567 9.12559,-9.12559c0,-5.03992 -4.08567,-9.12559 -9.12559,-9.12559c-5.03992,0 -9.12559,4.08567 -9.12559,9.12559c0,5.03992 4.08567,9.12559 9.12559,9.12559z" stroke="#000000"/><path d="M241.11535,193.76951c0,-7.61589 6.1739,-13.78978 13.78978,-13.78978c7.61589,0 13.78978,6.17389 13.78978,13.78978c0,7.61589 -6.17389,13.78978 -13.78978,13.78978c-7.61589,0 -13.78978,-6.17389 -13.78978,-13.78978zM255.10792,202.48952c5.03992,0 9.12559,-4.08567 9.12559,-9.12559c0,-5.03992 -4.08567,-9.12559 -9.12559,-9.12559c-5.03992,0 -9.12559,4.08567 -9.12559,9.12559c0,5.03992 4.08567,9.12559 9.12559,9.12559z" stroke="#000000"/><path d="M234.52465,179.16857c0,-2.96796 2.406,-5.37396 5.37396,-5.37396c2.96796,0 5.37396,2.406 5.37396,5.37396c0,2.96796 -2.406,5.37396 -5.37396,5.37396c-2.96796,0 -5.37396,-2.406 -5.37396,-5.37396z" stroke="#000000"/><path d="M239.45342,187.17014v-16.59198h1.2444v16.59198z" stroke="#000000"/><path d="M231.98704,179.56548v-1.38266h16.31545v1.38266z" stroke="none"/><g stroke="none"><path d="M239.47886,172.79692l-3.4184,-5.19882l1.15529,-0.75964l3.4184,5.19882z"/><path d="M239.37885,172.17554l3.4184,-5.19882l1.15529,0.75964l-3.4184,5.19882z" data-paper-data="{&quot;index&quot;:null}"/></g><g data-paper-data="{&quot;index&quot;:null}" stroke="none"><path d="M240.72106,185.37918l-3.4184,5.19882l-1.15529,-0.75964l3.4184,-5.19882z"/><path d="M240.62104,184.48127l3.4184,5.19882l-1.15529,0.75964l-3.4184,-5.19882z" data-paper-data="{&quot;index&quot;:null}"/></g><g data-paper-data="{&quot;index&quot;:null}" stroke="none"><path d="M246.46016,178.29785l5.19882,3.4184l-0.75964,1.15529l-5.19882,-3.4184z"/><path d="M245.56224,178.39786l5.19882,-3.4184l0.75964,1.15529l-5.19882,3.4184z" data-paper-data="{&quot;index&quot;:null}"/></g><g data-paper-data="{&quot;index&quot;:null}" stroke="none"><path d="M234.31245,179.27933l-5.19882,3.4184l-0.75964,-1.15529l5.19882,-3.4184z"/><path d="M233.69109,179.37933l-5.19882,-3.4184l0.75964,-1.15529l5.19882,3.4184z" data-paper-data="{&quot;index&quot;:null}"/></g><g><path d="M231.18976,171.0394l-6.82921,-6.57627l1.47631,-1.53309l6.82921,6.57627z" stroke="#000000"/><path d="M222.84349,163.74729c0,-1.5361 1.24525,-2.78136 2.78135,-2.78136c1.5361,0 2.78136,1.24526 2.78136,2.78136c0,1.5361 -1.24526,2.78136 -2.78136,2.78136c-1.5361,0 -2.78135,-1.24526 -2.78135,-2.78136z" stroke="#000000"/><path d="M232.7769,163.34995c0,0.395 -1.38757,0.71521 -3.09922,0.71521c-1.71165,0 -3.09922,-0.32021 -3.09922,-0.71521c0,-0.395 1.38757,-0.7152 3.09922,-0.7152c1.71165,0 3.09922,0.3202 3.09922,0.7152z" stroke="none"/><path d="M224.51229,163.58836c0,0.395 -1.38757,0.71521 -3.09922,0.71521c-1.71165,0 -3.09922,-0.32021 -3.09922,-0.71521c0,-0.395 1.38757,-0.71521 3.09922,-0.71521c1.71165,0 3.09922,0.32021 3.09922,0.71521z" stroke="none"/><path d="M225.62484,156.83362c0.395,0 0.71521,1.38757 0.71521,3.09922c0,1.71165 -0.32021,3.09922 -0.71521,3.09922c-0.395,0 -0.7152,-1.38757 -0.7152,-3.09922c0,-1.71165 0.3202,-3.09922 0.7152,-3.09922z" stroke="none"/><path d="M225.62484,163.82676c0.395,0 0.71521,1.38757 0.71521,3.09922c0,1.71165 -0.32021,3.09922 -0.71521,3.09922c-0.395,0 -0.7152,-1.38757 -0.7152,-3.09922c0,-1.71165 0.3202,-3.09922 0.7152,-3.09922z" stroke="none"/></g><g data-paper-data="{&quot;index&quot;:null}"><path d="M247.97422,169.39767l6.82921,-6.57627l1.4763,1.53309l-6.82921,6.57627z" stroke="#000000"/><path d="M255.01541,166.42001c-1.5361,0 -2.78136,-1.24526 -2.78136,-2.78136c0,-1.5361 1.24526,-2.78136 2.78136,-2.78136c1.5361,0 2.78136,1.24526 2.78136,2.78136c0,1.5361 -1.24526,2.78136 -2.78136,2.78136z" stroke="#000000"/><path d="M250.96259,162.52611c1.71165,0 3.09923,0.32021 3.09923,0.71521c0,0.395 -1.38757,0.71521 -3.09923,0.71521c-1.71165,0 -3.09922,-0.32021 -3.09922,-0.71521c0,-0.395 1.38757,-0.71521 3.09922,-0.71521z" stroke="none"/><path d="M259.22718,162.7645c1.71165,0 3.09922,0.32021 3.09922,0.71521c0,0.395 -1.38757,0.71521 -3.09922,0.71521c-1.71165,0 -3.09922,-0.32021 -3.09922,-0.71521c0,-0.395 1.38757,-0.71521 3.09922,-0.71521z" stroke="none"/><path d="M255.73064,159.82422c0,1.71165 -0.32021,3.09922 -0.71521,3.09922c-0.395,0 -0.71521,-1.38757 -0.71521,-3.09922c0,-1.71165 0.32021,-3.09922 0.71521,-3.09922c0.395,0 0.71521,1.38757 0.71521,3.09922z" stroke="none"/><path d="M255.73064,166.81733c0,1.71165 -0.32021,3.09922 -0.71521,3.09922c-0.395,0 -0.71521,-1.38757 -0.71521,-3.09922c0,-1.71165 0.32021,-3.09923 0.71521,-3.09923c0.395,0 0.71521,1.38757 0.71521,3.09923z" stroke="none"/></g><g data-paper-data="{&quot;index&quot;:null}"><path d="M249.34188,185.51407l6.82921,6.57627l-1.47631,1.53309l-6.82921,-6.57627z" stroke="#000000"/><path d="M257.68814,192.80617c0,1.5361 -1.24526,2.78136 -2.78136,2.78136c-1.5361,0 -2.78136,-1.24526 -2.78136,-2.78136c0,-1.5361 1.24526,-2.78136 2.78136,-2.78136c1.5361,0 2.78136,1.24526 2.78136,2.78136z" stroke="#000000"/><path d="M247.75475,193.20351c0,-0.395 1.38757,-0.71521 3.09922,-0.71521c1.71165,0 3.09922,0.32021 3.09922,0.71521c0,0.395 -1.38757,0.71521 -3.09922,0.71521c-1.71165,0 -3.09922,-0.32021 -3.09922,-0.71521z" stroke="none"/><path d="M256.01934,192.96511c0,-0.395 1.38757,-0.71521 3.09922,-0.71521c1.71165,0 3.09923,0.32021 3.09923,0.71521c0,0.395 -1.38757,0.71521 -3.09923,0.71521c-1.71165,0 -3.09922,-0.32021 -3.09922,-0.71521z" stroke="none"/><path d="M254.9068,199.71983c-0.395,0 -0.71521,-1.38757 -0.71521,-3.09922c0,-1.71165 0.32021,-3.09922 0.71521,-3.09922c0.395,0 0.71521,1.38757 0.71521,3.09922c0,1.71165 -0.32021,3.09922 -0.71521,3.09922z" stroke="none"/><path d="M254.9068,192.7267c-0.395,0 -0.71521,-1.38757 -0.71521,-3.09922c0,-1.71165 0.32021,-3.09922 0.71521,-3.09922c0.395,0 0.71521,1.38757 0.71521,3.09922c0,1.71165 -0.32021,3.09922 -0.71521,3.09922z" stroke="none"/></g><g data-paper-data="{&quot;index&quot;:null}"><path d="M232.99196,187.4817l-6.82921,6.57627l-1.47631,-1.53309l6.82921,-6.57627z" stroke="#000000"/><path d="M225.95076,190.45937c1.5361,0 2.78136,1.24526 2.78136,2.78136c0,1.5361 -1.24526,2.78136 -2.78136,2.78136c-1.5361,0 -2.78136,-1.24526 -2.78136,-2.78136c0,-1.5361 1.24526,-2.78136 2.78136,-2.78136z" stroke="#000000"/><path d="M230.00359,194.35327c-1.71165,0 -3.09922,-0.32021 -3.09922,-0.71521c0,-0.395 1.38757,-0.71521 3.09922,-0.71521c1.71165,0 3.09922,0.32021 3.09922,0.71521c0,0.395 -1.38757,0.71521 -3.09922,0.71521z" stroke="none"/><path d="M221.739,194.11487c-1.71165,0 -3.09922,-0.32021 -3.09922,-0.71521c0,-0.395 1.38757,-0.71521 3.09922,-0.71521c1.71165,0 3.09922,0.32021 3.09922,0.71521c0,0.395 -1.38757,0.71521 -3.09922,0.71521z" stroke="none"/><path d="M225.23554,197.05515c0,-1.71165 0.32021,-3.09922 0.71521,-3.09922c0.395,0 0.71521,1.38757 0.71521,3.09922c0,1.71165 -0.32021,3.09922 -0.71521,3.09922c-0.395,0 -0.71521,-1.38757 -0.71521,-3.09922z" stroke="none"/><path d="M225.23554,190.06203c0,-1.71165 0.32021,-3.09922 0.71521,-3.09922c0.395,0 0.71521,1.38757 0.71521,3.09922c0,1.71165 -0.32021,3.09923 -0.71521,3.09923c-0.395,0 -0.71521,-1.38757 -0.71521,-3.09923z" stroke="none"/></g></g></g></g></svg>