<svg version="1.1" xmlns="http://www.w3.org/2000/svg" xmlns:xlink="http://www.w3.org/1999/xlink" width="680.18018" height="437.10851" viewBox="0,0,680.18018,437.10851"><defs><radialGradient cx="384.56456" cy="192.76276" r="93.84384" gradientUnits="userSpaceOnUse" id="color-1"><stop offset="0" stop-color="#ffffff"/><stop offset="1" stop-color="#ffffff" stop-opacity="0"/></radialGradient><radialGradient cx="62.6028" cy="194.26426" r="93.84384" gradientUnits="userSpaceOnUse" id="color-2"><stop offset="0" stop-color="#ffffff"/><stop offset="1" stop-color="#ffffff" stop-opacity="0"/></radialGradient><radialGradient cx="259.86382" cy="185.25526" r="93.84384" gradientUnits="userSpaceOnUse" id="color-3"><stop offset="0" stop-color="#ffffff"/><stop offset="1" stop-color="#ffffff" stop-opacity="0"/></radialGradient><linearGradient x1="409.29028" y1="57.00833" x2="400.31459" y2="70.32479" gradientUnits="userSpaceOnUse" id="color-4"><stop offset="0" stop-color="#ffffff" stop-opacity="0.27419"/><stop offset="1" stop-color="#ffffff" stop-opacity="0"/></linearGradient><linearGradient x1="418.54989" y1="52.38361" x2="427.52557" y2="39.06716" gradientUnits="userSpaceOnUse" id="color-5"><stop offset="0" stop-color="#ffffff" stop-opacity="0.27419"/><stop offset="1" stop-color="#ffffff" stop-opacity="0"/></linearGradient><linearGradient x1="216.49739" y1="341.53573" x2="491.62549" y2="250.20993" gradientUnits="userSpaceOnUse" id="color-6"><stop offset="0" stop-color="#070707"/><stop offset="1" stop-color="#070707" stop-opacity="0"/></linearGradient><linearGradient x1="120.69946" y1="293.65255" x2="227.23383" y2="335.70559" gradientUnits="userSpaceOnUse" id="color-7"><stop offset="0" stop-color="#070707" stop-opacity="0"/><stop offset="1" stop-color="#070707"/></linearGradient><radialGradient cx="225.41276" cy="289.52816" r="82.55159" gradientUnits="userSpaceOnUse" id="color-8"><stop offset="0" stop-color="#070707"/><stop offset="1" stop-color="#070707" stop-opacity="0"/></radialGradient><radialGradient cx="186.5681" cy="263.26456" r="82.55159" gradientUnits="userSpaceOnUse" id="color-9"><stop offset="0" stop-color="#070707"/><stop offset="1" stop-color="#070707" stop-opacity="0"/></radialGradient></defs><g transform="translate(17.58258,22.50751)"><g stroke-miterlimit="10"><path d="M-6.06757,375l-4.5045,-385.4955l665.64865,-12.01201l4.5045,405.01502z" fill="#070707" stroke="none" stroke-width="0" stroke-linecap="butt"/><path d="M478.40841,192.76276c0,56.80406 -42.01532,102.85285 -93.84384,102.85285c-33.66142,0 -60.55785,-38.556 -60.55785,-38.556l-1.83059,-129.62352c0,0 31.70549,-37.52619 62.38843,-37.52619c51.82852,0 93.84384,46.04879 93.84384,102.85285z" fill="url(#color-1)" stroke="#848484" stroke-width="0" stroke-linecap="butt"/><path d="M156.44664,194.26426c0,56.80406 -42.01532,102.85285 -93.84384,102.85285c-33.66142,0 -60.55785,-38.556 -60.55785,-38.556l-1.83059,-129.62352c0,0 31.70549,-37.52619 62.38843,-37.52619c51.82852,0 93.84384,46.04879 93.84384,102.85285z" fill="url(#color-2)" stroke="#848484" stroke-width="0" stroke-linecap="butt"/><path d="M259.86382,82.4024c30.68295,0 62.38843,37.52619 62.38843,37.52619l-1.83059,129.62352c0,0 -26.89643,38.556 -60.55785,38.556c-51.82852,0 -93.84384,-46.04879 -93.84384,-102.85285c0,-56.80406 42.01532,-102.85285 93.84384,-102.85285z" fill="url(#color-3)" stroke="#848484" stroke-width="0" stroke-linecap="butt"/><path d="M-16.08108,411.598l-1.5015,-144.14414l351.81592,-96.15347l328.36426,151.70903l-10.51051,91.59159z" fill="#141414" stroke="#848484" stroke-width="0" stroke-linecap="butt"/><g stroke-width="0" stroke-linecap="butt"><path d="M370.17886,185.54204v-5.33522h1.6416v5.33522z" fill="#141414" stroke="none"/><path d="M358.41403,190.33006v-6.84002h1.7784v6.84002z" fill="#141414" stroke="#848484"/><path d="M329.27554,182.39564v-5.88241h1.2312v5.88241z" fill="#141414" stroke="#848484"/><path d="M334.94203,171.22064l1.00897,-9.83751l37.58434,5.04487l-0.50449,10.84649z" fill="#1f1f1f" stroke="#848484"/><path d="M372.7786,177.11633l-12.35995,4.28815l-33.80068,-7.06282l8.5763,-3.27918z" fill="#464646" stroke="#848484"/><path d="M326.39313,177.22258l0.21241,-3.61099l34.41052,7.00956l-0.84965,4.67303z" fill="#323232" stroke="#848484"/><path d="M359.78204,184.99485l0.54719,-4.10401l12.58564,-3.83042l-0.2736,3.96722z" fill="#252525" stroke="#848484"/></g><g stroke-width="0" stroke-linecap="butt"><path d="M260.29219,189.7709v-6.57039h2.02165v6.57039z" fill="#141414" stroke="none"/><path d="M274.61228,195.6674v-8.42358h2.19013v8.42358z" fill="#141414" stroke="#848484"/><path d="M311.1706,185.89606v-7.24427h1.51624v7.24427z" fill="#141414" stroke="#848484"/><path d="M258.8016,179.5893l-0.62129,-13.35759l46.28562,-6.21283l1.24256,12.11502z" fill="#1f1f1f" stroke="#848484"/><path d="M305.39784,171.93912l10.56182,4.03835l-41.62599,8.69796l-15.22144,-5.28091z" fill="#464646" stroke="#848484"/><path d="M274.64432,189.46565l-1.04635,-5.75489l42.37702,-8.63236l0.26158,4.44698z" fill="#323232" stroke="#848484"/><path d="M259.28136,184.21135l-0.33694,-4.88568l15.49939,4.71721l0.67388,5.05414z" fill="#252525" stroke="#848484"/></g><g stroke-width="0" stroke-linecap="butt"><path d="M130.60988,259.5461v-12.5598h3.86454v12.5598z" fill="#141414" stroke="none"/><path d="M102.91393,270.81771v-16.10229h4.18659v16.10229z" fill="#141414" stroke="#848484"/><path d="M34.31816,252.13906v-13.84796h2.8984v13.84796z" fill="#141414" stroke="#848484"/><path d="M47.65781,225.83167l2.37524,-23.15876l88.4784,11.87629l-1.18765,25.53403z" fill="#1f1f1f" stroke="#848484"/><path d="M136.72999,239.71089l-29.09692,10.09485l-79.57116,-16.6268l20.18971,-7.71961z" fill="#464646" stroke="#848484"/><path d="M27.5326,239.96102l0.50003,-8.50073l81.00681,16.5014l-2.00017,11.00091z" fill="#323232" stroke="#848484"/><path d="M106.1344,258.25793l1.28816,-9.66137l29.62823,-9.0173l-0.64409,9.33935z" fill="#252525" stroke="#848484"/></g><g stroke-width="0" stroke-linecap="butt"><path d="M433.66308,66.90903v-27.5h3.57143v27.5z" fill="#000000" stroke="#000000"/><path d="M400.80593,44.76617v-24.28572h2.85715v24.28572z" fill="#000000" stroke="none"/><path d="M378.00753,38.58481l12.45092,-6.83001l59.58572,39.64117l-12.45092,6.83001z" fill="#070707" stroke="none"/><path d="M371.8021,52.45238l8.97568,-13.31646l57.02499,35.74483l-8.97568,13.31645z" fill="url(#color-4)" stroke="#000000"/><path d="M456.03807,56.93957l-8.97568,13.31646l-57.02499,-35.74482l8.97568,-13.31646z" fill="url(#color-5)" stroke="#000000"/><path d="M380.96438,39.05783l9.85879,-5.6275l56.69492,37.46185l-9.65878,4.82751z" fill="#ffffff" stroke="none"/></g><path d="M222.625,299.63176l-53.125,-43.75l236.98864,-90.51136l44.94319,20.3409z" fill="#ffffff" stroke="#000000" stroke-width="0" stroke-linecap="butt"/><path d="M221.375,369.63176v-70l229.43182,-114.54545l-3.63637,77.54546z" fill="#a2a2a2" stroke="#000000" stroke-width="0" stroke-linecap="butt"/><g stroke="#000000" stroke-width="0" stroke-linecap="butt"><path d="M385.05976,164.56547l13.95034,-3.48758l5.61889,-1.7438v5.23138c0,0 -1.12443,4.45636 -1.74379,4.45636c-2.46452,0 -17.82544,-4.45636 -17.82544,-4.45636z" fill="#656565"/><path d="M377.08975,184.21402l31.40867,-9.99367l16.92805,9.99367l-27.21974,9.14607z" fill="#909090"/><path d="M382.39251,184.41797l16.31619,-4.48695c0,0 6.22361,0.1618 12.33076,0.64007c3.24462,0.2541 8.88029,3.03107 8.88029,3.03107l-20.59919,7.54623z" fill="#000000"/><path d="M386.9973,183.55344l-1.93754,-18.79421l12.98157,1.93755l0.38751,18.0192z" fill="#4c4c4c"/><path d="M404.44996,185.84564l-2.07011,-25.90195l18.76362,-3.67114l1.01976,23.65848z" fill="#787878"/><path d="M397.28103,159.73973l18.35572,-4.69091l5.30276,1.01976l-18.96758,4.48695z" fill="#888888"/><path d="M396.66918,185.142l0.61186,-26.01413l5.50672,1.22371l2.03952,25.2901z" fill="#6c6c6c"/><path d="M405.84703,182.17449l-0.81581,-19.98734l15.70434,-3.67114l0.61185,18.76362z" fill="#000000"/><path d="M397.48499,203.5895v-10.19762l28.14544,-9.99367l-0.20396,6.11858z" fill="#7c7c7c"/><path d="M377.90556,195.63535l-0.4079,-10.80947l19.98733,8.1581v10.19762z" fill="#6c6c6c"/></g><g stroke="#000000" stroke-width="0" stroke-linecap="butt"><path d="M338.716,178.60496l16.04048,-4.01012l6.46076,-2.00507v6.01519c0,0 -1.2929,5.12404 -2.00506,5.12404c-2.83378,0 -20.49618,-5.12404 -20.49618,-5.12404z" fill="#656565"/><path d="M329.55187,201.1974l36.11455,-11.49099l19.46434,11.49099l-31.298,10.5164z" fill="#909090"/><path d="M335.64913,201.43191l18.7608,-5.15922c0,0 7.15608,0.18605 14.17826,0.73598c3.73075,0.29217 10.21079,3.4852 10.21079,3.4852l-23.68551,8.67687z" fill="#000000"/><path d="M340.94385,200.43785l-2.22785,-21.61011l14.92656,2.22785l0.44557,20.71896z" fill="#4c4c4c"/><path d="M361.01139,203.07348l-2.38027,-29.78278l21.57492,-4.22118l1.17256,27.20316z" fill="#787878"/><path d="M352.76836,173.05619l21.10591,-5.39373l6.09726,1.17255l-21.80944,5.15922z" fill="#888888"/><path d="M352.06483,202.26442l0.70353,-29.91176l6.33178,1.40706l2.3451,29.07925z" fill="#6c6c6c"/><path d="M362.61779,198.8523l-0.93804,-22.98199l18.05727,-4.22118l0.70353,21.57492z" fill="#000000"/><path d="M353.00288,223.47586v-11.7255l32.36239,-11.491l-0.23451,7.03531z" fill="#7c7c7c"/><path d="M330.48991,214.32997l-0.46902,-12.42903l22.98199,9.3804v11.7255z" fill="#6c6c6c"/></g><path d="M286.80519,197.4417l18,-4.5l7.25,-2.25v6.75c0,0 -1.45084,5.75 -2.25,5.75c-3.17995,0 -23,-5.75 -23,-5.75z" fill="#656565" stroke="#000000" stroke-width="0" stroke-linecap="butt"/><path d="M276.52157,222.79404l40.52631,-12.89474l21.84211,12.89474l-35.12137,11.80109z" fill="#909090" stroke="#000000" stroke-width="0" stroke-linecap="butt"/><path d="M283.36367,223.0572l21.05263,-5.78948c0,0 8.03027,0.20878 15.91027,0.82588c4.1865,0.32786 11.45815,3.91096 11.45815,3.91096l-26.57895,9.73684z" fill="#000000" stroke="#000000" stroke-width="0" stroke-linecap="butt"/><path d="M289.30519,221.9417l-2.5,-24.25l16.75,2.5l0.5,23.25z" fill="#4c4c4c" stroke="#000000" stroke-width="0" stroke-linecap="butt"/><path d="M170.70048,340.79548l-0.57548,-83.03872l51.875,40.625v71.25z" fill="#787878" stroke="#000000" stroke-width="0" stroke-linecap="butt"/><path d="M311.8242,224.8993l-2.67105,-33.42105l24.21053,-4.73685l1.31579,30.52632z" fill="#787878" stroke="#000000" stroke-width="0" stroke-linecap="butt"/><path d="M302.5742,191.21509l23.68421,-6.05263l6.84211,1.31579l-24.47369,5.78947z" fill="#888888" stroke="#000000" stroke-width="0" stroke-linecap="butt"/><path d="M301.78472,223.99141l0.78948,-33.56579l7.10527,1.57895l2.63158,32.63158z" fill="#6c6c6c" stroke="#000000" stroke-width="0" stroke-linecap="butt"/><path d="M313.62683,220.16246l-1.05263,-25.78948l20.26316,-4.73684l0.78947,24.21052z" fill="#000000" stroke="#000000" stroke-width="0" stroke-linecap="butt"/><path d="M302.83736,247.79404v-13.15789l36.31579,-12.89474l-0.26316,7.89474z" fill="#7c7c7c" stroke="#000000" stroke-width="0" stroke-linecap="butt"/><path d="M277.5742,237.53088l-0.52632,-13.94736l25.78948,10.52631v13.15789z" fill="#6c6c6c" stroke="#000000" stroke-width="0" stroke-linecap="butt"/><g stroke="#000000" stroke-width="0" stroke-linecap="butt"><path d="M215.36626,219.12286l20.58656,-5.14664l8.29181,-2.57332v7.71995c0,0 -1.65932,6.57626 -2.57332,6.57626c-3.6369,0 -26.30505,-6.57626 -26.30505,-6.57626z" fill="#656565"/><path d="M203.6049,248.11827l46.34985,-14.74768l24.98076,14.74768l-40.16823,13.49687z" fill="#909090"/><path d="M211.4302,248.41924l24.07784,-6.62141c0,0 9.1842,0.23878 18.19654,0.94456c4.78808,0.37498 13.10465,4.47296 13.10465,4.47296l-30.39827,11.13599z" fill="#000000"/><path d="M218.2255,247.14345l-2.85925,-27.73467l19.15694,2.85925l0.57184,26.59096z" fill="#4c4c4c"/><path d="M243.98043,250.52605l-3.05488,-38.22357l27.68952,-5.41752l1.50487,34.91287z" fill="#787878"/><path d="M233.40123,212.00151l27.08757,-6.92238l7.8253,1.50486l-27.99049,6.62141z" fill="#888888"/><path d="M232.4983,249.48769l0.90292,-38.38911l8.12627,1.80585l3.00973,37.32065z" fill="#6c6c6c"/><path d="M246.04209,245.10854l-1.20389,-29.49535l23.17493,-5.41752l0.90292,27.68952z" fill="#000000"/><path d="M233.70221,276.71071v-15.04865l41.53428,-14.74769l-0.30097,9.0292z" fill="#7c7c7c"/><path d="M204.80879,264.97276l-0.60195,-15.95157l29.49536,12.03892v15.04864z" fill="#6c6c6c"/></g><path d="M402.99802,283.76984v-75h1.11111v75z" fill="#848484" stroke="#000000" stroke-width="0" stroke-linecap="butt"/><path d="M347.99802,309.88095v-72.77777h2.22222v72.77777z" fill="#848484" stroke="none" stroke-width="0" stroke-linecap="butt"/><path d="M287.44246,337.10318v-70h2.22222v70z" fill="#848484" stroke="none" stroke-width="0" stroke-linecap="butt"/><path d="M366.80929,245.51311l-1.1947,-2.57495l18.39249,-8.53359l1.1947,2.57495z" fill="#848484" stroke="none" stroke-width="0" stroke-linecap="butt"/><path d="M370.5382,283.87376l-1.23094,-2.55782l18.27017,-8.79243l1.23094,2.55783z" fill="#848484" stroke="none" stroke-width="0" stroke-linecap="butt"/><path d="M420.48721,221.40774l-1.2624,-2.54244l18.16032,-9.01714l1.2624,2.54244z" fill="#848484" stroke="none" stroke-width="0" stroke-linecap="butt"/><path d="M423.26723,254.17219l-1.36621,-2.4882l17.77286,-9.75865l1.36621,2.4882z" fill="#848484" stroke="none" stroke-width="0" stroke-linecap="butt"/><path d="M312.63431,275.04634l-1.30794,-2.51932l17.99514,-9.34243l1.30794,2.51932z" fill="#848484" stroke="none" stroke-width="0" stroke-linecap="butt"/><path d="M245.30043,308.07293l-1.0524,-2.6363l18.83077,-7.51717l1.05241,2.63631z" fill="#848484" stroke="none" stroke-width="0" stroke-linecap="butt"/><path d="M315.21748,309.74589l-1.13693,-2.60098l18.57838,-8.12095l1.13693,2.60098z" fill="#848484" stroke="none" stroke-width="0" stroke-linecap="butt"/><path d="M248.34221,340.6967l-1.34707,-2.49861l17.84723,-9.62197l1.34707,2.49861z" fill="#848484" stroke="none" stroke-width="0" stroke-linecap="butt"/><path d="M124.89676,254.17787l-10.18435,-145.45465l47.5981,-14.35094l21.47097,14.35094l-1.5015,127.62763l-34.19373,24.23069z" fill="#1e1e1e" stroke="#848484" stroke-width="0" stroke-linecap="butt"/><path d="M221.66042,334.294l227.14871,-115.27967" fill="none" stroke="#848484" stroke-width="1.5" stroke-linecap="round"/><path d="M220.70514,375.65846l0.27328,-77.72413l238.0033,-117.39214l31.3223,61.13645z" fill="url(#color-6)" stroke="#848484" stroke-width="0" stroke-linecap="butt"/><path d="M134.58494,368.74459l20.41231,-126.48739l66.25001,53.11149l1.70459,75.14458z" fill="url(#color-7)" stroke="#848484" stroke-width="0" stroke-linecap="butt"/><path d="M142.86116,289.52816c0,-45.59199 36.95961,-82.55159 82.55159,-82.55159c45.59199,0 82.55159,36.95961 82.55159,82.55159c0,45.59199 -36.95961,82.55159 -82.55159,82.55159c-45.59199,0 -82.55159,-36.95961 -82.55159,-82.55159z" fill="url(#color-8)" stroke="#848484" stroke-width="0" stroke-linecap="butt"/><path d="M104.0165,263.26456c0,-45.59199 36.95961,-82.55159 82.55159,-82.55159c45.59199,0 82.55159,36.95961 82.55159,82.55159c0,45.59199 -36.95961,82.55159 -82.55159,82.55159c-45.59199,0 -82.55159,-36.95961 -82.55159,-82.55159z" fill="url(#color-9)" stroke="#848484" stroke-width="0" stroke-linecap="butt"/><g stroke-linecap="butt"><path d="M424.77195,261.51306l0.11704,0.07803l0.29877,0.0498l0.13699,0.05956l0.14894,0.01145l0.33781,0.11261h0.33039l0.21085,-0.07028l0.47131,-0.23566l0.22534,-0.1352l0.00552,-0.00473l0.15338,-0.15338l0.31857,-0.19114l0.07144,-0.12503l0.23474,-0.05869l0.20749,-0.12448l0.13893,0.03788l0.15118,-0.03779l0.12555,-0.09416l0.34391,-0.1448l0.32926,-0.1756l0.21613,-0.05403l0.00521,-0.0022l0.0013,0.00056l0.49032,-0.12258l0.33171,-0.13268l1.33053,-0.66526l0.22013,-0.22013l0.00414,-0.02074l0.04563,-0.02904l0.03711,-0.0371l0.37104,-0.22262l0.36505,-0.2323l0.04978,-0.01659l0.04638,-0.02783l0.0204,0.00557l0.22124,-0.07375l0.174,-0.1305l0.09111,-0.03836l0.06991,-0.06991l0.20678,-0.12407l0.09252,-0.12338l0.24746,-0.20105l0.21449,-0.23593l0.47257,-0.31505l0.05015,-0.05015l0.10581,-0.15871l0.13009,-0.11827l0.00869,-0.04343l0.03243,-0.06847l-0.01679,-0.06156l0.21825,-0.36374l0.18159,-0.38336l0.02616,-0.00871l0.13348,-0.2818l0.01603,-0.04488v-0.81179l-0.09008,-0.72062l0.01432,-0.11814l-0.02886,-0.11544v-0.19621l-0.72247,-0.36123l-0.18689,-0.0623l-0.04778,-0.0304l-0.05611,-0.00765l-0.32694,-0.13078h-0.16275l-0.41848,-0.10462l-0.06515,-0.03475l-0.07362,-0.00566l-0.55911,-0.18637l-0.27535,-0.06884l-0.55354,-0.09226l-0.13699,-0.05956l-0.14894,-0.01146l-0.5591,-0.18637l-0.34831,-0.08708l-0.06516,-0.03474l-0.07362,-0.00567l-0.31386,-0.10462l-0.11435,-0.07276l-0.13232,-0.02941l-0.02434,-0.01217l-0.17446,-0.04361l-0.47916,-0.09584l-0.10755,-0.05094l-0.11864,-0.00912l-0.80141,-0.26714l-0.48198,-0.08033l-0.18735,-0.08146l-0.20244,-0.02761l-0.47172,-0.18869l-0.57522,-0.19174l-0.11436,-0.07277l-0.13231,-0.0294l-0.29877,-0.14939l-0.07567,-0.02522l-0.40814,-0.08163l-0.15745,-0.07458l-0.17262,-0.02354l-0.52309,-0.20924l-0.06479,-0.04679l-0.078,-0.01733l-0.08954,-0.04477l-0.5247,-0.1749h-0.11289l-0.0735,-0.01837l-0.05707,0.02853l-0.39948,-0.14267l-0.41153,-0.10288l-0.02762,-0.04835l-0.34331,-0.04905l-0.15852,-0.06458l-0.17067,-0.01312l-0.02394,-0.00798h-1.31953l-0.18637,0.07455l-0.35338,0.04819l-0.00343,0.00086l-0.13334,0.13334v1.10313l0.10462,0.41848v0.05248l0.01173,0.05279l-0.01173,0.0176v0.0603l0.01043,0.02086l0.05456,0.24554l0.10768,0.22732l0.05516,0.2758l0.09646,0.19292l0.04499,0.20245l0.09759,0.18299l0.05448,0.21793l0.01217,0.02434l0.01733,0.07801l0.04678,0.06478l0.20924,0.5231l0.04819,0.35338l0.0865,0.34601v0.12429l0.00798,0.01254l0.20924,0.62772l0.00912,0.11865l0.05094,0.10753l0.05634,0.2817l0.09464,0.0811l0.00814,0.14652l0.23971,0.44947l0.07363,0.29449l0.34192,0.85481l0.27883,0.55766l0.0294,0.13231l0.07277,0.11436l0.20923,0.62772l0.02322,0.30182l0.07342,0.29368v0.07858c0.33623,0.25995 0.5821,0.63111 0.68247,1.05837l0.01765,0.00589l0.25539,0.16252l0.27899,0.11747l0.21922,0.16442l0.29185,0.11674l0.15969,0.11534zM419.42817,262.14488l-0.00412,-0.07424l-0.06456,-0.0369l-0.20042,-0.80166l-0.04296,-0.06751l-0.10462,-0.31386l-0.02322,-0.30183l-0.07341,-0.29368v-0.32213l-0.07028,-0.21084l-0.25402,-0.50802l-0.01733,-0.078l-0.04679,-0.06479l-0.41848,-1.0462l-0.00552,-0.0405l-0.00999,-0.01874l-0.12896,-0.11052l-0.00814,-0.14652l-0.23971,-0.44947l-0.10462,-0.41848v-0.04592l-0.01966,-0.04149l-0.08163,-0.40814l-0.12385,-0.37157l-0.01418,-0.0081l-0.01312,-0.05247l-0.02347,-0.04693l-0.09386,-0.42239l-0.10495,-0.41978v-0.05248l-0.01174,-0.05279l0.01174,-0.0176v-0.03756l-0.04546,-0.11365l-0.06959,-0.13918l-0.04499,-0.20245l-0.09759,-0.18299l-0.05448,-0.21793l-0.1168,-0.23358l-0.05456,-0.24554l-0.10768,-0.22731l-0.05516,-0.27581l-0.04151,-0.08302l-0.01837,-0.01049l-0.01312,-0.05247l-0.02346,-0.04693l-0.09387,-0.42239l-0.10494,-0.41978v-0.05247l-0.01173,-0.0528l0.01173,-0.0176v-0.2956l-0.10462,-0.41848v-0.05246l-0.01173,-0.05281l0.01173,-0.0176v-1.96953l0.01838,-0.0735l-0.02854,-0.05707l0.14268,-0.39948l0.10288,-0.41153l0.05539,-0.03166l0.02548,-0.07135l0.19545,-0.29317l0.0016,-0.02882l0.36987,-0.31705l0.22425,-0.20385l0.49032,-0.49032l0.25958,-0.15575l0.22984,-0.19701l0.09934,-0.04967l0.0105,-0.01837l0.05246,-0.01312l0.04693,-0.02346l0.10107,-0.02246l0.03252,-0.01952l0.02483,0.00677l0.26398,-0.05867l0.41977,-0.10494h0.05248l0.00753,-0.00168l0.18219,-0.07287l0.35338,-0.04819l0.34601,-0.0865h1.98777l0.29368,0.07342l0.30183,0.02321l0.15277,0.05092l0.41342,0.05906l0.01508,-0.00754l0.04523,0.01615l0.09052,0.01293l0.38587,0.15721l0.12197,0.04356l0.25186,0.06296l0.30183,0.02322l0.94158,0.31385l0.11435,0.07277l0.13232,0.0294l0.13918,0.06959l0.28985,0.11594l0.35356,0.07071l0.10754,0.05094l0.11865,0.00913l0.31386,0.10462l0.11435,0.07277l0.13231,0.0294l0.29877,0.14939l0.50076,0.16692l0.04778,0.03039l0.0561,0.00766l0.3341,0.13364l0.42692,0.07115l0.13699,0.05956l0.14894,0.01145l0.83035,0.27679l0.40814,0.08162l0.04149,0.01966h0.04592l0.41848,0.10462l0.18299,0.0976l0.20245,0.04499l0.08954,0.04477l0.11828,0.03943l0.34831,0.08708l0.06515,0.03474l0.07363,0.00567l0.48755,0.16251l0.48197,0.08033l0.0704,0.0306h0.07675l0.41848,0.10462l0.06515,0.03475l0.07362,0.00566l0.55911,0.18637l0.34832,0.08708l0.01993,0.01063l0.07858,0.01965l0.35338,0.04819l0.47172,0.18869l0.26136,0.08712l0.11435,0.07277l0.13232,0.02941l1.46467,0.73234l0.22984,0.19701l0.25958,0.15575l0.31385,0.31386l0.15575,0.25958l0.19701,0.22984l0.04967,0.09934l0.01837,0.01049l0.01312,0.05248l0.02346,0.04693l0.02246,0.10106l0.01952,0.03252l-0.00677,0.02483l0.05866,0.26398l0.10495,0.41978v0.05247l0.01173,0.05281l-0.01173,0.0176v0.80609l0.09007,0.72062l-0.01432,0.11814l0.02886,0.11544v1.36006l-0.01837,0.07351l0.02853,0.05707l-0.14267,0.39947l-0.10288,0.41153l-0.0554,0.03165l-0.02548,0.07136l-0.00259,0.00389l-0.03156,0.1578l-0.03243,0.06847l0.01679,0.06156l-0.21824,0.36374l-0.18159,0.38336l-0.02616,0.00871l-0.00928,0.01958l0.01678,0.06156l-0.21824,0.36374l-0.18159,0.38336l-0.06053,0.02018l-0.03898,0.06497l-0.182,0.18201l-0.10581,0.15871l-0.13879,0.12616l-0.0965,0.16084l-0.31385,0.31386l-0.16084,0.0965l-0.12618,0.13879l-0.35932,0.23955l-0.12031,0.16043l-0.28134,0.22858l-0.25631,0.25631l-0.4398,0.26388l-0.34076,0.25558l-0.27899,0.11748l-0.25539,0.16251l-0.20598,0.06866l-0.20875,0.20876l-0.25958,0.15574l-0.22984,0.19701l-1.67392,0.83696l-0.07801,0.01733l-0.06477,0.04679l-0.5231,0.20924l-0.12835,0.0175l-0.11431,0.06096l-0.46802,0.11701l-0.11425,0.08569l-0.15776,0.06642l-0.12996,0.1114l-0.09934,0.04967l-0.01049,0.01837l-0.05248,0.01312l-0.04693,0.02347l-0.36812,0.08181l-0.02942,0.01238l-0.00893,-0.00387l-0.01592,0.00354l-0.07721,0.0193l-0.05719,0.05718l-0.25957,0.15575l-0.22984,0.19701l-0.83696,0.41848l-0.13231,0.0294l-0.11435,0.07277l-0.62772,0.20923l-0.30183,0.02322l-0.29368,0.07342h-0.94157l-0.29368,-0.07342l-0.30183,-0.02322l-0.48754,-0.16251l-0.48198,-0.08033l-0.25798,-0.11216l-0.27461,-0.06102l-0.20924,-0.10462l-0.09035,-0.07744l-0.11206,-0.04002l-0.15071,-0.10048l-0.34105,-0.13642l-0.20146,-0.14549l-0.22904,-0.09644l-0.174,-0.1305l-0.02395,-0.00799l-0.11434,-0.07277l-0.13232,-0.0294l-0.08953,-0.04477l-0.21085,-0.07028h-0.00827l-0.94158,-0.23539l-0.92489,-1.61856z" fill="#000000" stroke="none" stroke-width="0.5"/><path d="M424.77195,261.51306l0.11704,0.07803l0.29877,0.0498l0.13699,0.05956l0.14894,0.01145l0.33781,0.11261h0.33039l0.21085,-0.07028l0.47131,-0.23566l0.22534,-0.1352l0.00552,-0.00473l0.15338,-0.15338l0.31857,-0.19114l0.07144,-0.12503l0.23474,-0.05869l0.20749,-0.12448l0.13893,0.03788l0.15118,-0.03779l0.12555,-0.09416l0.34391,-0.1448l0.32926,-0.1756l0.21613,-0.05403l0.00521,-0.0022l0.0013,0.00056l0.49032,-0.12258l0.33171,-0.13268l1.33053,-0.66526l0.22013,-0.22013l0.00414,-0.02074l0.04563,-0.02904l0.03711,-0.0371l0.37104,-0.22262l0.36505,-0.2323l0.04978,-0.01659l0.04638,-0.02783l0.0204,0.00557l0.22124,-0.07375l0.174,-0.1305l0.09111,-0.03836l0.06991,-0.06991l0.20678,-0.12407l0.09252,-0.12338l0.24746,-0.20105l0.21449,-0.23593l0.47257,-0.31505l0.05015,-0.05015l0.10581,-0.15871l0.13009,-0.11827l0.00869,-0.04343l0.03243,-0.06847l-0.01679,-0.06156l0.21825,-0.36374l0.18159,-0.38336l0.02616,-0.00871l0.13348,-0.2818l0.01603,-0.04488v-0.81179l-0.09008,-0.72062l0.01432,-0.11814l-0.02886,-0.11544v-0.19621l-0.72247,-0.36123l-0.18689,-0.0623l-0.04778,-0.0304l-0.05611,-0.00765l-0.32694,-0.13078h-0.16275l-0.41848,-0.10462l-0.06515,-0.03475l-0.07362,-0.00566l-0.55911,-0.18637l-0.27535,-0.06884l-0.55354,-0.09226l-0.13699,-0.05956l-0.14894,-0.01146l-0.5591,-0.18637l-0.34831,-0.08708l-0.06516,-0.03474l-0.07362,-0.00567l-0.31386,-0.10462l-0.11435,-0.07276l-0.13232,-0.02941l-0.02434,-0.01217l-0.17446,-0.04361l-0.47916,-0.09584l-0.10755,-0.05094l-0.11864,-0.00912l-0.80141,-0.26714l-0.48198,-0.08033l-0.18735,-0.08146l-0.20244,-0.02761l-0.47172,-0.18869l-0.57522,-0.19174l-0.11436,-0.07277l-0.13231,-0.0294l-0.29877,-0.14939l-0.07567,-0.02522l-0.40814,-0.08163l-0.15745,-0.07458l-0.17262,-0.02354l-0.52309,-0.20924l-0.06479,-0.04679l-0.078,-0.01733l-0.08954,-0.04477l-0.5247,-0.1749h-0.11289l-0.0735,-0.01837l-0.05707,0.02853l-0.39948,-0.14267l-0.41153,-0.10288l-0.02762,-0.04835l-0.34331,-0.04905l-0.15852,-0.06458l-0.17067,-0.01312l-0.02394,-0.00798h-1.31953l-0.18637,0.07455l-0.35338,0.04819l-0.00343,0.00086l-0.13334,0.13334v1.10313l0.10462,0.41848v0.05248l0.01173,0.05279l-0.01173,0.0176v0.0603l0.01043,0.02086l0.05456,0.24554l0.10768,0.22732l0.05516,0.2758l0.09646,0.19292l0.04499,0.20245l0.09759,0.18299l0.05448,0.21793l0.01217,0.02434l0.01733,0.07801l0.04678,0.06478l0.20924,0.5231l0.04819,0.35338l0.0865,0.34601v0.12429l0.00798,0.01254l0.20924,0.62772l0.00912,0.11865l0.05094,0.10753l0.05634,0.2817l0.09464,0.0811l0.00814,0.14652l0.23971,0.44947l0.07363,0.29449l0.34192,0.85481l0.27883,0.55766l0.0294,0.13231l0.07277,0.11436l0.20923,0.62772l0.02322,0.30182l0.07342,0.29368v0.07858c0.33623,0.25995 0.5821,0.63111 0.68247,1.05837l0.01765,0.00589l0.25539,0.16252l0.27899,0.11747l0.21922,0.16442l0.29185,0.11674l0.15969,0.11534zM419.42817,262.14488l-0.00412,-0.07424l-0.06456,-0.0369l-0.20042,-0.80166l-0.04296,-0.06751l-0.10462,-0.31386l-0.02322,-0.30183l-0.07341,-0.29368v-0.32213l-0.07028,-0.21084l-0.25402,-0.50802l-0.01733,-0.078l-0.04679,-0.06479l-0.41848,-1.0462l-0.00552,-0.0405l-0.00999,-0.01874l-0.12896,-0.11052l-0.00814,-0.14652l-0.23971,-0.44947l-0.10462,-0.41848v-0.04592l-0.01966,-0.04149l-0.08163,-0.40814l-0.12385,-0.37157l-0.01418,-0.0081l-0.01312,-0.05247l-0.02347,-0.04693l-0.09386,-0.42239l-0.10495,-0.41978v-0.05248l-0.01174,-0.05279l0.01174,-0.0176v-0.03756l-0.04546,-0.11365l-0.06959,-0.13918l-0.04499,-0.20245l-0.09759,-0.18299l-0.05448,-0.21793l-0.1168,-0.23358l-0.05456,-0.24554l-0.10768,-0.22731l-0.05516,-0.27581l-0.04151,-0.08302l-0.01837,-0.01049l-0.01312,-0.05247l-0.02346,-0.04693l-0.09387,-0.42239l-0.10494,-0.41978v-0.05247l-0.01173,-0.0528l0.01173,-0.0176v-0.2956l-0.10462,-0.41848v-0.05246l-0.01173,-0.05281l0.01173,-0.0176v-1.96953l0.01838,-0.0735l-0.02854,-0.05707l0.14268,-0.39948l0.10288,-0.41153l0.05539,-0.03166l0.02548,-0.07135l0.19545,-0.29317l0.0016,-0.02882l0.36987,-0.31705l0.22425,-0.20385l0.49032,-0.49032l0.25958,-0.15575l0.22984,-0.19701l0.09934,-0.04967l0.0105,-0.01837l0.05246,-0.01312l0.04693,-0.02346l0.10107,-0.02246l0.03252,-0.01952l0.02483,0.00677l0.26398,-0.05867l0.41977,-0.10494h0.05248l0.00753,-0.00168l0.18219,-0.07287l0.35338,-0.04819l0.34601,-0.0865h1.98777l0.29368,0.07342l0.30183,0.02321l0.15277,0.05092l0.41342,0.05906l0.01508,-0.00754l0.04523,0.01615l0.09052,0.01293l0.38587,0.15721l0.12197,0.04356l0.25186,0.06296l0.30183,0.02322l0.94158,0.31385l0.11435,0.07277l0.13232,0.0294l0.13918,0.06959l0.28985,0.11594l0.35356,0.07071l0.10754,0.05094l0.11865,0.00913l0.31386,0.10462l0.11435,0.07277l0.13231,0.0294l0.29877,0.14939l0.50076,0.16692l0.04778,0.03039l0.0561,0.00766l0.3341,0.13364l0.42692,0.07115l0.13699,0.05956l0.14894,0.01145l0.83035,0.27679l0.40814,0.08162l0.04149,0.01966h0.04592l0.41848,0.10462l0.18299,0.0976l0.20245,0.04499l0.08954,0.04477l0.11828,0.03943l0.34831,0.08708l0.06515,0.03474l0.07363,0.00567l0.48755,0.16251l0.48197,0.08033l0.0704,0.0306h0.07675l0.41848,0.10462l0.06515,0.03475l0.07362,0.00566l0.55911,0.18637l0.34832,0.08708l0.01993,0.01063l0.07858,0.01965l0.35338,0.04819l0.47172,0.18869l0.26136,0.08712l0.11435,0.07277l0.13232,0.02941l1.46467,0.73234l0.22984,0.19701l0.25958,0.15575l0.31385,0.31386l0.15575,0.25958l0.19701,0.22984l0.04967,0.09934l0.01837,0.01049l0.01312,0.05248l0.02346,0.04693l0.02246,0.10106l0.01952,0.03252l-0.00677,0.02483l0.05866,0.26398l0.10495,0.41978v0.05247l0.01173,0.05281l-0.01173,0.0176v0.80609l0.09007,0.72062l-0.01432,0.11814l0.02886,0.11544v1.36006l-0.01837,0.07351l0.02853,0.05707l-0.14267,0.39947l-0.10288,0.41153l-0.0554,0.03165l-0.02548,0.07136l-0.00259,0.00389l-0.03156,0.1578l-0.03243,0.06847l0.01679,0.06156l-0.21824,0.36374l-0.18159,0.38336l-0.02616,0.00871l-0.00928,0.01958l0.01678,0.06156l-0.21824,0.36374l-0.18159,0.38336l-0.06053,0.02018l-0.03898,0.06497l-0.182,0.18201l-0.10581,0.15871l-0.13879,0.12616l-0.0965,0.16084l-0.31385,0.31386l-0.16084,0.0965l-0.12618,0.13879l-0.35932,0.23955l-0.12031,0.16043l-0.28134,0.22858l-0.25631,0.25631l-0.4398,0.26388l-0.34076,0.25558l-0.27899,0.11748l-0.25539,0.16251l-0.20598,0.06866l-0.20875,0.20876l-0.25958,0.15574l-0.22984,0.19701l-1.67392,0.83696l-0.07801,0.01733l-0.06477,0.04679l-0.5231,0.20924l-0.12835,0.0175l-0.11431,0.06096l-0.46802,0.11701l-0.11425,0.08569l-0.15776,0.06642l-0.12996,0.1114l-0.09934,0.04967l-0.01049,0.01837l-0.05248,0.01312l-0.04693,0.02347l-0.36812,0.08181l-0.02942,0.01238l-0.00893,-0.00387l-0.01592,0.00354l-0.07721,0.0193l-0.05719,0.05718l-0.25957,0.15575l-0.22984,0.19701l-0.83696,0.41848l-0.13231,0.0294l-0.11435,0.07277l-0.62772,0.20923l-0.30183,0.02322l-0.29368,0.07342h-0.94157l-0.29368,-0.07342l-0.30183,-0.02322l-0.48754,-0.16251l-0.48198,-0.08033l-0.25798,-0.11216l-0.27461,-0.06102l-0.20924,-0.10462l-0.09035,-0.07744l-0.11206,-0.04002l-0.15071,-0.10048l-0.34105,-0.13642l-0.20146,-0.14549l-0.22904,-0.09644l-0.174,-0.1305l-0.02395,-0.00799l-0.11434,-0.07277l-0.13232,-0.0294l-0.08953,-0.04477l-0.21085,-0.07028h-0.00827l-0.94158,-0.23539l-0.92489,-1.61856z" fill="#000000" stroke="none" stroke-width="0.5"/><g stroke="#848484" stroke-width="0"><path d="M410.34984,302.19184l-4.88204,-9.0318c0,0 25.26879,3.54093 24.75464,4.47402c-1.1362,2.06199 -9.13208,7.48701 -9.13208,7.48701z" fill="#0c0c0c"/><path d="M430.27235,298.39677l12.3929,-10.98461c0,0 6.93344,10.99031 10.16431,10.7406c2.79621,-0.2161 2.7545,-6.51948 2.7545,-6.51948l5.89585,-3.45126l-5.29515,15.28457z" fill="#1e1e1e"/><path d="M390.10183,264.90074c7.9774,-8.46944 29.90888,-4.68746 36.56224,-2.13137c5.56224,2.1369 11.37119,3.293 18.68192,8.874c6.41771,4.89927 5.37373,18.28128 2.37033,22.54698c-1.76124,2.50147 -6.82222,4.82757 -10.79244,6.34897c-2.91578,1.11733 -8.58701,0.96947 -13.73416,-0.30052c-8.65942,-2.13661 -21.90759,-5.51524 -29.16414,-8.26772c-3.43541,-1.3031 -9.5595,-8.4253 -9.80766,-15.56786c-0.16358,-4.70777 4.35077,-9.87477 5.88391,-11.50248z" fill="#868686"/><path d="M447.71633,294.19034c-1.76124,2.50147 -6.82222,4.82757 -10.79244,6.34897c-2.91578,1.11733 -8.58701,0.96947 -13.73416,-0.30052c-8.65942,-2.13661 -21.90759,-5.51524 -29.16414,-8.26772c-3.43541,-1.3031 -9.5595,-8.4253 -9.80766,-15.56786c-0.08329,-2.39696 8.27409,7.06072 28.35542,13.66316c19.849,6.52604 36.19129,2.63508 35.14297,4.12397z" fill="#474747"/><path d="M441.83905,283.88416c0.03547,-2.53636 2.11152,-21.52125 5.1762,-32.13659c2.36802,-8.20227 7.76124,-21.81004 7.76124,-21.81004l7.81127,2.68514c0,0 -6.91036,15.70757 -9.65578,25.52451c-2.61886,9.36441 -6.45498,32.08366 -6.45498,32.08366c0,0 -4.67342,-3.81031 -4.63795,-6.34666z" fill="#757575"/><path d="M455.02058,230.18162c0,0 4.16304,-8.91108 9.2759,-11.71692c5.11287,-2.80584 11.47281,0.9764 11.47281,0.9764c0,0 -4.55681,3.99702 -6.19049,5.89209c-2.24008,2.59849 -6.74695,8.02175 -6.74695,8.02175z" fill="#929292"/><path d="M445.76347,287.1305c-2.53286,-11.56307 16.8994,-53.79642 16.8994,-53.79642c0,0 4.49648,-6.30254 6.81491,-8.67137c1.92784,-1.96975 6.14129,-4.56648 6.14129,-4.56648c0,0 2.75825,38.22315 -4.22484,56.04967c-5.81956,14.85626 -23.0979,22.54768 -25.63076,10.98461z" fill="#1e1e1e"/><path d="M419.10338,316.2576c0,2.54073 -2.10169,4.6004 -4.69428,4.6004c-2.59257,0 -4.69428,-2.05967 -4.69428,-4.6004c0,-2.54073 2.10169,-4.6004 4.69428,-4.6004c2.59257,0 4.69428,2.05967 4.69428,4.6004z" fill="#000000"/><path d="M411.08214,317.57029v-16.84307h7.32307v16.84307z" fill="#0c0c0c"/><path d="M402.06741,321.48959l-10.51519,-0.3414c0,0 4.78938,-6.30925 8.14743,-7.91648c4.17734,-1.99933 14.99962,-3.16202 14.99962,-3.16202v7.10115c0,0 -4.95336,0.18652 -7.09308,0.91808c-2.06848,0.70719 -5.53879,3.40066 -5.53879,3.40066z" fill="#0c0c0c"/><path d="M422.11671,318.46447c-2.13973,-0.73156 -7.09308,-0.91808 -7.09308,-0.91808v-7.10115c0,0 10.82227,1.16268 14.99962,3.16202c3.35807,1.60721 8.14743,7.91648 8.14743,7.91648l-10.51519,0.3414c0,0 -3.47032,-2.69346 -5.53879,-3.40066z" fill="#0c0c0c"/></g><path d="M415.35631,286.49556l0.15317,0.10211l0.39099,0.06517l0.17926,0.07794l0.1949,0.01499l0.44206,0.14735h0.43236l0.27591,-0.09197l0.61678,-0.30839l0.29489,-0.17693l0.00722,-0.00619l0.20072,-0.20072l0.4169,-0.25013l0.09349,-0.16362l0.30719,-0.0768l0.27152,-0.16291l0.1818,0.04958l0.19784,-0.04946l0.16429,-0.12322l0.45005,-0.18949l0.43087,-0.2298l0.28282,-0.0707l0.00683,-0.00287l0.00171,0.00074l0.64165,-0.16042l0.43408,-0.17363l1.74116,-0.87058l0.28807,-0.28807l0.00543,-0.02714l0.05971,-0.03801l0.04856,-0.04855l0.48555,-0.29133l0.47771,-0.304l0.06515,-0.02171l0.06069,-0.03642l0.0267,0.00729l0.28953,-0.09651l0.2277,-0.17078l0.11923,-0.0502l0.09148,-0.09148l0.2706,-0.16236l0.12108,-0.16145l0.32383,-0.26311l0.28068,-0.30874l0.61841,-0.41227l0.06563,-0.06563l0.13846,-0.20769l0.17023,-0.15477l0.01137,-0.05683l0.04244,-0.08961l-0.02197,-0.08055l0.28561,-0.47601l0.23763,-0.50167l0.03423,-0.01141l0.17468,-0.36877l0.02097,-0.05874v-1.06233l-0.11788,-0.94303l0.01874,-0.1546l-0.03777,-0.15107v-0.25676l-0.94545,-0.47272l-0.24458,-0.08153l-0.06252,-0.03979l-0.07343,-0.01001l-0.42784,-0.17114h-0.21297l-0.54763,-0.1369l-0.08526,-0.04547l-0.09634,-0.00741l-0.73166,-0.24389l-0.36034,-0.09008l-0.72438,-0.12073l-0.17926,-0.07794l-0.1949,-0.015l-0.73166,-0.24389l-0.45582,-0.11395l-0.08526,-0.04547l-0.09634,-0.00741l-0.41073,-0.13691l-0.14964,-0.09522l-0.17315,-0.03848l-0.03186,-0.01593l-0.2283,-0.05708l-0.62704,-0.12541l-0.14073,-0.06666l-0.15526,-0.01194l-1.04874,-0.34958l-0.63073,-0.10512l-0.24518,-0.1066l-0.26491,-0.03612l-0.61731,-0.24692l-0.75275,-0.25092l-0.14965,-0.09523l-0.17315,-0.03848l-0.39099,-0.1955l-0.09902,-0.03301l-0.5341,-0.10682l-0.20604,-0.0976l-0.22589,-0.0308l-0.68454,-0.27382l-0.08478,-0.06123l-0.10208,-0.02268l-0.11717,-0.05858l-0.68664,-0.22888h-0.14773l-0.09619,-0.02405l-0.07468,0.03734l-0.52277,-0.1867l-0.53854,-0.13463l-0.03615,-0.06327l-0.44927,-0.06418l-0.20745,-0.08452l-0.22334,-0.01718l-0.03134,-0.01044h-1.72677l-0.24389,0.09756l-0.46244,0.06306l-0.00449,0.00112l-0.17449,0.17449v1.44358l0.13691,0.54763v0.06867l0.01536,0.06909l-0.01536,0.02304v0.0789l0.01365,0.0273l0.0714,0.32131l0.14091,0.29748l0.07218,0.36092l0.12623,0.25246l0.05888,0.26493l0.12771,0.23946l0.0713,0.2852l0.01593,0.03186l0.02269,0.10208l0.06122,0.08477l0.27382,0.68455l0.06307,0.46244l0.11319,0.45279v0.16265l0.01045,0.01642l0.27382,0.82145l0.01194,0.15526l0.06666,0.14073l0.07372,0.36863l0.12384,0.10614l0.01065,0.19174l0.3137,0.58818l0.09635,0.38538l0.44745,1.11862l0.36489,0.72977l0.03848,0.17315l0.09523,0.14965l0.27382,0.82145l0.03038,0.39498l0.09608,0.38431v0.10284c0.44,0.34017 0.76175,0.8259 0.89311,1.38501l0.0231,0.0077l0.33422,0.21268l0.3651,0.15373l0.28688,0.21517l0.38192,0.15277l0.20898,0.15093zM408.36329,287.32238l-0.0054,-0.09716l-0.08449,-0.04828l-0.26227,-1.04907l-0.05623,-0.08835l-0.1369,-0.41073l-0.03038,-0.39498l-0.09608,-0.38431v-0.42155l-0.09197,-0.27591l-0.33241,-0.66481l-0.02268,-0.10208l-0.06123,-0.08478l-0.54763,-1.36909l-0.00723,-0.053l-0.01307,-0.02452l-0.16875,-0.14464l-0.01066,-0.19174l-0.3137,-0.58818l-0.1369,-0.54763v-0.06009l-0.02573,-0.0543l-0.10682,-0.5341l-0.16207,-0.48624l-0.01855,-0.0106l-0.01717,-0.06867l-0.03071,-0.06142l-0.12283,-0.55276l-0.13734,-0.54933v-0.06867l-0.01536,-0.06909l0.01536,-0.02303v-0.04916l-0.05949,-0.14872l-0.09107,-0.18213l-0.05888,-0.26493l-0.12771,-0.23946l-0.0713,-0.2852l-0.15284,-0.30567l-0.0714,-0.32132l-0.14091,-0.29747l-0.07218,-0.36093l-0.05432,-0.10864l-0.02403,-0.01373l-0.01717,-0.06867l-0.03071,-0.06142l-0.12284,-0.55275l-0.13733,-0.54934v-0.06866l-0.01536,-0.0691l0.01536,-0.02303v-0.38684l-0.13691,-0.54763v-0.06866l-0.01536,-0.0691l0.01536,-0.02303v-2.57738l0.02405,-0.09619l-0.03734,-0.07468l0.1867,-0.52277l0.13463,-0.53853l0.07249,-0.04143l0.03335,-0.09338l0.25577,-0.38365l0.00209,-0.03771l0.48403,-0.41489l0.29346,-0.26677l0.64164,-0.64165l0.3397,-0.20382l0.30077,-0.25781l0.13,-0.065l0.01374,-0.02403l0.06866,-0.01717l0.06142,-0.03071l0.13225,-0.02939l0.04256,-0.02554l0.03249,0.00886l0.34545,-0.07677l0.54933,-0.13733h0.06867l0.00985,-0.00219l0.23842,-0.09537l0.46244,-0.06307l0.45279,-0.11319h2.60126l0.38432,0.09608l0.39498,0.03038l0.19992,0.06664l0.54101,0.07729l0.01973,-0.00987l0.05919,0.02114l0.11845,0.01692l0.50496,0.20573l0.15961,0.057l0.32958,0.0824l0.39498,0.03038l1.23217,0.41072l0.14965,0.09523l0.17315,0.03848l0.18213,0.09107l0.3793,0.15172l0.46268,0.09253l0.14073,0.06666l0.15526,0.01194l0.41073,0.13691l0.14965,0.09523l0.17315,0.03848l0.39099,0.1955l0.65531,0.21843l0.06252,0.03978l0.07342,0.01002l0.43721,0.17488l0.55868,0.09311l0.17926,0.07794l0.1949,0.01499l1.08662,0.36221l0.5341,0.10681l0.0543,0.02573h0.06009l0.54763,0.1369l0.23946,0.12772l0.26493,0.05887l0.11717,0.05858l0.15479,0.0516l0.45582,0.11395l0.08526,0.04547l0.09634,0.00741l0.63802,0.21268l0.63072,0.10512l0.09212,0.04005h0.10044l0.54763,0.13691l0.08526,0.04547l0.09634,0.00741l0.73167,0.24389l0.45582,0.11395l0.02608,0.01391l0.10284,0.02571l0.46244,0.06306l0.61731,0.24692l0.34202,0.11401l0.14964,0.09523l0.17315,0.03848l1.91672,0.95836l0.30077,0.25781l0.3397,0.20382l0.41072,0.41073l0.20382,0.33969l0.25781,0.30078l0.065,0.13l0.02403,0.01373l0.01717,0.06867l0.03071,0.06142l0.02939,0.13225l0.02554,0.04256l-0.00885,0.03249l0.07676,0.34545l0.13734,0.54934v0.06866l0.01536,0.0691l-0.01536,0.02303v1.05487l0.11788,0.94303l-0.01874,0.15459l0.03777,0.15107v1.77981l-0.02405,0.0962l0.03734,0.07468l-0.1867,0.52276l-0.13463,0.53854l-0.0725,0.04143l-0.03335,0.09337l-0.00339,0.0051l-0.0413,0.2065l-0.04244,0.08961l0.02197,0.08055l-0.2856,0.47601l-0.23763,0.50167l-0.03423,0.01141l-0.01214,0.02562l0.02197,0.08055l-0.2856,0.47601l-0.23763,0.50167l-0.07921,0.0264l-0.05101,0.08502l-0.23818,0.23818l-0.13846,0.20769l-0.18162,0.16511l-0.12629,0.21047l-0.41072,0.41073l-0.21047,0.12629l-0.16511,0.18162l-0.47022,0.31348l-0.15745,0.20993l-0.36816,0.29913l-0.33543,0.33543l-0.57553,0.34532l-0.44593,0.33444l-0.3651,0.15373l-0.33422,0.21268l-0.26955,0.08985l-0.27318,0.27318l-0.33969,0.20381l-0.30078,0.25781l-2.19054,1.09527l-0.10208,0.02269l-0.08477,0.06123l-0.68454,0.27382l-0.16797,0.02291l-0.14958,0.07977l-0.61247,0.15312l-0.14951,0.11213l-0.20644,0.08692l-0.17008,0.14578l-0.13,0.065l-0.01373,0.02403l-0.06867,0.01717l-0.06142,0.03071l-0.48174,0.10705l-0.03849,0.01621l-0.01169,-0.00505l-0.02083,0.00463l-0.10104,0.02526l-0.07483,0.07483l-0.33969,0.20382l-0.30078,0.25781l-1.09527,0.54763l-0.17315,0.03848l-0.14965,0.09523l-0.82145,0.27382l-0.39498,0.03038l-0.38432,0.09608h-1.23217l-0.38432,-0.09608l-0.39498,-0.03038l-0.63802,-0.21267l-0.63073,-0.10512l-0.33759,-0.14678l-0.35936,-0.07986l-0.27382,-0.13691l-0.11824,-0.10134l-0.14665,-0.05237l-0.19723,-0.13149l-0.4463,-0.17852l-0.26364,-0.19041l-0.29973,-0.1262l-0.2277,-0.17078l-0.03134,-0.01045l-0.14964,-0.09523l-0.17315,-0.03848l-0.11717,-0.05858l-0.27592,-0.09197h-0.01082l-1.23217,-0.30805l-1.21034,-2.1181z" fill="#000000" stroke="none" stroke-width="0.5"/></g><path d="M138.92159,123.33866l-24.75619,-13.87847l47.63691,-15.75394l23.25582,15.75394z" fill="#111111" stroke="#848484" stroke-width="0" stroke-linecap="butt"/><path d="M123.91784,252.74601l-8.62716,-142.91073l22.50563,14.25356v128.65717z" fill="#181818" stroke="#848484" stroke-width="0" stroke-linecap="butt"/></g></g></svg>