<svg version="1.1" xmlns="http://www.w3.org/2000/svg" xmlns:xlink="http://www.w3.org/1999/xlink" width="70.16667" height="70.16667" viewBox="0,0,70.16667,70.16667"><g transform="translate(-204.91666,-144.91666)"><g data-paper-data="{&quot;isPaintingLayer&quot;:true}" fill-rule="nonzero" stroke-width="0" stroke-linecap="butt" stroke-linejoin="miter" stroke-miterlimit="10" stroke-dasharray="" stroke-dashoffset="0" style="mix-blend-mode: normal"><path d="M204.91667,215.08334v-70.16667h70.16667v70.16667z" fill="none" stroke="none"/><g><path d="M230.8154,188.73813l8.84479,-20.97794c0,0 1.94595,-2.70848 6.19756,-0.91016c3.6944,1.56264 3.60735,5.04414 3.60735,5.04414l-8.84479,20.97794z" fill="#fff073" stroke="#ffffff"/><path d="M230.8486,188.65941l4.61467,-10.94501l9.80491,4.13398l-4.61467,10.94501z" fill="#5a5629" stroke="#ffffff"/><path d="M238.05767,185.07127l-1.14986,-1.76768l3.53001,-2.01041l-1.86095,2.68497l1.58302,0.74033l-4.0903,2.91422z" fill="#ffffff" stroke="#ffffff"/><path d="M240.75527,193.02575c-0.4491,1.06518 -3.08647,0.97021 -5.89072,-0.21213c-2.80425,-1.18234 -4.71347,-3.00431 -4.26437,-4.06949c0.4491,-1.06518 3.08647,-0.97021 5.89072,0.21213c2.80425,1.18234 4.71347,3.00431 4.26437,4.06949z" fill="#413e1e" stroke="#ffffff"/><path d="M241.57516,174.12949l1.54891,-3.67367l1.37763,0.58084l-1.54891,3.67367z" fill="#000000" stroke="#ffffff"/><path d="M240.96206,172.24847l0.42595,-1.01026l3.67367,1.54891l-0.42595,1.01026z" fill="#000000" stroke="none"/></g></g></g></svg>