<svg version="1.1" xmlns="http://www.w3.org/2000/svg" xmlns:xlink="http://www.w3.org/1999/xlink" width="70.16667" height="70.16667" viewBox="0,0,70.16667,70.16667"><g transform="translate(-204.91667,-144.91667)"><g data-paper-data="{&quot;isPaintingLayer&quot;:true}" fill-rule="nonzero" stroke-width="0" stroke-linecap="butt" stroke-linejoin="miter" stroke-miterlimit="10" stroke-dasharray="" stroke-dashoffset="0" style="mix-blend-mode: normal"><path d="M204.91668,215.08335v-70.16667h70.16667v70.16667z" fill="none" stroke="none"/><path d="M247.41036,176.94471c1.93237,4.67457 -0.29642,7.74594 -3.98214,9.26955c-3.68572,1.52361 -7.55633,1.54538 -9.48871,-3.1292c-1.93237,-4.67457 -1.19476,-12.2753 2.49095,-13.79891c3.68572,-1.52361 9.04752,2.984 10.97989,7.65857z" fill="#a33a3a" stroke="#ff0000"/><path d="M235.73075,183.14428c-0.29129,-0.70465 0.04381,-1.51202 0.74845,-1.8033c0.70465,-0.29129 1.51201,0.0438 1.8033,0.74845c0.29129,0.70465 -0.0438,1.51201 -0.74845,1.8033c-0.70465,0.29129 -1.51202,-0.04381 -1.80331,-0.74846z" fill="#7e2d2d" stroke="none"/><path d="M238.28317,186.97464l-1.27914,-0.3595c0,0 1.4565,-3.74969 3.65965,-5.78433c1.01141,-0.93405 3.09179,-0.22643 3.63888,-0.90645c1.06622,-1.3253 2.14315,-5.04514 2.14315,-5.04514c0,0 0.73408,1.47023 1.0058,2.16296c0.21409,0.5458 0.49324,1.6587 0.49324,1.6587c0,0 -1.73612,2.48337 -3.00039,3.56604c-0.70013,0.59957 -2.52109,0.10621 -3.6966,0.92546c-1.80935,1.261 -2.9646,3.78225 -2.9646,3.78225z" fill="#7e2d2d" stroke="none"/><path d="M235.28795,171.13381c-0.10235,-0.24758 0.01539,-0.53125 0.26297,-0.63359c0.24758,-0.10235 0.53125,0.01539 0.63359,0.26297c0.10235,0.24758 -0.01539,0.53125 -0.26297,0.63359c-0.24758,0.10235 -0.53125,-0.01539 -0.63359,-0.26297z" fill="#7e2d2d" stroke="none"/><path d="M236.73856,170.73603c-0.1732,-0.41898 0.02604,-0.89904 0.44503,-1.07224c0.41898,-0.1732 0.89904,0.02604 1.07224,0.44503c0.1732,0.41898 -0.02604,0.89904 -0.44503,1.07224c-0.41898,0.1732 -0.89904,-0.02604 -1.07224,-0.44503z" fill="#7e2d2d" stroke="none"/><path d="M244.01473,184.04007c-0.14171,-0.3428 0.02131,-0.73557 0.36411,-0.87728c0.3428,-0.14171 0.73557,0.02131 0.87728,0.36411c0.14171,0.3428 -0.02131,0.73557 -0.36411,0.87728c-0.3428,0.14171 -0.73557,-0.02131 -0.87728,-0.36411z" fill="#7e2d2d" stroke="none"/><g><path d="M242.53862,175.6297c0.87855,1.91806 0.42644,2.79211 -1.6156,3.72744c-2.04204,0.93534 -3.7794,1.0961 -4.65794,-0.82196c-0.87855,-1.91806 -0.36336,-4.2588 1.67867,-5.19413c2.04204,-0.93534 3.71632,0.37059 4.59487,2.28865z" fill="#680000" stroke="none"/><g stroke="#000000"><path d="M237.89772,176.33659c-0.06992,1.1771 -0.12451,2.24352 -1.70698,2.03746c-0.86704,-0.1129 -1.5237,-1.04811 -1.45377,-2.22521c0.06992,-1.1771 0.83283,-2.0187 1.70698,-2.03746c1.47361,-0.03163 1.5237,1.04811 1.45377,2.22521z" fill="#ffffff"/><path d="M236.96315,176.1837c0.00329,0.94655 -0.56855,1.97307 -1.18621,1.97521c-0.61766,0.00214 -1.10008,-0.9967 -1.10336,-1.94325c-0.00329,-0.94655 0.54758,-1.73981 1.16525,-1.74195c0.61766,-0.00214 1.12104,0.76344 1.12433,1.70999z" fill="#000000"/></g><g data-paper-data="{&quot;index&quot;:null}" stroke="#000000"><path d="M239.42277,172.68305c0.58518,-0.64967 1.72075,-0.67766 2.65774,0.03824c0.93699,0.7159 1.21624,1.82397 0.73541,2.55425c-0.87759,1.33287 -1.72075,0.67766 -2.65774,-0.03824c-0.93699,-0.7159 -1.72187,-1.45907 -0.73541,-2.55425z" fill="#ffffff"/><path d="M240.09238,172.4615c0.40506,-0.4663 1.36554,-0.3653 2.08013,0.25544c0.71459,0.62074 1.15584,1.63845 0.75078,2.10475c-0.40506,0.4663 -1.55586,0.22882 -2.27045,-0.39192c-0.71459,-0.62074 -0.96552,-1.50196 -0.56046,-1.96826z" fill="#000000"/></g></g></g></g></svg>