<svg version="1.1" xmlns="http://www.w3.org/2000/svg" xmlns:xlink="http://www.w3.org/1999/xlink" width="101.43282" height="83.12965" viewBox="0,0,101.43282,83.12965"><g transform="translate(-189.01534,-138.35855)"><g data-paper-data="{&quot;isPaintingLayer&quot;:true}" fill="none" fill-rule="nonzero" stroke="#ff0000" stroke-width="6.5" stroke-linejoin="miter" stroke-miterlimit="10" stroke-dasharray="" stroke-dashoffset="0" style="mix-blend-mode: normal"><path d="M221.33333,180c0,-10.30932 8.35735,-18.66667 18.66667,-18.66667c10.30932,0 18.66667,8.35735 18.66667,18.66667c0,10.30932 -8.35735,18.66667 -18.66667,18.66667c-10.30932,0 -18.66667,-8.35735 -18.66667,-18.66667z" stroke-linecap="butt"/><g stroke-linecap="round"><path d="M252.73335,152.59019c0,0 6.29716,-0.85202 12.05295,6.63947c4.26675,5.55341 3.86072,13.53235 3.86072,13.53235" data-paper-data="{&quot;index&quot;:null}"/><path d="M263.72219,146.87314c0,0 5.7034,-0.77168 10.91648,6.01343c3.86444,5.02978 3.4967,12.25638 3.4967,12.25638" data-paper-data="{&quot;index&quot;:null}"/><path d="M274.66061,141.6316c0,0 4.9612,-0.67126 9.49589,5.23089c3.36155,4.37524 3.04166,10.66143 3.04166,10.66143" data-paper-data="{&quot;index&quot;:null}"/></g><g data-paper-data="{&quot;index&quot;:null}" stroke-linecap="round"><path d="M268.17084,187.08474c0,0 0.40603,7.97894 -3.86072,13.53235c-5.75579,7.49148 -12.05295,6.63947 -12.05295,6.63947" data-paper-data="{&quot;index&quot;:null}"/><path d="M277.65917,194.70379c0,0 0.36774,7.2266 -3.4967,12.25638c-5.21308,6.78511 -10.91648,6.01343 -10.91648,6.01343" data-paper-data="{&quot;index&quot;:null}"/><path d="M286.72197,202.32284c0,0 0.31989,6.28619 -3.04166,10.66143c-4.53468,5.90215 -9.49589,5.23089 -9.49589,5.23089" data-paper-data="{&quot;index&quot;:null}"/></g><g data-paper-data="{&quot;index&quot;:null}" stroke-linecap="round"><path d="M227.20634,207.25656c0,0 -6.29716,0.85202 -12.05295,-6.63947c-4.26675,-5.55341 -3.86072,-13.53235 -3.86072,-13.53235" data-paper-data="{&quot;index&quot;:null}"/><path d="M216.2175,212.9736c0,0 -5.7034,0.77168 -10.91648,-6.01343c-3.86444,-5.02978 -3.4967,-12.25638 -3.4967,-12.25638" data-paper-data="{&quot;index&quot;:null}"/><path d="M205.27907,218.21515c0,0 -4.9612,0.67126 -9.49589,-5.23089c-3.36155,-4.37524 -3.04166,-10.66143 -3.04166,-10.66143" data-paper-data="{&quot;index&quot;:null}"/></g><g stroke-linecap="round"><path d="M210.81647,172.76201c0,0 -0.40603,-7.97894 3.86072,-13.53235c5.75579,-7.49148 12.05295,-6.63947 12.05295,-6.63947"/><path d="M201.32813,165.14296c0,0 -0.36774,-7.2266 3.4967,-12.25638c5.21308,-6.78511 10.91648,-6.01343 10.91648,-6.01343"/><path d="M192.26534,157.52391c0,0 -0.31989,-6.28619 3.04166,-10.66143c4.53468,-5.90215 9.49589,-5.23089 9.49589,-5.23089"/></g></g></g></svg>