<svg version="1.1" xmlns="http://www.w3.org/2000/svg" xmlns:xlink="http://www.w3.org/1999/xlink" width="647.64113" height="479.2559" viewBox="0,0,647.64113,479.2559"><defs><linearGradient x1="323.09983" y1="-61.12943" x2="323.09983" y2="-7.12943" gradientUnits="userSpaceOnUse" id="color-1"><stop offset="0" stop-color="#000000" stop-opacity="0"/><stop offset="1" stop-color="#000000" stop-opacity="0.5"/></linearGradient><linearGradient x1="319.90318" y1="418.12647" x2="319.90318" y2="369.12647" gradientUnits="userSpaceOnUse" id="color-2"><stop offset="0" stop-color="#000000" stop-opacity="0"/><stop offset="1" stop-color="#000000" stop-opacity="0.5"/></linearGradient><linearGradient x1="294.9599" y1="278.24438" x2="309.22444" y2="277.03797" gradientUnits="userSpaceOnUse" id="color-3"><stop offset="0" stop-color="#8b1a1a" stop-opacity="0"/><stop offset="1" stop-color="#8b1a1a"/></linearGradient><linearGradient x1="302.35958" y1="258.40648" x2="304.64474" y2="270.4634" gradientUnits="userSpaceOnUse" id="color-4"><stop offset="0" stop-color="#ff3131"/><stop offset="1" stop-color="#ff3131" stop-opacity="0"/></linearGradient><linearGradient x1="360.5775" y1="265.1558" x2="346.86079" y2="269.25271" gradientUnits="userSpaceOnUse" id="color-5"><stop offset="0" stop-color="#8b1a1a" stop-opacity="0"/><stop offset="1" stop-color="#8b1a1a"/></linearGradient><linearGradient x1="346.37809" y1="249.11694" x2="348.66324" y2="261.17386" gradientUnits="userSpaceOnUse" id="color-6"><stop offset="0" stop-color="#ff3131"/><stop offset="1" stop-color="#ff3131" stop-opacity="0"/></linearGradient><radialGradient cx="382.13918" cy="216.84457" r="12.3391" gradientUnits="userSpaceOnUse" id="color-7"><stop offset="0" stop-color="#ff8ae6"/><stop offset="1" stop-color="#ff8ae6" stop-opacity="0"/></radialGradient><radialGradient cx="382.13918" cy="216.84457" r="12.3391" gradientUnits="userSpaceOnUse" id="color-8"><stop offset="0" stop-color="#ff8ae6"/><stop offset="1" stop-color="#ff8ae6" stop-opacity="0"/></radialGradient><linearGradient x1="345.65818" y1="267.83061" x2="361.05402" y2="269.17692" gradientUnits="userSpaceOnUse" id="color-9"><stop offset="0" stop-color="#c4c4c4" stop-opacity="0"/><stop offset="1" stop-color="#c4c4c4"/></linearGradient><linearGradient x1="357.18633" y1="248.09279" x2="357.39448" y2="261.33916" gradientUnits="userSpaceOnUse" id="color-10"><stop offset="0" stop-color="#ffffff"/><stop offset="1" stop-color="#ffffff" stop-opacity="0"/></linearGradient><linearGradient x1="417.86965" y1="266.00419" x2="402.52369" y2="267.83357" gradientUnits="userSpaceOnUse" id="color-11"><stop offset="0" stop-color="#d5d5d5" stop-opacity="0"/><stop offset="1" stop-color="#d5d5d5"/></linearGradient><linearGradient x1="405.72211" y1="246.32579" x2="405.93027" y2="259.57219" gradientUnits="userSpaceOnUse" id="color-12"><stop offset="0" stop-color="#ffffff"/><stop offset="1" stop-color="#ffffff" stop-opacity="0"/></linearGradient><radialGradient cx="373.56857" cy="201.94495" r="8.11175" gradientUnits="userSpaceOnUse" id="color-13"><stop offset="0" stop-color="#ff8ae6"/><stop offset="1" stop-color="#ff8ae6" stop-opacity="0"/></radialGradient><radialGradient cx="373.56857" cy="201.94495" r="8.11175" gradientUnits="userSpaceOnUse" id="color-14"><stop offset="0" stop-color="#ff8ae6"/><stop offset="1" stop-color="#ff8ae6" stop-opacity="0"/></radialGradient><radialGradient cx="391.00789" cy="201.6709" r="8.11175" gradientUnits="userSpaceOnUse" id="color-15"><stop offset="0" stop-color="#ff8ae6"/><stop offset="1" stop-color="#ff8ae6" stop-opacity="0"/></radialGradient><radialGradient cx="391.00789" cy="201.6709" r="8.11175" gradientUnits="userSpaceOnUse" id="color-16"><stop offset="0" stop-color="#ff8ae6"/><stop offset="1" stop-color="#ff8ae6" stop-opacity="0"/></radialGradient><radialGradient cx="323.5455" cy="260.40647" r="63.2281" gradientUnits="userSpaceOnUse" id="color-17"><stop offset="0" stop-color="#000000"/><stop offset="1" stop-color="#000000" stop-opacity="0"/></radialGradient><radialGradient cx="322.95458" cy="260.40647" r="56.72801" gradientUnits="userSpaceOnUse" id="color-18"><stop offset="0" stop-color="#000000"/><stop offset="1" stop-color="#000000" stop-opacity="0"/></radialGradient></defs><g transform="translate(2.31907,61.12944)"><g stroke-miterlimit="10"><g stroke="#000000" stroke-width="0" stroke-linecap="butt"><path d="M2.52019,369.1516v-376.52795h640.60852v376.52795z" fill-opacity="0.5" fill="#000000"/><path d="M0.87757,-7.12943v-54h644.44449v54z" fill="url(#color-1)"/><path d="M642.12542,369.12647v49h-644.44449v-49z" fill="url(#color-2)"/></g><path d="M442.44852,269.50888c-2.01129,3.56111 -4.24193,7.05417 -7.09007,9.13803c-3.36992,2.46563 -7.26694,3.3948 -10.78738,5.44691c-69.01219,-0.1826 -138.02499,-0.14677 -207.03772,-0.13738c-0.05943,-0.08878 -0.11654,-0.17817 -0.17065,-0.26835c-0.94659,-1.57765 -6.26531,-5.71931 -8.24288,-6.42559c-1.03092,-0.36819 -2.41077,-0.09151 -3.16177,-0.88797c-0.88125,-0.93461 -0.74442,-2.86273 -1.29617,-3.96622c-1.08136,-2.16272 -2.87835,-4.18678 -5.07202,-5.60211c0.22545,-54.62981 -0.06923,-109.26108 -0.08318,-163.89172c0.66186,-0.2676 1.28956,-0.60197 1.87478,-0.99476c2.19273,-1.12059 3.9657,-2.46212 4.46921,-3.40926c3.19866,-6.01689 0.1335,-12.73373 5.55064,-17.82607c69.82472,0.04556 139.64945,0.06717 209.47417,0.11548c3.81961,2.67124 9.40106,2.9871 13.44073,5.11366c3.47548,1.82955 6.04885,4.44878 8.22418,7.41083c0.12239,58.72795 -0.31236,117.45713 -0.09188,176.18451z" fill="#d9d9d9" stroke="#000000" stroke-width="0" stroke-linecap="butt"/><path d="M201.62675,117.68003h-2.11004c-0.00523,-4.92184 -0.00876,-9.84367 -0.01002,-14.7655c0.66186,-0.2676 1.28956,-0.60197 1.87478,-0.99476c0.08237,-0.04209 0.16415,-0.0845 0.24529,-0.12719z" fill="#d9d9d9" stroke="#000000" stroke-width="0" stroke-linecap="butt"/><g stroke="#000000" stroke-width="0" stroke-linecap="butt"><path d="M265.99489,130.72966v-5.34428h39.63678v5.34428z" fill="#e0e0e0"/><path d="M277.57418,136.51931v-5.34428h39.63678v5.34428z" fill="#d2d2d2"/><path d="M258.86918,123.15862v-5.34429h39.63678v5.34429z" fill="#b8b8b8"/></g><g stroke="#000000" stroke-width="0" stroke-linecap="butt"><path d="M288.27612,155.23901v-5.34428h39.63678v5.34428z" fill="#e0e0e0"/><path d="M299.8554,161.02865v-5.34428h39.63678v5.34428z" fill="#d2d2d2"/><path d="M281.15041,147.66795v-5.34428h39.63678v5.34428z" fill="#b8b8b8"/></g><g stroke="#000000" stroke-width="0" stroke-linecap="butt"><path d="M274.9074,173.064v-5.34428h39.63678v5.34428z" fill="#e0e0e0"/><path d="M286.48667,178.85365v-5.34429h39.63678v5.34429z" fill="#d2d2d2"/><path d="M267.78167,165.49292v-5.34428h39.63678v5.34428z" fill="#b8b8b8"/></g><g stroke="#000000" stroke-width="0" stroke-linecap="butt"><path d="M257.0824,197.01634v-5.34428h39.63678v5.34428z" fill="#e0e0e0"/><path d="M268.66168,202.80599v-5.34428h39.63678v5.34428z" fill="#d2d2d2"/><path d="M249.95669,189.44526v-5.34428h39.63678v5.34428z" fill="#b8b8b8"/></g><g stroke="#000000" stroke-width="0" stroke-linecap="butt"><path d="M316.12766,212.05617v-5.34428h39.63678v5.34428z" fill="#e0e0e0"/><path d="M327.70693,217.84582v-5.34428h39.63678v5.34428z" fill="#d2d2d2"/><path d="M309.00194,204.4851v-5.34428h39.63678v5.34428z" fill="#b8b8b8"/></g><g stroke="#000000" stroke-width="0" stroke-linecap="butt"><path d="M337.29479,132.40075v-5.34428h39.63678v5.34428z" fill="#e0e0e0"/><path d="M348.87409,138.19042v-5.34428h39.63678v5.34428z" fill="#d2d2d2"/><path d="M330.16909,124.82969v-5.34429h39.63678v5.34429z" fill="#b8b8b8"/></g><g stroke="#000000" stroke-width="0" stroke-linecap="butt"><path d="M212.51994,147.99763v-5.34429h39.63678v5.34429z" fill="#e0e0e0"/><path d="M224.09923,153.78725v-5.34429h39.63678v5.34429z" fill="#d2d2d2"/><path d="M205.39423,140.42655v-5.34428h39.63678v5.34428z" fill="#b8b8b8"/></g><g stroke="#000000" stroke-width="0" stroke-linecap="butt"><path d="M210.84884,91.73754v-5.34429h39.63678v5.34429z" fill="#e0e0e0"/><path d="M222.42814,97.5272v-5.34429h39.63678v5.34429z" fill="#d2d2d2"/><path d="M243.35993,80.70373v3.46269h-34.42091c0.527,-1.22024 1.29911,-2.3886 2.46231,-3.48205c10.65287,0.00695 21.30574,0.01334 31.95861,0.01936z" fill="#b8b8b8"/></g><g stroke="#000000" stroke-width="0" stroke-linecap="butt"><path d="M266.55192,91.73754v-5.34429h39.63678v5.34429z" fill="#e0e0e0"/><path d="M278.13121,97.5272v-5.34429h39.63678v5.34429z" fill="#d2d2d2"/><path d="M259.42621,84.16644v-3.45387c13.21226,0.00705 26.42452,0.01366 39.63678,0.02016v3.43371z" fill="#b8b8b8"/></g><g stroke="#000000" stroke-width="0" stroke-linecap="butt"><path d="M337.85186,87.2813v-5.34428h39.63678v5.34428z" fill="#e0e0e0"/><path d="M349.43113,93.07091v-5.34428h39.63678v5.34428z" fill="#d2d2d2"/><path d="" fill="#b8b8b8"/></g><g stroke="#000000" stroke-width="0" stroke-linecap="butt"><path d="M394.11196,109.00549v-5.34428h39.63678v5.34428z" fill="#e0e0e0"/><path d="M405.69124,114.79511v-5.34428h36.86968c0.00093,1.78143 0.00144,3.56285 0.00158,5.34428z" fill="#d2d2d2"/><path d="M386.98624,101.43444v-5.34429h39.63678v5.34429z" fill="#b8b8b8"/></g><g stroke="#000000" stroke-width="0" stroke-linecap="butt"><path d="M322.81201,108.44847v-5.34429h39.63678v5.34429z" fill="#e0e0e0"/><path d="M334.3913,114.23808v-5.34429h39.63678v5.34429z" fill="#d2d2d2"/><path d="M315.68631,100.8774v-5.34428h39.63678v5.34428z" fill="#b8b8b8"/></g><g stroke="#000000" stroke-width="0" stroke-linecap="butt"><path d="M346.76434,167.49369v-5.34428h39.63678v5.34428z" fill="#e0e0e0"/><path d="M358.34363,173.28335v-5.34428h39.63678v5.34428z" fill="#d2d2d2"/><path d="M339.63863,159.92261v-5.34428h39.63678v5.34428z" fill="#b8b8b8"/></g><g stroke="#000000" stroke-width="0" stroke-linecap="butt"><path d="M314.45656,193.11714v-5.34428h39.63678v5.34428z" fill="#e0e0e0"/><path d="M326.03583,198.90676v-5.34428h39.63678v5.34428z" fill="#d2d2d2"/><path d="M307.33085,185.54606v-5.34429h39.63678v5.34429z" fill="#b8b8b8"/></g><g stroke="#000000" stroke-width="0" stroke-linecap="butt"><path d="M400.79632,261.07484v-5.34428h39.63678v5.34428z" fill="#e0e0e0"/><path d="M412.37561,266.86451v-5.34428h30.04684c0.00496,1.78143 0.01047,3.56286 0.01657,5.34428z" fill="#d2d2d2"/><path d="M393.67061,253.5038v-5.34428h39.63678v5.34428z" fill="#b8b8b8"/></g><path d="" fill="#d2d2d2" stroke="#000000" stroke-width="0" stroke-linecap="butt"/><g stroke="#000000" stroke-width="0" stroke-linecap="butt"><path d="M383.52837,281.81075h39.63678v2.27941c-13.21224,-0.03439 -26.4245,-0.06085 -39.63678,-0.08107z" fill="#e0e0e0"/><path d="" fill="#d2d2d2"/><path d="M376.40265,279.58394v-5.34428h39.63678v5.34428z" fill="#b8b8b8"/></g><g stroke="#000000" stroke-width="0" stroke-linecap="butt"><path d="M436.59112,239.9077v-5.34428h5.79408c0.00025,1.78143 0.00088,3.56286 0.00193,5.34428z" fill="#e0e0e0"/><path d="M429.4654,232.33663v-5.34429h12.92093c-0.00076,1.78143 -0.00119,3.56286 -0.00125,5.34429z" fill="#b8b8b8"/></g><g stroke="#000000" stroke-width="0" stroke-linecap="butt"><path d="M333.95264,229.32411v-5.34429h39.63678v5.34429z" fill="#e0e0e0"/><path d="M345.53189,235.11376v-5.34429h39.63678v5.34429z" fill="#d2d2d2"/><path d="M326.82692,221.75304v-5.34428h39.63678v5.34428z" fill="#b8b8b8"/></g><g stroke="#000000" stroke-width="0" stroke-linecap="butt"><path d="M332.83857,262.74595v-5.34428h39.63678v5.34428z" fill="#e0e0e0"/><path d="M344.41784,268.53558v-5.34428h39.63678v5.34428z" fill="#d2d2d2"/><path d="M325.71287,255.17489v-5.34428h39.63678v5.34428z" fill="#b8b8b8"/></g><g stroke="#000000" stroke-width="0" stroke-linecap="butt"><path d="M210.84884,158.5812v-5.34428h39.63678v5.34428z" fill="#e0e0e0"/><path d="M222.42814,164.37085v-5.34428h39.63678v5.34428z" fill="#d2d2d2"/><path d="M203.72314,151.01012v-5.34429h39.63678v5.34429z" fill="#b8b8b8"/></g><g stroke="#000000" stroke-width="0" stroke-linecap="butt"><path d="M397.45413,151.89683v-5.34428h39.63678v5.34428z" fill="#e0e0e0"/><path d="M409.03342,157.68648v-5.34428h33.48799c-0.00348,1.78143 -0.00711,3.56285 -0.01083,5.34428z" fill="#d2d2d2"/><path d="M390.32842,144.32575v-5.34429h39.63678v5.34429z" fill="#b8b8b8"/></g><g stroke="#000000" stroke-width="0" stroke-linecap="butt"><path d="M436.59112,176.40621v-5.34429h5.89003c-0.00404,1.78143 -0.0081,3.56286 -0.01215,5.34429z" fill="#e0e0e0"/><path d="M429.4654,168.83512v-5.34428h13.03271c-0.00392,1.78143 -0.0079,3.56285 -0.01192,5.34428z" fill="#b8b8b8"/></g><path d="M440.89566,208.38432v-5.34428h1.518c-0.00307,1.78143 -0.00597,3.56285 -0.00864,5.34428z" fill="#b8b8b8" stroke="#000000" stroke-width="0" stroke-linecap="butt"/><g stroke="#000000" stroke-width="0" stroke-linecap="butt"><path d="M365.70337,184.76168v-5.34428h39.63678v5.34428z" fill="#e0e0e0"/><path d="M377.28268,190.55128v-5.34429h39.63678v5.34429z" fill="#d2d2d2"/><path d="M358.57767,177.19059v-5.34428h39.63678v5.34428z" fill="#b8b8b8"/></g><g stroke="#000000" stroke-width="0" stroke-linecap="butt"><path d="M403.02444,207.04289v-5.34428h39.39156c-0.00316,1.78143 -0.00615,3.56285 -0.00894,5.34428z" fill="#e0e0e0"/><path d="M414.60373,212.83253v-5.34428h27.80265c-0.00275,1.78143 -0.00529,3.56285 -0.00758,5.34428z" fill="#d2d2d2"/><path d="M395.89873,199.47183v-5.34428h39.63678v5.34428z" fill="#b8b8b8"/></g><g stroke="#000000" stroke-width="0" stroke-linecap="butt"><path d="M381.85728,237.12254v-5.34428h39.63678v5.34428z" fill="#e0e0e0"/><path d="M393.43656,242.91219v-5.34428h39.63678v5.34428z" fill="#d2d2d2"/><path d="M374.73156,229.55146v-5.34428h39.63678v5.34428z" fill="#b8b8b8"/></g><g stroke="#000000" stroke-width="0" stroke-linecap="butt"><path d="M277.1355,252.16238v-5.34429h39.63678v5.34429z" fill="#e0e0e0"/><path d="M288.71479,257.952v-5.34428h39.63678v5.34428z" fill="#d2d2d2"/><path d="M270.00979,244.59129v-5.34428h39.63678v5.34428z" fill="#b8b8b8"/></g><g stroke="#000000" stroke-width="0" stroke-linecap="butt"><path d="M206.94963,207.04289v-5.34428h39.63678v5.34428z" fill="#e0e0e0"/><path d="M218.52892,212.83253v-5.34428h39.63678v5.34428z" fill="#d2d2d2"/><path d="M199.82393,199.47183v-5.34428h39.63678v5.34428z" fill="#b8b8b8"/></g><path d="M200.64672,260.96317v5.34428h-1.05481c0.00725,-1.78143 0.01395,-3.56285 0.02012,-5.34428z" fill="#d2d2d2" stroke="#000000" stroke-width="0" stroke-linecap="butt"/><g stroke="#000000" stroke-width="0" stroke-linecap="butt"><path d="M205.83558,246.03504v-5.34429h39.63678v5.34429z" fill="#e0e0e0"/><path d="M217.41486,251.82469v-5.34428h39.63678v5.34428z" fill="#d2d2d2"/><path d="M238.34666,233.11968v5.34428h-38.68235c0.00227,-1.78143 0.00413,-3.56285 0.00561,-5.34428z" fill="#b8b8b8"/></g><g stroke="#000000" stroke-width="0" stroke-linecap="butt"><path d="M228.11681,267.75919v-5.34428h39.63678v5.34428z" fill="#e0e0e0"/><path d="M239.69609,273.54886v-5.34428h39.63678v5.34428z" fill="#d2d2d2"/><path d="M220.99109,260.18814v-5.34429h39.63678v5.34429z" fill="#b8b8b8"/></g><g stroke="#000000" stroke-width="0" stroke-linecap="butt"><path d="M207.59428,213.39625v5.34428h-7.92007c-0.00035,-1.78143 -0.001,-3.56285 -0.00193,-5.34428z" fill="#e0e0e0"/><path d="M219.17356,219.1859v5.34428h-19.4993c0.00034,-1.78143 0.00034,-3.56285 0.00005,-5.34428z" fill="#d2d2d2"/><path d="M200.46856,205.82519v5.34428h-0.79758c-0.00115,-1.78143 -0.00257,-3.56285 -0.00423,-5.34428z" fill="#b8b8b8"/></g><g stroke="#000000" stroke-width="0" stroke-linecap="butt"><path d="M272.12224,223.19677v-5.34428h39.63678v5.34428z" fill="#e0e0e0"/><path d="M283.70152,228.98643v-5.34428h39.63678v5.34428z" fill="#d2d2d2"/><path d="M264.9965,215.62572v-5.34429h39.63678v5.34429z" fill="#b8b8b8"/></g><g stroke="#000000" stroke-width="0" stroke-linecap="butt"><path d="M225.97629,171.61896v5.34428h-26.35263c-0.0034,-1.78143 -0.00688,-3.56285 -0.01042,-5.34428z" fill="#e0e0e0"/><path d="M237.55558,177.4086v5.34428h-37.92122c-0.00318,-1.78143 -0.00647,-3.56285 -0.00985,-5.34428z" fill="#d2d2d2"/><path d="M218.85056,164.04786v5.34429h-19.24178c-0.00358,-1.78143 -0.00722,-3.56286 -0.01087,-5.34429z" fill="#b8b8b8"/></g><g stroke="#000000" stroke-width="0" stroke-linecap="butt"><path d="M224.3052,108.67449v5.34428h-24.79206c-0.00158,-1.78143 -0.00291,-3.56285 -0.00398,-5.34428z" fill="#e0e0e0"/><path d="M235.88449,114.4641v5.34428h-36.36541c-0.00206,-1.78143 -0.00392,-3.56285 -0.00553,-5.34428z" fill="#d2d2d2"/><path d="M217.17949,101.1034v5.34429h-17.67151c-0.00055,-1.17773 -0.00098,-2.35545 -0.00129,-3.53318c0.66186,-0.2676 1.28956,-0.60197 1.87478,-0.99476c0.51388,-0.26262 1.00471,-0.53737 1.46155,-0.81634z" fill="#b8b8b8"/></g><path d="" fill="#d2d2d2" stroke="#000000" stroke-width="0" stroke-linecap="butt"/><g stroke="#000000" stroke-width="0" stroke-linecap="butt"><path d="M413.051,84.49614v-3.70154c2.60816,0.00173 5.21633,0.0035 7.82449,0.00531c2.7805,1.94454 6.49462,2.64092 9.86799,3.69623z" fill="#e0e0e0"/><path d="M424.63027,90.28579v-5.34428h7.44214c0.78332,0.28348 1.53715,0.60007 2.24381,0.97206c2.22704,1.17235 4.08366,2.66895 5.7025,4.37222z" fill="#d2d2d2"/><path d="" fill="#b8b8b8"/></g><path d="M421.45742,173.03399v-14.43529h21.05124c-0.01016,4.81176 -0.02105,9.62353 -0.03199,14.43529z" fill="#80caff" stroke="#000000" stroke-width="0" stroke-linecap="butt"/><g fill="#ff96f3" stroke-width="0" stroke-linecap="butt"><path d="M208.1757,200.88553v-14.43529h37.48868v14.43529z" stroke="#000000"/><path d="M217.87104,180.15415v27.57787l-18.21483,-11.13128c-0.00267,-1.99498 -0.00558,-3.98996 -0.00869,-5.98494z" stroke="none"/></g><g fill="#ff96f3" stroke-width="0" stroke-linecap="butt"><path d="M356.14112,256.58862v-14.43529h37.48867v14.43529z" stroke="#000000"/><path d="M383.93445,263.43512v-27.57787l23.26882,13.35803z" stroke="none"/></g><g stroke="#000000" stroke-linecap="butt"><g><path d="M232.85302,162.12857l28.07949,-3.06274l-18.02297,15.53333z" fill="#b8bf2b" stroke-width="0"/><path d="M197.03698,129.52426c-0.32052,-0.39028 -1.07258,0.00274 -2.1355,0.97728c-0.03511,-1.84521 -0.07019,-3.69043 -0.10526,-5.53564c2.31494,-3.453 2.72895,-8.27035 4.24347,-12.16681c2.00664,-0.54418 3.73395,-0.28817 4.84001,1.17473c11.93072,15.77976 4.62077,50.47889 4.62077,50.47889c0,0 23.70577,-4.85641 30.30529,-0.52173c7.05502,4.63387 5.43583,11.19048 1.5894,20.89124c-1.35915,3.42779 26.933,-5.35944 43.93097,-6.91662c6.00147,-0.5498 10.59503,-0.19833 11.97853,1.91028c0.15251,0.23243 6.46751,9.62662 -15.49881,30.00517c-17.24443,15.99796 -45.25833,29.52395 -48.17827,31.05903c-0.37423,0.19674 -2.4768,0.33566 0.30718,-2.65895c5.89409,-6.34004 20.8563,-20.00203 30.3352,-29.66725c12.36862,-12.61176 21.08056,-20.95622 19.60844,-20.31716c-19.39963,8.42189 -52.93708,19.75567 -54.2678,21.7817c-6.60794,10.06048 -28.2102,29.56718 -28.2102,29.56718c0,0 16.7777,18.6676 0.03001,39.36891c-0.82761,1.02299 -1.70771,1.99071 -2.62864,2.90585c-0.85045,-44.36006 -1.70546,-88.72002 -2.55199,-133.08016c1.87961,-9.77271 2.96192,-17.82561 1.7872,-19.25593z" fill="#0019b8" stroke-width="0"/><g stroke-width="0"><path d="M234.8342,173.0481c-1.4975,2.27993 -4.55972,2.91421 -6.83963,1.4167c-2.27991,-1.4975 -2.91422,-4.55972 -1.41672,-6.83964c1.4975,-2.27993 4.55973,-2.9142 6.83966,-1.41669c2.27993,1.4975 2.91422,4.55971 1.4167,6.83962z" fill="#000000"/><path d="M228.39136,173.86065c-1.94628,-1.27837 -2.48774,-3.89246 -1.2094,-5.83873c1.27836,-1.94627 3.89244,-2.48772 5.83873,-1.20935c1.94628,1.27837 2.48773,3.89244 1.20939,5.83872c-1.27836,1.94627 -3.89242,2.48774 -5.83872,1.20937z" fill="#ffffff"/></g><g stroke-width="0"><path d="M220.65842,176.77102c-1.4975,2.27991 -4.55974,2.91422 -6.83966,1.41671c-2.27993,-1.4975 -2.9142,-4.55973 -1.41669,-6.83965c1.4975,-2.27993 4.55972,-2.91422 6.83963,-1.4167c2.27991,1.4975 2.91422,4.55971 1.41671,6.83964z" fill="#000000"/><path d="M220.05426,176.37421c-1.27836,1.94628 -3.89242,2.48774 -5.83872,1.20938c-1.94628,-1.27837 -2.48772,-3.89244 -1.20937,-5.83871c1.27836,-1.94627 3.89242,-2.48774 5.83871,-1.20938c1.94627,1.27836 2.48773,3.89245 1.20938,5.83872z" fill="#ffffff"/></g><g stroke-width="0"><path d="M234.92835,186.79554c-1.4975,2.27993 -4.55973,2.91422 -6.83966,1.41671c-2.27993,-1.4975 -2.9142,-4.55973 -1.4167,-6.83966c1.4975,-2.27991 4.55972,-2.91422 6.83964,-1.41671c2.27993,1.4975 2.91422,4.55973 1.4167,6.83966z" fill="#000000"/><path d="M234.32422,186.3987c-1.27836,1.94627 -3.89244,2.48774 -5.83873,1.20937c-1.94628,-1.27837 -2.48772,-3.89245 -1.20937,-5.83872c1.27836,-1.94628 3.89242,-2.48774 5.83871,-1.20938c1.94628,1.27837 2.48774,3.89245 1.2094,5.83872z" fill="#ffffff"/></g><g><path d="M221.32392,184.05519c5.21506,4.84371 0.51162,18.38609 -10.50539,30.24782c-4.57057,4.92102 -9.50976,8.77966 -14.09743,11.26459c-0.21066,-10.96843 -0.42126,-21.93686 -0.63161,-32.90529c9.98653,-9.00503 20.66275,-12.85325 25.23443,-8.60711z" fill="#000000" stroke-width="0"/><path d="M217.61107,183.1999c0,0 1.63707,-0.21842 2.17522,0.13506c0.79217,0.5203 2.1177,2.68461 2.1177,2.68461l-6.93081,6.12049z" fill="#ffffff" stroke-width="0"/><path d="" fill="#ffffff" stroke-width="0"/><path d="M207.62535,185.29584c0,0 1.06605,-0.9791 1.63571,-0.99358c0.83853,-0.02129 2.90837,0.8782 2.90837,0.8782l-1.83549,7.90106z" fill="#ffffff" stroke-width="0"/><path d="M211.59706,197.5356l7.98685,-1.41635c0,0 0.78907,2.11444 0.72362,2.95063c-0.04448,0.56808 -1.07844,1.58104 -1.07844,1.58104z" fill="#ffffff" stroke-width="0"/><path d="M207.22438,203.85131l8.03866,1.08447c0,0 0.10731,2.25432 -0.20983,3.03082c-0.21544,0.5275 -1.50889,1.17727 -1.50889,1.17727z" fill="#ffffff" stroke-width="0"/><path d="M202.64456,209.24038l5.9795,5.481c0,0 -1.19929,1.91179 -1.90308,2.36811c-0.47815,0.30999 -1.911,0.10469 -1.911,0.10469z" fill="#ffffff" stroke-width="0"/><path d="M201.33363,221.45067c0,0 -1.44928,1.73004 -2.20883,2.08589c-0.51604,0.24176 -1.90736,-0.15739 -1.90736,-0.15739l-0.63217,-4.88335c-0.0182,-0.94777 -0.0364,-1.89553 -0.05459,-2.84329z" fill="#ffffff" stroke-width="0"/><path d="" fill="#ffffff" stroke-width="0"/><path d="M199.92567,190.75445c0,0 0.63195,-1.29495 1.07611,-1.58347c0.65381,-0.42467 2.46699,-0.71794 2.46699,-0.71794l0.213,7.15865z" fill="#ffffff" stroke-width="0"/><path d="" fill="#ffffff" stroke-width="0"/><path d="M198.38248,200.71328l-2.16115,-1.17832c-0.02536,-1.3223 -0.05074,-2.64461 -0.0761,-3.96692z" fill="#ffffff" stroke-width="0"/><path d="" fill="#ffffff" stroke-width="0"/><path d="M196.09915,193.16533c9.73811,-8.83679 20.18537,-12.63092 24.64646,-8.48751c5.06387,4.70327 0.49684,17.85309 -10.20082,29.37094c-4.48614,4.83007 -9.33797,8.60614 -13.83334,11.01593" fill="none" stroke-width="1"/></g></g><path d="M233.61541,168.86642c1.21681,0.93564 1.3689,2.77919 0.33969,4.11769c-1.02921,1.3385 -2.84996,1.66508 -4.06677,0.72942c-1.21681,-0.93564 -1.3689,-2.77919 -0.33969,-4.11769c1.02921,-1.3385 2.84996,-1.66508 4.06677,-0.72944z" fill="#000000" stroke-width="0"/><path d="M229.09941,183.31803c1.02921,-1.3385 2.84996,-1.66506 4.06679,-0.72942c1.21681,0.93564 1.3689,2.77919 0.33969,4.11769c-1.02921,1.3385 -2.84996,1.66506 -4.06677,0.72942c-1.21681,-0.93565 -1.3689,-2.77919 -0.33969,-4.11769z" fill="#000000" stroke-width="0"/><path d="M215.13752,172.7762c1.02921,-1.3385 2.84996,-1.66506 4.06678,-0.72942c1.21681,0.93564 1.3689,2.77919 0.33969,4.11769c-1.02921,1.3385 -2.84997,1.66508 -4.06677,0.72943c-1.21681,-0.93564 -1.3689,-2.77919 -0.33969,-4.11769z" fill="#000000" stroke-width="0"/></g><g stroke-linecap="butt"><g fill="#eac623" stroke-width="0"><path d="" stroke="#ff0000"/><path d="" stroke="#ff0000"/><path d="M263.06202,301.06984c-0.15285,-0.64227 -0.30576,-1.28454 -0.4587,-1.92681c1.15345,0.72096 1.90273,1.77915 1.91285,2.22955c0.00904,0.40204 -0.54285,0.06576 -1.45415,-0.30275z" stroke="none"/><path d="" stroke="none"/></g><path d="M257.32445,262.70025c0.44084,1.34343 -0.91528,2.04931 -2.78524,2.71288c-0.71452,-2.98037 -1.42932,-5.96065 -2.14424,-8.94092c2.40378,1.73228 4.15085,3.85515 4.92948,6.22804z" fill="#72559d" stroke="#33943a" stroke-width="0"/><path d="M272.62111,271.27536c0.51137,8.60051 -5.15385,13.19439 -12.90414,15.76742c-2.60748,-10.91427 -5.22422,-21.82639 -7.84199,-32.73825c0.86171,-2.50093 -10.74272,-25.50038 7.9861,-28.67821c7.76278,-1.31717 13.66289,7.85935 14.88698,18.16617c0.68835,5.79591 -1.97745,10.44789 -2.74192,15.57207c-0.70504,4.72594 0.50614,10.08042 0.61498,11.91078z" fill="#edafbc" stroke="#33943a" stroke-width="0"/><g stroke="#000000" stroke-width="0"><path d="M266.08667,232.09246c0.18544,-2.38422 2.24785,-4.11032 4.60651,-3.8553c2.35868,0.25501 4.12042,2.39456 3.93498,4.77881c-0.18543,2.38423 -2.24784,4.11033 -4.6065,3.85531c-2.35868,-0.25501 -4.12042,-2.39456 -3.93499,-4.77881z" fill="#ffffff"/><path d="M267.5886,232.1911c0.13838,-1.77921 1.67741,-3.06727 3.4375,-2.87698c1.76012,0.19031 3.0748,1.78692 2.93642,3.56614c-0.13835,1.7792 -1.67738,3.06727 -3.4375,2.87697c-1.76011,-0.19031 -3.07477,-1.78692 -2.93642,-3.56612z" fill="#000000"/></g><g stroke="#000000" stroke-width="0"><path d="M259.14384,232.39536c2.39648,0.25912 4.18644,2.43294 3.99804,4.8554c-0.18839,2.42244 -2.28384,4.17619 -4.68031,3.91709c-2.39648,-0.25912 -4.18644,-2.43294 -3.99804,-4.8554c0.18839,-2.42244 2.28385,-4.17619 4.68031,-3.91708z" fill="#ffffff"/><path d="M256.37689,236.20798c0.14061,-1.80771 1.70428,-3.11641 3.4926,-2.92307c1.78833,0.19338 3.12407,1.81555 2.98347,3.62327c-0.14058,1.80771 -1.70427,3.11639 -3.49259,2.92305c-1.78831,-0.19336 -3.12405,-1.81555 -2.98347,-3.62326z" fill="#000000"/></g><path d="M259.54835,226.05522c0,0 0.23456,-1.90464 -0.00916,-2.88644c-0.33961,-1.36805 -1.83808,-4.5546 -1.83808,-4.5546l0.62008,-0.15394c0,0 1.53104,2.18093 1.86459,3.52455c0.26748,1.07753 -0.01735,3.91648 -0.01735,3.91648z" fill="#000000" stroke="#33943a" stroke-width="0"/><path d="M258.15835,226.02881c0,0 -0.15434,-2.46123 -0.69446,-3.64367c-0.75265,-1.64761 -3.39924,-5.31802 -3.39924,-5.31802l0.7468,-0.34114c0,0 2.44982,2.3925 3.189,4.01071c0.59278,1.29773 0.90468,4.95099 0.90468,4.95099z" fill="#000000" stroke="#33943a" stroke-width="0"/><path d="M256.88959,226.32224c0,0 -0.62497,-1.81441 -1.27481,-2.5897c-0.90548,-1.08026 -3.65026,-3.28612 -3.65026,-3.28612l0.48965,-0.41041c0,0 2.33276,1.28792 3.22208,2.34892c0.7132,0.85084 1.70299,3.52689 1.70299,3.52689z" fill="#000000" stroke="#33943a" stroke-width="0"/><path d="M268.62057,249.63706c0.49091,-2.16152 2.94639,-4.87113 7.51885,-3.83266c4.57247,1.03849 9.45027,9.26958 9.45027,9.26958c0,0 -5.00637,1.39568 -9.57882,0.35721c-4.57247,-1.03848 -7.8812,-3.63261 -7.39029,-5.79413z" fill="#debb21" stroke="#ff0000" stroke-width="0"/><path d="M275.45852,251.17935c4.28893,2.45129 10.39955,3.99649 10.39955,3.99649c0,0 -8.656,2.69805 -12.94493,0.24675c-4.28895,-2.45128 -6.82545,-6.08377 -5.66547,-8.11336c0.70318,-1.23032 3.78047,-2.73312 5.64433,-1.3798c1.21078,0.87915 0.87752,4.28463 2.56651,5.24994z" fill="#ffd726" stroke="#33943a" stroke-width="0"/><path d="M288.78886,236.24555c-1.32345,0.86052 -7.27195,2.86693 -11.82282,6.55997c-3.90851,3.17175 -6.59771,8.16192 -6.59771,8.16192c0,0 -0.69264,-0.34101 -4.3693,-3.22915c-3.67666,-2.88815 -2.50024,-11.72991 3.31778,-14.04922c8.87156,-3.53656 13.38798,-0.92303 19.01669,0.57183c1.55553,0.41312 0.45537,1.98464 0.45537,1.98464z" fill="#ffd726" stroke="#33943a" stroke-width="0"/><path d="M257.34333,277.11753c-1.13805,-4.75425 -2.27738,-9.50818 -3.41732,-14.26198c4.80981,3.36906 7.98773,7.76595 8.24829,12.14815c0.10584,1.78006 -2.15342,1.94684 -4.83097,2.11383z" fill="#906bc7" stroke="#33943a" stroke-width="0"/><g fill="none" stroke="none" stroke-width="1" font-family="sans-serif" font-weight="normal" font-size="12" text-anchor="start"/></g><g stroke-width="0" stroke-linecap="butt"><path d="M302.84377,216.44722c-0.73916,-8.48017 -2.25163,-18.84063 -0.9378,-24.1643c0.47043,-1.90615 2.16845,-1.88039 3.18317,-2.69131c0.99536,-0.79545 3.65437,0.53787 5.17456,2.89295c2.24142,3.4724 5.23305,7.32512 6.54702,6.90739c1.02016,-0.32433 2.47562,-6.85778 4.15032,-9.96098c0.4823,-0.8937 0.98278,-1.5029 1.49629,-1.59733c1.84282,-0.33891 4.76061,0.62783 6.08371,2.40408c2.575,3.45695 3.03853,10.17711 5.30778,17.68632c2.40814,7.96883 6.29709,16.70531 7.51036,23.30247c0.10211,0.55521 2.99434,1.53723 6.47922,3.49813c0.00071,11.98876 0.01842,23.97747 0.06342,35.96611c-2.01129,3.56111 -4.24193,7.05417 -7.09007,9.13803c-3.36992,2.46563 -7.26694,3.3948 -10.78737,5.44691c-12.99032,-0.03437 -25.98065,-0.061 -38.971,-0.08153c-0.99693,-3.29659 -1.54834,-5.74697 -1.56554,-5.7988c-0.33717,-1.01577 -2.13093,-16.687 2.29931,-27.64754c3.52951,-8.73216 13.49514,-13.16735 13.28913,-14.28761c-0.70553,-3.83627 -1.46147,-12.16764 -2.23242,-21.01302z" fill="#ff3131" stroke="#33943a"/><path d="M324.40132,203.94686c2.94078,-0.04347 5.43253,2.32224 5.56552,5.28394c0.13296,2.96172 -2.14319,5.39791 -5.08397,5.44138c-2.94078,0.04347 -5.43252,-2.32224 -5.56552,-5.28395c-0.13296,-2.96172 2.14318,-5.3979 5.08396,-5.44138z" fill="#ffffff" stroke="#000000"/><path d="M309.5964,206.89873c2.94078,-0.04347 5.43255,2.32223 5.56553,5.28394c0.13296,2.96172 -2.14319,5.39791 -5.08396,5.44138c-2.94078,0.04347 -5.43255,-2.32223 -5.56553,-5.28394c-0.13296,-2.96172 2.14319,-5.39791 5.08396,-5.44138z" fill="#ffffff" stroke="#000000"/><path d="M304.79816,212.60518c-0.07596,-1.6917 1.22416,-3.08324 2.9039,-3.10809c1.67975,-0.02484 3.10302,1.32642 3.17896,3.01813c0.07598,1.6917 -1.22415,3.08324 -2.9039,3.10808c-1.67972,0.02483 -3.10303,-1.32643 -3.17896,-3.01813z" fill="#000000" stroke="#000000"/><path d="M320.27928,210.17044c-0.07596,-1.6917 1.22417,-3.08325 2.90389,-3.10809c1.67975,-0.02484 3.10301,1.32643 3.17896,3.01813c0.07599,1.6917 -1.22416,3.08324 -2.9039,3.10808c-1.67972,0.02483 -3.10302,-1.32643 -3.17895,-3.01813z" fill="#000000" stroke="#000000"/><path d="M320.78012,229.39653c-2.73194,0.50241 -7.55224,0.0108 -10.33638,-0.35181c-1.29413,-0.16854 -2.38339,-1.58731 -2.51966,-2.32833c-0.16693,-0.90756 0.86556,-2.95811 2.80735,-2.92774c2.71913,0.04254 6.45652,0.00642 8.73201,-0.41206c2.13295,-0.39227 5.29278,-1.51699 7.7789,-2.48189c2.17828,-0.84545 4.22946,0.55282 4.39639,1.46038c0.13626,0.74103 -0.33312,2.43285 -1.42144,3.02519c-1.08832,0.59235 -6.74591,3.52133 -9.43717,4.01626z" fill="#000000" stroke="#33943a"/><path d="M320.15133,190.1675l0.93661,-12.75391l7.31301,13.13455z" fill="#ffffff" stroke="#33943a"/><path d="M301.00531,193.1416l0.93662,-12.7539l7.02697,11.05752z" fill="#ffffff" stroke="#33943a"/><path d="M319.8707,230.83001c0.19962,1.05326 -2.3131,2.36214 -3.12444,3.42736c-0.9971,1.3091 -0.46827,2.29761 -1.90389,2.5697c-2.60378,0.4935 -3.63861,-2.72305 -4.08356,-5.07073c-0.20929,-1.10419 -0.42601,-2.26524 0.19631,-3.1661c0.70082,-1.01449 2.33345,-1.7169 3.71259,-1.97829c1.65531,-0.31373 3.72088,0.09159 4.78255,1.09573c0.60832,0.57535 0.25836,2.26714 0.42044,3.12232z" fill="#ff9ee9" stroke="#000000"/><path d="M292.6389,261.73506c0,0 0.01268,-10.89434 2.23122,-13.46735c1.54643,-1.79352 10.38109,8.03633 11.2912,7.95935c1.6962,-0.14346 0.74212,4.3016 0.74212,4.3016l3.49868,24.70078c-5.40119,-0.01122 -10.80238,-0.02124 -16.20357,-0.03019z" fill="url(#color-3)" stroke="#000000"/><path d="M296.83865,271.94291l-4.3147,-21.92046c0,0 1.89308,-3.33131 3.15172,-3.64593c1.61207,-0.40294 6.58865,-1.73355 9.70733,-1.70048c2.20396,0.02337 5.13843,1.45495 5.13843,1.45495l1.92939,22.85294z" fill="url(#color-4)" stroke="#000000"/><g stroke="#000000"><path d="M342.97983,253.03908c0,0 -2.51442,-3.78768 -0.88338,-4.27484c0.66572,-0.19884 3.5013,-7.41051 5.74271,-10.36522c0.00385,10.76396 0.02225,21.52787 0.06266,32.29172c-0.1622,0.28718 -0.32582,0.57392 -0.49108,0.85951z" fill="url(#color-5)"/><path d="M340.85716,262.65333l-6.56667,-21.97403c0,0 2.20713,-2.40607 4.24969,-3.23428c2.70507,-1.09685 7.36176,-1.67754 9.2983,-1.92362c0.00105,8.60083 0.01097,17.20164 0.03356,25.80241z" fill="url(#color-6)"/></g></g><g stroke="#000000" stroke-width="0" stroke-linecap="butt"><path d="" fill-opacity="0.33871" fill="#a8ff6b"/><path d="" fill-opacity="0.33871" fill="#a8ff6b"/><path d="" fill="#15ff80"/></g><path d="M365.43624,203.54912c0.77699,-9.15678 1.07802,-20.4562 3.45695,-25.8769c0.85179,-1.9409 2.65327,-1.60045 3.88213,-2.27601c0.10723,-0.05895 0.22537,-0.09754 0.35243,-0.117c0.57344,0.17901 1.14687,0.35802 1.7203,0.53705c1.07703,0.70009 2.21865,2.01089 2.89825,3.61114c1.74412,4.10685 4.21617,8.75655 5.69086,8.55443c0.94061,-0.12891 2.96627,-4.66138 4.96425,-7.93414c3.38325,1.05633 6.76646,2.11273 10.14968,3.16918c0.92763,4.2488 0.61104,10.23797 1.43699,16.98156c1.0926,8.92052 3.61884,18.93058 3.69329,26.17176c0.01024,0.99638 7.74388,4.58129 12.53993,11.55094c-8.40906,26.91209 -12.16129,18.34737 -20.58315,45.25544c-11.38755,2.37797 -24.17016,1.32797 -28.98659,1.43731c-1.50466,0.03416 -4.37012,-6.64945 -5.76971,-5.91203c-0.42302,0.22288 -0.71213,8.64078 -0.78928,8.64157c0.06275,-19.02576 -1.2728,-4.74421 -1.2728,-4.74421c0,0 -11.9546,4.10777 -15.28112,-1.67161c-4.30279,-7.4755 -3.89208,-12.73918 -3.91342,-12.88137c-0.17142,-1.14265 0.80943,-18.14309 7.54244,-28.98536c5.36413,-8.63793 16.78235,-11.51863 16.7697,-12.74825c-0.0433,-4.21078 0.68844,-13.21236 1.49893,-22.76348z" fill="#ffffff" stroke="#33943a" stroke-width="0" stroke-linecap="butt"/><path d="M382.28761,221.33359c-2.84287,0.02643 -7.62198,-1.56647 -10.36882,-2.58007c-1.2768,-0.47115 -2.13192,-2.38682 -2.14202,-3.29691c-0.01241,-1.11464 1.38189,-3.33829 3.3359,-2.8961c2.73627,0.61923 6.51345,1.35781 8.88135,1.33578c2.21956,-0.02063 5.60114,-0.69795 8.27549,-1.32601c2.34319,-0.55032 4.17245,1.54214 4.18486,2.65679c0.01009,0.91009 -0.75436,2.8247 -1.95431,3.30185c-1.19994,0.47714 -7.41192,2.77864 -10.21247,2.80469z" fill="url(#color-7)" stroke="#33943a" stroke-width="0" stroke-linecap="butt"/><path d="M382.28761,221.33359c-2.84287,0.02643 -7.62198,-1.56647 -10.36882,-2.58007c-1.2768,-0.47115 -2.13192,-2.38682 -2.14202,-3.29691c-0.01241,-1.11464 1.38189,-3.33829 3.3359,-2.8961c2.73627,0.61923 6.51345,1.35781 8.88135,1.33578c2.21956,-0.02063 5.60114,-0.69795 8.27549,-1.32601c2.34319,-0.55032 4.17245,1.54214 4.18486,2.65679c0.01009,0.91009 -0.75436,2.8247 -1.95431,3.30185c-1.19994,0.47714 -7.41192,2.77864 -10.21247,2.80469z" fill="url(#color-8)" stroke="#33943a" stroke-width="0" stroke-linecap="butt"/><path d="M382.08775,219.5074c-2.15952,0.0222 -5.7869,-0.99435 -7.87157,-1.64175c-0.969,-0.30093 -1.61509,-1.53238 -1.62109,-2.11814c-0.00739,-0.71741 1.05579,-2.15118 2.53928,-1.87013c2.07737,0.39356 4.94522,0.86208 6.74393,0.84358c1.68605,-0.01732 4.25596,-0.45945 6.28857,-0.86856c1.78091,-0.35848 3.16664,0.98499 3.17401,1.7024c0.00601,0.58576 -0.57818,1.81948 -1.49053,2.12877c-0.91235,0.30929 -5.63524,1.80196 -7.76261,1.82382z" fill="#000000" stroke="#33943a" stroke-width="0" stroke-linecap="butt"/><path d="M341.19266,282.82642l5.03999,-32.98492c0,0 2.02177,-11.58619 4.85601,-13.91417c1.97558,-1.62272 9.56112,10.46207 10.5434,10.54796c1.83072,0.1601 -0.00357,4.7125 -0.00357,4.7125l-1.33618,33.78865c0,0 -5.67105,0.41829 -9.09804,-0.27676c-1.18338,-0.24003 -4.17673,-0.76068 -5.85902,-2.63657c-2.18422,-2.43557 -2.96075,4.30882 -2.96075,4.30882z" fill="url(#color-9)" stroke="#000000" stroke-width="0" stroke-linecap="butt"/><path d="M348.81828,261.47397l-0.54876,-24.1126c0,0 2.62781,-3.19461 4.02463,-3.29725c1.78908,-0.13146 7.32804,-0.62945 10.63934,-0.01937c2.34008,0.43114 5.19763,2.49489 5.19763,2.49489l-2.16043,24.66478z" fill="url(#color-10)" stroke="#000000" stroke-width="0" stroke-linecap="butt"/><g stroke="#000000" stroke-width="0" stroke-linecap="butt"><path d="M401.38431,249.87137c0,0 -1.97641,-4.49255 -0.15162,-4.71007c0.97909,-0.11671 8.1812,-12.43387 10.2068,-10.87403c1.39639,1.0753 2.67244,4.29321 3.62137,7.34627c-3.92694,12.55748 -7.86794,25.1106 -11.81,37.66338z" fill="url(#color-11)"/><path d="M397.35407,259.70691l-2.93434,-24.58471c0,0 2.79131,-2.15252 5.11668,-2.65696c3.2905,-0.71383 8.84237,-0.39011 10.6347,-0.31494c1.39936,0.05868 4.12626,3.16916 4.12626,3.16916l0.07386,8.51881c-1.63523,5.22676 -3.27276,10.45281 -4.91167,15.67843z" fill="url(#color-12)"/></g><g stroke="none" stroke-width="0" stroke-linecap="butt"><path d="M379.78676,189.5541c0,0 0.40791,-4.64262 0.93891,-6.50568c0.38966,-1.36712 1.95642,-3.65281 1.95642,-3.65281c0,0 1.66456,-0.149 2.71409,0.76615c1.93644,1.68848 4.10357,5.0213 6.26171,5.6364c2.09803,0.59797 6.91756,-0.92226 9.52969,-1.29335c1.67168,-0.23748 1.81149,0.68144 1.81149,0.68144c0,0 -0.01013,3.24699 -0.45636,4.8126c-0.51027,1.79033 -2.43899,5.3459 -2.43899,5.3459c0,0 -0.84565,0.16418 -1.84012,-0.56133c-2.07318,-1.51245 -5.43892,-4.62537 -7.66733,-5.2605c-2.31752,-0.66053 -6.10096,0.56735 -8.53123,0.79675c-1.2049,0.11374 -2.2783,-0.76559 -2.2783,-0.76559z" fill="#ff8ae6"/><path d="M388.73472,190.27379l1.73721,-6.0951l3.38615,0.96511l-1.73719,6.0951z" fill="#1f111c"/></g><g stroke="none" stroke-width="0" stroke-linecap="butt"><path d="M365.45781,202.0724c-0.07002,-4.45648 3.50451,-8.12626 7.98395,-8.19663c4.47944,-0.07038 8.16753,3.48525 8.23755,7.94175c0.07002,4.45649 -3.50451,8.12626 -7.98396,8.19664c-4.47944,0.07038 -8.16753,-3.48526 -8.23755,-7.94174z" fill="url(#color-13)"/><path d="M365.45781,202.0724c-0.07002,-4.45648 3.50451,-8.12626 7.98395,-8.19663c4.47944,-0.07038 8.16753,3.48525 8.23755,7.94175c0.07002,4.45649 -3.50451,8.12626 -7.98396,8.19664c-4.47944,0.07038 -8.16753,-3.48526 -8.23755,-7.94174z" fill="url(#color-14)"/><g><path d="M378.40766,201.9397c0.04485,2.85372 -2.24411,5.20366 -5.11253,5.24873c-2.86842,0.04506 -5.23008,-2.23179 -5.27493,-5.0855c-0.04485,-2.85372 2.24411,-5.20365 5.11253,-5.24873c2.86842,-0.04506 5.23009,2.23179 5.27493,5.0855z" fill="#ffffff"/><path d="M377.76492,202.63927c0.04116,2.61916 -2.05966,4.77596 -4.69232,4.81731c-2.63265,0.04137 -4.8002,-2.04835 -4.84136,-4.66752c-0.04116,-2.61916 2.05967,-4.77596 4.69231,-4.81732c2.63266,-0.04137 4.80021,2.04835 4.84136,4.66752z" fill="#000000"/></g></g><g stroke="none" stroke-width="0" stroke-linecap="butt"><path d="M382.89712,201.79837c-0.07002,-4.45648 3.50451,-8.12626 7.98396,-8.19664c4.47944,-0.07038 8.16752,3.48525 8.23754,7.94174c0.07002,4.45649 -3.5045,8.12627 -7.98395,8.19665c-4.47944,0.07038 -8.16753,-3.48525 -8.23755,-7.94175z" fill="url(#color-15)"/><path d="M382.89712,201.79837c-0.07002,-4.45648 3.50451,-8.12626 7.98396,-8.19664c4.47944,-0.07038 8.16752,3.48525 8.23754,7.94174c0.07002,4.45649 -3.5045,8.12627 -7.98395,8.19665c-4.47944,0.07038 -8.16753,-3.48525 -8.23755,-7.94175z" fill="url(#color-16)"/><g><path d="M395.84699,201.66566c0.04485,2.85372 -2.24411,5.20365 -5.11253,5.24873c-2.86842,0.04506 -5.23009,-2.23179 -5.27493,-5.0855c-0.04485,-2.85372 2.24412,-5.20365 5.11254,-5.24873c2.86842,-0.04506 5.23008,2.23179 5.27493,5.0855z" fill="#ffffff"/><path d="M394.38315,201.92689c0.04116,2.61916 -2.05966,4.77596 -4.69231,4.81732c-2.63265,0.04137 -4.80021,-2.04835 -4.84138,-4.66751c-0.04116,-2.61916 2.05969,-4.77596 4.69232,-4.81733c2.63266,-0.04137 4.80019,2.04835 4.84135,4.66751z" fill="#000000"/></g></g><path d="M410.68965,285.39612c-0.77092,0.08863 -4.88398,-3.5556 -5.05962,-9.49038c-0.21871,-7.39052 3.65825,-17.64146 4.29078,-20.60571c1.12548,-5.2744 -0.4597,-10.79799 2.35953,-14.57258c5.20623,-6.97049 16.11537,-10.0808 25.98898,-11.38562c0.64156,-0.08478 1.28432,-0.17598 1.92809,-0.27012c0.01087,21.80762 -0.32628,45.69979 -0.46539,45.7739c-2.29377,1.2219 -8.09987,15.85045 -10.36541,11.88009c-2.41541,-4.23302 -4.25752,-15.77576 -4.39258,-19.51028c-0.06247,-1.72649 -3.12569,-13.64591 -6.468,-11.08467c-1.63603,1.25371 -1.84177,13.67722 -3.6025,21.92847c-0.8969,4.20307 -3.6147,7.26798 -4.21382,7.33686z" fill="#496fff" stroke="#33943a" stroke-width="0" stroke-linecap="butt"/><g stroke="#000000" stroke-width="0" stroke-linecap="butt"><path d="" fill="#ffffff"/><path d="" fill="#000000"/></g><g stroke="#000000" stroke-width="0" stroke-linecap="butt"><path d="M427.22743,241.33942c0.01553,-2.76393 2.24953,-4.9252 4.98975,-4.82731c2.74022,0.09788 4.94902,2.41783 4.93349,5.18178c-0.01553,2.76394 -2.24953,4.9252 -4.98975,4.82731c-2.74022,-0.09788 -4.94901,-2.41783 -4.93348,-5.18178z" fill="#ffffff"/><path d="M427.13435,242.32856c0.01159,-2.06253 1.67866,-3.67533 3.7235,-3.6023c2.04487,0.07304 3.69315,1.80427 3.68155,3.86681c-0.01156,2.06253 -1.67866,3.67533 -3.7235,3.6023c-2.04485,-0.07306 -3.69314,-1.80429 -3.68154,-3.86683z" fill="#000000"/></g><path d="" fill="#ffffff" stroke="#33943a" stroke-width="0" stroke-linecap="butt"/><path d="M433.93456,255.34818c0,0 1.38132,-2.38673 2.34607,-3.33393c0.76294,-0.74908 2.98038,-1.89564 2.98038,-1.89564l-0.11018,6.66084z" fill="#ffffff" stroke="#33943a" stroke-width="0" stroke-linecap="butt"/><path d="M440.18273,256.9335c-4.59462,-0.31759 -8.38041,-2.30218 -8.38041,-2.30218" fill="none" stroke="#000000" stroke-width="1" stroke-linecap="round"/><g stroke="none" stroke-width="1" stroke-linecap="butt" font-family="Sans Serif" font-weight="normal" font-size="40" text-anchor="start"><text transform="translate(313.42126,179.65123) scale(0.69855,1.03553)" font-size="40" xml:space="preserve" fill="#000000"><tspan x="0" dy="0">II</tspan></text><text transform="translate(311.52315,176.83752) scale(0.69855,1.03553)" font-size="40" xml:space="preserve" fill="#ffffff"><tspan x="0" dy="0">II</tspan></text></g><path d="M197.39637,261.60857c-1.07642,-41.25882 0,-131.14057 0,-155.33223c0,-13.1931 6.22343,-24.07649 19.41653,-24.07649c27.26291,0 154.95863,0 206.59187,0c14.06611,0 21.74651,10.01039 21.74651,24.0765c0,23.31735 0,107.64932 0,150.67226c0,14.34355 -6.6263,25.62982 -20.96984,25.62982c-27.77791,0 -152.5793,0 -204.26189,0c-13.90979,0 -22.09022,-4.37507 -22.52317,-20.96985z" fill="none" stroke="#ececec" stroke-width="10" stroke-linecap="butt"/><g stroke-linecap="butt"><g><text transform="translate(264.05162,133.70653) rotate(7.79395) scale(0.65957,0.65957)" font-size="40" xml:space="preserve" fill="#00ff06" stroke="#00ff06" stroke-width="1" font-family="Sans Serif" font-weight="normal" text-anchor="start"><tspan x="0" dy="0">B</tspan></text><text transform="translate(317.8887,140.06141) rotate(4.98761) scale(0.65957,0.65957)" font-size="40" xml:space="preserve" fill="#d300ff" stroke="#d300ff" stroke-width="1" font-family="Sans Serif" font-weight="normal" text-anchor="start"><tspan x="0" dy="0">B</tspan></text><text transform="translate(356.23714,136.9662) rotate(-8.64249) scale(0.61868,0.61868)" font-size="40" xml:space="preserve" fill="#ff8400" stroke="#ff8400" stroke-width="1" font-family="Sans Serif" font-weight="normal" text-anchor="start"><tspan x="0" dy="0">N</tspan></text><g stroke="#ff0000"><text transform="translate(300.56277,137.99459) rotate(-3.06638) scale(0.65958,0.57563) skewX(-0.00055)" font-size="40" xml:space="preserve" fill="#ff0000" stroke-width="2" font-family="Sans Serif" font-weight="normal" text-anchor="start"><tspan x="0" dy="0">N</tspan></text><path d="M314.6222,119.94508c0,0 0.97097,-3.7466 1.20218,-4.63881c0.07244,-0.27954 0.41216,-0.1939 0.51404,0.0763c0.33532,0.88919 1.65251,4.38205 1.65251,4.38205z" fill="#ffb36b" stroke-width="0.5"/><path d="M301.91443,120.62584c0,0 1.05159,-3.75094 1.302,-4.64415c0.07845,-0.27986 0.44123,-0.19546 0.54914,0.07441c0.35512,0.88814 1.75005,4.37683 1.75005,4.37683z" fill="#ffb36b" stroke-width="0.5"/></g><g stroke="#ffffff"><text transform="translate(281.0974,138.86389) scale(0.65957,0.65957)" font-size="40" xml:space="preserve" fill="#ffffff" stroke-width="1" font-family="Sans Serif" font-weight="normal" text-anchor="start"><tspan x="0" dy="0">A</tspan></text><g stroke-width="0.5"><path d="M287.79435,118.54444c0.33396,-0.88927 0.74252,-1.9772 0.90026,-2.39726c0.12823,-0.34145 0.494,-0.35402 0.69399,-0.04901c0.44582,0.67993 1.17098,1.65556 1.79321,1.88922c0.65966,0.24773 2.08827,0.00012 2.9565,-0.1895c0.3892,-0.08501 0.55437,0.25917 0.41432,0.63211c-0.35874,0.95525 -0.93216,2.48217 -1.1185,2.9784c-0.13109,0.34903 -0.51687,0.26312 -0.74157,-0.03441c-0.51414,-0.68082 -1.3241,-1.65094 -1.91363,-1.87235c-0.66594,-0.2501 -1.93844,-0.02517 -2.74532,0.16223c-0.43236,0.10041 -0.23926,-1.11944 -0.23926,-1.11944z" fill="#ff88f7"/><path d="M290.11666,119.49943l0.68202,-1.81609l1.23496,0.46376l-0.68202,1.8161z" fill="#c17266"/></g></g><g><text transform="translate(337.94204,137.62648) rotate(-3.85932) scale(0.65957,0.58336) skewX(0.00005)" font-size="40" xml:space="preserve" fill="#5600ff" stroke="#5600ff" stroke-width="2" font-family="Sans Serif" font-weight="normal" text-anchor="start"><tspan x="0" dy="0">A</tspan></text><path d="M341.67241,133.46374c0,0 0.75056,-0.51827 0.91456,-0.80275c0.32772,-0.56846 0.46938,-1.16995 1.18418,-1.21817c0.30798,-0.02078 0.94617,0.49301 0.96487,0.77016c0.0187,0.27716 -0.78003,1.14311 -1.20727,1.20053c-0.5706,0.07669 -1.85636,0.05022 -1.85636,0.05022z" fill="#ffffff" stroke="none" stroke-width="0"/><path d="M348.99695,133.11423c-0.43107,0.00049 -1.33887,-0.75035 -1.35756,-1.0275c-0.0187,-0.27716 0.5447,-0.87201 0.85268,-0.89278c0.7148,-0.04822 0.93597,0.52879 1.33706,1.04808c0.20073,0.25988 1.0141,0.67264 1.0141,0.67264c0,0 -1.27055,0.19892 -1.84627,0.19957z" fill="#ffffff" stroke="none" stroke-width="0"/></g></g><g stroke="none" stroke-width="1" font-family="Sans Serif" font-weight="normal" font-size="40" text-anchor="start"><text transform="translate(258.38886,111.95577) scale(0.60468,0.60468)" font-size="40" xml:space="preserve" fill="#000000"><tspan x="0" dy="0">GARTEN OF</tspan></text><text transform="translate(256.7458,110.31271) scale(0.60468,0.60468)" font-size="40" xml:space="preserve" fill="#ffffff"><tspan x="0" dy="0">GARTEN OF</tspan></text></g></g><g stroke="none" stroke-linecap="butt"><path d="M260.3174,274.58847v-28.36401h126.4562v28.36401z" fill="url(#color-17)" stroke-width="0"/><path d="M379.6826,260.40647c0,9.79063 -25.398,17.7275 -56.72801,17.7275c-31.33002,0 -56.72801,-7.93687 -56.72801,-17.7275c0,-9.79063 25.398,-17.7275 56.72801,-17.7275c31.33002,0 56.72801,7.93687 56.72801,17.7275z" fill="url(#color-18)" stroke-width="0"/><g stroke-width="1" font-weight="normal" font-size="40" text-anchor="start"><text transform="translate(265.8688,272.22506) rotate(-4.86308) scale(0.93884,0.75408) skewX(-0.00012)" font-size="40" xml:space="preserve" fill="#ff0000" font-family="&quot;ヒラギノ角ゴ Pro W3&quot;, &quot;Hiragino Kaku Gothic Pro&quot;, Osaka, &quot;メイリオ&quot;, Meiryo, &quot;ＭＳ Ｐゴシック&quot;, &quot;MS PGothic&quot;"><tspan x="0" dy="0">P</tspan></text><text transform="translate(290.54588,269.03148) rotate(-10.14358) scale(0.68353,0.68353)" font-size="40" xml:space="preserve" fill="#d66e00" font-family="Sans Serif"><tspan x="0" dy="0">O</tspan></text><text transform="translate(308.14289,263.20352) rotate(3.73445) scale(0.68353,0.68353)" font-size="40" xml:space="preserve" fill="#00ff06" font-family="Sans Serif"><tspan x="0" dy="0">C</tspan></text><text transform="translate(327.9038,266.87577) rotate(-2.74627) scale(0.68353,0.68353)" font-size="40" xml:space="preserve" fill="#5600ff" font-family="Sans Serif"><tspan x="0" dy="0">K</tspan></text><text transform="translate(347.17557,271.38602) rotate(-5.43823) scale(0.68353,0.68353)" font-size="40" xml:space="preserve" fill="#d300ff" font-family="Sans Serif"><tspan x="0" dy="0">E</tspan></text><text transform="translate(365.44079,274.7528) rotate(-11.40216) scale(0.68353,0.68353)" font-size="40" xml:space="preserve" fill="#ffffff" font-family="Sans Serif"><tspan x="0" dy="0">T</tspan></text></g></g></g></g></svg>