<svg version="1.1" xmlns="http://www.w3.org/2000/svg" xmlns:xlink="http://www.w3.org/1999/xlink" width="40.06038" height="83.34076" viewBox="0,0,40.06038,83.34076"><g transform="translate(-216.21766,-144.74332)"><g data-paper-data="{&quot;isPaintingLayer&quot;:true}" fill-rule="nonzero" stroke="none" stroke-width="0" stroke-linecap="butt" stroke-linejoin="miter" stroke-miterlimit="10" stroke-dasharray="" stroke-dashoffset="0" style="mix-blend-mode: normal"><g data-paper-data="{&quot;index&quot;:null}"><path d="M247.22199,171.00713c-0.67379,0.34444 -3.00107,-3.03796 -4.80952,-4.52478c-1.91182,-1.57181 -2.88459,-2.8535 -2.06777,-4.75386c0.23497,-0.54668 -8.10423,-6.20721 -7.55281,-6.87792c0.78814,-0.95863 2.05759,-8.11303 3.47862,-8.00599c3.02932,0.22819 6.80513,9.14653 8.48085,10.52424c1.46937,1.20805 6.61653,1.97335 6.32896,3.9784c-0.09951,0.69385 -0.32849,2.18395 -0.68623,3.38657c-0.18549,0.62359 -0.0958,2.22322 -0.79037,2.89826c-0.58027,0.56397 -1.70576,0.12488 -1.92661,0.3935c-0.65505,0.79675 0.62096,2.56743 -0.45512,2.98159z" data-paper-data="{&quot;index&quot;:null}" fill="#f2a685"/><path d="M248.17525,163.80762l1.87121,2.26723c0,0 -0.15402,1.23233 -0.3866,1.53526c-0.18544,0.24153 -1.0979,0.15955 -1.0979,0.15955l-0.7986,-3.57187z" data-paper-data="{&quot;index&quot;:null}" fill="#d0735b"/></g><path d="" fill="#f0a787"/><path d="" fill="#000000"/><g><path d="M226.65458,228.08329c-1.14755,0.00458 -0.73116,-1.63772 -1.65712,-2.02908c-0.31219,-0.13196 -1.14823,0.50412 -1.90925,0.26005c-0.91095,-0.29212 -1.4976,-1.47513 -1.92596,-1.87396c-0.82614,-0.76919 -1.65569,-1.78281 -2.03553,-2.25681c-1.09763,-1.36974 3.24469,-3.37917 4.07112,-4.66897c0.9425,-1.47093 0.63863,-8.99294 3.28703,-10.01476c1.24235,-0.47933 5.3793,4.33934 6.49339,4.81023c0.77947,0.32945 -4.41001,6.78426 -3.96894,7.11346c1.53326,1.1443 1.18736,2.34697 0.11208,4.02512c-1.01714,1.58744 -1.71275,4.69342 -2.46682,4.6347z" data-paper-data="{&quot;index&quot;:null}" fill="#f2a685"/><path d="M223.32111,223.30842l0.76806,2.81082c0,0 -0.7922,0.31737 -1.061,0.19502c-0.33714,-0.15346 -0.99117,-1.00174 -0.99117,-1.00174l0.74815,-2.16997z" data-paper-data="{&quot;index&quot;:null}" fill="#d0735b"/></g><g><path d="M236.03668,165.99585c-5.86873,0 -11.75223,-4.19456 -11.75223,-10.06328c0,-5.86873 5.8835,-11.18925 11.75223,-11.18925c5.86873,0 10.62626,4.75754 10.62626,10.62626c0,5.86873 -4.75754,10.62626 -10.62626,10.62626z" fill="#376fac"/><path d="M230.03668,215.05673c-5.86873,0 -9.15968,-7.69841 -9.15968,-13.56712c0,-5.86872 3.29095,-7.6854 9.15968,-7.6854c5.86873,0 10.62626,4.75754 10.62626,10.62626c0,5.86872 -4.75754,10.62626 -10.62626,10.62626z" fill="#376fac"/><path d="M231.77,211.5973c-10.61777,-0.15099 -15.55234,-14.33357 -15.55234,-31.66767c0,-17.33411 3.51465,-31.41055 15.4116,-31.38618c10.05443,0.0206 15.4116,14.05207 15.4116,31.38618c0,17.33411 -2.95315,31.84284 -15.27085,31.66767z" fill="#4f9ee3"/><path d="M237.57251,193.80083c-1.17914,0.03138 -2.28458,-0.83722 -3.31934,-0.91372c-9.40584,-0.69543 -12.97191,-4.87365 -12.97191,-11.8589c0,-6.42226 1.59585,-11.34677 10.23946,-12.98201c1.79198,-0.33902 3.88688,-1.07544 6.33328,-1.05731c8.86287,0.06567 16.57275,6.28562 16.57275,14.03934c0,7.75371 -7.70461,12.52909 -16.85424,12.77263z" fill="#f0a787"/><path d="M253.52952,182.55888c-1.16597,0 -2.11118,-0.94521 -2.11118,-2.11118c0,-1.16597 0.94521,-2.11118 2.11118,-2.11118c1.16597,0 2.63898,0.73408 2.74453,2.00562c0.09646,1.16197 -1.57857,2.21674 -2.74453,2.21674z" fill="#f0a787"/><path d="M234.5817,193.53694c-9.28276,0 -13.77544,-4.64083 -13.77544,-11.92816c0,-3.97536 0.04282,-8.1649 2.95564,-11.00415c2.63666,-2.57007 7.73612,-2.87249 11.34759,-3.35186c0.50754,-0.06738 3.67276,-0.71128 5.93437,0.57982c1.99467,1.13871 3.14577,4.22813 3.14577,4.22813c0,0 0.23964,-2.10482 1.32501,-1.33522c1.5621,1.10763 0.37794,2.63823 0.37794,2.63823c0,0 0.9901,-1.80735 1.68503,-1.03805c0.86012,0.95216 -0.41492,3.09566 -0.41492,3.09566l2.25003,-1.30724c0,0 1.1092,5.23659 -2.64449,12.66389c-0.94983,1.8794 -4.43819,4.55979 -4.43819,4.55979c0,0 1.67186,1.39012 0.06508,1.93782c-2.56898,1.07965 -6.52146,0.26133 -7.81342,0.26133z" fill="#000000"/></g></g></g></svg>