<svg version="1.1" xmlns="http://www.w3.org/2000/svg" xmlns:xlink="http://www.w3.org/1999/xlink" width="202" height="178" viewBox="0,0,202,178"><g transform="translate(-139,-91)"><g data-paper-data="{&quot;isPaintingLayer&quot;:true}" fill-rule="nonzero" stroke-width="0" stroke-linecap="butt" stroke-linejoin="miter" stroke-miterlimit="10" stroke-dasharray="" stroke-dashoffset="0" style="mix-blend-mode: normal"><path d="M139,269v-178h202v178z" fill="none" stroke="none"/><path d="M296.40252,240.64041h-107.93772v-121.38236h107.93773z" data-paper-data="{&quot;index&quot;:null}" fill="#bfbb41" stroke="none"/><path d="M188.42147,240.41687v-92.43175h11.93004v92.43175z" fill="#a59f00" stroke="#000000"/><path d="M188.32594,158.32454v-10.24498h107.97722v10.24498z" fill="#a59f00" stroke="none"/><path d="M285.93327,240.13764v-92.20484h10.30046v92.20484z" fill="#a59f00" stroke="none"/><path d="M188.32594,241.07247v-5.51653h107.97722v5.51653z" fill="#a59f00" stroke="none"/><path d="M190.81226,200.48658v-3.1523h99.80789v3.1523z" fill="#a59f00" stroke="#000000"/><path d="M296.27384,150.96129h-107.49354v-33.21587h107.49354z" data-paper-data="{&quot;index&quot;:null}" fill="#d3ce48" stroke="none"/><path d="M235.53345,238.56149v-82.74793h13.39729v82.74793z" fill="#9b9600" stroke="#000000"/><path d="M242.43307,215.20426l-16.98898,-16.98898l16.98898,-16.98897l16.98898,16.98897z" fill="#a59f00" stroke="none"/><path d="M232.01202,194.43433c1.1087,-0.76993 3.13009,-2.17366 4.83846,-3.36003c1.62722,-1.13001 2.97044,0.03327 2.97044,2.51263c0,2.47291 0,5.32711 0,6.86316c0,2.07983 -1.81087,3.92122 -3.81839,2.47134c-1.70874,-1.23409 -3.55995,-2.57107 -4.5582,-3.29203c-1.3809,-0.99732 -0.97318,-4.12501 0.56769,-5.19506z" fill="#bcbcbc" stroke="#000000"/><path d="M252.28023,199.6294c-0.99825,0.72096 -2.84946,2.05794 -4.5582,3.29203c-2.00752,1.44987 -3.81839,-0.39152 -3.81839,-2.47134c0,-1.53605 0,-4.39025 0,-6.86316c0,-2.47936 1.34322,-3.64264 2.97044,-2.51263c1.70836,1.18637 3.72975,2.5901 4.83846,3.36003c1.54088,1.07005 1.94859,4.19775 0.56769,5.19506z" data-paper-data="{&quot;index&quot;:null}" fill="#bcbcbc" stroke="#000000"/></g></g></svg>