<svg version="1.1" xmlns="http://www.w3.org/2000/svg" xmlns:xlink="http://www.w3.org/1999/xlink" width="261.26126" height="282.27363" viewBox="0,0,261.26126,282.27363"><g transform="translate(-125.1352,-23.84817)"><g data-paper-data="{&quot;isPaintingLayer&quot;:true}" fill-rule="nonzero" stroke-width="0" stroke-linecap="butt" stroke-linejoin="miter" stroke-miterlimit="10" stroke-dasharray="" stroke-dashoffset="0" style="mix-blend-mode: normal"><path d="M125.13521,306.1218v-282.27363h261.26126v282.27363z" fill="none" stroke="#000000"/><g fill="#000000" stroke="#000000"><g><path d="M187.13208,161.82264c0,-6.20939 5.0337,-11.24308 11.24308,-11.24308c6.20939,0 11.24308,5.03369 11.24308,11.24308c0,6.20939 -5.03369,11.24308 -11.24308,11.24308c-6.20939,0 -11.24308,-5.03369 -11.24308,-11.24308zM198.5405,168.93224c4.10915,0 7.44027,-3.33112 7.44027,-7.44027c0,-4.10915 -3.33112,-7.44027 -7.44027,-7.44027c-4.10915,0 -7.44027,3.33112 -7.44027,7.44027c0,4.10915 3.33112,7.44027 7.44027,7.44027z"/><path d="M211.53618,162.31866c0,-6.20939 5.0337,-11.24308 11.24308,-11.24308c6.20939,0 11.24308,5.03369 11.24308,11.24308c0,6.20939 -5.03369,11.24308 -11.24308,11.24308c-6.20939,0 -11.24308,-5.03369 -11.24308,-11.24308zM222.94459,169.42826c4.10915,0 7.44027,-3.33112 7.44027,-7.44027c0,-4.10915 -3.33112,-7.44027 -7.44027,-7.44027c-4.10915,0 -7.44027,3.33112 -7.44027,7.44027c0,4.10915 3.33112,7.44027 7.44027,7.44027z"/><path d="M211.43697,137.31933c0,-6.20939 5.0337,-11.24308 11.24308,-11.24308c6.20939,0 11.24308,5.03369 11.24308,11.24308c0,6.20939 -5.03369,11.24308 -11.24308,11.24308c-6.20939,0 -11.24308,-5.03369 -11.24308,-11.24308zM222.84539,144.42894c4.10915,0 7.44027,-3.33112 7.44027,-7.44027c0,-4.10915 -3.33112,-7.44027 -7.44027,-7.44027c-4.10915,0 -7.44027,3.33112 -7.44027,7.44027c0,4.10915 3.33112,7.44027 7.44027,7.44027z"/><path d="M187.13208,137.61695c0,-6.20939 5.0337,-11.24308 11.24308,-11.24308c6.20939,0 11.24308,5.03369 11.24308,11.24308c0,6.20939 -5.03369,11.24308 -11.24308,11.24308c-6.20939,0 -11.24308,-5.03369 -11.24308,-11.24308zM198.5405,144.72655c4.10915,0 7.44027,-3.33112 7.44027,-7.44027c0,-4.10915 -3.33112,-7.44027 -7.44027,-7.44027c-4.10915,0 -7.44027,3.33112 -7.44027,7.44027c0,4.10915 3.33112,7.44027 7.44027,7.44027z"/><path d="M187.13208,137.61695c0,-6.20939 5.0337,-11.24308 11.24308,-11.24308c6.20939,0 11.24308,5.03369 11.24308,11.24308c0,6.20939 -5.03369,11.24308 -11.24308,11.24308c-6.20939,0 -11.24308,-5.03369 -11.24308,-11.24308zM198.5405,144.72655c4.10915,0 7.44027,-3.33112 7.44027,-7.44027c0,-4.10915 -3.33112,-7.44027 -7.44027,-7.44027c-4.10915,0 -7.44027,3.33112 -7.44027,7.44027c0,4.10915 3.33112,7.44027 7.44027,7.44027z"/></g><path d="M206.19571,149.819c0,-2.41984 1.96166,-4.38149 4.38149,-4.38149c2.41984,0 4.38149,1.96166 4.38149,4.38149c0,2.41984 -1.96166,4.38149 -4.38149,4.38149c-2.41984,0 -4.38149,-1.96166 -4.38149,-4.38149z"/></g><g fill="#ff4d4d"><path d="M187.26434,135.76513c0,-6.20939 5.0337,-11.24308 11.24308,-11.24308c6.20939,0 11.24308,5.03369 11.24308,11.24308c0,6.20939 -5.03369,11.24308 -11.24308,11.24308c-6.20939,0 -11.24308,-5.03369 -11.24308,-11.24308zM198.67276,142.87474c4.10915,0 7.44027,-3.33112 7.44027,-7.44027c0,-4.10915 -3.33112,-7.44027 -7.44027,-7.44027c-4.10915,0 -7.44027,3.33112 -7.44027,7.44027c0,4.10915 3.33112,7.44027 7.44027,7.44027z" stroke="#000000"/><path d="M211.56923,135.76513c0,-6.20939 5.0337,-11.24308 11.24308,-11.24308c6.20939,0 11.24308,5.03369 11.24308,11.24308c0,6.20939 -5.03369,11.24308 -11.24308,11.24308c-6.20939,0 -11.24308,-5.03369 -11.24308,-11.24308zM222.97764,142.87474c4.10915,0 7.44027,-3.33112 7.44027,-7.44027c0,-4.10915 -3.33112,-7.44027 -7.44027,-7.44027c-4.10915,0 -7.44027,3.33112 -7.44027,7.44027c0,4.10915 3.33112,7.44027 7.44027,7.44027z" stroke="#000000"/><path d="M187.26434,160.07004c0,-6.20939 5.0337,-11.24308 11.24308,-11.24308c6.20939,0 11.24308,5.03369 11.24308,11.24308c0,6.20939 -5.03369,11.24308 -11.24308,11.24308c-6.20939,0 -11.24308,-5.03369 -11.24308,-11.24308zM198.67276,167.17963c4.10915,0 7.44027,-3.33112 7.44027,-7.44027c0,-4.10915 -3.33112,-7.44027 -7.44027,-7.44027c-4.10915,0 -7.44027,3.33112 -7.44027,7.44027c0,4.10915 3.33112,7.44027 7.44027,7.44027z" stroke="#000000"/><path d="M211.56923,160.23537c0,-6.20939 5.0337,-11.24308 11.24308,-11.24308c6.20939,0 11.24308,5.03369 11.24308,11.24308c0,6.20939 -5.03369,11.24308 -11.24308,11.24308c-6.20939,0 -11.24308,-5.03369 -11.24308,-11.24308zM222.97764,167.34497c4.10915,0 7.44027,-3.33112 7.44027,-7.44027c0,-4.10915 -3.33112,-7.44027 -7.44027,-7.44027c-4.10915,0 -7.44027,3.33112 -7.44027,7.44027c0,4.10915 3.33112,7.44027 7.44027,7.44027z" stroke="#000000"/><path d="M206.19571,148.33094c0,-2.41984 1.96166,-4.38149 4.38149,-4.38149c2.41984,0 4.38149,1.96166 4.38149,4.38149c0,2.41984 -1.96166,4.38149 -4.38149,4.38149c-2.41984,0 -4.38149,-1.96166 -4.38149,-4.38149z" stroke="#000000"/><path d="M210.21423,154.85478v-13.52777h1.01458v13.52777z" stroke="#000000"/><path d="M204.12674,148.65455v-1.12731h13.30231v1.12731z" stroke="none"/><g stroke="none"><path d="M210.23497,143.13601l-2.78709,-4.2387l0.94193,-0.61935l2.78709,4.2387z"/><path d="M210.15343,142.62938l2.78709,-4.2387l0.94193,0.61935l-2.78709,4.2387z" data-paper-data="{&quot;index&quot;:null}"/></g><g data-paper-data="{&quot;index&quot;:null}" stroke="none"><path d="M211.24776,153.39457l-2.78709,4.2387l-0.94193,-0.61935l2.78709,-4.2387z"/><path d="M211.16622,152.66249l2.78709,4.2387l-0.94193,0.61935l-2.78709,-4.2387z" data-paper-data="{&quot;index&quot;:null}"/></g><g data-paper-data="{&quot;index&quot;:null}" stroke="none"><path d="M215.92696,147.62102l4.2387,2.78709l-0.61935,0.94193l-4.2387,-2.78709z"/><path d="M215.19487,147.70256l4.2387,-2.78709l0.61935,0.94193l-4.2387,2.78709z" data-paper-data="{&quot;index&quot;:null}"/></g><g data-paper-data="{&quot;index&quot;:null}" stroke="none"><path d="M206.0227,148.42124l-4.2387,2.78709l-0.61935,-0.94193l4.2387,-2.78709z"/><path d="M205.51609,148.50277l-4.2387,-2.78709l0.61935,-0.94193l4.2387,2.78709z" data-paper-data="{&quot;index&quot;:null}"/></g><g><path d="M203.47671,141.70307l-5.56799,-5.36177l1.20366,-1.24996l5.56799,5.36177z" stroke="#000000"/><path d="M196.67182,135.75766c0,-1.25242 1.01528,-2.2677 2.26769,-2.2677c1.25242,0 2.2677,1.01529 2.2677,2.2677c0,1.25242 -1.01529,2.2677 -2.2677,2.2677c-1.25242,0 -2.26769,-1.01529 -2.26769,-2.2677z" stroke="#000000"/><path d="M204.77073,135.43371c0,0.32205 -1.13132,0.58313 -2.52685,0.58313c-1.39554,0 -2.52685,-0.26108 -2.52685,-0.58313c0,-0.32205 1.13132,-0.58312 2.52685,-0.58312c1.39554,0 2.52685,0.26107 2.52685,0.58312z" stroke="none"/><path d="M198.03243,135.62808c0,0.32205 -1.13132,0.58313 -2.52685,0.58313c-1.39554,0 -2.52685,-0.26108 -2.52685,-0.58313c0,-0.32205 1.13132,-0.58313 2.52685,-0.58313c1.39554,0 2.52685,0.26108 2.52685,0.58313z" stroke="none"/><path d="M198.93952,130.12081c0.32205,0 0.58313,1.13132 0.58313,2.52685c0,1.39554 -0.26108,2.52685 -0.58313,2.52685c-0.32205,0 -0.58312,-1.13132 -0.58312,-2.52685c0,-1.39554 0.26107,-2.52685 0.58312,-2.52685z" stroke="none"/><path d="M198.93952,135.82246c0.32205,0 0.58313,1.13132 0.58313,2.52685c0,1.39554 -0.26108,2.52685 -0.58313,2.52685c-0.32205,0 -0.58312,-1.13132 -0.58312,-2.52685c0,-1.39554 0.26107,-2.52685 0.58312,-2.52685z" stroke="none"/></g><g data-paper-data="{&quot;index&quot;:null}"><path d="M217.1614,140.36453l5.56799,-5.36177l1.20365,1.24996l-5.56799,5.36177z" stroke="#000000"/><path d="M222.90222,137.93678c-1.25242,0 -2.2677,-1.01529 -2.2677,-2.2677c0,-1.25242 1.01529,-2.2677 2.2677,-2.2677c1.25242,0 2.2677,1.01529 2.2677,2.2677c0,1.25242 -1.01529,2.2677 -2.2677,2.2677z" stroke="#000000"/><path d="M219.59788,134.76201c1.39554,0 2.52686,0.26108 2.52686,0.58313c0,0.32205 -1.13132,0.58313 -2.52686,0.58313c-1.39554,0 -2.52685,-0.26108 -2.52685,-0.58313c0,-0.32205 1.13132,-0.58313 2.52685,-0.58313z" stroke="none"/><path d="M226.33616,134.95637c1.39554,0 2.52685,0.26108 2.52685,0.58313c0,0.32205 -1.13132,0.58313 -2.52685,0.58313c-1.39554,0 -2.52685,-0.26108 -2.52685,-0.58313c0,-0.32205 1.13132,-0.58313 2.52685,-0.58313z" stroke="none"/><path d="M223.48536,132.55911c0,1.39554 -0.26108,2.52685 -0.58313,2.52685c-0.32205,0 -0.58313,-1.13132 -0.58313,-2.52685c0,-1.39554 0.26108,-2.52685 0.58313,-2.52685c0.32205,0 0.58313,1.13132 0.58313,2.52685z" stroke="none"/><path d="M223.48536,138.26073c0,1.39554 -0.26108,2.52685 -0.58313,2.52685c-0.32205,0 -0.58313,-1.13132 -0.58313,-2.52685c0,-1.39554 0.26108,-2.52686 0.58313,-2.52686c0.32205,0 0.58313,1.13132 0.58313,2.52686z" stroke="none"/></g><g data-paper-data="{&quot;index&quot;:null}"><path d="M218.27649,153.50455l5.56799,5.36177l-1.20366,1.24996l-5.56799,-5.36177z" stroke="#000000"/><path d="M225.08134,159.44994c0,1.25242 -1.01529,2.2677 -2.2677,2.2677c-1.25242,0 -2.2677,-1.01529 -2.2677,-2.2677c0,-1.25242 1.01529,-2.2677 2.2677,-2.2677c1.25242,0 2.2677,1.01529 2.2677,2.2677z" stroke="#000000"/><path d="M216.98246,159.7739c0,-0.32205 1.13132,-0.58313 2.52685,-0.58313c1.39554,0 2.52685,0.26108 2.52685,0.58313c0,0.32205 -1.13132,0.58313 -2.52685,0.58313c-1.39554,0 -2.52685,-0.26108 -2.52685,-0.58313z" stroke="none"/><path d="M223.72075,159.57953c0,-0.32205 1.13132,-0.58313 2.52685,-0.58313c1.39554,0 2.52686,0.26108 2.52686,0.58313c0,0.32205 -1.13132,0.58313 -2.52686,0.58313c-1.39554,0 -2.52685,-0.26108 -2.52685,-0.58313z" stroke="none"/><path d="M222.81368,165.08679c-0.32205,0 -0.58313,-1.13132 -0.58313,-2.52685c0,-1.39554 0.26108,-2.52685 0.58313,-2.52685c0.32205,0 0.58313,1.13132 0.58313,2.52685c0,1.39554 -0.26108,2.52685 -0.58313,2.52685z" stroke="none"/><path d="M222.81368,159.38515c-0.32205,0 -0.58313,-1.13132 -0.58313,-2.52685c0,-1.39554 0.26108,-2.52685 0.58313,-2.52685c0.32205,0 0.58313,1.13132 0.58313,2.52685c0,1.39554 -0.26108,2.52685 -0.58313,2.52685z" stroke="none"/></g><g data-paper-data="{&quot;index&quot;:null}"><path d="M204.94607,155.1088l-5.56799,5.36177l-1.20366,-1.24996l5.56799,-5.36177z" stroke="#000000"/><path d="M199.20524,157.53655c1.25242,0 2.2677,1.01529 2.2677,2.2677c0,1.25242 -1.01529,2.2677 -2.2677,2.2677c-1.25242,0 -2.2677,-1.01529 -2.2677,-2.2677c0,-1.25242 1.01529,-2.2677 2.2677,-2.2677z" stroke="#000000"/><path d="M202.5096,160.71132c-1.39554,0 -2.52685,-0.26108 -2.52685,-0.58313c0,-0.32205 1.13132,-0.58313 2.52685,-0.58313c1.39554,0 2.52685,0.26108 2.52685,0.58313c0,0.32205 -1.13132,0.58313 -2.52685,0.58313z" stroke="none"/><path d="M195.77131,160.51696c-1.39554,0 -2.52685,-0.26108 -2.52685,-0.58313c0,-0.32205 1.13132,-0.58313 2.52685,-0.58313c1.39554,0 2.52685,0.26108 2.52685,0.58313c0,0.32205 -1.13132,0.58313 -2.52685,0.58313z" stroke="none"/><path d="M198.62212,162.91422c0,-1.39554 0.26108,-2.52685 0.58313,-2.52685c0.32205,0 0.58313,1.13132 0.58313,2.52685c0,1.39554 -0.26108,2.52685 -0.58313,2.52685c-0.32205,0 -0.58313,-1.13132 -0.58313,-2.52685z" stroke="none"/><path d="M198.62212,157.21259c0,-1.39554 0.26108,-2.52685 0.58313,-2.52685c0.32205,0 0.58313,1.13132 0.58313,2.52685c0,1.39554 -0.26108,2.52686 -0.58313,2.52686c-0.32205,0 -0.58313,-1.13132 -0.58313,-2.52686z" stroke="none"/></g></g></g></g></svg>