<svg version="1.1" xmlns="http://www.w3.org/2000/svg" xmlns:xlink="http://www.w3.org/1999/xlink" width="70.16667" height="70.16667" viewBox="0,0,70.16667,70.16667"><g transform="translate(-204.91671,-144.91669)"><g data-paper-data="{&quot;isPaintingLayer&quot;:true}" fill-rule="nonzero" stroke-linecap="butt" stroke-linejoin="miter" stroke-miterlimit="10" stroke-dasharray="" stroke-dashoffset="0" style="mix-blend-mode: normal"><g stroke="#ffffff" stroke-width="2"><path d="M235.07556,188.63182c-0.78595,-0.95885 -4.32264,-5.27362 -5.62946,-6.86794c-0.41924,-0.51147 -0.4873,-0.9301 -0.4873,-1.59144c0,-2.21948 0,-7.47393 0,-8.76032c0,-0.64953 0.37972,-1.11396 1.02925,-1.11396c1.49581,0 8.68006,0 11.51065,0c0.69891,0 1.1498,0.41505 1.1498,1.11396c0,2.01235 0,13.39339 0,16.90945c0,0.63854 -0.40939,1.03477 -1.04793,1.03477c-0.82253,0 -3.41919,0 -4.88948,0c-0.62142,0 -1.63551,-0.72451 -1.63551,-0.72451zM232.22906,174.21556c0.81695,0 1.47921,-0.66226 1.47921,-1.47921c0,-0.81695 -0.66227,-1.47921 -1.47921,-1.47921c-0.81695,0 -1.4792,0.66226 -1.4792,1.47921c0,0.81695 0.66226,1.47921 1.4792,1.47921zM232.22906,178.29013c0.81695,0 1.47921,-0.66226 1.47921,-1.47921c0,-0.81695 -0.66227,-1.47921 -1.47921,-1.47921c-0.81695,0 -1.4792,0.66226 -1.4792,1.47921c0,0.81695 0.66226,1.47921 1.4792,1.47921z" fill="#396ea9"/><path d="M235.07556,187.40946c-0.78595,-0.95885 -4.32264,-5.27362 -5.62946,-6.86795c-0.41924,-0.51147 -0.4873,-0.9301 -0.4873,-1.59143c0,-2.21948 0,-7.47393 0,-8.76032c0,-0.64953 0.37972,-1.11396 1.02925,-1.11396c1.49581,0 8.68006,0 11.51065,0c0.69891,0 1.1498,0.41505 1.1498,1.11396c0,2.01235 0,13.39339 0,16.90945c0,0.63854 -0.40939,1.03477 -1.04793,1.03477c-0.82253,0 -3.41919,0 -4.88948,0c-0.62142,0 -1.63551,-0.72452 -1.63551,-0.72452zM232.22906,173.90997c0.81695,0 1.47921,-0.66226 1.47921,-1.47921c0,-0.81695 -0.66227,-1.4792 -1.47921,-1.4792c-0.81695,0 -1.4792,0.66226 -1.4792,1.4792c0,0.81695 0.66226,1.47921 1.4792,1.47921zM232.22906,177.88267c0.81695,0 1.47921,-0.66226 1.47921,-1.4792c0,-0.81695 -0.66227,-1.47921 -1.47921,-1.47921c-0.81695,0 -1.4792,0.66227 -1.4792,1.47921c0,0.81695 0.66226,1.4792 1.4792,1.4792z" fill="#4585cc"/><path d="M237.93345,188.11784v-19.0486h2.64847v19.0486z" fill="#52b4f2"/><path d="M237.90409,189.28048v-1.24148h2.71941v1.24148z" fill="#4598cb"/></g><path d="M204.91672,215.08337v-70.16667h70.16667v70.16667z" fill="none" stroke="none" stroke-width="0"/><g stroke-width="0"><path d="M235.07556,188.63182c-0.78595,-0.95885 -4.32264,-5.27362 -5.62946,-6.86794c-0.41924,-0.51147 -0.4873,-0.9301 -0.4873,-1.59144c0,-2.21948 0,-7.47393 0,-8.76032c0,-0.64953 0.37972,-1.11396 1.02925,-1.11396c1.49581,0 8.68006,0 11.51065,0c0.69891,0 1.1498,0.41505 1.1498,1.11396c0,2.01235 0,13.39339 0,16.90945c0,0.63854 -0.40939,1.03477 -1.04793,1.03477c-0.82253,0 -3.41919,0 -4.88948,0c-0.62142,0 -1.63551,-0.72451 -1.63551,-0.72451zM232.22906,174.21556c0.81695,0 1.47921,-0.66226 1.47921,-1.47921c0,-0.81695 -0.66227,-1.47921 -1.47921,-1.47921c-0.81695,0 -1.4792,0.66226 -1.4792,1.47921c0,0.81695 0.66226,1.47921 1.4792,1.47921zM232.22906,178.29013c0.81695,0 1.47921,-0.66226 1.47921,-1.47921c0,-0.81695 -0.66227,-1.47921 -1.47921,-1.47921c-0.81695,0 -1.4792,0.66226 -1.4792,1.47921c0,0.81695 0.66226,1.47921 1.4792,1.47921z" fill="#396ea9" stroke="none"/><path d="M235.07556,187.40946c-0.78595,-0.95885 -4.32264,-5.27362 -5.62946,-6.86795c-0.41924,-0.51147 -0.4873,-0.9301 -0.4873,-1.59143c0,-2.21948 0,-7.47393 0,-8.76032c0,-0.64953 0.37972,-1.11396 1.02925,-1.11396c1.49581,0 8.68006,0 11.51065,0c0.69891,0 1.1498,0.41505 1.1498,1.11396c0,2.01235 0,13.39339 0,16.90945c0,0.63854 -0.40939,1.03477 -1.04793,1.03477c-0.82253,0 -3.41919,0 -4.88948,0c-0.62142,0 -1.63551,-0.72452 -1.63551,-0.72452zM232.22906,173.90997c0.81695,0 1.47921,-0.66226 1.47921,-1.47921c0,-0.81695 -0.66227,-1.4792 -1.47921,-1.4792c-0.81695,0 -1.4792,0.66226 -1.4792,1.4792c0,0.81695 0.66226,1.47921 1.4792,1.47921zM232.22906,177.88267c0.81695,0 1.47921,-0.66226 1.47921,-1.4792c0,-0.81695 -0.66227,-1.47921 -1.47921,-1.47921c-0.81695,0 -1.4792,0.66227 -1.4792,1.47921c0,0.81695 0.66226,1.4792 1.4792,1.4792z" fill="#4585cc" stroke="none"/><path d="M237.93345,188.11784v-19.0486h2.64847v19.0486z" fill="#52b4f2" stroke="#000000"/><path d="M237.90409,189.28048v-1.24148h2.71941v1.24148z" fill="#4598cb" stroke="#000000"/></g></g></g></svg>