<svg version="1.1" xmlns="http://www.w3.org/2000/svg" xmlns:xlink="http://www.w3.org/1999/xlink" width="209.65465" height="452.00907" viewBox="0,0,209.65465,452.00907"><g transform="translate(-135.17267,44.89941)"><g data-paper-data="{&quot;isPaintingLayer&quot;:true}" fill-rule="nonzero" stroke="#000000" stroke-width="0" stroke-linecap="butt" stroke-linejoin="miter" stroke-miterlimit="10" stroke-dasharray="" stroke-dashoffset="0" style="mix-blend-mode: normal"><g><path d="M289.82732,405.60815v-130.35599l55,-0.28065v130.63665z" fill="#cccbba"/><g><path d="M289.82732,146.08842v-58.22207h55v58.22207z" fill="#afae9f"/><path d="M289.82732,99.69808v-144.59749h55v144.59749z" fill="#cccbba"/></g><path d="M290.2641,275.51469v-176.31297h54.12647v176.31297z" fill-opacity="0.49194" fill="#acecff"/><path d="M296.50246,231.70934v-56.75147h8.80626v56.75147z" fill-opacity="0.32258" fill="#ffffff"/><path d="M324.55205,188.80626v-56.75147h8.80626v56.75147z" fill-opacity="0.32258" fill="#ffffff"/><path d="M312.9242,269.69341v-56.75147h8.80626v56.75147z" fill-opacity="0.32258" fill="#ffffff"/></g><g><path d="M135.17267,407.10965v-130.35599l55,-0.28065v130.63665z" fill="#cccbba"/><g><path d="M135.17267,147.58992v-58.22207h55v58.22207z" fill="#afae9f"/><path d="M135.17267,101.19958v-144.59749h55v144.59749z" fill="#cccbba"/></g><path d="M135.60944,277.01619v-176.31297h54.12647v176.31297z" fill-opacity="0.49194" fill="#acecff"/><path d="M141.84781,233.21084v-56.75147h8.80626v56.75147z" fill-opacity="0.32258" fill="#ffffff"/><path d="M169.89739,190.30776v-56.75147h8.80626v56.75147z" fill-opacity="0.32258" fill="#ffffff"/><path d="M158.26954,271.19491v-56.75147h8.80626v56.75147z" fill-opacity="0.32258" fill="#ffffff"/></g></g></g></svg>