<svg version="1.1" xmlns="http://www.w3.org/2000/svg" xmlns:xlink="http://www.w3.org/1999/xlink" width="258" height="258" viewBox="0,0,258,258"><defs><linearGradient x1="250.45838" y1="200.30398" x2="250.45838" y2="204.08234" gradientUnits="userSpaceOnUse" id="color-1"><stop offset="0" stop-color="#edafbc"/><stop offset="1" stop-color="#d29ca8"/></linearGradient></defs><g transform="translate(-111,-51)"><g data-paper-data="{&quot;isPaintingLayer&quot;:true}" fill-rule="nonzero" stroke-width="0" stroke-linecap="butt" stroke-linejoin="miter" stroke-miterlimit="10" stroke-dasharray="" stroke-dashoffset="0" style="mix-blend-mode: normal"><path d="M221.81662,166.99281c0.51413,2.04934 -2.58342,4.59232 -6.91858,5.6799c-4.33515,1.08757 -9.13594,-0.13524 -9.13594,-0.13524c0,0 4.47207,-7.94843 8.80723,-9.036c4.33515,-1.08757 6.73317,1.44201 7.24729,3.49136z" fill="#debb21" stroke="#ff0000"/><g><path d="M206.23114,167.91821c0.39407,-0.69446 2.16737,-3.81945 2.82261,-4.97415c0.21021,-0.37044 0.44599,-0.50833 0.8434,-0.66157c1.3337,-0.51427 4.49115,-1.73177 5.26415,-2.02984c0.39031,-0.1505 0.75738,-0.02994 0.90788,0.36036c0.34659,0.89884 2.01124,5.21592 2.66711,6.91685c0.16194,0.41998 0.017,0.78709 -0.40298,0.94903c-1.20924,0.46628 -8.0482,3.10336 -10.16102,3.91806c-0.3837,0.14796 -0.71666,-0.00624 -0.86462,-0.38995c-0.19059,-0.49427 -0.79225,-2.05462 -1.13293,-2.93813c-0.14399,-0.37342 0.05641,-1.15067 0.05641,-1.15067zM214.23443,162.86735c0.18929,0.49091 0.7407,0.73542 1.23161,0.54612c0.49091,-0.18929 0.73542,-0.7407 0.54612,-1.23161c-0.18929,-0.49091 -0.7407,-0.73542 -1.23161,-0.54612c-0.49091,0.18929 -0.73542,0.7407 -0.54612,1.23161zM211.78599,163.81146c0.18929,0.49091 0.7407,0.73542 1.23161,0.54612c0.49091,-0.18929 0.73542,-0.7407 0.54612,-1.23161c-0.18929,-0.49091 -0.7407,-0.73542 -1.23161,-0.54612c-0.49091,0.18929 -0.73542,0.7407 -0.54612,1.23161z" fill="#d9dc09" stroke="none"/><path d="M206.96566,167.63497c0.39407,-0.69446 2.16737,-3.81945 2.82261,-4.97415c0.21021,-0.37044 0.44599,-0.50833 0.8434,-0.66157c1.3337,-0.51427 4.49115,-1.73177 5.26415,-2.02984c0.39031,-0.1505 0.75738,-0.02994 0.90788,0.36036c0.34659,0.89884 2.01124,5.21592 2.66711,6.91685c0.16194,0.41998 0.017,0.78709 -0.40298,0.94903c-1.20924,0.46628 -8.0482,3.10336 -10.16102,3.91806c-0.3837,0.14796 -0.71667,-0.00624 -0.86462,-0.38994c-0.19059,-0.49427 -0.79225,-2.05462 -1.13293,-2.93813c-0.14399,-0.37342 0.05641,-1.15067 0.05641,-1.15067zM214.41806,162.79654c0.18929,0.49091 0.7407,0.73542 1.23161,0.54612c0.49091,-0.18929 0.73542,-0.7407 0.54612,-1.23161c-0.18929,-0.49091 -0.7407,-0.73542 -1.23161,-0.54612c-0.49091,0.18929 -0.73542,0.7407 -0.54612,1.23161zM212.03083,163.71705c0.18929,0.49091 0.7407,0.73542 1.23161,0.54612c0.49091,-0.18929 0.73542,-0.7407 0.54612,-1.23161c-0.18929,-0.49091 -0.7407,-0.73542 -1.23161,-0.54612c-0.49091,0.18929 -0.73542,0.7407 -0.54612,1.23161z" fill="#fbff0a" stroke="none"/><path d="M207.20219,169.51644l11.44646,-4.41372l0.61367,1.59149l-11.44646,4.41372z" fill="#d2d509" stroke="#000000"/><path d="M206.43542,169.79184l0.74602,-0.28766l0.63011,1.63412l-0.74602,0.28766z" fill="#b8bb07" stroke="#000000"/></g><g fill="#eac623"><path d="M232.66223,214.23034v-13.525h1.97673v13.525z" stroke="#ff0000"/><path d="M242.54588,216.57121c0,0.66078 -2.02621,-0.98837 -4.52567,-0.98837c-2.49946,0 -4.52567,-0.22355 -4.52567,-0.88433c0,-0.66078 2.02621,-1.19644 4.52567,-1.19644c2.49946,0 4.52567,2.40836 4.52567,3.06913z" stroke="#ff0000"/><path d="M235.15916,214.54246c0,0.68951 -1.99051,0.72827 -4.31759,0.72827c-2.32708,0 -4.00548,1.62585 -4.00548,0.93635c0,-0.68951 1.78243,-2.91308 4.10952,-2.91308c2.32708,0 4.21356,0.55896 4.21356,1.24846z" stroke="none"/><path d="M232.65878,216.19141c-1.89252,1.19999 -2.97866,3.30706 -3.34788,2.72475c-0.36923,-0.58231 0.61071,-3.06751 2.50323,-4.2675c1.89252,-1.19999 3.98097,-0.66035 4.3502,-0.07803c0.36923,0.58231 -1.61303,0.4208 -3.50555,1.62078z" stroke="none"/></g><path d="M262.48892,169.55283c12.77811,3.87722 15.67963,28.05345 15.67963,28.05345c0,0 -1.35752,-3.27909 -14.13565,-7.15632c-3.62308,-1.09934 -7.12241,2.71164 -11.32979,2.05163c-5.90218,-0.92587 -7.53564,-5.7366 -11.41188,-8.50744c-3.10599,-2.22024 -9.21877,-2.19503 -8.43001,-4.79452c2.47482,-8.15625 16.84958,-13.52403 29.6277,-9.6468z" fill="#72559d" stroke="#33943a"/><path d="M218.46773,187.69905c0.06451,-1.74661 1.10404,-6.87517 0.33094,-11.36374c-0.65405,-3.79729 -0.18278,-7.93077 -0.66814,-11.91561c-0.1367,-1.12232 -2.39523,-1.6483 -2.27835,-2.86531c0.94575,-9.84827 6.37181,-18.71954 13.79768,-17.6306c19.15961,2.80958 5.74588,27.96491 8.58562,27.35137c2.66158,-0.57505 4.66749,-3.07692 11.40116,-2.84868c14.24589,0.48286 28.63382,15.57294 28.31631,27.18742c-0.16724,6.11765 -16.12508,10.1663 -28.62626,9.4789c-14.29323,-0.78594 -31.38727,-3.08868 -30.85894,-17.39374z" fill="#edafbc" stroke="#33943a"/><g stroke="#000000"><path d="M223.85556,150.21915c0.22778,2.26814 -1.40527,4.34479 -3.64754,4.63834c-2.24227,0.29355 -4.24464,-1.30719 -4.47241,-3.57531c-0.22778,-2.26814 1.40527,-4.34478 3.64754,-4.63833c2.24227,-0.29355 4.24464,1.30719 4.47242,3.57531z" fill="#ffffff"/><path d="M219.70447,153.8066c-1.67326,0.21905 -3.16749,-0.97547 -3.33745,-2.66803c-0.16999,-1.69256 1.04866,-3.24224 2.72192,-3.46129c1.67324,-0.21905 3.16746,0.97547 3.33745,2.66803c0.16996,1.69256 -1.04868,3.24223 -2.72192,3.46129z" fill="#000000"/></g><g stroke="#000000"><path d="M235.0224,153.99168c0.23143,2.30449 -1.42779,4.41441 -3.70599,4.71266c-2.2782,0.29825 -4.31266,-1.32814 -4.54408,-3.6326c-0.23143,-2.30449 1.42779,-4.41441 3.70599,-4.71266c2.2782,-0.29825 4.31266,1.32814 4.54408,3.6326z" fill="#ffffff"/><path d="M233.19681,153.9331c0.17269,1.71968 -1.06549,3.29418 -2.76554,3.51675c-1.70007,0.22256 -3.21824,-0.99107 -3.39093,-2.71075c-0.17271,-1.71968 1.06546,-3.29418 2.76553,-3.51675c1.70007,-0.22256 3.21822,0.9911 3.39093,2.71078z" fill="#000000"/></g><path d="M229.36282,144.19242c0,0 -0.33224,-2.69933 -0.10041,-3.7319c0.28909,-1.28757 1.7014,-3.39871 1.7014,-3.39871l0.59422,0.13341c0,0 -1.35973,3.06877 -1.65407,4.37974c-0.21123,0.94084 0.0531,2.75087 0.0531,2.75087z" fill="#000000" stroke="#33943a"/><path d="M230.56215,143.96179c0,0 0.21898,-3.48812 0.75609,-4.7375c0.66976,-1.55793 2.95311,-3.89037 2.95311,-3.89037l0.71898,0.30909c0,0 -2.44349,3.55446 -3.12544,5.1407c-0.48939,1.13839 -0.58375,3.48716 -0.58375,3.48716z" fill="#000000" stroke="#33943a"/><path d="M232.02106,144.14269c0,0 0.88593,-2.57138 1.54735,-3.39748c0.82476,-1.03013 3.02021,-2.30744 3.02021,-2.30744l0.47542,0.38062c0,0 -2.56843,2.1609 -3.40818,3.20975c-0.60267,0.75274 -1.15939,2.49519 -1.15939,2.49519z" fill="#000000" stroke="#33943a"/><path d="M256.24793,173.1484c14.13592,0.52209 23.63464,24.50368 23.63464,24.50368c0,0 -2.27579,-2.99246 -16.41174,-3.51454c-4.00807,-0.14803 -6.56381,4.70041 -11.0518,5.16015c-6.29583,0.64492 -9.26776,-3.84197 -13.9864,-5.63386c-3.78099,-1.43581 -10.03579,0.2402 -9.92958,-2.63552c0.33324,-9.02294 13.60893,-18.40199 27.74487,-17.8799z" fill="#906bc7" stroke="#33943a"/><g fill="#ffd726"><path d="M249.4312,218.64995v-17.00291h2.48504v17.00291z" stroke="#ff0000"/><path d="M261.8564,221.59277c0,0.83069 -2.54725,-1.24252 -5.68943,-1.24252c-3.14219,0 -5.68943,-0.28104 -5.68943,-1.11173c0,-0.83069 2.54725,-1.5041 5.68943,-1.5041c3.14219,0 5.68943,3.02766 5.68943,3.85835z" stroke="#ff0000"/><path d="M252.57019,219.04233c0,0.86681 -2.50237,0.91554 -5.42785,0.91554c-2.92549,0 -5.03548,2.04393 -5.03548,1.17712c0,-0.86681 2.24078,-3.66216 5.16627,-3.66216c2.92549,0 5.29706,0.70269 5.29706,1.5695z" stroke="none"/><path d="M249.42685,221.11531c-2.37918,1.50856 -3.74461,4.15747 -4.20878,3.42541c-0.46417,-0.73206 0.76775,-3.85632 3.14693,-5.36488c2.37918,-1.50856 5.00467,-0.83015 5.46884,-0.0981c0.46417,0.73206 -2.02781,0.529 -4.40699,2.03756z" stroke="none"/></g><path d="M247.86503,203.4097l-5.59689,-3.29609c0,0 6.95979,0.19037 7.73569,0.19037c0.92624,0 10.84358,-1.05656 10.84358,-1.05656l-7.79567,4.16227l-0.98046,-0.41765l-0.92302,1.08416l-1.10276,-1.07457l-0.88248,1.08071z" fill="url(#color-1)" stroke="#ff0000"/><path d="M111,309v-258h258v258z" fill="none" stroke="#ff0000"/><path d="M215.33334,168.60902c1.58887,-0.95609 1.19834,-4.19425 2.33335,-5.05798c1.7472,-1.32959 4.71195,0.03661 5.4084,1.19401c1.1489,1.90929 -1.1905,5.42525 -5.22521,7.85311c-4.0347,2.42787 -12.34136,0.04212 -12.34136,0.04212c0,0 5.79011,-1.60339 9.82481,-4.03126z" fill="#ffd726" stroke="#33943a"/><path d="M202.3101,154.66312c0,0 -1.08209,-1.47404 0.39144,-1.90104c5.33194,-1.54512 9.57996,-4.13246 18.11001,-0.95225c5.59405,2.08561 6.90452,10.48629 3.46265,13.31735c-3.44186,2.83106 -4.09463,3.17085 -4.09463,3.17085c0,0 -2.66959,-4.69785 -6.4622,-7.63672c-4.41592,-3.42186 -10.12761,-5.20649 -11.40725,-5.99819z" fill="#ffd726" stroke="#33943a"/></g></g></svg>