<svg version="1.1" xmlns="http://www.w3.org/2000/svg" xmlns:xlink="http://www.w3.org/1999/xlink" width="414.35734" height="556.20521" viewBox="0,0,414.35734,556.20521"><g transform="translate(-49.1607,94.96466)"><g data-paper-data="{&quot;isPaintingLayer&quot;:true}" fill-rule="nonzero" stroke-linecap="butt" stroke-linejoin="miter" stroke-miterlimit="10" stroke-dasharray="" stroke-dashoffset="0" style="mix-blend-mode: normal"><g><g stroke="#000000" stroke-width="0"><path d="M51.10607,460.5619v-72.76497h397.81081v72.76497z" fill="#7eb09b"/><path d="M51.10607,401.79693v-35h397.81081v35z" fill="#8fc7af"/></g><path d="M78.84098,453.68942v-17.90865h40.93406v17.90865z" fill="#273730" stroke="#ffffff" stroke-width="0.5"/><path d="M95.68413,441.38666v12.12138h-40.93406v-12.12138z" fill="#273730" stroke="#ffffff" stroke-width="0.5"/><path d="M113.84098,458.65939v-17.90865h40.93406v17.90865z" fill="#273730" stroke="#ffffff" stroke-width="0.5"/><path d="M118.84098,435.05305v-17.90865h40.93406v17.90865z" fill="#273730" stroke="#ffffff" stroke-width="0.5"/><path d="M165.40348,437.43942v-17.90865h40.93407v17.90865z" fill="#273730" stroke="#ffffff" stroke-width="0.5"/><path d="M186.96255,443.34689v12.12138h-40.93407v-12.12138z" fill="#273730" stroke="#ffffff" stroke-width="0.5"/><path d="M295.71254,442.40939v12.12138h-40.93407v-12.12138z" fill="#273730" stroke="#ffffff" stroke-width="0.5"/><path d="M194.77848,456.07578v-17.90866h40.93407v17.90866z" fill="#273730" stroke="#ffffff" stroke-width="0.5"/><path d="M309.77848,427.43942v-17.90865h40.93406v17.90865z" fill="#273730" stroke="#ffffff" stroke-width="0.5"/><path d="M299.32393,460.59121v-17.90865h40.93406v17.90865z" fill="#273730" stroke="#ffffff" stroke-width="0.5"/><path d="M292.96029,451.98487v-17.90866h40.93406v17.90866z" fill="#273730" stroke="#ffffff" stroke-width="0.5"/><path d="M258.21598,429.93942v-17.90865h40.93407v17.90865z" fill="#273730" stroke="#ffffff" stroke-width="0.5"/><path d="M215.21598,424.93942v-17.90865h40.93407v17.90865z" fill="#273730" stroke="#ffffff" stroke-width="0.5"/><path d="M363.01711,431.4451v-17.90865h40.93407v17.90865z" fill="#273730" stroke="#ffffff" stroke-width="0.5"/><path d="M291.65348,451.4451v-13.3632h30.54445v13.3632z" fill="#577a6b" stroke="#ffffff" stroke-width="0.5"/><path d="M336.65348,446.89964v-13.3632h30.54445v13.3632z" fill="#577a6b" stroke="#ffffff" stroke-width="0.5"/><path d="M227.56256,460.05143v-13.3632h30.54446v13.3632z" fill="#577a6b" stroke="#ffffff" stroke-width="0.5"/><path d="M381.65348,440.08146v-13.3632h30.54445v13.3632z" fill="#577a6b" stroke="#ffffff" stroke-width="0.5"/><path d="M184.8353,460.96052v-13.3632h30.54446v13.3632z" fill="#577a6b" stroke="#ffffff" stroke-width="0.5"/><path d="M282.97161,434.41318v16.66683h-30.54446v-16.66683z" fill="#577a6b" stroke="#ffffff" stroke-width="0.5"/><path d="M158.9262,452.77871v-13.3632h30.54446v13.3632z" fill="#577a6b" stroke="#ffffff" stroke-width="0.5"/><path d="M228.50839,441.54378v-13.3632h30.54446v13.3632z" fill="#577a6b" stroke="#ffffff" stroke-width="0.5"/><path d="M191.19893,428.62692v-13.3632h30.54446v13.3632z" fill="#577a6b" stroke="#ffffff" stroke-width="0.5"/><path d="M102.93208,422.56309v-13.3632h30.54446v13.3632z" fill="#577a6b" stroke="#ffffff" stroke-width="0.5"/><path d="M118.86427,439.82427v-13.3632h30.54446v13.3632z" fill="#577a6b" stroke="#ffffff" stroke-width="0.5"/><path d="M52.56257,418.71783v-13.3632h30.54445v13.3632z" fill="#577a6b" stroke="#ffffff" stroke-width="0.5"/><path d="M53.47166,456.41507v-13.3632h30.54445v13.3632z" fill="#577a6b" stroke="#ffffff" stroke-width="0.5"/><path d="M66.19893,450.05143v-13.3632h30.54446v13.3632z" fill="#577a6b" stroke="#ffffff" stroke-width="0.5"/><path d="M73.9262,460.99055v-10.18138h23.27173v10.18138z" fill="#73a18d" stroke="#ffffff" stroke-width="0.5"/><path d="M54.8353,435.08146v-10.18138h23.27172v10.18138z" fill="#73a18d" stroke="#ffffff" stroke-width="0.5"/><path d="M75.28984,424.62692v-10.18138h23.27173v10.18138z" fill="#73a18d" stroke="#ffffff" stroke-width="0.5"/><path d="M150.74439,449.62692v-10.18138h23.27173v10.18138z" fill="#73a18d" stroke="#ffffff" stroke-width="0.5"/><path d="M140.68245,422.12891v-10.18138h23.27173v10.18138z" fill="#73a18d" stroke="#ffffff" stroke-width="0.5"/><path d="M92.16996,437.27587v-10.18138h23.27173v10.18138z" fill="#73a18d" stroke="#ffffff" stroke-width="0.5"/><path d="M282.39986,419.53705v-10.18138h23.27173v10.18138z" fill="#73a18d" stroke="#ffffff" stroke-width="0.5"/><path d="M209.98225,432.16564v-10.18138h23.27173v10.18138z" fill="#73a18d" stroke="#ffffff" stroke-width="0.5"/><path d="M327.56257,459.59689v-10.18138h23.27173v10.18138z" fill="#73a18d" stroke="#ffffff" stroke-width="0.5"/><path d="M183.01711,451.89964v-10.18138h23.27173v10.18138z" fill="#73a18d" stroke="#ffffff" stroke-width="0.5"/><path d="M189.38075,424.17237v-10.18138h23.27173v10.18138z" fill="#73a18d" stroke="#ffffff" stroke-width="0.5"/><path d="M252.10802,451.41507v-10.18138h23.27173v10.18138z" fill="#73a18d" stroke="#ffffff" stroke-width="0.5"/><path d="M339.38075,451.89964v-10.18138h23.27173v10.18138z" fill="#73a18d" stroke="#ffffff" stroke-width="0.5"/><path d="M216.65348,425.53601v-10.18138h23.27173v10.18138z" fill="#73a18d" stroke="#ffffff" stroke-width="0.5"/><path d="M259.83529,453.71783v-10.18138h23.27173v10.18138z" fill="#73a18d" stroke="#ffffff" stroke-width="0.5"/><path d="M375.61842,460.44404v-10.18138h23.27173v10.18138z" fill="#73a18d" stroke="#ffffff" stroke-width="0.5"/><path d="M317.56257,430.99055v-10.18138h23.27173v10.18138z" fill="#73a18d" stroke="#ffffff" stroke-width="0.5"/><path d="M370.74439,448.71783v-10.18138h23.27172v10.18138z" fill="#73a18d" stroke="#ffffff" stroke-width="0.5"/><path d="M350.28984,447.77871v-10.18138h23.27173v10.18138z" fill="#73a18d" stroke="#ffffff" stroke-width="0.5"/><path d="M343.47166,418.71783v-10.18138h23.27173v10.18138z" fill="#73a18d" stroke="#ffffff" stroke-width="0.5"/><path d="M277.10802,450.05143v-10.18138h23.27173v10.18138z" fill="#73a18d" stroke="#ffffff" stroke-width="0.5"/><path d="M270.28984,433.71783v-10.18138h23.27173v10.18138z" fill="#73a18d" stroke="#ffffff" stroke-width="0.5"/></g><g><g stroke="#000000" stroke-width="0"><path d="M49.16071,29.09002v-102.795h397.81081v102.79501z" fill="#7eb09b"/><path d="M49.16071,-59.70499v-35h397.81081v35z" fill="#8fc7af"/></g><path d="M76.89562,-7.8125v-17.90865h40.93406v17.90866z" fill="#273730" stroke="#ffffff" stroke-width="0.5"/><path d="M52.80471,9.91478v-17.90865h40.93406v17.90866z" fill="#273730" stroke="#ffffff" stroke-width="0.5"/><path d="M111.89562,27.1875v-17.90865h40.93406v17.90866z" fill="#273730" stroke="#ffffff" stroke-width="0.5"/><path d="M116.89562,-26.44886v-17.90865h40.93406v17.90865z" fill="#273730" stroke="#ffffff" stroke-width="0.5"/><path d="M163.4581,-24.0625v-17.90866h40.93407v17.90866z" fill="#273730" stroke="#ffffff" stroke-width="0.5"/><path d="M144.0831,11.875v-17.90865h40.93407v17.90866z" fill="#273730" stroke="#ffffff" stroke-width="0.5"/><path d="M252.83312,10.9375v-17.90865h40.93407v17.90866z" fill="#273730" stroke="#ffffff" stroke-width="0.5"/><path d="M192.83312,-5.42613v-17.90866h40.93407v17.90866z" fill="#273730" stroke="#ffffff" stroke-width="0.5"/><path d="M307.83312,-34.0625v-17.90866h40.93407v17.90866z" fill="#273730" stroke="#ffffff" stroke-width="0.5"/><path d="M297.37856,29.11932v-17.90865h40.93407v17.90865z" fill="#273730" stroke="#ffffff" stroke-width="0.5"/><path d="M291.01494,-9.51704v-17.90865h40.93406v17.90866z" fill="#273730" stroke="#ffffff" stroke-width="0.5"/><path d="M256.27062,-31.5625v-17.90866h40.93407v17.90866z" fill="#273730" stroke="#ffffff" stroke-width="0.5"/><path d="M213.27062,-36.5625v-17.90866h40.93407v17.90866z" fill="#273730" stroke="#ffffff" stroke-width="0.5"/><path d="M329.70812,3.125v-17.90865h40.93407v17.90866z" fill="#273730" stroke="#ffffff" stroke-width="0.5"/><path d="M361.07175,-30.05682v-17.90865h40.93407v17.90865z" fill="#273730" stroke="#ffffff" stroke-width="0.5"/><path d="M374.25357,21.30682v-17.90865h41.38861v17.90866z" fill="#273730" stroke="#ffffff" stroke-width="0.5"/><path d="M289.70812,-10.05682v-13.36319h30.54446v13.3632z" fill="#577a6b" stroke="#ffffff" stroke-width="0.5"/><path d="M334.70812,-14.60227v-13.36319h30.54446v13.3632z" fill="#577a6b" stroke="#ffffff" stroke-width="0.5"/><path d="M225.61721,28.57955v-13.3632h30.54446v13.3632z" fill="#577a6b" stroke="#ffffff" stroke-width="0.5"/><path d="M373.79903,9.94318v-13.36319h30.54446v13.3632z" fill="#577a6b" stroke="#ffffff" stroke-width="0.5"/><path d="M379.70812,-21.42045v-13.3632h30.54446v13.3632z" fill="#577a6b" stroke="#ffffff" stroke-width="0.5"/><path d="M182.88994,29.48864v-13.3632h30.54446v13.3632z" fill="#577a6b" stroke="#ffffff" stroke-width="0.5"/><path d="M244.70812,14.48864v-13.3632h30.54446v13.3632z" fill="#577a6b" stroke="#ffffff" stroke-width="0.5"/><path d="M156.98084,21.30682v-13.3632h30.54446v13.3632z" fill="#577a6b" stroke="#ffffff" stroke-width="0.5"/><path d="M224.25357,-11.875v-13.3632h30.54446v13.3632z" fill="#577a6b" stroke="#ffffff" stroke-width="0.5"/><path d="M189.25357,-32.875v-13.3632h30.54446v13.3632z" fill="#577a6b" stroke="#ffffff" stroke-width="0.5"/><path d="M192.88994,12.21591v-13.3632h30.54446v13.3632z" fill="#577a6b" stroke="#ffffff" stroke-width="0.5"/><path d="M120.61721,-37.78409v-13.3632h30.54446v13.3632z" fill="#577a6b" stroke="#ffffff" stroke-width="0.5"/><path d="M106.5263,-5.51136v-13.3632h30.54446v13.3632z" fill="#577a6b" stroke="#ffffff" stroke-width="0.5"/><path d="M50.61721,-42.78409v-13.3632h30.54445v13.3632z" fill="#577a6b" stroke="#ffffff" stroke-width="0.5"/><path d="M51.5263,24.94318v-13.36319h30.54446v13.3632z" fill="#577a6b" stroke="#ffffff" stroke-width="0.5"/><path d="M64.25356,18.57955v-13.3632h30.54446v13.3632z" fill="#577a6b" stroke="#ffffff" stroke-width="0.5"/><path d="M71.98084,-0.51136v-10.18138h23.27173v10.18138z" fill="#73a18d" stroke="#ffffff" stroke-width="0.5"/><path d="M52.88994,-26.42045v-10.18138h23.27172v10.18138z" fill="#73a18d" stroke="#ffffff" stroke-width="0.5"/><path d="M73.34448,-36.875v-10.18138h23.27173v10.18138z" fill="#73a18d" stroke="#ffffff" stroke-width="0.5"/><path d="M148.79903,-11.875v-10.18138h23.27173v10.18138z" fill="#73a18d" stroke="#ffffff" stroke-width="0.5"/><path d="M128.34447,17.21591v-10.18138h23.27173v10.18138z" fill="#73a18d" stroke="#ffffff" stroke-width="0.5"/><path d="M100.61721,23.125v-10.18138h23.27173v10.18138z" fill="#73a18d" stroke="#ffffff" stroke-width="0.5"/><path d="M219.25357,20.39773v-10.18138h23.27173v10.18138z" fill="#73a18d" stroke="#ffffff" stroke-width="0.5"/><path d="M198.79903,24.94318v-10.18138h23.27173v10.18138z" fill="#73a18d" stroke="#ffffff" stroke-width="0.5"/><path d="M325.6172,28.125v-10.18138h23.27173v10.18138z" fill="#73a18d" stroke="#ffffff" stroke-width="0.5"/><path d="M181.07175,-9.60227v-10.18138h23.27173v10.18138z" fill="#73a18d" stroke="#ffffff" stroke-width="0.5"/><path d="M187.43539,-37.32955v-10.18138h23.27173v10.18138z" fill="#73a18d" stroke="#ffffff" stroke-width="0.5"/><path d="M250.16266,19.94318v-10.18138h23.27173v10.18138z" fill="#73a18d" stroke="#ffffff" stroke-width="0.5"/><path d="M337.43539,-9.60227v-10.18138h23.27173v10.18138z" fill="#73a18d" stroke="#ffffff" stroke-width="0.5"/><path d="M214.70812,-35.96591v-10.18138h23.27173v10.18138z" fill="#73a18d" stroke="#ffffff" stroke-width="0.5"/><path d="M257.88994,-7.78409v-10.18138h23.27173v10.18138z" fill="#73a18d" stroke="#ffffff" stroke-width="0.5"/><path d="M310.16265,18.57955v-10.18138h23.27173v10.18138z" fill="#73a18d" stroke="#ffffff" stroke-width="0.5"/><path d="M290.16265,4.48864v-10.18138h23.27173v10.18138z" fill="#73a18d" stroke="#ffffff" stroke-width="0.5"/><path d="M315.6172,-30.51136v-10.18138h23.27173v10.18138z" fill="#73a18d" stroke="#ffffff" stroke-width="0.5"/><path d="M368.79903,-12.78409v-10.18138h23.27173v10.18138z" fill="#73a18d" stroke="#ffffff" stroke-width="0.5"/><path d="M348.34448,16.30682v-10.18138h23.27173v10.18138z" fill="#73a18d" stroke="#ffffff" stroke-width="0.5"/><path d="M341.5263,-42.78409v-10.18138h23.27173v10.18138z" fill="#73a18d" stroke="#ffffff" stroke-width="0.5"/><path d="M275.16265,18.57955v-10.18138h23.27173v10.18138z" fill="#73a18d" stroke="#ffffff" stroke-width="0.5"/><path d="M268.34448,-27.78409v-10.18138h23.27173v10.18138z" fill="#73a18d" stroke="#ffffff" stroke-width="0.5"/><path d="M384.70812,25.39773v-10.18138h23.27173v10.18138z" fill="#73a18d" stroke="#ffffff" stroke-width="0.5"/></g><g stroke="#000000" stroke-width="0"><path d="M408.51805,451.81699v-67.63126h55v76.64027z" fill="#7eb09b"/><path d="M408.51805,399.89301v-493.87597l55,-0.9817v494.85767z" fill="#8fc7af"/></g><path d="M413.42343,460.78078v-49.54955h49.54955v49.54955z" fill="#7eb09b" stroke="#ffffff" stroke-width="0"/><path d="M370.5089,321.77966v-13.96793h3.87998v13.96793z" fill="#8d8d8d" stroke="none" stroke-width="0"/><g stroke-width="0"><path d="M273.46907,323.84898v-16.55458h4.13864v16.55458z" fill="#8d8d8d" stroke="#ffffff"/><path d="M273.2104,310.39838v-2.84532h17.8479v2.84532z" fill="#8d8d8d" stroke="none"/><path d="M286.14367,324.10764v-15.51992h3.36265v15.51992z" fill="#8d8d8d" stroke="none"/><path d="M292.86897,342.47288v-22.24521h5.69064v22.24521z" fill="#8d8d8d" stroke="none"/><path d="M292.09297,328.50495v-8.79462h57.68236v8.79462z" fill="#8d8d8d" stroke="none"/><path d="M344.08469,342.99021v-21.21055h6.20797v21.21055z" fill="#8d8d8d" stroke="none"/><path d="M356.54098,321.52099v-15.00259h4.13864v15.00259z" fill="#8d8d8d" stroke="none"/><path d="M357.57564,311.95038v-5.9493h16.55458v5.9493z" fill="#8d8d8d" stroke="none"/><g stroke="none"><path d="M271.87055,308.72559v-210.2266h35.37439v210.2266z" fill="#53b871"/><path d="M341.44764,308.72559v-210.2266h35.37439v210.2266z" fill="#53b871"/><path d="M290.28801,323.73241v-240.24024h64.02378v240.24024z" fill="#61d984"/></g></g><g stroke-width="0"><path d="M104.58018,331.0712v-16.55458h4.13864v16.55458z" fill="#8d8d8d" stroke="#ffffff"/><path d="M104.32152,317.62061v-2.84532h17.8479v2.84532z" fill="#8d8d8d" stroke="none"/><path d="M117.25478,331.32987v-15.51992h3.36265v15.51992z" fill="#8d8d8d" stroke="none"/><path d="M123.98008,349.6951v-22.24521h5.69064v22.24521z" fill="#8d8d8d" stroke="none"/><path d="M123.20408,335.72718v-8.79462h57.68236v8.79462z" fill="#8d8d8d" stroke="none"/><path d="M175.19579,350.21243v-21.21055h6.20797v21.21055z" fill="#8d8d8d" stroke="none"/><path d="M187.65209,328.74321v-15.00259h4.13864v15.00259z" fill="#8d8d8d" stroke="none"/><path d="M188.68675,319.1726v-5.9493h16.55458v5.9493z" fill="#8d8d8d" stroke="none"/><g stroke="none"><path d="M102.98167,315.94781v-210.2266h35.37439v210.2266z" fill="#b89553"/><path d="M173.66986,315.94781v-210.2266h35.37439v210.2266z" fill="#b89553"/><path d="M121.39913,330.95463v-240.24024h64.02378v240.24024z" fill="#d9b062"/></g></g><g stroke="#000000" stroke-width="0"><path d="M371.74444,60.00248l-6.56238,-33.16961h41.95236l-5.15616,33.72552c0,0 -4.30862,4.70395 -14.3217,4.55891c-10.82234,-0.15677 -15.91212,-5.11482 -15.91212,-5.11482z" fill="#7e7e7e"/><path d="M365.45732,27.65412c0,-9.12773 9.35874,-16.52721 20.90333,-16.52721c11.54459,0 20.90333,7.39948 20.90333,16.52721c0,9.12773 -9.35874,16.52721 -20.90333,16.52721c-11.54459,0 -20.90333,-7.39948 -20.90333,-16.52721z" fill="#9a9a9a"/><path d="M368.73851,27.65412c0,-7.69495 7.8897,-13.93294 17.62214,-13.93294c9.73244,0 17.62214,6.23799 17.62214,13.93294c0,7.69495 -7.8897,13.93294 -17.62214,13.93294c-9.73244,0 -17.62214,-6.23799 -17.62214,-13.93294z" fill="#494949"/></g></g></g></svg>