<svg version="1.1" xmlns="http://www.w3.org/2000/svg" xmlns:xlink="http://www.w3.org/1999/xlink" width="29.21189" height="30.23985" viewBox="0,0,29.21189,30.23985"><g transform="translate(-230.05845,-159.7017)"><g data-paper-data="{&quot;isPaintingLayer&quot;:true}" fill-rule="nonzero" stroke="#000000" stroke-width="1" stroke-linejoin="miter" stroke-miterlimit="10" stroke-dasharray="" stroke-dashoffset="0" style="mix-blend-mode: normal"><path d="M230.55845,180c0,-5.21442 4.22713,-9.44155 9.44155,-9.44155c5.21442,0 9.44155,4.22713 9.44155,9.44155c0,5.21442 -4.22713,9.44155 -9.44155,9.44155c-5.21442,0 -9.44155,-4.22713 -9.44155,-9.44155z" fill="#ff3330" stroke-linecap="butt"/><g><path d="M253.68487,170.80902l-7.88285,9.2905c0,0 -1.27435,-0.42591 -1.71378,-0.31985c-0.74864,0.18071 -2.55919,1.01904 -2.55919,1.01904l-1.21687,-1.40301c0,0 0.73899,-1.32747 0.76498,-2.05507c0.01738,-0.48676 -0.62421,-1.88635 -0.62421,-1.88635l7.88285,-9.14973" fill="#ffffff" stroke-linecap="round"/><path d="M249.37117,160.41923l9.19975,8.49592l-3.0561,3.4423l-9.2905,-8.30514z" fill="#000000" stroke-linecap="round"/><path d="M255.49834,166.55868l-3.52946,-3.0525l3.62485,-2.86172c0,0 1.40972,-0.66869 2.22228,-0.09144c0.73235,0.52026 0.35328,2.38083 0.35328,2.38083z" fill="#000000" stroke-linecap="butt"/></g></g></g></svg>