<svg version="1.1" xmlns="http://www.w3.org/2000/svg" xmlns:xlink="http://www.w3.org/1999/xlink" width="64.34093" height="61.22489" viewBox="0,0,64.34093,61.22489"><g transform="translate(-207.55609,-149.31093)"><g data-paper-data="{&quot;isPaintingLayer&quot;:true}" fill="none" fill-rule="nonzero" stroke="#ff0000" stroke-width="6.5" stroke-linejoin="miter" stroke-miterlimit="10" stroke-dasharray="" stroke-dashoffset="0" style="mix-blend-mode: normal"><path d="M221.33333,180c0,-10.30932 8.35735,-18.66667 18.66667,-18.66667c10.30932,0 18.66667,8.35735 18.66667,18.66667c0,10.30932 -8.35735,18.66667 -18.66667,18.66667c-10.30932,0 -18.66667,-8.35735 -18.66667,-18.66667z" stroke-linecap="butt"/><g stroke-linecap="round"><path d="M252.73335,152.59019c0,0 6.29716,-0.85202 12.05295,6.63947c4.26675,5.55341 3.86072,13.53235 3.86072,13.53235" data-paper-data="{&quot;index&quot;:null}"/></g><g data-paper-data="{&quot;index&quot;:null}" stroke-linecap="round"><path d="M268.17084,187.08474c0,0 0.40603,7.97894 -3.86072,13.53235c-5.75579,7.49148 -12.05295,6.63947 -12.05295,6.63947" data-paper-data="{&quot;index&quot;:null}"/></g><g data-paper-data="{&quot;index&quot;:null}" stroke-linecap="round"><path d="M227.20634,207.25656c0,0 -6.29716,0.85202 -12.05295,-6.63947c-4.26675,-5.55341 -3.86072,-13.53235 -3.86072,-13.53235" data-paper-data="{&quot;index&quot;:null}"/></g><g stroke-linecap="round"><path d="M210.81647,172.76201c0,0 -0.40603,-7.97894 3.86072,-13.53235c5.75579,-7.49148 12.05295,-6.63947 12.05295,-6.63947"/></g></g></g></svg>