<svg version="1.1" xmlns="http://www.w3.org/2000/svg" xmlns:xlink="http://www.w3.org/1999/xlink" width="62.30632" height="56.41415" viewBox="0,0,62.30632,56.41415"><g transform="translate(-199.33027,-159.69048)"><g data-paper-data="{&quot;isPaintingLayer&quot;:true}" fill-rule="nonzero" stroke-linecap="butt" stroke-linejoin="miter" stroke-miterlimit="10" stroke-dasharray="" stroke-dashoffset="0" style="mix-blend-mode: normal"><g font-family="Sans Serif" font-weight="normal" font-size="40" text-anchor="start"><text transform="translate(204.16633,213.51386) scale(0.19929,0.19929)" font-size="40" xml:space="preserve" fill="#000000" fill-rule="nonzero" stroke="#000000" stroke-width="2" stroke-linecap="butt" stroke-linejoin="miter" stroke-miterlimit="10" stroke-dasharray="" stroke-dashoffset="0" font-family="Sans Serif" font-weight="normal" text-anchor="start" style="mix-blend-mode: normal"><tspan x="0" dy="0">Move drone (Z)</tspan></text><text transform="translate(204.16633,213.51386) scale(0.19929,0.19929)" font-size="40" xml:space="preserve" fill="#ffffff" fill-rule="nonzero" stroke="none" stroke-width="1" stroke-linecap="butt" stroke-linejoin="miter" stroke-miterlimit="10" stroke-dasharray="" stroke-dashoffset="0" font-family="Sans Serif" font-weight="normal" text-anchor="start" style="mix-blend-mode: normal"><tspan x="0" dy="0">Move drone (Z)</tspan></text></g><g stroke-width="0"><path d="M235.6518,174.24328c-2.08081,-3.77224 -0.70963,-8.51708 3.06261,-10.59788c3.77224,-2.08081 8.51708,-0.70964 10.59789,3.06261c2.08081,3.77224 0.70963,8.51707 -3.06262,10.59788c-3.77224,2.08081 -8.51707,0.70964 -10.59788,-3.06261zM244.96498,174.73939c2.49633,-1.37701 3.40373,-4.51697 2.02673,-7.01331c-1.37701,-2.49634 -4.51697,-3.40373 -7.0133,-2.02673c-2.49634,1.37701 -3.40373,4.51697 -2.02673,7.01331c1.37701,2.49634 4.51697,3.40373 7.01331,2.02673z" fill="#000000" stroke="#000000"/><path d="M220.98613,182.56883c-2.08081,-3.77224 -0.70962,-8.51709 3.06262,-10.59789c3.77224,-2.08081 8.51707,-0.70964 10.59788,3.06261c2.08081,3.77224 0.70964,8.51708 -3.06261,10.59789c-3.77224,2.08081 -8.51707,0.70964 -10.59788,-3.06261zM230.29931,183.06493c2.49634,-1.37701 3.40373,-4.51697 2.02673,-7.0133c-1.37701,-2.49634 -4.51697,-3.40373 -7.01331,-2.02673c-2.49634,1.37701 -3.40373,4.51697 -2.02673,7.01331c1.37701,2.49634 4.51697,3.40373 7.01331,2.02673z" fill="#000000" stroke="#000000"/><path d="M229.09764,197.27397c-2.08081,-3.77224 -0.70962,-8.51708 3.06262,-10.59788c3.77224,-2.08081 8.51708,-0.70964 10.59789,3.06261c2.08081,3.77224 0.70963,8.51708 -3.06262,10.59789c-3.77224,2.08081 -8.51708,0.70963 -10.59789,-3.06262zM238.41081,197.77005c2.49634,-1.37701 3.40373,-4.51697 2.02673,-7.01331c-1.37701,-2.49634 -4.51697,-3.40373 -7.01331,-2.02673c-2.49634,1.37701 -3.40373,4.51697 -2.02673,7.0133c1.37701,2.49634 4.51697,3.40373 7.01331,2.02673z" fill="#000000" stroke="#000000"/><path d="M244.08952,189.39731c-2.08081,-3.77224 -0.70963,-8.51708 3.06261,-10.59788c3.77224,-2.08081 8.51707,-0.70963 10.59788,3.06262c2.08081,3.77224 0.70964,8.51707 -3.06261,10.59788c-3.77224,2.08081 -8.51707,0.70963 -10.59788,-3.06262zM253.4027,189.8934c2.49633,-1.37701 3.40373,-4.51697 2.02673,-7.01331c-1.37701,-2.49634 -4.51698,-3.40373 -7.01331,-2.02673c-2.49634,1.37701 -3.40373,4.51697 -2.02673,7.0133c1.37701,2.49634 4.51698,3.40374 7.01331,2.02674z" fill="#000000" stroke="#000000"/><path d="M220.32747,181.51727c-2.08081,-3.77224 -0.70962,-8.51708 3.06262,-10.59788c3.77224,-2.08081 8.51707,-0.70964 10.59788,3.06261c2.08081,3.77224 0.70964,8.51707 -3.06261,10.59788c-3.77224,2.08081 -8.51708,0.70964 -10.59789,-3.06261zM229.64065,182.01336c2.49634,-1.37701 3.40373,-4.51697 2.02673,-7.01331c-1.37701,-2.49634 -4.51697,-3.40373 -7.01331,-2.02673c-2.49634,1.37701 -3.40373,4.51697 -2.02673,7.0133c1.37701,2.49634 4.51697,3.40373 7.0133,2.02673z" fill="#82cc81" stroke="#000000"/><path d="M235.09287,173.37253c-2.08081,-3.77224 -0.70963,-8.51709 3.06261,-10.59789c3.77224,-2.08081 8.51707,-0.70964 10.59788,3.06261c2.08081,3.77224 0.70964,8.51708 -3.06261,10.59789c-3.77224,2.08081 -8.51707,0.70964 -10.59788,-3.06261zM244.40605,173.86862c2.49634,-1.37701 3.40373,-4.51697 2.02673,-7.01331c-1.37701,-2.49634 -4.51697,-3.40373 -7.01331,-2.02673c-2.49634,1.37701 -3.40373,4.51697 -2.02673,7.01331c1.37701,2.49634 4.51697,3.40373 7.01331,2.02673z" fill="#82cc81" stroke="#000000"/><path d="M228.47222,196.28268c-2.08081,-3.77224 -0.70963,-8.51708 3.06261,-10.59788c3.77224,-2.08081 8.51707,-0.70964 10.59788,3.06261c2.08081,3.77224 0.70963,8.51708 -3.06262,10.59789c-3.77224,2.08081 -8.51707,0.70963 -10.59788,-3.06262zM237.78539,196.77877c2.49634,-1.37701 3.40373,-4.51697 2.02673,-7.01331c-1.37701,-2.49634 -4.51697,-3.40373 -7.01331,-2.02673c-2.49634,1.37701 -3.40373,4.51697 -2.02673,7.01331c1.37701,2.49634 4.51697,3.40373 7.01331,2.02673z" fill="#82cc81" stroke="#000000"/><path d="M243.29301,188.23838c-2.08081,-3.77224 -0.70963,-8.51708 3.06261,-10.59788c3.77224,-2.08081 8.51707,-0.70964 10.59788,3.06261c2.08081,3.77224 0.70963,8.51708 -3.06261,10.59789c-3.77224,2.08081 -8.51707,0.70963 -10.59788,-3.06262zM252.60619,188.73447c2.49633,-1.37701 3.40374,-4.51697 2.02674,-7.01331c-1.37701,-2.49634 -4.51698,-3.40373 -7.01331,-2.02673c-2.49634,1.37701 -3.40373,4.51697 -2.02673,7.0133c1.37701,2.49634 4.51697,3.40373 7.0133,2.02673z" fill="#82cc81" stroke="#000000"/><path d="M236.53796,183.71107c-0.81091,-1.47007 -0.27656,-3.31916 1.19352,-4.13005c1.47007,-0.81091 3.31916,-0.27656 4.13006,1.19352c0.81091,1.47007 0.27655,3.31916 -1.19352,4.13006c-1.47007,0.81091 -3.31916,0.27655 -4.13005,-1.19352z" fill="#000000" stroke="#000000"/><path d="M236.0393,182.80706c-0.81091,-1.47007 -0.27655,-3.31916 1.19352,-4.13006c1.47007,-0.81091 3.31916,-0.27656 4.13006,1.19352c0.81091,1.47007 0.27655,3.31916 -1.19353,4.13006c-1.47007,0.81091 -3.31916,0.27656 -4.13005,-1.19352z" fill="#82cc81" stroke="#000000"/><path d="M240.66677,185.4237l-4.53325,-8.21822l0.61637,-0.33999l4.53324,8.21822z" fill="#82cc81" stroke="#000000"/><path d="M234.89084,183.69698l-0.37777,-0.68485l8.08125,-4.45769l0.37777,0.68485z" fill="#82cc81" stroke="none"/><g fill="#82cc81" stroke="none"><path d="M236.75233,178.29751l-3.11359,-1.64108l0.36468,-0.69191l3.11359,1.64107z"/><path d="M236.53302,178.01706l0.27275,-3.50901l0.77978,0.06061l-0.27275,3.50902z" data-paper-data="{&quot;index&quot;:null}"/></g><g data-paper-data="{&quot;index&quot;:null}" fill="#82cc81" stroke="none"><path d="M240.80532,184.19027l-0.27275,3.50902l-0.77978,-0.06061l0.27275,-3.50901z"/><path d="M240.51046,183.77285l3.11359,1.64107l-0.36468,0.69191l-3.11359,-1.64108z" data-paper-data="{&quot;index&quot;:null}"/></g><g data-paper-data="{&quot;index&quot;:null}" fill="#82cc81" stroke="none"><path d="M241.71322,179.11476l3.50901,0.27275l-0.06061,0.77978l-3.50902,-0.27275z"/><path d="M241.2958,179.40962l1.64108,-3.11359l0.69191,0.36469l-1.64107,3.11359z" data-paper-data="{&quot;index&quot;:null}"/></g><g data-paper-data="{&quot;index&quot;:null}" fill="#82cc81" stroke="none"><path d="M235.96446,182.91989l-1.64107,3.11359l-0.69191,-0.36469l1.64107,-3.11359z"/><path d="M235.68401,183.1392l-3.50902,-0.27275l0.06061,-0.77978l3.50902,0.27275z" data-paper-data="{&quot;index&quot;:null}"/></g><g fill="#82cc81"><path d="M232.16644,179.69173l-5.17935,-1.39144l0.31236,-1.16272l5.17936,1.39144z" stroke="#000000"/><path d="M226.04009,178.36023c-0.41969,-0.76085 -0.14314,-1.71788 0.61771,-2.13756c0.76085,-0.41969 1.71787,-0.14312 2.13756,0.61773c0.41969,0.76085 0.14313,1.71788 -0.61772,2.13756c-0.76085,0.41969 -1.71787,0.14312 -2.13756,-0.61773z" stroke="#000000"/><path d="M230.85166,175.44942c0.10792,0.19565 -0.49188,0.73336 -1.33968,1.20102c-0.84781,0.46765 -1.62257,0.68817 -1.73049,0.49252c-0.10792,-0.19565 0.49187,-0.73336 1.33968,-1.20103c0.84781,-0.46765 1.62257,-0.68817 1.73049,-0.49253z" stroke="none"/><path d="M226.82325,177.82555c0.10792,0.19565 -0.49187,0.73337 -1.33968,1.20102c-0.84781,0.46765 -1.62257,0.68816 -1.73049,0.49251c-0.10792,-0.19565 0.49187,-0.73337 1.33968,-1.20102c0.84781,-0.46765 1.62257,-0.68816 1.73049,-0.49251z" stroke="none"/><path d="M225.52877,174.17588c0.19565,-0.10792 0.73337,0.49187 1.20102,1.33968c0.46765,0.84781 0.68816,1.62257 0.49251,1.73049c-0.19565,0.10792 -0.73336,-0.49187 -1.20102,-1.33968c-0.46765,-0.84781 -0.68816,-1.62257 -0.49252,-1.73049z" stroke="none"/><path d="M227.43943,177.63967c0.19565,-0.10792 0.73337,0.49188 1.20102,1.33968c0.46765,0.84781 0.68816,1.62257 0.49251,1.73049c-0.19565,0.10792 -0.73336,-0.49188 -1.20102,-1.33968c-0.46765,-0.84781 -0.68816,-1.62257 -0.49252,-1.73049z" stroke="none"/></g><g data-paper-data="{&quot;index&quot;:null}" fill="#82cc81"><path d="M240.03145,174.29273l1.58583,-5.12319l1.1501,0.35601l-1.58583,5.12318z" stroke="#000000"/><path d="M242.70548,170.89406c-0.76085,0.41969 -1.71788,0.14313 -2.13756,-0.61772c-0.41969,-0.76085 -0.14312,-1.71787 0.61773,-2.13756c0.76085,-0.41969 1.71787,-0.14313 2.13756,0.61772c0.41969,0.76085 0.14313,1.71787 -0.61772,2.13756z" stroke="#000000"/><path d="M239.63418,170.07267c0.84781,-0.46765 1.62258,-0.68816 1.7305,-0.49251c0.10792,0.19565 -0.49187,0.73337 -1.33968,1.20102c-0.84781,0.46765 -1.62257,0.68816 -1.73049,0.49251c-0.10792,-0.19565 0.49187,-0.73337 1.33968,-1.20102z" stroke="none"/><path d="M243.79287,167.93269c0.84781,-0.46765 1.62257,-0.68817 1.73049,-0.49252c0.10792,0.19565 -0.49187,0.73337 -1.33968,1.20102c-0.84781,0.46765 -1.62257,0.68817 -1.73049,0.49252c-0.10792,-0.19565 0.49187,-0.73337 1.33968,-1.20102z" stroke="none"/><path d="M241.25764,167.43167c0.46765,0.84781 0.68816,1.62257 0.49251,1.73049c-0.19565,0.10792 -0.73336,-0.49187 -1.20102,-1.33968c-0.46765,-0.84781 -0.68817,-1.62257 -0.49252,-1.73049c0.19565,-0.10792 0.73337,0.49187 1.20103,1.33968z" stroke="none"/><path d="M243.1683,170.89545c0.46765,0.84781 0.68816,1.62257 0.49251,1.73049c-0.19565,0.10792 -0.73336,-0.49188 -1.20102,-1.33968c-0.46765,-0.84781 -0.68817,-1.62258 -0.49252,-1.7305c0.19565,-0.10792 0.73337,0.49187 1.20102,1.33968z" stroke="none"/></g><g data-paper-data="{&quot;index&quot;:null}" fill="#82cc81"><path d="M245.11218,181.90171l5.17935,1.39144l-0.31236,1.16272l-5.17936,-1.39144z" stroke="#000000"/><path d="M251.23854,183.23321c0.41969,0.76085 0.14312,1.71787 -0.61773,2.13756c-0.76085,0.41969 -1.71787,0.14313 -2.13756,-0.61772c-0.41969,-0.76085 -0.14313,-1.71787 0.61772,-2.13756c0.76085,-0.41969 1.71788,-0.14313 2.13756,0.61772z" stroke="#000000"/><path d="M246.42695,186.14403c-0.10792,-0.19565 0.49188,-0.73337 1.33968,-1.20102c0.8478,-0.46765 1.62257,-0.68817 1.73049,-0.49252c0.10792,0.19565 -0.49188,0.73336 -1.33968,1.20102c-0.8478,0.46765 -1.62257,0.68817 -1.73049,0.49252z" stroke="none"/><path d="M250.45537,183.76789c-0.10792,-0.19565 0.49188,-0.73336 1.33968,-1.20102c0.8478,-0.46765 1.62258,-0.68817 1.7305,-0.49252c0.10792,0.19565 -0.49188,0.73337 -1.33968,1.20103c-0.8478,0.46765 -1.62257,0.68816 -1.73049,0.49251z" stroke="none"/><path d="M251.74984,187.41755c-0.19565,0.10792 -0.73336,-0.49188 -1.20102,-1.33968c-0.46765,-0.84781 -0.68817,-1.62257 -0.49252,-1.73049c0.19565,-0.10792 0.73337,0.49188 1.20102,1.33968c0.46765,0.84781 0.68816,1.62257 0.49251,1.73049z" stroke="none"/><path d="M249.83918,183.95377c-0.19565,0.10792 -0.73336,-0.49188 -1.20102,-1.33968c-0.46765,-0.84781 -0.68817,-1.62257 -0.49252,-1.73049c0.19565,-0.10792 0.73337,0.49188 1.20103,1.33968c0.46765,0.84781 0.68816,1.62257 0.49251,1.73049z" stroke="none"/></g><g data-paper-data="{&quot;index&quot;:null}" fill="#82cc81"><path d="M237.55145,187.34341l-1.58583,5.12318l-1.15011,-0.35601l1.58583,-5.12318z" stroke="#000000"/><path d="M234.87741,190.74209c0.76085,-0.41969 1.71787,-0.14313 2.13756,0.61772c0.41969,0.76085 0.14313,1.71788 -0.61772,2.13757c-0.76085,0.41969 -1.71787,0.14312 -2.13756,-0.61773c-0.41969,-0.76085 -0.14313,-1.71787 0.61772,-2.13756z" stroke="#000000"/><path d="M237.94872,191.56347c-0.84781,0.46765 -1.62257,0.68817 -1.73049,0.49252c-0.10792,-0.19565 0.49188,-0.73337 1.33968,-1.20102c0.84781,-0.46765 1.62256,-0.68816 1.73049,-0.49251c0.10792,0.19565 -0.49187,0.73336 -1.33968,1.20102z" stroke="none"/><path d="M233.79002,193.70343c-0.84781,0.46765 -1.62257,0.68816 -1.73049,0.49251c-0.10792,-0.19565 0.49188,-0.73336 1.33968,-1.20102c0.84781,-0.46765 1.62257,-0.68817 1.73049,-0.49252c0.10792,0.19565 -0.49188,0.73337 -1.33968,1.20103z" stroke="none"/><path d="M236.32525,194.20448c-0.46765,-0.84781 -0.68816,-1.62257 -0.49251,-1.73049c0.19565,-0.10792 0.73337,0.49188 1.20102,1.33968c0.46765,0.84781 0.68816,1.62257 0.49251,1.73049c-0.19565,0.10792 -0.73337,-0.49188 -1.20102,-1.33968z" stroke="none"/><path d="M234.41458,190.7407c-0.46765,-0.84781 -0.68816,-1.62257 -0.49251,-1.73049c0.19565,-0.10792 0.73337,0.49187 1.20102,1.33968c0.46765,0.84781 0.68817,1.62258 0.49252,1.7305c-0.19565,0.10792 -0.73337,-0.49188 -1.20103,-1.33968z" stroke="none"/></g></g><g fill="#000000" stroke="#000000" stroke-width="0"><path d="M200.82642,198.55891l-1.49615,-7.98841c0,0 2.72622,-3.87703 4.72568,-5.11121c2.27673,-1.40535 8.21123,-2.87428 8.21123,-2.87428l1.49615,7.9884c0,0 -5.07359,0.45141 -7.18187,1.75278c-2.2001,1.35805 -5.75504,6.23272 -5.75504,6.23272z"/><path d="M212.84134,193.67769l-2.50266,-13.36243l9.01911,4.80978z"/></g><g fill="#e08b4c" stroke="#000000" stroke-width="0"><path d="M200.82642,197.67229l-1.49615,-7.98841c0,0 2.72622,-3.87703 4.72568,-5.11121c2.27673,-1.40535 8.21123,-2.87429 8.21123,-2.87429l1.49615,7.98841c0,0 -5.07359,0.45141 -7.18187,1.75278c-2.2001,1.35805 -5.75504,6.23272 -5.75504,6.23272z"/><path d="M212.84134,192.79107l-2.50266,-13.36243l9.01911,4.80978z"/></g><path d="M199.33311,215.64495v-55.95447h58.35927v55.95447z" fill="none" stroke="#ff0000" stroke-width="0"/></g></g></svg>