<svg version="1.1" xmlns="http://www.w3.org/2000/svg" xmlns:xlink="http://www.w3.org/1999/xlink" width="286" height="286" viewBox="0,0,286,286"><g transform="translate(-97,-37)"><g data-paper-data="{&quot;isPaintingLayer&quot;:true}" fill-rule="nonzero" stroke-width="0" stroke-linecap="butt" stroke-linejoin="miter" stroke-miterlimit="10" stroke-dasharray="" stroke-dashoffset="0" style="mix-blend-mode: normal"><g><path d="M229.8623,189.89192c0,-2.84516 0,-16.53453 0,-20.60529c0,-0.72432 0.48587,-1.14412 1.30417,-1.14412c3.98378,0 15.84663,0 17.8858,0c0.58458,0 1.08543,0.29994 1.08543,0.83033c0,3.64213 0,18.15089 0,21.02367c0,0.9604 -0.86993,1.86099 -2.23598,1.86099c-4.37176,0 -13.82483,0 -16.10768,0c-0.9723,0 -1.93174,-0.95807 -1.93174,-1.96559z" fill="#000000" stroke="#000000"/><path d="M232.84054,174.84801v-2.5256h14.46477v2.5256z" fill="#4c4c4c" stroke="none"/><path d="M232.94459,180.58292v-6.06654h14.32955v6.06654z" fill="#45cc6a" stroke="#000000"/></g><path d="M97,323v-286h286v286z" fill="none" stroke="#000000"/></g></g></svg>