<svg version="1.1" xmlns="http://www.w3.org/2000/svg" xmlns:xlink="http://www.w3.org/1999/xlink" width="258" height="258" viewBox="0,0,258,258"><defs><linearGradient x1="250.45838" y1="200.30398" x2="250.45838" y2="204.08234" gradientUnits="userSpaceOnUse" id="color-1"><stop offset="0" stop-color="#edafbc"/><stop offset="1" stop-color="#d29ca8"/></linearGradient><linearGradient x1="206.55369" y1="168.63091" x2="207.36848" y2="167.73901" gradientUnits="userSpaceOnUse" id="color-2"><stop offset="0" stop-color="#fc9950"/><stop offset="1" stop-color="#fc9950" stop-opacity="0"/></linearGradient><linearGradient x1="207.82391" y1="164.34672" x2="208.67432" y2="167.02859" gradientUnits="userSpaceOnUse" id="color-3"><stop offset="0" stop-color="#52e6ff"/><stop offset="1" stop-color="#52e6ff" stop-opacity="0"/></linearGradient><linearGradient x1="208.04012" y1="165.02855" x2="208.83288" y2="167.5286" gradientUnits="userSpaceOnUse" id="color-4"><stop offset="0" stop-color="#a0ff52" stop-opacity="0"/><stop offset="1" stop-color="#a0ff52"/></linearGradient><linearGradient x1="205.55407" y1="166.84551" x2="208.30168" y2="167.45063" gradientUnits="userSpaceOnUse" id="color-5"><stop offset="0" stop-color="#ff5252"/><stop offset="1" stop-color="#ff5252" stop-opacity="0"/></linearGradient><linearGradient x1="206.25261" y1="166.99935" x2="208.81395" y2="167.56345" gradientUnits="userSpaceOnUse" id="color-6"><stop offset="0" stop-color="#ffb652" stop-opacity="0"/><stop offset="1" stop-color="#ffb652"/></linearGradient><linearGradient x1="205.18152" y1="167.89407" x2="205.86766" y2="167.143" gradientUnits="userSpaceOnUse" id="color-7"><stop offset="0" stop-color="#ff5353"/><stop offset="1" stop-color="#ff5353" stop-opacity="0"/></linearGradient><linearGradient x1="205.90665" y1="168.2551" x2="206.72144" y2="167.3632" gradientUnits="userSpaceOnUse" id="color-8"><stop offset="0" stop-color="#ff6f51"/><stop offset="1" stop-color="#ff6f51" stop-opacity="0"/></linearGradient><linearGradient x1="207.1777" y1="169.24403" x2="208.29268" y2="168.02354" gradientUnits="userSpaceOnUse" id="color-9"><stop offset="0" stop-color="#ffb652"/><stop offset="1" stop-color="#ffb652" stop-opacity="0"/></linearGradient></defs><g transform="translate(-111,-51)"><g data-paper-data="{&quot;isPaintingLayer&quot;:true}" stroke-miterlimit="10" stroke-dasharray="" stroke-dashoffset="0" style="mix-blend-mode: normal"><g fill="#eac623" fill-rule="nonzero" stroke-width="0" stroke-linecap="butt" stroke-linejoin="miter"><path d="M232.66223,214.23034v-13.525h1.97673v13.525z" stroke="#ff0000"/><path d="M242.54588,216.57121c0,0.66078 -2.02621,-0.98837 -4.52567,-0.98837c-2.49946,0 -4.52567,-0.22355 -4.52567,-0.88433c0,-0.66078 2.02621,-1.19644 4.52567,-1.19644c2.49946,0 4.52567,2.40836 4.52567,3.06913z" stroke="#ff0000"/><path d="M235.15916,214.54246c0,0.68951 -1.99051,0.72827 -4.31759,0.72827c-2.32708,0 -4.00548,1.62585 -4.00548,0.93635c0,-0.68951 1.78243,-2.91308 4.10952,-2.91308c2.32708,0 4.21356,0.55896 4.21356,1.24846z" stroke="none"/><path d="M232.65878,216.19141c-1.89252,1.19999 -2.97866,3.30706 -3.34788,2.72475c-0.36923,-0.58231 0.61071,-3.06751 2.50323,-4.2675c1.89252,-1.19999 3.98097,-0.66035 4.3502,-0.07803c0.36923,0.58231 -1.61303,0.4208 -3.50555,1.62078z" stroke="none"/></g><path d="M262.48892,169.55283c12.77811,3.87722 15.67963,28.05345 15.67963,28.05345c0,0 -1.35752,-3.27909 -14.13565,-7.15632c-3.62308,-1.09934 -7.12241,2.71164 -11.32979,2.05163c-5.90218,-0.92587 -7.53564,-5.7366 -11.41188,-8.50744c-3.10599,-2.22024 -9.21877,-2.19503 -8.43001,-4.79452c2.47482,-8.15625 16.84958,-13.52403 29.6277,-9.6468z" fill="#72559d" fill-rule="nonzero" stroke="#33943a" stroke-width="0" stroke-linecap="butt" stroke-linejoin="miter"/><path d="M218.46773,187.69905c0.06451,-1.74661 1.10404,-6.87517 0.33094,-11.36374c-0.83826,-4.86679 -3.47832,-9.24288 -2.94649,-14.78092c0.94575,-9.84827 6.37181,-18.71954 13.79768,-17.6306c19.15961,2.80958 5.74588,27.96491 8.58562,27.35137c2.66158,-0.57505 4.66749,-3.07692 11.40116,-2.84868c14.24589,0.48286 28.63382,15.57294 28.31631,27.18742c-0.16724,6.11765 -16.12508,10.1663 -28.62626,9.4789c-14.29323,-0.78594 -31.38727,-3.08868 -30.85894,-17.39374z" fill="#edafbc" fill-rule="nonzero" stroke="#33943a" stroke-width="0" stroke-linecap="butt" stroke-linejoin="miter"/><g fill-rule="nonzero" stroke="#000000" stroke-width="0" stroke-linecap="butt" stroke-linejoin="miter"><path d="M223.85556,150.21915c0.22778,2.26814 -1.40527,4.34479 -3.64754,4.63834c-2.24227,0.29355 -4.24464,-1.30719 -4.47241,-3.57531c-0.22778,-2.26814 1.40527,-4.34478 3.64754,-4.63833c2.24227,-0.29355 4.24464,1.30719 4.47242,3.57531z" fill="#ffffff"/><path d="M219.70447,153.8066c-1.67326,0.21905 -3.16749,-0.97547 -3.33745,-2.66803c-0.16999,-1.69256 1.04866,-3.24224 2.72192,-3.46129c1.67324,-0.21905 3.16746,0.97547 3.33745,2.66803c0.16996,1.69256 -1.04868,3.24223 -2.72192,3.46129z" fill="#000000"/></g><g fill-rule="nonzero" stroke="#000000" stroke-width="0" stroke-linecap="butt" stroke-linejoin="miter"><path d="M235.0224,153.99168c0.23143,2.30449 -1.42779,4.41441 -3.70599,4.71266c-2.2782,0.29825 -4.31266,-1.32814 -4.54408,-3.6326c-0.23143,-2.30449 1.42779,-4.41441 3.70599,-4.71266c2.2782,-0.29825 4.31266,1.32814 4.54408,3.6326z" fill="#ffffff"/><path d="M233.19681,153.9331c0.17269,1.71968 -1.06549,3.29418 -2.76554,3.51675c-1.70007,0.22256 -3.21824,-0.99107 -3.39093,-2.71075c-0.17271,-1.71968 1.06546,-3.29418 2.76553,-3.51675c1.70007,-0.22256 3.21822,0.9911 3.39093,2.71078z" fill="#000000"/></g><path d="M229.36282,144.19242c0,0 -0.33224,-2.69933 -0.10041,-3.7319c0.28909,-1.28757 1.7014,-3.39871 1.7014,-3.39871l0.59422,0.13341c0,0 -1.35973,3.06877 -1.65407,4.37974c-0.21123,0.94084 0.0531,2.75087 0.0531,2.75087z" fill="#000000" fill-rule="nonzero" stroke="#33943a" stroke-width="0" stroke-linecap="butt" stroke-linejoin="miter"/><path d="M230.56215,143.96179c0,0 0.21898,-3.48812 0.75609,-4.7375c0.66976,-1.55793 2.95311,-3.89037 2.95311,-3.89037l0.71898,0.30909c0,0 -2.44349,3.55446 -3.12544,5.1407c-0.48939,1.13839 -0.58375,3.48716 -0.58375,3.48716z" fill="#000000" fill-rule="nonzero" stroke="#33943a" stroke-width="0" stroke-linecap="butt" stroke-linejoin="miter"/><path d="M232.02106,144.14269c0,0 0.88593,-2.57138 1.54735,-3.39748c0.82476,-1.03013 3.02021,-2.30744 3.02021,-2.30744l0.47542,0.38062c0,0 -2.56843,2.1609 -3.40818,3.20975c-0.60267,0.75274 -1.15939,2.49519 -1.15939,2.49519z" fill="#000000" fill-rule="nonzero" stroke="#33943a" stroke-width="0" stroke-linecap="butt" stroke-linejoin="miter"/><path d="M221.81662,166.99281c0.51413,2.04934 -2.58342,4.59232 -6.91858,5.6799c-4.33515,1.08757 -9.13594,-0.13524 -9.13594,-0.13524c0,0 4.47207,-7.94843 8.80723,-9.036c4.33515,-1.08757 6.73317,1.44201 7.24729,3.49136z" fill="#debb21" fill-rule="nonzero" stroke="#ff0000" stroke-width="0" stroke-linecap="butt" stroke-linejoin="miter"/><path d="M256.24793,173.1484c14.13592,0.52209 23.63464,24.50368 23.63464,24.50368c0,0 -2.27579,-2.99246 -16.41174,-3.51454c-4.00807,-0.14803 -6.56381,4.70041 -11.0518,5.16015c-6.29583,0.64492 -9.26776,-3.84197 -13.9864,-5.63386c-3.78099,-1.43581 -10.03579,0.2402 -9.92958,-2.63552c0.33324,-9.02294 13.60893,-18.40199 27.74487,-17.8799z" fill="#906bc7" fill-rule="nonzero" stroke="#33943a" stroke-width="0" stroke-linecap="butt" stroke-linejoin="miter"/><g fill="#ffd726" fill-rule="nonzero" stroke-width="0" stroke-linecap="butt" stroke-linejoin="miter"><path d="M249.4312,218.64995v-17.00291h2.48504v17.00291z" stroke="#ff0000"/><path d="M261.8564,221.59277c0,0.83069 -2.54725,-1.24252 -5.68943,-1.24252c-3.14219,0 -5.68943,-0.28104 -5.68943,-1.11173c0,-0.83069 2.54725,-1.5041 5.68943,-1.5041c3.14219,0 5.68943,3.02766 5.68943,3.85835z" stroke="#ff0000"/><path d="M252.57019,219.04233c0,0.86681 -2.50237,0.91554 -5.42785,0.91554c-2.92549,0 -5.03548,2.04393 -5.03548,1.17712c0,-0.86681 2.24078,-3.66216 5.16627,-3.66216c2.92549,0 5.29706,0.70269 5.29706,1.5695z" stroke="none"/><path d="M249.42685,221.11531c-2.37918,1.50856 -3.74461,4.15747 -4.20878,3.42541c-0.46417,-0.73206 0.76775,-3.85632 3.14693,-5.36488c2.37918,-1.50856 5.00467,-0.83015 5.46884,-0.0981c0.46417,0.73206 -2.02781,0.529 -4.40699,2.03756z" stroke="none"/></g><path d="M247.86503,203.4097l-5.59689,-3.29609c0,0 6.95979,0.19037 7.73569,0.19037c0.92624,0 10.84358,-1.05656 10.84358,-1.05656l-7.79567,4.16227l-0.98046,-0.41765l-0.92302,1.08416l-1.10276,-1.07457l-0.88248,1.08071z" fill="url(#color-1)" fill-rule="nonzero" stroke="#ff0000" stroke-width="0" stroke-linecap="butt" stroke-linejoin="miter"/><path d="M111,309v-258h258v258z" fill="none" fill-rule="nonzero" stroke="#ff0000" stroke-width="0" stroke-linecap="butt" stroke-linejoin="miter"/><g><g><path d="M211.61947,161.76012c-1.08448,2.63674 -3.19581,2.97932 -5.27478,2.12425c-2.07897,-0.85507 -3.63521,-2.38407 -2.55074,-5.02081c1.08448,-2.63674 4.39901,-5.38272 6.47797,-4.52766c2.07897,0.85507 2.43202,4.78748 1.34754,7.42422z" fill="#f7f4d5" fill-rule="nonzero" stroke="#ff0000" stroke-width="0" stroke-linecap="butt" stroke-linejoin="miter"/><g fill-rule="evenodd" stroke-width="0.25"><path d="M210.32256,155.91177c0.02951,-0.00801 0.06703,0.01348 0.06431,0.04834l-0.07872,0.93047c0,0 0.38828,0.55014 0.45232,0.86665c0.10941,0.52841 -0.0036,0.893 -0.0036,0.893c0,0 0.51452,0.35987 0.4577,0.85057c-0.05681,0.4907 -0.70119,1.24091 -2.31268,1.03277c-1.61149,-0.20814 -2.68869,-1.02447 -2.95305,-2.13229c-0.26435,-1.10781 1.00222,-1.9003 0.93245,-1.8521l0.31261,-1.49607c0.00272,-0.03486 0.051,-0.04554 0.07779,-0.01869l0.76062,0.96083c0,0 0.40764,-0.01567 0.791,0.09467c0.23056,0.05923 0.4182,0.13988 0.59241,0.23391z" fill="#ffab19" stroke="#001026" stroke-linecap="butt" stroke-linejoin="miter"/><path d="M210.72199,158.67433c0,0 0.5065,0.33037 0.44969,0.82106c-0.05681,0.4907 -0.71991,1.18993 -2.31263,0.97914c-2.08074,-0.24885 -2.61826,-1.71628 -1.79429,-2.38855c0.82666,-0.6803 1.50674,0.36089 2.19844,0.53859c0.5925,0.15346 0.8263,-0.33169 1.45879,0.04976z" fill="#ffffff" stroke="none" stroke-linecap="butt" stroke-linejoin="miter"/><path d="M207.90083,158.68753c0.01076,-0.03217 0.051,-0.04554 0.08048,-0.02674c0.13398,0.1074 0.52523,0.38134 0.997,0.57491c0.42621,0.16938 0.69164,0.23133 0.82035,0.24755c0.0429,0.0054 0.06162,0.05638 0.03209,0.09121c-0.14501,0.19293 -0.65236,0.69389 -1.48067,0.36319c-0.70495,-0.32521 -0.60518,-0.86413 -0.44925,-1.25013z" fill="#ffffff" stroke="#001026" stroke-linecap="round" stroke-linejoin="round"/><path d="M212.17219,159.25774c-0.48021,0.17918 -1.06195,-0.00645 -1.06195,-0.00645" fill="none" stroke="#001026" stroke-linecap="round" stroke-linejoin="round"/><path d="M211.76637,160.12351c-0.52012,-0.12925 -0.78266,-0.38697 -0.78266,-0.38697" fill="none" stroke="#001026" stroke-linecap="round" stroke-linejoin="round"/><path d="M209.30097,158.4047c0.16889,0.05649 0.34044,0.13175 0.32965,0.19074c-0.02962,0.11528 -0.22557,0.30012 -0.35694,0.26512c-0.15014,-0.03233 -0.42067,-0.34637 -0.37763,-0.47505c0.02424,-0.0992 0.24407,-0.03461 0.40491,0.01919z" fill="#001026" stroke="#001026" stroke-linecap="round" stroke-linejoin="round"/><path d="M205.72226,157.0736c0,0 0.61632,0.45652 0.81442,0.79998" fill="none" stroke="#001026" stroke-linecap="round" stroke-linejoin="round"/><path d="M206.46665,158.16313c-0.39155,0.02105 -0.9571,-0.26647 -0.9571,-0.26647" fill="none" stroke="#001026" stroke-linecap="round" stroke-linejoin="round"/><g><path d="M210.56468,157.78116c0.11218,0.43991 -0.01696,0.85276 -0.29057,0.92221c-0.2736,0.06944 -0.58706,-0.22318 -0.70729,-0.66578c-0.11218,-0.43991 0.01696,-0.85276 0.29057,-0.9222c0.2763,-0.07749 0.59511,0.22587 0.70729,0.66578z" fill="#ffffff" stroke="#001026" stroke-linecap="round" stroke-linejoin="round"/><path d="M210.37919,158.22881c-0.02959,0.08847 -0.11814,0.13933 -0.19856,0.11243c-0.08042,-0.0269 -0.12056,-0.1208 -0.09096,-0.20926c0.02959,-0.08847 0.11814,-0.13933 0.19856,-0.11243c0.08042,0.0269 0.12055,0.1208 0.09096,0.20926" fill="#001026" stroke="none" stroke-linecap="butt" stroke-linejoin="miter"/></g><g><path d="M208.49486,157.33924c0.12291,0.43456 -0.03843,0.86347 -0.30668,0.94364c-0.3165,0.06403 -0.63271,-0.16691 -0.75562,-0.60148c-0.13096,-0.43725 0.00628,-0.90104 0.31477,-0.99459c0.31118,-0.10159 0.62461,0.21786 0.74753,0.65242z" fill="#ffffff" stroke="#001026" stroke-linecap="round" stroke-linejoin="round"/><path d="M208.29059,157.78956c-0.02959,0.08847 -0.11814,0.13933 -0.19856,0.11243c-0.08042,-0.0269 -0.12056,-0.1208 -0.09096,-0.20926c0.02959,-0.08847 0.11814,-0.13933 0.19856,-0.11243c0.07773,0.03494 0.12055,0.1208 0.09096,0.20926" fill="#001026" stroke="none" stroke-linecap="butt" stroke-linejoin="miter"/></g></g><path d="M211.61947,161.76012c-1.08448,2.63674 -3.19581,2.97932 -5.27478,2.12425c-2.07897,-0.85507 -3.63521,-2.38407 -2.55074,-5.02081c1.08448,-2.63674 4.39901,-5.38272 6.47797,-4.52766c2.07897,0.85507 2.43202,4.78748 1.34754,7.42422z" fill-opacity="0.64516" fill="#f7f4d5" fill-rule="nonzero" stroke="#ff0000" stroke-width="0" stroke-linecap="butt" stroke-linejoin="miter"/><path d="M204.48662,159.59886c0.16348,-0.39747 0.61821,-0.58715 1.01567,-0.42368c0.39747,0.16348 0.58715,0.6182 0.42368,1.01567c-0.16348,0.39747 -0.6182,0.58715 -1.01567,0.42368c-0.39747,-0.16348 -0.58715,-0.61821 -0.42368,-1.01568z" fill="#c8c6ac" fill-rule="nonzero" stroke="none" stroke-width="0" stroke-linecap="butt" stroke-linejoin="miter"/><path d="M203.98545,162.14439l-0.36862,-0.65191c0,0 2.07203,-0.92061 3.76123,-0.85887c0.77547,0.02835 1.32615,1.13776 1.81506,1.08322c0.95282,-0.10631 2.86122,-1.16579 2.86122,-1.16579c0,0 -0.29058,0.87948 -0.45714,1.26441c-0.13124,0.30328 -0.46175,0.85916 -0.46175,0.85916c0,0 -1.68075,0.30321 -2.61636,0.23383c-0.51813,-0.03842 -1.05021,-0.95911 -1.84569,-1.09855c-1.2244,-0.21463 -2.68795,0.3345 -2.68795,0.3345z" fill="#c8c6ac" fill-rule="nonzero" stroke="none" stroke-width="0" stroke-linecap="butt" stroke-linejoin="miter"/><path d="M209.08107,154.62077c0.05744,-0.13965 0.21721,-0.20629 0.35686,-0.14886c0.13965,0.05744 0.20629,0.21721 0.14886,0.35686c-0.05744,0.13965 -0.21721,0.20629 -0.35686,0.14886c-0.13965,-0.05744 -0.20629,-0.21721 -0.14886,-0.35686z" fill="#c8c6ac" fill-rule="nonzero" stroke="none" stroke-width="0" stroke-linecap="butt" stroke-linejoin="miter"/><path d="M209.8191,155.03802c0.0972,-0.23633 0.36758,-0.34912 0.60391,-0.25192c0.23633,0.0972 0.34912,0.36758 0.25192,0.60391c-0.0972,0.23633 -0.36758,0.34912 -0.60391,0.25192c-0.23633,-0.0972 -0.34912,-0.36758 -0.25192,-0.60391z" fill="#c8c6ac" fill-rule="nonzero" stroke="none" stroke-width="0" stroke-linecap="butt" stroke-linejoin="miter"/><path d="M207.44295,163.24807c0.07953,-0.19336 0.30075,-0.28564 0.49411,-0.20611c0.19336,0.07953 0.28564,0.30075 0.20611,0.49411c-0.07953,0.19336 -0.30075,0.28564 -0.49411,0.20611c-0.19336,-0.07953 -0.28564,-0.30075 -0.20611,-0.49411z" fill="#c8c6ac" fill-rule="nonzero" stroke="none" stroke-width="0" stroke-linecap="butt" stroke-linejoin="miter"/></g><g fill-rule="nonzero" stroke-width="0" stroke-linecap="butt" stroke-linejoin="miter"><path d="M209.98308,165.29868c-0.07472,2.85007 -1.92576,3.92186 -4.17293,3.86295c-2.24717,-0.05891 -4.2458,-0.9337 -4.17108,-3.78377c0.07472,-2.85007 2.19448,-6.59615 4.44165,-6.53724c2.24717,0.05891 3.97707,3.60799 3.90235,6.45806z" fill="#f744b6" stroke="#ff0000"/><path d="M202.33001,162.59326l0.57471,-1.29801c0,0 0.27871,3.20247 1.30943,3.94047c0.79278,0.56764 1.79749,-0.33796 3.12563,-0.02376c0.88678,0.20979 2.36811,1.74569 2.36811,1.74569l-0.5646,0.91208c0,0 -1.32103,-1.05881 -2.85554,-1.42992c-1.03849,-0.25115 -2.31233,0.26955 -2.81322,-0.10509c-0.75598,-0.56544 -1.14452,-3.74145 -1.14452,-3.74145z" fill="#d23b9b" stroke="#ff0000"/><path d="M206.05574,161.77376c0.01609,-0.61386 0.52677,-1.09845 1.14063,-1.08236c0.61386,0.01609 1.09845,0.52677 1.08236,1.14063c-0.01609,0.61386 -0.52677,1.09845 -1.14063,1.08236c-0.61386,-0.01609 -1.09845,-0.52677 -1.08236,-1.14063z" fill="#d23b9b" stroke="#ff0000"/><path d="M204.42085,162.26386c0.00905,-0.34529 0.29631,-0.61788 0.64161,-0.60883c0.34529,0.00905 0.61788,0.29631 0.60882,0.64161c-0.00905,0.34529 -0.29631,0.61788 -0.64161,0.60883c-0.34529,-0.00905 -0.61788,-0.29631 -0.60882,-0.64161z" fill="#d23b9b" stroke="none"/><path d="M207.19793,164.16725c0.00738,-0.28135 0.24144,-0.50346 0.52279,-0.49608c0.28135,0.00738 0.50346,0.24144 0.49608,0.52279c-0.00738,0.28135 -0.24144,0.50346 -0.52279,0.49608c-0.28135,-0.00738 -0.50346,-0.24144 -0.49608,-0.52279z" fill="#d23b9b" stroke="none"/></g><g fill-rule="nonzero" stroke-linejoin="miter"><path d="M210.66247,167.68525c-2.7855,-0.60785 -3.49117,-2.62703 -3.01191,-4.82329c0.47926,-2.19626 1.71332,-3.99539 4.49882,-3.38755c2.7855,0.60785 6.06762,3.39248 5.58836,5.58873c-0.47926,2.19626 -4.28978,3.22994 -7.07527,2.62209z" fill="#f08129" stroke="#ff0000" stroke-width="0" stroke-linecap="butt"/><path d="M211.54619,160.28474c0.41989,0.09162 0.686,0.5063 0.59437,0.92618c-0.09162,0.41989 -0.50628,0.686 -0.92618,0.59437c-0.41989,-0.09162 -0.686,-0.50628 -0.59437,-0.92618c0.09162,-0.41989 0.5063,-0.686 0.92618,-0.59437z" fill="#d37324" stroke="none" stroke-width="0" stroke-linecap="butt"/><path d="M208.95228,160.23534l0.57761,-0.4767c0,0 1.26798,1.87964 1.50188,3.55372c0.10738,0.76852 -0.88896,1.50431 -0.74995,1.9762c0.27091,0.91966 1.64708,2.61397 1.64708,2.61397c0,0 -0.91669,-0.13269 -1.32477,-0.22955c-0.32153,-0.07631 -0.92654,-0.30478 -0.92654,-0.30478c0,0 -0.59178,-1.60207 -0.68669,-2.53545c-0.05256,-0.51689 0.76118,-1.20143 0.7597,-2.00904c-0.00227,-1.24307 -0.7983,-2.58837 -0.7983,-2.58837z" fill="#d37324" stroke="none" stroke-width="0" stroke-linecap="butt"/><path d="M217.24949,163.94026c0.14753,0.03219 0.24103,0.17788 0.20883,0.32542c-0.03219,0.14753 -0.17788,0.24103 -0.32542,0.20883c-0.14753,-0.03219 -0.24103,-0.17788 -0.20883,-0.32542c0.03219,-0.14753 0.17788,-0.24103 0.32542,-0.20883z" fill="#d37324" stroke="none" stroke-width="0" stroke-linecap="butt"/><path d="M216.9674,164.73977c0.24966,0.05448 0.4079,0.30104 0.35341,0.5507c-0.05448,0.24966 -0.30104,0.4079 -0.5507,0.35341c-0.24966,-0.05448 -0.4079,-0.30104 -0.35341,-0.5507c0.05448,-0.24966 0.30104,-0.4079 0.5507,-0.35341z" fill="#d37324" stroke="none" stroke-width="0" stroke-linecap="butt"/><path d="M208.46871,163.83237c0.20427,0.04457 0.33372,0.2463 0.28915,0.45057c-0.04457,0.20427 -0.2463,0.33372 -0.45057,0.28915c-0.20427,-0.04457 -0.33372,-0.2463 -0.28915,-0.45057c0.04457,-0.20427 0.2463,-0.33372 0.45057,-0.28915z" fill="#d37324" stroke="none" stroke-width="0" stroke-linecap="butt"/><g stroke-width="0.15"><path d="M215.48788,162.19261c0,0 0.192,0.063 0.57635,0.50175c0.38415,0.43852 0.4931,0.88934 0.58992,1.19024c0.09682,0.3009 0.67881,0.5432 0.67881,0.5432c0,0 -0.35485,0.24246 -0.68001,0.49474c-0.3316,0.25745 -0.65408,0.89198 -1.41598,1.5395c-0.0912,0.07725 -0.18538,0.14162 -0.28097,0.19445l-0.01157,0.01129c-0.14834,0.14635 -0.73472,0.66058 -1.51977,0.52762c-0.59807,-0.10145 -0.76708,-0.39014 -0.80787,-0.52691l-0.00433,-0.00142c0.13017,0.07895 0.27077,0.13086 0.41524,0.16149c0.4778,0.10107 0.81173,-0.13461 1.24456,-0.26867c0.56131,-0.1738 0.9137,-0.74138 0.9581,-1.50837c0.08473,-1.45972 -0.70967,-1.84456 -0.70967,-1.84456l-0.01054,-0.00191c-0.52321,0.23126 -1.64545,0.25248 -1.93565,-0.32714c-0.31209,-0.6243 -0.11817,-1.49758 1.29401,-1.73357c1.29243,-0.21602 1.61846,0.75768 1.59358,1.03469l0.0258,0.01358v0v0zM214.956,166.65643c0,0 -0.63735,0.33509 -1.37847,0.15214M215.46214,162.17899c-0.02812,0.26756 -0.23405,0.43231 -0.23405,0.43231M214.51025,163.205c0.07391,-0.03965 0.13433,-0.06661 0.13433,-0.06661" fill="#f05a28" stroke="#000000" stroke-linecap="round"/><path d="M212.81209,166.76687c0,0 0.20953,0.13772 0.60445,0.25041c0.39518,0.11261 0.94958,0.04664 0.94958,0.04664c-0.25495,0.11574 -0.57662,0.19338 -0.94148,0.13179c-0.58276,-0.09855 -0.76167,-0.38653 -0.80787,-0.52702l0.19532,0.09817v0v0z" fill="#404041" stroke="#000000" stroke-linecap="butt"/><g stroke="#231f20"><path d="M213.74263,161.1661v0v0c0.24252,-0.04304 0.6174,-0.06772 0.9018,0.00413c0.29349,0.0739 0.47261,0.26385 0.50434,0.46003c0.05977,0.36734 -0.49383,0.76262 -1.23624,0.88326c-0.6998,0.11347 -1.31749,-0.05712 -1.43646,-0.3847c0,0 -0.00512,-0.10464 0.12597,-0.30477c0.13093,-0.19999 0.3419,-0.36528 0.47497,-0.42905c0.13294,-0.06398 0.42261,-0.18579 0.66561,-0.2289z" fill="#404041" stroke-linecap="butt"/><path d="M214.33105,161.43721c0.0486,0.14331 -0.20864,0.36007 -0.57479,0.48419c-0.36588,0.12399 -0.70225,0.10848 -0.75081,-0.03467c-0.04849,-0.14341 0.20885,-0.36005 0.57489,-0.48408c0.366,-0.12424 0.70211,-0.10864 0.75072,0.03456v0v0zM213.05865,161.95172c0.40642,-0.54286 1.2778,-0.46857 1.2778,-0.46857" fill="#929497" stroke-linecap="round"/></g><path d="M212.54544,162.82782v0v0l0.0042,-0.00278c0.00791,0.01777 0.01626,0.03536 0.02492,0.05277c0.29055,0.58037 1.41544,0.55822 1.93752,0.32625l0.00866,0.0029c0,0 0.79451,0.38485 0.7097,1.84487c-0.0444,0.767 -0.39679,1.33447 -0.9581,1.50832c-0.43288,0.13401 -0.76682,0.36979 -1.24456,0.26862c-0.49719,-0.10547 -0.95206,-0.46376 -1.08327,-1.30585c-0.13188,-0.84215 -0.02932,-0.80069 -0.1268,-1.08712c-0.09815,-0.28643 0.01728,-0.20254 0.13372,-0.55077c0.17537,-0.52584 0.54317,-0.99397 0.59401,-1.05721z" fill="#e6e7e8" stroke="#000000" stroke-linecap="round"/><path d="M212.48265,165.05432c0.00685,-0.65628 0.86152,-0.66305 0.86152,-0.66305c0,0 -0.01721,0.37405 -0.02484,0.85788c-0.00783,0.48372 -0.04649,0.59683 -0.04649,0.59683c0,0 -0.79699,-0.13554 -0.79019,-0.79167z" fill="#ffffff" stroke="#000000" stroke-linecap="round"/><path d="M213.73882,166.14796c0.00063,-0.00811 0.0024,-0.01619 0.00535,-0.02433c0.0171,-0.04511 0.0677,-0.06798 0.11284,-0.05067c0.02108,0.00789 0.04326,0.01097 0.06582,0.00915c0.08477,-0.00667 0.14819,-0.0833 0.14147,-0.16885c-0.00679,-0.08649 -0.0814,-0.15134 -0.16632,-0.14474c-0.04818,0.00379 -0.09031,-0.03224 -0.09405,-0.08047c-0.00376,-0.04854 0.03214,-0.09032 0.08047,-0.09405c0.18098,-0.01432 0.34011,0.12268 0.35463,0.30554c0.01389,0.18249 -0.12133,0.34274 -0.30223,0.35737c-0.0486,0.00381 -0.09627,-0.00296 -0.14172,-0.02029c-0.03717,-0.01415 -0.05921,-0.05085 -0.05627,-0.08868v0v0v0z" fill="#000000" stroke="none" stroke-linecap="butt"/><path d="M213.86845,164.48387c0.00063,-0.00806 0.0024,-0.01619 0.00535,-0.02433c0.0171,-0.04516 0.0677,-0.06797 0.11285,-0.05071c0.02108,0.00789 0.04326,0.01096 0.06581,0.00926c0.08478,-0.00673 0.14817,-0.08309 0.14147,-0.1689c-0.00679,-0.08649 -0.0814,-0.15135 -0.16632,-0.14474c-0.04817,0.00373 -0.09031,-0.03224 -0.09404,-0.08048c-0.00376,-0.04854 0.03214,-0.09032 0.08048,-0.0941c0.18098,-0.01427 0.34011,0.12273 0.35463,0.30553c0.01391,0.1822 -0.12134,0.3429 -0.30223,0.35738c-0.0486,0.00381 -0.09627,-0.0029 -0.14172,-0.02024c-0.03717,-0.01415 -0.05921,-0.05085 -0.05627,-0.08869v0v0v0z" fill="#000000" stroke="none" stroke-linecap="butt"/></g><path d="M210.66247,167.68525c-2.7855,-0.60785 -3.49117,-2.62703 -3.01191,-4.82329c0.47926,-2.19626 1.71332,-3.99539 4.49882,-3.38755c2.7855,0.60785 6.06762,3.39248 5.58836,5.58873c-0.47926,2.19626 -4.28978,3.22994 -7.07527,2.62209z" fill-opacity="0.40323" fill="#f08129" stroke="#ff0000" stroke-width="0" stroke-linecap="butt"/></g><g fill-rule="nonzero" stroke-width="0" stroke-linecap="butt" stroke-linejoin="miter"><path d="M219.20504,158.5244c1.35954,2.50602 0.29181,4.3594 -1.68409,5.43135c-1.9759,1.07195 -4.14423,1.31299 -5.50377,-1.19303c-1.35954,-2.50602 -1.39545,-6.81011 0.58044,-7.88206c1.9759,-1.07195 5.24788,1.13773 6.60742,3.64375z" fill="#a33a3a" stroke="#ff0000"/><path d="M213.02473,162.69001c-0.20494,-0.37776 -0.06484,-0.85013 0.31292,-1.05507c0.37776,-0.20494 0.85013,-0.06484 1.05507,0.31292c0.20494,0.37776 0.06484,0.85013 -0.31292,1.05507c-0.37776,0.20494 -0.85013,0.06484 -1.05507,-0.31292z" fill="#7e2d2d" stroke="none"/><path d="M214.68191,164.68616l-0.73826,-0.12589c0,0 0.59473,-2.18795 1.70938,-3.45869c0.51171,-0.58337 1.71967,-0.30972 1.98613,-0.72324c0.5193,-0.80592 0.90303,-2.95469 0.90303,-2.95469c0,0 0.4984,0.78072 0.69167,1.15295c0.15227,0.29328 0.37455,0.9006 0.37455,0.9006c0,0 -0.82633,1.49466 -1.47099,2.17628c-0.357,0.37747 -1.40688,0.20859 -2.01736,0.73731c-0.93965,0.81381 -1.43815,2.29536 -1.43815,2.29536z" fill="#7e2d2d" stroke="none"/><path d="M212.06643,155.98389c-0.07201,-0.13273 -0.02278,-0.29869 0.10994,-0.3707c0.13273,-0.07201 0.29869,-0.02278 0.3707,0.10994c0.07201,0.13273 0.02278,0.29869 -0.10994,0.3707c-0.13273,0.07201 -0.29869,0.02278 -0.3707,-0.10994z" fill="#7e2d2d" stroke="none"/><path d="M212.85603,155.67515c-0.12186,-0.22461 -0.03856,-0.50548 0.18606,-0.62734c0.22461,-0.12186 0.50548,-0.03856 0.62734,0.18606c0.12186,0.22461 0.03856,0.50548 -0.18606,0.62734c-0.22461,0.12186 -0.50548,0.03856 -0.62734,-0.18606z" fill="#7e2d2d" stroke="none"/><path d="M217.72116,162.70236c-0.0997,-0.18377 -0.03154,-0.41357 0.15223,-0.51327c0.18377,-0.0997 0.41357,-0.03154 0.51327,0.15223c0.0997,0.18377 0.03154,0.41357 -0.15223,0.51327c-0.18377,0.0997 -0.41357,0.03154 -0.51327,-0.15223z" fill="#7e2d2d" stroke="none"/><g><path d="M216.3965,158.07532c0.60586,1.0232 0.40411,1.53987 -0.68523,2.18488c-1.08934,0.64502 -2.05369,0.83785 -2.65954,-0.18535c-0.60586,-1.0232 -0.45547,-2.36573 0.63386,-3.01074c1.08934,-0.64502 2.10504,-0.01199 2.7109,1.01121z" fill="#680000" stroke="none"/><g stroke="#000000"><path d="M213.8369,158.74593c0.0304,0.66394 0.06285,1.26494 -0.83636,1.24299c-0.49268,-0.01202 -0.91606,-0.49742 -0.94645,-1.16136c-0.0304,-0.66394 0.34748,-1.18079 0.83636,-1.24299c0.82414,-0.10485 0.91606,0.49742 0.94645,1.16136z" fill="#ffffff"/><path d="M213.304,158.71549c0.05781,0.53038 -0.20204,1.13959 -0.54813,1.17731c-0.34609,0.03772 -0.67556,-0.49365 -0.73336,-1.02403c-0.05781,-0.53038 0.20408,-1.0076 0.55018,-1.04532c0.34609,-0.03772 0.67352,0.36166 0.73133,0.89204z" fill="#000000"/></g><g data-paper-data="{&quot;index&quot;:null}" stroke="#000000"><path d="M214.47574,156.60783c0.2896,-0.39876 0.92448,-0.48159 1.49202,-0.1357c0.56754,0.34589 0.78958,0.95049 0.56324,1.38827c-0.41312,0.79901 -0.92448,0.48159 -1.49202,0.1357c-0.56754,-0.34589 -1.05143,-0.71606 -0.56324,-1.38827z" fill="#ffffff"/><path d="M214.83798,156.44405c0.19948,-0.28533 0.74384,-0.2855 1.18109,0.0202c0.43725,0.3057 0.74476,0.85007 0.54528,1.1354c-0.19948,0.28533 -0.85859,0.22025 -1.29584,-0.08545c-0.43725,-0.3057 -0.63001,-0.78482 -0.43053,-1.07014z" fill="#000000"/></g></g></g><g fill-rule="nonzero" stroke-linecap="butt" stroke-linejoin="miter"><path d="M218.31367,168.80225c-2.51439,1.34399 -4.36113,0.26481 -5.42082,-1.71769c-1.05969,-1.9825 -1.2873,-4.15228 1.22709,-5.49628c2.51439,-1.34399 6.81863,-1.35327 7.87831,0.62923c1.05969,1.9825 -1.17019,5.24074 -3.68458,6.58473z" fill="#48c1f0" stroke="#ff0000" stroke-width="0"/><path d="M214.1864,162.59628c0.37902,-0.2026 0.85052,-0.05957 1.05311,0.31945c0.2026,0.37902 0.05958,0.85051 -0.31945,1.05311c-0.37902,0.2026 -0.85051,0.05958 -1.05311,-0.31945c-0.2026,-0.37902 -0.05957,-0.85052 0.31945,-1.05311z" fill="#4888f0" stroke="none" stroke-width="0"/><path d="M212.18003,164.24107l0.13045,-0.73747c0,0 2.18423,0.60827 3.44804,1.73076c0.58019,0.51531 0.29906,1.72156 0.71093,1.99058c0.80268,0.52428 2.94905,0.9213 2.94905,0.9213c0,0 -0.78379,0.49356 -1.15721,0.68451c-0.29422,0.15045 -0.9029,0.36896 -0.9029,0.36896c0,0 -1.48952,-0.83557 -2.16713,-1.48444c-0.37526,-0.35933 -0.19987,-1.40815 -0.7248,-2.02189c-0.80797,-0.94467 -2.28641,-1.45233 -2.28641,-1.45233z" fill="#4888f0" stroke="none" stroke-width="0"/><path d="M220.89832,161.67951c0.13317,-0.07119 0.29883,-0.02093 0.37001,0.11224c0.07119,0.13317 0.02093,0.29883 -0.11224,0.37001c-0.13317,0.07119 -0.29883,0.02093 -0.37001,-0.11224c-0.07119,-0.13317 -0.02093,-0.29883 0.11224,-0.37001z" fill="#4888f0" stroke="none" stroke-width="0"/><path d="M221.20217,162.47101c0.22537,-0.12046 0.50571,-0.03543 0.62618,0.18994c0.12046,0.22537 0.03543,0.50571 -0.18994,0.62618c-0.22537,0.12046 -0.50571,0.03543 -0.62618,-0.18994c-0.12046,-0.22537 -0.03543,-0.50571 0.18994,-0.62618z" fill="#4888f0" stroke="none" stroke-width="0"/><path d="M214.14497,167.29254c0.18439,-0.09856 0.41376,-0.02898 0.51232,0.15541c0.09856,0.18439 0.02898,0.41376 -0.15541,0.51232c-0.18439,0.09856 -0.41376,0.02898 -0.51232,-0.15541c-0.09856,-0.18439 -0.02898,-0.41376 0.15541,-0.51232z" fill="#4888f0" stroke="none" stroke-width="0"/><g stroke="none" stroke-width="1"><g><g><path d="M217.08827,165.79847c0.49329,0.20884 1.04765,0.25224 1.56476,0.30034c-0.18267,0.35118 -0.74686,0.47937 -1.10229,0.56221c-0.58203,0.13676 -1.28243,0.03614 -1.74569,-0.33422c-0.13991,-0.10847 -0.41123,-0.35802 -0.30598,-0.57323c0.07585,-0.1484 0.35999,-0.14651 0.46932,-0.22974z" fill="#86d0fd"/><path d="M215.96839,165.52383l0.90476,0.21985c0,0 0.42019,0.12977 0.47922,0.14754c0,0 0.09864,0.03168 0.15068,0.04402l0.00621,-0.00079c0.21513,0.05479 0.43411,0.09016 0.65151,0.11311v0c0.16695,0.02303 0.33232,0.03364 0.49848,0.05047c-0.01006,0.0202 -0.07978,0.11735 -0.07978,0.11735c-0.14824,0.02507 -0.30889,0.05171 -0.46491,0.06516c-0.03254,0.04197 -0.16655,0.22927 -0.20373,0.28445c-0.04268,0.01171 -0.09157,0.02421 -0.13425,0.03592c0.08214,-0.09872 0.16192,-0.21607 0.22543,-0.31243c-0.05046,0.00008 -0.10634,0.00715 -0.15681,0.00723c-0.10713,0.00094 -0.23211,0.01045 -0.36407,0.01454c-0.00542,0.00699 -0.24099,0.28917 -0.37202,0.40038c-0.05046,0.00008 -0.10092,0.00015 -0.14517,-0.00055c0.10391,-0.07624 0.19147,-0.18196 0.27518,-0.26826c0.04496,-0.04354 0.08371,-0.0863 0.12246,-0.12906c-0.13897,-0.00134 -0.27329,-0.01588 -0.37971,-0.05919c-0.00621,0.00079 -0.00621,0.00079 -0.00621,0.00079c-0.00542,0.00699 -0.27982,0.28146 -0.44111,0.40282c-0.04504,-0.00692 -0.08387,-0.01462 -0.12348,-0.02853c0.06901,-0.0529 0.13103,-0.11122 0.19383,-0.16333c0.09071,-0.08088 0.18141,-0.16176 0.27212,-0.24264c-0.13983,-0.05801 -0.26566,-0.10517 -0.3915,-0.15233c-0.05117,0.04433 -0.10312,0.08245 -0.1605,0.12756c-0.10933,0.08323 -0.22409,0.17347 -0.3482,0.23965c-0.02719,-0.01548 -0.05439,-0.03097 -0.08237,-0.05267c0.17921,-0.07946 0.34435,-0.22023 0.487,-0.33923c0.00621,-0.00079 0.00542,-0.00699 0.01163,-0.00778c-0.11963,-0.04795 -0.23925,-0.0959 -0.37287,-0.15469c-0.01163,0.00778 -0.29318,0.1759 -0.43128,0.23124c-0.02177,-0.02248 -0.03812,-0.05195 -0.05368,-0.07522c0.13268,-0.04833 0.26221,-0.12151 0.38475,-0.20011c-0.01399,-0.01085 -0.21214,-0.13087 -0.29529,-0.18974c0.01163,-0.00778 0.03026,-0.01014 0.04189,-0.01792c0,0 0.29019,-0.09982 0.30182,-0.1076z" fill="#194ec2" opacity="0.2"/></g><g><path d="M215.33669,164.67008c-0.36777,0.13488 -0.04975,-0.54257 -0.01265,-0.64821c0.09739,-0.2773 0.17835,-0.63453 0.38452,-0.84989c0.23407,-0.24413 0.62204,-0.36894 0.92929,-0.48354c0.42051,-0.16678 0.91946,-0.31195 1.37982,-0.31344c0.27714,-0.00353 0.5792,0.04025 0.84715,0.11359c0.10485,0.03089 0.6409,0.27848 0.63571,0.43686c-0.00362,0.1708 -0.54564,0.07537 -0.63799,0.09337c-0.4804,0.09235 -0.98878,0.163 -1.42627,0.39503c-0.36612,0.19775 -0.63116,0.49627 -0.94438,0.76303c-0.2171,0.17889 -0.42884,0.30032 -0.67007,0.43811l-0.48433,0.0613z" fill="#d8d213"/><g fill="#194ec2" opacity="0.2"><path d="M219.49659,162.8944c0.00157,0.01242 0.00236,0.01863 0.01792,0.04189c-0.00362,0.1708 -0.54564,0.07537 -0.63799,0.09337c-0.4804,0.09235 -0.98878,0.163 -1.42627,0.39503c-0.36612,0.19775 -0.63038,0.50248 -0.94438,0.76303c-0.21631,0.1851 -0.42884,0.30032 -0.67007,0.43811l-0.49054,0.06209c-0.01242,0.00157 -0.02405,0.00936 -0.03647,0.01093v0c-0.01242,0.00157 -0.02484,0.00314 -0.03105,0.00393c0.06901,-0.0529 0.13724,-0.11201 0.18762,-0.16254c0.10155,-0.09487 0.18133,-0.21222 0.26033,-0.33578c-0.13826,-0.04559 -0.28657,-0.07098 -0.42711,-0.08474c0.01391,-0.03962 0.02861,-0.07302 0.03325,-0.08622c0.14753,0.01918 0.29585,0.04457 0.44032,0.08937c0.04103,-0.07459 0.08285,-0.14297 0.13087,-0.21214c0.03175,-0.04818 0.06351,-0.09636 0.10226,-0.13912c-0.12898,-0.072 -0.25018,-0.13237 -0.3838,-0.19116c-0.03962,-0.01391 -0.08622,-0.03325 -0.12584,-0.04716c0.00928,-0.02641 0.02476,-0.0536 0.03403,-0.08001c0.04583,0.01313 0.08544,0.02704 0.12584,0.04716c0.13983,0.05801 0.26881,0.13001 0.404,0.20122c0.06123,-0.06453 0.12867,-0.12984 0.19689,-0.18895c-0.08709,-0.08992 -0.17339,-0.17363 -0.2659,-0.25655c-0.05754,-0.05581 -0.12128,-0.11083 -0.18502,-0.16585c0.02248,-0.02177 0.04575,-0.03734 0.06901,-0.0529c0.04276,0.03875 0.07931,0.07828 0.12128,0.11083c0.1135,0.0992 0.22078,0.19917 0.32265,0.30615c0.04032,-0.03034 0.08685,-0.06146 0.12718,-0.0918c0.07058,-0.04048 0.14038,-0.08717 0.21018,-0.13385c-0.10658,-0.14423 -0.21937,-0.28767 -0.34843,-0.41014v0c0.02948,-0.01635 0.05974,-0.02649 0.08999,-0.03662c0.00857,0.01784 0.02256,0.02869 0.03655,0.03954c0.10886,0.1124 0.20609,0.23258 0.29789,0.35975c0.12796,-0.0856 0.26991,-0.16034 0.4018,-0.21489c0.01784,-0.00857 0.03026,-0.01014 0.0481,-0.0187c-0.09023,-0.11476 -0.18667,-0.22873 -0.29474,-0.33492c-0.00079,-0.00621 -0.00699,-0.00542 -0.00778,-0.01163c0.03026,-0.01014 0.06052,-0.02028 0.09079,-0.03042c0.01399,0.01085 0.02798,0.02169 0.04276,0.03875c0.09408,0.09534 0.18274,0.19768 0.25898,0.30159c0.17457,-0.06626 0.3445,-0.11931 0.523,-0.15452c-0.09644,-0.11397 -0.19209,-0.22173 -0.29938,-0.32171l-0.00699,-0.00542c0.03726,-0.00472 0.06752,-0.01485 0.10477,-0.01957c0.10729,0.09998 0.20373,0.21395 0.30017,0.32792c0.11098,-0.02035 0.21654,-0.03372 0.3291,-0.04165c-0.06618,-0.12411 -0.12301,-0.22417 -0.20545,-0.32729c0.03726,-0.00472 0.0753,-0.00322 0.11334,-0.00173c0.06925,0.09848 0.11986,0.19933 0.18604,0.32344c0.11955,-0.00252 0.24609,0.0004 0.37342,0.00951c0.06987,0.00377 0.14674,0.01297 0.21741,0.02295c-0.05683,-0.10006 -0.09966,-0.18927 -0.14714,-0.26528c0.03262,0.00849 0.06524,0.01698 0.09786,0.02546c0,0 0.00699,0.00542 0.01321,0.00464c0.04048,0.07058 0.08253,0.15358 0.13857,0.24743c0.15452,0.02461 0.30285,0.04999 0.44731,0.0948c0.01399,0.01085 0.02256,0.02869 0.03034,0.04032c0.00079,0.00621 0.00079,0.00621 0.00079,0.00621c0.00699,0.00542 0.00778,0.01163 0.00857,0.01784c0.00079,0.00621 0.00079,0.00621 0,0z"/></g></g><g fill="#86d0fd"><path d="M219.90513,165.52395c0.01258,0.09935 -0.22826,0.48944 -0.30725,0.613c-0.06351,0.09636 -0.55107,0.58077 -0.59799,0.35959c-0.08842,-0.44936 0.43277,-0.76767 0.37745,-0.90578z"/></g></g><path d="M213.23164,164.38765c0.07828,-0.07931 0.28634,-0.08041 0.38726,-0.08056c0.26551,0.00424 0.54682,0.18314 0.78143,0.29224c0.18101,0.08434 0.46145,0.20656 0.67179,0.17363c0.13582,-0.0235 0.28932,-0.15649 0.38467,-0.25057c0.17983,-0.17417 0.30678,-0.41736 0.44464,-0.62408c0.14329,-0.21371 0.34019,-0.40266 0.55578,-0.54351c0.20939,-0.14006 0.45368,-0.30347 0.68178,-0.39543c0.50508,-0.19642 1.00796,-0.31053 1.5507,-0.25936c0.42782,0.04048 0.82695,0.10352 1.20689,0.31409c0.36674,0.20594 0.48519,0.49376 0.67437,0.84204c0.05683,0.10006 0.11286,0.19391 0.19296,0.2784c0.05832,0.06201 0.12434,0.0852 0.18652,0.12781c0.04897,0.03797 0.10807,0.10619 0.03907,0.15909c-0.05738,0.04511 -0.16074,-0.02382 -0.21191,0.02051c-0.09691,0.08166 0.17103,0.155 0.17103,0.155c0.01029,0.13118 -0.19847,0.17653 -0.22637,0.2053c-0.15579,0.16482 -0.36934,0.62086 -0.85957,0.88478c-0.48944,0.27014 -0.88354,0.4462 -1.12413,0.48927c-0.28328,0.05478 -0.61701,0.10964 -0.90657,0.11475c-0.25152,0.0066 -0.6365,0.05533 -0.86334,-0.04214c-0.41249,-0.1686 -0.69364,-0.24657 -1.09143,-0.44858c-0.2354,-0.11531 -0.43143,-0.36809 -0.7,-0.34671c-0.32446,0.02845 -0.51499,0.31754 -0.69239,0.5608c-0.10226,0.13912 -0.23541,0.38309 -0.40919,0.45556c-0.16136,0.0709 -0.14297,-0.08285 -0.13307,-0.20397c0.0191,-0.19799 0.04135,-0.37115 -0.00785,-0.56049c-0.02499,-0.09778 -0.05698,-0.20098 -0.08198,-0.29876c-0.07262,-0.27471 -0.17645,-0.64641 -0.40651,-0.81917z" fill="#194ec2"/><g><path d="M220.94941,164.60317c0.00409,0.13197 -0.20467,0.17732 -0.22637,0.2053c-0.08371,0.0863 -0.18283,0.25026 -0.32462,0.42593c-0.23603,-0.02059 -0.49077,-0.08929 -0.70433,-0.13166c-0.40148,-0.08167 -0.69537,-0.35991 -0.64868,-0.78852c0.05133,-0.44181 -0.09957,-1.63401 0.68965,-1.33014l1.2498,1.45057c-0.05117,0.04433 -0.15452,-0.02461 -0.2057,0.01973c-0.09691,0.08166 0.17025,0.14879 0.17025,0.14879z" fill="#86d0fd"/><path d="M219.46145,164.26156c-0.03018,0.0606 -0.05337,0.12662 -0.08355,0.18722c-0.02861,0.07302 -0.03081,0.15531 -0.06021,0.22212c-0.06036,0.1212 -0.24516,0.10674 -0.3592,0.15271c-0.16215,0.06468 -0.27856,0.09204 -0.40762,-0.03042c-0.17182,-0.16121 -0.36077,-0.3581 -0.49305,-0.55586c-0.15562,-0.23265 -0.11561,-0.46484 0.19957,-0.46688c0.22047,-0.00267 0.45815,0.0808 0.65937,0.17521c0.16081,0.07428 0.38529,0.15312 0.52598,0.26779c0.00699,0.00542 0.01399,0.01085 0.01478,0.01705c0.00699,0.00542 0.00857,0.01784 0.00393,0.03105zM219.34661,164.30133c-0.40243,-0.1888 -0.85037,-0.18888 -1.29217,-0.24021c0.03042,0.09079 0.11286,0.19391 0.18518,0.26677c0.18785,-0.01116 0.37028,-0.01532 0.55271,-0.01948c0.18164,-0.01037 0.3695,-0.02153 0.55428,-0.00707zM218.06741,163.91437c-0.01085,0.01399 -0.0147,0.0334 -0.01855,0.05282c0.33389,0.04606 0.66928,0.05408 0.99468,0.13276c-0.00621,0.00079 -0.00699,-0.00542 -0.01321,-0.00464c-0.16239,-0.0867 -0.32862,-0.15398 -0.51113,-0.20027c-0.11106,-0.0301 -0.37822,-0.09723 -0.45179,0.01933zM218.31892,164.40617c0.0661,0.07365 0.14234,0.17756 0.22864,0.26127c0.24059,-0.04307 0.48583,-0.09934 0.72328,-0.16725c0.00385,-0.01942 0.0147,-0.0334 0.02397,-0.05981c0.00385,-0.01942 0.0147,-0.0334 0.01855,-0.05282c-0.19021,-0.00747 -0.37806,0.00369 -0.56671,0.00864c-0.14517,-0.00055 -0.28335,0.00432 -0.42774,0.00998c0.00079,0.00621 0.00079,0.00621 0,0zM219.23295,164.59961c-0.20098,0.05698 -0.40974,0.10233 -0.61308,0.14069c0.01321,0.00464 0.0202,0.01006 0.02719,0.01548c0.13755,0.08984 0.3423,-0.03702 0.48197,-0.07993c0.07294,-0.02185 0.09079,-0.03042 0.10391,-0.07624z" fill="#86d0fd"/><path d="M220.95122,164.26857c0.04897,0.03797 0.10807,0.10619 0.03907,0.15909c-0.05738,0.04511 -0.16074,-0.02382 -0.21191,0.02051c-0.09691,0.08166 0.17103,0.155 0.17103,0.155c0.00794,0.11256 -0.14337,0.16325 -0.2031,0.18974c-0.30497,0.08276 -0.70095,0.04456 -0.97275,-0.00937c-0.34946,-0.06933 -0.60757,-0.31425 -0.56622,-0.6854c0.03749,-0.35173 -0.07026,-1.25288 0.44842,-1.19235c0.08001,0.03403 0.16003,0.06807 0.24162,0.11452c0.37217,0.19894 0.4844,0.48756 0.67437,0.84204c0.05683,0.10006 0.11286,0.19391 0.19296,0.2784c0.05832,0.06201 0.12434,0.0852 0.18652,0.12781z" fill="#06134a"/><g><path d="M219.77601,163.35743c0.3904,-0.05572 0.46484,0.38278 0.1381,0.44307c-0.32674,0.06028 -0.46719,-0.40141 -0.1381,-0.44307z" fill="#ffffff"/><path d="M219.88675,163.6841c-0.0551,0.01328 -0.0955,-0.00684 -0.12505,-0.04095c0.08457,-0.02963 0.07279,-0.12277 -0.01965,-0.15524c0.01006,-0.0202 0.03411,-0.02955 0.07215,-0.02806c0.19721,0.01289 0.2332,0.1976 0.07255,0.22424z" fill="#06134a"/></g></g><g><path d="M213.61811,164.30088c0.03804,0.0015 0.06987,0.00377 0.1087,0.01148c0.25835,0.3963 0.48809,0.86562 0.57652,1.31497c0.02193,0.1234 0.09282,0.28477 0.13967,0.45549c-0.09605,0.13833 -0.21686,0.33027 -0.36659,0.39339c-0.16758,0.07168 -0.14918,-0.08206 -0.13307,-0.20397c0.0261,-0.19257 0.04213,-0.36494 -0.00785,-0.56049c-0.02499,-0.09778 -0.05698,-0.20098 -0.08198,-0.29876c-0.07262,-0.27471 -0.17645,-0.64641 -0.40651,-0.81917l-0.21536,-0.20617c0.07907,-0.0731 0.28712,-0.07419 0.38648,-0.08677z" fill="#06134a"/><path d="M215.02048,165.51133c-0.2281,0.09196 -0.38223,0.31966 -0.52709,0.52095c-0.03718,0.05517 -0.0852,0.12434 -0.13323,0.19351c-0.00157,-0.01242 -0.00314,-0.02484 -0.00472,-0.03726c-0.02892,-0.12883 -0.18258,-0.09676 -0.2053,-0.22637c-0.02272,-0.12961 0.14086,-0.2828 0.06147,-0.41154c-0.03969,-0.06438 -0.08858,-0.05187 -0.10037,-0.14502c-0.0055,-0.04346 0.07207,-0.07852 0.06815,-0.10957c-0.01336,-0.10556 -0.15704,-0.14416 -0.19445,-0.24036c-0.0312,-0.09699 0.05408,-0.17087 -0.02452,-0.29341c-0.04905,-0.08842 -0.16011,-0.11853 -0.19052,-0.20931c0.01784,-0.00857 0.0349,-0.02334 0.05895,-0.0327c-0.05132,-0.05659 -0.1873,-0.13402 -0.23478,-0.21002c0.01321,0.00464 0.01942,0.00385 0.03183,0.00228c0.26551,0.00424 0.54682,0.18314 0.78143,0.29224c0.12741,0.05958 0.30143,0.13849 0.46916,0.16774c0.08347,0.26071 0.12897,0.5704 0.14399,0.73884z" fill="#194ec2"/><path d="M215.09185,165.47706l0.00079,0.00621c-0.10399,0.02578 -0.1862,0.07404 -0.26606,0.14092c-0.29396,0.16969 -0.57858,0.36344 -0.87332,0.52692c0.00228,-0.03183 0.00377,-0.06987 0.00605,-0.10171c0.32422,-0.17984 0.63131,-0.39535 0.95554,-0.57518c-0.0055,-0.04346 -0.01179,-0.09314 -0.01729,-0.1366c-0.34773,0.04401 -0.70323,0.07639 -1.05261,0.05753c-0.01014,-0.03026 -0.01407,-0.06131 -0.02421,-0.09157c0.35637,0.02429 0.71187,-0.00809 1.06581,-0.05289c-0.00629,-0.04968 -0.01258,-0.09935 -0.02507,-0.14824c-0.38121,-0.02115 -0.76705,-0.02909 -1.13592,-0.10227c-0.01713,-0.03568 -0.02806,-0.07215 -0.04441,-0.10163c0.37665,0.08482 0.76949,0.09818 1.16233,0.11154c-0.00857,-0.01784 -0.01171,-0.04268 -0.01407,-0.06131c-0.28343,-0.04614 -0.55295,-0.1319 -0.82946,-0.22308c-0.17787,-0.0595 -0.35802,-0.08717 -0.53974,-0.12726c-0.00621,0.00079 -0.00699,-0.00542 -0.01399,-0.01085l-0.10729,-0.09998c0.20892,0.05557 0.42711,0.08474 0.63681,0.14652c0.28893,0.08961 0.55224,0.17615 0.83646,0.2285c-0.00472,-0.03726 -0.01564,-0.07373 -0.02035,-0.11098c0.05903,0.01777 0.12269,0.02232 0.18015,0.02767c0,0 0.18785,0.48724 0.11986,0.69773z" fill="#86d0fd"/></g></g></g><g fill-rule="nonzero" stroke-linejoin="miter"><path d="M211.35683,165.11293c1.84639,2.17241 1.18314,4.20592 -0.52971,5.66173c-1.71285,1.4558 -3.78509,2.13813 -5.63149,-0.03426c-1.84639,-2.17241 -2.76774,-6.37688 -1.05488,-7.83268c1.71285,-1.4558 5.36969,0.03282 7.21608,2.20523z" fill="#000000" stroke="#ff0000" stroke-width="0" stroke-linecap="butt"/><path d="M206.16663,170.46179c-0.27833,-0.32747 -0.23849,-0.81857 0.08898,-1.09689c0.32747,-0.27833 0.81856,-0.23849 1.09689,0.08899c0.27833,0.32747 0.23849,0.81856 -0.08899,1.09689c-0.32747,0.27833 -0.81857,0.23849 -1.09689,-0.08898z" fill="#1c1c1c" stroke="none" stroke-width="0" stroke-linecap="butt"/><path d="M208.1993,172.07396l-0.74836,0.02882c0,0 0.13149,-2.26353 0.96062,-3.73654c0.38063,-0.67622 1.61906,-0.65715 1.79467,-1.11668c0.34224,-0.89557 0.27532,-3.07731 0.27532,-3.07731c0,0 0.64847,0.66136 0.91423,0.98584c0.2094,0.25565 0.55195,0.80419 0.55195,0.80419c0,0 -0.50088,1.63278 -0.99139,2.43252c-0.27163,0.4429 -1.33379,0.49379 -1.82233,1.13687c-0.75195,0.98984 -0.93473,2.54229 -0.93473,2.54229z" fill="#1c1c1c" stroke="none" stroke-width="0" stroke-linecap="butt"/><path d="M203.84809,164.09667c-0.0978,-0.11505 -0.08379,-0.2876 0.03127,-0.38539c0.11505,-0.0978 0.28761,-0.08379 0.3854,0.03127c0.0978,0.11505 0.08379,0.2876 -0.03127,0.38539c-0.11505,0.0978 -0.28761,0.08379 -0.3854,-0.03127z" fill="#1c1c1c" stroke="none" stroke-width="0" stroke-linecap="butt"/><path d="M204.55721,163.63197c-0.16549,-0.19472 -0.14181,-0.48671 0.0529,-0.65221c0.19472,-0.16549 0.48672,-0.14181 0.65221,0.0529c0.16549,0.19472 0.14181,0.48671 -0.05291,0.65221c-0.19472,0.16549 -0.48671,0.14181 -0.65221,-0.0529z" fill="#1c1c1c" stroke="none" stroke-width="0" stroke-linecap="butt"/><path d="M210.76497,169.50691c-0.1354,-0.15931 -0.11602,-0.39821 0.04329,-0.53362c0.15931,-0.1354 0.39821,-0.11601 0.53362,0.04329c0.1354,0.15931 0.11601,0.39821 -0.04329,0.53362c-0.15931,0.1354 -0.39821,0.11602 -0.53362,-0.04329z" fill="#1c1c1c" stroke="none" stroke-width="0" stroke-linecap="butt"/><g fill="none" stroke-linecap="round"><path d="M206.12485,169.10033l1.24363,-1.36132" stroke="url(#color-2)" stroke-width="0.5"/><g data-paper-data="{&quot;index&quot;:null}" stroke-width="1"><path d="M208.67433,167.02858l-0.85041,-2.68186" stroke="url(#color-3)"/><path d="M208.83288,167.5286l-0.79276,-2.50005" stroke="url(#color-4)"/></g><g stroke-width="1"><path d="M208.30168,167.45063l-2.74762,-0.60512" stroke="url(#color-5)"/><path d="M208.81395,167.56345l-2.56134,-0.5641" stroke="url(#color-6)"/></g><path d="M204.66691,168.45737l1.20075,-1.31437" stroke="url(#color-7)" stroke-width="0.5"/><path d="M205.90665,168.2551l0.81479,-0.8919" stroke="url(#color-8)" stroke-width="0.5"/><path d="M207.1777,169.24404l1.11498,-1.22049" stroke="url(#color-9)" stroke-width="0.5"/></g><path d="M206.15075,165.59984c-0.36953,0.12191 -0.76792,-0.07883 -0.88982,-0.44836c-0.12191,-0.36953 0.07883,-0.76791 0.44836,-0.88982c0.36953,-0.12191 0.76791,0.07883 0.88982,0.44835c0.12191,0.36953 -0.07883,0.76792 -0.44835,0.88982z" fill="#1c1c1c" stroke="none" stroke-width="0.5" stroke-linecap="butt"/></g></g><path d="M215.33334,168.60902c1.58887,-0.95609 1.19834,-4.19425 2.33335,-5.05798c1.7472,-1.32959 4.71195,0.03661 5.4084,1.19401c1.1489,1.90929 -1.1905,5.42525 -5.22521,7.85311c-4.0347,2.42787 -12.34136,0.04212 -12.34136,0.04212c0,0 5.79011,-1.60339 9.82481,-4.03126z" fill="#ffd726" fill-rule="nonzero" stroke="#33943a" stroke-width="0" stroke-linecap="butt" stroke-linejoin="miter"/><path d="M202.3101,154.66312c0,0 -1.08209,-1.47404 0.39144,-1.90104c5.33194,-1.54512 9.57996,-4.13246 18.11001,-0.95225c5.59405,2.08561 6.90452,10.48629 3.46265,13.31735c-3.44186,2.83106 -4.09463,3.17085 -4.09463,3.17085c0,0 -2.66959,-4.69785 -6.4622,-7.63672c-4.41592,-3.42186 -10.12761,-5.20649 -11.40725,-5.99819z" fill="#ffd726" fill-rule="nonzero" stroke="#33943a" stroke-width="0" stroke-linecap="butt" stroke-linejoin="miter"/></g></g></svg>