<svg version="1.1" xmlns="http://www.w3.org/2000/svg" xmlns:xlink="http://www.w3.org/1999/xlink" width="54.85142" height="79.87554" viewBox="0,0,54.85142,79.87554"><g transform="translate(-211.71667,-146.34333)"><g data-paper-data="{&quot;isPaintingLayer&quot;:true}" fill-rule="nonzero" stroke="none" stroke-width="0" stroke-linecap="butt" stroke-linejoin="miter" stroke-miterlimit="10" stroke-dasharray="" stroke-dashoffset="0" style="mix-blend-mode: normal"><path d="" fill="#f0a787"/><path d="" fill="#000000"/><g><path d="M219.0026,226.21823c-1.15298,0.00733 -0.61763,-1.45086 -1.5198,-1.79544c-0.30417,-0.11618 -1.18928,0.4505 -1.9363,0.23614c-0.89417,-0.25656 -1.39908,-1.30444 -1.80091,-1.65706c-0.77497,-0.68005 -1.53593,-1.57697 -1.88366,-1.9964c-1.00484,-1.21207 3.50009,-3.00715 4.42219,-4.15378c1.05158,-1.30765 1.28274,-7.98014 4.01581,-8.89422c1.28206,-0.42878 5.09381,3.83448 6.17927,4.24906c0.75945,0.29006 -4.91342,6.03139 -4.49386,6.32218c1.45849,1.01084 1.02528,2.07879 -0.17446,3.57069c-1.13487,1.41123 -2.05505,4.16877 -2.80829,4.11881z" data-paper-data="{&quot;index&quot;:null}" fill="#f2a685"/><path d="M215.99478,221.99156l0.57104,2.49151c0,0 -0.81835,0.28382 -1.07963,0.17603c-0.3277,-0.13518 -0.92414,-0.8859 -0.92414,-0.8859l0.90622,-1.92727z" data-paper-data="{&quot;index&quot;:null}" fill="#d0735b"/></g><g data-paper-data="{&quot;index&quot;:null}"><path d="M266.47095,161.10736c-0.30173,0.69397 -4.24751,-0.44078 -6.58869,-0.44078c-2.475,0 -4.04039,-0.37227 -4.6163,-2.35894c-0.16568,-0.57151 -10.20216,0.352 -10.20216,-0.51628c0,-1.24102 -3.56298,-7.57365 -2.39732,-8.39342c2.48492,-1.74757 11.06535,2.74351 13.23471,2.74351c1.90222,0 6.36417,-2.67766 7.41539,-0.94623c0.36378,0.59916 1.13322,1.89561 1.62064,3.05177c0.25274,0.59949 1.3379,1.77817 1.23008,2.74071c-0.09007,0.80416 -1.23831,1.17974 -1.23831,1.5275c0,1.03146 2.11017,1.58886 1.54197,2.59217z" data-paper-data="{&quot;index&quot;:null}" fill="#f2a685"/><path d="M262.63508,154.9407l2.88528,0.56297c0,0 0.66365,1.04973 0.67637,1.43143c0.01015,0.30434 -0.74675,0.82049 -0.74675,0.82049l-2.88528,-2.25193z" data-paper-data="{&quot;index&quot;:null}" fill="#d0735b"/></g><g><path d="M238.03669,167.59586c-5.86873,0 -13.55223,-7.99456 -13.55223,-13.86328c0,-5.86873 7.6835,-7.38925 13.55223,-7.38925c5.86873,0 10.62626,4.75754 10.62626,10.62626c0,5.86873 -4.75754,10.62626 -10.62626,10.62626z" fill="#376fac"/><path d="M224.43669,214.85671c-8.06873,-0.6 -5.35968,-8.09841 -5.35968,-13.96712c0,-5.86872 1.69095,-7.0854 7.55968,-7.0854c5.86873,0 12.82626,5.95754 12.82626,11.82626c0,5.86872 -9.1737,9.66146 -15.02626,9.22626z" fill="#376fac"/><path d="M231.77001,211.5973c-10.61777,-0.15099 -15.55234,-14.33357 -15.55234,-31.66767c0,-17.33411 3.51465,-31.41055 15.4116,-31.38618c10.05443,0.0206 15.4116,14.05207 15.4116,31.38618c0,17.33411 -2.95315,31.84284 -15.27085,31.66767z" fill="#4f9ee3"/><path d="M237.57252,193.80083c-1.17914,0.03138 -2.28458,-0.83722 -3.31934,-0.91372c-9.40584,-0.69543 -12.97191,-4.87365 -12.97191,-11.8589c0,-6.42226 1.59585,-11.34677 10.23946,-12.98201c1.79198,-0.33902 3.88688,-1.07544 6.33328,-1.05731c8.86287,0.06567 16.57275,6.28562 16.57275,14.03934c0,7.75371 -7.70461,12.52909 -16.85424,12.77263z" fill="#f0a787"/><path d="M253.52953,182.55886c-1.16597,0 -2.11118,-0.94521 -2.11118,-2.11118c0,-1.16597 0.94521,-2.11118 2.11118,-2.11118c1.16597,0 2.63898,0.73408 2.74453,2.00562c0.09646,1.16197 -1.57857,2.21674 -2.74453,2.21674z" fill="#f0a787"/><path d="M234.58171,193.53694c-9.28276,0 -13.77544,-4.64083 -13.77544,-11.92816c0,-3.97536 0.04282,-8.1649 2.95564,-11.00415c2.63666,-2.57007 7.73612,-2.87249 11.34759,-3.35186c0.50754,-0.06738 3.67276,-0.71128 5.93437,0.57982c1.99467,1.13871 3.14577,4.22813 3.14577,4.22813c0,0 0.23964,-2.10482 1.32501,-1.33522c1.5621,1.10763 0.37794,2.63823 0.37794,2.63823c0,0 0.9901,-1.80735 1.68503,-1.03805c0.86012,0.95216 -0.41492,3.09566 -0.41492,3.09566l2.25003,-1.30724c0,0 1.1092,5.23659 -2.64449,12.66389c-0.94983,1.8794 -4.43819,4.55979 -4.43819,4.55979c0,0 1.67186,1.39012 0.06508,1.93782c-2.56898,1.07965 -6.52146,0.26133 -7.81342,0.26133z" fill="#000000"/></g></g></g></svg>