<svg version="1.1" xmlns="http://www.w3.org/2000/svg" xmlns:xlink="http://www.w3.org/1999/xlink" width="148.41062" height="114.85246" viewBox="0,0,148.41062,114.85246"><defs><linearGradient x1="217.30455" y1="183.75637" x2="217.30455" y2="235.0686" gradientUnits="userSpaceOnUse" id="color-1"><stop offset="0" stop-color="#000000" stop-opacity="0"/><stop offset="1" stop-color="#000000"/></linearGradient></defs><g transform="translate(-164.17013,-124.03726)"><g data-paper-data="{&quot;isPaintingLayer&quot;:true}" fill-rule="nonzero" stroke-width="0" stroke-linecap="butt" stroke-linejoin="miter" stroke-miterlimit="10" stroke-dasharray="" stroke-dashoffset="0" style="mix-blend-mode: normal"><path d="M261.38891,179.1139c7.31544,15.47251 -1.47136,18.44815 -2.61097,18.43539c-2.43975,-0.02732 -5.65559,11.19039 -7.41982,18.17018c-0.08976,-0.00241 -2.82163,21.08462 -2.82163,21.08462l-71.49397,-1.19186c0,0 4.38742,-8.84209 9.9601,-16.44753c6.76661,-9.23488 14.91582,-17.55876 14.42209,-17.65966c-2.34247,0.05106 11.98203,-25.44449 7.97375,-30.7061c-5.00286,-6.56719 49.77022,3.61906 51.99045,8.31496z" fill="#09b309" stroke="#000000"/><g stroke="#000000"><path d="M279.64897,150.8803c1.15471,5.27973 3.73252,10.9656 -7.75504,20.94049c-4.42647,3.8436 -15.01411,8.41799 -13.31903,13.32795c5.58513,16.17779 -47.36335,-8.26586 -50.77415,-13.93308c-4.45159,-7.39652 -5.55941,-15.28116 -4.76589,-22.51694c1.9755,-18.01362 11.77936,-26.70048 34.06369,-24.2566c22.28434,2.44387 38.28789,6.94825 42.55042,26.43816z" fill="#09b309"/><path d="M232.41295,143.83827c-1.88742,4.00394 -6.4276,6.04425 -10.14077,4.55717c-3.71317,-1.48708 -5.19324,-5.93844 -3.30583,-9.94237c1.88742,-4.00394 6.4276,-6.04424 10.14077,-4.55717c3.71317,1.48708 5.19324,5.93844 3.30584,9.94237z" fill="#ffffff"/><path d="M231.35279,143.65956c-1.55498,3.29869 -5.29546,4.97962 -8.35459,3.75446c-3.05913,-1.22515 -4.27854,-4.89244 -2.72354,-8.19113c1.55498,-3.29869 5.29545,-4.97963 8.35462,-3.75448c3.05913,1.22515 4.27852,4.89244 2.72353,8.19114z" fill="#000000"/><path d="M262.659,148.72042c-1.88742,4.00394 -6.4276,6.04424 -10.14077,4.55717c-3.71317,-1.48708 -5.19324,-5.93844 -3.30582,-9.94236c1.88742,-4.00394 6.42759,-6.04426 10.14076,-4.55717c3.71317,1.48708 5.19324,5.93844 3.30584,9.94237z" fill="#ffffff"/><path d="M261.95528,148.60362c-1.65265,3.5059 -5.6281,5.29242 -8.87939,3.99032c-3.25131,-1.30211 -4.54729,-5.19978 -2.89462,-8.70568c1.65265,-3.5059 5.6281,-5.29244 8.8794,-3.99033c3.25131,1.30211 4.54729,5.19978 2.89462,8.7057z" fill="#000000"/><g><g><path d="M212.45672,155.41602c0,0 15.35175,1.14933 23.50254,2.45589c8.94963,1.43457 28.02321,5.80342 28.02321,5.80342c0,0 3.11069,8.61412 -3.63103,10.16475c-3.68896,0.84848 -16.57153,1.44793 -27.24268,-0.09161c0,0 -19.446,-2.3284 -23.25489,-11.22241c-1.21819,-2.84454 2.60285,-7.11001 2.60285,-7.11001z" fill="#000000"/><path d="M247.33357,160.683c0,0 -1.12159,3.67281 -3.06368,2.98779c-2.19597,-0.77454 -1.64108,-4.19707 -1.64108,-4.19707c0,0 1.15334,0.28813 2.43454,0.5185c1.28121,0.23038 2.27025,0.69075 2.27025,0.69075z" fill="#ffffff"/><path d="M252.78665,161.90204c0,0 -1.30084,3.61402 -3.20718,2.83633c-2.15554,-0.87936 -1.4331,-4.27073 -1.4331,-4.27073c0,0 1.13794,0.34331 2.40643,0.63512c1.26852,0.29183 2.23384,0.79926 2.23384,0.79926z" fill="#ffffff"/><path d="M258.14725,163.12153c0,0 -1.39893,3.57775 -3.28349,2.74942c-2.13092,-0.93661 -1.31629,-4.30722 -1.31629,-4.30722c0,0 1.12824,0.37358 2.38838,0.69917c1.26017,0.3256 2.21139,0.85861 2.21139,0.85861z" fill="#ffffff"/><path d="M263.02511,164.22524c0,0 -0.86165,3.74152 -2.84673,3.19137c-2.24458,-0.62205 -1.93064,-4.07494 -1.93064,-4.07494c0,0 1.17054,0.20829 2.4646,0.35021c1.29406,0.14191 2.31278,0.53336 2.31278,0.53336z" fill="#ffffff"/><path d="M241.81991,159.84764c0,0 -0.86164,3.74152 -2.84673,3.19137c-2.24458,-0.62207 -1.93065,-4.07494 -1.93065,-4.07494c0,0 1.17055,0.20829 2.46462,0.35021c1.29406,0.14191 2.31278,0.53337 2.31278,0.53337z" fill="#ffffff"/><path d="M236.13769,158.85184c0,0 -0.86167,3.74151 -2.84673,3.19136c-2.24458,-0.62207 -1.93065,-4.07494 -1.93065,-4.07494c0,0 1.17055,0.20829 2.46462,0.35021c1.29406,0.14191 2.31276,0.53337 2.31276,0.53337z" fill="#ffffff"/><path d="M230.92383,158.34464c0,0 -0.86165,3.74151 -2.84673,3.19136c-2.24458,-0.62205 -1.93065,-4.07494 -1.93065,-4.07494c0,0 1.17055,0.20829 2.46461,0.35021c1.29406,0.14191 2.31277,0.53336 2.31277,0.53336z" fill="#ffffff"/><path d="M225.80285,157.4226c0,0 -0.68249,3.77796 -2.69135,3.32104c-2.27145,-0.51666 -2.12229,-3.98067 -2.12229,-3.98067c0,0 1.17905,0.15341 2.47828,0.23479c1.29925,0.08137 2.33535,0.42486 2.33535,0.42486z" fill="#ffffff"/><path d="M220.57997,156.99741c0,0 -0.77154,4.27079 -3.04242,3.75426c-2.56777,-0.58406 -2.39914,-4.49997 -2.39914,-4.49997c0,0 1.33285,0.17346 2.80157,0.26542c1.46872,0.09197 2.64001,0.48029 2.64001,0.48029z" fill="#ffffff"/><path d="M212.98083,156.47414l-0.31103,-1.00799c0,0 15.62688,1.38577 23.85445,2.70551c8.86315,1.4217 27.35784,5.64364 27.35784,5.64364l-0.20473,0.72286c0,0 -18.23883,-4.67753 -27.1123,-5.56527c-8.29663,-0.83003 -23.58423,-2.49875 -23.58423,-2.49875z" fill="#000000"/></g><path d="M234.92551,173.32193c-1.45375,-0.22852 -2.79251,-0.34806 -2.79251,-0.34806c0,0 0.68408,-3.85938 3.31738,-3.87303c2.32886,-0.01208 2.15647,4.32441 2.15647,4.32441c0,0 -1.2276,0.12524 -2.68134,-0.10331z" data-paper-data="{&quot;index&quot;:null}" fill="#ffffff"/><path d="M240.56158,173.6499c-1.37803,-0.05691 -2.63712,-0.02468 -2.63712,-0.02468c0,0 0.21471,-3.66718 2.66412,-3.96226c2.16622,-0.26097 2.47988,3.79563 2.47988,3.79563c0,0 -1.12885,0.24824 -2.50688,0.19132z" data-paper-data="{&quot;index&quot;:null}" fill="#ffffff"/><path d="M226.71822,171.45955c0,0 1.1854,-3.89219 3.24356,-3.16797c2.32724,0.81892 1.74207,4.44548 1.74207,4.44548c0,0 -1.22216,-0.30435 -2.57978,-0.54744c-1.3576,-0.2431 -2.40585,-0.73008 -2.40585,-0.73008z" data-paper-data="{&quot;index&quot;:null}" fill="#ffffff"/><path d="M221.39121,169.21256c0,0 2.15924,-3.45584 3.96045,-2.23102c2.03667,1.38493 0.52689,4.73749 0.52689,4.73749c0,0 -1.1023,-0.60592 -2.3515,-1.18726c-1.24921,-0.58134 -2.13581,-1.31921 -2.13581,-1.31921z" data-paper-data="{&quot;index&quot;:null}" fill="#ffffff"/><path d="M245.99701,173.45289c-1.37808,0.04915 -2.63066,0.17805 -2.63066,0.17805c0,0 -0.07336,-3.67323 2.34512,-4.15573c2.13887,-0.4267 2.76943,3.59423 2.76943,3.59423c0,0 -1.10584,0.33431 -2.48392,0.38345z" data-paper-data="{&quot;index&quot;:null}" fill="#ffffff"/><path d="M216.82951,166.25525c0,0 2.26457,-2.74799 3.68387,-1.48621c1.60486,1.42675 -0.08565,4.15823 -0.08565,4.15823c0,0 -0.88502,-0.64792 -1.90004,-1.29102c-1.01502,-0.64312 -1.69819,-1.38103 -1.69819,-1.38103z" data-paper-data="{&quot;index&quot;:null}" fill="#ffffff"/><path d="M211.72975,163.2437c0,0 2.26456,-2.748 3.68387,-1.48621c1.60486,1.42675 -0.08565,4.15823 -0.08565,4.15823c0,0 -0.88502,-0.64791 -1.90005,-1.29101c-1.01502,-0.64312 -1.69818,-1.38103 -1.69818,-1.38103z" data-paper-data="{&quot;index&quot;:null}" fill="#ffffff"/><path d="M251.0948,172.74892c-1.19706,0.12339 -2.28002,0.30892 -2.28002,0.30892c0,0 -0.28288,-3.19514 1.79426,-3.75681c1.83698,-0.49672 2.6258,2.96869 2.6258,2.96869c0,0 -0.94296,0.35583 -2.14003,0.47921z" data-paper-data="{&quot;index&quot;:null}" fill="#ffffff"/><path d="M255.82643,172.59552c-1.19706,0.12339 -2.28004,0.3089 -2.28004,0.3089c0,0 -0.28288,-3.19514 1.79426,-3.75681c1.83698,-0.49672 2.62578,2.96868 2.62578,2.96868c0,0 -0.94296,0.35584 -2.14001,0.47922z" data-paper-data="{&quot;index&quot;:null}" fill="#ffffff"/><path d="M260.05631,172.35876c-1.19706,0.12339 -2.28004,0.3089 -2.28004,0.3089c0,0 -0.28287,-3.19513 1.79426,-3.7568c1.83698,-0.49672 2.62578,2.96867 2.62578,2.96867c0,0 -0.94296,0.35584 -2.14001,0.47922z" data-paper-data="{&quot;index&quot;:null}" fill="#ffffff"/><path d="M210.78726,162.0219l2.14209,1.58013c0,0 0.94896,2.00599 3.06202,3.34448c3.38519,2.14433 9.30851,4.17252 15.72058,5.51487c8.43614,1.76606 31.08633,-0.65993 31.08633,-0.65993l-2.19043,1.08141c0,0 -6.95471,0.49719 -13.96842,1.03033c-5.27244,0.40077 -11.57208,0.18079 -15.41536,-0.49834c-6.82899,-1.20673 -14.02235,-4.57147 -17.62182,-7.1518c-1.59657,-1.14453 -2.25555,-2.95364 -2.25555,-2.95364z" fill="#000000"/></g></g><g fill="#0ac00a"><path d="M245.42686,185.08194c13.83231,10.07876 28.10799,-24.01052 41.51387,-13.37113c-4.15906,1.60086 18.63224,8.5962 13.35123,10.85397c-2.65922,-2.32021 -6.98452,11.18722 -17.70219,16.3636c-11.61942,5.61188 -29.61887,3.05287 -30.62539,3.58748c-2.15481,1.14453 -10.73564,-20.49281 -6.53754,-17.43391z" stroke="#000000"/><path d="M300.93845,177.20603c-7.16511,6.26289 -16.64374,7.14108 -21.17114,1.96148c-4.52738,-5.17959 -2.3891,-14.45555 4.77601,-20.71844c7.16511,-6.26289 16.64374,-7.14108 21.17114,-1.96148c4.52739,5.17959 2.3891,14.45555 -4.77601,20.71844z" stroke="#33943a"/><path d="M305.72338,184.28993c-4.73959,1.35764 -15.27062,-1.99478 -16.34409,-5.74238c-1.07347,-3.74758 7.71708,-6.47118 12.45668,-7.82881c4.7396,-1.35764 9.45202,0.57979 10.5255,4.32737c1.07349,3.74759 -1.89848,7.88618 -6.63807,9.24383z" stroke="none"/></g><g fill="#0ac00a"><path d="M203.78021,198.40542c-2.32089,-0.32133 -21.5698,-7.51047 -28.24178,-18.47166c-12.66244,-20.80278 11.57483,-22.4033 5.8019,-23.34395c3.37522,-5.65635 5.31031,18.68457 12.82767,13.20018c13.75149,-10.03263 25.48031,5.3949 22.35783,-0.43612c-1.80041,-3.36216 5.004,6.9086 2.58312,14.32827c-2.81948,8.64131 -14.7856,14.92836 -15.32875,14.72331z" stroke="#000000"/><path d="M189.08214,159.13415c0.30448,9.51155 -5.02263,17.40065 -11.89847,17.62075c-6.87584,0.22012 -12.69662,-7.31211 -13.00112,-16.82366c-0.30448,-9.51155 5.02263,-17.40064 11.89847,-17.62075c6.87584,-0.22012 12.69662,7.31211 13.00112,16.82366z" stroke="#33943a"/><path d="M193.878,155.65894c-1.12321,4.80055 -9.1811,12.36439 -12.97689,11.47628c-3.79578,-0.88811 -1.89209,-9.8919 -0.76887,-14.69244c1.12321,-4.80056 5.11085,-7.9722 8.90663,-7.08408c3.79578,0.88811 5.96233,5.49969 4.83911,10.30025z" stroke="none"/></g><path d="M174.43535,238.53014l1.53846,-54.77377h82.66149v55.13335z" fill="url(#color-1)" stroke="#33943a"/></g></g></svg>