<svg version="1.1" xmlns="http://www.w3.org/2000/svg" xmlns:xlink="http://www.w3.org/1999/xlink" width="647.14715" height="361.86186" viewBox="0,0,647.14715,361.86186"><defs><radialGradient cx="320" cy="180" r="132.85714" gradientUnits="userSpaceOnUse" id="color-1"><stop offset="0" stop-color="#ffffff"/><stop offset="1" stop-color="#ffffff" stop-opacity="0"/></radialGradient></defs><g transform="translate(3.57357,0.93093)"><g stroke-miterlimit="10"><path d="M-3.57357,360.93093v-361.86186h647.14715v361.86186z" fill="#000000" stroke="none" stroke-width="0"/><path d="M187.14286,180c0,-73.37497 59.48217,-132.85714 132.85714,-132.85714c73.37497,0 132.85714,59.48217 132.85714,132.85714c0,73.37497 -59.48217,132.85714 -132.85714,132.85714c-73.37497,0 -132.85714,-59.48217 -132.85714,-132.85714z" fill="url(#color-1)" stroke="#ffb652" stroke-width="0"/><text transform="translate(200.42663,168.76168) scale(1.10408,1.10408)" font-size="40" xml:space="preserve" fill="#000000" stroke="none" stroke-width="1" font-family="Sans Serif" font-weight="normal" text-anchor="start"><tspan x="0" dy="0">GARTEN OF</tspan></text><text transform="translate(197.42663,165.76168) scale(1.10408,1.10408)" font-size="40" xml:space="preserve" fill="#ffffff" stroke="none" stroke-width="1" font-family="Sans Serif" font-weight="normal" text-anchor="start"><tspan x="0" dy="0">GARTEN OF</tspan></text><g><text transform="translate(216.97001,210.27622) rotate(7.79405) scale(1.20429,1.20429)" font-size="40" xml:space="preserve" fill="#00ff06" stroke="#00ff06" stroke-width="1" font-family="Sans Serif" font-weight="normal" text-anchor="start"><tspan x="0" dy="0">B</tspan></text><text transform="translate(315.26892,221.87937) rotate(4.98748) scale(1.20429,1.20429)" font-size="40" xml:space="preserve" fill="#d300ff" stroke="#d300ff" stroke-width="1" font-family="Sans Serif" font-weight="normal" text-anchor="start"><tspan x="0" dy="0">B</tspan></text><text transform="translate(385.28778,216.22792) rotate(-8.64264) scale(1.12961,1.12961)" font-size="40" xml:space="preserve" fill="#d66e00" stroke="#d66e00" stroke-width="1" font-family="Sans Serif" font-weight="normal" text-anchor="start"><tspan x="0" dy="0">N</tspan></text><g stroke="#ff0000"><text transform="translate(283.63422,218.10564) rotate(-3.06599) scale(1.2043,1.05102) skewX(0.00003)" font-size="40" xml:space="preserve" fill="#ff0000" stroke-width="2" font-family="Sans Serif" font-weight="normal" text-anchor="start"><tspan x="0" dy="0">N</tspan></text><path d="M309.30476,185.14975c0,0 1.77283,-6.84077 2.19501,-8.46981c0.13228,-0.51038 0.75254,-0.35405 0.93858,0.13929c0.61225,1.62354 3.01725,8.00101 3.01725,8.00101z" fill="#ffb36b" stroke-width="0.5"/><path d="M286.10215,186.39272c0,0 1.92005,-6.84868 2.37726,-8.47957c0.14325,-0.51099 0.80563,-0.35688 1.00265,0.13587c0.64839,1.62162 3.19535,7.99147 3.19535,7.99147z" fill="#ffb36b" stroke-width="0.5"/></g><g stroke="#ffffff"><text transform="translate(248.09323,219.69284) scale(1.20429,1.20429)" font-size="40" xml:space="preserve" fill="#ffffff" stroke-width="1" font-family="Sans Serif" font-weight="normal" text-anchor="start"><tspan x="0" dy="0">A</tspan></text><g stroke-width="0.5"><path d="M260.32088,182.59237c0.60976,-1.62369 1.35573,-3.61008 1.64376,-4.37704c0.23413,-0.62344 0.90197,-0.64641 1.26714,-0.0895c0.81401,1.24147 2.13805,3.02281 3.27414,3.44945c1.20444,0.45233 3.81289,0.00023 5.39815,-0.34601c0.71063,-0.15521 1.0122,0.47319 0.75649,1.15414c-0.655,1.74416 -1.70199,4.5321 -2.04224,5.43814c-0.23934,0.63729 -0.94375,0.48042 -1.354,-0.06283c-0.93874,-1.24307 -2.41761,-3.0144 -3.494,-3.41864c-1.21594,-0.45664 -3.53933,-0.04596 -5.01256,0.2962c-0.78943,0.18335 -0.43686,-2.04393 -0.43686,-2.04393z" fill="#ff88f7"/><path d="M264.56108,184.33607l1.24527,-3.31593l2.25485,0.84678l-1.24527,3.31593z" fill="#c17266"/></g></g><g><text transform="translate(351.88355,217.4335) rotate(-3.85971) scale(1.20429,1.06513) skewX(-0.00041)" font-size="40" xml:space="preserve" fill="#5600ff" stroke="#5600ff" stroke-width="2" font-family="Sans Serif" font-weight="normal" text-anchor="start"><tspan x="0" dy="0">A</tspan></text><path d="M358.69465,209.83296c0,0 1.37041,-0.94628 1.66986,-1.46571c0.59837,-1.03793 0.85701,-2.13617 2.16214,-2.22421c0.56233,-0.03794 1.72758,0.90015 1.76172,1.4062c0.03414,0.50605 -1.42421,2.08717 -2.2043,2.192c-1.04184,0.14002 -3.38944,0.0917 -3.38944,0.0917z" fill="#ffffff" stroke="none" stroke-width="0"/><path d="M372.06825,209.19477c-0.78707,0.00089 -2.44458,-1.37003 -2.47872,-1.87607c-0.03414,-0.50605 0.99455,-1.59216 1.55688,-1.6301c1.30513,-0.08804 1.70894,0.9655 2.44128,1.91366c0.36651,0.4745 1.8516,1.22813 1.8516,1.22813c0,0 -2.31984,0.36319 -3.37103,0.36437z" fill="#ffffff" stroke="none" stroke-width="0"/></g></g></g></g></svg>