<svg version="1.1" xmlns="http://www.w3.org/2000/svg" xmlns:xlink="http://www.w3.org/1999/xlink" width="194.31043" height="313.385" viewBox="0,0,194.31043,313.385"><g transform="translate(-142.84478,-23.95479)"><g data-paper-data="{&quot;isPaintingLayer&quot;:true}" fill-rule="nonzero" stroke-linejoin="miter" stroke-miterlimit="10" stroke-dasharray="" stroke-dashoffset="0" style="mix-blend-mode: normal"><g stroke="#000000"><path d="M183.34478,328.09066l16.5,-92h36l-9.5,97z" fill="#aaa399" stroke-width="0" stroke-linecap="butt"/><path d="M250.34478,332.59066l-9.5,-97h36l16.5,92z" data-paper-data="{&quot;index&quot;:null}" fill="#aaa399" stroke-width="0" stroke-linecap="butt"/><path d="M213.99684,237.40884l-11.81818,96.81819" fill="none" stroke-width="2" stroke-linecap="round"/><path d="M262.17866,236.04521l10.90909,98.63637" fill="none" stroke-width="2" stroke-linecap="round"/><path d="M234.90593,236.9543l-8.63636,99.09091l-12.72728,-3.63637l10.90909,-96.81818z" fill="#000000" stroke-width="2" stroke-linecap="round"/><path d="M252.17866,235.59066l10.90909,96.81818l-12.72727,3.63637l-8.63636,-99.09091z" data-paper-data="{&quot;index&quot;:null}" fill="#000000" stroke-width="2" stroke-linecap="round"/></g><path d="M167.17866,237.63612c0,13.6816 2.2192,24.77272 -6.81818,24.77272c-9.03738,0 -16.36363,-11.09112 -16.36363,-24.77272c0,-13.6816 7.32625,-24.77273 16.36363,-24.77273c7.49338,0 13.95244,5.01146 14.07696,14.98883c0.02566,2.05584 -7.25877,7.44644 -7.25877,9.7839z" fill="#76100e" stroke="#000000" stroke-width="0" stroke-linecap="butt"/><path d="M299.45145,224.21585c0.12451,-9.97736 6.58358,-14.98882 14.07695,-14.98882c9.03739,0 16.36364,11.09112 16.36364,24.77272c0,13.6816 -7.32625,24.77273 -16.36364,24.77273c-9.03739,0 -6.81818,-11.09113 -6.81818,-24.77273c0,-2.33746 -7.28443,-7.72806 -7.25878,-9.7839z" data-paper-data="{&quot;index&quot;:null}" fill="#76100e" stroke="#000000" stroke-width="0" stroke-linecap="butt"/><path d="M272.34478,165.14423c0,30.92794 -14.21496,56 -31.75,56c-17.53504,0 -31.75,-25.07205 -31.75,-56c0,-9.70991 -6.09888,-22.17596 -3.6338,-30.13683c5.3867,-17.39606 23.35393,-25.86317 35.3838,-25.86317c17.53504,0 31.75,25.07206 31.75,56z" fill="#76100e" stroke="#000000" stroke-width="0" stroke-linecap="butt"/><path d="M229.71585,201.32635l-12.8125,-41.5625l20.44937,11.66667l21.42563,-11.66667l-9.0625,45z" fill="#000000" stroke="#000000" stroke-width="0" stroke-linecap="butt"/><path d="M286.84478,170.14423l-13.3896,16.59158l3.37666,50.14958l-76.73706,0.25884l3.54547,-47.61435l-13.86712,-18.6844c0,0 -3.58609,55.80081 -8.88727,58.38309c-9.61268,4.68248 -38.04108,-10.08434 -38.04108,-10.08434c0,0 6.93977,-14.6394 13.23979,-37.43373c2.09375,-7.57546 0.11386,-24.50236 3.11248,-30.84525c4.14886,-8.77597 8.40643,-15.26749 18.55631,-18.77301c13.1352,-4.53657 32.15139,-4.68572 32.15139,-4.68572l1.92667,22.03606l14.63459,27.72136l6.40418,19.83054l9.93715,-0.34051l2.31942,-21.68606l11.53319,-24.27443l0.00344,-23.65453c0,0 1.84663,-0.18103 2.79038,-0.26911c17.21223,-1.60664 38.70364,-2.40772 50.74168,12.31318c0.73635,0.90045 6.09963,4.33592 7.48607,11.29489c1.5648,7.85417 -0.704,19.78596 2.76326,29.9034c6.11935,17.8562 16.71043,34.73332 16.71043,34.73332c0,0 -6.588,7.09427 -15.54695,9.95478c-9.21353,2.9418 -20.81938,1.6652 -21.87993,2.63803c-6.17325,5.66266 -12.88354,-57.46321 -12.88354,-57.46321z" fill="#bdb5aa" stroke="none" stroke-width="0" stroke-linecap="butt"/><path d="M187.61671,196.20532c0,0 -5.42818,6.13214 -20.17915,2.53667c-8.64188,-2.10641 -14.82085,-7.53667 -14.82085,-7.53667" fill="none" stroke="#000000" stroke-width="2" stroke-linecap="round"/><path d="M324.88944,190.75078c0,0 -6.17897,5.43026 -14.82085,7.53667c-14.75097,3.59547 -20.17915,-2.53667 -20.17915,-2.53667" data-paper-data="{&quot;index&quot;:null}" fill="none" stroke="#000000" stroke-width="2" stroke-linecap="round"/><path d="M329.4349,201.20532c0,0 -6.5802,5.43026 -15.78325,7.53667c-15.70882,3.59547 -21.48948,-2.53667 -21.48948,-2.53667" data-paper-data="{&quot;index&quot;:null}" fill="none" stroke="#000000" stroke-width="2" stroke-linecap="round"/><path d="M332.61671,211.20532c0,0 -6.98143,5.43026 -16.74563,7.53667c-16.66668,3.59547 -22.79982,-2.53667 -22.79982,-2.53667" data-paper-data="{&quot;index&quot;:null}" fill="none" stroke="#000000" stroke-width="2" stroke-linecap="round"/><path d="M186.30092,205.15269c0,0 -5.42818,6.13214 -20.17915,2.53667c-8.64188,-2.10641 -14.82085,-7.53667 -14.82085,-7.53667" fill="none" stroke="#000000" stroke-width="2" stroke-linecap="round"/><path d="M185.51145,214.36322c0,0 -5.87712,6.13214 -21.8481,2.53667c-9.35663,-2.10641 -16.04664,-7.53667 -16.04664,-7.53667" fill="none" stroke="#000000" stroke-width="2" stroke-linecap="round"/><path d="M227.17866,178.10798l-15,-6.81818l-10.90909,-16.36364l8.63636,-27.27273l1.36364,22.72727l15.45454,25.45454l5.90909,21.81818h9.09091l3.18182,-22.27273l11.36364,-24.54546l0.45454,-22.72727l10.90909,24.54546l-9.54546,21.81818l-13.63636,4.54545" fill="none" stroke="#000000" stroke-width="2" stroke-linecap="round"/><g fill="#000000" stroke="#000000" stroke-width="0" stroke-linecap="butt"><path d="M230.02227,150.50895l-8.36899,-13.47594l26.28343,-0.58823l-6.55081,14.06417c0,0 -3.44156,1.36363 -5,1.36363c-2.07792,0 -6.36363,-1.36363 -6.36363,-1.36363z"/><path d="M230.93136,191.09719v-40.13369h9.09091v47.19251l-6.96741,-0.97054z"/></g><g stroke-width="0" stroke-linecap="butt"><path d="M294.84479,94.39423c0,36.31272 -13.34007,46.75 -52,46.75c-38.65993,0 -67,-9.93728 -67,-46.25c0,-36.31272 24.84007,-69.25 63.5,-69.25c38.65993,0 55.5,32.43728 55.5,68.75z" fill="#680000" stroke="none"/><g stroke="#000000"><path d="M217.15305,72.19119c-9.53149,17.91919 -18.02953,34.21616 -41.31655,19.64861c-12.75893,-7.98154 -16.33148,-27.32332 -6.8,-45.24251c9.53149,-17.91919 27.50248,-25.62078 41.31655,-19.64861c23.28701,10.06756 16.33148,27.32333 6.79999,45.24252z" fill="#ffffff"/><path d="M203.62395,63.09978c-6.73325,14.83596 -23.03969,26.80106 -32.72078,22.40734c-9.68109,-4.39373 -10.0708,-23.48247 -3.33756,-38.31843c6.73325,-14.83596 21.03969,-23.30106 30.72079,-18.90734c9.68109,4.39373 12.0708,19.98247 5.33755,34.81843z" fill="#000000"/></g><g data-paper-data="{&quot;index&quot;:null}" stroke="#000000"><path d="M267.20628,25.94867c13.81407,-5.97217 31.78507,1.72942 41.31655,19.64861c9.53148,17.91919 5.95893,37.26097 -6.8,45.24251c-23.28701,14.56756 -31.78507,-1.72941 -41.31655,-19.6486c-9.53149,-17.91919 -16.48702,-35.17496 6.8,-45.24251z" fill="#ffffff"/><path d="M279.27293,27.28135c9.6811,-4.39372 23.98754,4.07138 30.72078,18.90734c6.73325,14.83596 6.34354,33.9247 -3.33756,38.31843c-9.68109,4.39373 -25.98754,-7.57138 -32.72078,-22.40734c-6.73325,-14.83596 -4.34354,-30.42471 5.33756,-34.81843z" fill="#000000"/></g></g></g></g></svg>