<svg version="1.1" xmlns="http://www.w3.org/2000/svg" xmlns:xlink="http://www.w3.org/1999/xlink" width="83.31664" height="72.65346" viewBox="0,0,83.31664,72.65346"><g transform="translate(-198.06873,-143.59664)"><g data-paper-data="{&quot;isPaintingLayer&quot;:true}" fill="none" fill-rule="nonzero" stroke="#ff0000" stroke-width="6.5" stroke-linejoin="miter" stroke-miterlimit="10" stroke-dasharray="" stroke-dashoffset="0" style="mix-blend-mode: normal"><path d="M221.33333,180c0,-10.30932 8.35735,-18.66667 18.66667,-18.66667c10.30932,0 18.66667,8.35735 18.66667,18.66667c0,10.30932 -8.35735,18.66667 -18.66667,18.66667c-10.30932,0 -18.66667,-8.35735 -18.66667,-18.66667z" stroke-linecap="butt"/><g stroke-linecap="round"><path d="M252.73335,152.59019c0,0 6.29716,-0.85202 12.05295,6.63947c4.26675,5.55341 3.86072,13.53235 3.86072,13.53235" data-paper-data="{&quot;index&quot;:null}"/><path d="M263.72219,146.87314c0,0 5.7034,-0.77168 10.91648,6.01343c3.86444,5.02978 3.4967,12.25638 3.4967,12.25638" data-paper-data="{&quot;index&quot;:null}"/></g><g data-paper-data="{&quot;index&quot;:null}" stroke-linecap="round"><path d="M268.17084,187.08474c0,0 0.40603,7.97894 -3.86072,13.53235c-5.75579,7.49148 -12.05295,6.63947 -12.05295,6.63947" data-paper-data="{&quot;index&quot;:null}"/><path d="M277.65917,194.70379c0,0 0.36774,7.2266 -3.4967,12.25638c-5.21308,6.78511 -10.91648,6.01343 -10.91648,6.01343" data-paper-data="{&quot;index&quot;:null}"/></g><g data-paper-data="{&quot;index&quot;:null}" stroke-linecap="round"><path d="M227.20634,207.25656c0,0 -6.29716,0.85202 -12.05295,-6.63947c-4.26675,-5.55341 -3.86072,-13.53235 -3.86072,-13.53235" data-paper-data="{&quot;index&quot;:null}"/><path d="M216.2175,212.9736c0,0 -5.7034,0.77168 -10.91648,-6.01343c-3.86444,-5.02978 -3.4967,-12.25638 -3.4967,-12.25638" data-paper-data="{&quot;index&quot;:null}"/></g><g stroke-linecap="round"><path d="M210.81647,172.76201c0,0 -0.40603,-7.97894 3.86072,-13.53235c5.75579,-7.49148 12.05295,-6.63947 12.05295,-6.63947"/><path d="M201.32813,165.14296c0,0 -0.36774,-7.2266 3.4967,-12.25638c5.21308,-6.78511 10.91648,-6.01343 10.91648,-6.01343"/></g></g></g></svg>