<svg version="1.1" xmlns="http://www.w3.org/2000/svg" xmlns:xlink="http://www.w3.org/1999/xlink" width="103.71416" height="81.35093" viewBox="0,0,103.71416,81.35093"><g transform="translate(-200.32173,-123.3112)"><g data-paper-data="{&quot;isPaintingLayer&quot;:true}" fill-rule="nonzero" stroke-linecap="butt" stroke-linejoin="miter" stroke-miterlimit="10" stroke-dasharray="" stroke-dashoffset="0" style="mix-blend-mode: normal"><g><path d="M205.10862,164.66226c0,0 -0.03748,-7.04373 -0.83588,-9.81777c-0.33129,-1.15108 -3.95101,-6.81436 -3.95101,-6.81436l80.91308,-23.28758c0,0 0.47767,6.26866 1.24099,8.92084c0.82717,2.87402 3.5459,7.71128 3.5459,7.71128z" fill="#966726" stroke="#ffffff" stroke-width="0"/><path d="M236.03231,145.84047c0.66243,1.06004 -0.3976,1.72247 -0.3976,1.72247l-1.49702,0.93207c-3.62022,1.62539 -7.91088,2.98829 -11.91621,2.36638c-1.82451,-0.2833 -3.31556,-1.07782 -5.24566,-1.02022c-3.31711,0.09901 -6.67351,2.65359 -9.76603,3.55389c0,0 -1.20124,0.34573 -1.54697,-0.85551c-0.34573,-1.20124 0.85551,-1.54697 0.85551,-1.54697c3.32837,-0.94555 6.66292,-3.5007 10.23283,-3.64131c2.21466,-0.08723 3.83841,0.71648 5.90471,1.04814c3.40146,0.54595 7.23422,-0.73027 10.30452,-2.10985l1.34946,-0.84672c0,0 1.06004,-0.66243 1.72247,0.3976z" fill="#8b5f23" stroke="none" stroke-width="0.5"/><path d="M274.21476,132.9476c0.84644,0.91981 -0.07336,1.76625 -0.07336,1.76625l-1.25933,0.97955c-3.40945,0.97231 -7.93236,2.00433 -10.43324,4.73029c-1.11779,1.21839 -1.4437,3.14783 -2.5695,4.32234c-1.72301,1.79753 -4.04065,2.3296 -6.32175,2.98612c-2.50895,0.71432 -6.15438,1.12467 -8.19701,-1.03681c-2.08762,-2.20909 -0.32897,-7.9096 1.63378,-9.59051c2.31839,-1.98549 4.16047,-1.60417 6.81323,-0.96064c1.62868,0.3951 4.24197,0.17682 4.2496,2.88361c0.00939,3.32952 -6.22253,3.51323 -8.27413,3.77837c0,0 -1.23984,0.15905 -1.39889,-1.08079c-0.15905,-1.23984 1.08079,-1.39889 1.08079,-1.39889c1.59432,-0.20292 3.17357,-0.5284 4.7353,-0.9079c0.45898,-0.11154 1.26536,0.05528 1.35698,-0.40808c0.01217,-0.06154 -4.75854,-1.08207 -5.42389,-0.84887c-1.63531,0.57318 -4.66059,5.21815 -2.87903,6.90161c1.36546,1.29028 4.04672,0.72251 5.61181,0.26642c1.73951,-0.50065 3.81844,-0.84761 5.13118,-2.22924c1.10371,-1.16164 1.49157,-3.14689 2.60686,-4.36411c2.86033,-3.12176 7.67312,-4.31004 11.58645,-5.4454l0.25792,-0.41668c0,0 0.91981,-0.84644 1.76625,0.07336z" fill="#8b5f23" stroke="none" stroke-width="0.5"/><path d="M244.83721,139.58558c0.34573,1.20124 -0.85551,1.54697 -0.85551,1.54697l-1.06249,0.271c-2.34562,2.06298 0.02548,5.65369 -1.97346,7.8854c-0.43318,0.48363 -1.27608,0.32298 -1.83483,0.65366c-1.20201,0.71136 -2.26253,1.67913 -3.54284,2.23739c0,0 -1.14908,0.49205 -1.64113,-0.65703c-0.49205,-1.14908 0.65703,-1.64113 0.65703,-1.64113c1.44416,-0.60472 3.48525,-1.54644 4.61851,-2.38482c0.62521,-0.46253 -0.13496,-1.55411 -0.09925,-2.33098c0.11872,-2.58322 0.75898,-4.22451 2.59104,-5.94182l1.59596,-0.49413c0,0 1.20124,-0.34573 1.54697,0.85551z" fill="#8b5f23" stroke="none" stroke-width="0.5"/><path d="M280.14622,128.96957c0.53851,1.12805 -0.58955,1.66657 -0.58955,1.66657l-0.94689,0.38595c-0.92406,1.80622 0.32921,2.56978 1.11576,4.01808c1.23182,2.26816 1.51423,5.68623 -0.50637,7.60621c-1.44446,1.37252 -3.50718,0.71034 -5.02361,0.45017c-1.90914,-0.32755 -4.42571,0.92912 -6.20458,1.44109c0,0 -1.20124,0.34573 -1.54697,-0.85551c-0.34573,-1.20124 0.85551,-1.54697 0.85551,-1.54697c2.30301,-0.66283 4.89355,-1.83615 7.34269,-1.4984c0.88997,0.12274 2.05908,0.87372 3.01874,0.05461c1.86476,-1.59164 -0.58104,-4.55563 -1.26074,-5.8503c-1.08083,-2.05872 -0.55225,-3.7876 0.49541,-5.63879l1.58403,-0.82225c0,0 1.12805,-0.53851 1.66657,0.58955z" fill="#8b5f23" stroke="none" stroke-width="0.5"/><path d="M226.56638,156.11884c0.34573,1.20124 -0.85551,1.54697 -0.85551,1.54697l-0.22154,0.06376c-0.81849,0.17081 -1.64799,0.72943 -2.45546,0.51244c-1.43565,-0.3858 -1.68153,-3.10409 -2.88061,-3.15378c-3.08449,-0.1278 -2.75028,3.1458 -4.81294,4.55919c-1.82127,1.24799 -7.52178,2.69376 -7.87393,-1.11961c-0.08734,-0.94574 1.44006,-1.23884 2.15047,-1.86923c1.08493,-0.96271 1.96853,-2.08561 2.95506,-3.1448c0,0 0.85218,-0.9145 1.76667,-0.06231c0.9145,0.85218 0.06231,1.76667 0.06231,1.76667c-0.79863,0.85656 -1.56788,2.12616 -2.55709,2.87744c0.74793,-0.1805 1.55569,-0.2017 2.21157,-0.59267c1.83965,-1.09659 0.79058,-2.8293 3.04603,-4.022c1.88073,-0.99454 3.82886,-1.21118 5.52852,0.29703c0.57909,0.51386 0.30759,1.98886 1.0788,2.05688c0.399,0.03519 0.72609,-0.33848 1.08913,-0.50773l0.22154,-0.06376c0,0 1.20124,-0.34573 1.54697,0.85551z" fill="#8b5f23" stroke="none" stroke-width="0.5"/></g><g><path d="M201.86194,137.42736c0,0 2.96665,-5.13247 3.56578,-7.48689c0.24861,-0.97695 0.02638,-6.62927 0.02638,-6.62927l68.67323,17.47538c0,0 -2.31747,4.75656 -2.89027,7.00756c-0.62072,2.43926 -0.70189,7.10861 -0.70189,7.10861z" fill="#a37029" stroke="#ffffff" stroke-width="0"/><path d="M232.32486,136.89911c0.03063,1.05157 -1.02095,1.0822 -1.02095,1.0822l-1.4836,0.04077c-3.32058,-0.35807 -7.01659,-1.19176 -9.66171,-3.34594c-1.2049,-0.98127 -1.95029,-2.19217 -3.3768,-2.97071c-2.45163,-1.33799 -5.9755,-0.90895 -8.60457,-1.56943c0,0 -1.01952,-0.25944 -0.76009,-1.27896c0.25944,-1.01952 1.27896,-0.76009 1.27896,-0.76009c2.81961,0.72785 6.32787,0.28912 8.98081,1.70434c1.64579,0.87796 2.48368,2.15193 3.84367,3.2711c2.23876,1.84234 5.56531,2.54437 8.38195,2.84726l1.34013,-0.04148c0,0 1.05157,-0.03063 1.0822,1.02095z" fill="#8b5f23" stroke="none" stroke-width="0.5"/><path d="M265.54049,143.76289c0.2239,1.02792 -0.80402,1.25181 -0.80402,1.25181l-1.33113,0.17627c-2.88988,-0.74287 -6.61397,-1.91565 -9.58925,-0.99848c-1.32982,0.40993 -2.38666,1.67295 -3.70365,2.04759c-2.01561,0.57337 -3.9253,-0.02522 -5.86132,-0.51789c-2.12611,-0.54752 -4.94856,-1.79891 -5.5136,-4.23721c-0.57749,-2.49201 3.12295,-5.88534 5.26313,-6.2721c2.52799,-0.45683 3.704,0.60311 5.35742,2.1981c1.01513,0.97926 3.0062,1.93146 1.86125,3.9009c-1.40836,2.42254 -6.0133,-0.09283 -7.61626,-0.77225c0,0 -0.96822,-0.41145 -0.55677,-1.37967c0.41145,-0.96822 1.37967,-0.55677 1.37967,-0.55677c1.24436,0.53026 2.52986,0.96507 3.82561,1.3532c0.38081,0.11407 0.89565,0.57799 1.15916,0.28034c0.035,-0.03953 -2.99667,-2.80859 -3.57909,-2.92199c-1.4315,-0.27872 -5.60337,1.80952 -5.02479,3.78961c0.44345,1.51763 2.63243,2.24486 3.96316,2.57878c1.47637,0.37569 3.13397,1.0073 4.67479,0.56165c1.29548,-0.37469 2.42103,-1.65191 3.74854,-2.06206c3.40461,-1.05187 7.40568,0.13058 10.73089,0.9692l0.36446,-0.19305c0,0 1.02792,-0.2239 1.25181,0.80402z" fill="#8b5f23" stroke="none" stroke-width="0.5"/><path d="M241.3793,136.09802c-0.25944,1.01952 -1.27896,0.76009 -1.27896,0.76009l-0.88697,-0.25475c-2.58071,0.50155 -2.38455,4.11766 -4.78513,4.88913c-0.52023,0.16718 -1.06423,-0.30777 -1.61065,-0.30506c-1.17549,0.00583 -2.35719,0.25805 -3.5245,0.11938c0,0 -1.04383,-0.13098 -0.91285,-1.17481c0.13098,-1.04383 1.17481,-0.91285 1.17481,-0.91285c1.30606,0.17456 3.18898,0.35804 4.36852,0.23072c0.65075,-0.07024 0.56253,-1.18626 0.91867,-1.73541c1.18422,-1.82598 2.34692,-2.74607 4.40765,-3.21481l1.36933,0.31942c0,0 1.01952,0.25944 0.76009,1.27896z" fill="#8b5f23" stroke="none" stroke-width="0.5"/><path d="M271.53992,143.39437c-0.0883,1.04831 -1.1366,0.96 -1.1366,0.96l-0.85187,-0.12212c-1.43895,0.91927 -0.85313,2.00661 -0.89737,3.39296c-0.06928,2.17117 -1.31695,4.77407 -3.60078,5.3099c-1.63263,0.38304 -2.84954,-0.97471 -3.84047,-1.80823c-1.24757,-1.0494 -3.60973,-1.20621 -5.11952,-1.5904c0,0 -1.01952,-0.25944 -0.76009,-1.27896c0.25944,-1.01952 1.27896,-0.76009 1.27896,-0.76009c1.95462,0.4974 4.33509,0.74618 5.97059,2.03252c0.5943,0.46743 1.12435,1.50986 2.16959,1.32276c2.03107,-0.36356 1.51427,-3.55616 1.57082,-4.78551c0.08993,-1.95485 1.20873,-2.98604 2.75659,-3.88543l1.50013,0.076c0,0 1.04831,0.0883 0.96,1.1366z" fill="#8b5f23" stroke="none" stroke-width="0.5"/><path d="M221.08011,140.34188c-0.25944,1.01952 -1.27896,0.76009 -1.27896,0.76009l-0.18802,-0.04785c-0.66715,-0.22381 -1.50714,-0.1706 -2.00145,-0.67143c-0.87887,-0.89045 0.09791,-2.96952 -0.75198,-3.51528c-2.18624,-1.40388 -3.33489,1.11611 -5.43396,1.26609c-1.85342,0.13242 -6.60876,-1.24032 -5.24372,-4.16003c0.33854,-0.72411 1.57262,-0.28781 2.35659,-0.44376c1.19728,-0.23817 2.31641,-0.67826 3.48322,-1.02836c0,0 1.00772,-0.30207 1.30979,0.70564c0.30207,1.00772 -0.70564,1.30979 -0.70564,1.30979c-0.9442,0.28275 -2.04261,0.87803 -3.08049,1.0033c0.62001,0.18679 1.21579,0.51472 1.8584,0.5095c1.80241,-0.01463 1.77685,-1.71917 3.92214,-1.62688c1.78888,0.07696 3.29608,0.74762 3.88965,2.56561c0.20224,0.61941 -0.62191,1.57544 -0.09062,1.95265c0.27488,0.19516 0.6713,0.06275 1.00695,0.09411l0.18802,0.04785c0,0 1.01952,0.25944 0.76009,1.27896z" fill="#8b5f23" stroke="none" stroke-width="0.5"/></g><g><path d="M216.1759,167.41041c0,0 1.91609,-5.60998 2.04774,-8.03585c0.05463,-1.00661 -1.25845,-6.50879 -1.25845,-6.50879l70.75774,3.83978c0,0 -1.35204,5.11543 -1.4779,7.43473c-0.13639,2.5133 0.68861,7.10991 0.68861,7.10991z" fill="#a37029" stroke="#ffffff" stroke-width="0"/><path d="M245.95931,160.99039c0.23378,1.02571 -0.79194,1.25949 -0.79194,1.25949l-1.4476,0.32742c-3.32704,0.29204 -7.11454,0.19018 -10.12689,-1.41072c-1.37219,-0.72925 -2.33805,-1.7728 -3.88836,-2.26022c-2.66439,-0.83768 -6.03838,0.26594 -8.74559,0.12733c0,0 -1.05047,-0.05701 -0.99347,-1.10748c0.05701,-1.05047 1.10748,-0.99347 1.10748,-0.99347c2.90721,0.16779 6.26399,-0.94229 9.14084,-0.06785c1.78471,0.54248 2.85353,1.62998 4.40457,2.46447c2.55328,1.37371 5.95281,1.41797 8.77476,1.16942l1.3067,-0.30033c0,0 1.02571,-0.23378 1.25949,0.79194z" fill="#8b5f23" stroke="none" stroke-width="0.5"/><path d="M279.8754,161.28905c0.4188,0.96506 -0.54627,1.38386 -0.54627,1.38386l-1.27175,0.43082c-2.97906,-0.16892 -6.85979,-0.59798 -9.60102,0.87821c-1.22521,0.6598 -2.01733,2.10364 -3.2368,2.72633c-1.86635,0.95301 -3.85581,0.73572 -5.8506,0.62747c-2.19191,-0.12525 -5.20332,-0.8061 -6.23004,-3.08874c-1.04934,-2.33291 1.92358,-6.37886 3.94829,-7.17292c2.39159,-0.93795 3.75067,-0.12591 5.68177,1.11852c1.18562,0.76404 3.32344,1.31245 2.58174,3.4664c-0.91234,2.6495 -5.91736,1.07393 -7.62158,0.71793c0,0 -1.02959,-0.21607 -0.81351,-1.24566c0.21607,-1.02959 1.24566,-0.81351 1.24566,-0.81351c1.32352,0.27913 2.6689,0.45666 4.01529,0.58641c0.3957,0.03814 0.99066,0.39352 1.19151,0.05046c0.02667,-0.04556 -3.48401,-2.17482 -4.07738,-2.17323c-1.45839,0.00389 -5.14664,2.86081 -4.1954,4.69129c0.72907,1.40297 3.01746,1.69232 4.38768,1.76211c1.52119,0.08255 3.26975,0.38105 4.69504,-0.35468c1.19834,-0.61858 2.05513,-2.08966 3.27803,-2.74921c3.13632,-1.69155 7.29067,-1.30664 10.71535,-1.12813l0.32015,-0.26c0,0 0.96506,-0.4188 1.38386,0.54627z" fill="#8b5f23" stroke="none" stroke-width="0.5"/><path d="M254.68702,158.4503c-0.05701,1.05047 -1.10748,0.99347 -1.10748,0.99347l-0.91953,-0.07808c-2.43464,0.99203 -1.54163,4.50162 -3.74728,5.72356c-0.47798,0.2648 -1.10369,-0.09576 -1.63923,0.01275c-1.15209,0.23345 -2.26255,0.70983 -3.43459,0.79994c0,0 -1.04943,0.07373 -1.12316,-0.9757c-0.07373,-1.04943 0.9757,-1.12316 0.9757,-1.12316c1.31513,-0.08178 3.19793,-0.26656 4.33045,-0.61999c0.6248,-0.19498 0.32205,-1.27277 0.56506,-1.88051c0.80802,-2.02081 1.77044,-3.14872 3.70131,-4.00784l1.40527,0.04808c0,0 1.05047,0.05701 0.99347,1.10748z" fill="#8b5f23" stroke="none" stroke-width="0.5"/><path d="M285.68976,159.76521c0.11647,1.04555 -0.92908,1.16201 -0.92908,1.16201l-0.85938,0.04523c-1.23359,1.18062 -0.44821,2.13387 -0.22302,3.50253c0.35268,2.14345 -0.36709,4.93876 -2.50383,5.90689c-1.52748,0.69208 -2.98438,-0.40418 -4.11803,-1.02993c-1.42724,-0.78781 -3.77503,-0.48401 -5.33064,-0.56843c0,0 -1.05047,-0.05701 -0.99347,-1.10748c0.05701,-1.05047 1.10748,-0.99347 1.10748,-0.99347c2.01396,0.10929 4.39752,-0.10782 6.25124,0.83728c0.6736,0.34343 1.39556,1.26344 2.38476,0.87737c1.92215,-0.75018 0.79662,-3.78215 0.61394,-4.99917c-0.2905,-1.93524 0.60733,-3.16363 1.95161,-4.34587l1.48643,-0.21608c0,0 1.04555,-0.11647 1.16201,0.92908z" fill="#8b5f23" stroke="none" stroke-width="0.5"/><path d="M235.59461,166.54646c-0.05701,1.05047 -1.10748,0.99347 -1.10748,0.99347l-0.19374,-0.01051c-0.69787,-0.09032 -1.51163,0.12461 -2.09361,-0.27096c-1.03473,-0.70331 -0.47925,-2.93223 -1.41877,-3.30298c-2.4168,-0.95372 -3.05548,1.74106 -5.08572,2.29485c-1.79265,0.48898 -6.72384,0.06353 -5.95032,-3.06532c0.19184,-0.77598 1.48706,-0.58702 2.22598,-0.89191c1.12846,-0.46562 2.14111,-1.11419 3.21799,-1.6837c0,0 0.9301,-0.49158 1.42168,0.43852c0.49158,0.9301 -0.43852,1.42168 -0.43852,1.42168c-0.87154,0.46033 -1.8338,1.25711 -2.82775,1.58109c0.64446,0.06313 1.29247,0.26942 1.92189,0.13981c1.76542,-0.36355 1.41012,-2.03084 3.53264,-2.35592c1.76989,-0.27107 3.37847,0.09489 4.31301,1.76343c0.31841,0.56848 -0.30491,1.66608 0.2894,1.93321c0.30748,0.13821 0.67073,-0.06851 1.00611,-0.10275l0.19374,0.01051c0,0 1.05047,0.05701 0.99347,1.10748z" fill="#8b5f23" stroke="none" stroke-width="0.5"/></g><g><path d="M224.62163,204.66212c0,0 -2.36013,-6.63666 -4.02936,-8.99175c-0.69264,-0.97724 -5.97867,-5.1285 -5.97867,-5.1285l68.69313,-48.6877c0,0 2.51985,5.75974 4.11574,8.01138c1.72938,2.43997 5.89228,6.10887 5.89228,6.10887z" fill="#966726" stroke="#ffffff" stroke-width="0"/><path d="M247.60044,176.68877c0.97517,0.78201 0.19317,1.75718 0.19317,1.75718l-1.10551,1.37393c-2.88091,2.72915 -6.48132,5.4318 -10.46747,6.16668c-1.81577,0.33475 -3.4855,0.07686 -5.28844,0.76826c-3.09856,1.18826 -5.42375,4.70746 -8.04584,6.57799c0,0 -1.01982,0.72282 -1.74264,-0.297c-0.72282,-1.01982 0.297,-1.74264 0.297,-1.74264c2.82979,-1.99108 5.13417,-5.50361 8.45763,-6.81457c2.06177,-0.81328 3.8598,-0.59052 5.91977,-0.95942c3.39105,-0.60728 6.58783,-3.07698 9.03076,-5.39259l0.99439,-1.24466c0,0 0.78201,-0.97517 1.75718,-0.19317z" fill="#8b5f23" stroke="none" stroke-width="0.5"/><path d="M279.38809,151.91639c1.10259,0.5889 0.51369,1.69149 0.51369,1.69149l-0.86547,1.3403c-2.89749,2.0431 -6.82635,4.51006 -8.2874,7.90868c-0.65303,1.51904 -0.32387,3.44793 -0.99895,4.92819c-1.03319,2.26548 -3.04536,3.53266 -4.98195,4.90526c-2.1326,1.50236 -5.43832,3.09288 -8.07988,1.72668c-2.69974,-1.39629 -2.92107,-7.35781 -1.62308,-9.59233c1.53318,-2.63941 3.39789,-2.88743 6.11439,-3.15549c1.66782,-0.16458 4.06263,-1.23313 4.9632,1.31946c1.10776,3.13985 -4.71432,5.37009 -6.56345,6.29749c0,0 -1.11787,0.55934 -1.67721,-0.55853c-0.55934,-1.11787 0.55853,-1.67721 0.55853,-1.67721c1.43801,-0.71775 2.82134,-1.54621 4.17031,-2.41989c0.39645,-0.25677 1.2127,-0.36544 1.14626,-0.83308c-0.00882,-0.06211 -4.84903,0.5491 -5.40013,0.98883c-1.3545,1.08079 -2.6772,6.46396 -0.43985,7.46509c1.7148,0.76731 4.05842,-0.65358 5.38528,-1.60066c1.4768,-1.04671 3.32472,-2.06037 4.1079,-3.79785c0.65847,-1.46082 0.36937,-3.46284 1.02043,-4.97995c1.66973,-3.89087 5.82064,-6.60101 9.13997,-8.96433l0.10594,-0.47846c0,0 0.5889,-1.10259 1.69149,-0.51369z" fill="#8b5f23" stroke="none" stroke-width="0.5"/><path d="M253.84756,167.87835c0.72282,1.01982 -0.297,1.74264 -0.297,1.74264l-0.91351,0.60648c-1.53331,2.72154 1.89003,5.32848 0.73967,8.09487c-0.24929,0.5995 -1.09798,0.72605 -1.51628,1.22261c-0.89987,1.06822 -1.58156,2.33178 -2.60587,3.28132c0,0 -0.92229,0.84373 -1.76602,-0.07856c-0.84373,-0.92229 0.07856,-1.76602 0.07856,-1.76602c1.16365,-1.04747 2.77956,-2.61008 3.57261,-3.77551c0.43752,-0.64296 -0.64032,-1.42248 -0.86302,-2.16761c-0.74051,-2.47765 -0.67783,-4.23829 0.48478,-6.46403l1.34345,-0.99318c0,0 1.01982,-0.72282 1.74264,0.297z" fill="#8b5f23" stroke="none" stroke-width="0.5"/><path d="M283.67425,146.20361c0.88064,0.88711 -0.00647,1.76776 -0.00647,1.76776l-0.76645,0.67684c-0.27614,2.00999 1.15891,2.31713 2.37939,3.42467c1.91139,1.73451 3.3061,4.86783 2.0324,7.34712c-0.91052,1.77235 -3.07621,1.82807 -4.59353,2.08297c-1.91027,0.32091 -3.87106,2.33774 -5.38128,3.40814c0,0 -1.01982,0.72282 -1.74264,-0.297c-0.72282,-1.01982 0.297,-1.74264 0.297,-1.74264c1.95519,-1.38579 4.01332,-3.34836 6.4367,-3.83786c0.88061,-0.17787 2.23207,0.14517 2.86761,-0.94477c1.23495,-2.11791 -2.05205,-4.10858 -3.12096,-5.10638c-1.69974,-1.58664 -1.77139,-3.39309 -1.39341,-5.48633l1.22389,-1.29898c0,0 0.88711,-0.88064 1.76776,0.00647z" fill="#8b5f23" stroke="none" stroke-width="0.5"/><path d="M242.05728,189.51538c0.72282,1.01982 -0.297,1.74264 -0.297,1.74264l-0.18808,0.13331c-0.71625,0.43138 -1.3149,1.23247 -2.14874,1.29414c-1.48253,0.10965 -2.6118,-2.37517 -3.76009,-2.02632c-2.95383,0.89738 -1.55791,3.87724 -3.0385,5.89221c-1.30732,1.77916 -6.21123,5.02535 -7.80224,1.54189c-0.39458,-0.86392 0.95049,-1.64471 1.41304,-2.47424c0.7064,-1.26684 1.16988,-2.61845 1.75154,-3.94389c0,0 0.5026,-1.14451 1.64711,-0.6419c1.14451,0.5026 0.6419,1.64711 0.6419,1.64711c-0.47117,1.07215 -0.77829,2.52449 -1.46411,3.56016c0.64645,-0.41724 1.40195,-0.70385 1.89204,-1.28938c1.37464,-1.64231 -0.18752,-2.93169 1.5479,-4.80196c1.4471,-1.55954 3.21456,-2.40701 5.31676,-1.54428c0.71624,0.29394 0.94677,1.77589 1.69722,1.58557c0.38826,-0.09847 0.57369,-0.55916 0.86053,-0.83874l0.18808,-0.13331c0,0 1.01982,-0.72282 1.74264,0.297z" fill="#8b5f23" stroke="none" stroke-width="0.5"/></g><g><path d="M212.56811,180.02489c0,0 1.10646,-5.824 0.89495,-8.24423c-0.08776,-1.00426 -2.16306,-6.26651 -2.16306,-6.26651l70.59279,-6.16919c0,0 -0.61772,5.2549 -0.4155,7.56881c0.21913,2.50744 1.68361,6.94193 1.68361,6.94193z" fill="#a37029" stroke="#ffffff" stroke-width="0"/><path d="M241.14968,169.47207c0.37598,0.98254 -0.60656,1.35852 -0.60656,1.35852l-1.38701,0.52814c-3.25269,0.75794 -7.01675,1.19082 -10.22463,0.03036c-1.46125,-0.52861 -2.56452,-1.42565 -4.16805,-1.68975c-2.75585,-0.45387 -5.94066,1.11417 -8.64039,1.35842c0,0 -1.04802,0.09159 -1.13961,-0.95643c-0.09159,-1.04802 0.95643,-1.13961 0.95643,-1.13961c2.90184,-0.24354 6.06871,-1.81557 9.04008,-1.35524c1.84334,0.28558 3.05474,1.21162 4.7079,1.81922c2.72137,1.00021 6.09322,0.56499 8.85199,-0.07872l1.25135,-0.48146c0,0 0.98254,-0.37598 1.35852,0.60656z" fill="#8b5f23" stroke="none" stroke-width="0.5"/><path d="M274.76943,164.98855c0.55061,0.89642 -0.34581,1.44703 -0.34581,1.44703l-1.19836,0.60573c-2.97313,0.25255 -6.87561,0.37461 -9.38146,2.22236c-1.12001,0.82586 -1.70077,2.36691 -2.82032,3.15523c-1.71343,1.20649 -3.71367,1.27172 -5.70381,1.44564c-2.18768,0.18487 -5.26499,-0.06485 -6.60312,-2.18003c-1.36761,-2.16177 1.00552,-6.58627 2.89813,-7.65772c2.23556,-1.26559 3.6955,-0.65318 5.78269,0.30673c1.28145,0.58935 3.47522,0.83104 3.04443,3.06801c-0.52989,2.75162 -5.70698,1.89704 -7.44436,1.78474c0,0 -1.04976,-0.06884 -0.98093,-1.1186c0.06884,-1.04976 1.1186,-0.98093 1.1186,-0.98093c1.34964,0.08985 2.70662,0.07602 4.05786,0.01475c0.39712,-0.01801 1.03623,0.25 1.18673,-0.11794c0.01999,-0.04887 -3.75571,-1.66217 -4.34293,-1.57699c-1.44328,0.20936 -4.69216,3.55749 -3.49248,5.23567c0.91949,1.28623 3.22583,1.25024 4.5922,1.12625c1.51764,-0.13263 3.29081,-0.0835 4.59821,-1.01272c1.09922,-0.78126 1.74016,-2.3584 2.85792,-3.1837c2.86667,-2.11661 7.0338,-2.32095 10.44946,-2.6268l0.28032,-0.30252c0,0 0.89642,-0.55061 1.44703,0.34581z" fill="#8b5f23" stroke="none" stroke-width="0.5"/><path d="M249.43236,165.72749c0.09159,1.04802 -0.95643,1.13961 -0.95643,1.13961l-0.92135,0.05227c-2.27056,1.3252 -0.89191,4.67394 -2.90336,6.19448c-0.4359,0.32951 -1.10617,0.06072 -1.62108,0.24362c-1.1077,0.39347 -2.13994,1.02157 -3.2876,1.27594c0,0 -1.02857,0.22087 -1.24944,-0.8077c-0.22087,-1.02857 0.8077,-1.24944 0.8077,-1.24944c1.29049,-0.26628 3.12846,-0.71453 4.19988,-1.22402c0.5911,-0.28108 0.13949,-1.30545 0.29443,-1.94137c0.5152,-2.11451 1.30908,-3.36679 3.09963,-4.4894l1.39802,-0.15042c0,0 1.04802,-0.09159 1.13961,0.95643z" fill="#8b5f23" stroke="none" stroke-width="0.5"/><path d="M280.31105,162.66059c0.26264,1.01871 -0.75607,1.28134 -0.75607,1.28134l-0.84444,0.16588c-1.05492,1.34268 -0.14305,2.17574 0.27275,3.49901c0.65119,2.07237 0.33251,4.94121 -1.6465,6.20078c-1.41472,0.90042 -3.01156,0.02039 -4.22207,-0.43937c-1.52401,-0.57884 -3.80556,0.05276 -5.35755,0.1884c0,0 -1.04802,0.09159 -1.13961,-0.95643c-0.09159,-1.04802 0.95643,-1.13961 0.95643,-1.13961c2.00926,-0.17559 4.33845,-0.72641 6.30685,-0.05194c0.71527,0.24509 1.55967,1.05417 2.48459,0.53257c1.79727,-1.01354 0.25572,-3.85667 -0.09664,-5.0358c-0.5603,-1.87499 0.15547,-3.21765 1.31975,-4.57751l1.44115,-0.42337c0,0 1.01871,-0.26264 1.28134,0.75607z" fill="#8b5f23" stroke="none" stroke-width="0.5"/><path d="M231.67131,176.43321c0.09159,1.04802 -0.95643,1.13961 -0.95643,1.13961l-0.19328,0.01689c-0.70363,0.00892 -1.47899,0.33638 -2.1109,0.02676c-1.12351,-0.55049 -0.88766,-2.83544 -1.87005,-3.07011c-2.52708,-0.60365 -2.77965,2.15424 -4.7116,2.9886c-1.70586,0.73671 -6.6478,1.01038 -6.32289,-2.19625c0.08058,-0.79527 1.38951,-0.79072 2.07808,-1.19668c1.05158,-0.61998 1.96275,-1.40478 2.94863,-2.12036c0,0 0.85155,-0.61774 1.46929,0.23381c0.61774,0.85155 -0.23381,1.46929 -0.23381,1.46929c-0.79797,0.57854 -1.63836,1.50298 -2.57674,1.96378c0.64692,-0.02831 1.31754,0.08461 1.92242,-0.13241c1.69658,-0.60869 1.10988,-2.20928 3.16542,-2.83021c1.71404,-0.51777 3.35813,-0.38213 4.51846,1.13808c0.39534,0.51795 -0.06709,1.69242 0.55892,1.87314c0.32389,0.0935 0.65439,-0.16233 0.98159,-0.2435l0.19328,-0.01689c0,0 1.04802,-0.09159 1.13961,0.95643z" fill="#8b5f23" stroke="none" stroke-width="0.5"/></g><g><path d="M235.97577,203.60357c0,0 -0.04283,-5.92802 -0.71921,-8.26141c-0.28066,-0.96823 -3.33613,-5.72872 -3.33613,-5.72872l68.06012,-19.7287c0,0 0.41205,5.27502 1.05872,7.5059c0.70076,2.41748 2.99662,6.48423 2.99662,6.48423z" fill="#a37029" stroke="#ffffff" stroke-width="0"/><path d="M261.97136,187.7134c0.55921,0.89108 -0.33187,1.45029 -0.33187,1.45029l-1.25842,0.78685c-3.04422,1.37375 -6.65311,2.52765 -10.02503,2.01067c-1.53598,-0.2355 -2.79214,-0.9018 -4.41645,-0.85023c-2.79156,0.08863 -5.61225,2.24398 -8.21351,3.00664c0,0 -1.01042,0.29289 -1.30332,-0.71753c-0.29289,-1.01042 0.71753,-1.30332 0.71753,-1.30332c2.79968,-0.80112 5.60199,-2.9569 8.60624,-3.08095c1.86375,-0.07696 3.2316,0.59685 4.97115,0.87266c2.86359,0.45403 6.08724,-0.62619 8.66903,-1.79218l1.13436,-0.71477c0,0 0.89108,-0.55921 1.45029,0.33187z" fill="#8b5f23" stroke="none" stroke-width="0.5"/><path d="M294.08552,176.80145c0.71385,0.77276 -0.05892,1.48661 -0.05892,1.48661l-1.0583,0.82642c-2.86788,0.82377 -6.67276,1.69957 -8.77317,3.99778c-0.93879,1.0272 -1.20999,2.65157 -2.15561,3.64185c-1.44723,1.51559 -3.39693,1.96709 -5.31567,2.52328c-2.11042,0.6052 -5.1778,0.9564 -6.90036,-0.85946c-1.76051,-1.85585 -0.28953,-6.65629 1.35965,-8.0741c1.94801,-1.67473 3.49894,-1.35675 5.73255,-0.8194c1.37135,0.32992 3.57038,0.14202 3.58114,2.42007c0.01324,2.80215 -5.23133,2.96675 -6.95755,3.19317c0,0 -1.04321,0.13585 -1.17905,-0.90736c-0.13585,-1.04321 0.90736,-1.17905 0.90736,-1.17905c1.34148,-0.17333 2.67007,-0.44979 3.98383,-0.77168c0.38611,-0.0946 1.06503,0.0445 1.1414,-0.34562c0.01014,-0.05181 -4.00657,-0.90307 -4.56617,-0.70573c-1.37538,0.48501 -3.91405,4.39913 -2.41197,5.81309c1.15126,1.08373 3.40692,0.60159 4.72339,0.21523c1.46319,-0.42414 3.21229,-0.71947 4.31489,-1.88438c0.92703,-0.97942 1.25029,-2.65085 2.18698,-3.67706c2.40229,-2.63189 6.45088,-3.63968 9.74258,-4.60147l0.2164,-0.3511c0,0 0.77276,-0.71385 1.48661,0.05892z" fill="#8b5f23" stroke="none" stroke-width="0.5"/><path d="M269.37166,182.4351c0.29289,1.01042 -0.71753,1.30332 -0.71753,1.30332l-0.89377,0.22978c-1.9708,1.73998 0.0305,4.75818 -1.64826,6.63961c-0.3638,0.40772 -1.07345,0.27387 -1.54317,0.55306c-1.01048,0.60061 -1.90149,1.4168 -2.97811,1.88869c0,0 -0.96629,0.41596 -1.38225,-0.55033c-0.41596,-0.96629 0.55033,-1.38225 0.55033,-1.38225c1.21445,-0.51125 2.93076,-1.30709 3.88317,-2.0145c0.52544,-0.39027 -0.11607,-1.30774 -0.08726,-1.96163c0.09578,-2.17426 0.63201,-3.55661 2.17114,-5.00486l1.34239,-0.41842c0,0 1.01042,-0.29289 1.30332,0.71753z" fill="#8b5f23" stroke="none" stroke-width="0.5"/><path d="M299.07114,173.44399c0.45502,0.94852 -0.4935,1.40354 -0.4935,1.40354l-0.7963,0.32633c-0.77481,1.52161 0.28118,2.16223 0.94547,3.37987c1.04035,1.90694 1.2835,4.78317 -0.41398,6.40228c-1.21347,1.15744 -2.95055,0.60345 -4.2272,0.38692c-1.60728,-0.27261 -3.72324,0.78904 -5.21954,1.22278c0,0 -1.01042,0.29289 -1.30332,-0.71753c-0.29289,-1.01042 0.71753,-1.30332 0.71753,-1.30332c1.93718,-0.56153 4.11552,-1.55316 6.17729,-1.27283c0.7492,0.10187 1.73435,0.73204 2.5407,0.04113c1.56685,-1.34254 -0.4963,-3.83314 -1.07042,-4.92167c-0.91294,-1.73092 -0.47085,-3.1868 0.40791,-4.74647l1.33182,-0.69456c0,0 0.94852,-0.45502 1.40354,0.4935z" fill="#8b5f23" stroke="none" stroke-width="0.5"/><path d="M254.0212,196.37896c0.29289,1.01042 -0.71753,1.30332 -0.71753,1.30332l-0.18635,0.05402c-0.68857,0.14507 -1.3858,0.61654 -2.06572,0.43521c-1.20887,-0.32239 -1.42017,-2.60975 -2.42941,-2.64964c-2.59614,-0.10262 -2.30963,2.65195 -4.04333,3.84478c-1.53081,1.05324 -6.3261,2.27915 -6.62859,-0.92967c-0.07502,-0.79581 1.20999,-1.04493 1.80687,-1.57661c0.91155,-0.81197 1.6534,-1.75842 2.48197,-2.65144c0,0 0.71574,-0.77101 1.48675,-0.05527c0.77101,0.71574 0.05527,1.48675 0.05527,1.48675c-0.67077,0.72218 -1.31614,1.79191 -2.14746,2.42578c0.62918,-0.15311 1.30897,-0.17225 1.86034,-0.50234c1.54651,-0.92585 0.66083,-2.38244 2.55713,-3.38984c1.58125,-0.84003 3.22047,-1.02548 4.65334,0.24113c0.48819,0.43154 0.26206,1.67335 0.91123,1.72937c0.33586,0.02898 0.61054,-0.28604 0.91582,-0.42905l0.18635,-0.05402c0,0 1.01042,-0.29289 1.30332,0.71753z" fill="#8b5f23" stroke="none" stroke-width="0.5"/></g></g></g></svg>