<svg version="1.1" xmlns="http://www.w3.org/2000/svg" xmlns:xlink="http://www.w3.org/1999/xlink" width="345" height="200" viewBox="0,0,345,200"><defs><linearGradient x1="251.08013" y1="156.02756" x2="252.37017" y2="154.38667" gradientUnits="userSpaceOnUse" id="color-1"><stop offset="0" stop-color="#edafbc"/><stop offset="1" stop-color="#d29ca8"/></linearGradient><linearGradient x1="239.43406" y1="187.53017" x2="238.32277" y2="189.29699" gradientUnits="userSpaceOnUse" id="color-2"><stop offset="0" stop-color="#edafbc"/><stop offset="1" stop-color="#d29ca8"/></linearGradient><linearGradient x1="204.75817" y1="178.12281" x2="235.20956" y2="178.12281" gradientUnits="userSpaceOnUse" id="color-3"><stop offset="0" stop-color="#edafbc"/><stop offset="1" stop-color="#ca96a1"/></linearGradient></defs><g transform="translate(-67.5,-80)"><g data-paper-data="{&quot;isPaintingLayer&quot;:true}" fill-rule="nonzero" stroke-linecap="butt" stroke-linejoin="miter" stroke-miterlimit="10" stroke-dasharray="" stroke-dashoffset="0" style="mix-blend-mode: normal"><g data-paper-data="{&quot;index&quot;:null}" stroke-width="0"><g fill="#ffd726"><path d="M258.50273,148.81899l-5.8052,7.38407l-1.60994,-1.2657l5.8052,-7.38407z" stroke="#ff0000"/><path d="M265.94724,152.60378c-0.28362,0.36076 -2.96756,0.37823 -5.00324,-1.22217c-2.03567,-1.6004 -3.45598,-3.19023 -3.17237,-3.55099c0.28363,-0.36076 2.02981,0.81457 4.06549,2.41497c2.03565,1.60039 4.39374,1.99742 4.11013,2.35818z" stroke="#ff0000"/><path d="M259.06037,148.98165c-0.29595,0.37645 -2.07229,-0.5263 -3.96757,-2.01633c-1.89528,-1.49003 -2.39258,-3.8453 -2.09663,-4.22174c0.29595,-0.37645 0.96507,1.58588 2.86035,3.07591c1.89527,1.49004 3.4998,2.78573 3.20385,3.16217z" stroke="none"/><path d="M257.73172,146.48042c1.0263,1.86692 2.71006,3.04797 2.15941,3.12947c-0.55065,0.0815 -2.4832,-0.96112 -3.5095,-2.82803c-1.0263,-1.86693 -0.7577,-3.8512 -0.20705,-3.9327c0.55066,-0.0815 0.53085,1.76434 1.55715,3.63125z" stroke="none"/></g><path d="M251.53098,153.72693l0.20273,0.9188l1.08131,0.095l0.22781,0.94095l0.77779,0.31799l3.62934,5.77816c0,0 -6.06422,-5.51002 -6.66429,-5.98178c-0.50267,-0.3952 -5.07658,-3.85733 -5.07658,-3.85733l4.75132,1.41921z" fill="url(#color-1)" stroke="#ff0000"/></g><g stroke-width="0"><g fill="#ffd726"><path d="M233.40897,195.85475l5.00095,-7.95081l1.7335,1.09035l-5.00095,7.95081z" stroke="#ff0000"/><path d="M241.21095,202.68259c-0.24432,0.38845 -1.41144,-1.69867 -3.60336,-3.07735c-2.19191,-1.37868 -3.88614,-2.62774 -3.64182,-3.01619c0.24432,-0.38845 2.2193,0.41431 4.4112,1.79299c2.19191,1.37868 3.07831,3.91209 2.83398,4.30054z" stroke="#ff0000"/><path d="M235.48325,197.4155c-0.25495,0.40534 -2.01488,-0.66983 -4.05562,-1.95342c-2.04075,-1.2836 -4.1138,-1.25362 -3.85885,-1.65895c0.25495,-0.40534 2.64024,-0.72931 4.681,0.5543c2.04075,1.2836 3.48843,2.65275 3.23347,3.05808z" stroke="none"/><path d="M232.68082,197.00567c-2.10336,-0.33849 -3.83495,0.30109 -3.94344,-0.2449c-0.10848,-0.54598 1.6698,-1.46641 3.77316,-1.12794c2.10336,0.33849 3.7353,1.80768 3.84379,2.35367c0.10848,0.54598 -1.57014,-0.64237 -3.6735,-0.98084z" stroke="none"/></g><path d="M236.71155,187.8446l-2.9348,-3.99702c0,0 4.79898,3.14273 5.34025,3.48317c0.64613,0.40641 7.87498,4.26372 7.87498,4.26372l-6.6623,-1.47413l-0.56111,-0.62549l-0.96275,0.10198l-0.45321,-0.98634l-0.93345,0.11815z" fill="url(#color-2)" stroke="#ff0000"/></g><g stroke-width="0"><g><path d="M284.64845,168.69672c-0.10896,1.04738 2.33433,7.32778 1.34045,8.87098c-2.15355,3.34385 -8.73023,2.15116 -9.81585,2.06547c-1.58663,-0.12524 -2.59311,-2.9156 -2.24805,-6.23245c0.34506,-3.31685 1.91101,-5.90417 3.49764,-5.77893c1.58663,0.12524 7.57087,-2.24192 7.22581,1.07493z" fill="#906bc7" stroke="#ffffff"/><path d="M279.30411,173.0231c0,9.57869 -13.43146,17.34375 -30,17.34375c-16.56854,0 -30,-7.76506 -30,-17.34375c0,-9.57869 13.43146,-17.34375 30,-17.34375c16.56854,0 30,7.76506 30,17.34375z" fill="#ca96a1" stroke="none"/><path d="M249.21773,162.93073c-11.88667,0.25754 -21.83705,-1.21776 -21.90234,-4.23086c-0.02917,-1.34599 3.88765,-1.68452 7.1122,-2.8725c3.99384,-1.4714 0.18472,-4.24959 6.76146,-4.39209c11.88667,-0.25754 32.21032,5.51325 32.21032,5.51325c0,0 -12.29497,5.72466 -24.18165,5.9822z" data-paper-data="{&quot;index&quot;:null}" fill="#906bc7" stroke="#000000"/></g><path d="M274.2327,187.71567c0,0 -20.32364,5.7708 -32.21031,5.51326c-6.57674,-0.14249 -2.76762,-2.92069 -6.76146,-4.39209c-3.22456,-1.18798 -7.14137,-1.52651 -7.11221,-2.8725c0.06528,-3.0131 10.01567,-4.4884 21.90234,-4.23086c11.88667,0.25754 24.18164,5.98219 24.18164,5.98219z" fill="#906bc7" stroke="#000000"/></g><g><g stroke="#000000" stroke-width="0"><path d="M210.07399,181.50108c0.0712,2.31232 -2.91715,4.28062 -6.67466,4.39633c-3.75752,0.11571 -7.76343,-3.7422 -7.76343,-3.7422c0,0 3.74806,-4.51575 7.50558,-4.63145c3.75752,-0.11571 6.86131,1.665 6.93251,3.97732z" fill="#ffd726"/><path d="M210.06754,181.29174c0.06052,1.96547 -2.47957,3.63853 -5.67346,3.73688c-3.19389,0.09835 -6.59892,-3.18086 -6.59892,-3.18086c0,0 3.18585,-3.83839 6.37974,-3.93674c3.19389,-0.09835 5.83211,1.41525 5.89264,3.38072z" fill="#debb21"/><path d="M211.28353,178.09627c0.04593,1.49149 0.72478,4.39712 -2.77853,5.86682c-1.51968,0.92665 -3.18515,-0.76397 -5.42486,-0.69501c-4.39705,0.1354 -9.10791,-5.03228 -9.10791,-5.03228c0,0 4.37187,-5.8409 8.76892,-5.9763c1.70614,-0.05254 4.98743,-0.99115 6.37853,-0.29289c2.19402,1.1013 2.10656,4.26928 2.16385,6.12966z" fill="#ffd726"/></g><path d="M235.20956,177.84503c0,2.98156 -2.9111,3.77178 -4.98283,5.9052c-2.66522,2.74459 -6.42186,6.71633 -10.93731,6.71633c-8.02539,0 -14.53125,-5.52649 -14.53125,-12.34375c0,-6.81726 6.50586,-12.34375 14.53125,-12.34375c2.39409,0 5.76407,2.15848 7.75535,3.02965c4.68378,2.04915 8.16479,4.25275 8.16479,9.03632z" fill="url(#color-3)" stroke="#000000" stroke-width="0"/><path d="M215.93619,168.96202c0.0714,1.80654 -1.79402,3.41619 -4.16656,3.59524c-2.37255,0.17904 -4.35376,-1.1403 -4.42514,-2.94684c-0.07142,-1.80654 1.79403,-3.41615 4.16657,-3.5952c2.37252,-0.17904 4.35373,1.1403 4.42515,2.94684z" data-paper-data="{&quot;index&quot;:null}" fill="#000000" stroke="#ffffff" stroke-width="0.25"/><path d="M215.25439,187.33769c-0.07142,1.80654 -2.05263,3.12588 -4.42515,2.94684c-2.37254,-0.17905 -4.23799,-1.78867 -4.16657,-3.5952c0.07138,-1.80654 2.0526,-3.12588 4.42514,-2.94684c2.37254,0.17905 4.23796,1.7887 4.16656,3.59524z" data-paper-data="{&quot;index&quot;:null}" fill="#000000" stroke="#ffffff" stroke-width="0.25"/><path d="M209.71398,176.582v-0.60976h2.29227v0.60976z" fill="#000000" stroke="#ffffff" stroke-width="0"/><path d="M209.76862,177.82025l0.23088,-0.56436l2.1216,0.86794l-0.23088,0.56436z" fill="#000000" stroke="#ffffff" stroke-width="0"/><path d="M211.72073,173.78131l0.23088,0.56435l-2.1216,0.86794l-0.23087,-0.56436z" data-paper-data="{&quot;index&quot;:null}" fill="#000000" stroke="#ffffff" stroke-width="0"/></g><path d="M67.5,280v-200h345v200z" fill="none" stroke="#ffffff" stroke-width="0"/></g></g></svg>