<svg version="1.1" xmlns="http://www.w3.org/2000/svg" xmlns:xlink="http://www.w3.org/1999/xlink" width="70.16667" height="70.16667" viewBox="0,0,70.16667,70.16667"><g transform="translate(-204.91666,-144.91666)"><g data-paper-data="{&quot;isPaintingLayer&quot;:true}" stroke-miterlimit="10" stroke-dasharray="" stroke-dashoffset="0" style="mix-blend-mode: normal"><path d="M204.91667,215.08334v-70.16667h70.16667v70.16667z" fill="none" fill-rule="nonzero" stroke="none" stroke-width="0" stroke-linecap="butt" stroke-linejoin="miter"/><g><path d="M245.92439,183.7421c-2.40412,4.45038 -6.19306,4.66191 -9.70202,2.76636c-3.50896,-1.89555 -5.97022,-4.88291 -3.5661,-9.3333c2.40412,-4.45038 8.76322,-8.67851 12.27217,-6.78296c3.50896,1.89555 3.40006,8.89952 0.99594,13.3499z" fill="#f7f4d5" fill-rule="nonzero" stroke="#ff0000" stroke-width="0" stroke-linecap="butt" stroke-linejoin="miter"/><g fill-rule="evenodd" stroke-width="0.25"><path d="M244.72451,173.18204c0.05355,-0.00865 0.11576,0.03626 0.10448,0.09725l-0.31205,1.62705c0,0 0.5827,1.04292 0.63678,1.61328c0.0947,0.95267 -0.17253,1.57492 -0.17253,1.57492c0,0 0.84083,0.7307 0.64927,1.5859c-0.19156,0.8552 -1.4681,2.05894 -4.27264,1.39181c-2.80454,-0.66713 -4.55322,-2.30792 -4.81348,-4.31172c-0.26026,-2.00379 2.12193,-3.16634 1.98986,-3.09428l0.82997,-2.58145c0.01128,-0.061 0.09846,-0.07085 0.14073,-0.0185l1.16321,1.83681c0,0 0.72214,0.04821 1.37801,0.31424c0.39578,0.14742 0.71183,0.32462 1.00171,0.52296z" fill="#ffab19" stroke="#001026" stroke-linecap="butt" stroke-linejoin="miter"/><path d="M244.91515,178.13057c0,0 0.83218,0.67715 0.64062,1.53234c-0.19156,0.8552 -1.49164,1.96552 -4.26256,1.29719c-3.62491,-0.82628 -4.3002,-3.51542 -2.72131,-4.54821c1.58514,-1.04647 2.5913,0.91715 3.77865,1.3594c1.01683,0.38103 1.51964,-0.43145 2.5646,0.35928z" fill="#ffffff" stroke="none" stroke-linecap="butt" stroke-linejoin="miter"/><path d="M239.9351,177.62886c0.02497,-0.05476 0.09845,-0.07086 0.14697,-0.0322c0.2164,0.21443 0.85573,0.77057 1.6521,1.19989c0.72048,0.37817 1.17727,0.53687 1.40133,0.58944c0.07469,0.01752 0.09823,0.11094 0.03964,0.1669c-0.29176,0.31342 -1.28014,1.10288 -2.68005,0.36526c-1.18328,-0.70498 -0.90696,-1.63727 -0.56,-2.2893z" fill="#ffffff" stroke="#001026" stroke-linecap="round" stroke-linejoin="round"/><path d="M247.36529,179.42981c-0.88061,0.22678 -1.87248,-0.20901 -1.87248,-0.20901" fill="none" stroke="#001026" stroke-linecap="round" stroke-linejoin="round"/><path d="M246.48814,180.88184c-0.89363,-0.32484 -1.30889,-0.82841 -1.30889,-0.82841" fill="none" stroke="#001026" stroke-linecap="round" stroke-linejoin="round"/><path d="M242.45811,177.3904c0.28747,0.1311 0.57614,0.29581 0.54614,0.39788c-0.07371,0.19789 -0.45384,0.48755 -0.67911,0.40135c-0.25889,-0.08499 -0.67776,-0.68941 -0.57788,-0.90844c0.06122,-0.17051 0.43707,-0.01565 0.71085,0.10921z" fill="#001026" stroke="#001026" stroke-linecap="round" stroke-linejoin="round"/><path d="M236.39163,174.37585c0,0 1.00247,0.92017 1.28807,1.56303" fill="none" stroke="#001026" stroke-linecap="round" stroke-linejoin="round"/><path d="M237.50227,176.43672c-0.69476,-0.03572 -1.63909,-0.64826 -1.63909,-0.64826" fill="none" stroke="#001026" stroke-linecap="round" stroke-linejoin="round"/><g><path d="M244.80382,176.52541c0.11606,0.79705 -0.18863,1.50144 -0.68429,1.57305c-0.49566,0.07161 -0.99427,-0.50303 -1.12402,-1.30632c-0.11606,-0.79705 0.18863,-1.50144 0.68429,-1.57304c0.50191,-0.0853 1.00796,0.50927 1.12402,1.30632z" fill="#ffffff" stroke="#001026" stroke-linecap="round" stroke-linejoin="round"/><path d="M244.39323,177.28072c-0.06867,0.15058 -0.23437,0.22384 -0.37126,0.16141c-0.13689,-0.06242 -0.19023,-0.23557 -0.12155,-0.38615c0.06867,-0.15058 0.23437,-0.22384 0.37126,-0.16142c0.13689,0.06242 0.19022,0.23557 0.12155,0.38615" fill="#001026" stroke="none" stroke-linecap="butt" stroke-linejoin="miter"/></g><g><path d="M241.23412,175.36052c0.13599,0.7896 -0.22849,1.51633 -0.71671,1.60787c-0.57035,0.05408 -1.08528,-0.41224 -1.22127,-1.20185c-0.14969,-0.79585 0.17877,-1.58861 0.74047,-1.69625c0.56795,-0.12133 1.06151,0.50062 1.19751,1.29022z" fill="#ffffff" stroke="#001026" stroke-linecap="round" stroke-linejoin="round"/><path d="M240.78991,176.11703c-0.06867,0.15058 -0.23437,0.22384 -0.37126,0.16141c-0.13689,-0.06242 -0.19023,-0.23557 -0.12155,-0.38615c0.06867,-0.15058 0.23437,-0.22384 0.37126,-0.16142c0.13065,0.07612 0.19022,0.23557 0.12155,0.38615" fill="#001026" stroke="none" stroke-linecap="butt" stroke-linejoin="miter"/></g></g><path d="M245.92439,183.7421c-2.40412,4.45038 -6.19306,4.66191 -9.70202,2.76636c-3.50896,-1.89555 -5.97022,-4.88291 -3.5661,-9.3333c2.40412,-4.45038 8.76322,-8.67851 12.27217,-6.78296c3.50896,1.89555 3.40006,8.89952 0.99594,13.3499z" fill-opacity="0.64516" fill="#f7f4d5" fill-rule="nonzero" stroke="#ff0000" stroke-width="0" stroke-linecap="butt" stroke-linejoin="miter"/><path d="M233.74156,178.60141c0.3624,-0.67086 1.20002,-0.92091 1.87087,-0.55851c0.67086,0.3624 0.92091,1.20001 0.55851,1.87087c-0.3624,0.67086 -1.20001,0.92091 -1.87087,0.55851c-0.67086,-0.3624 -0.92091,-1.20002 -0.55851,-1.87088z" fill="#c8c6ac" fill-rule="nonzero" stroke="none" stroke-width="0" stroke-linecap="butt" stroke-linejoin="miter"/><path d="M232.38358,182.99941l-0.52907,-1.21882c0,0 3.82716,-1.23871 6.79607,-0.81541c1.36295,0.19433 2.1281,2.25424 3.00086,2.24898c1.70092,-0.01026 5.26523,-1.52442 5.26523,-1.52442c0,0 -0.67636,1.49766 -1.04188,2.14582c-0.28799,0.51068 -0.97459,1.42995 -0.97459,1.42995c0,0 -3.0219,0.2222 -4.65977,-0.07433c-0.90703,-0.16421 -1.67448,-1.88767 -3.05205,-2.28173c-2.12037,-0.60654 -4.80481,0.08996 -4.80481,0.08996z" fill="#c8c6ac" fill-rule="nonzero" stroke="none" stroke-width="0" stroke-linecap="butt" stroke-linejoin="miter"/><path d="M242.77432,170.67319c0.12733,-0.23571 0.42163,-0.32356 0.65733,-0.19623c0.23571,0.12733 0.32356,0.42163 0.19623,0.65733c-0.12733,0.23571 -0.42163,0.32356 -0.65733,0.19623c-0.23571,-0.12733 -0.32356,-0.42163 -0.19623,-0.65733z" fill="#c8c6ac" fill-rule="nonzero" stroke="none" stroke-width="0" stroke-linecap="butt" stroke-linejoin="miter"/><path d="M243.99883,171.54672c0.21548,-0.39889 0.71352,-0.54757 1.11241,-0.33209c0.39889,0.21548 0.54757,0.71352 0.33209,1.11241c-0.21548,0.39889 -0.71352,0.54757 -1.11241,0.33209c-0.39889,-0.21548 -0.54757,-0.71352 -0.33209,-1.11241z" fill="#c8c6ac" fill-rule="nonzero" stroke="none" stroke-width="0" stroke-linecap="butt" stroke-linejoin="miter"/><path d="M238.27853,185.59016c0.1763,-0.32636 0.58379,-0.44801 0.91015,-0.27171c0.32636,0.1763 0.44801,0.58379 0.27171,0.91015c-0.1763,0.32636 -0.58379,0.44801 -0.91015,0.27171c-0.32636,-0.1763 -0.44801,-0.58379 -0.27171,-0.91015z" fill="#c8c6ac" fill-rule="nonzero" stroke="none" stroke-width="0" stroke-linecap="butt" stroke-linejoin="miter"/></g></g></g></svg>