<svg version="1.1" xmlns="http://www.w3.org/2000/svg" xmlns:xlink="http://www.w3.org/1999/xlink" width="70.16667" height="70.16667" viewBox="0,0,70.16667,70.16667"><g transform="translate(-204.91672,-144.9167)"><g data-paper-data="{&quot;isPaintingLayer&quot;:true}" fill-rule="nonzero" stroke-width="0" stroke-linecap="butt" stroke-linejoin="miter" stroke-miterlimit="10" stroke-dasharray="" stroke-dashoffset="0" style="mix-blend-mode: normal"><path d="M204.91673,215.08338v-70.16667h70.16667v70.16667z" fill="none" stroke="none"/><g><path d="M229.844,186.54293c-0.10048,-1.23572 -0.55259,-6.79639 -0.71965,-8.85107c-0.0536,-0.65916 0.12871,-1.0421 0.50513,-1.58587c1.26326,-1.8249 4.25392,-6.14523 4.98609,-7.20292c0.36969,-0.53406 0.94625,-0.69981 1.4803,-0.33012c1.22989,0.85137 7.13693,4.94041 9.4643,6.55149c0.57466,0.3978 0.70914,0.99569 0.31135,1.57035c-1.14536,1.6546 -7.62309,11.01233 -9.62431,13.9033c-0.36344,0.52502 -0.92557,0.6178 -1.45059,0.25436c-0.6763,-0.46816 -2.81133,-1.94609 -4.02024,-2.78293c-0.51095,-0.3537 -0.93238,-1.5266 -0.93238,-1.5266zM235.70882,173.06944c0.67171,0.46498 1.59318,0.29739 2.05816,-0.37432c0.46498,-0.67171 0.29739,-1.59318 -0.37432,-2.05816c-0.67171,-0.46498 -1.59318,-0.29739 -2.05816,0.37432c-0.46498,0.67171 -0.29739,1.59318 0.37432,2.05816zM233.3897,176.41964c0.67171,0.46498 1.59318,0.29739 2.05816,-0.37432c0.46498,-0.67171 0.29739,-1.59318 -0.37432,-2.05816c-0.67171,-0.46498 -1.59318,-0.29739 -2.05816,0.37432c-0.46498,0.67171 -0.29739,1.59318 0.37432,2.05816z" fill="#a9603b" stroke="none"/><path d="M230.53973,185.53788c-0.10048,-1.23572 -0.55259,-6.79639 -0.71965,-8.85107c-0.0536,-0.65916 0.12871,-1.0421 0.50513,-1.58587c1.26326,-1.8249 4.25392,-6.14523 4.98609,-7.20292c0.36969,-0.53406 0.94625,-0.69981 1.4803,-0.33012c1.22989,0.85137 7.13693,4.94041 9.4643,6.55149c0.57466,0.3978 0.70914,0.99569 0.31135,1.57035c-1.14536,1.6546 -7.62309,11.01233 -9.62431,13.9033c-0.36344,0.52502 -0.92557,0.61781 -1.45059,0.25437c-0.6763,-0.46816 -2.81133,-1.94609 -4.02024,-2.78293c-0.51095,-0.3537 -0.93238,-1.5266 -0.93238,-1.5266zM235.88275,172.81818c0.67171,0.46498 1.59318,0.29739 2.05816,-0.37432c0.46498,-0.67171 0.29739,-1.59318 -0.37432,-2.05816c-0.67171,-0.46498 -1.59318,-0.29739 -2.05816,0.37432c-0.46498,0.67171 -0.29739,1.59318 0.37432,2.05816zM233.62162,176.08462c0.67171,0.46498 1.59318,0.29739 2.05816,-0.37432c0.46498,-0.67171 0.29739,-1.59318 -0.37432,-2.05816c-0.67171,-0.46498 -1.59318,-0.29739 -2.05816,0.37432c-0.46498,0.67171 -0.29739,1.59318 0.37432,2.05816z" fill="#cc7345" stroke="none"/><path d="M232.48636,187.74695l10.84185,-15.66217l2.17763,1.50742l-10.84185,15.66217z" fill="#a9603b" stroke="#000000"/><path d="M231.80048,188.68618l0.70661,-1.02077l2.23597,1.54781l-0.70661,1.02077z" fill="#8b4f31" stroke="#000000"/></g></g></g></svg>