<svg version="1.1" xmlns="http://www.w3.org/2000/svg" xmlns:xlink="http://www.w3.org/1999/xlink" width="68.86264" height="67.11335" viewBox="0,0,68.86264,67.11335"><g transform="translate(-202.51974,-146.94332)"><g data-paper-data="{&quot;isPaintingLayer&quot;:true}" fill-rule="nonzero" stroke="none" stroke-width="0" stroke-linecap="butt" stroke-linejoin="miter" stroke-miterlimit="10" stroke-dasharray="" stroke-dashoffset="0" style="mix-blend-mode: normal"><path d="" fill="#f0a787"/><path d="" fill="#000000"/><g><path d="M271.28525,198.84194c0.5682,1.00331 -1.54197,1.56071 -1.54197,2.59217c0,0.34776 1.14825,0.72334 1.23831,1.5275c0.10782,0.96255 -0.97734,2.14122 -1.23008,2.74071c-0.48743,1.15616 -1.25687,2.4526 -1.62064,3.05177c-1.05122,1.73143 -5.51317,-0.94623 -7.41539,-0.94623c-2.16936,0 -10.74979,4.49107 -13.23471,2.74351c-1.16566,-0.81977 2.39732,-7.15241 2.39732,-8.39342c0,-0.86828 10.03648,0.05523 10.20216,-0.51628c0.57591,-1.98667 2.1413,-2.35894 4.6163,-2.35894c2.34118,0 6.28696,-1.13475 6.58869,-0.44078z" data-paper-data="{&quot;index&quot;:null}" fill="#f2a685"/><path d="M267.379,204.44565l2.88528,-2.25193c0,0 0.7569,0.51615 0.74675,0.82049c-0.01272,0.38171 -0.67637,1.43143 -0.67637,1.43143l-2.88528,0.56297z" data-paper-data="{&quot;index&quot;:null}" fill="#d0735b"/></g><g data-paper-data="{&quot;index&quot;:null}"><path d="M204.00279,172.04179c-0.90873,-0.70972 0.82783,-2.0318 0.43333,-2.98484c-0.133,-0.32132 -1.33759,-0.22919 -1.72837,-0.93776c-0.46776,-0.84812 0.0841,-2.35222 0.08834,-3.0028c0.00818,-1.25468 0.22327,-2.74684 0.33024,-3.43958c0.30909,-2.00184 5.45591,-1.23428 7.21351,-1.96181c2.00443,-0.8297 8.21484,-8.26101 11.17921,-7.59669c1.39057,0.31162 0.52046,7.5255 0.9951,8.67216c0.33208,0.80227 -9.29455,3.78753 -9.22905,4.37896c0.2277,2.05589 -1.0763,2.99856 -3.36313,3.94515c-2.16318,0.89541 -5.37497,3.453 -5.91918,2.92719z" data-paper-data="{&quot;index&quot;:null}" fill="#f2a685"/><path d="M205.46885,165.37012l-1.80464,3.18423c0,0 -0.89676,-0.18742 -1.00378,-0.47251c-0.13423,-0.35754 0.07748,-1.58129 0.07748,-1.58129l2.4506,-1.62368z" data-paper-data="{&quot;index&quot;:null}" fill="#d0735b"/></g><g><path d="M226.23667,168.19585c-5.86873,0 -11.75223,-4.19456 -11.75223,-10.06328c0,-5.86873 5.8835,-11.18925 11.75223,-11.18925c5.86873,0 10.62626,4.75754 10.62626,10.62626c0,5.86873 -4.75754,10.62626 -10.62626,10.62626z" fill="#376fac"/><path d="M241.83667,214.05667c-5.45239,0 -17.53236,-6.30801 -18.45271,-12.07948c-1.2826,-8.04309 10.30799,-9.17304 18.45271,-9.17304c5.86873,0 10.62626,4.75754 10.62626,10.62626c0,5.86872 -4.75754,10.62626 -10.62626,10.62626z" fill="#376fac"/><path d="M231.76996,211.5973c-10.61777,-0.15099 -15.55234,-14.33357 -15.55234,-31.66767c0,-17.33411 3.51465,-31.41055 15.4116,-31.38618c10.05443,0.0206 15.4116,14.05207 15.4116,31.38618c0,17.33411 -2.95315,31.84284 -15.27085,31.66767z" fill="#4f9ee3"/><path d="M237.5725,193.80083c-1.17914,0.03138 -2.28458,-0.83722 -3.31934,-0.91372c-9.40584,-0.69543 -12.97191,-4.87365 -12.97191,-11.8589c0,-6.42226 1.59585,-11.34677 10.23946,-12.98201c1.79198,-0.33902 3.88688,-1.07544 6.33328,-1.05731c8.86287,0.06567 16.57275,6.28562 16.57275,14.03934c0,7.75371 -7.70461,12.52909 -16.85424,12.77263z" fill="#f0a787"/><path d="M253.52949,182.55881c-1.16597,0 -2.11118,-0.94521 -2.11118,-2.11118c0,-1.16597 0.94521,-2.11118 2.11118,-2.11118c1.16597,0 2.63898,0.73408 2.74453,2.00562c0.09646,1.16197 -1.57857,2.21674 -2.74453,2.21674z" fill="#f0a787"/><path d="M234.58166,193.53693c-9.28276,0 -13.77544,-4.64083 -13.77544,-11.92816c0,-3.97536 0.04282,-8.1649 2.95564,-11.00415c2.63666,-2.57007 7.73612,-2.87249 11.34759,-3.35186c0.50754,-0.06738 3.67276,-0.71128 5.93437,0.57982c1.99467,1.13871 3.14577,4.22813 3.14577,4.22813c0,0 0.23964,-2.10482 1.32501,-1.33522c1.5621,1.10763 0.37794,2.63823 0.37794,2.63823c0,0 0.9901,-1.80735 1.68503,-1.03805c0.86012,0.95216 -0.41492,3.09566 -0.41492,3.09566l2.25003,-1.30724c0,0 1.1092,5.23659 -2.64449,12.66389c-0.94983,1.8794 -4.43819,4.55979 -4.43819,4.55979c0,0 1.67186,1.39012 0.06508,1.93782c-2.56898,1.07965 -6.52146,0.26133 -7.81342,0.26133z" fill="#000000"/></g></g></g></svg>