<svg version="1.1" xmlns="http://www.w3.org/2000/svg" xmlns:xlink="http://www.w3.org/1999/xlink" width="810.81081" height="489.48949" viewBox="0,0,810.81081,489.48949"><defs><linearGradient x1="320.21537" y1="-62.01705" x2="320.21537" y2="-8.01705" gradientUnits="userSpaceOnUse" id="color-1"><stop offset="0" stop-color="#000000" stop-opacity="0"/><stop offset="1" stop-color="#000000" stop-opacity="0.5"/></linearGradient><linearGradient x1="317.71537" y1="417.23885" x2="317.71537" y2="368.23885" gradientUnits="userSpaceOnUse" id="color-2"><stop offset="0" stop-color="#000000" stop-opacity="0"/><stop offset="1" stop-color="#000000" stop-opacity="0.5"/></linearGradient></defs><g transform="translate(85.40541,64.74476)"><g stroke-miterlimit="10"><path d="M-5.57507,368.26398v-376.52795h651.15015v376.52795z" fill-opacity="0.5" fill="#000000" stroke="#000000" stroke-width="0"/><path d="M169.88454,240.04619c0,-41.68938 0,-102.0436 0,-124.71132c0,-17.19914 20.05771,-38.10624 38.6836,-38.10624c33.41027,0 145.19133,0 211.3164,0c29.72997,0 50.23095,24.64684 50.23095,43.87991c0,23.26715 0,81.4231 0,121.24711c0,23.36226 -17.33859,40.4157 -34.06467,40.4157c-33.80739,0 -157.89105,0 -224.01848,0c-25.3236,0 -42.14781,-18.10878 -42.14781,-42.72517z" fill-opacity="0.62097" fill="#ffffff" stroke="none" stroke-width="0"/><text transform="translate(244.55062,128.17619) scale(0.93773,0.93773)" font-size="40" xml:space="preserve" fill="#000000" stroke="#000000" stroke-width="1" font-family="Sans Serif" font-weight="normal" text-anchor="start"><tspan x="0" dy="0">CREDITS</tspan></text><text transform="translate(184.43633,159.7778) scale(0.45557,0.45557)" font-size="40" xml:space="preserve" fill="#000000" stroke="#000000" stroke-width="1" font-family="Sans Serif" font-weight="normal" text-anchor="start"><tspan x="0" dy="0">This game is not affiliated with</tspan><tspan x="0" dy="46.15px">        Euphoric Brothers Ltd</tspan></text><text transform="translate(184.84264,216.57345) scale(0.45557,0.45557)" font-size="40" xml:space="preserve" fill="#000000" stroke="#000000" stroke-width="1" font-family="Sans Serif" font-weight="normal" text-anchor="start"><tspan x="0" dy="0">It was originally created by the </tspan><tspan x="0" dy="46.15px">         Euphoric Brothers</tspan></text><text transform="translate(202.76223,262.15499) scale(0.28912,0.28912)" font-size="40" xml:space="preserve" fill="#000000" stroke="#000000" stroke-width="2" font-family="Sans Serif" font-weight="normal" text-anchor="start"><tspan x="0" dy="0">*All sound and Garten of Banban content  is</tspan><tspan x="0" dy="48px">         owned by Euphoric Brothers Ltd*</tspan></text><path d="M-85.4054,424.74474v-489.48949h810.81081v489.48949z" fill="none" stroke="#000000" stroke-width="0"/><path d="M68.21537,-8.01705v-54h504v54z" fill="url(#color-1)" stroke="#000000" stroke-width="0"/><path d="M569.71537,368.23885v49h-504v-49z" fill="url(#color-2)" stroke="#000000" stroke-width="0"/></g></g></svg>