<svg version="1.1" xmlns="http://www.w3.org/2000/svg" xmlns:xlink="http://www.w3.org/1999/xlink" width="345" height="200" viewBox="0,0,345,200"><defs><linearGradient x1="256.11188" y1="194.47418" x2="255.26071" y2="196.38003" gradientUnits="userSpaceOnUse" id="color-1"><stop offset="0" stop-color="#edafbc"/><stop offset="1" stop-color="#d29ca8"/></linearGradient><linearGradient x1="241.96359" y1="163.24486" x2="241.22209" y2="161.29376" gradientUnits="userSpaceOnUse" id="color-2"><stop offset="0" stop-color="#edafbc"/><stop offset="1" stop-color="#d29ca8"/></linearGradient><linearGradient x1="203.818" y1="176.49888" x2="234.26939" y2="176.49888" gradientUnits="userSpaceOnUse" id="color-3"><stop offset="0" stop-color="#edafbc"/><stop offset="1" stop-color="#ca96a1"/></linearGradient></defs><g transform="translate(-67.5,-80)"><g data-paper-data="{&quot;isPaintingLayer&quot;:true}" fill-rule="nonzero" stroke-linecap="butt" stroke-linejoin="miter" stroke-miterlimit="10" stroke-dasharray="" stroke-dashoffset="0" style="mix-blend-mode: normal"><g stroke-width="0"><g fill="#ffd726"><path d="M251.32035,203.56493l3.83027,-8.57636l1.86988,0.83511l-3.83027,8.57636z" stroke="#ff0000"/><path d="M260.00687,209.22486c-0.18714,0.419 -1.63681,-1.48275 -4.00116,-2.53868c-2.36436,-1.05595 -4.21775,-2.05372 -4.03061,-2.47273c0.18714,-0.419 2.25554,0.09733 4.61989,1.15328c2.36436,1.05595 3.59902,3.43912 3.41188,3.85813z" stroke="#ff0000"/><path d="M253.59392,204.81772c-0.19526,0.43722 -2.08918,-0.37913 -4.29049,-1.36224c-2.2013,-0.98313 -4.24944,-0.66122 -4.05416,-1.09845c0.19526,-0.43722 2.51108,-1.09418 4.71239,-0.11106c2.2013,0.98313 3.82753,2.13453 3.63226,2.57176z" stroke="none"/><path d="M250.76172,204.80703c-2.13005,-0.03862 -3.75422,0.83865 -3.93859,0.31341c-0.18436,-0.52523 1.44642,-1.68714 3.5765,-1.64853c2.13005,0.03862 3.95281,1.26311 4.13716,1.78834c0.18436,0.52523 -1.64501,-0.41463 -3.77507,-0.45325z" stroke="none"/></g><path d="M253.46086,195.16923l-3.4689,-3.54342c0,0 5.19406,2.4349 5.77791,2.69563c0.69696,0.31127 8.39735,3.11109 8.39735,3.11109l-6.80357,-0.52029l-0.64367,-0.54016l-0.93876,0.23668l-0.58771,-0.91261l-0.90747,0.24855z" fill="url(#color-1)" stroke="#ff0000"/></g><g data-paper-data="{&quot;index&quot;:null}" stroke-width="0"><g fill="#ffd726"><path d="M239.61059,153.16904l3.33687,8.7801l-1.91432,0.72754l-3.33687,-8.7801z" stroke="#ff0000"/><path d="M246.69032,148.73929c0.16304,0.42897 -1.20502,2.73815 -3.62555,3.65807c-2.42053,0.91991 -4.51494,1.31794 -4.67795,0.88896c-0.16303,-0.42895 1.74404,-1.31982 4.16458,-2.23974c2.42054,-0.9199 3.97591,-2.73625 4.13893,-2.30728z" stroke="#ff0000"/><path d="M240.03735,152.775c0.17013,0.4476 -1.51887,1.50477 -3.77249,2.36125c-2.25362,0.85648 -4.52836,0.06901 -4.69848,-0.3786c-0.17011,-0.44761 1.8564,-0.00987 4.11001,-0.86635c2.2536,-0.85648 4.19083,-1.56392 4.36095,-1.1163z" stroke="none"/><path d="M237.2091,152.62478c2.12882,0.08248 4.00863,-0.75194 3.79473,-0.23803c-0.21391,0.51393 -2.10328,1.63289 -4.2321,1.55044c-2.12883,-0.08247 -3.69096,-1.33514 -3.47706,-1.84905c0.2139,-0.51392 1.7856,0.4542 3.91442,0.53665z" stroke="none"/></g><path d="M240.22422,161.67299l0.89189,0.2997l0.63861,-0.87774l0.9238,0.28962l0.67332,-0.50271l6.82214,-0.13295c0,0 -7.84703,2.35784 -8.56054,2.62901c-0.59773,0.22715 -5.92173,2.36303 -5.92173,2.36303l3.66462,-3.34063z" fill="url(#color-2)" stroke="#ff0000"/></g><g stroke-width="0"><g><path d="M283.72253,175.91895c-0.10896,1.04738 2.33433,7.32778 1.34045,8.87098c-2.15355,3.34385 -8.73023,2.15116 -9.81585,2.06547c-1.58663,-0.12524 -2.59311,-2.9156 -2.24805,-6.23245c0.34506,-3.31685 1.91101,-5.90417 3.49764,-5.77893c1.58663,0.12524 7.57087,-2.24192 7.22581,1.07493z" fill="#906bc7" stroke="#ffffff"/><path d="M278.37819,180.24533c0,9.57869 -13.43146,17.34375 -30,17.34375c-16.56854,0 -30,-7.76506 -30,-17.34375c0,-9.57869 13.43146,-17.34375 30,-17.34375c16.56854,0 30,7.76506 30,17.34375z" fill="#ca96a1" stroke="none"/><path d="M248.29181,170.15296c-11.88667,0.25754 -21.83705,-1.21776 -21.90234,-4.23086c-0.02917,-1.34599 3.88765,-1.68452 7.1122,-2.8725c3.99384,-1.4714 0.18472,-4.24959 6.76146,-4.39209c11.88667,-0.25754 32.21032,5.51325 32.21032,5.51325c0,0 -12.29497,5.72466 -24.18165,5.9822z" data-paper-data="{&quot;index&quot;:null}" fill="#906bc7" stroke="#000000"/></g><path d="M273.30678,194.9379c0,0 -20.32364,5.7708 -32.21031,5.51326c-6.57674,-0.14249 -2.76762,-2.92069 -6.76146,-4.39209c-3.22456,-1.18798 -7.14137,-1.52651 -7.11221,-2.8725c0.06528,-3.0131 10.01567,-4.4884 21.90234,-4.23086c11.88667,0.25754 24.18164,5.98219 24.18164,5.98219z" fill="#906bc7" stroke="#000000"/></g><g><g stroke="#000000" stroke-width="0"><path d="M209.13382,179.87715c0.0712,2.31232 -2.91715,4.28062 -6.67466,4.39633c-3.75752,0.11571 -7.76343,-3.7422 -7.76343,-3.7422c0,0 3.74806,-4.51575 7.50558,-4.63145c3.75752,-0.11571 6.86131,1.665 6.93251,3.97732z" fill="#ffd726"/><path d="M209.12737,179.66781c0.06052,1.96547 -2.47957,3.63853 -5.67346,3.73688c-3.19389,0.09835 -6.59892,-3.18086 -6.59892,-3.18086c0,0 3.18585,-3.83839 6.37974,-3.93674c3.19389,-0.09835 5.83211,1.41525 5.89264,3.38072z" fill="#debb21"/><path d="M210.34336,176.47234c0.04593,1.49149 0.72478,4.39712 -2.77853,5.86682c-1.51968,0.92665 -3.18515,-0.76397 -5.42486,-0.69501c-4.39705,0.1354 -9.10791,-5.03228 -9.10791,-5.03228c0,0 4.37187,-5.8409 8.76892,-5.9763c1.70614,-0.05254 4.98743,-0.99115 6.37853,-0.29289c2.19402,1.1013 2.10656,4.26928 2.16385,6.12966z" fill="#ffd726"/></g><path d="M234.26939,176.2211c0,2.98156 -2.9111,3.77178 -4.98283,5.9052c-2.66522,2.74459 -6.42186,6.71633 -10.93731,6.71633c-8.02539,0 -14.53125,-5.52649 -14.53125,-12.34375c0,-6.81726 6.50586,-12.34375 14.53125,-12.34375c2.39409,0 5.76407,2.15848 7.75535,3.02965c4.68378,2.04915 8.16479,4.25275 8.16479,9.03632z" fill="url(#color-3)" stroke="#000000" stroke-width="0"/><path d="M214.99602,167.33809c0.0714,1.80654 -1.79402,3.41619 -4.16656,3.59524c-2.37255,0.17904 -4.35376,-1.1403 -4.42514,-2.94684c-0.07142,-1.80654 1.79403,-3.41615 4.16657,-3.5952c2.37252,-0.17904 4.35373,1.1403 4.42515,2.94684z" data-paper-data="{&quot;index&quot;:null}" fill="#000000" stroke="#ffffff" stroke-width="0.25"/><path d="M214.31422,185.71376c-0.07142,1.80654 -2.05263,3.12588 -4.42515,2.94684c-2.37254,-0.17905 -4.23799,-1.78867 -4.16657,-3.5952c0.07138,-1.80654 2.0526,-3.12588 4.42514,-2.94684c2.37254,0.17905 4.23796,1.7887 4.16656,3.59524z" data-paper-data="{&quot;index&quot;:null}" fill="#000000" stroke="#ffffff" stroke-width="0.25"/><path d="M208.77381,174.95807v-0.60976h2.29227v0.60976z" fill="#000000" stroke="#ffffff" stroke-width="0"/><path d="M208.82845,176.19632l0.23088,-0.56436l2.1216,0.86794l-0.23088,0.56436z" fill="#000000" stroke="#ffffff" stroke-width="0"/><path d="M210.78056,172.15738l0.23088,0.56435l-2.1216,0.86794l-0.23087,-0.56436z" data-paper-data="{&quot;index&quot;:null}" fill="#000000" stroke="#ffffff" stroke-width="0"/></g><path d="M67.5,280v-200h345v200z" fill="none" stroke="#ffffff" stroke-width="0"/></g></g></svg>