<svg version="1.1" xmlns="http://www.w3.org/2000/svg" xmlns:xlink="http://www.w3.org/1999/xlink" width="833.72372" height="879.4182" viewBox="0,0,833.72372,879.4182"><defs><radialGradient cx="126.47753" cy="12.95746" r="36.72384" gradientUnits="userSpaceOnUse" id="color-1"><stop offset="0" stop-color="#eb0000"/><stop offset="1" stop-color="#eb0000" stop-opacity="0"/></radialGradient><radialGradient cx="-19.14222" cy="327.35233" r="36.72387" gradientUnits="userSpaceOnUse" id="color-2"><stop offset="0" stop-color="#eb0000"/><stop offset="1" stop-color="#eb0000" stop-opacity="0"/></radialGradient><radialGradient cx="117.43187" cy="208.79224" r="36.72384" gradientUnits="userSpaceOnUse" id="color-3"><stop offset="0" stop-color="#eb0000"/><stop offset="1" stop-color="#eb0000" stop-opacity="0"/></radialGradient><radialGradient cx="226.94628" cy="-52.79757" r="36.72388" gradientUnits="userSpaceOnUse" id="color-4"><stop offset="0" stop-color="#eb0000"/><stop offset="1" stop-color="#eb0000" stop-opacity="0"/></radialGradient><radialGradient cx="46.5355" cy="137.89589" r="36.72387" gradientUnits="userSpaceOnUse" id="color-5"><stop offset="0" stop-color="#eb0000"/><stop offset="1" stop-color="#eb0000" stop-opacity="0"/></radialGradient><radialGradient cx="16.88581" cy="181.69391" r="36.72387" gradientUnits="userSpaceOnUse" id="color-6"><stop offset="0" stop-color="#eb0000"/><stop offset="1" stop-color="#eb0000" stop-opacity="0"/></radialGradient><radialGradient cx="10.43016" cy="237.08896" r="36.72384" gradientUnits="userSpaceOnUse" id="color-7"><stop offset="0" stop-color="#eb0000"/><stop offset="1" stop-color="#eb0000" stop-opacity="0"/></radialGradient><radialGradient cx="7.84015" cy="269.28996" r="36.72388" gradientUnits="userSpaceOnUse" id="color-8"><stop offset="0" stop-color="#eb0000"/><stop offset="1" stop-color="#eb0000" stop-opacity="0"/></radialGradient><radialGradient cx="63.2352" cy="92.74487" r="36.72387" gradientUnits="userSpaceOnUse" id="color-9"><stop offset="0" stop-color="#eb0000"/><stop offset="1" stop-color="#eb0000" stop-opacity="0"/></radialGradient><radialGradient cx="87.70487" cy="39.90116" r="36.72384" gradientUnits="userSpaceOnUse" id="color-10"><stop offset="0" stop-color="#eb0000"/><stop offset="1" stop-color="#eb0000" stop-opacity="0"/></radialGradient><radialGradient cx="158.56258" cy="-24.53954" r="36.72387" gradientUnits="userSpaceOnUse" id="color-11"><stop offset="0" stop-color="#eb0000"/><stop offset="1" stop-color="#eb0000" stop-opacity="0"/></radialGradient><radialGradient cx="186.89794" cy="-42.59221" r="36.72387" gradientUnits="userSpaceOnUse" id="color-12"><stop offset="0" stop-color="#eb0000"/><stop offset="1" stop-color="#eb0000" stop-opacity="0"/></radialGradient><radialGradient cx="130.18859" cy="68.85503" r="91.80964" gradientUnits="userSpaceOnUse" id="color-13"><stop offset="0" stop-color="#eb0000"/><stop offset="1" stop-color="#eb0000" stop-opacity="0"/></radialGradient><radialGradient cx="96.67324" cy="135.8471" r="91.80964" gradientUnits="userSpaceOnUse" id="color-14"><stop offset="0" stop-color="#eb0000"/><stop offset="1" stop-color="#eb0000" stop-opacity="0"/></radialGradient><radialGradient cx="63.15788" cy="210.57047" r="91.80964" gradientUnits="userSpaceOnUse" id="color-15"><stop offset="0" stop-color="#eb0000"/><stop offset="1" stop-color="#eb0000" stop-opacity="0"/></radialGradient><radialGradient cx="45.10519" cy="323.95054" r="91.80967" gradientUnits="userSpaceOnUse" id="color-16"><stop offset="0" stop-color="#eb0000"/><stop offset="1" stop-color="#eb0000" stop-opacity="0"/></radialGradient><radialGradient cx="38.64954" cy="367.74857" r="91.80967" gradientUnits="userSpaceOnUse" id="color-17"><stop offset="0" stop-color="#eb0000"/><stop offset="1" stop-color="#eb0000" stop-opacity="0"/></radialGradient><radialGradient cx="213.88031" cy="-9.81132" r="91.80966" gradientUnits="userSpaceOnUse" id="color-18"><stop offset="0" stop-color="#eb0000"/><stop offset="1" stop-color="#eb0000" stop-opacity="0"/></radialGradient><radialGradient cx="233.57963" cy="43.48299" r="36.72385" gradientUnits="userSpaceOnUse" id="color-19"><stop offset="0" stop-color="#eb0000"/><stop offset="1" stop-color="#eb0000" stop-opacity="0"/></radialGradient><radialGradient cx="87.95988" cy="357.87785" r="36.72387" gradientUnits="userSpaceOnUse" id="color-20"><stop offset="0" stop-color="#eb0000"/><stop offset="1" stop-color="#eb0000" stop-opacity="0"/></radialGradient><radialGradient cx="224.53397" cy="239.31776" r="36.72385" gradientUnits="userSpaceOnUse" id="color-21"><stop offset="0" stop-color="#eb0000"/><stop offset="1" stop-color="#eb0000" stop-opacity="0"/></radialGradient><radialGradient cx="334.04839" cy="-22.27204" r="36.72387" gradientUnits="userSpaceOnUse" id="color-22"><stop offset="0" stop-color="#eb0000"/><stop offset="1" stop-color="#eb0000" stop-opacity="0"/></radialGradient><radialGradient cx="153.6376" cy="168.42141" r="36.72387" gradientUnits="userSpaceOnUse" id="color-23"><stop offset="0" stop-color="#eb0000"/><stop offset="1" stop-color="#eb0000" stop-opacity="0"/></radialGradient><radialGradient cx="123.98791" cy="212.21944" r="36.72387" gradientUnits="userSpaceOnUse" id="color-24"><stop offset="0" stop-color="#eb0000"/><stop offset="1" stop-color="#eb0000" stop-opacity="0"/></radialGradient><radialGradient cx="117.53226" cy="267.61448" r="36.72384" gradientUnits="userSpaceOnUse" id="color-25"><stop offset="0" stop-color="#eb0000"/><stop offset="1" stop-color="#eb0000" stop-opacity="0"/></radialGradient><radialGradient cx="114.94225" cy="299.81549" r="36.72387" gradientUnits="userSpaceOnUse" id="color-26"><stop offset="0" stop-color="#eb0000"/><stop offset="1" stop-color="#eb0000" stop-opacity="0"/></radialGradient><radialGradient cx="170.3373" cy="123.27039" r="36.72387" gradientUnits="userSpaceOnUse" id="color-27"><stop offset="0" stop-color="#eb0000"/><stop offset="1" stop-color="#eb0000" stop-opacity="0"/></radialGradient><radialGradient cx="194.80697" cy="70.42669" r="36.72384" gradientUnits="userSpaceOnUse" id="color-28"><stop offset="0" stop-color="#eb0000"/><stop offset="1" stop-color="#eb0000" stop-opacity="0"/></radialGradient><radialGradient cx="265.66468" cy="5.98598" r="36.72387" gradientUnits="userSpaceOnUse" id="color-29"><stop offset="0" stop-color="#eb0000"/><stop offset="1" stop-color="#eb0000" stop-opacity="0"/></radialGradient><radialGradient cx="294.00004" cy="-12.06669" r="36.72387" gradientUnits="userSpaceOnUse" id="color-30"><stop offset="0" stop-color="#eb0000"/><stop offset="1" stop-color="#eb0000" stop-opacity="0"/></radialGradient><radialGradient cx="237.29069" cy="99.38056" r="91.80964" gradientUnits="userSpaceOnUse" id="color-31"><stop offset="0" stop-color="#eb0000"/><stop offset="1" stop-color="#eb0000" stop-opacity="0"/></radialGradient><radialGradient cx="203.77534" cy="166.37262" r="91.80964" gradientUnits="userSpaceOnUse" id="color-32"><stop offset="0" stop-color="#eb0000"/><stop offset="1" stop-color="#eb0000" stop-opacity="0"/></radialGradient><radialGradient cx="170.25998" cy="241.09599" r="91.80964" gradientUnits="userSpaceOnUse" id="color-33"><stop offset="0" stop-color="#eb0000"/><stop offset="1" stop-color="#eb0000" stop-opacity="0"/></radialGradient><radialGradient cx="152.20729" cy="354.47607" r="91.80967" gradientUnits="userSpaceOnUse" id="color-34"><stop offset="0" stop-color="#eb0000"/><stop offset="1" stop-color="#eb0000" stop-opacity="0"/></radialGradient><radialGradient cx="145.75164" cy="398.2741" r="91.80967" gradientUnits="userSpaceOnUse" id="color-35"><stop offset="0" stop-color="#eb0000"/><stop offset="1" stop-color="#eb0000" stop-opacity="0"/></radialGradient><radialGradient cx="320.98241" cy="20.71421" r="91.80966" gradientUnits="userSpaceOnUse" id="color-36"><stop offset="0" stop-color="#eb0000"/><stop offset="1" stop-color="#eb0000" stop-opacity="0"/></radialGradient><radialGradient cx="342.18324" cy="36.47098" r="36.72385" gradientUnits="userSpaceOnUse" id="color-37"><stop offset="0" stop-color="#eb0000"/><stop offset="1" stop-color="#eb0000" stop-opacity="0"/></radialGradient><radialGradient cx="196.56349" cy="350.86584" r="36.72387" gradientUnits="userSpaceOnUse" id="color-38"><stop offset="0" stop-color="#eb0000"/><stop offset="1" stop-color="#eb0000" stop-opacity="0"/></radialGradient><radialGradient cx="333.13758" cy="232.30576" r="36.72385" gradientUnits="userSpaceOnUse" id="color-39"><stop offset="0" stop-color="#eb0000"/><stop offset="1" stop-color="#eb0000" stop-opacity="0"/></radialGradient><radialGradient cx="442.65199" cy="-29.28405" r="36.72388" gradientUnits="userSpaceOnUse" id="color-40"><stop offset="0" stop-color="#eb0000"/><stop offset="1" stop-color="#eb0000" stop-opacity="0"/></radialGradient><radialGradient cx="262.2412" cy="161.4094" r="36.72387" gradientUnits="userSpaceOnUse" id="color-41"><stop offset="0" stop-color="#eb0000"/><stop offset="1" stop-color="#eb0000" stop-opacity="0"/></radialGradient><radialGradient cx="232.59151" cy="205.20743" r="36.72387" gradientUnits="userSpaceOnUse" id="color-42"><stop offset="0" stop-color="#eb0000"/><stop offset="1" stop-color="#eb0000" stop-opacity="0"/></radialGradient><radialGradient cx="226.13586" cy="260.60247" r="36.72385" gradientUnits="userSpaceOnUse" id="color-43"><stop offset="0" stop-color="#eb0000"/><stop offset="1" stop-color="#eb0000" stop-opacity="0"/></radialGradient><radialGradient cx="223.54585" cy="292.80348" r="36.72388" gradientUnits="userSpaceOnUse" id="color-44"><stop offset="0" stop-color="#eb0000"/><stop offset="1" stop-color="#eb0000" stop-opacity="0"/></radialGradient><radialGradient cx="278.94091" cy="116.25838" r="36.72387" gradientUnits="userSpaceOnUse" id="color-45"><stop offset="0" stop-color="#eb0000"/><stop offset="1" stop-color="#eb0000" stop-opacity="0"/></radialGradient><radialGradient cx="303.41058" cy="63.41468" r="36.72384" gradientUnits="userSpaceOnUse" id="color-46"><stop offset="0" stop-color="#eb0000"/><stop offset="1" stop-color="#eb0000" stop-opacity="0"/></radialGradient><radialGradient cx="374.26829" cy="-1.02603" r="36.72387" gradientUnits="userSpaceOnUse" id="color-47"><stop offset="0" stop-color="#eb0000"/><stop offset="1" stop-color="#eb0000" stop-opacity="0"/></radialGradient><radialGradient cx="402.60365" cy="-19.0787" r="36.72387" gradientUnits="userSpaceOnUse" id="color-48"><stop offset="0" stop-color="#eb0000"/><stop offset="1" stop-color="#eb0000" stop-opacity="0"/></radialGradient><radialGradient cx="345.8943" cy="92.36855" r="91.80964" gradientUnits="userSpaceOnUse" id="color-49"><stop offset="0" stop-color="#eb0000"/><stop offset="1" stop-color="#eb0000" stop-opacity="0"/></radialGradient><radialGradient cx="312.37895" cy="159.36061" r="91.80964" gradientUnits="userSpaceOnUse" id="color-50"><stop offset="0" stop-color="#eb0000"/><stop offset="1" stop-color="#eb0000" stop-opacity="0"/></radialGradient><radialGradient cx="278.86359" cy="234.08399" r="91.80964" gradientUnits="userSpaceOnUse" id="color-51"><stop offset="0" stop-color="#eb0000"/><stop offset="1" stop-color="#eb0000" stop-opacity="0"/></radialGradient><radialGradient cx="260.81089" cy="347.46406" r="91.80967" gradientUnits="userSpaceOnUse" id="color-52"><stop offset="0" stop-color="#eb0000"/><stop offset="1" stop-color="#eb0000" stop-opacity="0"/></radialGradient><radialGradient cx="254.35524" cy="391.26208" r="91.80967" gradientUnits="userSpaceOnUse" id="color-53"><stop offset="0" stop-color="#eb0000"/><stop offset="1" stop-color="#eb0000" stop-opacity="0"/></radialGradient><radialGradient cx="429.58602" cy="13.7022" r="91.80966" gradientUnits="userSpaceOnUse" id="color-54"><stop offset="0" stop-color="#eb0000"/><stop offset="1" stop-color="#eb0000" stop-opacity="0"/></radialGradient><radialGradient cx="464.30036" cy="62.49199" r="36.72384" gradientUnits="userSpaceOnUse" id="color-55"><stop offset="0" stop-color="#eb0000"/><stop offset="1" stop-color="#eb0000" stop-opacity="0"/></radialGradient><radialGradient cx="318.6806" cy="376.88686" r="36.72387" gradientUnits="userSpaceOnUse" id="color-56"><stop offset="0" stop-color="#eb0000"/><stop offset="1" stop-color="#eb0000" stop-opacity="0"/></radialGradient><radialGradient cx="455.2547" cy="258.32677" r="36.72384" gradientUnits="userSpaceOnUse" id="color-57"><stop offset="0" stop-color="#eb0000"/><stop offset="1" stop-color="#eb0000" stop-opacity="0"/></radialGradient><radialGradient cx="564.76911" cy="-3.26304" r="36.72388" gradientUnits="userSpaceOnUse" id="color-58"><stop offset="0" stop-color="#eb0000"/><stop offset="1" stop-color="#eb0000" stop-opacity="0"/></radialGradient><radialGradient cx="384.35832" cy="187.43042" r="36.72387" gradientUnits="userSpaceOnUse" id="color-59"><stop offset="0" stop-color="#eb0000"/><stop offset="1" stop-color="#eb0000" stop-opacity="0"/></radialGradient><radialGradient cx="354.70863" cy="231.22844" r="36.72387" gradientUnits="userSpaceOnUse" id="color-60"><stop offset="0" stop-color="#eb0000"/><stop offset="1" stop-color="#eb0000" stop-opacity="0"/></radialGradient><radialGradient cx="348.25298" cy="286.62349" r="36.72384" gradientUnits="userSpaceOnUse" id="color-61"><stop offset="0" stop-color="#eb0000"/><stop offset="1" stop-color="#eb0000" stop-opacity="0"/></radialGradient><radialGradient cx="345.66297" cy="318.8245" r="36.72388" gradientUnits="userSpaceOnUse" id="color-62"><stop offset="0" stop-color="#eb0000"/><stop offset="1" stop-color="#eb0000" stop-opacity="0"/></radialGradient><radialGradient cx="401.05802" cy="142.2794" r="36.72387" gradientUnits="userSpaceOnUse" id="color-63"><stop offset="0" stop-color="#eb0000"/><stop offset="1" stop-color="#eb0000" stop-opacity="0"/></radialGradient><radialGradient cx="425.52769" cy="89.43569" r="36.72385" gradientUnits="userSpaceOnUse" id="color-64"><stop offset="0" stop-color="#eb0000"/><stop offset="1" stop-color="#eb0000" stop-opacity="0"/></radialGradient><radialGradient cx="496.38541" cy="24.99499" r="36.72387" gradientUnits="userSpaceOnUse" id="color-65"><stop offset="0" stop-color="#eb0000"/><stop offset="1" stop-color="#eb0000" stop-opacity="0"/></radialGradient><radialGradient cx="524.72078" cy="6.94232" r="36.72387" gradientUnits="userSpaceOnUse" id="color-66"><stop offset="0" stop-color="#eb0000"/><stop offset="1" stop-color="#eb0000" stop-opacity="0"/></radialGradient><radialGradient cx="468.01141" cy="118.38956" r="91.80964" gradientUnits="userSpaceOnUse" id="color-67"><stop offset="0" stop-color="#eb0000"/><stop offset="1" stop-color="#eb0000" stop-opacity="0"/></radialGradient><radialGradient cx="434.49606" cy="185.38163" r="91.80964" gradientUnits="userSpaceOnUse" id="color-68"><stop offset="0" stop-color="#eb0000"/><stop offset="1" stop-color="#eb0000" stop-opacity="0"/></radialGradient><radialGradient cx="400.9807" cy="260.105" r="91.80964" gradientUnits="userSpaceOnUse" id="color-69"><stop offset="0" stop-color="#eb0000"/><stop offset="1" stop-color="#eb0000" stop-opacity="0"/></radialGradient><radialGradient cx="382.92801" cy="373.48508" r="91.80967" gradientUnits="userSpaceOnUse" id="color-70"><stop offset="0" stop-color="#eb0000"/><stop offset="1" stop-color="#eb0000" stop-opacity="0"/></radialGradient><radialGradient cx="376.47236" cy="417.2831" r="91.80967" gradientUnits="userSpaceOnUse" id="color-71"><stop offset="0" stop-color="#eb0000"/><stop offset="1" stop-color="#eb0000" stop-opacity="0"/></radialGradient><radialGradient cx="551.70314" cy="39.72321" r="91.80966" gradientUnits="userSpaceOnUse" id="color-72"><stop offset="0" stop-color="#eb0000"/><stop offset="1" stop-color="#eb0000" stop-opacity="0"/></radialGradient><radialGradient cx="128.45952" cy="-123.19869" r="36.72384" gradientUnits="userSpaceOnUse" id="color-73"><stop offset="0" stop-color="#eb0000"/><stop offset="1" stop-color="#eb0000" stop-opacity="0"/></radialGradient><radialGradient cx="-17.16023" cy="191.19618" r="36.72387" gradientUnits="userSpaceOnUse" id="color-74"><stop offset="0" stop-color="#eb0000"/><stop offset="1" stop-color="#eb0000" stop-opacity="0"/></radialGradient><radialGradient cx="119.41386" cy="72.63609" r="36.72384" gradientUnits="userSpaceOnUse" id="color-75"><stop offset="0" stop-color="#eb0000"/><stop offset="1" stop-color="#eb0000" stop-opacity="0"/></radialGradient><radialGradient cx="228.92827" cy="-188.95372" r="36.72387" gradientUnits="userSpaceOnUse" id="color-76"><stop offset="0" stop-color="#eb0000"/><stop offset="1" stop-color="#eb0000" stop-opacity="0"/></radialGradient><radialGradient cx="48.51748" cy="1.73973" r="36.72387" gradientUnits="userSpaceOnUse" id="color-77"><stop offset="0" stop-color="#eb0000"/><stop offset="1" stop-color="#eb0000" stop-opacity="0"/></radialGradient><radialGradient cx="18.86779" cy="45.53776" r="36.72387" gradientUnits="userSpaceOnUse" id="color-78"><stop offset="0" stop-color="#eb0000"/><stop offset="1" stop-color="#eb0000" stop-opacity="0"/></radialGradient><radialGradient cx="12.41214" cy="100.93281" r="36.72385" gradientUnits="userSpaceOnUse" id="color-79"><stop offset="0" stop-color="#eb0000"/><stop offset="1" stop-color="#eb0000" stop-opacity="0"/></radialGradient><radialGradient cx="9.82213" cy="133.13381" r="36.72387" gradientUnits="userSpaceOnUse" id="color-80"><stop offset="0" stop-color="#eb0000"/><stop offset="1" stop-color="#eb0000" stop-opacity="0"/></radialGradient><radialGradient cx="65.21718" cy="-43.41129" r="36.72387" gradientUnits="userSpaceOnUse" id="color-81"><stop offset="0" stop-color="#eb0000"/><stop offset="1" stop-color="#eb0000" stop-opacity="0"/></radialGradient><radialGradient cx="89.68685" cy="-96.25499" r="36.72385" gradientUnits="userSpaceOnUse" id="color-82"><stop offset="0" stop-color="#eb0000"/><stop offset="1" stop-color="#eb0000" stop-opacity="0"/></radialGradient><radialGradient cx="160.54456" cy="-160.6957" r="36.72387" gradientUnits="userSpaceOnUse" id="color-83"><stop offset="0" stop-color="#eb0000"/><stop offset="1" stop-color="#eb0000" stop-opacity="0"/></radialGradient><radialGradient cx="188.87993" cy="-178.74837" r="36.72387" gradientUnits="userSpaceOnUse" id="color-84"><stop offset="0" stop-color="#eb0000"/><stop offset="1" stop-color="#eb0000" stop-opacity="0"/></radialGradient><radialGradient cx="132.17058" cy="-67.30112" r="91.80964" gradientUnits="userSpaceOnUse" id="color-85"><stop offset="0" stop-color="#eb0000"/><stop offset="1" stop-color="#eb0000" stop-opacity="0"/></radialGradient><radialGradient cx="98.65522" cy="-0.30906" r="91.80964" gradientUnits="userSpaceOnUse" id="color-86"><stop offset="0" stop-color="#eb0000"/><stop offset="1" stop-color="#eb0000" stop-opacity="0"/></radialGradient><radialGradient cx="65.13987" cy="74.41432" r="91.80964" gradientUnits="userSpaceOnUse" id="color-87"><stop offset="0" stop-color="#eb0000"/><stop offset="1" stop-color="#eb0000" stop-opacity="0"/></radialGradient><radialGradient cx="47.08717" cy="187.79439" r="91.80967" gradientUnits="userSpaceOnUse" id="color-88"><stop offset="0" stop-color="#eb0000"/><stop offset="1" stop-color="#eb0000" stop-opacity="0"/></radialGradient><radialGradient cx="40.63152" cy="231.59242" r="91.80967" gradientUnits="userSpaceOnUse" id="color-89"><stop offset="0" stop-color="#eb0000"/><stop offset="1" stop-color="#eb0000" stop-opacity="0"/></radialGradient><radialGradient cx="215.86229" cy="-145.96747" r="91.80966" gradientUnits="userSpaceOnUse" id="color-90"><stop offset="0" stop-color="#eb0000"/><stop offset="1" stop-color="#eb0000" stop-opacity="0"/></radialGradient><radialGradient cx="525.3514" cy="153.57308" r="36.72385" gradientUnits="userSpaceOnUse" id="color-91"><stop offset="0" stop-color="#eb0000"/><stop offset="1" stop-color="#eb0000" stop-opacity="0"/></radialGradient><radialGradient cx="379.73165" cy="467.96795" r="36.72387" gradientUnits="userSpaceOnUse" id="color-92"><stop offset="0" stop-color="#eb0000"/><stop offset="1" stop-color="#eb0000" stop-opacity="0"/></radialGradient><radialGradient cx="516.30574" cy="349.40786" r="36.72385" gradientUnits="userSpaceOnUse" id="color-93"><stop offset="0" stop-color="#eb0000"/><stop offset="1" stop-color="#eb0000" stop-opacity="0"/></radialGradient><radialGradient cx="625.82016" cy="87.81805" r="36.72387" gradientUnits="userSpaceOnUse" id="color-94"><stop offset="0" stop-color="#eb0000"/><stop offset="1" stop-color="#eb0000" stop-opacity="0"/></radialGradient><radialGradient cx="445.40937" cy="278.5115" r="36.72387" gradientUnits="userSpaceOnUse" id="color-95"><stop offset="0" stop-color="#eb0000"/><stop offset="1" stop-color="#eb0000" stop-opacity="0"/></radialGradient><radialGradient cx="415.75968" cy="322.30953" r="36.72387" gradientUnits="userSpaceOnUse" id="color-96"><stop offset="0" stop-color="#eb0000"/><stop offset="1" stop-color="#eb0000" stop-opacity="0"/></radialGradient><radialGradient cx="409.30403" cy="377.70458" r="36.72385" gradientUnits="userSpaceOnUse" id="color-97"><stop offset="0" stop-color="#eb0000"/><stop offset="1" stop-color="#eb0000" stop-opacity="0"/></radialGradient><radialGradient cx="406.71402" cy="409.90558" r="36.72388" gradientUnits="userSpaceOnUse" id="color-98"><stop offset="0" stop-color="#eb0000"/><stop offset="1" stop-color="#eb0000" stop-opacity="0"/></radialGradient><radialGradient cx="462.10907" cy="233.36048" r="36.72387" gradientUnits="userSpaceOnUse" id="color-99"><stop offset="0" stop-color="#eb0000"/><stop offset="1" stop-color="#eb0000" stop-opacity="0"/></radialGradient><radialGradient cx="486.57874" cy="180.51678" r="36.72384" gradientUnits="userSpaceOnUse" id="color-100"><stop offset="0" stop-color="#eb0000"/><stop offset="1" stop-color="#eb0000" stop-opacity="0"/></radialGradient><radialGradient cx="557.43645" cy="116.07607" r="36.72387" gradientUnits="userSpaceOnUse" id="color-101"><stop offset="0" stop-color="#eb0000"/><stop offset="1" stop-color="#eb0000" stop-opacity="0"/></radialGradient><radialGradient cx="585.77182" cy="98.0234" r="36.72387" gradientUnits="userSpaceOnUse" id="color-102"><stop offset="0" stop-color="#eb0000"/><stop offset="1" stop-color="#eb0000" stop-opacity="0"/></radialGradient><radialGradient cx="529.06247" cy="209.47065" r="91.80964" gradientUnits="userSpaceOnUse" id="color-103"><stop offset="0" stop-color="#eb0000"/><stop offset="1" stop-color="#eb0000" stop-opacity="0"/></radialGradient><radialGradient cx="495.54711" cy="276.46271" r="91.80964" gradientUnits="userSpaceOnUse" id="color-104"><stop offset="0" stop-color="#eb0000"/><stop offset="1" stop-color="#eb0000" stop-opacity="0"/></radialGradient><radialGradient cx="462.03176" cy="351.18609" r="91.80964" gradientUnits="userSpaceOnUse" id="color-105"><stop offset="0" stop-color="#eb0000"/><stop offset="1" stop-color="#eb0000" stop-opacity="0"/></radialGradient><radialGradient cx="443.97906" cy="464.56616" r="91.80967" gradientUnits="userSpaceOnUse" id="color-106"><stop offset="0" stop-color="#eb0000"/><stop offset="1" stop-color="#eb0000" stop-opacity="0"/></radialGradient><radialGradient cx="437.52341" cy="508.36418" r="91.80967" gradientUnits="userSpaceOnUse" id="color-107"><stop offset="0" stop-color="#eb0000"/><stop offset="1" stop-color="#eb0000" stop-opacity="0"/></radialGradient><radialGradient cx="612.7542" cy="130.8043" r="91.80966" gradientUnits="userSpaceOnUse" id="color-108"><stop offset="0" stop-color="#eb0000"/><stop offset="1" stop-color="#eb0000" stop-opacity="0"/></radialGradient><radialGradient cx="618.93999" cy="221.63614" r="36.72385" gradientUnits="userSpaceOnUse" id="color-109"><stop offset="0" stop-color="#eb0000"/><stop offset="1" stop-color="#eb0000" stop-opacity="0"/></radialGradient><radialGradient cx="473.32024" cy="536.03101" r="36.72387" gradientUnits="userSpaceOnUse" id="color-110"><stop offset="0" stop-color="#eb0000"/><stop offset="1" stop-color="#eb0000" stop-opacity="0"/></radialGradient><radialGradient cx="609.89433" cy="417.47092" r="36.72385" gradientUnits="userSpaceOnUse" id="color-111"><stop offset="0" stop-color="#eb0000"/><stop offset="1" stop-color="#eb0000" stop-opacity="0"/></radialGradient><radialGradient cx="719.40875" cy="155.88111" r="36.72387" gradientUnits="userSpaceOnUse" id="color-112"><stop offset="0" stop-color="#eb0000"/><stop offset="1" stop-color="#eb0000" stop-opacity="0"/></radialGradient><radialGradient cx="538.99796" cy="346.57456" r="36.72387" gradientUnits="userSpaceOnUse" id="color-113"><stop offset="0" stop-color="#eb0000"/><stop offset="1" stop-color="#eb0000" stop-opacity="0"/></radialGradient><radialGradient cx="509.34827" cy="390.37259" r="36.72387" gradientUnits="userSpaceOnUse" id="color-114"><stop offset="0" stop-color="#eb0000"/><stop offset="1" stop-color="#eb0000" stop-opacity="0"/></radialGradient><radialGradient cx="502.89262" cy="445.76764" r="36.72385" gradientUnits="userSpaceOnUse" id="color-115"><stop offset="0" stop-color="#eb0000"/><stop offset="1" stop-color="#eb0000" stop-opacity="0"/></radialGradient><radialGradient cx="500.30261" cy="477.96864" r="36.72388" gradientUnits="userSpaceOnUse" id="color-116"><stop offset="0" stop-color="#eb0000"/><stop offset="1" stop-color="#eb0000" stop-opacity="0"/></radialGradient><radialGradient cx="555.69766" cy="301.42354" r="36.72387" gradientUnits="userSpaceOnUse" id="color-117"><stop offset="0" stop-color="#eb0000"/><stop offset="1" stop-color="#eb0000" stop-opacity="0"/></radialGradient><radialGradient cx="580.16733" cy="248.57984" r="36.72384" gradientUnits="userSpaceOnUse" id="color-118"><stop offset="0" stop-color="#eb0000"/><stop offset="1" stop-color="#eb0000" stop-opacity="0"/></radialGradient><radialGradient cx="651.02504" cy="184.13913" r="36.72387" gradientUnits="userSpaceOnUse" id="color-119"><stop offset="0" stop-color="#eb0000"/><stop offset="1" stop-color="#eb0000" stop-opacity="0"/></radialGradient><radialGradient cx="679.36041" cy="166.08646" r="36.72387" gradientUnits="userSpaceOnUse" id="color-120"><stop offset="0" stop-color="#eb0000"/><stop offset="1" stop-color="#eb0000" stop-opacity="0"/></radialGradient><radialGradient cx="622.65105" cy="277.53371" r="91.80964" gradientUnits="userSpaceOnUse" id="color-121"><stop offset="0" stop-color="#eb0000"/><stop offset="1" stop-color="#eb0000" stop-opacity="0"/></radialGradient><radialGradient cx="589.1357" cy="344.52577" r="91.80964" gradientUnits="userSpaceOnUse" id="color-122"><stop offset="0" stop-color="#eb0000"/><stop offset="1" stop-color="#eb0000" stop-opacity="0"/></radialGradient><radialGradient cx="555.62034" cy="419.24915" r="91.80964" gradientUnits="userSpaceOnUse" id="color-123"><stop offset="0" stop-color="#eb0000"/><stop offset="1" stop-color="#eb0000" stop-opacity="0"/></radialGradient><radialGradient cx="537.56765" cy="532.62922" r="91.80967" gradientUnits="userSpaceOnUse" id="color-124"><stop offset="0" stop-color="#eb0000"/><stop offset="1" stop-color="#eb0000" stop-opacity="0"/></radialGradient><radialGradient cx="531.112" cy="576.42724" r="91.80967" gradientUnits="userSpaceOnUse" id="color-125"><stop offset="0" stop-color="#eb0000"/><stop offset="1" stop-color="#eb0000" stop-opacity="0"/></radialGradient><radialGradient cx="706.34278" cy="198.86736" r="91.80966" gradientUnits="userSpaceOnUse" id="color-126"><stop offset="0" stop-color="#eb0000"/><stop offset="1" stop-color="#eb0000" stop-opacity="0"/></radialGradient></defs><g transform="translate(50.06756,225.67757)"><g stroke="none" stroke-width="0" stroke-miterlimit="10"><path d="M-20.53303,387.97107v-450.45045h669.66967v450.45045z" fill="#940000"/><g><path d="M157.40288,12.95746c0,20.28204 -13.84575,36.72384 -30.92535,36.72384c-17.0796,0 -30.92535,-16.44183 -30.92535,-36.72384c0,-20.28203 13.84575,-36.72384 30.92535,-36.72384c17.0796,0 30.92535,16.44183 30.92535,36.72384z" fill="url(#color-1)"/><path d="M11.78313,327.35233c0,20.28201 -13.84574,36.72388 -30.92534,36.72388c-17.0796,0 -30.92535,-16.44184 -30.92535,-36.72388c0,-20.28201 13.84578,-36.72384 30.92535,-36.72384c17.0796,0 30.92534,16.44183 30.92534,36.72384z" fill="url(#color-2)"/><path d="M148.35722,208.79224c0,20.28204 -13.84575,36.72384 -30.92535,36.72384c-17.0796,0 -30.92537,-16.44183 -30.92537,-36.72384c0,-20.28204 13.84577,-36.72384 30.92537,-36.72384c17.0796,0 30.92535,16.44183 30.92535,36.72384z" fill="url(#color-3)"/><path d="M257.87163,-52.79757c0,20.28204 -13.84575,36.72387 -30.92535,36.72387c-17.0796,0 -30.92534,-16.44183 -30.92534,-36.72387c0,-20.28203 13.84574,-36.72384 30.92534,-36.72384c17.0796,0 30.92535,16.44183 30.92535,36.72384z" fill="url(#color-4)"/><path d="M77.46084,137.89589c0,20.28201 -13.84574,36.72388 -30.92534,36.72388c-17.0796,0 -30.92535,-16.44184 -30.92535,-36.72388c0,-20.28201 13.84577,-36.72384 30.92537,-36.72384c17.0796,0 30.92535,16.44183 30.92535,36.72384z" fill="url(#color-5)"/><path d="M47.81115,181.69391c0,20.28204 -13.84574,36.72385 -30.92535,36.72385c-17.0796,0 -30.92538,-16.44184 -30.92538,-36.72385c0,-20.28204 13.84578,-36.72384 30.92538,-36.72384c17.0796,0 30.92535,16.44183 30.92535,36.72384z" fill="url(#color-6)"/><path d="M41.35551,237.08896c0,20.28203 -13.84575,36.72384 -30.92535,36.72384c-17.0796,0 -30.92534,-16.44183 -30.92534,-36.72384c0,-20.28203 13.84574,-36.72384 30.92534,-36.72384c17.0796,0 30.92535,16.44183 30.92535,36.72384z" fill="url(#color-7)"/><path d="M38.7655,269.28996c0,20.28201 -13.84575,36.72384 -30.92535,36.72384c-17.0796,0 -30.92534,-16.44183 -30.92534,-36.72384c0,-20.28203 13.84574,-36.72387 30.92534,-36.72387c17.0796,0 30.92535,16.44184 30.92535,36.72387z" fill="url(#color-8)"/><path d="M94.16054,92.74487c0,20.28204 -13.84574,36.72384 -30.92534,36.72384c-17.0796,0 -30.92535,-16.44183 -30.92535,-36.72384c0,-20.28204 13.84578,-36.72384 30.92538,-36.72384c17.0796,0 30.92534,16.44183 30.92534,36.72384z" fill="url(#color-9)"/><path d="M118.63022,39.90116c0,20.28201 -13.84575,36.72387 -30.92535,36.72387c-17.0796,0 -30.92537,-16.44183 -30.92537,-36.72387c0,-20.28201 13.84577,-36.72388 30.92537,-36.72388c17.0796,0 30.92535,16.44184 30.92535,36.72388z" fill="url(#color-10)"/><path d="M189.48792,-24.53954c0,20.28201 -13.84574,36.72384 -30.92534,36.72384c-17.0796,0 -30.92538,-16.44184 -30.92538,-36.72384c0,-20.28201 13.84578,-36.72387 30.92538,-36.72387c17.0796,0 30.92534,16.44183 30.92534,36.72387z" fill="url(#color-11)"/><path d="M217.82329,-42.59221c0,20.28201 -13.84574,36.72384 -30.92534,36.72384c-17.0796,0 -30.92538,-16.44183 -30.92538,-36.72384c0,-20.28201 13.84578,-36.72387 30.92538,-36.72387c17.0796,0 30.92534,16.44183 30.92534,36.72387z" fill="url(#color-12)"/><path d="M207.50195,68.85503c0,42.69901 -34.61437,77.31338 -77.31335,77.31338c-42.69898,0 -77.3134,-34.61437 -77.3134,-77.31338c0,-42.69901 34.61439,-77.31338 77.3134,-77.31338c42.69898,0 77.31336,34.61437 77.31336,77.31338z" fill="url(#color-13)"/><path d="M173.98659,135.8471c0,42.69901 -34.61437,77.31338 -77.31335,77.31338c-42.69901,0 -77.31338,-34.61437 -77.31338,-77.31338c0,-42.69901 34.6144,-77.31338 77.31341,-77.31338c42.69901,0 77.31339,34.6144 77.31339,77.31338z" fill="url(#color-14)"/><path d="M140.47124,210.57047c0,42.69901 -34.61437,77.31338 -77.31335,77.31338c-42.69901,0 -77.3134,-34.6144 -77.3134,-77.31338c0,-42.69901 34.6144,-77.31338 77.3134,-77.31338c42.69901,0 77.31338,34.6144 77.31338,77.31338z" fill="url(#color-15)"/><path d="M122.41857,323.95054c0,42.69901 -34.61437,77.31339 -77.31338,77.31339c-42.69898,0 -77.31338,-34.61441 -77.31338,-77.31339c0,-42.69901 34.6144,-77.31338 77.31338,-77.31338c42.69901,0 77.31338,34.61437 77.31338,77.31338z" fill="url(#color-16)"/><path d="M115.96289,367.74857c0,42.69901 -34.61438,77.31338 -77.31335,77.31338c-42.69898,0 -77.31338,-34.61437 -77.31338,-77.31338c0,-42.69901 34.6144,-77.31338 77.31338,-77.31338c42.69901,0 77.31339,34.61437 77.31339,77.31338z" fill="url(#color-17)"/><path d="M291.19367,-9.81132c0,42.69901 -34.61438,77.31338 -77.31336,77.31338c-42.69898,0 -77.31338,-34.6144 -77.31338,-77.31338c0,-42.69901 34.6144,-77.31339 77.31341,-77.31339c42.69898,0 77.31336,34.61438 77.31336,77.31339z" fill="url(#color-18)"/></g><g><path d="M264.50498,43.48299c0,20.28203 -13.84574,36.72384 -30.92534,36.72384c-17.0796,0 -30.92535,-16.44183 -30.92535,-36.72384c0,-20.28203 13.84575,-36.72384 30.92535,-36.72384c17.0796,0 30.92534,16.44183 30.92534,36.72384z" fill="url(#color-19)"/><path d="M118.88523,357.87785c0,20.28201 -13.84574,36.72388 -30.92534,36.72388c-17.0796,0 -30.92535,-16.44184 -30.92535,-36.72388c0,-20.28201 13.84578,-36.72384 30.92535,-36.72384c17.0796,0 30.92534,16.44183 30.92534,36.72384z" fill="url(#color-20)"/><path d="M255.45932,239.31776c0,20.28203 -13.84575,36.72385 -30.92535,36.72385c-17.0796,0 -30.92537,-16.44184 -30.92537,-36.72385c0,-20.28203 13.84577,-36.72384 30.92537,-36.72384c17.0796,0 30.92535,16.44183 30.92535,36.72384z" fill="url(#color-21)"/><path d="M364.97373,-22.27204c0,20.28204 -13.84575,36.72387 -30.92535,36.72387c-17.0796,0 -30.92535,-16.44183 -30.92535,-36.72387c0,-20.28203 13.84575,-36.72385 30.92535,-36.72385c17.0796,0 30.92535,16.44184 30.92535,36.72385z" fill="url(#color-22)"/><path d="M184.56294,168.42141c0,20.28201 -13.84574,36.72387 -30.92534,36.72387c-17.0796,0 -30.92535,-16.44184 -30.92535,-36.72387c0,-20.28201 13.84577,-36.72385 30.92537,-36.72385c17.0796,0 30.92535,16.44183 30.92535,36.72385z" fill="url(#color-23)"/><path d="M154.91325,212.21944c0,20.28203 -13.84574,36.72385 -30.92534,36.72385c-17.0796,0 -30.92538,-16.44184 -30.92538,-36.72385c0,-20.28204 13.84578,-36.72385 30.92538,-36.72385c17.0796,0 30.92534,16.44183 30.92534,36.72385z" fill="url(#color-24)"/><path d="M148.45761,267.61448c0,20.28203 -13.84575,36.72384 -30.92535,36.72384c-17.0796,0 -30.92534,-16.44183 -30.92534,-36.72384c0,-20.28203 13.84574,-36.72384 30.92534,-36.72384c17.0796,0 30.92535,16.44183 30.92535,36.72384z" fill="url(#color-25)"/><path d="M145.8676,299.81549c0,20.28201 -13.84575,36.72384 -30.92535,36.72384c-17.0796,0 -30.92535,-16.44183 -30.92535,-36.72384c0,-20.28204 13.84575,-36.72388 30.92535,-36.72388c17.0796,0 30.92535,16.44184 30.92535,36.72388z" fill="url(#color-26)"/><path d="M201.26264,123.27039c0,20.28204 -13.84574,36.72385 -30.92534,36.72385c-17.0796,0 -30.92535,-16.44183 -30.92535,-36.72385c0,-20.28204 13.84577,-36.72384 30.92537,-36.72384c17.0796,0 30.92534,16.44183 30.92534,36.72384z" fill="url(#color-27)"/><path d="M225.73232,70.42669c0,20.28201 -13.84575,36.72387 -30.92535,36.72387c-17.0796,0 -30.92537,-16.44183 -30.92537,-36.72387c0,-20.28201 13.84577,-36.72388 30.92537,-36.72388c17.0796,0 30.92535,16.44184 30.92535,36.72388z" fill="url(#color-28)"/><path d="M296.59002,5.98598c0,20.28201 -13.84574,36.72384 -30.92534,36.72384c-17.0796,0 -30.92538,-16.44183 -30.92538,-36.72384c0,-20.28201 13.84578,-36.72387 30.92538,-36.72387c17.0796,0 30.92534,16.44183 30.92534,36.72387z" fill="url(#color-29)"/><path d="M324.92539,-12.06669c0,20.28201 -13.84575,36.72384 -30.92535,36.72384c-17.0796,0 -30.92537,-16.44183 -30.92537,-36.72384c0,-20.28201 13.84578,-36.72387 30.92537,-36.72387c17.0796,0 30.92535,16.44183 30.92535,36.72387z" fill="url(#color-30)"/><path d="M314.60405,99.38056c0,42.69901 -34.61437,77.31338 -77.31335,77.31338c-42.69898,0 -77.3134,-34.61437 -77.3134,-77.31338c0,-42.69901 34.6144,-77.31338 77.3134,-77.31338c42.69898,0 77.31336,34.61437 77.31336,77.31338z" fill="url(#color-31)"/><path d="M281.08869,166.37262c0,42.69901 -34.61437,77.31338 -77.31335,77.31338c-42.69901,0 -77.31338,-34.61437 -77.31338,-77.31338c0,-42.69901 34.6144,-77.31338 77.3134,-77.31338c42.69901,0 77.31338,34.6144 77.31338,77.31338z" fill="url(#color-32)"/><path d="M247.57334,241.09599c0,42.69901 -34.61437,77.31338 -77.31335,77.31338c-42.69901,0 -77.3134,-34.6144 -77.3134,-77.31338c0,-42.69901 34.6144,-77.31338 77.31341,-77.31338c42.69901,0 77.31338,34.6144 77.31338,77.31338z" fill="url(#color-33)"/><path d="M229.52067,354.47607c0,42.69901 -34.61437,77.31339 -77.31338,77.31339c-42.69898,0 -77.31338,-34.61441 -77.31338,-77.31339c0,-42.69901 34.6144,-77.31338 77.31338,-77.31338c42.69901,0 77.31338,34.61437 77.31338,77.31338z" fill="url(#color-34)"/><path d="M223.06499,398.2741c0,42.69901 -34.61438,77.31338 -77.31336,77.31338c-42.69898,0 -77.31338,-34.61437 -77.31338,-77.31338c0,-42.69901 34.6144,-77.31338 77.31338,-77.31338c42.69901,0 77.31339,34.61437 77.31339,77.31338z" fill="url(#color-35)"/><path d="M398.29577,20.71421c0,42.69901 -34.61437,77.31338 -77.31335,77.31338c-42.69898,0 -77.31338,-34.6144 -77.31338,-77.31338c0,-42.69901 34.6144,-77.31338 77.31341,-77.31338c42.69898,0 77.31336,34.61437 77.31336,77.31339z" fill="url(#color-36)"/></g><g><path d="M373.10858,36.47098c0,20.28203 -13.84574,36.72385 -30.92534,36.72385c-17.0796,0 -30.92535,-16.44184 -30.92535,-36.72385c0,-20.28203 13.84575,-36.72384 30.92535,-36.72384c17.0796,0 30.92534,16.44183 30.92534,36.72384z" fill="url(#color-37)"/><path d="M227.48883,350.86584c0,20.28201 -13.84574,36.72388 -30.92534,36.72388c-17.0796,0 -30.92535,-16.44184 -30.92535,-36.72388c0,-20.28201 13.84578,-36.72384 30.92535,-36.72384c17.0796,0 30.92534,16.44183 30.92534,36.72384z" fill="url(#color-38)"/><path d="M364.06293,232.30576c0,20.28203 -13.84575,36.72384 -30.92535,36.72384c-17.0796,0 -30.92537,-16.44183 -30.92537,-36.72384c0,-20.28204 13.84577,-36.72385 30.92537,-36.72385c17.0796,0 30.92535,16.44183 30.92535,36.72385z" fill="url(#color-39)"/><path d="M473.57734,-29.28405c0,20.28203 -13.84575,36.72387 -30.92535,36.72387c-17.0796,0 -30.92534,-16.44184 -30.92534,-36.72387c0,-20.28204 13.84574,-36.72385 30.92534,-36.72385c17.0796,0 30.92535,16.44184 30.92535,36.72385z" fill="url(#color-40)"/><path d="M293.16655,161.4094c0,20.28201 -13.84575,36.72387 -30.92534,36.72387c-17.0796,0 -30.92535,-16.44184 -30.92535,-36.72387c0,-20.28201 13.84578,-36.72385 30.92538,-36.72385c17.0796,0 30.92534,16.44184 30.92534,36.72385z" fill="url(#color-41)"/><path d="M263.51686,205.20743c0,20.28203 -13.84575,36.72385 -30.92535,36.72385c-17.0796,0 -30.92538,-16.44184 -30.92538,-36.72385c0,-20.28204 13.84578,-36.72385 30.92538,-36.72385c17.0796,0 30.92535,16.44184 30.92535,36.72385z" fill="url(#color-42)"/><path d="M257.06121,260.60247c0,20.28204 -13.84575,36.72384 -30.92535,36.72384c-17.0796,0 -30.92534,-16.44183 -30.92534,-36.72384c0,-20.28203 13.84574,-36.72384 30.92534,-36.72384c17.0796,0 30.92535,16.44183 30.92535,36.72384z" fill="url(#color-43)"/><path d="M254.4712,292.80348c0,20.28201 -13.84575,36.72384 -30.92535,36.72384c-17.0796,0 -30.92534,-16.44183 -30.92534,-36.72384c0,-20.28203 13.84574,-36.72388 30.92534,-36.72388c17.0796,0 30.92535,16.44184 30.92535,36.72388z" fill="url(#color-44)"/><path d="M309.86625,116.25838c0,20.28204 -13.84575,36.72385 -30.92534,36.72385c-17.0796,0 -30.92535,-16.44184 -30.92535,-36.72385c0,-20.28204 13.84578,-36.72384 30.92538,-36.72384c17.0796,0 30.92534,16.44183 30.92534,36.72384z" fill="url(#color-45)"/><path d="M334.33592,63.41468c0,20.28201 -13.84575,36.72387 -30.92535,36.72387c-17.0796,0 -30.92537,-16.44183 -30.92537,-36.72387c0,-20.28201 13.84577,-36.72388 30.92537,-36.72388c17.0796,0 30.92535,16.44184 30.92535,36.72388z" fill="url(#color-46)"/><path d="M405.19363,-1.02603c0,20.28201 -13.84574,36.72385 -30.92534,36.72385c-17.0796,0 -30.92538,-16.44184 -30.92538,-36.72385c0,-20.28201 13.84578,-36.72387 30.92538,-36.72387c17.0796,0 30.92534,16.44183 30.92534,36.72387z" fill="url(#color-47)"/><path d="M433.52899,-19.0787c0,20.28201 -13.84575,36.72384 -30.92534,36.72384c-17.0796,0 -30.92537,-16.44183 -30.92537,-36.72384c0,-20.28201 13.84578,-36.72387 30.92537,-36.72387c17.0796,0 30.92534,16.44184 30.92534,36.72387z" fill="url(#color-48)"/><path d="M423.20766,92.36855c0,42.69901 -34.61437,77.31338 -77.31335,77.31338c-42.69898,0 -77.31341,-34.61437 -77.31341,-77.31338c0,-42.69901 34.6144,-77.31338 77.31341,-77.31338c42.69898,0 77.31336,34.61437 77.31336,77.31338z" fill="url(#color-49)"/><path d="M389.6923,159.36061c0,42.69901 -34.61437,77.31339 -77.31335,77.31339c-42.69901,0 -77.31338,-34.61437 -77.31338,-77.31339c0,-42.69901 34.6144,-77.31338 77.31341,-77.31338c42.69901,0 77.31338,34.6144 77.31338,77.31338z" fill="url(#color-50)"/><path d="M356.17695,234.08399c0,42.69901 -34.61437,77.31338 -77.31335,77.31338c-42.69901,0 -77.31341,-34.6144 -77.31341,-77.31338c0,-42.69901 34.6144,-77.31338 77.31341,-77.31338c42.69901,0 77.31338,34.6144 77.31338,77.31338z" fill="url(#color-51)"/><path d="M338.12427,347.46406c0,42.69901 -34.61437,77.31339 -77.31338,77.31339c-42.69898,0 -77.31338,-34.61441 -77.31338,-77.31339c0,-42.69901 34.6144,-77.31338 77.31338,-77.31338c42.69901,0 77.31338,34.61437 77.31338,77.31338z" fill="url(#color-52)"/><path d="M331.6686,391.26208c0,42.69901 -34.61437,77.31339 -77.31335,77.31339c-42.69898,0 -77.31338,-34.61438 -77.31338,-77.31339c0,-42.69901 34.6144,-77.31338 77.31338,-77.31338c42.69901,0 77.31338,34.61437 77.31338,77.31338z" fill="url(#color-53)"/><path d="M506.89938,13.7022c0,42.69901 -34.61437,77.31338 -77.31335,77.31338c-42.69898,0 -77.31338,-34.6144 -77.31338,-77.31338c0,-42.69901 34.6144,-77.31338 77.31341,-77.31338c42.69898,0 77.31336,34.61437 77.31336,77.31339z" fill="url(#color-54)"/></g><g><path d="M495.2257,62.49199c0,20.28204 -13.84574,36.72385 -30.92534,36.72385c-17.0796,0 -30.92535,-16.44184 -30.92535,-36.72385c0,-20.28204 13.84575,-36.72384 30.92535,-36.72384c17.0796,0 30.92534,16.44183 30.92534,36.72384z" fill="url(#color-55)"/><path d="M349.60595,376.88686c0,20.28201 -13.84575,36.72387 -30.92534,36.72387c-17.0796,0 -30.92535,-16.44184 -30.92535,-36.72387c0,-20.28201 13.84578,-36.72385 30.92535,-36.72385c17.0796,0 30.92534,16.44184 30.92534,36.72385z" fill="url(#color-56)"/><path d="M486.18004,258.32677c0,20.28204 -13.84575,36.72384 -30.92535,36.72384c-17.0796,0 -30.92537,-16.44183 -30.92537,-36.72384c0,-20.28203 13.84577,-36.72385 30.92537,-36.72385c17.0796,0 30.92535,16.44183 30.92535,36.72385z" fill="url(#color-57)"/><path d="M595.69447,-3.26304c0,20.28204 -13.84575,36.72387 -30.92535,36.72387c-17.0796,0 -30.92535,-16.44184 -30.92535,-36.72387c0,-20.28203 13.84575,-36.72384 30.92535,-36.72384c17.0796,0 30.92535,16.44183 30.92535,36.72384z" fill="url(#color-58)"/><path d="M415.28367,187.43042c0,20.28201 -13.84575,36.72388 -30.92534,36.72388c-17.0796,0 -30.92535,-16.44184 -30.92535,-36.72388c0,-20.28201 13.84578,-36.72384 30.92538,-36.72384c17.0796,0 30.92534,16.44183 30.92534,36.72384z" fill="url(#color-59)"/><path d="M385.63397,231.22844c0,20.28204 -13.84574,36.72385 -30.92534,36.72385c-17.0796,0 -30.92537,-16.44184 -30.92537,-36.72385c0,-20.28203 13.84577,-36.72384 30.92537,-36.72384c17.0796,0 30.92534,16.44183 30.92534,36.72384z" fill="url(#color-60)"/><path d="M379.17833,286.62349c0,20.28203 -13.84575,36.72384 -30.92535,36.72384c-17.0796,0 -30.92534,-16.44183 -30.92534,-36.72384c0,-20.28204 13.84574,-36.72385 30.92534,-36.72385c17.0796,0 30.92535,16.44184 30.92535,36.72385z" fill="url(#color-61)"/><path d="M376.58832,318.8245c0,20.28201 -13.84575,36.72384 -30.92535,36.72384c-17.0796,0 -30.92534,-16.44183 -30.92534,-36.72384c0,-20.28204 13.84574,-36.72388 30.92534,-36.72388c17.0796,0 30.92535,16.44184 30.92535,36.72388z" fill="url(#color-62)"/><path d="M431.98337,142.2794c0,20.28204 -13.84575,36.72384 -30.92535,36.72384c-17.0796,0 -30.92535,-16.44183 -30.92535,-36.72384c0,-20.28204 13.84578,-36.72385 30.92538,-36.72385c17.0796,0 30.92534,16.44184 30.92534,36.72385z" fill="url(#color-63)"/><path d="M456.45304,89.43569c0,20.28201 -13.84575,36.72387 -30.92535,36.72387c-17.0796,0 -30.92537,-16.44183 -30.92537,-36.72387c0,-20.28201 13.84577,-36.72388 30.92537,-36.72388c17.0796,0 30.92535,16.44184 30.92535,36.72388z" fill="url(#color-64)"/><path d="M527.31076,24.99499c0,20.28201 -13.84575,36.72384 -30.92535,36.72384c-17.0796,0 -30.92537,-16.44183 -30.92537,-36.72384c0,-20.28201 13.84578,-36.72387 30.92537,-36.72387c17.0796,0 30.92535,16.44184 30.92535,36.72387z" fill="url(#color-65)"/><path d="M555.64612,6.94232c0,20.28201 -13.84575,36.72385 -30.92535,36.72385c-17.0796,0 -30.92537,-16.44183 -30.92537,-36.72385c0,-20.28201 13.84578,-36.72387 30.92537,-36.72387c17.0796,0 30.92535,16.44184 30.92535,36.72387z" fill="url(#color-66)"/><path d="M545.32477,118.38956c0,42.69901 -34.61437,77.31338 -77.31335,77.31338c-42.69898,0 -77.3134,-34.61437 -77.3134,-77.31338c0,-42.69901 34.6144,-77.31338 77.3134,-77.31338c42.69898,0 77.31335,34.61437 77.31335,77.31338z" fill="url(#color-67)"/><path d="M511.80941,185.38163c0,42.69901 -34.61437,77.31339 -77.31335,77.31339c-42.69901,0 -77.31338,-34.61437 -77.31338,-77.31339c0,-42.69901 34.6144,-77.31338 77.31341,-77.31338c42.69901,0 77.31338,34.6144 77.31338,77.31338z" fill="url(#color-68)"/><path d="M478.29406,260.105c0,42.69901 -34.61437,77.31338 -77.31335,77.31338c-42.69901,0 -77.3134,-34.6144 -77.3134,-77.31338c0,-42.69901 34.6144,-77.31338 77.3134,-77.31338c42.69901,0 77.31338,34.6144 77.31338,77.31338z" fill="url(#color-69)"/><path d="M460.24139,373.48508c0,42.69901 -34.61437,77.31338 -77.31338,77.31338c-42.69898,0 -77.31338,-34.6144 -77.31338,-77.31338c0,-42.69901 34.6144,-77.31338 77.31338,-77.31338c42.69901,0 77.31338,34.61437 77.31338,77.31338z" fill="url(#color-70)"/><path d="M453.78572,417.2831c0,42.69901 -34.61437,77.31339 -77.31335,77.31339c-42.69898,0 -77.31338,-34.61438 -77.31338,-77.31339c0,-42.69901 34.6144,-77.31338 77.31338,-77.31338c42.69901,0 77.31338,34.61437 77.31338,77.31338z" fill="url(#color-71)"/><path d="M629.01649,39.72321c0,42.69901 -34.61437,77.31338 -77.31336,77.31338c-42.69898,0 -77.31338,-34.6144 -77.31338,-77.31338c0,-42.69901 34.6144,-77.31338 77.31341,-77.31338c42.69898,0 77.31336,34.61437 77.31336,77.31339z" fill="url(#color-72)"/></g><g><path d="M159.38486,-123.19869c0,20.28203 -13.84575,36.72384 -30.92535,36.72384c-17.0796,0 -30.92535,-16.44183 -30.92535,-36.72384c0,-20.28203 13.84575,-36.72384 30.92535,-36.72384c17.0796,0 30.92535,16.44183 30.92535,36.72384z" fill="url(#color-73)"/><path d="M13.76511,191.19618c0,20.28201 -13.84574,36.72387 -30.92534,36.72387c-17.0796,0 -30.92535,-16.44184 -30.92535,-36.72387c0,-20.28201 13.84578,-36.72385 30.92535,-36.72385c17.0796,0 30.92534,16.44183 30.92534,36.72385z" fill="url(#color-74)"/><path d="M150.33921,72.63609c0,20.28203 -13.84575,36.72384 -30.92535,36.72384c-17.0796,0 -30.92537,-16.44183 -30.92537,-36.72384c0,-20.28203 13.84577,-36.72384 30.92537,-36.72384c17.0796,0 30.92535,16.44183 30.92535,36.72384z" fill="url(#color-75)"/><path d="M259.85362,-188.95372c0,20.28204 -13.84575,36.72387 -30.92535,36.72387c-17.0796,0 -30.92534,-16.44183 -30.92534,-36.72387c0,-20.28204 13.84574,-36.72385 30.92534,-36.72385c17.0796,0 30.92535,16.44183 30.92535,36.72385z" fill="url(#color-76)"/><path d="M79.44283,1.73973c0,20.28201 -13.84574,36.72388 -30.92534,36.72388c-17.0796,0 -30.92535,-16.44184 -30.92535,-36.72387c0,-20.28201 13.84578,-36.72385 30.92538,-36.72385c17.0796,0 30.92535,16.44184 30.92535,36.72385z" fill="url(#color-77)"/><path d="M49.79314,45.53776c0,20.28204 -13.84574,36.72385 -30.92534,36.72385c-17.0796,0 -30.92538,-16.44184 -30.92538,-36.72385c0,-20.28204 13.84578,-36.72385 30.92538,-36.72385c17.0796,0 30.92535,16.44184 30.92535,36.72385z" fill="url(#color-78)"/><path d="M43.33749,100.93281c0,20.28204 -13.84575,36.72385 -30.92535,36.72385c-17.0796,0 -30.92534,-16.44183 -30.92534,-36.72385c0,-20.28204 13.84574,-36.72384 30.92534,-36.72384c17.0796,0 30.92535,16.44183 30.92535,36.72384z" fill="url(#color-79)"/><path d="M40.74748,133.13381c0,20.28201 -13.84575,36.72384 -30.92535,36.72384c-17.0796,0 -30.92535,-16.44183 -30.92535,-36.72384c0,-20.28204 13.84575,-36.72388 30.92535,-36.72388c17.0796,0 30.92535,16.44184 30.92535,36.72388z" fill="url(#color-80)"/><path d="M96.14253,-43.41129c0,20.28204 -13.84574,36.72385 -30.92534,36.72385c-17.0796,0 -30.92535,-16.44184 -30.92535,-36.72385c0,-20.28203 13.84578,-36.72384 30.92538,-36.72384c17.0796,0 30.92535,16.44183 30.92535,36.72384z" fill="url(#color-81)"/><path d="M120.6122,-96.25499c0,20.28201 -13.84575,36.72387 -30.92535,36.72387c-17.0796,0 -30.92537,-16.44183 -30.92537,-36.72387c0,-20.28201 13.84577,-36.72387 30.92537,-36.72387c17.0796,0 30.92535,16.44184 30.92535,36.72387z" fill="url(#color-82)"/><path d="M191.46991,-160.6957c0,20.28201 -13.84575,36.72384 -30.92535,36.72384c-17.0796,0 -30.92537,-16.44183 -30.92537,-36.72384c0,-20.28201 13.84577,-36.72387 30.92537,-36.72387c17.0796,0 30.92535,16.44183 30.92535,36.72387z" fill="url(#color-83)"/><path d="M219.80527,-178.74837c0,20.28201 -13.84574,36.72384 -30.92534,36.72384c-17.0796,0 -30.92537,-16.44183 -30.92537,-36.72384c0,-20.28201 13.84577,-36.72387 30.92537,-36.72387c17.0796,0 30.92534,16.44183 30.92534,36.72387z" fill="url(#color-84)"/><path d="M209.48393,-67.30112c0,42.69901 -34.61437,77.31338 -77.31335,77.31338c-42.69898,0 -77.3134,-34.61437 -77.3134,-77.31338c0,-42.69901 34.6144,-77.31338 77.31341,-77.31338c42.69898,0 77.31335,34.61437 77.31335,77.31338z" fill="url(#color-85)"/><path d="M175.96858,-0.30906c0,42.69901 -34.61437,77.31339 -77.31335,77.31339c-42.69901,0 -77.31338,-34.61437 -77.31338,-77.31338c0,-42.69901 34.61439,-77.31338 77.3134,-77.31338c42.69901,0 77.31339,34.6144 77.31339,77.31338z" fill="url(#color-86)"/><path d="M142.45322,74.41432c0,42.69901 -34.61438,77.31338 -77.31335,77.31338c-42.69901,0 -77.3134,-34.6144 -77.3134,-77.31338c0,-42.69901 34.6144,-77.31338 77.31341,-77.31338c42.69901,0 77.31338,34.6144 77.31338,77.31338z" fill="url(#color-87)"/><path d="M124.40055,187.79439c0,42.69901 -34.61437,77.31338 -77.31338,77.31338c-42.69898,0 -77.31338,-34.6144 -77.31338,-77.31338c0,-42.69901 34.6144,-77.31338 77.31338,-77.31338c42.69901,0 77.31338,34.61437 77.31338,77.31338z" fill="url(#color-88)"/><path d="M117.94488,231.59242c0,42.69901 -34.61437,77.31338 -77.31335,77.31338c-42.69898,0 -77.31338,-34.61438 -77.31338,-77.31338c0,-42.69901 34.6144,-77.31338 77.31338,-77.31338c42.69901,0 77.31339,34.61437 77.31339,77.31338z" fill="url(#color-89)"/><path d="M293.17565,-145.96747c0,42.69901 -34.61437,77.31338 -77.31335,77.31338c-42.69898,0 -77.31338,-34.6144 -77.31338,-77.31338c0,-42.69901 34.6144,-77.31339 77.31341,-77.31339c42.69898,0 77.31335,34.61437 77.31335,77.31339z" fill="url(#color-90)"/></g><g><path d="M556.27675,153.57308c0,20.28204 -13.84575,36.72385 -30.92534,36.72385c-17.0796,0 -30.92535,-16.44183 -30.92535,-36.72385c0,-20.28204 13.84575,-36.72384 30.92535,-36.72384c17.0796,0 30.92534,16.44183 30.92534,36.72384z" fill="url(#color-91)"/><path d="M410.657,467.96795c0,20.28201 -13.84575,36.72387 -30.92534,36.72387c-17.0796,0 -30.92535,-16.44184 -30.92535,-36.72387c0,-20.28201 13.84578,-36.72385 30.92535,-36.72385c17.0796,0 30.92534,16.44184 30.92534,36.72385z" fill="url(#color-92)"/><path d="M547.23109,349.40786c0,20.28204 -13.84575,36.72384 -30.92535,36.72384c-17.0796,0 -30.92537,-16.44183 -30.92537,-36.72384c0,-20.28204 13.84577,-36.72384 30.92537,-36.72384c17.0796,0 30.92535,16.44183 30.92535,36.72384z" fill="url(#color-93)"/><path d="M656.74551,87.81805c0,20.28204 -13.84575,36.72387 -30.92535,36.72387c-17.0796,0 -30.92535,-16.44183 -30.92535,-36.72387c0,-20.28204 13.84575,-36.72385 30.92535,-36.72385c17.0796,0 30.92535,16.44184 30.92535,36.72385z" fill="url(#color-94)"/><path d="M476.33471,278.5115c0,20.28201 -13.84574,36.72388 -30.92534,36.72388c-17.0796,0 -30.92535,-16.44184 -30.92535,-36.72388c0,-20.28201 13.84578,-36.72384 30.92537,-36.72384c17.0796,0 30.92534,16.44183 30.92534,36.72384z" fill="url(#color-95)"/><path d="M446.68502,322.30953c0,20.28204 -13.84575,36.72385 -30.92535,36.72385c-17.0796,0 -30.92537,-16.44184 -30.92537,-36.72385c0,-20.28204 13.84578,-36.72384 30.92537,-36.72384c17.0796,0 30.92535,16.44183 30.92535,36.72384z" fill="url(#color-96)"/><path d="M440.22938,377.70458c0,20.28204 -13.84575,36.72384 -30.92535,36.72384c-17.0796,0 -30.92534,-16.44183 -30.92534,-36.72384c0,-20.28204 13.84575,-36.72384 30.92534,-36.72384c17.0796,0 30.92535,16.44183 30.92535,36.72384z" fill="url(#color-97)"/><path d="M437.63937,409.90558c0,20.28201 -13.84575,36.72384 -30.92535,36.72384c-17.0796,0 -30.92534,-16.44183 -30.92534,-36.72384c0,-20.28204 13.84575,-36.72388 30.92534,-36.72388c17.0796,0 30.92535,16.44184 30.92535,36.72388z" fill="url(#color-98)"/><path d="M493.03441,233.36048c0,20.28204 -13.84574,36.72384 -30.92534,36.72384c-17.0796,0 -30.92535,-16.44183 -30.92535,-36.72384c0,-20.28204 13.84578,-36.72385 30.92537,-36.72385c17.0796,0 30.92534,16.44183 30.92534,36.72385z" fill="url(#color-99)"/><path d="M517.5041,180.51678c0,20.28201 -13.84575,36.72387 -30.92535,36.72387c-17.0796,0 -30.92537,-16.44183 -30.92537,-36.72387c0,-20.28201 13.84577,-36.72387 30.92537,-36.72387c17.0796,0 30.92535,16.44184 30.92535,36.72387z" fill="url(#color-100)"/><path d="M588.36181,116.07607c0,20.28201 -13.84575,36.72385 -30.92535,36.72385c-17.0796,0 -30.92537,-16.44183 -30.92537,-36.72385c0,-20.28201 13.84577,-36.72387 30.92537,-36.72387c17.0796,0 30.92535,16.44183 30.92535,36.72387z" fill="url(#color-101)"/><path d="M616.69717,98.0234c0,20.28201 -13.84574,36.72384 -30.92534,36.72384c-17.0796,0 -30.92538,-16.44183 -30.92538,-36.72384c0,-20.28201 13.84578,-36.72387 30.92538,-36.72387c17.0796,0 30.92534,16.44183 30.92534,36.72387z" fill="url(#color-102)"/><path d="M606.37582,209.47065c0,42.69901 -34.61438,77.31338 -77.31336,77.31338c-42.69898,0 -77.3134,-34.61437 -77.3134,-77.31338c0,-42.69901 34.6144,-77.31338 77.3134,-77.31338c42.69898,0 77.31336,34.61437 77.31336,77.31338z" fill="url(#color-103)"/><path d="M572.86047,276.46271c0,42.69901 -34.61438,77.31339 -77.31336,77.31339c-42.69901,0 -77.31338,-34.61438 -77.31338,-77.31339c0,-42.69901 34.6144,-77.31338 77.3134,-77.31338c42.69901,0 77.31339,34.6144 77.31339,77.31338z" fill="url(#color-104)"/><path d="M539.34511,351.18609c0,42.69901 -34.61437,77.31338 -77.31335,77.31338c-42.69901,0 -77.3134,-34.6144 -77.3134,-77.31338c0,-42.69901 34.6144,-77.31338 77.3134,-77.31338c42.69901,0 77.31338,34.6144 77.31338,77.31338z" fill="url(#color-105)"/><path d="M521.29244,464.56616c0,42.69901 -34.61437,77.31338 -77.31338,77.31338c-42.69898,0 -77.31338,-34.6144 -77.31338,-77.31338c0,-42.69901 34.6144,-77.31338 77.31338,-77.31338c42.69901,0 77.31338,34.61437 77.31338,77.31338z" fill="url(#color-106)"/><path d="M514.83677,508.36418c0,42.69901 -34.61437,77.31339 -77.31335,77.31339c-42.69898,0 -77.31338,-34.61438 -77.31338,-77.31339c0,-42.69901 34.6144,-77.31338 77.31338,-77.31338c42.69901,0 77.31339,34.61437 77.31339,77.31338z" fill="url(#color-107)"/><path d="M690.06754,130.8043c0,42.69901 -34.61437,77.31338 -77.31335,77.31338c-42.69898,0 -77.31339,-34.6144 -77.31339,-77.31338c0,-42.69901 34.6144,-77.31338 77.31341,-77.31338c42.69898,0 77.31336,34.61438 77.31336,77.31339z" fill="url(#color-108)"/></g><g><path d="M649.86534,221.63614c0,20.28204 -13.84575,36.72385 -30.92534,36.72385c-17.0796,0 -30.92535,-16.44183 -30.92535,-36.72385c0,-20.28204 13.84575,-36.72384 30.92535,-36.72384c17.0796,0 30.92534,16.44183 30.92534,36.72384z" fill="url(#color-109)"/><path d="M504.24559,536.03101c0,20.28201 -13.84575,36.72387 -30.92534,36.72387c-17.0796,0 -30.92535,-16.44184 -30.92535,-36.72387c0,-20.28201 13.84578,-36.72385 30.92535,-36.72385c17.0796,0 30.92534,16.44184 30.92534,36.72385z" fill="url(#color-110)"/><path d="M640.81968,417.47092c0,20.28204 -13.84575,36.72384 -30.92535,36.72384c-17.0796,0 -30.92537,-16.44183 -30.92537,-36.72384c0,-20.28204 13.84577,-36.72384 30.92537,-36.72384c17.0796,0 30.92535,16.44183 30.92535,36.72384z" fill="url(#color-111)"/><path d="M750.3341,155.88111c0,20.28204 -13.84575,36.72387 -30.92535,36.72387c-17.0796,0 -30.92535,-16.44183 -30.92535,-36.72387c0,-20.28204 13.84575,-36.72385 30.92535,-36.72385c17.0796,0 30.92535,16.44184 30.92535,36.72385z" fill="url(#color-112)"/><path d="M569.9233,346.57456c0,20.28201 -13.84574,36.72388 -30.92534,36.72388c-17.0796,0 -30.92535,-16.44184 -30.92535,-36.72388c0,-20.28201 13.84578,-36.72384 30.92537,-36.72384c17.0796,0 30.92534,16.44183 30.92534,36.72384z" fill="url(#color-113)"/><path d="M540.27361,390.37259c0,20.28204 -13.84575,36.72385 -30.92535,36.72385c-17.0796,0 -30.92537,-16.44184 -30.92537,-36.72385c0,-20.28204 13.84578,-36.72384 30.92537,-36.72384c17.0796,0 30.92535,16.44183 30.92535,36.72384z" fill="url(#color-114)"/><path d="M533.81797,445.76764c0,20.28204 -13.84575,36.72384 -30.92535,36.72384c-17.0796,0 -30.92534,-16.44183 -30.92534,-36.72384c0,-20.28204 13.84575,-36.72384 30.92534,-36.72384c17.0796,0 30.92535,16.44183 30.92535,36.72384z" fill="url(#color-115)"/><path d="M531.22796,477.96864c0,20.28201 -13.84575,36.72384 -30.92535,36.72384c-17.0796,0 -30.92534,-16.44183 -30.92534,-36.72384c0,-20.28204 13.84575,-36.72388 30.92534,-36.72388c17.0796,0 30.92535,16.44184 30.92535,36.72388z" fill="url(#color-116)"/><path d="M586.623,301.42354c0,20.28204 -13.84574,36.72384 -30.92534,36.72384c-17.0796,0 -30.92535,-16.44183 -30.92535,-36.72384c0,-20.28204 13.84578,-36.72385 30.92537,-36.72385c17.0796,0 30.92534,16.44183 30.92534,36.72385z" fill="url(#color-117)"/><path d="M611.09268,248.57984c0,20.28201 -13.84575,36.72387 -30.92535,36.72387c-17.0796,0 -30.92537,-16.44183 -30.92537,-36.72387c0,-20.28201 13.84577,-36.72387 30.92537,-36.72387c17.0796,0 30.92535,16.44184 30.92535,36.72387z" fill="url(#color-118)"/><path d="M681.95039,184.13913c0,20.28201 -13.84575,36.72385 -30.92535,36.72385c-17.0796,0 -30.92537,-16.44183 -30.92537,-36.72385c0,-20.28201 13.84577,-36.72387 30.92537,-36.72387c17.0796,0 30.92535,16.44183 30.92535,36.72387z" fill="url(#color-119)"/><path d="M710.28575,166.08646c0,20.28201 -13.84574,36.72384 -30.92534,36.72384c-17.0796,0 -30.92538,-16.44183 -30.92538,-36.72384c0,-20.28201 13.84578,-36.72387 30.92538,-36.72387c17.0796,0 30.92534,16.44183 30.92534,36.72387z" fill="url(#color-120)"/><path d="M699.96441,277.53371c0,42.69901 -34.61438,77.31338 -77.31336,77.31338c-42.69898,0 -77.3134,-34.61437 -77.3134,-77.31338c0,-42.69901 34.6144,-77.31338 77.3134,-77.31338c42.69898,0 77.31336,34.61437 77.31336,77.31338z" fill="url(#color-121)"/><path d="M666.44905,344.52577c0,42.69901 -34.61438,77.31339 -77.31336,77.31339c-42.69901,0 -77.31338,-34.61438 -77.31338,-77.31339c0,-42.69901 34.6144,-77.31338 77.3134,-77.31338c42.69901,0 77.31339,34.6144 77.31339,77.31338z" fill="url(#color-122)"/><path d="M632.9337,419.24915c0,42.69901 -34.61437,77.31338 -77.31335,77.31338c-42.69901,0 -77.3134,-34.6144 -77.3134,-77.31338c0,-42.69901 34.6144,-77.31338 77.3134,-77.31338c42.69901,0 77.31338,34.6144 77.31338,77.31338z" fill="url(#color-123)"/><path d="M614.88103,532.62922c0,42.69901 -34.61437,77.31338 -77.31338,77.31338c-42.69898,0 -77.31338,-34.6144 -77.31338,-77.31338c0,-42.69901 34.6144,-77.31338 77.31338,-77.31338c42.69901,0 77.31338,34.61437 77.31338,77.31338z" fill="url(#color-124)"/><path d="M608.42535,576.42724c0,42.69901 -34.61437,77.31339 -77.31335,77.31339c-42.69898,0 -77.31338,-34.61438 -77.31338,-77.31339c0,-42.69901 34.6144,-77.31338 77.31338,-77.31338c42.69901,0 77.31339,34.61437 77.31339,77.31338z" fill="url(#color-125)"/><path d="M783.65613,198.86736c0,42.69901 -34.61437,77.31338 -77.31335,77.31338c-42.69898,0 -77.31339,-34.6144 -77.31339,-77.31338c0,-42.69901 34.6144,-77.31338 77.31341,-77.31338c42.69898,0 77.31336,34.61438 77.31336,77.31339z" fill="url(#color-126)"/></g></g></g></svg>