<svg version="1.1" xmlns="http://www.w3.org/2000/svg" xmlns:xlink="http://www.w3.org/1999/xlink" width="68.64606" height="64.30455" viewBox="0,0,68.64606,64.30455"><defs><linearGradient x1="244.47712" y1="183.88741" x2="238.44077" y2="180.69231" gradientUnits="userSpaceOnUse" id="color-1"><stop offset="0" stop-color="#000000" stop-opacity="0"/><stop offset="1" stop-color="#000000"/></linearGradient><linearGradient x1="213.03721" y1="169.51722" x2="219.35091" y2="172.11683" gradientUnits="userSpaceOnUse" id="color-2"><stop offset="0" stop-color="#000000" stop-opacity="0"/><stop offset="1" stop-color="#000000"/></linearGradient></defs><g transform="translate(-197.748,-147.71436)"><g data-paper-data="{&quot;isPaintingLayer&quot;:true}" fill-rule="nonzero" stroke-linecap="butt" stroke-linejoin="miter" stroke-miterlimit="10" stroke-dasharray="" stroke-dashoffset="0" style="mix-blend-mode: normal"><path d="M201.39286,209.04754v-61.33318h62.14286v61.33318z" fill="none" stroke="#ff0000" stroke-width="0"/><g stroke-width="0"><path d="M246.69586,164.21144c5.84733,1.98303 7.91948,11.45782 4.62827,21.16256c-3.2912,9.70474 -10.69945,15.96441 -16.54678,13.98138c-5.84733,-1.98303 -7.91949,-11.45783 -4.62827,-21.16256c3.2912,-9.70474 10.69945,-15.96441 16.54679,-13.98138z" data-paper-data="{&quot;index&quot;:null}" fill="#4cd4e0" stroke="#000000"/><path d="M245.79236,166.87557c4.9608,1.68237 6.71879,9.72067 3.92658,17.95405c-2.79221,8.23337 -9.07727,13.54401 -14.03808,11.86162c-4.9608,-1.68237 -6.71879,-9.72067 -3.92658,-17.95405c2.79221,-8.23337 9.07727,-13.54401 14.03808,-11.86162z" data-paper-data="{&quot;index&quot;:null}" fill="#000000" stroke="#000000"/><g><path d="M249.93769,172.89934c0.56855,3.21507 -1.57688,6.28229 -4.79195,6.85083c-1.54943,0.27399 -3.06452,-0.08234 -4.28214,-0.88495c0.28535,-0.69326 0.55982,-1.39183 0.83667,-2.08999c0.85104,0.69287 1.98715,1.02568 3.15261,0.81958c2.12762,-0.37625 3.54738,-2.40602 3.17115,-4.53364c-0.28105,-1.58926 -1.48469,-2.78357 -2.96257,-3.12941c0.32269,-0.5152 0.65768,-1.0472 0.98372,-1.59233c1.96092,0.6787 3.50553,2.37151 3.89252,4.55987z" fill="#000000" stroke="#000000"/><path d="" fill="#000000" stroke="#000000"/><path d="M239.59678,187.81197c0.56855,3.21507 -1.57688,6.2823 -4.79195,6.85084c-0.84771,0.14991 -1.68515,0.11113 -2.46921,-0.08618c0.39899,-0.66785 0.79989,-1.34285 1.19912,-2.01969c0.31952,0.02401 0.6472,0.00886 0.97723,-0.0495c2.12762,-0.37625 3.54739,-2.40603 3.17116,-4.53365c-0.10081,-0.57009 -0.32035,-1.08936 -0.62867,-1.53689c0.32827,-0.58942 0.64581,-1.16658 0.94981,-1.7273c0.80393,0.82133 1.37729,1.88519 1.59252,3.10236z" fill="#000000" stroke="#000000"/><path d="M240.63526,187.89319c-0.56855,-3.21507 1.57689,-6.28229 4.79195,-6.85084c3.21507,-0.56855 6.2823,1.57688 6.85084,4.79195c0.56855,3.21507 -1.57688,6.2823 -4.79195,6.85084c-3.21507,0.56855 -6.2823,-1.57688 -6.85084,-4.79195zM247.19325,190.52979c2.12762,-0.37625 3.54739,-2.40603 3.17116,-4.53365c-0.37625,-2.12762 -2.40602,-3.54738 -4.53365,-3.17114c-2.12762,0.37625 -3.54738,2.40602 -3.17115,4.53364c0.37625,2.12762 2.40602,3.54738 4.53364,3.17115z" fill="#000000" stroke="#000000"/><path d="" fill="#82cc81" stroke="#000000"/><path d="M249.75007,172.13793c0.56855,3.21507 -1.57688,6.28229 -4.79195,6.85083c-1.38416,0.24477 -2.74091,-0.0135 -3.88268,-0.64357c0.27597,-0.68374 0.54463,-1.37124 0.81858,-2.05703c0.79482,0.50261 1.77224,0.72191 2.77124,0.54525c2.12762,-0.37625 3.54738,-2.40602 3.17115,-4.53364c-0.24492,-1.38495 -1.19047,-2.46998 -2.40758,-2.95493c0.31648,-0.50733 0.63695,-1.02893 0.94251,-1.56156c1.71323,0.77911 3.02623,2.36129 3.37872,4.35464z" fill="#82cc81" stroke="#000000"/><path d="M239.391,186.94785c0.56855,3.21507 -1.57688,6.28229 -4.79195,6.85083c-0.61859,0.1094 -1.2317,0.11831 -1.82261,0.03847c0.42543,-0.71529 0.85152,-1.43646 1.27399,-2.15712c0.08503,-0.00939 0.17032,-0.02159 0.25576,-0.03671c2.12762,-0.37625 3.54738,-2.40602 3.17115,-4.53364c-0.0576,-0.32572 -0.15395,-0.63485 -0.28349,-0.92349c0.35489,-0.63943 0.69654,-1.26354 1.02128,-1.86692c0.58477,0.74129 0.99994,1.63372 1.17587,2.62857z" fill="#82cc81" stroke="#000000"/><path d="M240.34784,186.86692c-0.56855,-3.21507 1.57689,-6.28229 4.79195,-6.85083c3.21507,-0.56855 6.2823,1.57688 6.85084,4.79195c0.56855,3.21507 -1.57688,6.28229 -4.79195,6.85083c-3.21507,0.56855 -6.2823,-1.57688 -6.85084,-4.79195zM246.90582,189.50353c2.12762,-0.37625 3.54738,-2.40602 3.17115,-4.53364c-0.37625,-2.12762 -2.40603,-3.54739 -4.53365,-3.17116c-2.12762,0.37625 -3.54738,2.40602 -3.17114,4.53365c0.37625,2.12762 2.40602,3.54738 4.53364,3.17115z" fill="#82cc81" stroke="#000000"/><path d="M241.14907,181.16324c0.22157,1.25293 -0.61451,2.44825 -1.86745,2.66981c-0.27468,0.04858 -0.54659,0.04632 -0.80608,-0.00003c0.46115,-0.86548 0.88403,-1.68348 1.25719,-2.43705c0.24913,-0.50306 0.48293,-1.01309 0.70698,-1.52769c0.35972,0.33022 0.61775,0.77695 0.70934,1.29494z" fill="#000000" stroke="#000000"/><path d="M241.01283,180.39277c0.22157,1.25293 -0.61453,2.44825 -1.86746,2.66981c-0.09372,0.01658 -0.1871,0.02723 -0.27979,0.03223c0.31144,-0.59477 0.60186,-1.16308 0.86717,-1.69882c0.316,-0.63811 0.60735,-1.28743 0.88544,-1.94304c0.19441,0.27128 0.33264,0.58923 0.39464,0.93981z" fill="#82cc81" stroke="#000000"/><path d="M239.15359,184.20505l-0.21952,-1.24131c0.13895,-0.26628 0.27357,-0.52709 0.40349,-0.78187l0.34134,1.93029z" fill="#82cc81" stroke="#000000"/><path d="M242.21832,179.75043l0.10322,0.58369l-2.27201,0.40177c0.1011,-0.21712 0.19985,-0.43532 0.29669,-0.65441z" fill="#82cc81" stroke="none"/><g fill="#82cc81" stroke="none"><path d=""/><path d="" data-paper-data="{&quot;index&quot;:null}"/></g><g data-paper-data="{&quot;index&quot;:null}" fill="#82cc81" stroke="none"><path d="M239.55501,183.35437l-1.05498,2.44989l-0.54442,-0.23444l1.05497,-2.44989z"/><path d="M239.44577,182.98277l1.83119,1.93951l-0.43102,0.40693l-1.83119,-1.93951z" data-paper-data="{&quot;index&quot;:null}"/></g><g data-paper-data="{&quot;index&quot;:null}" fill="#82cc81" stroke="none"><path d="M241.44917,179.93651l2.44989,1.05498l-0.23444,0.54442l-2.44989,-1.05497z"/><path d="M241.07758,180.04577l1.93951,-1.83118l0.40692,0.43101l-1.93951,1.83119z" data-paper-data="{&quot;index&quot;:null}"/></g><g data-paper-data="{&quot;index&quot;:null}" fill="#82cc81" stroke="none"><path d=""/><path d="" data-paper-data="{&quot;index&quot;:null}"/></g><g fill="#82cc81"><path d="" stroke="#000000"/><path d="" stroke="#000000"/><path d="" stroke="none"/><path d="" stroke="none"/><path d="" stroke="none"/><path d="" stroke="none"/></g><g data-paper-data="{&quot;index&quot;:null}" fill="#82cc81"><path d="M243.81595,172.78024l0.73767,0.53699l-2.39204,3.28602l-0.30475,-0.22184c0.2822,-0.70777 0.56944,-1.41399 0.87558,-2.11268z" stroke="#000000"/><path d="M244.17409,174.28358c-0.48819,0.08633 -0.95948,-0.13758 -1.21155,-0.53023c0.2821,-0.61947 0.58196,-1.23177 0.90942,-1.83264c0.60582,-0.04888 1.16068,0.37045 1.26866,0.98107c0.11467,0.64847 -0.31806,1.26712 -0.96652,1.3818z" stroke="#000000"/><path d="M243.53422,173.01288c0.01509,0.08535 -0.12474,0.18958 -0.36176,0.28812c0.06337,-0.13393 0.12771,-0.26746 0.19308,-0.40057c0.09953,0.02505 0.15988,0.06274 0.16868,0.11245z" stroke="none"/><path d="M245.67921,172.42597c0.72258,-0.12777 1.33224,-0.09619 1.36173,0.07056c0.02949,0.16676 -0.53237,0.40552 -1.25494,0.53329c-0.72258,0.12777 -1.33225,0.09619 -1.36174,-0.07057c-0.02949,-0.16676 0.53238,-0.40552 1.25495,-0.53329z" stroke="none"/><path d="M243.91306,172.80749c-0.0893,0.01579 -0.19925,-0.13801 -0.30174,-0.39525c0.11483,-0.22247 0.23303,-0.44355 0.35504,-0.66304c0.01677,-0.03018 0.03371,-0.06044 0.05079,-0.09079c0.08659,0.62592 0.046,1.12255 -0.1041,1.14909z" stroke="none"/><path d="M244.50568,174.39792c0.12777,0.72258 0.09619,1.33225 -0.07057,1.36174c-0.16676,0.02949 -0.40552,-0.53238 -0.5333,-1.25496c-0.12777,-0.72258 -0.09619,-1.33225 0.07057,-1.36174c0.16676,-0.02949 0.40552,0.53238 0.53329,1.25495z" stroke="none"/></g><g data-paper-data="{&quot;index&quot;:null}" fill="#82cc81"><path d="M243.20441,182.76774l3.3739,2.26637l-0.50878,0.75741l-3.3739,-2.26637z" stroke="#000000"/><path d="M247.27217,185.22306c0.11467,0.64847 -0.31806,1.26712 -0.96652,1.3818c-0.64847,0.11467 -1.26712,-0.31806 -1.3818,-0.96652c-0.11467,-0.64847 0.31806,-1.26712 0.96652,-1.3818c0.64847,-0.11467 1.26712,0.31806 1.3818,0.96652z" stroke="#000000"/><path d="M243.10842,186.13235c-0.02949,-0.16676 0.53238,-0.40552 1.25496,-0.5333c0.72258,-0.12777 1.33225,-0.09619 1.36174,0.07057c0.02949,0.16676 -0.53238,0.40552 -1.25496,0.5333c-0.72258,0.12777 -1.33225,0.09619 -1.36174,-0.07057z" stroke="none"/><path d="M246.57955,185.41473c-0.02949,-0.16676 0.53238,-0.40552 1.25495,-0.53329c0.72258,-0.12777 1.33226,-0.09619 1.36174,0.07056c0.02949,0.16676 -0.53238,0.40552 -1.25496,0.5333c-0.72258,0.12777 -1.33224,0.09619 -1.36173,-0.07056z" stroke="none"/><path d="M246.61415,188.34931c-0.16676,0.02949 -0.40552,-0.53238 -0.5333,-1.25496c-0.12777,-0.72258 -0.09619,-1.33225 0.07057,-1.36174c0.16676,-0.02949 0.40552,0.53238 0.5333,1.25496c0.12777,0.72258 0.09619,1.33225 -0.07057,1.36174z" stroke="none"/><path d="M246.09209,185.39715c-0.16676,0.02949 -0.40552,-0.53237 -0.5333,-1.25495c-0.12777,-0.72258 -0.09619,-1.33225 0.07057,-1.36174c0.16676,-0.02949 0.40552,0.53238 0.53329,1.25495c0.12777,0.72258 0.09619,1.33225 -0.07055,1.36173z" stroke="none"/></g><g data-paper-data="{&quot;index&quot;:null}" fill="#82cc81"><path d="" stroke="#000000"/><path d="" stroke="#000000"/><path d="M236.95551,187.40961c0.02082,0.11772 -0.25308,0.27132 -0.67018,0.39644c0.10216,-0.18038 0.20354,-0.35995 0.30409,-0.5386c0.2151,0.01697 0.35247,0.06515 0.36609,0.14217z" stroke="none"/><path d="" stroke="none"/><path d="" stroke="none"/><path d="" stroke="none"/></g></g><path d="M233.7485,195.93906c-0.93789,-0.49644 -1.91943,-2.58397 -1.91943,-2.58397l13.22342,-25.32554c0,0 1.2346,-0.95808 2.16512,-0.28925c0.43424,0.31212 1.99774,2.16373 2.46584,3.68403c0.28821,0.93606 0.66978,2.86266 0.66978,2.86266l-12.33255,21.74229c0,0 -3.21277,0.47052 -4.27215,-0.09022z" data-paper-data="{&quot;index&quot;:null}" fill="url(#color-1)" stroke="#000000"/></g><g stroke-width="0"><path d="M228.98312,176.59394c-4.49621,9.20859 -12.63897,14.47748 -18.18735,11.7684c-5.54839,-2.70907 -6.40135,-12.37024 -1.90515,-21.57883c4.49621,-9.20859 12.63897,-14.47747 18.18735,-11.7684c5.54839,2.70907 6.40135,12.37023 1.90515,21.57882z" fill="#e08b4c" stroke="#000000"/><path d="M227.45998,175.85025c-3.81453,7.81245 -10.72273,12.28251 -15.42992,9.98417c-4.70718,-2.29834 -5.43082,-10.49476 -1.6163,-18.30719c3.81453,-7.81245 10.72273,-12.28251 15.42992,-9.98417c4.70718,2.29834 5.43082,10.49476 1.6163,18.30719z" fill="#000000" stroke="#000000"/><g><path d="M217.54663,164.98314c-0.36975,-3.24395 1.96026,-6.17343 5.2042,-6.54316c0.06054,-0.0069 0.12096,-0.01286 0.18126,-0.01789c-0.27817,0.68358 -0.55682,1.36737 -0.83579,2.05135c-1.63301,0.61955 -2.70316,2.28574 -2.4963,4.10068c0.04852,0.42571 0.16367,0.82765 0.33383,1.19657c-0.32806,0.80402 -0.65593,1.60829 -0.98337,2.41278c-0.75471,-0.87015 -1.26354,-1.96944 -1.40383,-3.20033z" fill="#000000" stroke="#000000"/><path d="M204.86682,166.58591c-0.36974,-3.24395 1.96026,-6.17343 5.2042,-6.54316c3.24395,-0.36974 6.17343,1.96025 6.54317,5.2042c0.36975,3.24395 -1.96025,6.17343 -5.2042,6.54317c-3.24395,0.36974 -6.17343,-1.96025 -6.54318,-5.2042zM211.25025,169.62082c2.14674,-0.24469 3.68863,-2.18332 3.44396,-4.33004c-0.24469,-2.14674 -2.1833,-3.68864 -4.33004,-3.44396c-2.14674,0.24469 -3.68864,2.18331 -3.44397,4.33003c0.24469,2.14674 2.18331,3.68864 4.33004,3.44397z" fill="#000000" stroke="#000000"/><path d="M206.30819,179.23161c-0.36975,-3.24395 1.96026,-6.17343 5.20421,-6.54317c1.89092,-0.21553 3.675,0.48628 4.90753,1.75169c-0.26368,0.65729 -0.52658,1.31475 -0.78853,1.97233c-0.75735,-1.30085 -2.23442,-2.10132 -3.82585,-1.91993c-2.14674,0.24469 -3.68864,2.18331 -3.44396,4.33004c0.24469,2.14674 2.18331,3.68864 4.33004,3.44396c0.23907,-0.02725 0.47064,-0.07551 0.69309,-0.14273c-0.30271,0.7807 -0.60349,1.56156 -0.90208,2.34259c-3.09439,0.16056 -5.81874,-2.11424 -6.17443,-5.23478z" fill="#000000" stroke="#000000"/><path d="" fill="#000000" stroke="#000000"/><path d="M204.70867,165.65893c-0.36974,-3.24395 1.96025,-6.17342 5.2042,-6.54316c3.24395,-0.36975 6.17342,1.96024 6.54316,5.2042c0.36975,3.24395 -1.96025,6.17343 -5.2042,6.54316c-3.24395,0.36974 -6.17343,-1.96025 -6.54316,-5.2042zM211.09207,168.69384c2.14674,-0.24469 3.68864,-2.18331 3.44397,-4.33004c-0.24469,-2.14674 -2.18331,-3.68864 -4.33004,-3.44396c-2.14674,0.24469 -3.68864,2.18331 -3.44396,4.33004c0.24469,2.14674 2.18332,3.68863 4.33004,3.44396z" fill="#82cc81" stroke="#000000"/><path d="M217.4062,164.21166c-0.36974,-3.24395 1.96026,-6.17343 5.2042,-6.54317c0.21478,-0.02448 0.42817,-0.03712 0.63954,-0.03846c-0.03507,0.09303 -0.06985,0.18236 -0.10446,0.26748c-0.2233,0.54919 -0.44694,1.09852 -0.67084,1.64796c-1.91915,0.43624 -3.24311,2.2563 -3.01506,4.25714c0.07029,0.61667 0.28035,1.18342 0.59498,1.67226c-0.30938,0.75811 -0.61864,1.51642 -0.92755,2.27496c-0.92841,-0.9152 -1.56169,-2.14204 -1.72082,-3.53818z" fill="#82cc81" stroke="#000000"/><path d="M206.15593,178.35647c-0.36974,-3.24395 1.96026,-6.17343 5.20421,-6.54317c2.07692,-0.23673 4.02493,0.6332 5.25479,2.14112c-0.28851,0.7181 -0.57613,1.43636 -0.86266,2.1548c-0.62089,-1.63049 -2.2857,-2.69851 -4.09898,-2.49182c-2.14674,0.24469 -3.68864,2.18331 -3.44397,4.33004c0.24469,2.14674 2.18332,3.68863 4.33004,3.44396c0.45586,-0.05196 0.88443,-0.1803 1.27441,-0.37079c-0.32797,0.84073 -0.65382,1.68168 -0.97727,2.52282c-0.04561,0.00626 -0.09141,0.01202 -0.1374,0.01726c-3.24395,0.36974 -6.17343,-1.96025 -6.54318,-5.2042z" fill="#82cc81" stroke="#000000"/><path d="" fill="#82cc81" stroke="#000000"/><path d="M215.43577,171.87375c-0.1441,-1.2642 0.76392,-2.40583 2.02811,-2.54991c0.34212,-0.039 0.67526,-0.00093 0.98208,0.10038c-0.57696,1.42036 -1.15205,2.84145 -1.72374,4.26322c-0.68684,-0.33272 -1.19362,-0.9993 -1.28645,-1.81369z" fill="#000000" stroke="#000000"/><path d="M215.34716,171.09635c-0.1441,-1.2642 0.76392,-2.40583 2.02811,-2.54991c0.47523,-0.05417 0.93313,0.04034 1.32723,0.24655c-0.57601,1.41654 -1.15039,2.83381 -1.72162,4.25175c-0.85891,-0.25518 -1.52586,-1.00197 -1.63373,-1.94839z" fill="#82cc81" stroke="#000000"/><path d="M217.02948,167.19802l0.53005,-0.06041l0.39787,3.49071c-0.13979,0.34496 -0.27946,0.68995 -0.41896,1.035z" fill="#82cc81" stroke="#000000"/><path d="M214.28554,171.38862l-0.06713,-0.58894l3.84729,-0.43853c-0.08454,0.20847 -0.16903,0.41697 -0.25346,0.62548z" fill="#82cc81" stroke="none"/><g fill="#82cc81" stroke="none"><path d="M217.14804,168.14185l-1.70844,-2.04845l0.45522,-0.37965l1.70844,2.04845z"/><path d="M217.07528,167.88203l1.20365,-2.38037l0.52897,0.26748l-1.20365,2.38037z" data-paper-data="{&quot;index&quot;:null}"/></g><g data-paper-data="{&quot;index&quot;:null}" fill="#82cc81" stroke="none"><path d=""/><path d="" data-paper-data="{&quot;index&quot;:null}"/></g><g data-paper-data="{&quot;index&quot;:null}" fill="#82cc81" stroke="none"><path d=""/><path d="" data-paper-data="{&quot;index&quot;:null}"/></g><g data-paper-data="{&quot;index&quot;:null}" fill="#82cc81" stroke="none"><path d="M215.26215,171.15383l-2.04845,1.70844l-0.37965,-0.45522l2.04845,-1.70844z"/><path d="M215.00234,171.22658l-2.38037,-1.20365l0.26748,-0.52897l2.38037,1.20365z" data-paper-data="{&quot;index&quot;:null}"/></g><g fill="#82cc81"><path d="M213.53201,167.79568l-3.22814,-2.46957l0.5544,-0.72469l3.22814,2.46957z" stroke="#000000"/><path d="M209.62294,165.09485c-0.07457,-0.65429 0.39538,-1.24516 1.04967,-1.31974c0.65429,-0.07457 1.24516,0.39538 1.31974,1.04967c0.07457,0.65429 -0.39538,1.24516 -1.04967,1.31974c-0.65429,0.07457 -1.24516,-0.39538 -1.31974,-1.04967z" stroke="#000000"/><path d="M213.83473,164.44334c0.01917,0.16825 -0.5563,0.37201 -1.28538,0.4551c-0.72908,0.0831 -1.33565,0.01408 -1.35482,-0.15418c-0.01917,-0.16825 0.5563,-0.372 1.28538,-0.4551c0.72908,-0.0831 1.33565,-0.01408 1.35482,0.15417z" stroke="none"/><path d="M210.32604,164.94614c0.01917,0.16825 -0.5563,0.37201 -1.28538,0.4551c-0.72908,0.0831 -1.33565,0.01408 -1.35481,-0.15418c-0.01917,-0.16825 0.5563,-0.37201 1.28538,-0.4551c0.72908,-0.0831 1.33565,-0.01408 1.35481,0.15418z" stroke="none"/><path d="M210.47198,162.01497c0.16825,-0.01917 0.37201,0.5563 0.4551,1.28537c0.0831,0.72908 0.01408,1.33565 -0.15418,1.35482c-0.16825,0.01917 -0.372,-0.5563 -0.4551,-1.28538c-0.0831,-0.72908 -0.01408,-1.33565 0.15417,-1.35481z" stroke="none"/><path d="M210.8115,164.99366c0.16825,-0.01917 0.372,0.5563 0.4551,1.28538c0.0831,0.72908 0.01408,1.33565 -0.15418,1.35481c-0.16825,0.01917 -0.372,-0.5563 -0.4551,-1.28538c-0.0831,-0.72908 -0.01408,-1.33565 0.15417,-1.35481z" stroke="none"/></g><g data-paper-data="{&quot;index&quot;:null}" fill="#82cc81"><path d="" stroke="#000000"/><path d="" stroke="#000000"/><path d="M220.25547,163.66463c-0.01342,-0.11769 0.26419,-0.25278 0.68179,-0.35177c-0.07196,0.17621 -0.14392,0.35245 -0.21589,0.52868c-0.27642,-0.025 -0.45562,-0.08668 -0.46589,-0.17691z" stroke="none"/><path d="" stroke="none"/><path d="" stroke="none"/><path d="" stroke="none"/></g><g data-paper-data="{&quot;index&quot;:null}" fill="#82cc81"><path d="" stroke="#000000"/><path d="" stroke="#000000"/><path d="" stroke="none"/><path d="" stroke="none"/><path d="" stroke="none"/><path d="" stroke="none"/></g><g data-paper-data="{&quot;index&quot;:null}" fill="#82cc81"><path d="M215.09791,174.71169l-2.58959,3.13269l-0.70327,-0.58134l2.58959,-3.13269z" stroke="#000000"/><path d="M212.24332,176.32187c0.65429,-0.07457 1.24516,0.39537 1.31973,1.04966c0.07457,0.65429 -0.39538,1.24516 -1.04967,1.31974c-0.65429,0.07457 -1.24516,-0.39538 -1.31974,-1.04967c-0.07457,-0.65429 0.39538,-1.24516 1.04967,-1.31973z" stroke="#000000"/><path d="M214.15866,177.78369c-0.72908,0.0831 -1.33565,0.01408 -1.35482,-0.15418c-0.01917,-0.16825 0.5563,-0.372 1.28538,-0.4551c0.53432,-0.06089 1.00284,-0.0401 1.22257,0.04159c-0.04432,0.11161 -0.08861,0.22324 -0.13289,0.33487c-0.23386,0.09767 -0.60175,0.18512 -1.02024,0.23283z" stroke="none"/><path d="M210.62681,178.08339c-0.72908,0.0831 -1.33565,0.01408 -1.35481,-0.15418c-0.01917,-0.16825 0.5563,-0.372 1.28538,-0.4551c0.72908,-0.0831 1.33565,-0.01408 1.35481,0.15417c0.01917,0.16825 -0.5563,0.37201 -1.28538,0.4551z" stroke="none"/><path d="M212.25889,179.16604c-0.0831,-0.72908 -0.01408,-1.33565 0.15418,-1.35482c0.16825,-0.01917 0.37201,0.5563 0.4551,1.28538c0.0831,0.72908 0.01408,1.33565 -0.15418,1.35481c-0.16825,0.01917 -0.372,-0.5563 -0.4551,-1.28537z" stroke="none"/><path d="M211.91937,176.18735c-0.0831,-0.72908 -0.01408,-1.33565 0.15418,-1.35481c0.16825,-0.01917 0.37201,0.5563 0.4551,1.28537c0.0831,0.72908 0.01408,1.33566 -0.15419,1.35483c-0.16825,0.01917 -0.37201,-0.5563 -0.4551,-1.28538z" stroke="none"/></g></g><path d="M208.0518,181.89702l9.85269,-22.57066c0,0 4.70853,-2.06632 5.54265,-1.84618c1.10628,0.29196 1.18178,1.81791 1.18178,1.81791l-10.55603,25.63746c0,0 -2.2096,0.54466 -3.19059,0.14074c-1.10806,-0.45624 -2.83052,-3.17928 -2.83052,-3.17928z" fill="url(#color-2)" stroke="#000000"/></g><g font-family="Sans Serif" font-weight="normal" font-size="40" text-anchor="start"><text transform="translate(197.94729,209.42814) scale(0.19929,0.19929)" font-size="40" xml:space="preserve" fill="#000000" fill-rule="nonzero" stroke="#000000" stroke-width="2" stroke-linecap="butt" stroke-linejoin="miter" stroke-miterlimit="10" stroke-dasharray="" stroke-dashoffset="0" font-family="Sans Serif" font-weight="normal" text-anchor="start" style="mix-blend-mode: normal"><tspan x="0" dy="0">Teleport drone (X)</tspan></text><text transform="translate(197.94729,209.42814) scale(0.19929,0.19929)" font-size="40" xml:space="preserve" fill="#ffffff" fill-rule="nonzero" stroke="none" stroke-width="1" stroke-linecap="butt" stroke-linejoin="miter" stroke-miterlimit="10" stroke-dasharray="" stroke-dashoffset="0" font-family="Sans Serif" font-weight="normal" text-anchor="start" style="mix-blend-mode: normal"><tspan x="0" dy="0">Teleport drone (X)</tspan></text></g></g></g></svg>