<svg version="1.1" xmlns="http://www.w3.org/2000/svg" xmlns:xlink="http://www.w3.org/1999/xlink" width="28.62097" height="40.67741" viewBox="0,0,28.62097,40.67741"><g transform="translate(-225.15094,-156.14448)"><g data-paper-data="{&quot;isPaintingLayer&quot;:true}" fill-rule="nonzero" stroke-linejoin="miter" stroke-miterlimit="10" stroke-dasharray="" stroke-dashoffset="0" style="mix-blend-mode: normal"><path d="M237.43049,196.8219l-4.27833,-5.83904l0.07283,-15.24594l12.76216,0.09375l2.70602,3.03623v17.95499zM243.7592,185.0736c1.23345,0 2.23336,-0.99991 2.23336,-2.23336c0,-1.23345 -0.99991,-2.23336 -2.23336,-2.23336c-1.23345,0 -2.23336,0.99991 -2.23336,2.23336c0,1.23345 0.99991,2.23336 2.23336,2.23336z" fill="#ffffff" stroke="#000000" stroke-width="0" stroke-linecap="butt"/><path d="M238.65281,178.28589v-7.45257h1.93215v7.45257z" fill="#ffffff" stroke="#000000" stroke-width="0" stroke-linecap="butt"/><path d="M236.58265,169.86724c0,-1.67687 1.35937,-3.03623 3.03623,-3.03623c1.67687,0 3.03623,1.35937 3.03623,3.03623c0,1.67687 -1.35937,3.03623 -3.03623,3.03623c-1.67687,0 -3.03623,-1.35937 -3.03623,-3.03623z" fill="#ffffff" stroke="#000000" stroke-width="0" stroke-linecap="butt"/><path d="M231.33824,169.17719c0,0 -0.42454,-1.82868 1.84794,-4.50306c1.66449,-1.95887 3.8105,-1.4314 3.8105,-1.4314" fill="none" stroke="#ffffff" stroke-width="3" stroke-linecap="round"/><path d="M226.71287,169.47293c0,0 -0.83707,-3.60562 3.6436,-8.87872c3.28189,-3.86232 7.51319,-2.8223 7.51319,-2.8223" fill="none" stroke="#ffffff" stroke-width="3" stroke-linecap="round"/><path d="M242.07167,163.24273c0,0 2.14601,-0.52747 3.8105,1.4314c2.27248,2.67438 1.84794,4.50306 1.84794,4.50306" data-paper-data="{&quot;index&quot;:null}" fill="none" stroke="#ffffff" stroke-width="3" stroke-linecap="round"/><path d="M242.94464,159.06464c0,0 3.51791,-0.86467 6.24648,2.34647c3.72523,4.38406 3.02929,7.38178 3.02929,7.38178" data-paper-data="{&quot;index&quot;:null}" fill="none" stroke="#ffffff" stroke-width="3" stroke-linecap="round"/></g></g></svg>