<svg version="1.1" xmlns="http://www.w3.org/2000/svg" xmlns:xlink="http://www.w3.org/1999/xlink" width="345" height="200" viewBox="0,0,345,200"><defs><linearGradient x1="240.14849" y1="164.11811" x2="239.48481" y2="162.13916" gradientUnits="userSpaceOnUse" id="color-1"><stop offset="0" stop-color="#edafbc"/><stop offset="1" stop-color="#d29ca8"/></linearGradient><linearGradient x1="243.11991" y1="190.2256" x2="242.79765" y2="192.28783" gradientUnits="userSpaceOnUse" id="color-2"><stop offset="0" stop-color="#edafbc"/><stop offset="1" stop-color="#d29ca8"/></linearGradient><linearGradient x1="204.74392" y1="177.46754" x2="235.19531" y2="177.46754" gradientUnits="userSpaceOnUse" id="color-3"><stop offset="0" stop-color="#edafbc"/><stop offset="1" stop-color="#ca96a1"/></linearGradient></defs><g transform="translate(-67.5,-80)"><g data-paper-data="{&quot;isPaintingLayer&quot;:true}" fill-rule="nonzero" stroke-linecap="butt" stroke-linejoin="miter" stroke-miterlimit="10" stroke-dasharray="" stroke-dashoffset="0" style="mix-blend-mode: normal"><g data-paper-data="{&quot;index&quot;:null}" stroke-width="0"><g fill="#ffd726"><path d="M238.19623,153.95705l2.98663,8.90533l-1.94161,0.65117l-2.98663,-8.90533z" stroke="#ff0000"/><path d="M245.4458,149.81105c0.14591,0.43508 -1.31248,2.68829 -3.76754,3.51166c-2.45505,0.82337 -4.56356,1.13813 -4.70948,0.70306c-0.14591,-0.43508 1.79493,-1.24975 4.24999,-2.07311c2.45504,-0.82336 4.0811,-2.57668 4.22702,-2.14161z" stroke="#ff0000"/><path d="M234.77525,155.79023c-2.28575,0.76658 -4.52753,-0.11032 -4.6798,-0.56432c-0.15227,-0.454 1.85535,0.06362 4.1411,-0.70296c2.28574,-0.76658 4.24945,-1.39677 4.40172,-0.94277c0.15226,0.45399 -1.57727,1.44347 -3.86302,2.21005z" stroke="none"/><path d="M235.81818,153.3181c2.12389,0.16668 4.03526,-0.59265 3.80118,-0.08761c-0.23408,0.50505 -2.16627,1.54833 -4.29015,1.38166c-2.12389,-0.16668 -3.63521,-1.48022 -3.40113,-1.98526c0.23408,-0.50505 1.76622,0.52455 3.8901,0.69122z" stroke="none"/></g><path d="M238.47272,162.4786l0.87932,0.33479l0.67286,-0.85178l0.91161,0.32597l0.69269,-0.47566l6.82205,0.13726c0,0 -7.93422,2.04532 -8.65791,2.28803c-0.60623,0.20331 -6.01062,2.12674 -6.01062,2.12674l3.794,-3.19293z" fill="url(#color-1)" stroke="#ff0000"/></g><g stroke-width="0"><g fill="#ffd726"><path d="M240.87678,200.25399l1.45019,-9.28019l2.02334,0.31618l-1.45019,9.28019z" stroke="#ff0000"/><path d="M250.74252,203.44108c-0.07085,0.45339 -1.96802,-1.00227 -4.52642,-1.40206c-2.5584,-0.39979 -4.60842,-0.87728 -4.53757,-1.33068c0.07085,-0.45339 2.20229,-0.49684 4.76068,-0.09705c2.5584,0.39979 4.37416,2.37638 4.30331,2.82977z" stroke="#ff0000"/><path d="M243.39912,200.86753c-0.07393,0.47311 -2.11554,0.18132 -4.49749,-0.1909c-2.38196,-0.37222 -4.27427,0.4749 -4.20034,0.00179c0.07393,-0.47311 2.13681,-1.7137 4.51878,-1.34148c2.38196,0.37222 4.25299,1.05749 4.17905,1.5306z" stroke="none"/><path d="M240.66297,201.59902c-2.06582,0.52065 -3.40349,1.79271 -3.71899,1.33409c-0.3155,-0.45861 0.95402,-2.00709 3.01984,-2.52776c2.06582,-0.52065 4.14566,0.18366 4.46115,0.64228c0.3155,0.45861 -1.69618,0.03072 -3.762,0.55138z" stroke="none"/></g><path d="M240.7435,191.59075l-4.27592,-2.51112c0,0 5.65049,0.98942 6.28225,1.08814c0.75416,0.11785 8.91907,0.803 8.91907,0.803l-6.70232,1.27989l-0.76268,-0.3527l-0.844,0.4743l-0.80623,-0.72681l-0.81069,0.47757z" fill="url(#color-2)" stroke="#ff0000"/></g><g stroke-width="0"><g><path d="M284.46326,173.14116c-0.10896,1.04738 2.33433,7.32778 1.34045,8.87098c-2.15355,3.34385 -8.73023,2.15116 -9.81585,2.06547c-1.58663,-0.12524 -2.59311,-2.9156 -2.24805,-6.23245c0.34506,-3.31685 1.91101,-5.90417 3.49764,-5.77893c1.58663,0.12524 7.57087,-2.24192 7.22581,1.07493z" fill="#906bc7" stroke="#ffffff"/><path d="M279.11892,177.46754c0,9.57869 -13.43146,17.34375 -30,17.34375c-16.56854,0 -30,-7.76506 -30,-17.34375c0,-9.57869 13.43146,-17.34375 30,-17.34375c16.56854,0 30,7.76506 30,17.34375z" fill="#ca96a1" stroke="none"/><path d="M249.03254,167.37517c-11.88667,0.25754 -21.83705,-1.21776 -21.90234,-4.23086c-0.02917,-1.34599 3.88765,-1.68452 7.1122,-2.8725c3.99384,-1.4714 0.18472,-4.24959 6.76146,-4.39209c11.88667,-0.25754 32.21032,5.51325 32.21032,5.51325c0,0 -12.29497,5.72466 -24.18165,5.9822z" data-paper-data="{&quot;index&quot;:null}" fill="#906bc7" stroke="#000000"/></g><path d="M274.04751,192.16011c0,0 -20.32364,5.7708 -32.21031,5.51326c-6.57674,-0.14249 -2.76762,-2.92069 -6.76146,-4.39209c-3.22456,-1.18798 -7.14137,-1.52651 -7.11221,-2.8725c0.06528,-3.0131 10.01567,-4.4884 21.90234,-4.23086c11.88667,0.25754 24.18164,5.98219 24.18164,5.98219z" fill="#906bc7" stroke="#000000"/></g><g><g stroke="#000000" stroke-width="0"><path d="M210.05974,180.84581c0.0712,2.31232 -2.91715,4.28062 -6.67466,4.39633c-3.75752,0.11571 -7.76343,-3.7422 -7.76343,-3.7422c0,0 3.74806,-4.51575 7.50558,-4.63145c3.75752,-0.11571 6.86131,1.665 6.93251,3.97732z" fill="#ffd726"/><path d="M210.05329,180.63647c0.06052,1.96547 -2.47957,3.63853 -5.67346,3.73688c-3.19389,0.09835 -6.59892,-3.18086 -6.59892,-3.18086c0,0 3.18585,-3.83839 6.37974,-3.93674c3.19389,-0.09835 5.83211,1.41525 5.89264,3.38072z" fill="#debb21"/><path d="M211.26928,177.441c0.04593,1.49149 0.72478,4.39712 -2.77853,5.86682c-1.51968,0.92665 -3.18515,-0.76397 -5.42486,-0.69501c-4.39705,0.1354 -9.10791,-5.03228 -9.10791,-5.03228c0,0 4.37187,-5.8409 8.76892,-5.9763c1.70614,-0.05254 4.98743,-0.99115 6.37853,-0.29289c2.19402,1.1013 2.10656,4.26928 2.16385,6.12966z" fill="#ffd726"/></g><path d="M235.19531,177.18976c0,2.98156 -2.9111,3.77178 -4.98283,5.9052c-2.66522,2.74459 -6.42186,6.71633 -10.93731,6.71633c-8.02539,0 -14.53125,-5.52649 -14.53125,-12.34375c0,-6.81726 6.50586,-12.34375 14.53125,-12.34375c2.39409,0 5.76407,2.15848 7.75535,3.02965c4.68378,2.04915 8.16479,4.25275 8.16479,9.03632z" fill="url(#color-3)" stroke="#000000" stroke-width="0"/><path d="M215.92194,168.30675c0.0714,1.80654 -1.79402,3.41619 -4.16656,3.59524c-2.37255,0.17904 -4.35376,-1.1403 -4.42514,-2.94684c-0.07142,-1.80654 1.79403,-3.41615 4.16657,-3.5952c2.37252,-0.17904 4.35373,1.1403 4.42515,2.94684z" data-paper-data="{&quot;index&quot;:null}" fill="#000000" stroke="#ffffff" stroke-width="0.25"/><path d="M215.24014,186.68242c-0.07142,1.80654 -2.05263,3.12588 -4.42515,2.94684c-2.37254,-0.17905 -4.23799,-1.78867 -4.16657,-3.5952c0.07138,-1.80654 2.0526,-3.12588 4.42514,-2.94684c2.37254,0.17905 4.23796,1.7887 4.16656,3.59524z" data-paper-data="{&quot;index&quot;:null}" fill="#000000" stroke="#ffffff" stroke-width="0.25"/><path d="M209.69973,175.92673v-0.60976h2.29227v0.60976z" fill="#000000" stroke="#ffffff" stroke-width="0"/><path d="M209.75437,177.16498l0.23088,-0.56436l2.1216,0.86794l-0.23088,0.56436z" fill="#000000" stroke="#ffffff" stroke-width="0"/><path d="M211.70648,173.12604l0.23088,0.56435l-2.1216,0.86794l-0.23087,-0.56436z" data-paper-data="{&quot;index&quot;:null}" fill="#000000" stroke="#ffffff" stroke-width="0"/></g><path d="M67.5,280v-200h345v200z" fill="none" stroke="#ffffff" stroke-width="0"/></g></g></svg>