<svg version="1.1" xmlns="http://www.w3.org/2000/svg" xmlns:xlink="http://www.w3.org/1999/xlink" width="657.65766" height="370.98637" viewBox="0,0,657.65766,370.98637"><g transform="translate(8.82883,5.49317)"><g stroke-miterlimit="10"><path d="M-8.82883,365.49321v-370.98637h657.65766v370.98637z" fill="#000000" stroke="none" stroke-width="0"/><path d="M625.21778,343.96541c-5.11832,10.73106 -49.55355,6.7037 -58.29746,1.16402c-9.5794,-6.06899 -11.67821,-46.7595 -2.32544,-57.12673c10.90997,-12.09333 47.46741,-8.29436 58.5721,-1.18019c10.31659,6.60927 9.89193,40.70317 2.05081,57.1429z" fill="#38ff00" stroke="#000000" stroke-width="2.5"/><path d="M571.43332,322.18899c-0.74576,-12.66505 8.91674,-23.53665 21.58179,-24.28241c12.66505,-0.74576 23.53665,8.91674 24.28241,21.58179c0.74576,12.66505 -8.91674,23.53665 -21.58179,24.28241c-12.66505,0.74576 -23.53665,-8.91674 -24.28241,-21.58179z" fill="#26b100" stroke="#000000" stroke-width="2.5"/><g stroke="#000000" stroke-width="2.5"><path d="M609.18254,291.0261c1.70707,-3.13609 5.63322,-4.29453 8.7693,-2.58746c3.13609,1.70707 4.29453,5.63322 2.58746,8.7693c-1.70707,3.13609 -5.63322,4.29453 -8.7693,2.58746c-3.13609,-1.70707 -4.29453,-5.63322 -2.58746,-8.7693z" fill="#ffffff"/><path d="M608.92097,293.23294c0.8717,-1.60141 2.87654,-2.19296 4.47794,-1.32126c1.60141,0.8717 2.19296,2.87654 1.32126,4.47794c-0.8717,1.60141 -2.87654,2.19296 -4.47794,1.32126c-1.60141,-0.8717 -2.19296,-2.87654 -1.32126,-4.47794z" fill="#000000"/></g><g stroke="#000000" stroke-width="2.5"><path d="M573.81891,289.52579c1.70707,-3.13609 5.63322,-4.29453 8.7693,-2.58746c3.13609,1.70707 4.29453,5.63322 2.58746,8.7693c-1.70707,3.13609 -5.63322,4.29453 -8.7693,2.58746c-3.13609,-1.70707 -4.29453,-5.63322 -2.58746,-8.7693z" fill="#ffffff"/><path d="M573.55736,291.73263c0.8717,-1.60141 2.87654,-2.19296 4.47794,-1.32126c1.60141,0.8717 2.19296,2.87654 1.32126,4.47794c-0.8717,1.60141 -2.87654,2.19296 -4.47794,1.32126c-1.60141,-0.8717 -2.19296,-2.87654 -1.32126,-4.47794z" fill="#000000"/></g><path d="M594.52146,319.29463l7.27191,-16.9374l3.53915,1.51951l-7.2719,16.93739z" fill="#ffffff" stroke="#000000" stroke-width="1.5"/><path d="M581.2439,311.30947l2.57211,-2.71416l12.75218,13.30933l-2.6853,2.34192z" fill="#ffffff" stroke="#000000" stroke-width="1.5"/><path d="M589.57547,321.39633c-0.17416,-2.95771 2.08235,-5.49658 5.04006,-5.67074c2.95771,-0.17416 5.49658,2.08235 5.67074,5.04006c0.17416,2.95771 -2.08235,5.49658 -5.04006,5.67074c-2.95771,0.17416 -5.49658,-2.08235 -5.67074,-5.04006z" fill="#ffffff" stroke="#000000" stroke-width="1.5"/></g></g></svg>