<svg version="1.1" xmlns="http://www.w3.org/2000/svg" xmlns:xlink="http://www.w3.org/1999/xlink" width="70.16667" height="70.16667" viewBox="0,0,70.16667,70.16667"><g transform="translate(-204.91672,-144.91669)"><g data-paper-data="{&quot;isPaintingLayer&quot;:true}" fill-rule="nonzero" stroke-width="0" stroke-linecap="butt" stroke-linejoin="miter" stroke-miterlimit="10" stroke-dasharray="" stroke-dashoffset="0" style="mix-blend-mode: normal"><path d="M204.91673,215.08337v-70.16667h70.16667v70.16667z" fill="none" stroke="none"/><path d="M248.76974,182.69964c0.51413,2.04934 -2.58342,4.59232 -6.91858,5.6799c-4.33515,1.08757 -9.13594,-0.13524 -9.13594,-0.13524c0,0 4.47207,-7.94843 8.80723,-9.036c4.33515,-1.08757 6.73317,1.44201 7.24729,3.49136z" fill="#debb21" stroke="#ff0000"/><g><path d="M233.18426,183.62504c0.39407,-0.69446 2.16737,-3.81945 2.82261,-4.97415c0.21021,-0.37044 0.44599,-0.50833 0.8434,-0.66157c1.3337,-0.51427 4.49115,-1.73177 5.26415,-2.02984c0.39031,-0.1505 0.75738,-0.02994 0.90788,0.36036c0.34659,0.89884 2.01124,5.21592 2.66711,6.91685c0.16194,0.41998 0.017,0.78709 -0.40298,0.94903c-1.20924,0.46628 -8.0482,3.10336 -10.16102,3.91806c-0.3837,0.14796 -0.71666,-0.00624 -0.86462,-0.38995c-0.19059,-0.49427 -0.79225,-2.05462 -1.13293,-2.93813c-0.14399,-0.37342 0.05641,-1.15067 0.05641,-1.15067zM241.18755,178.57418c0.18929,0.49091 0.7407,0.73542 1.23161,0.54612c0.49091,-0.18929 0.73542,-0.7407 0.54612,-1.23161c-0.18929,-0.49091 -0.7407,-0.73542 -1.23161,-0.54612c-0.49091,0.18929 -0.73542,0.7407 -0.54612,1.23161zM238.73911,179.51829c0.18929,0.49091 0.7407,0.73542 1.23161,0.54612c0.49091,-0.18929 0.73542,-0.7407 0.54612,-1.23161c-0.18929,-0.49091 -0.7407,-0.73542 -1.23161,-0.54612c-0.49091,0.18929 -0.73542,0.7407 -0.54612,1.23161z" fill="#d9dc09" stroke="none"/><path d="M233.91878,183.3418c0.39407,-0.69446 2.16737,-3.81945 2.82261,-4.97415c0.21021,-0.37044 0.44599,-0.50833 0.8434,-0.66157c1.3337,-0.51427 4.49115,-1.73177 5.26415,-2.02984c0.39031,-0.1505 0.75738,-0.02994 0.90788,0.36036c0.34659,0.89884 2.01124,5.21592 2.66711,6.91685c0.16194,0.41998 0.017,0.78709 -0.40298,0.94903c-1.20924,0.46628 -8.0482,3.10336 -10.16102,3.91806c-0.3837,0.14796 -0.71667,-0.00624 -0.86462,-0.38994c-0.19059,-0.49427 -0.79225,-2.05462 -1.13293,-2.93813c-0.14399,-0.37342 0.05641,-1.15067 0.05641,-1.15067zM241.37118,178.50337c0.18929,0.49091 0.7407,0.73542 1.23161,0.54612c0.49091,-0.18929 0.73542,-0.7407 0.54612,-1.23161c-0.18929,-0.49091 -0.7407,-0.73542 -1.23161,-0.54612c-0.49091,0.18929 -0.73542,0.7407 -0.54612,1.23161zM238.98395,179.42388c0.18929,0.49091 0.7407,0.73542 1.23161,0.54612c0.49091,-0.18929 0.73542,-0.7407 0.54612,-1.23161c-0.18929,-0.49091 -0.7407,-0.73542 -1.23161,-0.54612c-0.49091,0.18929 -0.73542,0.7407 -0.54612,1.23161z" fill="#fbff0a" stroke="none"/><path d="M234.15531,185.22327l11.44646,-4.41372l0.61367,1.59149l-11.44646,4.41372z" fill="#d2d509" stroke="#000000"/><path d="M233.38854,185.49867l0.74602,-0.28766l0.63011,1.63412l-0.74602,0.28766z" fill="#b8bb07" stroke="#000000"/></g><path d="M242.28646,184.31585c1.58887,-0.95609 1.19834,-4.19425 2.33335,-5.05798c1.7472,-1.32959 4.71195,0.03661 5.4084,1.19401c1.1489,1.90929 -1.1905,5.42525 -5.22521,7.85311c-4.0347,2.42787 -12.34136,0.04212 -12.34136,0.04212c0,0 5.79011,-1.60339 9.82481,-4.03126z" fill="#ffd726" stroke="#33943a"/><path d="M229.26322,170.36995c0,0 -1.08209,-1.47404 0.39144,-1.90104c5.33194,-1.54512 9.57996,-4.13246 18.11001,-0.95225c5.59405,2.08561 6.90452,10.48629 3.46265,13.31735c-3.44186,2.83106 -4.09463,3.17085 -4.09463,3.17085c0,0 -2.66959,-4.69785 -6.4622,-7.63672c-4.41592,-3.42186 -10.12761,-5.20649 -11.40725,-5.99819z" fill="#ffd726" stroke="#33943a"/></g></g></svg>