<svg version="1.1" xmlns="http://www.w3.org/2000/svg" xmlns:xlink="http://www.w3.org/1999/xlink" width="70.16667" height="70.16667" viewBox="0,0,70.16667,70.16667"><g transform="translate(-204.91671,-144.91669)"><g data-paper-data="{&quot;isPaintingLayer&quot;:true}" fill-rule="nonzero" stroke-width="0" stroke-linecap="butt" stroke-linejoin="miter" stroke-miterlimit="10" stroke-dasharray="" stroke-dashoffset="0" style="mix-blend-mode: normal"><path d="M204.91672,215.08337v-70.16667h70.16667v70.16667z" fill="none" stroke="none"/><g><path d="M235.07557,188.63183c-0.78595,-0.95885 -4.32264,-5.27362 -5.62946,-6.86794c-0.41924,-0.51147 -0.4873,-0.9301 -0.4873,-1.59144c0,-2.21948 0,-7.47393 0,-8.76032c0,-0.64953 0.37972,-1.11397 1.02924,-1.11397c1.49581,0 8.68006,0 11.51065,0c0.69891,0 1.14979,0.41506 1.14979,1.11397c0,2.01235 0,13.39339 0,16.90944c0,0.63854 -0.40939,1.03477 -1.04793,1.03477c-0.82253,0 -3.41919,0 -4.88948,0c-0.62143,0 -1.63551,-0.72452 -1.63551,-0.72452zM232.22907,174.21557c0.81694,0 1.47921,-0.66226 1.47921,-1.47921c0,-0.81694 -0.66226,-1.47921 -1.47921,-1.47921c-0.81694,0 -1.47921,0.66226 -1.47921,1.47921c0,0.81694 0.66226,1.47921 1.47921,1.47921zM232.22907,178.29014c0.81694,0 1.47921,-0.66226 1.47921,-1.47921c0,-0.81694 -0.66226,-1.47921 -1.47921,-1.47921c-0.81694,0 -1.47921,0.66226 -1.47921,1.47921c0,0.81694 0.66226,1.47921 1.47921,1.47921z" fill="#396ea9" stroke="none"/><path d="M235.07557,187.40947c-0.78595,-0.95885 -4.32264,-5.27362 -5.62946,-6.86794c-0.41924,-0.51147 -0.4873,-0.9301 -0.4873,-1.59144c0,-2.21948 0,-7.47393 0,-8.76032c0,-0.64953 0.37972,-1.11397 1.02924,-1.11397c1.49581,0 8.68006,0 11.51065,0c0.69891,0 1.14979,0.41506 1.14979,1.11397c0,2.01235 0,13.39339 0,16.90944c0,0.63854 -0.40939,1.03478 -1.04793,1.03478c-0.82253,0 -3.41919,0 -4.88948,0c-0.62143,0 -1.63551,-0.72452 -1.63551,-0.72452zM232.22907,173.90998c0.81694,0 1.47921,-0.66226 1.47921,-1.47921c0,-0.81694 -0.66226,-1.47921 -1.47921,-1.47921c-0.81694,0 -1.47921,0.66226 -1.47921,1.47921c0,0.81694 0.66226,1.47921 1.47921,1.47921zM232.22907,177.88268c0.81694,0 1.47921,-0.66226 1.47921,-1.47921c0,-0.81694 -0.66226,-1.47921 -1.47921,-1.47921c-0.81694,0 -1.47921,0.66226 -1.47921,1.47921c0,0.81694 0.66226,1.47921 1.47921,1.47921z" fill="#4585cc" stroke="none"/><path d="M237.93346,188.11785v-19.0486h2.64847v19.0486z" fill="#52b4f2" stroke="#000000"/><path d="M237.9041,189.28049v-1.24148h2.71942v1.24148z" fill="#4598cb" stroke="#000000"/></g></g></g></svg>