<svg version="1.1" xmlns="http://www.w3.org/2000/svg" xmlns:xlink="http://www.w3.org/1999/xlink" width="70.16667" height="70.16667" viewBox="0,0,70.16667,70.16667"><g transform="translate(-204.91675,-144.91672)"><g data-paper-data="{&quot;isPaintingLayer&quot;:true}" fill-rule="nonzero" stroke-linecap="butt" stroke-linejoin="miter" stroke-miterlimit="10" stroke-dasharray="" stroke-dashoffset="0" style="mix-blend-mode: normal"><path d="M227.19532,190.54175l-1.54489,-2.44316c0,0 3.38327,-2.69396 6.02245,-4.36281c1.27795,-0.80809 3.72339,-1.57052 5.99933,-2.94596c3.70873,-2.24133 10.35621,-6.71678 10.35621,-6.71678l1.03109,-2.16333l0.02333,-1.86343l-1.93605,-4.05468l1.90606,-1.28905l7.38104,10.49505l0.85485,4.55084l-4.72578,-3.02913l-3.01537,-0.3825c0,0 -6.2929,3.80724 -9.92757,6.21507c-2.55145,1.69024 -4.46512,3.51135 -5.90119,4.41943c-2.57597,1.62888 -6.52349,3.57043 -6.52349,3.57043z" fill="#464646" stroke="#ffffff" stroke-width="2.5"/><path d="M246.77277,166.97777l-0.87683,-1.38666l3.03744,-1.92068l0.87683,1.38666z" fill="#2e2e2e" stroke="#ffffff" stroke-width="2.5"/><path d="M204.91675,215.08339v-70.16667h70.16667v70.16667z" fill="none" stroke="none" stroke-width="0"/><path d="M227.19532,190.54175l-1.54489,-2.44316c0,0 3.38327,-2.69396 6.02245,-4.36281c1.27795,-0.80809 3.72339,-1.57052 5.99933,-2.94596c3.70873,-2.24133 10.35621,-6.71678 10.35621,-6.71678l1.03109,-2.16333l0.02333,-1.86343l-1.93605,-4.05468l1.90606,-1.28905l7.38104,10.49505l0.85485,4.55084l-4.72578,-3.02913l-3.01537,-0.3825c0,0 -6.2929,3.80724 -9.92757,6.21507c-2.55145,1.69024 -4.46512,3.51135 -5.90119,4.41943c-2.57597,1.62888 -6.52349,3.57043 -6.52349,3.57043z" fill="#464646" stroke="#ffffff" stroke-width="0"/><path d="M246.77277,166.97777l-0.87683,-1.38666l3.03744,-1.92068l0.87683,1.38666z" fill="#2e2e2e" stroke="#ffffff" stroke-width="0"/><path d="M238.92461,183.21734l-1.54489,-2.44316c0,0 2.24729,-1.05131 3.13842,-1.6148c1.07656,-0.68074 2.87042,-2.1848 2.87042,-2.1848l1.54489,2.44316c0,0 -2.29955,1.08435 -3.33652,1.74006c-0.96005,0.60707 -2.67233,2.05954 -2.67233,2.05954z" fill="#d4d4d4" stroke="none" stroke-width="0"/></g></g></svg>