<svg version="1.1" xmlns="http://www.w3.org/2000/svg" xmlns:xlink="http://www.w3.org/1999/xlink" width="640.66892" height="384" viewBox="0,0,640.66892,384"><g transform="translate(-1.9178,12)"><g stroke-miterlimit="10"><path d="M1.9178,372v-384h640.66892v384z" fill="#000000" stroke="#000000" stroke-width="0"/><text transform="translate(78.48537,192.76056) scale(1.06338,1.06338)" font-size="40" xml:space="preserve" fill="#00ff02" stroke="#00ff02" stroke-width="3" font-family="Sans Serif" font-weight="normal" text-anchor="start"><tspan x="0" dy="0">CLICK TO REINCARNATE</tspan></text><g fill="#ff0000" stroke="#ff0000" stroke-width="0"><g><path d="M260.24485,19.37702c0,-5.10218 4.13614,-9.23832 9.23832,-9.23832c5.10218,0 9.23831,4.13614 9.23831,9.23832c0,5.10218 -4.13613,9.23831 -9.23831,9.23831c-5.10218,0 -9.23832,-4.13613 -9.23832,-9.23831z"/><path d="M273.20045,19.26723c0,-5.10218 4.13614,-9.23831 9.23832,-9.23831c5.10218,0 9.23831,4.13613 9.23831,9.23831c0,5.10218 -4.13613,9.23831 -9.23831,9.23831c-5.10218,0 -9.23832,-4.13613 -9.23832,-9.23831z"/><path d="M275.94876,38.66476l-12.8875,-12.8875l12.8875,-12.8875l12.8875,12.8875z"/></g><g><path d="M302.78238,18.37102c0,-5.10218 4.13614,-9.23832 9.23832,-9.23832c5.10218,0 9.23831,4.13614 9.23831,9.23832c0,5.10218 -4.13613,9.23831 -9.23831,9.23831c-5.10218,0 -9.23832,-4.13613 -9.23832,-9.23831z"/><path d="M315.73798,18.26123c0,-5.10218 4.13614,-9.23831 9.23832,-9.23831c5.10218,0 9.23831,4.13613 9.23831,9.23831c0,5.10218 -4.13613,9.23831 -9.23831,9.23831c-5.10218,0 -9.23832,-4.13613 -9.23832,-9.23831z"/><path d="M318.48629,37.65876l-12.8875,-12.8875l12.8875,-12.8875l12.8875,12.8875z"/></g><g><path d="M348.32292,18.86651c0,-5.10218 4.13614,-9.23832 9.23832,-9.23832c5.10218,0 9.23831,4.13614 9.23831,9.23832c0,5.10218 -4.13613,9.23831 -9.23831,9.23831c-5.10218,0 -9.23832,-4.13613 -9.23832,-9.23831z"/><path d="M361.27852,18.75672c0,-5.10218 4.13614,-9.23831 9.23832,-9.23831c5.10218,0 9.23831,4.13613 9.23831,9.23831c0,5.10218 -4.13613,9.23831 -9.23831,9.23831c-5.10218,0 -9.23832,-4.13613 -9.23832,-9.23831z"/><path d="M364.02683,38.15425l-12.8875,-12.8875l12.8875,-12.8875l12.8875,12.8875z"/></g></g></g></g></svg>