<svg version="1.1" xmlns="http://www.w3.org/2000/svg" xmlns:xlink="http://www.w3.org/1999/xlink" width="793.99399" height="570.28172" viewBox="0,0,793.99399,570.28172"><g transform="translate(187.95793,48.33971)"><g data-paper-data="{&quot;isPaintingLayer&quot;:true}" fill-rule="nonzero" stroke-width="0" stroke-linecap="butt" stroke-linejoin="miter" stroke-miterlimit="10" stroke-dasharray="" stroke-dashoffset="0" style="mix-blend-mode: normal"><path d="M-187.95792,511.83187v-546.54655h793.99399v546.54655z" fill="#60e076" stroke="#000000"/><path d="M26.96699,114.17419c0,9.53645 -12.77265,17.26726 -28.52852,17.26726c-15.75587,0 -28.52853,-7.73081 -28.52853,-17.26726c0,-9.53645 12.77266,-17.26727 28.52853,-17.26727c15.75587,0 28.52853,7.73082 28.52853,17.26727z" fill="#59cf6d" stroke="#000000"/><path d="M265.70574,130.69069c0,9.53645 -12.77266,17.26727 -28.52853,17.26727c-15.75587,0 -28.52852,-7.73082 -28.52852,-17.26727c0,-9.53645 12.77266,-17.26726 28.52853,-17.26726c15.75587,0 28.52853,7.73081 28.52853,17.26726z" fill="#59cf6d" stroke="#000000"/><path d="M223.66369,282.34236c0,9.53645 -12.77266,17.26726 -28.52853,17.26726c-15.75587,0 -28.52853,-7.73081 -28.52853,-17.26726c0,-9.53645 12.77266,-17.26727 28.52853,-17.26727c15.75587,0 28.52853,7.73082 28.52853,17.26727z" fill="#59cf6d" stroke="#000000"/><path d="M310.75077,340.90094c0,9.53645 -12.77266,17.26727 -28.52853,17.26727c-15.75587,0 -28.52852,-7.73082 -28.52852,-17.26727c0,-9.53645 12.77265,-17.26726 28.52853,-17.26726c15.75587,0 28.52853,7.73081 28.52853,17.26726z" fill="#5dd972" stroke="#000000"/><path d="M393.39865,197.50755c0,8.29256 -11.10665,15.01502 -24.80741,15.01502c-13.70076,0 -24.80741,-6.72245 -24.80741,-15.01502c0,-8.29256 11.10665,-15.01502 24.80741,-15.01502c13.70076,0 24.80741,6.72245 24.80741,15.01502z" fill-opacity="0.79032" fill="#5dd972" stroke="#000000"/><path d="M138.14338,156.96701c0,8.29256 -11.10666,15.01502 -24.80742,15.01502c-13.70076,0 -24.80741,-6.72245 -24.80741,-15.01502c0,-8.29256 11.10665,-15.01502 24.80741,-15.01502c13.70076,0 24.80742,6.72245 24.80742,15.01502z" fill-opacity="0.79032" fill="#5dd972" stroke="#000000"/><path d="M-1.49626,190.00004c0,8.29256 -11.10665,15.01502 -24.80742,15.01502c-13.70076,0 -24.80741,-6.72245 -24.80741,-15.01502c0,-8.29256 11.10665,-15.01502 24.80741,-15.01502c13.70076,0 24.80742,6.72245 24.80742,15.01502z" fill-opacity="0.79032" fill="#5dd972" stroke="#000000"/><path d="M-22.51728,45.85586c0,8.29257 -11.10665,15.01501 -24.80741,15.01501c-13.70076,0 -24.80742,-6.72245 -24.80742,-15.01501c0,-8.29257 11.10666,-15.01501 24.80742,-15.01501c13.70076,0 24.80742,6.72245 24.80742,15.01501z" fill-opacity="0.79032" fill="#5dd972" stroke="#000000"/><path d="M358.86411,41.35135c0,8.29256 -11.10665,15.01502 -24.80741,15.01502c-13.70076,0 -24.80741,-6.72245 -24.80741,-15.01502c0,-8.29256 11.10665,-15.01501 24.80741,-15.01501c13.70076,0 24.80741,6.72245 24.80741,15.01501z" fill-opacity="0.79032" fill="#5dd972" stroke="#000000"/><path d="M528.53378,164.47448c0,8.29256 -11.10666,15.01501 -24.80742,15.01501c-13.70076,0 -24.80741,-6.72245 -24.80741,-15.01501c0,-8.29256 11.10665,-15.01502 24.80741,-15.01502c13.70076,0 24.80742,6.72245 24.80742,15.01502z" fill-opacity="0.79032" fill="#5dd972" stroke="#000000"/><path d="M129.13437,328.13818c0,8.29257 -11.10666,15.01502 -24.80742,15.01502c-13.70076,0 -24.80742,-6.72245 -24.80742,-15.01502c0,-8.29257 11.10666,-15.01502 24.80742,-15.01502c13.70076,0 24.80742,6.72245 24.80742,15.01502z" fill-opacity="0.79032" fill="#5dd972" stroke="#000000"/><path d="M-73.56833,418.22827c0,8.29257 -11.10666,15.01502 -24.80742,15.01502c-13.70076,0 -24.80742,-6.72245 -24.80742,-15.01502c0,-8.29257 11.10666,-15.01502 24.80742,-15.01502c13.70076,0 24.80742,6.72245 24.80742,15.01502z" fill-opacity="0.79032" fill="#5dd972" stroke="#000000"/><path d="M543.00826,265.07512c0,8.29257 -11.10666,15.01501 -24.80741,15.01501c-13.70076,0 -24.80742,-6.72245 -24.80742,-15.01501c0,-8.29257 11.10666,-15.01502 24.80742,-15.01502c13.70076,0 24.80741,6.72245 24.80741,15.01502z" fill-opacity="0.79032" fill="#5dd972" stroke="#000000"/><path d="M417.35737,312.3724c0,9.53645 -12.77265,17.26727 -28.52852,17.26727c-15.75587,0 -28.52853,-7.73082 -28.52853,-17.26727c0,-9.53645 12.77266,-17.26727 28.52853,-17.26727c15.75587,0 28.52853,7.73082 28.52853,17.26727z" fill="#59cf6d" stroke="#000000"/><path d="M28.46849,427.98803c0,9.53645 -12.77266,17.26726 -28.52853,17.26726c-15.75587,0 -28.52853,-7.73081 -28.52853,-17.26726c0,-9.53645 12.77266,-17.26727 28.52853,-17.26727c15.75587,0 28.52853,7.73082 28.52853,17.26727z" fill="#59cf6d" stroke="#000000"/><path d="M538.97899,36.0961c0,9.53645 -12.77266,17.26727 -28.52853,17.26727c-15.75587,0 -28.52853,-7.73082 -28.52853,-17.26727c0,-9.53645 12.77266,-17.26726 28.52853,-17.26726c15.75587,0 28.52853,7.73081 28.52853,17.26726z" fill="#59cf6d" stroke="#000000"/><path d="M153.09312,22.58259c0,9.53645 -12.77266,17.26727 -28.52853,17.26727c-15.75587,0 -28.52853,-7.73081 -28.52853,-17.26727c0,-9.53645 12.77266,-17.26727 28.52853,-17.26727c15.75587,0 28.52853,7.73082 28.52853,17.26727z" fill="#59cf6d" stroke="#000000"/><path d="M-67.62761,274.83484c0,9.53645 -12.77265,17.26727 -28.52852,17.26727c-15.75587,0 -28.52853,-7.73082 -28.52853,-17.26727c0,-9.53645 12.77266,-17.26727 28.52853,-17.26727c15.75587,0 28.52853,7.73082 28.52853,17.26727z" fill="#59cf6d" stroke="#000000"/><path d="M490.93095,433.99404c0,9.53645 -12.77266,17.26727 -28.52853,17.26727c-15.75587,0 -28.52852,-7.73082 -28.52852,-17.26727c0,-9.53645 12.77265,-17.26727 28.52853,-17.26727c15.75587,0 28.52853,7.73082 28.52853,17.26727z" fill="#59cf6d" stroke="#000000"/><path d="M229.6697,450.75079c0,9.53645 -12.77266,17.26727 -28.52853,17.26727c-15.75587,0 -28.52853,-7.73082 -28.52853,-17.26727c0,-9.53645 12.77266,-17.26727 28.52853,-17.26727c15.75587,0 28.52853,7.73082 28.52853,17.26727z" fill="#59cf6d" stroke="#000000"/><path d="M224.37658,131.02279c0,0 -0.13054,-9.03799 -1.16884,-13.19116c-0.98665,-3.94658 -4.91389,-11.13973 -4.91389,-11.13973c0,0 6.3255,3.60783 9.28175,5.86252c2.70435,2.06257 7.76741,7.14065 7.76741,7.14065c0,0 0.0559,-7.87573 -0.74966,-11.71815c-0.83673,-3.99103 -4.18079,-11.79911 -4.18079,-11.79911c0,0 3.75911,4.16669 5.50002,6.7507c1.83081,2.71746 5.22872,9.1739 5.22872,9.1739l10.8103,-10.68221c0,0 -3.17559,9.71723 -3.76941,14.53378c-0.62147,5.04077 0.11978,15.06881 0.11978,15.06881z" fill="#55c668" stroke="#000000"/><path d="M186.25158,276.02279c0,0 -0.13054,-9.03799 -1.16884,-13.19117c-0.98665,-3.94658 -4.91389,-11.13973 -4.91389,-11.13973c0,0 6.3255,3.60784 9.28175,5.86252c2.70435,2.06257 7.76741,7.14065 7.76741,7.14065c0,0 0.0559,-7.87573 -0.74966,-11.71815c-0.83673,-3.99103 -4.18079,-11.79911 -4.18079,-11.79911c0,0 3.75911,4.16668 5.50002,6.7507c1.83081,2.71746 5.22872,9.1739 5.22872,9.1739l10.8103,-10.68222c0,0 -3.17559,9.71723 -3.76941,14.53378c-0.62147,5.04077 0.11978,15.06881 0.11978,15.06881z" fill="#55c668" stroke="#000000"/><path d="M386.8766,316.02279c0,0 -0.13054,-9.03799 -1.16884,-13.19117c-0.98665,-3.94658 -4.91389,-11.13973 -4.91389,-11.13973c0,0 6.32551,3.60784 9.28175,5.86252c2.70435,2.06257 7.76741,7.14065 7.76741,7.14065c0,0 0.0559,-7.87573 -0.74966,-11.71814c-0.83673,-3.99103 -4.18078,-11.79911 -4.18078,-11.79911c0,0 3.7591,4.16669 5.50001,6.75071c1.83081,2.71746 5.22872,9.1739 5.22872,9.1739l10.8103,-10.68222c0,0 -3.1756,9.71723 -3.76942,14.53378c-0.62147,5.04077 0.11978,15.06881 0.11978,15.06881z" fill="#55c668" stroke="#000000"/><path d="M279.4435,231.64778c0,0 0.74125,-10.02804 0.11978,-15.06881c-0.59382,-4.81655 -3.76942,-14.53378 -3.76942,-14.53378l10.8103,10.68221c0,0 3.39792,-6.45644 5.22873,-9.1739c1.74091,-2.58402 5.50001,-6.7507 5.50001,-6.7507c0,0 -3.34406,7.80808 -4.18079,11.79911c-0.80557,3.84241 -0.74966,11.71814 -0.74966,11.71814c0,0 5.06306,-5.07807 7.76741,-7.14065c2.95624,-2.25468 9.28174,-5.86252 9.28174,-5.86252c0,0 -3.92724,7.19315 -4.91389,11.13974c-1.0383,4.15318 -1.16884,13.19116 -1.16884,13.19116z" data-paper-data="{&quot;index&quot;:null}" fill="#55c668" stroke="#000000"/><path d="M37.90203,279.14779c0,0 0.55511,-7.50988 0.0897,-11.28485c-0.4447,-3.60706 -2.82287,-10.88417 -2.82287,-10.88417l8.0957,7.99978c0,0 2.54466,-4.83515 3.91573,-6.87023c1.30374,-1.93514 4.11889,-5.05552 4.11889,-5.05552c0,0 -2.50433,5.84738 -3.13094,8.83621c-0.60328,2.87754 -0.56141,8.77558 -0.56141,8.77558c0,0 3.79166,-3.80291 5.81692,-5.34754c2.21389,-1.68851 6.95099,-4.39037 6.95099,-4.39037c0,0 -2.94107,5.38687 -3.67995,8.34242c-0.77757,3.11027 -0.87532,9.8787 -0.87532,9.8787z" data-paper-data="{&quot;index&quot;:null}" fill="#55c668" stroke="#000000"/><path d="M52.27703,113.52278c0,0 0.55511,-7.50988 0.0897,-11.28486c-0.4447,-3.60706 -2.82287,-10.88417 -2.82287,-10.88417l8.0957,7.99979c0,0 2.54466,-4.83516 3.91573,-6.87023c1.30374,-1.93514 4.1189,-5.05552 4.1189,-5.05552c0,0 -2.50433,5.84738 -3.13095,8.83621c-0.60328,2.87754 -0.56141,8.77557 -0.56141,8.77557c0,0 3.79166,-3.80291 5.81692,-5.34754c2.21389,-1.68851 6.95098,-4.39037 6.95098,-4.39037c0,0 -2.94106,5.38687 -3.67995,8.34242c-0.77756,3.11026 -0.87533,9.8787 -0.87533,9.8787z" data-paper-data="{&quot;index&quot;:null}" fill="#55c668" stroke="#000000"/><path d="M119.75372,26.80541c0,0 -0.13054,-9.03799 -1.16883,-13.19116c-0.98664,-3.94658 -4.91389,-11.13973 -4.91389,-11.13973c0,0 6.32551,3.60784 9.28175,5.86252c2.70435,2.06258 7.76741,7.14065 7.76741,7.14065c0,0 0.05591,-7.87573 -0.74966,-11.71815c-0.83673,-3.99103 -4.18079,-11.7991 -4.18079,-11.7991c0,0 3.7591,4.16668 5.50001,6.7507c1.83081,2.71746 5.22873,9.1739 5.22873,9.1739l10.8103,-10.68221c0,0 -3.17559,9.71722 -3.76941,14.53377c-0.62147,5.04078 0.11978,15.06882 0.11978,15.06882z" fill="#55c668" stroke="#000000"/><path d="M-14.24628,109.80541c0,0 -0.13054,-9.03799 -1.16883,-13.19116c-0.98665,-3.94658 -4.91389,-11.13974 -4.91389,-11.13974c0,0 6.32551,3.60784 9.28174,5.86252c2.70435,2.06257 7.76741,7.14065 7.76741,7.14065c0,0 0.05591,-7.87574 -0.74966,-11.71815c-0.83673,-3.99103 -4.18079,-11.7991 -4.18079,-11.7991c0,0 3.75911,4.16669 5.50002,6.7507c1.83081,2.71746 5.22873,9.1739 5.22873,9.1739l10.8103,-10.68221c0,0 -3.17559,9.71722 -3.76942,14.53378c-0.62147,5.04077 0.11978,15.06882 0.11978,15.06882z" fill="#55c668" stroke="#000000"/><path d="M-104.24628,267.80544c0,0 -0.13054,-9.03799 -1.16883,-13.19116c-0.98664,-3.94658 -4.91389,-11.13974 -4.91389,-11.13974c0,0 6.32551,3.60783 9.28175,5.86252c2.70435,2.06258 7.7674,7.14065 7.7674,7.14065c0,0 0.05591,-7.87574 -0.74966,-11.71815c-0.83673,-3.99103 -4.18079,-11.79911 -4.18079,-11.79911c0,0 3.75911,4.16669 5.50002,6.75071c1.83081,2.71746 5.22873,9.1739 5.22873,9.1739l10.8103,-10.68222c0,0 -3.1756,9.71723 -3.76942,14.53378c-0.62147,5.04078 0.11978,15.06882 0.11978,15.06882z" fill="#55c668" stroke="#000000"/><path d="M441.18264,253.80543c0,0 -0.09683,-6.70359 -0.86694,-9.78406c-0.73181,-2.92723 -3.6447,-8.26249 -3.6447,-8.26249c0,0 4.69171,2.67598 6.88439,4.34831c2.00585,1.52983 5.76119,5.29631 5.76119,5.29631c0,0 0.04147,-5.84153 -0.55603,-8.6915c-0.62061,-2.9602 -3.10095,-8.75156 -3.10095,-8.75156c0,0 2.78818,3.09048 4.07944,5.00709c1.35793,2.01558 3.87821,6.80441 3.87821,6.80441l8.01815,-7.92314c0,0 -2.35538,7.2074 -2.79582,10.7799c-0.46095,3.73881 0.08884,11.17674 0.08884,11.17674z" fill="#55c668" stroke="#000000"/><path d="M434.37799,160.80541c0,0 0.54979,-7.43793 0.08884,-11.17674c-0.44045,-3.5725 -2.79582,-10.7799 -2.79582,-10.7799l8.01815,7.92314c0,0 2.52028,-4.78883 3.87822,-6.80441c1.29125,-1.91661 4.07943,-5.00709 4.07943,-5.00709c0,0 -2.48034,5.79136 -3.10095,8.75156c-0.59751,2.84997 -0.55603,8.6915 -0.55603,8.6915c0,0 3.75534,-3.76648 5.76119,-5.29631c2.19268,-1.67233 6.88439,-4.34831 6.88439,-4.34831c0,0 -2.91289,5.33526 -3.64469,8.26249c-0.77011,3.08047 -0.86695,9.78406 -0.86695,9.78406z" data-paper-data="{&quot;index&quot;:null}" fill="#55c668" stroke="#000000"/><path d="M495.37799,40.80541c0,0 0.54979,-7.43793 0.08884,-11.17674c-0.44045,-3.57249 -2.79582,-10.77989 -2.79582,-10.77989l8.01815,7.92314c0,0 2.52028,-4.78883 3.87822,-6.8044c1.29125,-1.91661 4.07943,-5.00708 4.07943,-5.00708c0,0 -2.48034,5.79135 -3.10095,8.75156c-0.59751,2.84997 -0.55603,8.6915 -0.55603,8.6915c0,0 3.75534,-3.76648 5.76119,-5.29631c2.19268,-1.67233 6.88439,-4.34831 6.88439,-4.34831c0,0 -2.91289,5.33526 -3.64469,8.26249c-0.77012,3.08047 -0.86694,9.78406 -0.86694,9.78406z" data-paper-data="{&quot;index&quot;:null}" fill="#55c668" stroke="#000000"/><path d="M319.37798,54.80541c0,0 0.54979,-7.43793 0.08884,-11.17674c-0.44045,-3.5725 -2.79582,-10.77989 -2.79582,-10.77989l8.01815,7.92314c0,0 2.52028,-4.78883 3.87822,-6.80441c1.29125,-1.9166 4.07943,-5.00708 4.07943,-5.00708c0,0 -2.48034,5.79135 -3.10095,8.75155c-0.59751,2.84997 -0.55603,8.6915 -0.55603,8.6915c0,0 3.75534,-3.76647 5.76119,-5.29631c2.19268,-1.67233 6.88439,-4.34831 6.88439,-4.34831c0,0 -2.91289,5.33526 -3.64469,8.26249c-0.77011,3.08046 -0.86695,9.78406 -0.86695,9.78406z" data-paper-data="{&quot;index&quot;:null}" fill="#55c668" stroke="#000000"/><path d="M341.37799,138.80541c0,0 0.54979,-7.43793 0.08884,-11.17674c-0.44045,-3.5725 -2.79582,-10.77989 -2.79582,-10.77989l8.01815,7.92314c0,0 2.52028,-4.78883 3.87822,-6.80441c1.29125,-1.91661 4.07943,-5.00709 4.07943,-5.00709c0,0 -2.48034,5.79135 -3.10095,8.75155c-0.59751,2.84997 -0.55603,8.6915 -0.55603,8.6915c0,0 3.75534,-3.76647 5.76119,-5.29631c2.19268,-1.67233 6.88439,-4.34831 6.88439,-4.34831c0,0 -2.91289,5.33526 -3.64469,8.26249c-0.77011,3.08047 -0.86695,9.78406 -0.86695,9.78406z" data-paper-data="{&quot;index&quot;:null}" fill="#55c668" stroke="#000000"/><path d="M388.37799,85.80541c0,0 0.54979,-7.43793 0.08884,-11.17674c-0.44045,-3.5725 -2.79582,-10.77989 -2.79582,-10.77989l8.01815,7.92314c0,0 2.52028,-4.78883 3.87822,-6.80441c1.29125,-1.9166 4.07943,-5.00709 4.07943,-5.00709c0,0 -2.48034,5.79135 -3.10095,8.75155c-0.59751,2.84997 -0.55603,8.6915 -0.55603,8.6915c0,0 3.75534,-3.76647 5.76119,-5.29631c2.19268,-1.67233 6.88439,-4.34831 6.88439,-4.34831c0,0 -2.91289,5.33526 -3.64469,8.26249c-0.77011,3.08047 -0.86695,9.78406 -0.86695,9.78406z" data-paper-data="{&quot;index&quot;:null}" fill="#55c668" stroke="#000000"/><path d="M57.37799,196.80545c0,0 0.54979,-7.43793 0.08884,-11.17674c-0.44044,-3.5725 -2.79583,-10.7799 -2.79583,-10.7799l8.01815,7.92314c0,0 2.52028,-4.78883 3.87821,-6.80441c1.29126,-1.91661 4.07944,-5.00709 4.07944,-5.00709c0,0 -2.48033,5.79136 -3.10095,8.75156c-0.5975,2.84997 -0.55603,8.6915 -0.55603,8.6915c0,0 3.75534,-3.76648 5.76118,-5.29631c2.19268,-1.67233 6.88439,-4.34831 6.88439,-4.34831c0,0 -2.91289,5.33526 -3.64469,8.26249c-0.77012,3.08047 -0.86695,9.78406 -0.86695,9.78406z" data-paper-data="{&quot;index&quot;:null}" fill="#55c668" stroke="#000000"/><path d="M97.37798,345.80545c0,0 0.54979,-7.43793 0.08884,-11.17674c-0.44044,-3.5725 -2.79583,-10.7799 -2.79583,-10.7799l8.01815,7.92314c0,0 2.52028,-4.78883 3.87821,-6.8044c1.29126,-1.91661 4.07944,-5.00709 4.07944,-5.00709c0,0 -2.48033,5.79136 -3.10095,8.75155c-0.5975,2.84997 -0.55603,8.6915 -0.55603,8.6915c0,0 3.75534,-3.76648 5.76118,-5.29631c2.19268,-1.67233 6.88439,-4.34831 6.88439,-4.34831c0,0 -2.91289,5.33526 -3.64469,8.26249c-0.77012,3.08047 -0.86695,9.78406 -0.86695,9.78406z" data-paper-data="{&quot;index&quot;:null}" fill="#55c668" stroke="#000000"/><path d="M-78.25009,-35.83971l132,-2c0,0 54.93576,186.534 113.01767,245.00227c54.53639,54.89916 211.06292,52.75704 292.97259,96.35575c42.89807,22.83369 141.10584,218.4237 141.10584,218.4237l-207.42991,-3.10156c0,0 -44.55591,-119.80894 -93.67358,-132.41541c-71.72007,-18.40756 -171.04724,-31.55926 -206.00844,-58.66468c-97.08054,-75.26656 -171.98416,-363.60007 -171.98416,-363.60007z" fill="#438abf" stroke="#000000"/><path d="M275.28531,48.4225c0,2.77842 -8.01473,8.68001 -5.80543,11.90655c2.67739,3.91014 15.57511,5.17029 14.26917,8.63022c-1.79437,4.75397 -16.40689,7.91865 -19.07683,11.81145c-2.77939,4.05238 -3.19371,7.4154 -8.44362,9.6253c-5.14683,2.16651 -20.95639,-3.59028 -26.75363,-2.28351c-5.6091,1.26436 -8.83332,5.35503 -15.00047,5.35503c-2.32328,0 -6.47108,6.67418 -10.44118,5.59091c-6.53414,-1.78288 -13.75254,-11.75729 -20.17524,-12.35205c-7.26219,-0.6725 -10.91163,4.15586 -16.03149,1.64153c-8.12745,-3.99133 -6.69717,-14.12782 -9.73817,-18.6826c-4.08764,-6.12244 -8.34337,5.44743 -11.22095,0.42047c-3.09054,-5.39898 6.79623,-15.42966 6.79623,-21.6633c0,-7.69349 7.60293,-13.00458 9.26398,-20.0723c1.41309,-6.01268 -1.00703,-7.91133 5.3938,-11.70573c3.28495,-1.94731 15.3146,-3.01287 20.45111,-5.20064c6.85284,-2.91879 4.56001,-12.91017 12.08692,-13.24675c4.70105,-0.21021 9.83651,5.18038 13.615,5.18038c4.74051,0 4.84231,11.44817 9.61703,13.42635c5.54729,2.29826 15.73184,-4.60695 20.63036,-0.96423c5.96296,4.43428 10.38814,9.72703 16.09431,12.8469c6.03,3.29692 17.03391,-5.76767 19.94367,-1.34816c3.92128,5.95587 -5.47455,14.01182 -5.47455,21.08418z" fill-opacity="0.62097" fill="#3e7200" stroke="#000000"/><path d="M369.5,-41.33971h206v132c0,0 -5.02983,7.95079 -9.04391,7.25233c-6.00808,-1.04542 -23.501,-12.91524 -23.501,-12.91524c0,0 -25.02284,29.87071 -42.13404,24.80363c-27.71876,-8.20826 -44.31656,-31.09836 -44.31656,-31.09836c0,0 -30.35083,18.70489 -51.19265,8.50364c-32.88355,-16.09521 -18.08226,-66.60639 -18.08226,-66.60639c0,0 -39.32142,8.94655 -41.31065,-24.90546c-1.13467,-19.30938 23.58107,-37.03415 23.58107,-37.03415z" fill="#541ea4" stroke="#ff0000"/><path d="M370.5,-48.33971h206v132c0,0 -5.02983,7.95079 -9.04391,7.25233c-6.00808,-1.04542 -23.501,-12.91524 -23.501,-12.91524c0,0 -25.02284,29.87071 -42.13404,24.80363c-27.71876,-8.20826 -44.31656,-31.09836 -44.31656,-31.09836c0,0 -30.35083,18.70489 -51.19265,8.50364c-32.88355,-16.09521 -18.08226,-66.60639 -18.08226,-66.60639c0,0 -39.32142,8.94655 -41.31065,-24.90546c-1.13467,-19.30938 23.58107,-37.03415 23.58107,-37.03415z" fill="#6624c9" stroke="#ff0000"/></g></g></svg>