<svg version="1.1" xmlns="http://www.w3.org/2000/svg" xmlns:xlink="http://www.w3.org/1999/xlink" width="627.41443" height="638.14416" viewBox="0,0,627.41443,638.14416"><g transform="translate(125.39485,124.80327)"><g data-paper-data="{&quot;isPaintingLayer&quot;:true}" fill-rule="nonzero" stroke-width="0" stroke-linecap="butt" stroke-linejoin="miter" stroke-miterlimit="10" stroke-dasharray="" stroke-dashoffset="0" style="mix-blend-mode: normal"><g data-paper-data="{&quot;index&quot;:null}" stroke="#563a16"><path d="M289.65662,90.5797l-2.45495,-0.78111l28.56656,-9.48499l5.4678,0.22318z" fill="#565dd8"/><path d="M289.39305,124.71199v-5.22231l29.3324,-9.11285l-0.20834,5.22231z" fill="#565dd8"/><path d="M289.90078,108.71579v-5.22232l27.66573,-9.52952l0.41667,6.05566z" fill="#565dd8"/><g data-paper-data="{&quot;index&quot;:null}"><path d="M307.81415,133.44971v37.62006l-2.61116,-3.09471v-34.52535z" data-paper-data="{&quot;index&quot;:null}" fill="#d82020"/><path d="M310.38067,133.33812v34.52535l-2.61116,3.09471v-37.62006z" fill="#ff2727"/></g><g data-paper-data="{&quot;index&quot;:null}"><path d="M289.9422,117.08642v37.62007l-2.61116,-3.09471v-34.52535z" data-paper-data="{&quot;index&quot;:null}" fill="#565dd8"/><path d="M292.50871,116.97484v34.52535l-2.61116,3.09471v-37.62007z" fill="#666dff"/></g><g data-paper-data="{&quot;index&quot;:null}"><path d="M337.41785,141.49244v20.59916l-2.61116,-3.09471v-17.50445z" data-paper-data="{&quot;index&quot;:null}" fill="#d82020"/><path d="M339.98437,141.38085v17.50444l-2.61116,3.09471v-20.59915z" fill="#ff2727"/></g><g><path d="M289.61034,127.66428l-0.46357,-2.92561l51.76381,16.13636l0.03325,2.41494l-32.11568,10.81574z" fill="#565dd8"/><path d="M289.11131,124.15176l32.17859,-9.99889l19.57157,26.45792l-32.11569,10.81574z" fill="#666dff"/></g><path d="M316.05702,114.78437v-34.52535l2.61116,0.9671v33.55825z" data-paper-data="{&quot;index&quot;:null}" fill="#565dd8"/><path d="M318.62355,114.89595v-33.55824l2.61116,-0.9671v34.52534z" fill="#666dff"/><path d="M287.28588,124.09268v-34.52535l2.61118,0.9671v33.55825z" data-paper-data="{&quot;index&quot;:null}" fill="#565dd8"/><path d="M289.85243,124.20426v-33.55825l2.61116,-0.9671v34.52535z" fill="#666dff"/><path d="M289.61065,95.74745v-5.22232l31.62406,-10.15452v5.22232z" fill="#666dff"/></g><g data-paper-data="{&quot;index&quot;:null}" stroke="#563a16"><path d="M146.36893,248.32099l5.4678,-0.22318l28.56656,9.48499l-2.45495,0.78111z" fill="#565dd8"/><path d="M149.08785,283.38335l-0.20834,-5.22231l29.3324,9.11285v5.22231z" fill="#565dd8"/><path d="M149.62178,267.80382l0.41667,-6.05566l27.66573,9.52952v5.22232z" fill="#565dd8"/><g data-paper-data="{&quot;index&quot;:null}"><path d="M162.40197,301.23393v34.52535l-2.61116,3.09471v-37.62006z" data-paper-data="{&quot;index&quot;:null}" fill="#d82020"/><path d="M159.83545,301.12233v37.62006l-2.61116,-3.09471v-34.52535z" fill="#ff2727"/></g><g data-paper-data="{&quot;index&quot;:null}"><path d="M180.27392,284.87064v34.52535l-2.61116,3.09471v-37.62007z" data-paper-data="{&quot;index&quot;:null}" fill="#565dd8"/><path d="M177.70741,284.75905v37.62007l-2.61116,-3.09471v-34.52535z" fill="#666dff"/></g><g data-paper-data="{&quot;index&quot;:null}"><path d="M132.79827,309.27666v17.50445l-2.61116,3.09471v-20.59916z" data-paper-data="{&quot;index&quot;:null}" fill="#d82020"/><path d="M130.23175,309.16506v20.59915l-2.61116,-3.09471v-17.50444z" fill="#ff2727"/></g><g><path d="M158.77681,321.88991l-32.11568,-10.81574l0.03325,-2.41494l51.76381,-16.13636l-0.46357,2.92561z" fill="#565dd8"/><path d="M158.85919,319.21074l-32.11569,-10.81574l19.57157,-26.45792l32.17859,9.99889z" fill="#666dff"/></g><path d="M148.93678,282.56858v-33.55825l2.61116,-0.9671v34.52535z" data-paper-data="{&quot;index&quot;:null}" fill="#565dd8"/><path d="M146.37025,282.68016v-34.52535l2.61116,0.9671v33.55824z" fill="#666dff"/><path d="M177.7079,291.87689v-33.55825l2.61118,-0.9671v34.52535z" data-paper-data="{&quot;index&quot;:null}" fill="#565dd8"/><path d="M175.14137,291.98847v-34.52535l2.61116,0.9671v33.55825z" fill="#666dff"/><path d="M146.37025,253.37715v-5.22232l31.62406,10.15452v5.22232z" fill="#666dff"/></g><g stroke="#563a16"><path d="M149.44915,43.07646l5.4678,-0.22317l28.56655,9.48498l-2.45495,0.78111z" fill="#d82020"/><path d="M152.16807,78.13882l-0.20834,-5.22231l29.33239,9.11285v5.22231z" fill="#d82020"/><path d="M152.70201,62.55929l0.41667,-6.05566l27.66573,9.52952v5.22232z" fill="#d82020"/><g data-paper-data="{&quot;index&quot;:null}"><path d="M165.48219,95.9894v34.52534l-2.61116,3.09471v-37.62005z" data-paper-data="{&quot;index&quot;:null}" fill="#d82020"/><path d="M162.91568,95.8778v37.62006l-2.61116,-3.09471v-34.52535z" fill="#ff2727"/></g><g data-paper-data="{&quot;index&quot;:null}"><path d="M183.35414,79.62611v34.52535l-2.61116,3.09471v-37.62007z" data-paper-data="{&quot;index&quot;:null}" fill="#d82020"/><path d="M180.78764,79.51452v37.62007l-2.61116,-3.09471v-34.52535z" fill="#ff2727"/></g><g data-paper-data="{&quot;index&quot;:null}"><path d="M135.87849,104.03213v17.50445l-2.61116,3.09471v-20.59916z" data-paper-data="{&quot;index&quot;:null}" fill="#d82020"/><path d="M133.31197,103.92053v20.59915l-2.61116,-3.09471v-17.50444z" fill="#ff2727"/></g><g><path d="M161.85704,116.64538l-32.11568,-10.81574l0.03325,-2.41493l51.7638,-16.13636l-0.46357,2.92561z" fill="#d82020"/><path d="M161.93941,113.96621l-32.11569,-10.81574l19.57156,-26.45792l32.17859,9.99889z" fill="#ff2727"/></g><path d="M152.017,77.32405v-33.55825l2.61116,-0.9671v34.52535z" data-paper-data="{&quot;index&quot;:null}" fill="#d82020"/><path d="M149.45047,77.43563v-34.52534l2.61116,0.9671v33.55825z" fill="#ff2727"/><path d="M180.78813,86.63236v-33.55825l2.61118,-0.9671v34.52535z" data-paper-data="{&quot;index&quot;:null}" fill="#d82020"/><path d="M178.22159,86.74394v-34.52535l2.61116,0.9671v33.55825z" fill="#ff2727"/><path d="M149.45047,48.13262v-5.22232l31.62406,10.15452v5.22232z" fill="#ff2727"/></g><g data-paper-data="{&quot;index&quot;:null}" stroke="#563a16"><path d="M63.12806,240.36788l-2.45495,-0.78111l28.56656,-9.48498l5.4678,0.22318z" fill="#d82020"/><path d="M62.8645,274.50017v-5.22231l29.3324,-9.11285l-0.20834,5.22231z" fill="#d82020"/><path d="M63.37223,258.50397v-5.22232l27.66573,-9.52952l0.41667,6.05566z" fill="#d82020"/><g data-paper-data="{&quot;index&quot;:null}"><path d="M81.28559,283.23789v37.62006l-2.61116,-3.09471v-34.52535z" data-paper-data="{&quot;index&quot;:null}" fill="#d82020"/><path d="M83.85211,283.1263v34.52535l-2.61116,3.09471v-37.62006z" fill="#ff2727"/></g><g data-paper-data="{&quot;index&quot;:null}"><path d="M63.41365,266.8746v37.62007l-2.61116,-3.09471v-34.52535z" data-paper-data="{&quot;index&quot;:null}" fill="#d82020"/><path d="M65.98015,266.76302v34.52535l-2.61116,3.09471v-37.62007z" fill="#ff2727"/></g><g data-paper-data="{&quot;index&quot;:null}"><path d="M110.88929,291.28062v20.59916l-2.61116,-3.09471v-17.50445z" data-paper-data="{&quot;index&quot;:null}" fill="#d82020"/><path d="M113.45581,291.16903v17.50444l-2.61116,3.09471v-20.59915z" fill="#ff2727"/></g><g><path d="M63.08179,277.45247l-0.46357,-2.92561l51.76381,16.13636l0.03325,2.41494l-32.11568,10.81574z" fill="#d82020"/><path d="M62.58276,273.93994l32.17859,-9.99889l19.57156,26.45792l-32.11569,10.81574z" fill="#ff2727"/></g><path d="M89.52847,264.57255v-34.52535l2.61116,0.9671v33.55825z" data-paper-data="{&quot;index&quot;:null}" fill="#d82020"/><path d="M92.095,264.68413v-33.55824l2.61116,-0.9671v34.52534z" fill="#ff2727"/><path d="M60.75733,273.88086v-34.52535l2.61118,0.9671v33.55825z" data-paper-data="{&quot;index&quot;:null}" fill="#d82020"/><path d="M63.32388,273.99244v-33.55825l2.61116,-0.9671v34.52534z" fill="#ff2727"/><path d="M63.0821,245.53563v-5.22232l31.62406,-10.15452v5.22232z" fill="#ff2727"/></g><g stroke="#000000"><path d="M-120.89034,-32.69076v-71h622.90992v71z" fill="#afae9f"/><path d="M-120.89034,-89.69074v-35h622.90992v35z" fill="#cccbba"/></g><path d="M79.53357,192.25222v-38.20837h11.18171v38.20837l-5.24143,2.7488z" fill="#398f7e" stroke="#ffffff"/><path d="M158.68278,382.24952l-5.24143,-2.7488v-38.20837h11.18171v38.20837z" data-paper-data="{&quot;index&quot;:null}" fill="#398f7e" stroke="#ffffff"/><path d="M300.53957,386.24621v-38.20837h11.18171v38.20837l-5.24143,2.7488z" fill="#398f7e" stroke="#ffffff"/><path d="M382.97333,236.25102l-5.24143,-2.7488v-38.20837h11.18171v38.20837z" data-paper-data="{&quot;index&quot;:null}" fill="#398f7e" stroke="#ffffff"/><path d="M130.89953,210.11944v-38.20837h11.18171v38.20837l-5.24143,2.7488z" fill="#398f7e" stroke="#ffffff"/><path d="M107.31681,400.11674l-5.24143,-2.7488v-38.20837h11.18171v38.20837z" data-paper-data="{&quot;index&quot;:null}" fill="#398f7e" stroke="#ffffff"/><path d="M351.90554,404.11343v-38.20837h11.18171v38.20837l-5.24143,2.7488z" fill="#398f7e" stroke="#ffffff"/><path d="M331.60736,254.11824l-5.24143,-2.7488v-38.20837h11.18171v38.20837z" data-paper-data="{&quot;index&quot;:null}" fill="#398f7e" stroke="#ffffff"/><path d="M170.73438,167.2381v-38.20837h11.18171v38.20837l-5.24143,2.7488z" fill="#398f7e" stroke="#ffffff"/><path d="M67.48197,357.23539l-5.24143,-2.7488v-38.20837h11.18171v38.20837z" data-paper-data="{&quot;index&quot;:null}" fill="#398f7e" stroke="#ffffff"/><path d="M391.74038,361.23208v-38.20837h11.18171v38.20837l-5.24143,2.7488z" fill="#398f7e" stroke="#ffffff"/><path d="M291.77252,211.2369l-5.24143,-2.7488v-38.20837h11.18171v38.20837z" data-paper-data="{&quot;index&quot;:null}" fill="#398f7e" stroke="#ffffff"/><path d="M112.72927,177.68356v-38.20837h11.18171v38.20837l-5.24143,2.7488z" fill="#398f7e" stroke="#ffffff"/><path d="M125.48708,367.68086l-5.24143,-2.7488v-38.20837h11.18171v38.20837z" data-paper-data="{&quot;index&quot;:null}" fill="#398f7e" stroke="#ffffff"/><path d="M333.73527,371.67754v-38.20837h11.18171v38.20837l-5.24143,2.7488z" fill="#398f7e" stroke="#ffffff"/><path d="M349.77763,221.68236l-5.24143,-2.7488v-38.20837h11.18171v38.20837z" data-paper-data="{&quot;index&quot;:null}" fill="#398f7e" stroke="#ffffff"/><path d="M68.51695,153.21742l-0.01559,-7.86359l118.58818,-26.73391l-0.26916,8.57955l-42.61468,59.5411z" fill="#41a38f" stroke="#ffffff"/><path d="M99.95093,373.98907l-42.61468,-59.5411l-0.26916,-8.57955l118.58818,26.73391l-0.01559,7.86359z" data-paper-data="{&quot;index&quot;:null}" fill="#41a38f" stroke="#ffffff"/><path d="M289.52295,347.2114l-0.01559,-7.86359l118.58818,-26.73391l-0.26916,8.57955l-42.61468,59.5411z" fill="#41a38f" stroke="#ffffff"/><path d="M324.24147,227.99057l-42.61468,-59.5411l-0.26916,-8.57955l118.58818,26.73391l-0.01559,7.86359z" data-paper-data="{&quot;index&quot;:null}" fill="#41a38f" stroke="#ffffff"/><path d="M69.14239,144.85333l42.61468,-59.5411l75.68875,33.52314l-42.61468,59.5411z" fill="#52ccb3" stroke="#ffffff"/><path d="M99.32549,365.62497l-42.61468,-59.5411l75.68875,-33.52314l42.61468,59.5411z" data-paper-data="{&quot;index&quot;:null}" fill="#52ccb3" stroke="#ffffff"/><path d="M323.61604,219.62647l-42.61468,-59.5411l75.68875,-33.52314l42.61468,59.5411z" data-paper-data="{&quot;index&quot;:null}" fill="#52ccb3" stroke="#ffffff"/><g stroke="#563a16"><g data-paper-data="{&quot;index&quot;:null}"><path d="M377.26673,208.89089v37.22682l-2.58386,-3.06236v-34.16446z" data-paper-data="{&quot;index&quot;:null}" fill="#d82020"/><path d="M379.80642,218.78047v24.16446l-2.58386,3.06236v-31.63858z" fill="#ff2727"/></g><g data-paper-data="{&quot;index&quot;:null}"><path d="M348.93976,213.6417v37.22682l-2.58386,-3.06236v-34.16446z" data-paper-data="{&quot;index&quot;:null}" fill="#d82020"/><path d="M351.47945,213.53128v34.16446l-2.58386,3.06236v-37.22682z" fill="#ff2727"/></g><g><path d="M346.17368,215.58796l-0.17289,-2.60013l44.06456,18.26438l-0.16341,2.11842l-28.99939,6.91529z" fill="#ff2727"/><path d="M346.3151,213.23414l28.69076,-6.95795l15.0375,24.74061l-28.99939,6.91529z" fill="#d82020"/></g><g data-paper-data="{&quot;index&quot;:null}"><path d="M388.45815,222.48048v37.22682l-2.58386,-3.06236v-34.16446z" data-paper-data="{&quot;index&quot;:null}" fill="#d82020"/><path d="M390.99784,222.37005v34.16446l-2.58386,3.06236v-37.22682z" fill="#ff2727"/></g><g data-paper-data="{&quot;index&quot;:null}"><path d="M360.13117,227.23128v37.22682l-2.58386,-3.06236v-34.16446z" data-paper-data="{&quot;index&quot;:null}" fill="#d82020"/><path d="M362.67086,227.12087v34.16446l-2.58386,3.06236v-37.22682z" fill="#ff2727"/></g><g><path d="M385.97303,231.94792v-34.16446l2.58386,0.95699v33.20747z" data-paper-data="{&quot;index&quot;:null}" fill="#ff2727"/><path d="M388.51273,232.05837v-33.20747l2.58386,-0.95699v34.16446z" fill="#ff2727"/><path d="M357.50265,241.15892v-34.16446l2.58386,0.95699v33.20747z" data-paper-data="{&quot;index&quot;:null}" fill="#d82020"/><path d="M360.04235,241.26937v-33.20747l2.58386,-0.95699v34.16446z" fill="#ff2727"/><path d="M359.8031,213.10999v-5.16773l31.2935,-10.04837v5.16773z" fill="#ff2727"/><path d="M360.75684,226.63041v-5.16773l31.2935,-10.04837v5.16773z" fill="#ff2727"/><path d="M359.84857,207.99627l-2.42928,-0.77295l28.26794,-9.38584l5.41066,0.22084z" fill="#d82020"/><path d="M359.58777,241.77176v-5.16773l31.2935,-10.04837v5.16773z" fill="#ff2727"/></g></g><g stroke="#563a16"><g data-paper-data="{&quot;index&quot;:null}"><path d="M153.15476,361.67511v37.22682l-2.58386,-3.06236v-34.16446z" data-paper-data="{&quot;index&quot;:null}" fill="#fff266"/><path d="M155.69445,371.56469v24.16446l-2.58386,3.06236v-31.63858z" fill="#c7bd50"/></g><g data-paper-data="{&quot;index&quot;:null}"><path d="M124.82779,366.42592v37.22682l-2.58386,-3.06236v-34.16446z" data-paper-data="{&quot;index&quot;:null}" fill="#c7bd50"/><path d="M127.36748,366.3155v34.16446l-2.58386,3.06236v-37.22682z" fill="#fff266"/></g><g><path d="M122.06171,368.37218l-0.17289,-2.60013l44.06456,18.26438l-0.16341,2.11842l-28.99939,6.91529z" fill="#fff266"/><path d="M122.20313,366.01836l28.69076,-6.95795l15.0375,24.74061l-28.99939,6.91529z" fill="#c7bd50"/></g><g data-paper-data="{&quot;index&quot;:null}"><path d="M164.34618,375.2647v37.22682l-2.58386,-3.06236v-34.16446z" data-paper-data="{&quot;index&quot;:null}" fill="#c7bd50"/><path d="M166.88587,375.15427v34.16446l-2.58386,3.06236v-37.22682z" fill="#fff266"/></g><g data-paper-data="{&quot;index&quot;:null}"><path d="M136.0192,380.0155v37.22682l-2.58386,-3.06236v-34.16446z" data-paper-data="{&quot;index&quot;:null}" fill="#c7bd50"/><path d="M138.55889,379.90509v34.16446l-2.58386,3.06236v-37.22682z" fill="#fff266"/></g><g><path d="M161.86106,384.73214v-34.16446l2.58386,0.95699v33.20747z" data-paper-data="{&quot;index&quot;:null}" fill="#c7bd50"/><path d="M164.40076,384.84259v-33.20747l2.58386,-0.95699v34.16446z" fill="#fff266"/><path d="M133.39068,393.94314v-34.16446l2.58386,0.95699v33.20747z" data-paper-data="{&quot;index&quot;:null}" fill="#c7bd50"/><path d="M135.93038,394.05359v-33.20747l2.58386,-0.95699v34.16446z" fill="#fff266"/><path d="M135.69113,365.89421v-5.16773l31.2935,-10.04837v5.16773z" fill="#fff266"/><path d="M136.64487,379.41462v-5.16773l31.2935,-10.04837v5.16773z" fill="#fff266"/><path d="M135.7366,360.78049l-2.42928,-0.77295l28.26794,-9.38584l5.41066,0.22084z" fill="#c7bd50"/><path d="M135.4758,394.55598v-5.16773l31.2935,-10.04837v5.16773z" fill="#fff266"/></g></g><g stroke="#563a16"><g data-paper-data="{&quot;index&quot;:null}"><path d="M185.60706,162.63739v37.22682l-2.58386,-3.06236v-34.16446z" data-paper-data="{&quot;index&quot;:null}" fill="#50c758"/><path d="M188.14675,172.52697v24.16446l-2.58386,3.06236v-31.63858z" fill="#5de866"/></g><g data-paper-data="{&quot;index&quot;:null}"><path d="M157.28009,167.3882v37.22682l-2.58386,-3.06236v-34.16446z" data-paper-data="{&quot;index&quot;:null}" fill="#50c758"/><path d="M159.81978,167.27778v34.16446l-2.58386,3.06236v-37.22682z" fill="#5de866"/></g><g><path d="M154.51401,169.33446l-0.17289,-2.60013l44.06456,18.26438l-0.16341,2.11842l-28.99939,6.91529z" fill="#5de866"/><path d="M154.65543,166.98064l28.69076,-6.95795l15.0375,24.74061l-28.99939,6.91529z" fill="#50c758"/></g><g data-paper-data="{&quot;index&quot;:null}"><path d="M196.79848,176.22698v37.22682l-2.58386,-3.06236v-34.16446z" data-paper-data="{&quot;index&quot;:null}" fill="#50c758"/><path d="M199.33817,176.11655v34.16446l-2.58386,3.06236v-37.22682z" fill="#5de866"/></g><g data-paper-data="{&quot;index&quot;:null}"><path d="M168.4715,180.97778v37.22682l-2.58386,-3.06236v-34.16446z" data-paper-data="{&quot;index&quot;:null}" fill="#50c758"/><path d="M171.01119,180.86737v34.16446l-2.58386,3.06236v-37.22682z" fill="#5de866"/></g><g><path d="M194.31336,185.69442v-34.16446l2.58386,0.95699v33.20747z" data-paper-data="{&quot;index&quot;:null}" fill="#50c758"/><path d="M196.85306,185.80487v-33.20747l2.58386,-0.95699v34.16446z" fill="#5de866"/><path d="M165.84298,194.90542v-34.16446l2.58386,0.95699v33.20747z" data-paper-data="{&quot;index&quot;:null}" fill="#50c758"/><path d="M168.38268,195.01587v-33.20747l2.58386,-0.95699v34.16446z" fill="#5de866"/><path d="M168.14343,166.85649v-5.16773l31.2935,-10.04837v5.16773z" fill="#5de866"/><path d="M169.09718,180.37691v-5.16773l31.2935,-10.04837v5.16773z" fill="#5de866"/><path d="M168.1889,161.74277l-2.42928,-0.77295l28.26794,-9.38584l5.41066,0.22084z" fill="#5de866"/><path d="M167.9281,195.51826v-5.16773l31.2935,-10.04837v5.16773z" fill="#5de866"/></g></g><g stroke="#563a16"><path d="M374.02659,240.64188l5.4678,-0.22318l28.56656,9.48499l-2.45495,0.78111z" fill="#c7bd50"/><path d="M376.74551,275.70423l-0.20834,-5.22231l29.3324,9.11285v5.22231z" fill="#c7bd50"/><path d="M377.27944,260.12471l0.41667,-6.05566l27.66573,9.52952v5.22232z" fill="#c7bd50"/><g data-paper-data="{&quot;index&quot;:null}"><path d="M390.05963,293.55481v34.52535l-2.61116,3.09471v-37.62006z" data-paper-data="{&quot;index&quot;:null}" fill="#d82020"/><path d="M387.49311,293.44322v37.62006l-2.61116,-3.09471v-34.52535z" fill="#ff2727"/></g><g data-paper-data="{&quot;index&quot;:null}"><path d="M407.93158,277.19153v34.52535l-2.61116,3.09471v-37.62007z" data-paper-data="{&quot;index&quot;:null}" fill="#c7bd50"/><path d="M405.36507,277.07993v37.62007l-2.61116,-3.09471v-34.52535z" fill="#fff266"/></g><g data-paper-data="{&quot;index&quot;:null}"><path d="M360.45593,301.59754v17.50445l-2.61116,3.09471v-20.59916z" data-paper-data="{&quot;index&quot;:null}" fill="#d82020"/><path d="M357.88941,301.48595v20.59915l-2.61116,-3.09471v-17.50444z" fill="#ff2727"/></g><g><path d="M386.43447,314.2108l-32.11568,-10.81574l0.03325,-2.41494l51.76381,-16.13636l-0.46357,2.92561z" fill="#c7bd50"/><path d="M386.51685,311.53162l-32.11569,-10.81574l19.57157,-26.45792l32.17859,9.99889z" fill="#fff266"/></g><path d="M376.59444,274.88947v-33.55825l2.61116,-0.9671v34.52535z" data-paper-data="{&quot;index&quot;:null}" fill="#c7bd50"/><path d="M374.02791,275.00105v-34.52534l2.61116,0.9671v33.55824z" fill="#fff266"/><path d="M405.36556,284.19778v-33.55825l2.61118,-0.9671v34.52535z" data-paper-data="{&quot;index&quot;:null}" fill="#c7bd50"/><path d="M402.79903,284.30936v-34.52535l2.61116,0.9671v33.55825z" fill="#fff266"/><path d="M374.02791,245.69803v-5.22232l31.62406,10.15452v5.22232z" fill="#fff266"/></g><path d="M290.1484,338.84732l42.61468,-59.5411l75.68875,33.52314l-42.61468,59.5411z" fill="#52ccb3" stroke="#ffffff"/><g data-paper-data="{&quot;index&quot;:null}" stroke="#563a16"><g data-paper-data="{&quot;index&quot;:null}"><path d="M417.56331,346.32465v37.22682l-2.58386,-3.06236v-34.16446z" data-paper-data="{&quot;index&quot;:null}" fill="#50c758"/><path d="M420.103,356.21422v24.16446l-2.58386,3.06236v-31.63858z" fill="#5de866"/></g><g data-paper-data="{&quot;index&quot;:null}"><path d="M389.23634,351.07546v37.22682l-2.58386,-3.06236v-34.16446z" data-paper-data="{&quot;index&quot;:null}" fill="#50c758"/><path d="M391.77603,350.96504v34.16446l-2.58386,3.06236v-37.22682z" fill="#5de866"/></g><g><path d="M386.47026,353.02172l-0.17289,-2.60013l44.06456,18.26438l-0.16341,2.11842l-28.99939,6.91529z" fill="#5de866"/><path d="M386.61168,350.6679l28.69076,-6.95795l15.0375,24.74061l-28.99939,6.91529z" fill="#50c758"/></g><g data-paper-data="{&quot;index&quot;:null}"><path d="M428.75473,359.91424v37.22682l-2.58386,-3.06236v-34.16446z" data-paper-data="{&quot;index&quot;:null}" fill="#50c758"/><path d="M431.29442,359.80381v34.16446l-2.58386,3.06236v-37.22682z" fill="#5de866"/></g><g data-paper-data="{&quot;index&quot;:null}"><path d="M400.42775,364.66504v37.22682l-2.58386,-3.06236v-34.16446z" data-paper-data="{&quot;index&quot;:null}" fill="#50c758"/><path d="M402.96744,364.55463v34.16446l-2.58386,3.06236v-37.22682z" fill="#5de866"/></g><g><path d="M426.26961,369.38168v-34.16446l2.58386,0.95699v33.20747z" data-paper-data="{&quot;index&quot;:null}" fill="#50c758"/><path d="M428.80931,369.49213v-33.20747l2.58386,-0.95699v34.16446z" fill="#5de866"/><path d="M397.79923,378.59268v-34.16446l2.58386,0.95699v33.20747z" data-paper-data="{&quot;index&quot;:null}" fill="#50c758"/><path d="M400.33893,378.70313v-33.20747l2.58386,-0.95699v34.16446z" fill="#5de866"/><path d="M400.09968,350.54375v-5.16773l31.2935,-10.04837v5.16773z" fill="#5de866"/><path d="M401.05342,364.06416v-5.16773l31.2935,-10.04837v5.16773z" fill="#5de866"/><path d="M400.14515,345.43003l-2.42928,-0.77295l28.26794,-9.38584l5.41066,0.22084z" fill="#5de866"/><path d="M399.88435,379.20552v-5.16773l31.2935,-10.04837v5.16773z" fill="#5de866"/></g></g><g data-paper-data="{&quot;index&quot;:null}"><path d="M-72.59493,-8.96738l0.07847,-11.22121l47.97912,-0.37892l-0.24271,11.60016l-23.90744,23.90744z" fill="#aa7d24" stroke="none"/><path d="M-72.13051,-20.57801l23.90744,-23.90744l23.90744,23.90744l-23.90744,23.90744z" fill="#c5922a" stroke="none"/><path d="M-38.56332,-6.14071l-24.09396,-24.09395l4.76178,-4.7618l24.0053,24.0053l-0.08124,11.09033l-4.67313,4.85045z" fill="#ab8974" stroke="#9e7c36"/><path d="M-38.56332,-5.96338l4.67312,-4.85045l-0.08124,11.09033l-4.67313,4.85045z" fill="#a1816d" stroke="#9e7c36"/></g><g data-paper-data="{&quot;index&quot;:null}"><path d="M-90.59493,40.3772l0.11017,-15.75309l67.35629,-0.53195l-0.34073,16.28508l-33.56286,33.56286z" fill="#aa7d24" stroke="none"/><path d="M-89.94295,24.07742l33.56286,-33.56286l33.56286,33.56286l-33.56286,33.56286z" fill="#c5922a" stroke="none"/><path d="M-42.81908,44.34545l-33.8247,-33.8247l6.68491,-6.68493l33.70024,33.70025l-0.11405,15.56934l-6.56045,6.80938z" fill="#ab8974" stroke="#9e7c36"/><path d="M-42.81908,44.59441l6.56045,-6.80939l-0.11405,15.56935l-6.56045,6.80938z" fill="#a1816d" stroke="#9e7c36"/></g><path d="M-125.06156,104.93247v-229.37317l44.0991,-0.36257v229.73574z" fill="#cccbba" stroke="#000000"/><g stroke="#000000"><path d="M-125.39485,164.00594v-71h131.91893v71z" fill="#afae9f"/><path d="M-125.39485,107.00595v-35h131.91893v35z" fill="#cccbba"/></g><path d="M-22.99545,513.34088v-442.24989l55,-0.69905v442.94895z" fill="#cccbba" stroke="#000000"/></g></g></svg>