<svg version="1.1" xmlns="http://www.w3.org/2000/svg" xmlns:xlink="http://www.w3.org/1999/xlink" width="261.26126" height="282.27363" viewBox="0,0,261.26126,282.27363"><g transform="translate(-125.13514,-23.84817)"><g data-paper-data="{&quot;isPaintingLayer&quot;:true}" fill-rule="nonzero" stroke-width="0" stroke-linecap="butt" stroke-linejoin="miter" stroke-miterlimit="10" stroke-dasharray="" stroke-dashoffset="0" style="mix-blend-mode: normal"><g stroke="#000000"><path d="M177.32697,218.87591v-32.23154h125.34607v32.23154z" fill="#616161"/><path d="M177.32697,209.50091v-32.23154h125.34607v32.23154z" fill="#737373"/></g><path d="M193.49016,204.70675v-55.37789h10.625v55.37789z" fill="#4d4d4d" stroke="#000000"/><path d="M273.8037,204.70675v-55.37789h10.625v55.37789z" fill="#4d4d4d" stroke="#000000"/><path d="M302.67305,187.14136h-125.34607v-39.46933h125.34607z" fill="#636363" stroke="#000000"/><path d="M302.67305,178.31605h-125.34607v-39.46933h125.34607z" fill="#9e9e9e" stroke="#000000"/><g><path d="M264.31559,165.50889l10.61693,-14.39618l1.94558,1.43484l-10.61693,14.39618z" fill="#3c3543" stroke="#000000"/><path d="M262.14074,167.46044l9.09425,-12.33148l2.89852,2.13761l-9.09425,12.33148z" fill="#362f3c" stroke="#000000"/><path d="M268.14633,147.76314l3.04955,-4.13507l11.94576,8.8098c0,0 1.52564,1.57581 1.86455,2.66125c0.41898,1.34192 0.46048,4.78527 0.46048,4.78527c0,0 -1.37191,-3.35739 -2.84157,-4.06528c-1.26716,-0.61036 -3.48593,0.05106 -3.48593,0.05106z" fill="#1e1a21" stroke="none"/><path d="M267.64212,145.89381l1.69838,-2.30294l1.35,0.9956l-1.69838,2.30294z" fill="#1e1a21" stroke="none"/><path d="M265.19228,145.55832l3.04536,-4.1294l1.98528,1.46412l-3.04536,4.1294z" fill="#1e1a21" stroke="none"/></g><path d="M125.13515,306.1218v-282.27363h261.26126v282.27363z" fill="none" stroke="#000000"/></g></g></svg>