<svg version="1.1" xmlns="http://www.w3.org/2000/svg" xmlns:xlink="http://www.w3.org/1999/xlink" width="652.55255" height="431" viewBox="0,0,652.55255,431"><g transform="translate(7.02703,32.497)"><g stroke-miterlimit="10"><path d="M-7.02702,398.50301v-431h652.55255v431z" fill="#000000" stroke="#464646" stroke-width="0"/><g><g stroke="none" stroke-width="1" font-weight="normal" font-size="40" text-anchor="start"><text transform="translate(415.26725,340.05466) rotate(-4.86313) scale(1.21385,0.97496) skewX(-0.00016)" font-size="40" xml:space="preserve" fill="#ff0000" font-family="&quot;ヒラギノ角ゴ Pro W3&quot;, &quot;Hiragino Kaku Gothic Pro&quot;, Osaka, &quot;メイリオ&quot;, Meiryo, &quot;ＭＳ Ｐゴシック&quot;, &quot;MS PGothic&quot;"><tspan x="0" dy="0">P</tspan></text><text transform="translate(447.17283,335.92559) rotate(-10.14347) scale(0.88375,0.88375)" font-size="40" xml:space="preserve" fill="#d66e00" font-family="Sans Serif"><tspan x="0" dy="0">O</tspan></text><text transform="translate(469.92442,328.39048) rotate(3.7344) scale(0.88375,0.88375)" font-size="40" xml:space="preserve" fill="#00ff06" font-family="Sans Serif"><tspan x="0" dy="0">C</tspan></text><text transform="translate(495.47376,333.13842) rotate(-2.74605) scale(0.88375,0.88375)" font-size="40" xml:space="preserve" fill="#5600ff" font-family="Sans Serif"><tspan x="0" dy="0">K</tspan></text><text transform="translate(520.39069,338.96983) rotate(-5.4382) scale(0.88375,0.88375)" font-size="40" xml:space="preserve" fill="#d300ff" font-family="Sans Serif"><tspan x="0" dy="0">E</tspan></text><text transform="translate(544.00622,343.32285) rotate(-11.40199) scale(0.88375,0.88375)" font-size="40" xml:space="preserve" fill="#ffffff" font-family="Sans Serif"><tspan x="0" dy="0">T</tspan></text></g><g><text transform="translate(340.29607,291.79241) scale(0.59773,0.59773)" font-size="40" xml:space="preserve" fill="#ffffff" stroke="#ffffff" stroke-width="1" font-family="Sans Serif" font-weight="normal" text-anchor="start"><tspan x="0" dy="0">GARTEN OF</tspan></text><g><text transform="translate(477.9914,292.92124) rotate(7.79409) scale(0.93759,0.93759)" font-size="40" xml:space="preserve" fill="#00ff06" stroke="#00ff06" stroke-width="1" font-family="Sans Serif" font-weight="normal" text-anchor="start"><tspan x="0" dy="0">B</tspan></text><text transform="translate(554.52128,301.95479) rotate(4.98765) scale(0.93759,0.93759)" font-size="40" xml:space="preserve" fill="#d300ff" stroke="#d300ff" stroke-width="1" font-family="Sans Serif" font-weight="normal" text-anchor="start"><tspan x="0" dy="0">B</tspan></text><text transform="translate(609.03393,297.55488) rotate(-8.64261) scale(0.87945,0.87945)" font-size="40" xml:space="preserve" fill="#d66e00" stroke="#d66e00" stroke-width="1" font-family="Sans Serif" font-weight="normal" text-anchor="start"><tspan x="0" dy="0">N</tspan></text><g stroke="#ff0000"><text transform="translate(529.89232,299.01677) rotate(-3.06578) scale(0.9376,0.81825) skewX(0.00018)" font-size="40" xml:space="preserve" fill="#ff0000" stroke-width="2" font-family="Sans Serif" font-weight="normal" text-anchor="start"><tspan x="0" dy="0">N</tspan></text><path d="M549.87791,273.35918c0,0 1.38022,-5.32583 1.70891,-6.5941c0.10299,-0.39736 0.58588,-0.27564 0.73072,0.10844c0.47667,1.26399 2.34905,6.22913 2.34905,6.22913z" fill="#ffb36b" stroke-width="0.5"/><path d="M531.8137,274.32687c0,0 1.49485,-5.33198 1.8508,-6.6017c0.11153,-0.39783 0.62722,-0.27785 0.7806,0.10578c0.5048,1.2625 2.48772,6.2217 2.48772,6.2217z" fill="#ffb36b" stroke-width="0.5"/></g><g stroke="#ffffff"><text transform="translate(502.22214,300.25247) scale(0.93759,0.93759)" font-size="40" xml:space="preserve" fill="#ffffff" stroke-width="1" font-family="Sans Serif" font-weight="normal" text-anchor="start"><tspan x="0" dy="0">A</tspan></text><g stroke-width="0.5"><path d="M511.7419,271.36816c0.47473,-1.26411 1.0555,-2.8106 1.27973,-3.40771c0.18228,-0.48538 0.70222,-0.50326 0.98652,-0.06968c0.63374,0.96654 1.66457,2.35339 2.54906,2.68555c0.93772,0.35215 2.9685,0.00018 4.20268,-0.26939c0.55325,-0.12085 0.78803,0.36839 0.58896,0.89855c-0.50995,1.35791 -1.32506,3.52843 -1.58997,4.23381c-0.18633,0.49616 -0.73476,0.37404 -1.05414,-0.04891c-0.73085,-0.96778 -1.88221,-2.34683 -2.72023,-2.66156c-0.94666,-0.3555 -2.75553,-0.03578 -3.9025,0.2306c-0.61461,0.14274 -0.34012,-1.59128 -0.34012,-1.59128z" fill="#ff88f7"/><path d="M515.04307,272.72573l0.9695,-2.58159l1.75549,0.65925l-0.9695,2.58159z" fill="#c17266"/></g></g><g><text transform="translate(583.02731,298.49347) rotate(-3.85985) scale(0.93759,0.82924) skewX(-0.00038)" font-size="40" xml:space="preserve" fill="#5600ff" stroke="#5600ff" stroke-width="2" font-family="Sans Serif" font-weight="normal" text-anchor="start"><tspan x="0" dy="0">A</tspan></text><path d="M588.33005,292.57613c0,0 1.06693,-0.73673 1.30007,-1.14113c0.46584,-0.80807 0.66721,-1.66309 1.68331,-1.73163c0.43779,-0.02954 1.34499,0.70081 1.37157,1.09479c0.02657,0.39399 -1.10882,1.62495 -1.71614,1.70657c-0.81111,0.10901 -2.63882,0.0714 -2.63882,0.0714z" fill="#ffffff" stroke="none" stroke-width="0"/><path d="M598.74197,292.07928c-0.61277,0.0007 -1.9032,-1.06663 -1.9298,-1.46059c-0.02657,-0.39399 0.7743,-1.23957 1.2121,-1.2691c1.0161,-0.06854 1.33048,0.75169 1.90063,1.48987c0.28535,0.36942 1.44154,0.95616 1.44154,0.95616c0,0 -1.8061,0.28276 -2.62449,0.28368z" fill="#ffffff" stroke="none" stroke-width="0"/></g></g></g></g><text transform="translate(218.77765,186.89488) scale(0.59761,0.59761)" font-size="40" xml:space="preserve" fill="#ffffff" stroke="none" stroke-width="1" font-family="Sans Serif" font-weight="normal" text-anchor="start"><tspan x="0" dy="0">To be continued...</tspan></text></g></g></svg>