<svg version="1.1" xmlns="http://www.w3.org/2000/svg" xmlns:xlink="http://www.w3.org/1999/xlink" width="82.73059" height="64.53914" viewBox="0,0,82.73059,64.53914"><g transform="translate(-191.05175,-148.54343)"><g data-paper-data="{&quot;isPaintingLayer&quot;:true}" fill-rule="nonzero" stroke="none" stroke-width="0" stroke-linecap="butt" stroke-linejoin="miter" stroke-miterlimit="10" stroke-dasharray="" stroke-dashoffset="0" style="mix-blend-mode: normal"><path d="" fill="#f0a787"/><path d="" fill="#000000"/><g><path d="M273.64624,196.49924c0.66364,0.9429 -1.38187,1.70409 -1.28096,2.7306c0.03402,0.34609 1.21352,0.60752 1.38182,1.39901c0.20148,0.94738 -0.76315,2.22657 -0.95603,2.84791c-0.37197,1.19831 -1.01087,2.56381 -1.31428,3.1957c-0.87677,1.82597 -5.5793,-0.40228 -7.4724,-0.21617c-2.15895,0.21225 -10.2588,5.52129 -12.90278,4.02524c-1.24027,-0.70179 1.68603,-7.35265 1.56461,-8.5877c-0.08496,-0.86411 9.99373,-0.92701 10.1027,-1.51199c0.37877,-2.03349 1.90022,-2.55712 4.36335,-2.79928c2.32995,-0.22906 6.14578,-1.74443 6.51396,-1.08331z" data-paper-data="{&quot;index&quot;:null}" fill="#f2a685"/><path d="M270.30699,202.45825l2.65111,-2.52343c0,0 0.80377,0.43962 0.82344,0.74349c0.02469,0.38112 -0.53307,1.49074 -0.53307,1.49074l-2.81635,0.84256z" data-paper-data="{&quot;index&quot;:null}" fill="#d0735b"/></g><g data-paper-data="{&quot;index&quot;:null}"><path d="M191.05349,163.71959c-0.03282,-0.75602 4.01128,-1.46467 6.11581,-2.49038c2.22482,-1.08433 3.79508,-1.43551 5.18318,0.09802c0.39932,0.44115 9.0167,-4.78614 9.39711,-4.00562c0.5437,1.11557 6.52096,5.2471 5.83228,6.4947c-1.46811,2.65961 -11.14882,2.3817 -13.09891,3.33213c-1.70994,0.8334 -4.54775,5.19524 -6.25128,4.09938c-0.58952,-0.37922 -1.84917,-1.20751 -2.79385,-2.03326c-0.48985,-0.42816 -1.98171,-1.01228 -2.30648,-1.92476c-0.27135,-0.76233 0.59628,-1.60301 0.44392,-1.91562c-0.4519,-0.9272 -2.59298,-0.50376 -2.52178,-1.65458z" data-paper-data="{&quot;index&quot;:null}" fill="#f2a685"/><path d="M197.20333,167.58238l-2.84027,0.75802c0,0 -1.05647,-0.65287 -1.23513,-0.99041c-0.14246,-0.26913 0.3118,-1.06472 0.3118,-1.06472l3.58024,0.76021z" data-paper-data="{&quot;index&quot;:null}" fill="#d0735b"/></g><g><path d="M220.63669,170.19586c-5.86873,0 -11.25223,-2.94456 -11.25223,-8.81328c0,-5.86873 7.8835,-12.43925 13.75223,-12.43925c1.75494,0 8.91052,0.02542 10.36923,0.77876c3.41939,1.76592 -2.24297,5.73372 -2.24297,9.8475c0,5.86873 -4.75754,10.62626 -10.62626,10.62626z" fill="#376fac"/><path d="M244.43669,213.05668c-5.45239,0 -16.53236,0.69199 -17.45271,-5.07948c-1.2826,-8.04309 9.30799,-16.17304 17.45271,-16.17304c5.86873,0 10.62626,4.75754 10.62626,10.62626c0,5.86872 -4.75754,10.62626 -10.62626,10.62626z" fill="#376fac"/><path d="M231.76998,211.59731c-10.61777,-0.15099 -15.55234,-14.33357 -15.55234,-31.66767c0,-17.33411 3.51465,-31.41055 15.4116,-31.38618c10.05443,0.0206 15.4116,14.05207 15.4116,31.38618c0,17.33411 -2.95315,31.84284 -15.27085,31.66767z" fill="#4f9ee3"/><path d="M237.57252,193.80084c-1.17914,0.03138 -2.28458,-0.83722 -3.31934,-0.91372c-9.40584,-0.69543 -12.97191,-4.87365 -12.97191,-11.8589c0,-6.42226 1.59585,-11.34677 10.23946,-12.98201c1.79198,-0.33902 3.88688,-1.07544 6.33328,-1.05731c8.86287,0.06567 16.57275,6.28562 16.57275,14.03934c0,7.75371 -7.70461,12.52909 -16.85424,12.77263z" fill="#f0a787"/><path d="M253.52951,182.55882c-1.16597,0 -2.11118,-0.94521 -2.11118,-2.11118c0,-1.16597 0.94521,-2.11118 2.11118,-2.11118c1.16597,0 2.63898,0.73408 2.74453,2.00562c0.09646,1.16197 -1.57857,2.21674 -2.74453,2.21674z" fill="#f0a787"/><path d="M234.58168,193.53694c-9.28276,0 -13.77544,-4.64083 -13.77544,-11.92816c0,-3.97536 0.04282,-8.1649 2.95564,-11.00415c2.63666,-2.57007 7.73612,-2.87249 11.34759,-3.35186c0.50754,-0.06738 3.67276,-0.71128 5.93437,0.57982c1.99467,1.13871 3.14577,4.22813 3.14577,4.22813c0,0 0.23964,-2.10482 1.32501,-1.33522c1.5621,1.10763 0.37794,2.63823 0.37794,2.63823c0,0 0.9901,-1.80735 1.68503,-1.03805c0.86012,0.95216 -0.41492,3.09566 -0.41492,3.09566l2.25003,-1.30724c0,0 1.1092,5.23659 -2.64449,12.66389c-0.94983,1.8794 -4.43819,4.55979 -4.43819,4.55979c0,0 1.67186,1.39012 0.06508,1.93782c-2.56898,1.07965 -6.52146,0.26133 -7.81342,0.26133z" fill="#000000"/></g></g></g></svg>