<svg version="1.1" xmlns="http://www.w3.org/2000/svg" xmlns:xlink="http://www.w3.org/1999/xlink" width="70.16667" height="70.16667" viewBox="0,0,70.16667,70.16667"><g transform="translate(-204.91669,-144.91669)"><g data-paper-data="{&quot;isPaintingLayer&quot;:true}" fill-rule="nonzero" stroke-linecap="butt" stroke-linejoin="miter" stroke-miterlimit="10" stroke-dasharray="" stroke-dashoffset="0" style="mix-blend-mode: normal"><g stroke="#ffffff" stroke-width="1.5"><path d="M248.18653,180.48063c0,5.05823 -3.23309,7.04518 -7.22131,7.04518c-3.98822,0 -7.57357,-1.45856 -7.57357,-6.51679c0,-5.05823 3.58535,-11.80067 7.57357,-11.80067c3.98822,0 7.22131,6.21406 7.22131,11.27228z" fill="#f744b6"/><path d="M241.05727,174.41159c0,-1.08946 0.88319,-1.97265 1.97265,-1.97265c1.08946,0 1.97265,0.88319 1.97265,1.97265c0,1.08946 -0.88319,1.97265 -1.97265,1.97265c-1.08946,0 -1.97265,-0.88319 -1.97265,-1.97265z" fill="#d23b9b"/><path d="M238.18049,175.35683c0,-0.61282 0.49679,-1.10962 1.10962,-1.10962c0.61282,0 1.10962,0.49679 1.10962,1.10962c0,0.61282 -0.49679,1.10962 -1.10962,1.10962c-0.61282,0 -1.10962,-0.49679 -1.10962,-1.10962z" fill="#d23b9b"/><path d="M243.1943,178.60348c0,-0.49934 0.40479,-0.90413 0.90413,-0.90413c0.49934,0 0.90413,0.40479 0.90413,0.90413c0,0.49934 -0.40479,0.90413 -0.90413,0.90413c-0.49934,0 -0.90413,-0.40479 -0.90413,-0.90413z" fill="#d23b9b"/></g><path d="M204.9167,215.08337v-70.16667h70.16667v70.16667z" fill="none" stroke="none" stroke-width="0"/><g stroke-width="0"><path d="M248.18653,180.48063c0,5.05823 -3.23309,7.04518 -7.22131,7.04518c-3.98822,0 -7.57357,-1.45856 -7.57357,-6.51679c0,-5.05823 3.58535,-11.80067 7.57357,-11.80067c3.98822,0 7.22131,6.21406 7.22131,11.27228z" fill="#f744b6" stroke="#ff0000"/><path d="M234.48758,176.03825l0.95893,-2.32882c0,0 0.6432,5.66679 2.50556,6.92776c1.43244,0.96988 3.17224,-0.68297 5.54237,-0.18747c1.58251,0.33084 4.28113,2.98597 4.28113,2.98597l-0.95893,1.64387c0,0 -2.39216,-1.81643 -5.13095,-2.40327c-1.8535,-0.39715 -4.0885,0.58558 -4.99428,-0.05559c-1.36707,-0.9677 -2.20384,-6.58246 -2.20384,-6.58246z" fill="#d23b9b" stroke="#ff0000"/><path d="M241.05727,174.41159c0,-1.08946 0.88319,-1.97265 1.97265,-1.97265c1.08946,0 1.97265,0.88319 1.97265,1.97265c0,1.08946 -0.88319,1.97265 -1.97265,1.97265c-1.08946,0 -1.97265,-0.88319 -1.97265,-1.97265z" fill="#d23b9b" stroke="#ff0000"/><path d="M238.18049,175.35683c0,-0.61282 0.49679,-1.10962 1.10962,-1.10962c0.61282,0 1.10962,0.49679 1.10962,1.10962c0,0.61282 -0.49679,1.10962 -1.10962,1.10962c-0.61282,0 -1.10962,-0.49679 -1.10962,-1.10962z" fill="#d23b9b" stroke="none"/><path d="M243.1943,178.60348c0,-0.49934 0.40479,-0.90413 0.90413,-0.90413c0.49934,0 0.90413,0.40479 0.90413,0.90413c0,0.49934 -0.40479,0.90413 -0.90413,0.90413c-0.49934,0 -0.90413,-0.40479 -0.90413,-0.90413z" fill="#d23b9b" stroke="none"/></g></g></g></svg>