<svg version="1.1" xmlns="http://www.w3.org/2000/svg" xmlns:xlink="http://www.w3.org/1999/xlink" width="573.79122" height="555" viewBox="0,0,573.79122,555"><g transform="translate(40.5,95)"><g data-paper-data="{&quot;isPaintingLayer&quot;:true}" fill-rule="nonzero" stroke-linecap="butt" stroke-linejoin="miter" stroke-miterlimit="10" stroke-dasharray="" stroke-dashoffset="0" style="mix-blend-mode: normal"><path d="M375.10952,143.9453c-0.24515,-1.22573 0.98058,-1.47087 0.98058,-1.47087l0.16153,0.06371c0.63176,-0.41263 1.21246,-0.91776 1.70387,-1.49038c0,0 0.82313,-0.94072 1.76385,-0.11759c0.94072,0.82313 0.11759,1.76385 0.11759,1.76385c-0.64676,0.72815 -1.39221,1.3781 -2.19857,1.92425l-1.05799,0.30761c0,0 -1.22573,0.24515 -1.47087,-0.98058z" fill="#000000" stroke="none" stroke-width="0.5"/><path d="M382.36755,255.13881c0.09796,1.31715 -1.60715,1.85848 -1.60715,1.85848l-0.16157,-0.01789c-1.23277,0.71535 -2.53188,1.33244 -3.84245,1.83522c0,0 -1.69257,0.64075 -1.92102,-0.63101c-0.22845,-1.27176 1.46413,-1.91251 1.46413,-1.91251c1.03706,-0.38598 2.06715,-0.87379 3.03507,-1.44847l1.22992,-0.45965c0,0 1.70511,-0.54132 1.80307,0.77583z" fill="#000000" stroke="none" stroke-width="0.5"/><g stroke="#000000" stroke-width="0"><path d="M288.5,28v-102h243.02161v102z" fill="#afae9f"/><path d="M288.5,-60v-35h243.02161v35z" fill="#cccbba"/></g><g stroke="#000000" stroke-width="0"><path d="M-40.5,28v-102h231v102z" fill="#afae9f"/><path d="M-40.5,-60v-35h231v35z" fill="#cccbba"/></g><path d="M-39.7268,457.39172v-68.89172h55v68.89172z" fill="#afae9f" stroke="#000000" stroke-width="0"/><path d="M-39.7268,402.5v-300.0961h55v300.0961z" fill="#cccbba" stroke="#000000" stroke-width="0"/><path d="M478.29122,400.9985v-300.0961h55v300.0961z" fill="#cccbba" stroke="#000000" stroke-width="0"/><path d="M-10.5,460v-71h542.54955v71z" fill="#afae9f" stroke="#000000" stroke-width="0"/><path d="M-10.5,403v-35h542.54955v35z" fill="#cccbba" stroke="#000000" stroke-width="0"/><g stroke-width="0"><path d="M16.5829,313.47517v-168.75h74.16666v168.75z" fill="#81582c" stroke="none"/><path d="M16.5829,313.47517v-168.75h26.38889v168.75z" fill="#5f4120" stroke="none"/><path d="M16.5829,303.89184v-168.75h74.16666v168.75z" fill="#9f6d36" stroke="none"/><path d="M16.5829,303.89184v-168.75h26.66666v168.75z" fill="#734e27" stroke="none"/><path d="M24.13251,293.60811v-148.33333h58.88889v148.33333z" fill="#194973" stroke="#000000"/><g stroke="none"><path d="M42.55512,297.08628v-71.875c0,0 34.01468,0 40.34473,0c2.1039,0 3.82194,0.95599 3.82194,3.05989c0,6.57148 0,48.70549 0,63.51852c0,3.02555 -1.53713,5.29659 -4.56268,5.29659c-6.69068,0 -39.60399,0 -39.60399,0z" fill="#2771b3"/><path d="M42.55512,296.53822c0,3.64667 -1.49805,4.63895 -3.58159,4.63895c-3.56143,0 -8.83354,0 -11.25887,0c-3.76493,0 -5.99287,-2.94361 -5.99287,-7.13712c0,-15.96626 0,-53.93482 0,-63.73605c0,-4.92661 2.12532,-9.18364 6.54843,-9.18364c2.34218,0 7.13202,0 10.51812,0c2.14552,0 3.76678,1.05014 3.76678,3.19565c0,7.30169 0,56.72371 0,72.22223z" fill="#1e5789"/></g><g stroke="none"><path d="M42.55512,215.41961v-71.875c0,0 34.01468,0 40.34473,0c2.1039,0 3.82194,0.95599 3.82194,3.05989c0,6.57148 0,48.7055 0,63.51852c0,3.02555 -1.53713,5.29659 -4.56268,5.29659c-6.69068,0 -39.60399,0 -39.60399,0z" fill="#2771b3"/><path d="M42.55512,214.87156c0,3.64667 -1.49805,4.63895 -3.58159,4.63895c-3.56143,0 -8.83354,0 -11.25887,0c-3.76493,0 -5.99287,-2.94361 -5.99287,-7.13712c0,-15.96626 0,-53.93483 0,-63.73606c0,-4.92661 2.12532,-9.18364 6.54843,-9.18364c2.34218,0 7.13202,0 10.51812,0c2.14552,0 3.76678,1.05014 3.76678,3.19565c0,7.30168 0,56.72371 0,72.22223z" fill="#1e5789"/></g></g><g><g stroke="#000000" stroke-width="0"><g><g><path d="M384.53022,-24.67016c1.27594,3.79246 3.17067,10.2293 -4.47855,18.49752c-2.94745,3.18597 -8.9863,4.02402 -7.34252,7.50071c0.37073,0.78412 12.20788,10.64976 17.46115,15.92561c5.40547,5.42871 7.54153,9.37155 8.63102,12.43644c-3.67777,-0.45511 -19.8353,-0.49788 -24.46871,-0.91954c-1.52777,-4.89899 -3.8391,-11.47119 -5.24805,-11.48696c-1.63483,-0.01831 -3.08255,6.18518 -3.94077,10.85771c-1.23803,-0.047 -2.46938,-0.07424 -3.69154,-0.07684c-10.626,-0.02255 -21.25205,-0.00174 -31.87808,0.01101c-0.42682,-3.59038 -1.04924,-7.57196 -1.72178,-7.70941c-1.50573,0.03283 -2.98422,4.17519 -3.97402,7.71518c-5.96135,0.00462 -11.92269,0.0038 -17.88401,-0.01153c1.91697,-4.95383 6.04324,-11.57547 10.70083,-16.27297c8.87335,-8.94939 18.95186,-11.96042 15.98426,-15.85593c-3.87313,-5.0842 -4.86349,-10.02865 -4.86349,-15.4179c0,-13.41662 6.66783,-21.2161 23.2653,-21.2161c16.59747,0 28.73891,2.02338 33.44895,16.02301z" fill="#000000"/><path d="M383.28283,-23.82462c1.22641,3.64524 3.49101,7.46735 -3.86129,15.41461c-2.83304,3.0623 -9.96772,7.11952 -8.38774,10.46125c0.35634,0.75368 11.88181,10.08856 16.93115,15.15961c5.89203,5.91736 8.74293,10.19701 9.71862,12.50155c-3.14378,-0.41748 -17.58728,-0.39386 -21.65583,-0.78336c-1.81406,-4.90977 -5.29296,-13.74123 -6.85198,-13.75869c-1.73619,-0.01944 -4.02467,7.96338 -5.28014,12.93038c-0.14308,-0.00385 -24.87431,-0.03696 -33.38385,-0.0264c-0.53191,-4.18089 -1.39776,-9.9352 -2.15009,-10.08896c-1.66696,0.03634 -3.94071,6.01852 -5.29823,10.09647c-5.16201,0.00355 -10.32402,0.00272 -15.48601,-0.00839c1.73268,-4.35537 5.84116,-10.51852 10.50356,-15.22087c8.52891,-8.602 18.80741,-12.97419 15.95501,-16.71849c-3.72279,-4.88685 -5.11812,-10.37839 -5.11812,-15.55844c0,-12.89582 6.2612,-19.80133 22.2144,-19.80133c15.9532,0 27.62333,1.94484 32.15055,15.40104z" fill="#0ac00a"/></g><g><path d="M350.40237,-24.84079c-1.24736,3.62666 -4.96489,5.81271 -8.30333,4.88267c-3.33843,-0.93004 -5.03358,-4.62398 -3.78622,-8.25064c1.24736,-3.62666 4.96489,-5.81271 8.30333,-4.88267c3.33843,0.93004 5.03358,4.62398 3.78622,8.25064z" fill="#000000"/><path d="M349.32245,-25.14164c-1.02452,2.97875 -4.07789,4.77425 -6.8199,4.01036c-2.74201,-0.76388 -4.13431,-3.79789 -3.1098,-6.77663c1.02452,-2.97875 4.07789,-4.77425 6.8199,-4.01036c2.74201,0.76388 4.13431,3.79789 3.1098,6.77663z" fill="#ffffff"/><path d="M349.40789,-24.07932c-0.76453,2.22284 -3.04306,3.5627 -5.08924,2.99267c-2.04618,-0.57004 -3.08517,-2.83411 -2.32063,-5.05695c0.76453,-2.22284 3.04306,-3.56271 5.08925,-2.99267c2.04618,0.57004 3.08516,2.83411 2.32063,5.05696z" fill="#000000"/></g><g><path d="M372.17674,-23.73362c-1.24736,3.62666 -4.96489,5.81271 -8.30332,4.88267c-3.33843,-0.93004 -5.03358,-4.62398 -3.78622,-8.25064c1.24736,-3.62666 4.96489,-5.81271 8.30332,-4.88267c3.33843,0.93004 5.03358,4.62398 3.78622,8.25064z" fill="#000000"/><path d="M371.09682,-24.03447c-1.02452,2.97875 -4.07789,4.77425 -6.8199,4.01036c-2.74201,-0.76388 -4.13431,-3.79789 -3.1098,-6.77663c1.02452,-2.97875 4.07789,-4.77425 6.8199,-4.01036c2.74201,0.76388 4.13431,3.79789 3.1098,6.77663z" fill="#ffffff"/><path d="M371.18225,-22.97215c-0.76453,2.22284 -3.04306,3.5627 -5.08924,2.99267c-2.04618,-0.57004 -3.08516,-2.83411 -2.32063,-5.05695c0.76453,-2.22284 3.04306,-3.56271 5.08924,-2.99267c2.04618,0.57004 3.08516,2.83411 2.32063,5.05696z" fill="#000000"/></g></g><g><g><path d="M336.10387,-15.40356c0,0 10.94876,-0.37791 16.81589,-0.08601c6.44213,0.32051 20.27342,1.9313 20.27342,1.9313c0,0 1.01011,4.98483 -3.63859,6.60473c-2.54369,0.88638 -9.75152,3.17717 -17.41957,2.91595c0,0 -6.49048,-0.01143 -11.55533,-4.13927c-3.17387,-2.5867 -4.47582,-7.22669 -4.47582,-7.22669z" fill="#000000"/><path d="M361.18386,-14.38341c0,0 -0.50848,2.6851 -1.93542,2.3512c-1.61349,-0.37755 -1.48647,-2.84163 -1.48647,-2.84163c0,0 0.8382,0.11434 1.76238,0.17792c0.92418,0.06358 1.65952,0.31251 1.65952,0.31251z" fill="#ffffff"/><path d="M365.13585,-13.94412c0,0 -0.63983,2.65742 -2.04868,2.25518c-1.59302,-0.45483 -1.34506,-2.90987 -1.34506,-2.90987c0,0 0.83159,0.15458 1.75154,0.2626c0.91996,0.10802 1.64219,0.39209 1.64219,0.39209z" fill="#ffffff"/><path d="M369.02246,-13.49732c0,0 -0.71203,2.63936 -2.1094,2.19962c-1.58004,-0.49723 -1.26526,-2.94475 -1.26526,-2.94475c0,0 0.82708,0.17674 1.74375,0.3093c0.91668,0.13256 1.63091,0.43582 1.63091,0.43582z" fill="#ffffff"/><path d="M372.55861,-13.09498c0,0 -0.31927,2.71354 -1.76616,2.47837c-1.63604,-0.26591 -1.68184,-2.73278 -1.68184,-2.73278c0,0 0.84419,0.05654 1.7706,0.05654c0.92641,0 1.6774,0.19787 1.6774,0.19787z" fill="#ffffff"/><path d="M357.21877,-14.5466c0,0 -0.31927,2.71354 -1.76616,2.47837c-1.63604,-0.26591 -1.68184,-2.73278 -1.68184,-2.73278c0,0 0.84419,0.05654 1.7706,0.05654c0.92641,0 1.67741,0.19788 1.67741,0.19788z" fill="#ffffff"/><path d="M353.122,-14.81021c0,0 -0.31927,2.71354 -1.76616,2.47837c-1.63604,-0.26591 -1.68184,-2.73278 -1.68184,-2.73278c0,0 0.84419,0.05654 1.7706,0.05654c0.92641,0 1.6774,0.19787 1.6774,0.19787z" fill="#ffffff"/><path d="M349.39443,-14.76452c0,0 -0.31927,2.71354 -1.76616,2.47837c-1.63604,-0.26591 -1.68184,-2.73278 -1.68184,-2.73278c0,0 0.84419,0.05654 1.7706,0.05654c0.92641,0 1.6774,0.19787 1.6774,0.19787z" fill="#ffffff"/><path d="M345.70041,-15.01948c0,0 -0.18971,2.72542 -1.64619,2.55804c-1.64688,-0.18926 -1.81009,-2.65124 -1.81009,-2.65124c0,0 0.84594,0.01707 1.77132,-0.02617c0.92538,-0.04324 1.68496,0.11937 1.68496,0.11937z" fill="#ffffff"/><path d="M341.97283,-14.91508c0,0 -0.21446,3.08094 -1.86093,2.89173c-1.86171,-0.21395 -2.04621,-2.99709 -2.04621,-2.99709c0,0 0.95629,0.0193 2.00238,-0.02958c1.04608,-0.04888 1.90476,0.13494 1.90476,0.13494z" fill="#ffffff"/><path d="M336.55672,-14.69572l-0.29821,-0.68891c0,0 11.16172,-0.23201 17.08417,0.06328c6.37995,0.31811 19.79036,1.86988 19.79036,1.86988l-0.08875,0.52722c0,0 -13.26475,-1.8939 -19.61059,-1.83349c-5.9333,0.05648 -16.87699,0.06202 -16.87699,0.06202z" fill="#000000"/></g><path d="M353.38705,-4.48024c-1.04608,-0.04888 -2.00238,-0.02958 -2.00238,-0.02958c0,0 0.1845,-2.78314 2.04621,-2.99709c1.64647,-0.18921 1.86093,2.89173 1.86093,2.89173c0,0 -0.85867,0.18382 -1.90476,0.13494z" data-paper-data="{&quot;index&quot;:null}" fill="#ffffff"/><path d="M357.39937,-4.68547c-0.97921,0.06664 -1.86737,0.18712 -1.86737,0.18712c0,0 -0.1326,-2.61077 1.57718,-3.00952c1.5121,-0.35265 2.04869,2.49259 2.04869,2.49259c0,0 -0.77929,0.26317 -1.7585,0.32981z" data-paper-data="{&quot;index&quot;:null}" fill="#ffffff"/><path d="M347.43686,-5.16096c0,0 0.53658,-2.84524 2.04869,-2.49259c1.70978,0.39875 1.57718,3.00952 1.57718,3.00952c0,0 -0.88816,-0.12048 -1.86737,-0.18712c-0.97921,-0.06664 -1.7585,-0.32981 -1.7585,-0.32981z" data-paper-data="{&quot;index&quot;:null}" fill="#ffffff"/><path d="M343.86602,-6.70892c0,0 1.25931,-2.61211 2.62848,-1.88543c1.54815,0.82168 0.74023,3.31035 0.74023,3.31035c0,0 -0.82677,-0.3431 -1.75552,-0.65742c-0.92876,-0.31432 -1.61318,-0.76751 -1.61318,-0.76751z" data-paper-data="{&quot;index&quot;:null}" fill="#ffffff"/><path d="M361.22904,-5.24649c-0.97103,0.14168 -1.84707,0.33003 -1.84707,0.33003c0,0 -0.33685,-2.5927 1.33652,-3.12163c1.4799,-0.46777 2.23789,2.32766 2.23789,2.32766c0,0 -0.75631,0.32226 -1.72734,0.46393z" data-paper-data="{&quot;index&quot;:null}" fill="#ffffff"/><path d="M340.65754,-8.81872c0,0 1.38874,-2.11957 2.49063,-1.3371c1.24594,0.88476 0.26199,2.94812 0.26199,2.94812c0,0 -0.67632,-0.38967 -1.44421,-0.76585c-0.76789,-0.37619 -1.30841,-0.84517 -1.30841,-0.84517z" data-paper-data="{&quot;index&quot;:null}" fill="#ffffff"/><path d="M364.78053,-6.13994c-0.83721,0.18015 -1.58889,0.3954 -1.58889,0.3954c0,0 -0.44797,-2.23825 0.97779,-2.7967c1.26092,-0.49388 2.08775,1.8963 2.08775,1.8963c0,0 -0.63944,0.32486 -1.47665,0.505z" data-paper-data="{&quot;index&quot;:null}" fill="#ffffff"/><path d="M368.11572,-7.11114c-0.83721,0.18015 -1.5889,0.39539 -1.5889,0.39539c0,0 -0.44797,-2.23825 0.97779,-2.7967c1.26092,-0.49388 2.08774,1.8963 2.08774,1.8963c0,0 -0.63944,0.32486 -1.47664,0.50501z" data-paper-data="{&quot;index&quot;:null}" fill="#ffffff"/><path d="M338.40916,-10.72505l0.27488,-0.65921c0,0 4.70291,5.81025 12.23913,6.54458c6.10461,0.59484 19.70849,-3.49795 19.70849,-3.49795l-0.22652,1.05881c0,0 -3.88982,1.38685 -8.80986,2.30809c-3.69856,0.69252 -8.1719,1.02562 -10.94326,0.84337c-7.10858,-0.4675 -12.24286,-6.59768 -12.24286,-6.59768z" fill="#000000"/></g></g><text transform="translate(386.9876,-40.65457) scale(0.18453,0.18453)" font-size="40" xml:space="preserve" fill="#33943a" fill-rule="nonzero" stroke="#33943a" stroke-width="1" stroke-linecap="butt" stroke-linejoin="miter" stroke-miterlimit="10" stroke-dasharray="" stroke-dashoffset="0" font-family="Sans Serif" font-weight="normal" text-anchor="start" style="mix-blend-mode: normal"><tspan x="0" dy="0">Jumbo Josh Says!</tspan></text><path d="M376.20701,4.53842c0,0 -0.17087,-1.10749 1.36283,-1.91581c3.45663,-1.8218 10.55305,-3.71066 12.13213,-6.72194c1.41954,-2.70704 0.96385,-11.94796 0.85621,-20.82903c-0.07599,-6.26988 3.26439,-11.09631 9.53463,-11.06088c7.115,0.0402 28.54328,0.16126 40.25824,0.22745c4.56425,0.02579 7.83965,2.35008 7.80284,6.91426c-0.05178,6.42015 -0.12651,15.68774 -0.16372,20.30079c-0.06042,7.49165 -4.39381,13.39289 -11.88563,13.35868c-12.26717,-0.05601 -59.89754,-0.27351 -59.89754,-0.27351z" fill="#000000" stroke="#33943a" stroke-width="0"/><path d="M378.99136,3.32473c0,0 9.96094,-2.00865 12.1032,-6.09388c1.33394,-2.5438 1.48373,-13.2505 1.38259,-21.59603c-0.07141,-5.8918 3.06755,-10.42719 8.95968,-10.3939c6.68596,0.03777 26.82209,0.15154 37.83062,0.21373c4.28902,0.02423 7.36691,2.20837 7.33232,6.49732c-0.04865,6.033 -0.11889,14.74175 -0.15385,19.07663c-0.05677,7.0399 -4.12886,12.58528 -11.16891,12.55313c-11.52745,-0.05264 -56.28565,-0.25701 -56.28565,-0.25701z" fill="#bbbbbb" stroke="#33943a" stroke-width="0"/><text transform="translate(396.70583,-22.66304) scale(0.16231,0.1712)" font-size="40" xml:space="preserve" fill="#33943a" fill-rule="nonzero" stroke="#33943a" stroke-width="1" stroke-linecap="butt" stroke-linejoin="miter" stroke-miterlimit="10" stroke-dasharray="" stroke-dashoffset="0" font-family="Sans Serif" font-weight="normal" text-anchor="start" style="mix-blend-mode: normal"><tspan x="0" dy="0">Eat vegetables</tspan><tspan x="0" dy="46.150000000000006px">  and fruits to</tspan><tspan x="0" dy="46.150000000000006px">become strong.</tspan></text></g><g fill="#3f7576" stroke-width="0"><path d="M324.46253,319.88462c0,0 0,-155.8902 0,-176.78788c0,-4.99073 3.27821,-8.21212 8.26894,-8.21212c5.9459,0 23.69407,0 34.66667,0c5.03198,0 9.06439,2.18014 9.06439,7.21212c0,19.8701 0,177.78788 0,177.78788z" stroke="#33943a"/><path d="M324.46253,319.88462v-43h94v43z" stroke="none"/></g><g fill="#57a3a4" stroke-width="0"><path d="M324.33871,304.17742c0,0 0,-155.8902 0,-176.78788c0,-4.99073 3.27821,-8.21212 8.26894,-8.21212c5.9459,0 23.69407,0 34.66667,0c5.03198,0 9.06439,2.18014 9.06439,7.21212c0,19.8701 0,177.78788 0,177.78788z" stroke="#33943a"/><path d="M324.33871,304.17742v-43h94v43z" stroke="none"/></g><g data-paper-data="{&quot;index&quot;:null}" stroke="#33943a" stroke-width="0"><path d="M402.76641,232.19653c4.15167,0 7.51726,3.40874 7.51726,7.61363c0,4.20489 -3.36559,7.61364 -7.51726,7.61364c-4.15167,0 -7.51726,-3.40874 -7.51726,-7.61364c0,-4.20489 3.36559,-7.61363 7.51726,-7.61363z" fill="#000000"/><g><path d="M429.15018,239.69653c4.2756,0 7.74166,3.51049 7.74166,7.84091c0,4.33041 -3.46606,7.84091 -7.74166,7.84091c-4.2756,0 -7.74165,-3.51049 -7.74165,-7.84091c0,-4.33041 3.46605,-7.84091 7.74165,-7.84091z" fill="#000000"/><path d="M430.56767,175.24721c-20.68114,-5.17265 -11.62304,13.08613 -11.62304,13.08613l-5.66666,-2.33334c0,0 -12.30161,-23.23424 17.5146,-16.37004c33.95029,7.81594 11.4854,23.37004 11.4854,23.37004l-7.66667,-1.66666c0,0 17.96875,-10.58051 -4.04362,-16.08613z" fill="#000000"/><path d="M428.91414,247.40796c-9.06946,-2.52364 -21.23138,-5.90779 -26.01176,-7.23797c-3.89371,-1.08345 -9.28726,-7.38404 -6.54307,-19.65231c1.74449,-7.79898 10.82914,-5.02162 12.16567,-9.82484c1.55908,-5.60301 4.02465,-18.70003 10.40316,-16.92517c7.26052,2.0203 20.4588,-0.04289 24.88584,1.38555c7.79197,2.51417 6.81643,15.24454 4.99074,21.80571c-1.20691,4.33738 -3.9684,15.50507 -5.75518,21.92639c-1.76029,6.32612 -10.34139,9.57834 -14.13539,8.52263z" fill="#253c5e"/><path d="M428.58081,237.7413c-9.06946,-2.52364 -21.23139,-5.90779 -26.01177,-7.23797c-3.89371,-1.08345 -7.28726,-7.38404 -5.54307,-13.65231c2.14236,-7.69919 4.82914,-17.35496 6.16567,-22.15817c1.55908,-5.60301 9.02466,-12.3667 15.40317,-10.59184c7.26052,2.0203 16.12546,4.29045 20.5525,5.71889c7.79197,2.51417 11.14977,10.9112 9.32407,17.47238c-1.20691,4.33738 -3.9684,15.50507 -5.75518,21.92639c-1.76029,6.32612 -10.34139,9.57834 -14.13539,8.52263z" fill="#355584"/><path d="M419.23433,219.91387c-20.68114,-5.17265 -11.62304,13.08613 -11.62304,13.08613l-5.66667,-2.33334c0,0 -12.3016,-23.23425 17.51461,-16.37004c33.95029,7.81594 11.48539,23.37004 11.48539,23.37004l-7.66666,-1.66666c0,0 17.96875,-10.58051 -4.04363,-16.08613z" fill="#000000"/><path d="M441.29392,220.27353l2.64848,-7.74295l17.98625,4.86257l-2.64848,7.74295z" fill="#000000"/><path d="M458.63534,246.71042c-1.66799,-0.57268 -3.3814,-1.16096 -4.53634,-1.5575c-4.48476,-1.53979 -6.39576,-6.76426 -5.39743,-12.64537c2.42397,-14.27943 6.67433,-39.31804 7.93427,-46.74025c0.82742,-4.87429 3.55805,-7.77191 7.27504,-6.49573c1.83088,0.62861 3.68009,1.26352 4.86037,1.66875c4.24578,1.45774 5.29836,7.1688 4.35323,12.73653c-1.31205,7.7292 -4.65922,31.24053 -7.57362,44.61569c-1.55199,7.12257 -4.26601,9.32755 -6.9155,8.41788z" fill="#273e62"/><path d="M458.302,242.43389c-1.66799,-0.56753 -3.3814,-1.15052 -4.53635,-1.54349c-4.48476,-1.52594 -6.39576,-6.7034 -5.39742,-12.5316c2.42397,-14.15096 6.67433,-38.9643 7.93427,-46.31973c0.82742,-4.83043 3.55805,-7.70199 7.27504,-6.43729c1.83088,0.62295 3.6801,1.25214 4.86037,1.65373c4.24578,1.44462 5.29836,7.10431 4.35322,12.62195c-1.31205,7.65966 -4.65922,30.95946 -7.57362,44.21429c-1.55199,7.05848 -4.26601,9.24364 -6.9155,8.34215z" fill="#355584"/></g></g><g data-paper-data="{&quot;index&quot;:null}" stroke="#33943a" stroke-width="0"><path d="M315.9077,171.80291c0,3.32905 -2.66456,6.02777 -5.95146,6.02777c-3.2869,0 -5.95146,-2.69872 -5.95146,-6.02777c0,-3.32905 2.66456,-6.02777 5.95146,-6.02777c3.2869,0 5.95146,2.69872 5.95146,6.02777z" fill="#000000"/><g><path d="M295.19714,177.92065c0,3.42842 -2.7441,6.2077 -6.12912,6.2077c-3.38502,0 -6.12912,-2.77928 -6.12912,-6.2077c0,-3.42842 2.7441,-6.20771 6.12912,-6.20771c3.38502,0 6.12912,2.77929 6.12912,6.20771z" fill="#000000"/><path d="M284.74444,133.42348l-6.06975,1.31951c0,0 -17.78561,-12.31427 9.09306,-18.50221c23.6057,-5.43444 13.86643,12.96026 13.86643,12.96026l-4.48634,1.84732c0,0 7.17136,-14.4556 -9.20204,-10.36038c-17.42735,4.35883 -3.20136,12.7355 -3.20136,12.7355z" fill="#000000"/><path d="M278.06382,171.07072c-1.4146,-5.0838 -3.60091,-13.92534 -4.55642,-17.35927c-1.44542,-5.19452 -2.21776,-15.27324 3.9512,-17.26372c3.50492,-1.1309 13.95409,0.50253 19.70229,-1.09695c5.04991,-1.40517 7.00191,8.96382 8.23625,13.39977c1.05814,3.80274 8.25052,1.60388 9.63165,7.77838c2.1726,9.71287 -2.09752,14.70109 -5.1802,15.55887c-3.78466,1.05311 -13.41333,3.73236 -20.59369,5.73035c-3.00374,0.83581 -9.79744,-1.73898 -11.19108,-6.74742z" fill="#2f5576"/><path d="M278.32772,163.41755c-1.4146,-5.0838 -3.6009,-13.92534 -4.55642,-17.35927c-1.44542,-5.19452 1.21297,-11.84251 7.38193,-13.83299c3.50492,-1.1309 10.52335,-2.92821 16.27155,-4.52769c5.04991,-1.40517 10.96046,3.94968 12.19479,8.38563c1.05814,3.80274 3.18529,11.44728 4.88141,17.54278c1.38088,4.96263 -1.30581,9.95085 -4.38849,10.80863c-3.78466,1.05311 -13.41333,3.73236 -20.59368,5.73035c-3.00374,0.83581 -9.79745,-1.73899 -11.19108,-6.74742z" fill="#356085"/><path d="M293.71711,168.78638l-6.06975,1.31951c0,0 -17.78561,-12.31428 9.09306,-18.50221c23.6057,-5.43444 13.86643,12.96026 13.86643,12.96026l-4.48633,1.84732c0,0 7.17135,-14.4556 -9.20204,-10.36038c-17.42735,4.35883 -3.20137,12.7355 -3.20137,12.7355z" fill="#000000"/><path d="M265.21391,160.18535l-2.09682,-6.13015l14.23983,-3.84973l2.09683,6.13015z" fill="#000000"/><path d="M260.24938,170.6014c-2.30735,-10.5892 -4.95732,-29.20328 -5.99608,-35.32254c-0.74827,-4.40801 0.08506,-8.92949 3.44647,-10.08359c0.93443,-0.32082 2.39846,-0.82349 3.84798,-1.32116c2.94276,-1.01036 5.10462,1.2837 5.7597,5.14271c0.9975,5.87621 4.36255,25.69945 6.28161,37.00457c0.79039,4.65612 -0.72258,8.79236 -4.27319,10.01142c-0.91438,0.31394 -2.27089,0.77969 -3.59145,1.23309c-2.09762,0.72019 -4.24633,-1.02551 -5.47505,-6.66449z" fill="#2f5576"/><path d="M260.51329,167.2756c-2.30735,-10.49393 -4.95732,-28.94054 -5.99608,-35.00475c-0.74827,-4.36835 0.08506,-8.84916 3.44647,-9.99288c0.93443,-0.31794 2.39847,-0.81607 3.84799,-1.30927c2.94276,-1.00127 5.10462,1.27215 5.75969,5.09645c0.9975,5.82334 4.36255,25.46823 6.28162,36.67164c0.79039,4.61423 -0.72257,8.71326 -4.27318,9.92135c-0.91438,0.31112 -2.27089,0.77268 -3.59145,1.222c-2.09762,0.71372 -4.24633,-1.01629 -5.47505,-6.60453z" fill="#356085"/></g></g><g data-paper-data="{&quot;index&quot;:null}" stroke="#33943a" stroke-width="0"><path d="M312.06195,293.27924c-1.52708,2.95813 -5.13271,4.13392 -8.05339,2.62618c-2.92069,-1.50775 -4.05045,-5.12806 -2.52338,-8.08619c1.52708,-2.95813 5.13271,-4.13391 8.05339,-2.62618c2.92069,1.50775 4.05045,5.12806 2.52338,8.08619z" fill="#000000"/><g><path d="M290.85258,289.21519c-1.57266,3.04644 -5.28591,4.25731 -8.2938,2.70456c-3.00788,-1.55275 -4.17136,-5.28112 -2.5987,-8.32756c1.57266,-3.04644 5.28591,-4.25732 8.2938,-2.70457c3.00788,1.55275 4.17136,5.28113 2.5987,8.32757z" fill="#000000"/><path d="M301.97582,244.8809l-5.99876,-1.61177c0,0 -10.15532,-19.10075 16.56714,-12.26969c23.46851,5.99924 6.37647,17.87699 6.37647,17.87699l-4.83388,-0.41643c0,0 13.00331,-9.55545 -3.42437,-13.42717c-17.48513,-4.12094 -8.68661,9.84807 -8.68661,9.84807z" fill="#000000"/><path d="M278.7703,275.26918c1.075,-5.16628 3.188,-14.02563 3.91414,-17.51528c1.09842,-5.2788 5.03536,-14.58888 11.43006,-13.52783c3.63318,0.60284 12.16886,6.84744 18.01034,8.06294c5.13184,1.06783 2.10998,11.17698 1.17197,15.6849c-0.80411,3.86444 6.59557,5.2098 4.9905,11.32991c-2.52488,9.62731 -8.60739,12.10102 -11.74008,11.44916c-3.84607,-0.80029 -13.63097,-2.83634 -20.92782,-4.35467c-3.05247,-0.63516 -7.90817,-6.03945 -6.8491,-11.12914z" fill="#2f5576"/><path d="M282.51539,268.58975c1.075,-5.16628 3.18801,-14.02563 3.91415,-17.51527c1.09842,-5.2788 6.51012,-9.96667 12.90483,-8.90562c3.63318,0.60284 10.69409,2.22523 16.53555,3.44073c5.13184,1.06783 7.92753,8.53733 6.98952,13.04525c-0.80411,3.86444 -2.42061,11.633 -3.70954,17.82739c-1.04939,5.04315 -5.72489,8.24319 -8.85759,7.59133c-3.84607,-0.80029 -13.63097,-2.83633 -20.92782,-4.35467c-3.05247,-0.63516 -7.90818,-6.03945 -6.84911,-11.12914z" fill="#356085"/><path d="M293.72742,280.41971l-5.99876,-1.61176c0,0 -10.15532,-19.10076 16.56715,-12.26969c23.46851,5.99924 6.37647,17.877 6.37647,17.877l-4.83388,-0.41644c0,0 13.00331,-9.55545 -3.42437,-13.42716c-17.48513,-4.12094 -8.68662,9.84807 -8.68662,9.84807z" fill="#000000"/><path d="M272.34531,259.70221l0.94877,-6.409l14.41923,3.11117l-0.94877,6.40899z" fill="#000000"/><path d="M263.15593,266.68046c2.80711,-10.46781 8.99088,-28.22358 10.87483,-34.13755c1.3571,-4.26013 4.17165,-7.89559 7.68795,-7.37919c0.97749,0.14356 2.50899,0.36846 4.02529,0.59115c3.07836,0.4521 3.94704,3.48223 2.75896,7.21178c-1.80913,5.67907 -7.91215,24.83729 -11.39269,35.76315c-1.43349,4.49991 -4.67523,7.48132 -8.38944,6.93585c-0.95651,-0.14047 -2.37553,-0.34888 -3.75694,-0.55175c-2.19429,-0.32226 -3.30282,-2.8591 -1.80796,-8.43344z" fill="#2f5576"/><path d="M264.91602,263.84626c2.76342,-10.38316 8.87037,-27.99012 10.72907,-33.85517c1.33892,-4.22489 4.1348,-7.82422 7.64633,-7.29859c0.97617,0.14611 2.50558,0.37506 4.01985,0.60172c3.0742,0.46017 3.95233,3.47197 2.78017,7.17066c-1.78487,5.6321 -7.80608,24.63185 -11.23997,35.46733c-1.41427,4.46269 -4.63894,7.41103 -8.34813,6.85581c-0.95522,-0.14297 -2.37232,-0.3551 -3.75186,-0.56159c-2.19131,-0.32802 -3.30706,-2.8509 -1.83548,-8.38017z" fill="#356085"/></g></g><g><text transform="translate(34.08779,-19.151) rotate(7.79405) scale(0.6339,0.6339)" font-size="40" xml:space="preserve" fill="#00ff06" fill-rule="nonzero" stroke="#00ff06" stroke-width="1" stroke-linecap="butt" stroke-linejoin="miter" stroke-miterlimit="10" stroke-dasharray="" stroke-dashoffset="0" font-family="Sans Serif" font-weight="normal" text-anchor="start" style="mix-blend-mode: normal"><tspan x="0" dy="0">B</tspan></text><text transform="translate(85.82914,-13.04348) rotate(4.98748) scale(0.6339,0.6339)" font-size="40" xml:space="preserve" fill="#d300ff" fill-rule="nonzero" stroke="#d300ff" stroke-width="1" stroke-linecap="butt" stroke-linejoin="miter" stroke-miterlimit="10" stroke-dasharray="" stroke-dashoffset="0" font-family="Sans Serif" font-weight="normal" text-anchor="start" style="mix-blend-mode: normal"><tspan x="0" dy="0">B</tspan></text><text transform="translate(122.68479,-16.01822) rotate(-8.64264) scale(0.59459,0.59459)" font-size="40" xml:space="preserve" fill="#d66e00" fill-rule="nonzero" stroke="#d66e00" stroke-width="1" stroke-linecap="butt" stroke-linejoin="miter" stroke-miterlimit="10" stroke-dasharray="" stroke-dashoffset="0" font-family="Sans Serif" font-weight="normal" text-anchor="start" style="mix-blend-mode: normal"><tspan x="0" dy="0">N</tspan></text><g stroke="#ff0000"><text transform="translate(69.17766,-15.02985) rotate(-3.06599) scale(0.6339,0.55322) skewX(0.00003)" font-size="40" xml:space="preserve" fill="#ff0000" fill-rule="nonzero" stroke="#ff0000" stroke-width="2" stroke-linecap="butt" stroke-linejoin="miter" stroke-miterlimit="10" stroke-dasharray="" stroke-dashoffset="0" font-family="Sans Serif" font-weight="normal" text-anchor="start" style="mix-blend-mode: normal"><tspan x="0" dy="0">N</tspan></text><path d="M82.6898,-32.37676c0,0 0.93316,-3.60076 1.15538,-4.45823c0.06963,-0.26865 0.39611,-0.18636 0.49404,0.07332c0.32227,0.85458 1.58818,4.21147 1.58818,4.21147z" fill="#ffb36b" stroke-width="0.5"/><path d="M70.4767,-31.7225c0,0 1.01065,-3.60492 1.25131,-4.46337c0.0754,-0.26897 0.42406,-0.18785 0.52776,0.07152c0.34129,0.85357 1.68193,4.20645 1.68193,4.20645z" fill="#ffb36b" stroke-width="0.5"/></g><g stroke="#ffffff"><text transform="translate(50.47004,-14.1944) scale(0.6339,0.6339)" font-size="40" xml:space="preserve" fill="#ffffff" fill-rule="nonzero" stroke="#ffffff" stroke-width="1" stroke-linecap="butt" stroke-linejoin="miter" stroke-miterlimit="10" stroke-dasharray="" stroke-dashoffset="0" font-family="Sans Serif" font-weight="normal" text-anchor="start" style="mix-blend-mode: normal"><tspan x="0" dy="0">A</tspan></text><g stroke-width="0.5"><path d="M56.90628,-33.72288c0.32096,-0.85466 0.71361,-1.90023 0.86522,-2.30393c0.12324,-0.32816 0.47477,-0.34025 0.66698,-0.04711c0.42847,0.65347 1.1254,1.59111 1.7234,1.81568c0.63398,0.23809 2.00698,0.00012 2.84141,-0.18213c0.37405,-0.0817 0.53279,0.24907 0.39819,0.6075c-0.34477,0.91807 -0.89587,2.38555 -1.07497,2.86246c-0.12598,0.33545 -0.49676,0.25288 -0.7127,-0.03307c-0.49412,-0.65431 -1.27255,-1.58668 -1.83913,-1.79946c-0.64003,-0.24036 -1.86299,-0.02419 -2.63845,0.15591c-0.41553,0.09651 -0.22995,-1.07586 -0.22995,-1.07586z" fill="#ff88f7"/><path d="M59.13818,-32.80505l0.65547,-1.7454l1.18688,0.44572l-0.65547,1.7454z" fill="#c17266"/></g></g><g><text transform="translate(105.10189,-15.38364) rotate(-3.85971) scale(0.6339,0.56065) skewX(-0.00041)" font-size="40" xml:space="preserve" fill="#5600ff" fill-rule="nonzero" stroke="#5600ff" stroke-width="2" stroke-linecap="butt" stroke-linejoin="miter" stroke-miterlimit="10" stroke-dasharray="" stroke-dashoffset="0" font-family="Sans Serif" font-weight="normal" text-anchor="start" style="mix-blend-mode: normal"><tspan x="0" dy="0">A</tspan></text><path d="M108.68703,-19.38432c0,0 0.72134,-0.49809 0.87896,-0.7715c0.31496,-0.54633 0.4511,-1.12441 1.13808,-1.17075c0.29599,-0.01997 0.90934,0.47381 0.92731,0.74018c0.01797,0.26637 -0.74966,1.09862 -1.16027,1.1538c-0.54839,0.0737 -1.78409,0.04827 -1.78409,0.04827z" fill="#ffffff" stroke="none" stroke-width="0"/><path d="M115.72646,-19.72024c-0.41429,0.00047 -1.28675,-0.72114 -1.30472,-0.9875c-0.01797,-0.26637 0.5235,-0.83806 0.81949,-0.85803c0.68698,-0.04634 0.89953,0.50821 1.28501,1.00729c0.19292,0.24976 0.97462,0.64645 0.97462,0.64645c0,0 -1.22109,0.19117 -1.7744,0.19179z" data-paper-data="{&quot;index&quot;:null}" fill="#ffffff" stroke="none" stroke-width="0"/></g><text transform="translate(140.88586,-19.07413) scale(0.38208,0.38208)" font-size="40" xml:space="preserve" fill="#000000" fill-rule="nonzero" stroke="#000000" stroke-width="1" stroke-linecap="butt" stroke-linejoin="miter" stroke-miterlimit="10" stroke-dasharray="" stroke-dashoffset="0" font-family="Sans Serif" font-weight="normal" text-anchor="start" style="mix-blend-mode: normal"><tspan x="0" dy="0">'s</tspan></text><text transform="translate(41.36295,4.3754) scale(0.40412,0.40412)" font-size="40" xml:space="preserve" fill="#000000" fill-rule="nonzero" stroke="#000000" stroke-width="1" stroke-linecap="butt" stroke-linejoin="miter" stroke-miterlimit="10" stroke-dasharray="" stroke-dashoffset="0" font-family="Sans Serif" font-weight="normal" text-anchor="start" style="mix-blend-mode: normal"><tspan x="0" dy="0">Kindergarten</tspan></text></g><path d="M166.97981,2.13454l-7.60359,-4.86115l-8.31694,3.5103l2.2731,-8.73637l-5.90756,-6.82521l9.01047,-0.53762l4.66424,-7.72929l3.29828,8.40472l8.78941,2.04891l-6.97214,5.73189z" fill="#ffff00" stroke="#000000" stroke-width="0.5"/><path d="M183.26573,-22.88096l-6.85081,-2.01038l-5.54079,4.50613l-0.20602,-7.13874l-5.99703,-3.87741l6.72517,-2.40158l1.83301,-6.90274l4.36451,5.65436l7.12942,-0.38803l-4.02787,5.8961z" fill="#ffff00" stroke="#000000" stroke-width="0.5"/><path d="M175.17014,14.36829l-2.13112,-4.48942l-4.90803,-0.78892l3.61171,-3.41556l-0.76586,-4.91135l4.36405,2.37937l4.43418,-2.2473l-0.91354,4.88713l3.50576,3.52252l-4.92867,0.64095z" fill="#ffff00" stroke="#000000" stroke-width="0.5"/><g stroke="#000000"><path d="M31.2004,26.80365l-8.92086,-8.67903l-12.21014,2.43137l5.49766,-11.17006l-6.08413,-10.86103l12.32117,1.77696l8.44797,-9.14536l2.12059,12.26983l11.30399,5.20955l-11.01071,5.80601z" fill="#ffff00" stroke-width="0.5"/><text transform="translate(15.61639,5.64245) rotate(11.62004) scale(0.10925,0.10925)" font-size="40" xml:space="preserve" data-paper-data="{&quot;index&quot;:null}" fill="#000000" fill-rule="nonzero" stroke="#000000" stroke-width="2" stroke-linecap="butt" stroke-linejoin="miter" stroke-miterlimit="10" stroke-dasharray="" stroke-dashoffset="0" font-family="Sans Serif" font-weight="normal" text-anchor="start" style="mix-blend-mode: normal"><tspan x="0" dy="0">Creativity</tspan><tspan x="0" dy="46.150000000000006px">    Area!</tspan></text></g><path d="M24.42065,-7.08602l-5.1343,-0.5102l-3.33131,3.94202l-1.10231,-5.04195l-4.77803,-1.95041l4.45423,-2.60609l0.3773,-5.14742l3.85666,3.43093l5.01096,-1.23032l-2.07077,4.7265z" fill="#ffff00" stroke="#000000" stroke-width="0.5"/><path d="M46.90173,22.88955l-2.99573,-2.05283l-3.39018,1.30501l1.02647,-3.48458l-2.28835,-2.821l3.63093,-0.10048l1.97526,-3.04881l1.21861,3.42276l3.50879,0.93699l-2.87784,2.21581z" fill="#ffff00" stroke="#000000" stroke-width="0.5"/><g stroke-width="0"><path d="M39.01151,359.5302l-20.43534,-20.43534l-0.20746,-9.91545l41.01107,0.32389l0.06708,9.59155z" fill="#aa7d24" stroke="none"/><path d="M38.61455,349.60578l-20.43534,-20.43534l20.43534,-20.43534l20.43534,20.43534z" fill="#c5922a" stroke="none"/><path d="M30.42713,350.99066l-3.99444,-4.14602l-0.06944,-9.47967l20.51899,-20.51899l4.07022,4.07024l-20.59477,20.59477z" fill="#ab8974" stroke="#9e7c36"/><path d="M30.42713,351.14223l-3.99444,-4.14602l-0.06944,-9.47967l3.99444,4.14602z" fill="#a1816d" stroke="#9e7c36"/></g><g data-paper-data="{&quot;index&quot;:null}" stroke-width="0"><path d="M46.16536,352.6631l0.04738,-6.77511l28.96869,-0.22878l-0.14654,7.00391l-14.43476,14.43476z" fill="#aa7d24" stroke="none"/><path d="M46.44576,345.65287l14.43476,-14.43476l14.43476,14.43476l-14.43476,14.43476z" fill="#c5922a" stroke="none"/><path d="M66.71286,354.36977l-14.54738,-14.54738l2.87505,-2.87506l14.49385,14.49385l-0.04905,6.69609l-2.82153,2.92859z" fill="#ab8974" stroke="#9e7c36"/><path d="M66.71286,354.47684l2.82153,-2.92859l-0.04905,6.69609l-2.82153,2.92859z" fill="#a1816d" stroke="#9e7c36"/></g><g stroke-width="0"><path d="M74.5641,330.76923c0,-8.17806 6.62963,-14.80769 14.80769,-14.80769c8.17806,0 14.80769,6.62963 14.80769,14.80769c0,8.17806 -6.62963,14.80769 -14.80769,14.80769c-8.17806,0 -14.80769,-6.62963 -14.80769,-14.80769z" fill="#994215" stroke="#000000"/><path d="M78.60256,330.76923c0,-5.94768 4.82155,-10.76923 10.76923,-10.76923c5.94768,0 10.76923,4.82155 10.76923,10.76923c0,5.94768 -4.82155,10.76923 -10.76923,10.76923c-5.94768,0 -10.76923,-4.82155 -10.76923,-10.76923z" fill="#471e0a" stroke="none"/><g fill="#1cb919" stroke="#fff700"><path d="M87.0314,330.03681c0,0 -1.13857,-5.7541 -0.16983,-8.31292c1.04425,-2.75849 4.85473,-7.91254 4.85473,-7.91254c0,0 -0.68562,5.67618 -0.68562,8.45556c0,1.4526 0.19799,3.65371 0.38117,5.37942c0.15769,1.48574 0.30445,2.61904 0.30445,2.61904c0,0 -1.95223,1.04739 -2.79284,1.00642c-0.69191,-0.03376 -1.89206,-1.23493 -1.89206,-1.23493z"/><path d="M90.06595,330.26667c0.8406,-0.04102 2.79284,1.00642 2.79284,1.00642c0,0 -0.14671,1.1333 -0.30445,2.61904c-0.18318,1.72571 -0.38117,3.92681 -0.38117,5.37942c0,2.77939 0.68562,8.45556 0.68562,8.45556c0,0 -3.81043,-5.15405 -4.85473,-7.91254c-0.96874,-2.55881 0.16983,-8.31292 0.16983,-8.31292c0,0 1.20015,-1.20117 1.89206,-1.23493z" data-paper-data="{&quot;index&quot;:null}"/><path d="M90.9259,329.64573c0,0 2.07195,-5.48753 4.24592,-7.1489c2.34356,-1.79091 8.30121,-4.15537 8.30121,-4.15537c0,0 -3.5798,4.45803 -5.04763,6.81818c-0.76713,1.23353 -1.76146,3.20719 -2.51731,4.76935c-0.6507,1.34493 -1.12464,2.38487 -1.12464,2.38487c0,0 -2.21092,-0.14154 -2.90308,-0.62027c-0.56967,-0.39404 -0.95447,-2.04786 -0.95447,-2.04786z"/><path d="M87.89266,332.83613c-0.69215,0.47873 -2.90308,0.62032 -2.90308,0.62032c0,0 -0.47395,-1.03989 -1.12464,-2.38487c-0.75581,-1.56216 -1.75014,-3.53587 -2.51726,-4.7694c-1.46784,-2.36015 -5.04763,-6.81818 -5.04763,-6.81818c0,0 5.95765,2.36441 8.30121,4.15537c2.17397,1.66137 4.24592,7.1489 4.24592,7.1489c0,0 -0.3848,1.65383 -0.95447,2.04786z" data-paper-data="{&quot;index&quot;:null}"/><path d="M89.76126,333.35027c0,0 -2.07195,5.48753 -4.24592,7.1489c-2.34356,1.79091 -8.30121,4.15537 -8.30121,4.15537c0,0 3.5798,-4.45803 5.04763,-6.81818c0.76713,-1.23353 1.76146,-3.20719 2.51731,-4.7694c0.6507,-1.34493 1.12464,-2.38487 1.12464,-2.38487c0,0 2.21092,0.14154 2.90308,0.62027c0.56967,0.39404 0.95447,2.04786 0.95447,2.04786z" data-paper-data="{&quot;index&quot;:null}"/><path d="M90.28053,330.84525c0.69215,-0.47873 2.90308,-0.62032 2.90308,-0.62032c0,0 0.47395,1.03989 1.12464,2.38487c0.75581,1.56216 1.75014,3.53587 2.51731,4.7694c1.46784,2.36015 5.04763,6.81818 5.04763,6.81818c0,0 -5.95765,-2.36441 -8.30121,-4.15537c-2.17397,-1.66137 -4.24592,-7.1489 -4.24592,-7.1489c0,0 0.38475,-1.65383 0.95447,-2.04786z" data-paper-data="{&quot;index&quot;:null}"/><path d="M90.58851,331.99741c-0.04411,-0.84046 0.99612,-2.79646 0.99612,-2.79646c0,0 1.13388,0.14255 2.62015,0.29478c1.72639,0.1768 3.92822,0.36671 5.38077,0.36134c2.77934,-0.01025 8.45295,-0.71672 8.45295,-0.71672c0,0 -5.14007,3.82934 -7.89465,4.8838c-2.55523,0.97812 -8.31355,-0.13931 -8.31355,-0.13931c0,0 -1.20557,-1.1957 -1.24185,-1.88746z" data-paper-data="{&quot;index&quot;:null}"/><path d="M86.91328,333.65642c0,0 -5.75831,1.11739 -8.31355,0.13931c-2.75457,-1.05441 -7.89465,-4.8838 -7.89465,-4.8838c0,0 5.67366,0.70647 8.45295,0.71672c1.4526,0.00537 3.65438,-0.18454 5.38077,-0.36134c1.48627,-0.15227 2.62015,-0.29478 2.62015,-0.29478c0,0 1.04023,1.95605 0.99612,2.79646c-0.03628,0.69172 -1.24185,1.88746 -1.24185,1.88746z" data-paper-data="{&quot;index&quot;:null}"/></g></g><path d="M380.1508,256.0975c-0.69338,-1.04006 0.34669,-1.73344 0.34669,-1.73344l0.77723,-0.48898c0.25463,-0.23324 0.50925,-0.46649 0.76388,-0.69973c0.24462,-1.1924 0.15955,-2.35891 0.16033,-3.57767c0.00175,-2.73898 -1.49504,-5.65767 -4.77516,-3.8968c-1.59361,0.8555 -2.77211,2.78565 -4.09327,4.0075c-2.21915,2.05234 -5.05779,3.50936 -7.59408,5.1352c0,0 -1.05235,0.67458 -1.72693,-0.37777c-0.67458,-1.05235 0.37777,-1.72693 0.37777,-1.72693c2.40007,-1.53851 5.1529,-2.91364 7.24463,-4.8648c1.88993,-1.76293 3.48582,-4.47606 6.22052,-4.97988c7.01226,-1.29187 7.68644,6.62741 6.3617,11.5129c-0.39054,0.41192 -0.78107,0.82383 -1.17161,1.23575l-1.15825,0.80134c0,0 -1.04006,0.69338 -1.73344,-0.34669z" fill="#000000" stroke="none" stroke-width="0.5"/><g data-paper-data="{&quot;index&quot;:null}" stroke="#33943a" stroke-width="0"><path d="M335.87755,245.62561l1.36717,-6.44521l30.38458,6.44521l-1.36717,6.44521z" fill="#4c4c4c"/><path d="M333.58766,239.07418l0.70592,-22.86206l36.70803,8.25122l0.46092,20.38636l-6.10831,3.18162z" data-paper-data="{&quot;index&quot;:null}" fill="#b2b2b2"/><path d="M333.82296,238.60043v-22.153l31.76657,9.19558v22.153z" data-paper-data="{&quot;index&quot;:null}" fill="#e5e5e5"/><g><path d="M333.11704,251.07489l0.70592,-9.44951l36.70803,8.25122l0.46092,6.97381l-6.10831,3.18162z" data-paper-data="{&quot;index&quot;:null}" fill="#b2b2b2"/><path d="M333.35235,250.60113v-8.74045l31.76657,9.19558v8.74045z" data-paper-data="{&quot;index&quot;:null}" fill="#e5e5e5"/></g><path d="M337.11727,237.54464v-18.54288l25.17794,7.69705v18.54288z" data-paper-data="{&quot;index&quot;:null}" fill="#4c4c4c"/></g><path d="M379.74988,141.65747c-1.25,0 -1.25,-1.25 -1.25,-1.25l0.01454,-0.90749c-0.54523,-3.91144 -3.46014,-5.22404 -7.07536,-4.92c0,0 -1.24568,0.10381 -1.34949,-1.14188c-0.10381,-1.24568 1.14188,-1.34949 1.14188,-1.34949c4.98037,-0.41147 8.89801,1.83923 9.75391,7.03122l0.01454,1.28763c0,0 0,1.25 -1.25,1.25z" fill="#000000" stroke="none" stroke-width="0.5"/><g stroke="#33943a" stroke-width="0"><path d="M341.31744,140.57082l-1.36717,-6.44521l30.38458,-6.44521l1.36717,6.44521z" fill="#4c4c4c"/><path d="M342.22535,136.53132l-6.10831,-3.18162l0.46092,-20.38636l36.70803,-8.25122l0.70592,22.86206z" data-paper-data="{&quot;index&quot;:null}" fill="#b2b2b2"/><path d="M341.99004,136.29601v-22.153l31.76657,-9.19558v22.153z" data-paper-data="{&quot;index&quot;:null}" fill="#e5e5e5"/><g><path d="M342.69597,148.53202l-6.10831,-3.18162l0.46092,-6.97381l36.70803,-8.25122l0.70592,9.44951z" data-paper-data="{&quot;index&quot;:null}" fill="#b2b2b2"/><path d="M342.46066,148.29672v-8.74045l31.76657,-9.19558v8.74045z" data-paper-data="{&quot;index&quot;:null}" fill="#e5e5e5"/></g><path d="M345.28435,133.74169v-18.54288l25.17794,-7.69705v18.54288z" data-paper-data="{&quot;index&quot;:null}" fill="#4c4c4c"/></g></g></g></svg>