<svg version="1.1" xmlns="http://www.w3.org/2000/svg" xmlns:xlink="http://www.w3.org/1999/xlink" width="616.56159" height="854.06601" viewBox="0,0,616.56159,854.06601"><g transform="translate(-4.45796,288.1982)"><g data-paper-data="{&quot;isPaintingLayer&quot;:true}" fill-rule="nonzero" stroke-width="0" stroke-linecap="butt" stroke-linejoin="miter" stroke-miterlimit="10" stroke-dasharray="" stroke-dashoffset="0" style="mix-blend-mode: normal"><g stroke="#000000"><path d="M4.84542,363.70565v-77.00601h432.60963v77.00601z" fill="#afae9f"/><path d="M4.84542,300.69967v-35h432.60963v35z" fill="#cccbba"/></g><g stroke="#000000"><path d="M552.89348,363.70565v-77.00601h67.74477v77.00601z" fill="#afae9f"/><path d="M552.89348,300.69967v-35h67.74477v35z" fill="#cccbba"/></g><path d="M576.92045,452.74029v-550.87697l44.0991,-0.87078v551.74775z" fill="#cccbba" stroke="#000000"/><path d="M576.92044,509.52708v-207.57579l44.0991,-0.32812v207.90391z" fill="#cccbba" stroke="#000000"/><path d="M4.45796,478.80636v-212.61287l44.0991,-0.33608v212.94895z" fill="#cccbba" stroke="#000000"/><g stroke="#000000"><path d="M408.74934,565.86781v-71.10715h211.88891v71.10715z" fill="#afae9f"/><path d="M408.74934,507.68825v-32.31891h211.88891v32.31891z" fill="#cccbba"/></g><path d="M108.72903,483.78456v-612.34235h484.98498v612.34235z" fill="#ff0000" stroke="none"/><path d="M128.63968,0.09009v-288.28829h460.24085v288.28829z" fill="#ff0000" stroke="#ffffff"/><path d="M26.28643,484.8048v-151.65165h159.15916v151.65165z" fill="#ff0000" stroke="#ffffff"/></g></g></svg>