<svg version="1.1" xmlns="http://www.w3.org/2000/svg" xmlns:xlink="http://www.w3.org/1999/xlink" width="317.9692" height="151.51664" viewBox="0,0,317.9692,151.51664"><g transform="translate(-82.04288,-124.78318)"><g data-paper-data="{&quot;isPaintingLayer&quot;:true}" fill-rule="nonzero" stroke-linejoin="miter" stroke-miterlimit="10" stroke-dasharray="" stroke-dashoffset="0" style="mix-blend-mode: normal"><text transform="translate(107.92318,255.84965) scale(0.56958,0.56958)" font-size="40" xml:space="preserve" fill="#ffffff" fill-rule="nonzero" stroke="#ffffff" stroke-width="0" stroke-linecap="butt" stroke-linejoin="miter" stroke-miterlimit="10" stroke-dasharray="" stroke-dashoffset="0" font-family="Sans Serif" font-weight="normal" text-anchor="start" style="mix-blend-mode: normal"><tspan x="0" dy="0">Back</tspan></text><text transform="translate(319.93068,255.84965) scale(0.56958,0.56958)" font-size="40" xml:space="preserve" fill="#ffffff" fill-rule="nonzero" stroke="#ffffff" stroke-width="0" stroke-linecap="butt" stroke-linejoin="miter" stroke-miterlimit="10" stroke-dasharray="" stroke-dashoffset="0" font-family="Sans Serif" font-weight="normal" text-anchor="start" style="mix-blend-mode: normal"><tspan x="0" dy="0">Apply</tspan></text><path d="M82.04288,276.29982v-54.57026h317.9692v54.57026z" fill-opacity="0.01184" fill="#ffffff" stroke="#ffffff" stroke-width="0" stroke-linecap="butt"/><g><g stroke="#000000"><path d="M247.88128,248.58033c0,-12.13935 9.84088,-21.98023 21.98023,-21.98023c12.13935,0 21.98023,9.84088 21.98023,21.98023c0,12.13935 -9.84088,21.98023 -21.98023,21.98023c-12.13935,0 -21.98023,-9.84088 -21.98023,-21.98023z" fill="#ffffff" stroke-width="0" stroke-linecap="butt"/><g stroke-width="1.5"><path d="M274.60344,248.45365l-8.96601,10.56709c0,0 -1.44946,-0.48444 -1.94926,-0.3638c-0.85151,0.20554 -2.91084,1.15906 -2.91084,1.15906l-1.38407,-1.5958c0,0 0.84054,-1.50987 0.87009,-2.33745c0.01977,-0.55364 -0.70999,-2.14554 -0.70999,-2.14554l8.96601,-10.40698" fill="none" stroke-linecap="round"/><path d="M269.69701,236.63621l10.46386,9.66333l-3.47603,3.9153l-10.56709,-9.44633z" fill="#000000" stroke-linecap="round"/><path d="M276.6661,243.61928l-4.01443,-3.47194l4.12293,-3.25494c0,0 1.60343,-0.76057 2.52764,-0.10401c0.83298,0.59175 0.40182,2.70797 0.40182,2.70797z" fill="#000000" stroke-linecap="butt"/></g></g><text transform="translate(188.15825,244.37929) scale(0.36412,0.36412)" font-size="40" xml:space="preserve" fill="#ffffff" fill-rule="nonzero" stroke="none" stroke-width="1" stroke-linecap="butt" stroke-linejoin="miter" stroke-miterlimit="10" stroke-dasharray="" stroke-dashoffset="0" font-family="Sans Serif" font-weight="normal" text-anchor="start" style="mix-blend-mode: normal"><tspan x="0" dy="0">Choose</tspan><tspan x="0" dy="46.150000000000006px">colour:</tspan></text></g><g fill="#000000" stroke="#000000" stroke-width="0" stroke-linecap="butt"><g><path d="M318.33244,166.05808c0,-6.87098 5.57003,-12.44101 12.44101,-12.44101c6.87098,0 12.44101,5.57002 12.44101,12.44101c0,6.87098 -5.57002,12.44101 -12.44101,12.44101c-6.87098,0 -12.44101,-5.57002 -12.44101,-12.44101zM330.9564,173.92519c4.54697,0 8.23302,-3.68605 8.23302,-8.23302c0,-4.54697 -3.68605,-8.23302 -8.23302,-8.23302c-4.54697,0 -8.23302,3.68605 -8.23302,8.23302c0,4.54697 3.68605,8.23302 8.23302,8.23302z"/><path d="M345.33674,166.60695c0,-6.87098 5.57003,-12.44101 12.44101,-12.44101c6.87098,0 12.44101,5.57002 12.44101,12.44101c0,6.87098 -5.57002,12.44101 -12.44101,12.44101c-6.87098,0 -12.44101,-5.57002 -12.44101,-12.44101zM357.9607,174.47406c4.54697,0 8.23302,-3.68605 8.23302,-8.23302c0,-4.54697 -3.68605,-8.23302 -8.23302,-8.23302c-4.54697,0 -8.23302,3.68605 -8.23302,8.23302c0,4.54697 3.68605,8.23302 8.23302,8.23302z"/><path d="M345.22697,138.94398c0,-6.87098 5.57003,-12.44101 12.44101,-12.44101c6.87098,0 12.44101,5.57002 12.44101,12.44101c0,6.87098 -5.57002,12.44101 -12.44101,12.44101c-6.87098,0 -12.44101,-5.57002 -12.44101,-12.44101zM357.85093,146.81111c4.54697,0 8.23302,-3.68605 8.23302,-8.23302c0,-4.54697 -3.68605,-8.23302 -8.23302,-8.23302c-4.54697,0 -8.23302,3.68605 -8.23302,8.23302c0,4.54697 3.68605,8.23302 8.23302,8.23302z"/><path d="M318.33244,139.27332c0,-6.87098 5.57003,-12.44101 12.44101,-12.44101c6.87098,0 12.44101,5.57002 12.44101,12.44101c0,6.87098 -5.57002,12.44101 -12.44101,12.44101c-6.87098,0 -12.44101,-5.57002 -12.44101,-12.44101zM330.9564,147.14043c4.54697,0 8.23302,-3.68605 8.23302,-8.23302c0,-4.54697 -3.68605,-8.23302 -8.23302,-8.23302c-4.54697,0 -8.23302,3.68605 -8.23302,8.23302c0,4.54697 3.68605,8.23302 8.23302,8.23302z"/><path d="M318.33244,139.27332c0,-6.87098 5.57003,-12.44101 12.44101,-12.44101c6.87098,0 12.44101,5.57002 12.44101,12.44101c0,6.87098 -5.57002,12.44101 -12.44101,12.44101c-6.87098,0 -12.44101,-5.57002 -12.44101,-12.44101zM330.9564,147.14043c4.54697,0 8.23302,-3.68605 8.23302,-8.23302c0,-4.54697 -3.68605,-8.23302 -8.23302,-8.23302c-4.54697,0 -8.23302,3.68605 -8.23302,8.23302c0,4.54697 3.68605,8.23302 8.23302,8.23302z"/></g><path d="M339.42726,152.77547c0,-2.67766 2.17067,-4.84834 4.84834,-4.84834c2.67766,0 4.84834,2.17067 4.84834,4.84834c0,2.67766 -2.17067,4.84834 -4.84834,4.84834c-2.67766,0 -4.84834,-2.17067 -4.84834,-4.84834z"/></g><g fill="#ff4d4d" stroke-width="0" stroke-linecap="butt"><path d="M318.47879,137.22418c0,-6.87098 5.57003,-12.44101 12.44101,-12.44101c6.87098,0 12.44101,5.57002 12.44101,12.44101c0,6.87098 -5.57002,12.44101 -12.44101,12.44101c-6.87098,0 -12.44101,-5.57002 -12.44101,-12.44101zM331.10276,145.09131c4.54697,0 8.23302,-3.68605 8.23302,-8.23302c0,-4.54697 -3.68605,-8.23302 -8.23302,-8.23302c-4.54697,0 -8.23302,3.68605 -8.23302,8.23302c0,4.54697 3.68605,8.23302 8.23302,8.23302z" stroke="#000000"/><path d="M345.37332,137.22418c0,-6.87098 5.57003,-12.44101 12.44101,-12.44101c6.87098,0 12.44101,5.57002 12.44101,12.44101c0,6.87098 -5.57002,12.44101 -12.44101,12.44101c-6.87098,0 -12.44101,-5.57002 -12.44101,-12.44101zM357.99729,145.09131c4.54697,0 8.23302,-3.68605 8.23302,-8.23302c0,-4.54697 -3.68605,-8.23302 -8.23302,-8.23302c-4.54697,0 -8.23302,3.68605 -8.23302,8.23302c0,4.54697 3.68605,8.23302 8.23302,8.23302z" stroke="#000000"/><path d="M318.47879,164.11873c0,-6.87098 5.57003,-12.44101 12.44101,-12.44101c6.87098,0 12.44101,5.57002 12.44101,12.44101c0,6.87098 -5.57002,12.44101 -12.44101,12.44101c-6.87098,0 -12.44101,-5.57002 -12.44101,-12.44101zM331.10276,171.98584c4.54697,0 8.23302,-3.68605 8.23302,-8.23302c0,-4.54697 -3.68605,-8.23302 -8.23302,-8.23302c-4.54697,0 -8.23302,3.68605 -8.23302,8.23302c0,4.54697 3.68605,8.23302 8.23302,8.23302z" stroke="#000000"/><path d="M345.37332,164.30169c0,-6.87098 5.57003,-12.44101 12.44101,-12.44101c6.87098,0 12.44101,5.57002 12.44101,12.44101c0,6.87098 -5.57002,12.44101 -12.44101,12.44101c-6.87098,0 -12.44101,-5.57002 -12.44101,-12.44101zM357.99729,172.1688c4.54697,0 8.23302,-3.68605 8.23302,-8.23302c0,-4.54697 -3.68605,-8.23302 -8.23302,-8.23302c-4.54697,0 -8.23302,3.68605 -8.23302,8.23302c0,4.54697 3.68605,8.23302 8.23302,8.23302z" stroke="#000000"/><path d="M339.42726,151.12886c0,-2.67766 2.17067,-4.84834 4.84834,-4.84834c2.67766,0 4.84834,2.17067 4.84834,4.84834c0,2.67766 -2.17067,4.84834 -4.84834,4.84834c-2.67766,0 -4.84834,-2.17067 -4.84834,-4.84834z" stroke="#000000"/><path d="M343.87395,158.3478v-14.96912h1.12269v14.96912z" stroke="#000000"/><path d="M337.13785,151.48695v-1.24742h14.71964v1.24742z" stroke="none"/><g stroke="none"><path d="M343.8969,145.38042l-3.08405,-4.69033l1.04229,-0.68534l3.08405,4.69033z"/><path d="M343.80667,144.81982l3.08405,-4.69033l1.04229,0.68534l-3.08405,4.69033z" data-paper-data="{&quot;index&quot;:null}"/></g><g data-paper-data="{&quot;index&quot;:null}" stroke="none"><path d="M345.0176,156.73201l-3.08405,4.69033l-1.04229,-0.68534l3.08405,-4.69033z"/><path d="M344.92736,155.92193l3.08405,4.69033l-1.04229,0.68534l-3.08405,-4.69033z" data-paper-data="{&quot;index&quot;:null}"/></g><g data-paper-data="{&quot;index&quot;:null}" stroke="none"><path d="M350.19536,150.3433l4.69033,3.08405l-0.68534,1.04229l-4.69033,-3.08405z"/><path d="M349.38527,150.43353l4.69033,-3.08405l0.68534,1.04229l-4.69033,3.08405z" data-paper-data="{&quot;index&quot;:null}"/></g><g data-paper-data="{&quot;index&quot;:null}" stroke="none"><path d="M339.23581,151.22879l-4.69033,3.08405l-0.68534,-1.04229l4.69033,-3.08405z"/><path d="M338.67523,151.31901l-4.69033,-3.08405l0.68534,-1.04229l4.69033,3.08405z" data-paper-data="{&quot;index&quot;:null}"/></g><g><path d="M336.41855,143.7948l-6.16125,-5.93305l1.33191,-1.38314l6.16125,5.93305z" stroke="#000000"/><path d="M328.88863,137.21593c0,-1.38585 1.12345,-2.50932 2.50931,-2.50932c1.38585,0 2.50932,1.12346 2.50932,2.50932c0,1.38585 -1.12346,2.50932 -2.50932,2.50932c-1.38585,0 -2.50931,-1.12346 -2.50931,-2.50932z" stroke="#000000"/><path d="M337.85046,136.85745c0,0.35637 -1.25185,0.64526 -2.79609,0.64526c-1.54423,0 -2.79609,-0.28889 -2.79609,-0.64526c0,-0.35637 1.25185,-0.64525 2.79609,-0.64525c1.54423,0 2.79609,0.28888 2.79609,0.64525z" stroke="none"/><path d="M330.3942,137.07254c0,0.35637 -1.25185,0.64526 -2.79609,0.64526c-1.54423,0 -2.79609,-0.28889 -2.79609,-0.64526c0,-0.35637 1.25185,-0.64526 2.79609,-0.64526c1.54423,0 2.79609,0.28889 2.79609,0.64526z" stroke="none"/><path d="M331.39794,130.97848c0.35637,0 0.64526,1.25185 0.64526,2.79609c0,1.54423 -0.28889,2.79609 -0.64526,2.79609c-0.35637,0 -0.64525,-1.25185 -0.64525,-2.79609c0,-1.54423 0.28888,-2.79609 0.64525,-2.79609z" stroke="none"/><path d="M331.39794,137.28763c0.35637,0 0.64526,1.25185 0.64526,2.79609c0,1.54423 -0.28889,2.79609 -0.64526,2.79609c-0.35637,0 -0.64525,-1.25185 -0.64525,-2.79609c0,-1.54423 0.28888,-2.79609 0.64525,-2.79609z" stroke="none"/></g><g data-paper-data="{&quot;index&quot;:null}"><path d="M351.56133,142.31365l6.16125,-5.93305l1.3319,1.38314l-6.16125,5.93305z" stroke="#000000"/><path d="M357.91383,139.62723c-1.38585,0 -2.50932,-1.12346 -2.50932,-2.50932c0,-1.38585 1.12346,-2.50932 2.50932,-2.50932c1.38585,0 2.50932,1.12346 2.50932,2.50932c0,1.38585 -1.12346,2.50932 -2.50932,2.50932z" stroke="#000000"/><path d="M354.25741,136.11419c1.54423,0 2.7961,0.28889 2.7961,0.64526c0,0.35637 -1.25185,0.64526 -2.7961,0.64526c-1.54423,0 -2.79609,-0.28889 -2.79609,-0.64526c0,-0.35637 1.25185,-0.64526 2.79609,-0.64526z" stroke="none"/><path d="M361.71364,136.32927c1.54423,0 2.79609,0.28889 2.79609,0.64526c0,0.35637 -1.25185,0.64526 -2.79609,0.64526c-1.54423,0 -2.79609,-0.28889 -2.79609,-0.64526c0,-0.35637 1.25185,-0.64526 2.79609,-0.64526z" stroke="none"/><path d="M358.5591,133.67657c0,1.54423 -0.28889,2.79609 -0.64526,2.79609c-0.35637,0 -0.64526,-1.25185 -0.64526,-2.79609c0,-1.54423 0.28889,-2.79609 0.64526,-2.79609c0.35637,0 0.64526,1.25185 0.64526,2.79609z" stroke="none"/><path d="M358.5591,139.98569c0,1.54423 -0.28889,2.79609 -0.64526,2.79609c-0.35637,0 -0.64526,-1.25185 -0.64526,-2.79609c0,-1.54423 0.28889,-2.7961 0.64526,-2.7961c0.35637,0 0.64526,1.25185 0.64526,2.7961z" stroke="none"/></g><g data-paper-data="{&quot;index&quot;:null}"><path d="M352.79522,156.85371l6.16125,5.93305l-1.33191,1.38314l-6.16125,-5.93305z" stroke="#000000"/><path d="M360.32514,163.43257c0,1.38585 -1.12346,2.50932 -2.50932,2.50932c-1.38585,0 -2.50932,-1.12346 -2.50932,-2.50932c0,-1.38585 1.12346,-2.50932 2.50932,-2.50932c1.38585,0 2.50932,1.12346 2.50932,2.50932z" stroke="#000000"/><path d="M351.36333,163.79105c0,-0.35637 1.25185,-0.64526 2.79609,-0.64526c1.54423,0 2.79609,0.28889 2.79609,0.64526c0,0.35637 -1.25185,0.64526 -2.79609,0.64526c-1.54423,0 -2.79609,-0.28889 -2.79609,-0.64526z" stroke="none"/><path d="M358.81956,163.57597c0,-0.35637 1.25185,-0.64526 2.79609,-0.64526c1.54423,0 2.7961,0.28889 2.7961,0.64526c0,0.35637 -1.25185,0.64526 -2.7961,0.64526c-1.54423,0 -2.79609,-0.28889 -2.79609,-0.64526z" stroke="none"/><path d="M357.81584,169.67001c-0.35637,0 -0.64526,-1.25185 -0.64526,-2.79609c0,-1.54423 0.28889,-2.79609 0.64526,-2.79609c0.35637,0 0.64526,1.25185 0.64526,2.79609c0,1.54423 -0.28889,2.79609 -0.64526,2.79609z" stroke="none"/><path d="M357.81584,163.36087c-0.35637,0 -0.64526,-1.25185 -0.64526,-2.79609c0,-1.54423 0.28889,-2.79609 0.64526,-2.79609c0.35637,0 0.64526,1.25185 0.64526,2.79609c0,1.54423 -0.28889,2.79609 -0.64526,2.79609z" stroke="none"/></g><g data-paper-data="{&quot;index&quot;:null}"><path d="M338.04448,158.62889l-6.16125,5.93305l-1.33191,-1.38314l6.16125,-5.93305z" stroke="#000000"/><path d="M331.69198,161.31531c1.38585,0 2.50932,1.12346 2.50932,2.50932c0,1.38585 -1.12346,2.50932 -2.50932,2.50932c-1.38585,0 -2.50932,-1.12346 -2.50932,-2.50932c0,-1.38585 1.12346,-2.50932 2.50932,-2.50932z" stroke="#000000"/><path d="M335.3484,164.82835c-1.54423,0 -2.79609,-0.28889 -2.79609,-0.64526c0,-0.35637 1.25185,-0.64526 2.79609,-0.64526c1.54423,0 2.79609,0.28889 2.79609,0.64526c0,0.35637 -1.25185,0.64526 -2.79609,0.64526z" stroke="none"/><path d="M327.89217,164.61327c-1.54423,0 -2.79609,-0.28889 -2.79609,-0.64526c0,-0.35637 1.25185,-0.64526 2.79609,-0.64526c1.54423,0 2.79609,0.28889 2.79609,0.64526c0,0.35637 -1.25185,0.64526 -2.79609,0.64526z" stroke="none"/><path d="M331.04671,167.26596c0,-1.54423 0.28889,-2.79609 0.64526,-2.79609c0.35637,0 0.64526,1.25185 0.64526,2.79609c0,1.54423 -0.28889,2.79609 -0.64526,2.79609c-0.35637,0 -0.64526,-1.25185 -0.64526,-2.79609z" stroke="none"/><path d="M331.04671,160.95683c0,-1.54423 0.28889,-2.79609 0.64526,-2.79609c0.35637,0 0.64526,1.25185 0.64526,2.79609c0,1.54423 -0.28889,2.7961 -0.64526,2.7961c-0.35637,0 -0.64526,-1.25185 -0.64526,-2.7961z" stroke="none"/></g></g></g></g></svg>