<svg version="1.1" xmlns="http://www.w3.org/2000/svg" xmlns:xlink="http://www.w3.org/1999/xlink" width="345" height="200" viewBox="0,0,345,200"><defs><linearGradient x1="247.21282" y1="157.55218" x2="247.99399" y2="155.61661" gradientUnits="userSpaceOnUse" id="color-1"><stop offset="0" stop-color="#edafbc"/><stop offset="1" stop-color="#d29ca8"/></linearGradient><linearGradient x1="239.65945" y1="189.21544" x2="238.94692" y2="191.17731" gradientUnits="userSpaceOnUse" id="color-2"><stop offset="0" stop-color="#edafbc"/><stop offset="1" stop-color="#d29ca8"/></linearGradient><linearGradient x1="204.17412" y1="177.60999" x2="234.62551" y2="177.60999" gradientUnits="userSpaceOnUse" id="color-3"><stop offset="0" stop-color="#edafbc"/><stop offset="1" stop-color="#ca96a1"/></linearGradient></defs><g transform="translate(-67.5,-80)"><g data-paper-data="{&quot;isPaintingLayer&quot;:true}" fill-rule="nonzero" stroke-linecap="butt" stroke-linejoin="miter" stroke-miterlimit="10" stroke-dasharray="" stroke-dashoffset="0" style="mix-blend-mode: normal"><g data-paper-data="{&quot;index&quot;:null}" stroke-width="0"><g fill="#ffd726"><path d="M252.3303,148.55942l-3.51531,8.7102l-1.89907,-0.76643l3.51531,-8.7102z" stroke="#ff0000"/><path d="M260.53502,150.11765c-0.17174,0.42554 -2.7443,1.19091 -5.14557,0.22179c-2.40126,-0.96911 -4.20864,-2.09971 -4.0369,-2.52526c0.17175,-0.42555 2.17645,0.2161 4.57772,1.18522c2.40125,0.96911 4.77649,0.69269 4.60475,1.11823z" stroke="#ff0000"/><path d="M252.91118,148.5601c-0.17921,0.44406 -2.13685,0.07258 -4.3725,-0.8297c-2.23565,-0.90228 -3.37014,-3.02538 -3.19093,-3.46942c0.17921,-0.44406 1.3691,1.25378 3.60476,2.15606c2.23565,0.90229 4.13789,1.69904 3.95868,2.14308z" stroke="none"/><path d="M250.93763,146.5287c1.50628,1.50659 3.45264,2.17114 2.94657,2.403c-0.50607,0.23185 -2.65274,-0.23038 -4.15901,-1.73695c-1.50628,-1.50659 -1.80179,-3.48704 -1.29571,-3.71888c0.50607,-0.23186 1.00188,1.54626 2.50815,3.05284z" stroke="none"/></g><path d="M247.00408,155.21711l0.45095,0.8258l1.0649,-0.21036l0.48122,0.84007l0.83562,0.08844l5.09692,4.53659c0,0 -7.36038,-3.59997 -8.06822,-3.88564c-0.59295,-0.23931 -5.95098,-2.28833 -5.95098,-2.28833l4.95862,0.03768z" fill="url(#color-1)" stroke="#ff0000"/></g><g stroke-width="0"><g fill="#ffd726"><path d="M235.53104,198.62589l3.20647,-8.82856l1.92487,0.6991l-3.20647,8.82856z" stroke="#ff0000"/><path d="M244.60047,203.64941c-0.15665,0.43133 -1.73874,-1.36177 -4.17264,-2.24574c-2.43389,-0.88397 -4.35395,-1.7465 -4.1973,-2.17783c0.15665,-0.43133 2.25672,-0.06438 4.6906,0.81959c2.43389,0.88397 3.83599,3.17264 3.67933,3.60397z" stroke="#ff0000"/><path d="M237.88847,199.71269c-0.16347,0.45009 -2.11096,-0.22859 -4.37699,-1.05159c-2.26604,-0.82301 -4.28587,-0.35531 -4.1224,-0.80539c0.16347,-0.45009 2.4263,-1.27115 4.69235,-0.44814c2.26604,0.82301 3.97052,1.85505 3.80704,2.30513z" stroke="none"/><path d="M235.06275,199.90476c-2.12737,0.11397 -3.68455,1.10527 -3.90604,0.59457c-0.22149,-0.51069 1.32193,-1.78636 3.4493,-1.90035c2.12737,-0.11397 4.0331,0.97688 4.25459,1.48758c0.22149,0.51069 -1.67047,-0.2958 -3.79784,-0.18181z" stroke="none"/></g><path d="M237.065,190.09849l-3.71369,-3.28599c0,0 5.35505,2.0568 5.95607,2.27508c0.71746,0.26058 8.59854,2.50195 8.59854,2.50195l-6.82336,-0.0319l-0.68069,-0.49269l-0.91941,0.30327l-0.65154,-0.86819l-0.88735,0.31288z" fill="url(#color-2)" stroke="#ff0000"/></g><g stroke-width="0"><g><path d="M284.64845,169.80783c-0.10896,1.04738 2.33433,7.32778 1.34045,8.87098c-2.15355,3.34385 -8.73023,2.15116 -9.81585,2.06547c-1.58663,-0.12524 -2.59311,-2.9156 -2.24805,-6.23245c0.34506,-3.31685 1.91101,-5.90417 3.49764,-5.77893c1.58663,0.12524 7.57087,-2.24192 7.22581,1.07493z" fill="#906bc7" stroke="#ffffff"/><path d="M279.30411,174.13421c0,9.57869 -13.43146,17.34375 -30,17.34375c-16.56854,0 -30,-7.76506 -30,-17.34375c0,-9.57869 13.43146,-17.34375 30,-17.34375c16.56854,0 30,7.76506 30,17.34375z" fill="#ca96a1" stroke="none"/><path d="M249.21773,164.04184c-11.88667,0.25754 -21.83705,-1.21776 -21.90234,-4.23086c-0.02917,-1.34599 3.88765,-1.68452 7.1122,-2.8725c3.99384,-1.4714 0.18472,-4.24959 6.76146,-4.39209c11.88667,-0.25754 32.21032,5.51325 32.21032,5.51325c0,0 -12.29497,5.72466 -24.18165,5.9822z" data-paper-data="{&quot;index&quot;:null}" fill="#906bc7" stroke="#000000"/></g><path d="M274.2327,188.82678c0,0 -20.32364,5.7708 -32.21031,5.51326c-6.57674,-0.14249 -2.76762,-2.92069 -6.76146,-4.39209c-3.22456,-1.18798 -7.14137,-1.52651 -7.11221,-2.8725c0.06528,-3.0131 10.01567,-4.4884 21.90234,-4.23086c11.88667,0.25754 24.18164,5.98219 24.18164,5.98219z" fill="#906bc7" stroke="#000000"/></g><g><g stroke="#000000" stroke-width="0"><path d="M209.48994,180.98826c0.0712,2.31232 -2.91715,4.28062 -6.67466,4.39633c-3.75752,0.11571 -7.76343,-3.7422 -7.76343,-3.7422c0,0 3.74806,-4.51575 7.50558,-4.63145c3.75752,-0.11571 6.86131,1.665 6.93251,3.97732z" fill="#ffd726"/><path d="M209.48349,180.77892c0.06052,1.96547 -2.47957,3.63853 -5.67346,3.73688c-3.19389,0.09835 -6.59892,-3.18086 -6.59892,-3.18086c0,0 3.18585,-3.83839 6.37974,-3.93674c3.19389,-0.09835 5.83211,1.41525 5.89264,3.38072z" fill="#debb21"/><path d="M210.69948,177.58345c0.04593,1.49149 0.72478,4.39712 -2.77853,5.86682c-1.51968,0.92665 -3.18515,-0.76397 -5.42486,-0.69501c-4.39705,0.1354 -9.10791,-5.03228 -9.10791,-5.03228c0,0 4.37187,-5.8409 8.76892,-5.9763c1.70614,-0.05254 4.98743,-0.99115 6.37853,-0.29289c2.19402,1.1013 2.10656,4.26928 2.16385,6.12966z" fill="#ffd726"/></g><path d="M234.62551,177.33221c0,2.98156 -2.9111,3.77178 -4.98283,5.9052c-2.66522,2.74459 -6.42186,6.71633 -10.93731,6.71633c-8.02539,0 -14.53125,-5.52649 -14.53125,-12.34375c0,-6.81726 6.50586,-12.34375 14.53125,-12.34375c2.39409,0 5.76407,2.15848 7.75535,3.02965c4.68378,2.04915 8.16479,4.25275 8.16479,9.03632z" fill="url(#color-3)" stroke="#000000" stroke-width="0"/><path d="M215.35214,168.4492c0.0714,1.80654 -1.79402,3.41619 -4.16656,3.59524c-2.37255,0.17904 -4.35376,-1.1403 -4.42514,-2.94684c-0.07142,-1.80654 1.79403,-3.41615 4.16657,-3.5952c2.37252,-0.17904 4.35373,1.1403 4.42515,2.94684z" data-paper-data="{&quot;index&quot;:null}" fill="#000000" stroke="#ffffff" stroke-width="0.25"/><path d="M214.67034,186.82487c-0.07142,1.80654 -2.05263,3.12588 -4.42515,2.94684c-2.37254,-0.17905 -4.23799,-1.78867 -4.16657,-3.5952c0.07138,-1.80654 2.0526,-3.12588 4.42514,-2.94684c2.37254,0.17905 4.23796,1.7887 4.16656,3.59524z" data-paper-data="{&quot;index&quot;:null}" fill="#000000" stroke="#ffffff" stroke-width="0.25"/><path d="M209.12993,176.06918v-0.60976h2.29227v0.60976z" fill="#000000" stroke="#ffffff" stroke-width="0"/><path d="M209.18457,177.30743l0.23088,-0.56436l2.1216,0.86794l-0.23088,0.56436z" fill="#000000" stroke="#ffffff" stroke-width="0"/><path d="M211.13668,173.26849l0.23088,0.56435l-2.1216,0.86794l-0.23087,-0.56436z" data-paper-data="{&quot;index&quot;:null}" fill="#000000" stroke="#ffffff" stroke-width="0"/></g><path d="M67.5,280v-200h345v200z" fill="none" stroke="#ffffff" stroke-width="0"/></g></g></svg>