<svg version="1.1" xmlns="http://www.w3.org/2000/svg" xmlns:xlink="http://www.w3.org/1999/xlink" width="40.06039" height="78.03322" viewBox="0,0,40.06039,78.03322"><g transform="translate(-216.21762,-144.74332)"><g data-paper-data="{&quot;isPaintingLayer&quot;:true}" fill-rule="nonzero" stroke="none" stroke-width="0" stroke-linecap="butt" stroke-linejoin="miter" stroke-miterlimit="10" stroke-dasharray="" stroke-dashoffset="0" style="mix-blend-mode: normal"><path d="" fill="#f0a787"/><path d="" fill="#000000"/><g><path d="M253.9861,220.58602c-0.49002,0.72331 -2.16496,-0.24642 -3.0065,0.1669c-0.28373,0.13936 0.07381,0.93907 -0.53021,1.31224c-0.72297,0.44667 -2.31209,0.30544 -2.94734,0.40277c-1.22513,0.1877 -2.72777,0.27217 -3.42696,0.30659c-2.02047,0.09946 -2.41591,-3.49632 -3.51584,-4.57184c-1.2544,-1.22656 -9.88004,-4.27827 -9.89113,-6.38353c-0.0052,-0.98756 7.22165,-1.51066 8.23415,-2.00795c0.7084,-0.34794 5.75839,5.69676 6.32047,5.56142c1.95388,-0.47048 3.16276,0.26542 4.5939,1.66479c1.35375,1.3237 4.56115,3.09993 4.16943,3.54862z" data-paper-data="{&quot;index&quot;:null}" fill="#f2a685"/><path d="M247.15547,220.62294l3.50565,0.72895c0,0 0.01656,0.63478 -0.23762,0.751c-0.31878,0.14577 -1.55896,0.19118 -1.55896,0.19118l-2.12768,-1.40574z" data-paper-data="{&quot;index&quot;:null}" fill="#d0735b"/></g><g data-paper-data="{&quot;index&quot;:null}"><path d="M222.083,174.32103c-1.12818,-0.23812 -0.14937,-2.18888 -0.92258,-2.87156c-0.26069,-0.23017 -1.30221,0.382 -1.96464,-0.08273c-0.79291,-0.55625 -0.95825,-2.14983 -1.24036,-2.73607c-0.54408,-1.1306 -1.00667,-2.56547 -1.21504,-3.23473c-0.60216,-1.93399 4.35828,-3.50653 5.61729,-4.93248c1.43582,-1.62621 3.74827,-11.03079 6.70297,-11.73689c1.38603,-0.33123 3.77491,6.531 4.70521,7.35239c0.65088,0.57468 -6.68418,7.48704 -6.36542,7.98949c1.10808,1.74662 0.35107,3.16647 -1.28704,5.02179c-1.54954,1.75501 -3.31047,5.46391 -4.03039,5.23078z" data-paper-data="{&quot;index&quot;:null}" fill="#f2a685"/><path d="M220.46772,167.68391l-0.22156,3.65335c0,0 -0.88788,0.22577 -1.10931,0.01673c-0.27771,-0.26217 -0.62537,-1.45443 -0.62537,-1.45443l1.48765,-2.53549z" data-paper-data="{&quot;index&quot;:null}" fill="#d0735b"/></g><g><path d="M233.03667,165.99585c-5.86873,0 -11.75223,-4.19456 -11.75223,-10.06328c0,-5.86873 5.8835,-11.18925 11.75223,-11.18925c5.86873,0 10.62626,4.75754 10.62626,10.62626c0,5.86873 -4.75754,10.62626 -10.62626,10.62626z" fill="#376fac"/><path d="M233.03667,215.25667c-5.86873,0 -13.15968,-8.69841 -13.15968,-14.56712c0,-5.86872 7.29095,-6.6854 13.15968,-6.6854c5.86873,0 10.62626,4.75754 10.62626,10.62626c0,5.86872 -4.75754,10.62626 -10.62626,10.62626z" fill="#376fac"/><path d="M231.76996,211.5973c-10.61777,-0.15099 -15.55234,-14.33357 -15.55234,-31.66767c0,-17.33411 3.51465,-31.41055 15.4116,-31.38618c10.05443,0.0206 15.4116,14.05207 15.4116,31.38618c0,17.33411 -2.95315,31.84284 -15.27085,31.66767z" fill="#4f9ee3"/><path d="M237.5725,193.80083c-1.17914,0.03138 -2.28458,-0.83722 -3.31934,-0.91372c-9.40584,-0.69543 -12.97191,-4.87365 -12.97191,-11.8589c0,-6.42226 1.59585,-11.34677 10.23946,-12.98201c1.79198,-0.33902 3.88688,-1.07544 6.33328,-1.05731c8.86287,0.06567 16.57275,6.28562 16.57275,14.03934c0,7.75371 -7.70461,12.52909 -16.85424,12.77263z" fill="#f0a787"/><path d="M253.52949,182.55881c-1.16597,0 -2.11118,-0.94521 -2.11118,-2.11118c0,-1.16597 0.94521,-2.11118 2.11118,-2.11118c1.16597,0 2.63898,0.73408 2.74453,2.00562c0.09646,1.16197 -1.57857,2.21674 -2.74453,2.21674z" fill="#f0a787"/><path d="M234.58166,193.53693c-9.28276,0 -13.77544,-4.64083 -13.77544,-11.92816c0,-3.97536 0.04282,-8.1649 2.95564,-11.00415c2.63666,-2.57007 7.73612,-2.87249 11.34759,-3.35186c0.50754,-0.06738 3.67276,-0.71128 5.93437,0.57982c1.99467,1.13871 3.14577,4.22813 3.14577,4.22813c0,0 0.23964,-2.10482 1.32501,-1.33522c1.5621,1.10763 0.37794,2.63823 0.37794,2.63823c0,0 0.9901,-1.80735 1.68503,-1.03805c0.86012,0.95216 -0.41492,3.09566 -0.41492,3.09566l2.25003,-1.30724c0,0 1.1092,5.23659 -2.64449,12.66389c-0.94983,1.8794 -4.43819,4.55979 -4.43819,4.55979c0,0 1.67186,1.39012 0.06508,1.93782c-2.56898,1.07965 -6.52146,0.26133 -7.81342,0.26133z" fill="#000000"/></g></g></g></svg>