<svg version="1.1" xmlns="http://www.w3.org/2000/svg" xmlns:xlink="http://www.w3.org/1999/xlink" width="74.95333" height="73.01832" viewBox="0,0,74.95333,73.01832"><g transform="translate(-199.5341,-152.80065)"><g data-paper-data="{&quot;isPaintingLayer&quot;:true}" fill-rule="nonzero" stroke="#000000" stroke-linecap="butt" stroke-linejoin="miter" stroke-miterlimit="10" stroke-dasharray="" stroke-dashoffset="0" style="mix-blend-mode: normal"><path d="M267.44,217.83926c-5.11832,10.73106 -49.55355,6.7037 -58.29746,1.16402c-9.5794,-6.06899 -11.67821,-46.7595 -2.32544,-57.12673c10.90997,-12.09333 47.46741,-8.29436 58.5721,-1.18019c10.31659,6.60927 9.89193,40.70317 2.05081,57.1429z" fill="#38ff00" stroke-width="2.5"/><path d="M213.65554,196.06286c-0.74576,-12.66505 8.91674,-23.53665 21.58179,-24.28241c12.66505,-0.74576 23.53665,8.91674 24.28241,21.58179c0.74576,12.66505 -8.91674,23.53665 -21.58179,24.28241c-12.66505,0.74576 -23.53665,-8.91674 -24.28241,-21.58179z" fill="#26b100" stroke-width="2.5"/><g stroke-width="2.5"><path d="M249.45374,164.89997c1.70707,-3.13609 5.63322,-4.29453 8.7693,-2.58746c3.13609,1.70707 4.29453,5.63322 2.58746,8.7693c-1.70707,3.13609 -5.63322,4.29453 -8.7693,2.58746c-3.13609,-1.70707 -4.29453,-5.63322 -2.58746,-8.7693z" fill="#ffffff"/><path d="M249.19217,167.10681c0.8717,-1.60141 2.87654,-2.19296 4.47794,-1.32126c1.60141,0.8717 2.19296,2.87654 1.32126,4.47794c-0.8717,1.60141 -2.87654,2.19296 -4.47794,1.32126c-1.60141,-0.8717 -2.19296,-2.87654 -1.32126,-4.47794z" fill="#000000"/></g><g stroke-width="2.5"><path d="M214.09011,163.39965c1.70707,-3.13609 5.63322,-4.29453 8.7693,-2.58746c3.13609,1.70707 4.29453,5.63322 2.58746,8.7693c-1.70707,3.13609 -5.63322,4.29453 -8.7693,2.58746c-3.13609,-1.70707 -4.29453,-5.63322 -2.58746,-8.7693z" fill="#ffffff"/><path d="M213.82856,165.60648c0.8717,-1.60141 2.87654,-2.19296 4.47794,-1.32126c1.60141,0.8717 2.19296,2.87654 1.32126,4.47794c-0.8717,1.60141 -2.87654,2.19296 -4.47794,1.32126c-1.60141,-0.8717 -2.19296,-2.87654 -1.32126,-4.47794z" fill="#000000"/></g><path d="M236.21611,195.42339l-1.08348,-18.4006l3.8449,-0.2264l1.08348,18.4006z" fill="#ffffff" stroke-width="1.5"/><path d="M222.54541,193.23106l0.77772,-3.65753l17.82356,4.69862l-1.06853,3.39907z" fill="#ffffff" stroke-width="1.5"/><path d="M231.79769,195.27019c-0.17416,-2.95771 2.08235,-5.49658 5.04006,-5.67074c2.95771,-0.17416 5.49658,2.08235 5.67074,5.04006c0.17416,2.95771 -2.08235,5.49658 -5.04006,5.67074c-2.95771,0.17416 -5.49658,-2.08235 -5.67074,-5.04006z" fill="#ffffff" stroke-width="1.5"/></g></g></svg>